%TF.GenerationSoftware,KiCad,Pcbnew,7.0.9-7.0.9~ubuntu22.04.1*%
%TF.CreationDate,2024-01-21T01:01:47-07:00*%
%TF.ProjectId,Multimeter,4d756c74-696d-4657-9465-722e6b696361,rev?*%
%TF.SameCoordinates,Original*%
%TF.FileFunction,Paste,Top*%
%TF.FilePolarity,Positive*%
%FSLAX46Y46*%
G04 Gerber Fmt 4.6, Leading zero omitted, Abs format (unit mm)*
G04 Created by KiCad (PCBNEW 7.0.9-7.0.9~ubuntu22.04.1) date 2024-01-21 01:01:47*
%MOMM*%
%LPD*%
G01*
G04 APERTURE LIST*
G04 Aperture macros list*
%AMRoundRect*
0 Rectangle with rounded corners*
0 $1 Rounding radius*
0 $2 $3 $4 $5 $6 $7 $8 $9 X,Y pos of 4 corners*
0 Add a 4 corners polygon primitive as box body*
4,1,4,$2,$3,$4,$5,$6,$7,$8,$9,$2,$3,0*
0 Add four circle primitives for the rounded corners*
1,1,$1+$1,$2,$3*
1,1,$1+$1,$4,$5*
1,1,$1+$1,$6,$7*
1,1,$1+$1,$8,$9*
0 Add four rect primitives between the rounded corners*
20,1,$1+$1,$2,$3,$4,$5,0*
20,1,$1+$1,$4,$5,$6,$7,0*
20,1,$1+$1,$6,$7,$8,$9,0*
20,1,$1+$1,$8,$9,$2,$3,0*%
G04 Aperture macros list end*
%ADD10C,0.010000*%
%ADD11R,1.000000X0.400000*%
%ADD12RoundRect,0.150000X0.150000X-0.587500X0.150000X0.587500X-0.150000X0.587500X-0.150000X-0.587500X0*%
%ADD13RoundRect,0.250000X0.450000X-0.350000X0.450000X0.350000X-0.450000X0.350000X-0.450000X-0.350000X0*%
%ADD14RoundRect,0.150000X-0.825000X-0.150000X0.825000X-0.150000X0.825000X0.150000X-0.825000X0.150000X0*%
%ADD15RoundRect,0.243750X0.243750X0.456250X-0.243750X0.456250X-0.243750X-0.456250X0.243750X-0.456250X0*%
%ADD16RoundRect,0.243750X-0.456250X0.243750X-0.456250X-0.243750X0.456250X-0.243750X0.456250X0.243750X0*%
%ADD17RoundRect,0.243750X0.456250X-0.243750X0.456250X0.243750X-0.456250X0.243750X-0.456250X-0.243750X0*%
%ADD18RoundRect,0.250000X-0.350000X-0.450000X0.350000X-0.450000X0.350000X0.450000X-0.350000X0.450000X0*%
%ADD19O,1.800000X1.100000*%
%ADD20O,1.450000X1.050000*%
%ADD21RoundRect,0.450000X-0.300000X0.300000X-0.300000X-0.300000X0.300000X-0.300000X0.300000X0.300000X0*%
%ADD22RoundRect,0.250000X-0.450000X0.350000X-0.450000X-0.350000X0.450000X-0.350000X0.450000X0.350000X0*%
%ADD23RoundRect,0.250000X0.350000X0.450000X-0.350000X0.450000X-0.350000X-0.450000X0.350000X-0.450000X0*%
%ADD24RoundRect,0.250000X-0.475000X0.250000X-0.475000X-0.250000X0.475000X-0.250000X0.475000X0.250000X0*%
%ADD25R,0.300000X0.850000*%
%ADD26R,0.400000X1.350000*%
%ADD27R,2.900000X1.900000*%
%ADD28RoundRect,0.150000X0.150000X-0.825000X0.150000X0.825000X-0.150000X0.825000X-0.150000X-0.825000X0*%
%ADD29RoundRect,0.250000X0.300000X0.300000X-0.300000X0.300000X-0.300000X-0.300000X0.300000X-0.300000X0*%
%ADD30RoundRect,0.250000X0.250000X0.475000X-0.250000X0.475000X-0.250000X-0.475000X0.250000X-0.475000X0*%
%ADD31RoundRect,0.250000X0.475000X-0.250000X0.475000X0.250000X-0.475000X0.250000X-0.475000X-0.250000X0*%
%ADD32RoundRect,0.150000X0.150000X-0.512500X0.150000X0.512500X-0.150000X0.512500X-0.150000X-0.512500X0*%
%ADD33RoundRect,0.250000X0.337500X0.475000X-0.337500X0.475000X-0.337500X-0.475000X0.337500X-0.475000X0*%
G04 APERTURE END LIST*
%TO.C,U1*%
D10*
X173380000Y-80997500D02*
X173379000Y-81039500D01*
X173376000Y-81081500D01*
X173370000Y-81122500D01*
X173363000Y-81163500D01*
X173353000Y-81204500D01*
X173341000Y-81244500D01*
X173327000Y-81284500D01*
X173311000Y-81322500D01*
X173293000Y-81360500D01*
X173273000Y-81397500D01*
X173251000Y-81433500D01*
X173227000Y-81467500D01*
X173202000Y-81500500D01*
X173175000Y-81532500D01*
X173146000Y-81563500D01*
X173115000Y-81592500D01*
X173083000Y-81619500D01*
X173050000Y-81644500D01*
X173016000Y-81668500D01*
X172980000Y-81690500D01*
X172943000Y-81710500D01*
X172905000Y-81728500D01*
X172867000Y-81744500D01*
X172827000Y-81758500D01*
X172787000Y-81770500D01*
X172746000Y-81780500D01*
X172705000Y-81787500D01*
X172664000Y-81793500D01*
X172622000Y-81796500D01*
X172580000Y-81797500D01*
X172538000Y-81796500D01*
X172496000Y-81793500D01*
X172455000Y-81787500D01*
X172414000Y-81780500D01*
X172373000Y-81770500D01*
X172333000Y-81758500D01*
X172293000Y-81744500D01*
X172255000Y-81728500D01*
X172217000Y-81710500D01*
X172180000Y-81690500D01*
X172144000Y-81668500D01*
X172110000Y-81644500D01*
X172077000Y-81619500D01*
X172045000Y-81592500D01*
X172014000Y-81563500D01*
X171985000Y-81532500D01*
X171958000Y-81500500D01*
X171933000Y-81467500D01*
X171909000Y-81433500D01*
X171887000Y-81397500D01*
X171867000Y-81360500D01*
X171849000Y-81322500D01*
X171833000Y-81284500D01*
X171819000Y-81244500D01*
X171807000Y-81204500D01*
X171797000Y-81163500D01*
X171790000Y-81122500D01*
X171784000Y-81081500D01*
X171781000Y-81039500D01*
X171780000Y-80997500D01*
X171780000Y-78597500D01*
X173380000Y-78597500D01*
X173380000Y-80997500D01*
G36*
X173380000Y-80997500D02*
G01*
X173379000Y-81039500D01*
X173376000Y-81081500D01*
X173370000Y-81122500D01*
X173363000Y-81163500D01*
X173353000Y-81204500D01*
X173341000Y-81244500D01*
X173327000Y-81284500D01*
X173311000Y-81322500D01*
X173293000Y-81360500D01*
X173273000Y-81397500D01*
X173251000Y-81433500D01*
X173227000Y-81467500D01*
X173202000Y-81500500D01*
X173175000Y-81532500D01*
X173146000Y-81563500D01*
X173115000Y-81592500D01*
X173083000Y-81619500D01*
X173050000Y-81644500D01*
X173016000Y-81668500D01*
X172980000Y-81690500D01*
X172943000Y-81710500D01*
X172905000Y-81728500D01*
X172867000Y-81744500D01*
X172827000Y-81758500D01*
X172787000Y-81770500D01*
X172746000Y-81780500D01*
X172705000Y-81787500D01*
X172664000Y-81793500D01*
X172622000Y-81796500D01*
X172580000Y-81797500D01*
X172538000Y-81796500D01*
X172496000Y-81793500D01*
X172455000Y-81787500D01*
X172414000Y-81780500D01*
X172373000Y-81770500D01*
X172333000Y-81758500D01*
X172293000Y-81744500D01*
X172255000Y-81728500D01*
X172217000Y-81710500D01*
X172180000Y-81690500D01*
X172144000Y-81668500D01*
X172110000Y-81644500D01*
X172077000Y-81619500D01*
X172045000Y-81592500D01*
X172014000Y-81563500D01*
X171985000Y-81532500D01*
X171958000Y-81500500D01*
X171933000Y-81467500D01*
X171909000Y-81433500D01*
X171887000Y-81397500D01*
X171867000Y-81360500D01*
X171849000Y-81322500D01*
X171833000Y-81284500D01*
X171819000Y-81244500D01*
X171807000Y-81204500D01*
X171797000Y-81163500D01*
X171790000Y-81122500D01*
X171784000Y-81081500D01*
X171781000Y-81039500D01*
X171780000Y-80997500D01*
X171780000Y-78597500D01*
X173380000Y-78597500D01*
X173380000Y-80997500D01*
G37*
X170840000Y-80997500D02*
X170839000Y-81039500D01*
X170836000Y-81081500D01*
X170830000Y-81122500D01*
X170823000Y-81163500D01*
X170813000Y-81204500D01*
X170801000Y-81244500D01*
X170787000Y-81284500D01*
X170771000Y-81322500D01*
X170753000Y-81360500D01*
X170733000Y-81397500D01*
X170711000Y-81433500D01*
X170687000Y-81467500D01*
X170662000Y-81500500D01*
X170635000Y-81532500D01*
X170606000Y-81563500D01*
X170575000Y-81592500D01*
X170543000Y-81619500D01*
X170510000Y-81644500D01*
X170476000Y-81668500D01*
X170440000Y-81690500D01*
X170403000Y-81710500D01*
X170365000Y-81728500D01*
X170327000Y-81744500D01*
X170287000Y-81758500D01*
X170247000Y-81770500D01*
X170206000Y-81780500D01*
X170165000Y-81787500D01*
X170124000Y-81793500D01*
X170082000Y-81796500D01*
X170040000Y-81797500D01*
X169998000Y-81796500D01*
X169956000Y-81793500D01*
X169915000Y-81787500D01*
X169874000Y-81780500D01*
X169833000Y-81770500D01*
X169793000Y-81758500D01*
X169753000Y-81744500D01*
X169715000Y-81728500D01*
X169677000Y-81710500D01*
X169640000Y-81690500D01*
X169604000Y-81668500D01*
X169570000Y-81644500D01*
X169537000Y-81619500D01*
X169505000Y-81592500D01*
X169474000Y-81563500D01*
X169445000Y-81532500D01*
X169418000Y-81500500D01*
X169393000Y-81467500D01*
X169369000Y-81433500D01*
X169347000Y-81397500D01*
X169327000Y-81360500D01*
X169309000Y-81322500D01*
X169293000Y-81284500D01*
X169279000Y-81244500D01*
X169267000Y-81204500D01*
X169257000Y-81163500D01*
X169250000Y-81122500D01*
X169244000Y-81081500D01*
X169241000Y-81039500D01*
X169240000Y-80997500D01*
X169240000Y-78597500D01*
X170840000Y-78597500D01*
X170840000Y-80997500D01*
G36*
X170840000Y-80997500D02*
G01*
X170839000Y-81039500D01*
X170836000Y-81081500D01*
X170830000Y-81122500D01*
X170823000Y-81163500D01*
X170813000Y-81204500D01*
X170801000Y-81244500D01*
X170787000Y-81284500D01*
X170771000Y-81322500D01*
X170753000Y-81360500D01*
X170733000Y-81397500D01*
X170711000Y-81433500D01*
X170687000Y-81467500D01*
X170662000Y-81500500D01*
X170635000Y-81532500D01*
X170606000Y-81563500D01*
X170575000Y-81592500D01*
X170543000Y-81619500D01*
X170510000Y-81644500D01*
X170476000Y-81668500D01*
X170440000Y-81690500D01*
X170403000Y-81710500D01*
X170365000Y-81728500D01*
X170327000Y-81744500D01*
X170287000Y-81758500D01*
X170247000Y-81770500D01*
X170206000Y-81780500D01*
X170165000Y-81787500D01*
X170124000Y-81793500D01*
X170082000Y-81796500D01*
X170040000Y-81797500D01*
X169998000Y-81796500D01*
X169956000Y-81793500D01*
X169915000Y-81787500D01*
X169874000Y-81780500D01*
X169833000Y-81770500D01*
X169793000Y-81758500D01*
X169753000Y-81744500D01*
X169715000Y-81728500D01*
X169677000Y-81710500D01*
X169640000Y-81690500D01*
X169604000Y-81668500D01*
X169570000Y-81644500D01*
X169537000Y-81619500D01*
X169505000Y-81592500D01*
X169474000Y-81563500D01*
X169445000Y-81532500D01*
X169418000Y-81500500D01*
X169393000Y-81467500D01*
X169369000Y-81433500D01*
X169347000Y-81397500D01*
X169327000Y-81360500D01*
X169309000Y-81322500D01*
X169293000Y-81284500D01*
X169279000Y-81244500D01*
X169267000Y-81204500D01*
X169257000Y-81163500D01*
X169250000Y-81122500D01*
X169244000Y-81081500D01*
X169241000Y-81039500D01*
X169240000Y-80997500D01*
X169240000Y-78597500D01*
X170840000Y-78597500D01*
X170840000Y-80997500D01*
G37*
X165760000Y-80997500D02*
X165759000Y-81039500D01*
X165756000Y-81081500D01*
X165750000Y-81122500D01*
X165743000Y-81163500D01*
X165733000Y-81204500D01*
X165721000Y-81244500D01*
X165707000Y-81284500D01*
X165691000Y-81322500D01*
X165673000Y-81360500D01*
X165653000Y-81397500D01*
X165631000Y-81433500D01*
X165607000Y-81467500D01*
X165582000Y-81500500D01*
X165555000Y-81532500D01*
X165526000Y-81563500D01*
X165495000Y-81592500D01*
X165463000Y-81619500D01*
X165430000Y-81644500D01*
X165396000Y-81668500D01*
X165360000Y-81690500D01*
X165323000Y-81710500D01*
X165285000Y-81728500D01*
X165247000Y-81744500D01*
X165207000Y-81758500D01*
X165167000Y-81770500D01*
X165126000Y-81780500D01*
X165085000Y-81787500D01*
X165044000Y-81793500D01*
X165002000Y-81796500D01*
X164960000Y-81797500D01*
X164918000Y-81796500D01*
X164876000Y-81793500D01*
X164835000Y-81787500D01*
X164794000Y-81780500D01*
X164753000Y-81770500D01*
X164713000Y-81758500D01*
X164673000Y-81744500D01*
X164635000Y-81728500D01*
X164597000Y-81710500D01*
X164560000Y-81690500D01*
X164524000Y-81668500D01*
X164490000Y-81644500D01*
X164457000Y-81619500D01*
X164425000Y-81592500D01*
X164394000Y-81563500D01*
X164365000Y-81532500D01*
X164338000Y-81500500D01*
X164313000Y-81467500D01*
X164289000Y-81433500D01*
X164267000Y-81397500D01*
X164247000Y-81360500D01*
X164229000Y-81322500D01*
X164213000Y-81284500D01*
X164199000Y-81244500D01*
X164187000Y-81204500D01*
X164177000Y-81163500D01*
X164170000Y-81122500D01*
X164164000Y-81081500D01*
X164161000Y-81039500D01*
X164160000Y-80997500D01*
X164160000Y-78597500D01*
X165760000Y-78597500D01*
X165760000Y-80997500D01*
G36*
X165760000Y-80997500D02*
G01*
X165759000Y-81039500D01*
X165756000Y-81081500D01*
X165750000Y-81122500D01*
X165743000Y-81163500D01*
X165733000Y-81204500D01*
X165721000Y-81244500D01*
X165707000Y-81284500D01*
X165691000Y-81322500D01*
X165673000Y-81360500D01*
X165653000Y-81397500D01*
X165631000Y-81433500D01*
X165607000Y-81467500D01*
X165582000Y-81500500D01*
X165555000Y-81532500D01*
X165526000Y-81563500D01*
X165495000Y-81592500D01*
X165463000Y-81619500D01*
X165430000Y-81644500D01*
X165396000Y-81668500D01*
X165360000Y-81690500D01*
X165323000Y-81710500D01*
X165285000Y-81728500D01*
X165247000Y-81744500D01*
X165207000Y-81758500D01*
X165167000Y-81770500D01*
X165126000Y-81780500D01*
X165085000Y-81787500D01*
X165044000Y-81793500D01*
X165002000Y-81796500D01*
X164960000Y-81797500D01*
X164918000Y-81796500D01*
X164876000Y-81793500D01*
X164835000Y-81787500D01*
X164794000Y-81780500D01*
X164753000Y-81770500D01*
X164713000Y-81758500D01*
X164673000Y-81744500D01*
X164635000Y-81728500D01*
X164597000Y-81710500D01*
X164560000Y-81690500D01*
X164524000Y-81668500D01*
X164490000Y-81644500D01*
X164457000Y-81619500D01*
X164425000Y-81592500D01*
X164394000Y-81563500D01*
X164365000Y-81532500D01*
X164338000Y-81500500D01*
X164313000Y-81467500D01*
X164289000Y-81433500D01*
X164267000Y-81397500D01*
X164247000Y-81360500D01*
X164229000Y-81322500D01*
X164213000Y-81284500D01*
X164199000Y-81244500D01*
X164187000Y-81204500D01*
X164177000Y-81163500D01*
X164170000Y-81122500D01*
X164164000Y-81081500D01*
X164161000Y-81039500D01*
X164160000Y-80997500D01*
X164160000Y-78597500D01*
X165760000Y-78597500D01*
X165760000Y-80997500D01*
G37*
X163220000Y-80997500D02*
X163219000Y-81039500D01*
X163216000Y-81081500D01*
X163210000Y-81122500D01*
X163203000Y-81163500D01*
X163193000Y-81204500D01*
X163181000Y-81244500D01*
X163167000Y-81284500D01*
X163151000Y-81322500D01*
X163133000Y-81360500D01*
X163113000Y-81397500D01*
X163091000Y-81433500D01*
X163067000Y-81467500D01*
X163042000Y-81500500D01*
X163015000Y-81532500D01*
X162986000Y-81563500D01*
X162955000Y-81592500D01*
X162923000Y-81619500D01*
X162890000Y-81644500D01*
X162856000Y-81668500D01*
X162820000Y-81690500D01*
X162783000Y-81710500D01*
X162745000Y-81728500D01*
X162707000Y-81744500D01*
X162667000Y-81758500D01*
X162627000Y-81770500D01*
X162586000Y-81780500D01*
X162545000Y-81787500D01*
X162504000Y-81793500D01*
X162462000Y-81796500D01*
X162420000Y-81797500D01*
X162378000Y-81796500D01*
X162336000Y-81793500D01*
X162295000Y-81787500D01*
X162254000Y-81780500D01*
X162213000Y-81770500D01*
X162173000Y-81758500D01*
X162133000Y-81744500D01*
X162095000Y-81728500D01*
X162057000Y-81710500D01*
X162020000Y-81690500D01*
X161984000Y-81668500D01*
X161950000Y-81644500D01*
X161917000Y-81619500D01*
X161885000Y-81592500D01*
X161854000Y-81563500D01*
X161825000Y-81532500D01*
X161798000Y-81500500D01*
X161773000Y-81467500D01*
X161749000Y-81433500D01*
X161727000Y-81397500D01*
X161707000Y-81360500D01*
X161689000Y-81322500D01*
X161673000Y-81284500D01*
X161659000Y-81244500D01*
X161647000Y-81204500D01*
X161637000Y-81163500D01*
X161630000Y-81122500D01*
X161624000Y-81081500D01*
X161621000Y-81039500D01*
X161620000Y-80997500D01*
X161620000Y-78597500D01*
X163220000Y-78597500D01*
X163220000Y-80997500D01*
G36*
X163220000Y-80997500D02*
G01*
X163219000Y-81039500D01*
X163216000Y-81081500D01*
X163210000Y-81122500D01*
X163203000Y-81163500D01*
X163193000Y-81204500D01*
X163181000Y-81244500D01*
X163167000Y-81284500D01*
X163151000Y-81322500D01*
X163133000Y-81360500D01*
X163113000Y-81397500D01*
X163091000Y-81433500D01*
X163067000Y-81467500D01*
X163042000Y-81500500D01*
X163015000Y-81532500D01*
X162986000Y-81563500D01*
X162955000Y-81592500D01*
X162923000Y-81619500D01*
X162890000Y-81644500D01*
X162856000Y-81668500D01*
X162820000Y-81690500D01*
X162783000Y-81710500D01*
X162745000Y-81728500D01*
X162707000Y-81744500D01*
X162667000Y-81758500D01*
X162627000Y-81770500D01*
X162586000Y-81780500D01*
X162545000Y-81787500D01*
X162504000Y-81793500D01*
X162462000Y-81796500D01*
X162420000Y-81797500D01*
X162378000Y-81796500D01*
X162336000Y-81793500D01*
X162295000Y-81787500D01*
X162254000Y-81780500D01*
X162213000Y-81770500D01*
X162173000Y-81758500D01*
X162133000Y-81744500D01*
X162095000Y-81728500D01*
X162057000Y-81710500D01*
X162020000Y-81690500D01*
X161984000Y-81668500D01*
X161950000Y-81644500D01*
X161917000Y-81619500D01*
X161885000Y-81592500D01*
X161854000Y-81563500D01*
X161825000Y-81532500D01*
X161798000Y-81500500D01*
X161773000Y-81467500D01*
X161749000Y-81433500D01*
X161727000Y-81397500D01*
X161707000Y-81360500D01*
X161689000Y-81322500D01*
X161673000Y-81284500D01*
X161659000Y-81244500D01*
X161647000Y-81204500D01*
X161637000Y-81163500D01*
X161630000Y-81122500D01*
X161624000Y-81081500D01*
X161621000Y-81039500D01*
X161620000Y-80997500D01*
X161620000Y-78597500D01*
X163220000Y-78597500D01*
X163220000Y-80997500D01*
G37*
X160680000Y-80997500D02*
X160679000Y-81039500D01*
X160676000Y-81081500D01*
X160670000Y-81122500D01*
X160663000Y-81163500D01*
X160653000Y-81204500D01*
X160641000Y-81244500D01*
X160627000Y-81284500D01*
X160611000Y-81322500D01*
X160593000Y-81360500D01*
X160573000Y-81397500D01*
X160551000Y-81433500D01*
X160527000Y-81467500D01*
X160502000Y-81500500D01*
X160475000Y-81532500D01*
X160446000Y-81563500D01*
X160415000Y-81592500D01*
X160383000Y-81619500D01*
X160350000Y-81644500D01*
X160316000Y-81668500D01*
X160280000Y-81690500D01*
X160243000Y-81710500D01*
X160205000Y-81728500D01*
X160167000Y-81744500D01*
X160127000Y-81758500D01*
X160087000Y-81770500D01*
X160046000Y-81780500D01*
X160005000Y-81787500D01*
X159964000Y-81793500D01*
X159922000Y-81796500D01*
X159880000Y-81797500D01*
X159838000Y-81796500D01*
X159796000Y-81793500D01*
X159755000Y-81787500D01*
X159714000Y-81780500D01*
X159673000Y-81770500D01*
X159633000Y-81758500D01*
X159593000Y-81744500D01*
X159555000Y-81728500D01*
X159517000Y-81710500D01*
X159480000Y-81690500D01*
X159444000Y-81668500D01*
X159410000Y-81644500D01*
X159377000Y-81619500D01*
X159345000Y-81592500D01*
X159314000Y-81563500D01*
X159285000Y-81532500D01*
X159258000Y-81500500D01*
X159233000Y-81467500D01*
X159209000Y-81433500D01*
X159187000Y-81397500D01*
X159167000Y-81360500D01*
X159149000Y-81322500D01*
X159133000Y-81284500D01*
X159119000Y-81244500D01*
X159107000Y-81204500D01*
X159097000Y-81163500D01*
X159090000Y-81122500D01*
X159084000Y-81081500D01*
X159081000Y-81039500D01*
X159080000Y-80997500D01*
X159080000Y-78597500D01*
X160680000Y-78597500D01*
X160680000Y-80997500D01*
G36*
X160680000Y-80997500D02*
G01*
X160679000Y-81039500D01*
X160676000Y-81081500D01*
X160670000Y-81122500D01*
X160663000Y-81163500D01*
X160653000Y-81204500D01*
X160641000Y-81244500D01*
X160627000Y-81284500D01*
X160611000Y-81322500D01*
X160593000Y-81360500D01*
X160573000Y-81397500D01*
X160551000Y-81433500D01*
X160527000Y-81467500D01*
X160502000Y-81500500D01*
X160475000Y-81532500D01*
X160446000Y-81563500D01*
X160415000Y-81592500D01*
X160383000Y-81619500D01*
X160350000Y-81644500D01*
X160316000Y-81668500D01*
X160280000Y-81690500D01*
X160243000Y-81710500D01*
X160205000Y-81728500D01*
X160167000Y-81744500D01*
X160127000Y-81758500D01*
X160087000Y-81770500D01*
X160046000Y-81780500D01*
X160005000Y-81787500D01*
X159964000Y-81793500D01*
X159922000Y-81796500D01*
X159880000Y-81797500D01*
X159838000Y-81796500D01*
X159796000Y-81793500D01*
X159755000Y-81787500D01*
X159714000Y-81780500D01*
X159673000Y-81770500D01*
X159633000Y-81758500D01*
X159593000Y-81744500D01*
X159555000Y-81728500D01*
X159517000Y-81710500D01*
X159480000Y-81690500D01*
X159444000Y-81668500D01*
X159410000Y-81644500D01*
X159377000Y-81619500D01*
X159345000Y-81592500D01*
X159314000Y-81563500D01*
X159285000Y-81532500D01*
X159258000Y-81500500D01*
X159233000Y-81467500D01*
X159209000Y-81433500D01*
X159187000Y-81397500D01*
X159167000Y-81360500D01*
X159149000Y-81322500D01*
X159133000Y-81284500D01*
X159119000Y-81244500D01*
X159107000Y-81204500D01*
X159097000Y-81163500D01*
X159090000Y-81122500D01*
X159084000Y-81081500D01*
X159081000Y-81039500D01*
X159080000Y-80997500D01*
X159080000Y-78597500D01*
X160680000Y-78597500D01*
X160680000Y-80997500D01*
G37*
X158140000Y-80997500D02*
X158139000Y-81039500D01*
X158136000Y-81081500D01*
X158130000Y-81122500D01*
X158123000Y-81163500D01*
X158113000Y-81204500D01*
X158101000Y-81244500D01*
X158087000Y-81284500D01*
X158071000Y-81322500D01*
X158053000Y-81360500D01*
X158033000Y-81397500D01*
X158011000Y-81433500D01*
X157987000Y-81467500D01*
X157962000Y-81500500D01*
X157935000Y-81532500D01*
X157906000Y-81563500D01*
X157875000Y-81592500D01*
X157843000Y-81619500D01*
X157810000Y-81644500D01*
X157776000Y-81668500D01*
X157740000Y-81690500D01*
X157703000Y-81710500D01*
X157665000Y-81728500D01*
X157627000Y-81744500D01*
X157587000Y-81758500D01*
X157547000Y-81770500D01*
X157506000Y-81780500D01*
X157465000Y-81787500D01*
X157424000Y-81793500D01*
X157382000Y-81796500D01*
X157340000Y-81797500D01*
X157298000Y-81796500D01*
X157256000Y-81793500D01*
X157215000Y-81787500D01*
X157174000Y-81780500D01*
X157133000Y-81770500D01*
X157093000Y-81758500D01*
X157053000Y-81744500D01*
X157015000Y-81728500D01*
X156977000Y-81710500D01*
X156940000Y-81690500D01*
X156904000Y-81668500D01*
X156870000Y-81644500D01*
X156837000Y-81619500D01*
X156805000Y-81592500D01*
X156774000Y-81563500D01*
X156745000Y-81532500D01*
X156718000Y-81500500D01*
X156693000Y-81467500D01*
X156669000Y-81433500D01*
X156647000Y-81397500D01*
X156627000Y-81360500D01*
X156609000Y-81322500D01*
X156593000Y-81284500D01*
X156579000Y-81244500D01*
X156567000Y-81204500D01*
X156557000Y-81163500D01*
X156550000Y-81122500D01*
X156544000Y-81081500D01*
X156541000Y-81039500D01*
X156540000Y-80997500D01*
X156540000Y-78597500D01*
X158140000Y-78597500D01*
X158140000Y-80997500D01*
G36*
X158140000Y-80997500D02*
G01*
X158139000Y-81039500D01*
X158136000Y-81081500D01*
X158130000Y-81122500D01*
X158123000Y-81163500D01*
X158113000Y-81204500D01*
X158101000Y-81244500D01*
X158087000Y-81284500D01*
X158071000Y-81322500D01*
X158053000Y-81360500D01*
X158033000Y-81397500D01*
X158011000Y-81433500D01*
X157987000Y-81467500D01*
X157962000Y-81500500D01*
X157935000Y-81532500D01*
X157906000Y-81563500D01*
X157875000Y-81592500D01*
X157843000Y-81619500D01*
X157810000Y-81644500D01*
X157776000Y-81668500D01*
X157740000Y-81690500D01*
X157703000Y-81710500D01*
X157665000Y-81728500D01*
X157627000Y-81744500D01*
X157587000Y-81758500D01*
X157547000Y-81770500D01*
X157506000Y-81780500D01*
X157465000Y-81787500D01*
X157424000Y-81793500D01*
X157382000Y-81796500D01*
X157340000Y-81797500D01*
X157298000Y-81796500D01*
X157256000Y-81793500D01*
X157215000Y-81787500D01*
X157174000Y-81780500D01*
X157133000Y-81770500D01*
X157093000Y-81758500D01*
X157053000Y-81744500D01*
X157015000Y-81728500D01*
X156977000Y-81710500D01*
X156940000Y-81690500D01*
X156904000Y-81668500D01*
X156870000Y-81644500D01*
X156837000Y-81619500D01*
X156805000Y-81592500D01*
X156774000Y-81563500D01*
X156745000Y-81532500D01*
X156718000Y-81500500D01*
X156693000Y-81467500D01*
X156669000Y-81433500D01*
X156647000Y-81397500D01*
X156627000Y-81360500D01*
X156609000Y-81322500D01*
X156593000Y-81284500D01*
X156579000Y-81244500D01*
X156567000Y-81204500D01*
X156557000Y-81163500D01*
X156550000Y-81122500D01*
X156544000Y-81081500D01*
X156541000Y-81039500D01*
X156540000Y-80997500D01*
X156540000Y-78597500D01*
X158140000Y-78597500D01*
X158140000Y-80997500D01*
G37*
X153060000Y-80997500D02*
X153059000Y-81039500D01*
X153056000Y-81081500D01*
X153050000Y-81122500D01*
X153043000Y-81163500D01*
X153033000Y-81204500D01*
X153021000Y-81244500D01*
X153007000Y-81284500D01*
X152991000Y-81322500D01*
X152973000Y-81360500D01*
X152953000Y-81397500D01*
X152931000Y-81433500D01*
X152907000Y-81467500D01*
X152882000Y-81500500D01*
X152855000Y-81532500D01*
X152826000Y-81563500D01*
X152795000Y-81592500D01*
X152763000Y-81619500D01*
X152730000Y-81644500D01*
X152696000Y-81668500D01*
X152660000Y-81690500D01*
X152623000Y-81710500D01*
X152585000Y-81728500D01*
X152547000Y-81744500D01*
X152507000Y-81758500D01*
X152467000Y-81770500D01*
X152426000Y-81780500D01*
X152385000Y-81787500D01*
X152344000Y-81793500D01*
X152302000Y-81796500D01*
X152260000Y-81797500D01*
X152218000Y-81796500D01*
X152176000Y-81793500D01*
X152135000Y-81787500D01*
X152094000Y-81780500D01*
X152053000Y-81770500D01*
X152013000Y-81758500D01*
X151973000Y-81744500D01*
X151935000Y-81728500D01*
X151897000Y-81710500D01*
X151860000Y-81690500D01*
X151824000Y-81668500D01*
X151790000Y-81644500D01*
X151757000Y-81619500D01*
X151725000Y-81592500D01*
X151694000Y-81563500D01*
X151665000Y-81532500D01*
X151638000Y-81500500D01*
X151613000Y-81467500D01*
X151589000Y-81433500D01*
X151567000Y-81397500D01*
X151547000Y-81360500D01*
X151529000Y-81322500D01*
X151513000Y-81284500D01*
X151499000Y-81244500D01*
X151487000Y-81204500D01*
X151477000Y-81163500D01*
X151470000Y-81122500D01*
X151464000Y-81081500D01*
X151461000Y-81039500D01*
X151460000Y-80997500D01*
X151460000Y-78597500D01*
X153060000Y-78597500D01*
X153060000Y-80997500D01*
G36*
X153060000Y-80997500D02*
G01*
X153059000Y-81039500D01*
X153056000Y-81081500D01*
X153050000Y-81122500D01*
X153043000Y-81163500D01*
X153033000Y-81204500D01*
X153021000Y-81244500D01*
X153007000Y-81284500D01*
X152991000Y-81322500D01*
X152973000Y-81360500D01*
X152953000Y-81397500D01*
X152931000Y-81433500D01*
X152907000Y-81467500D01*
X152882000Y-81500500D01*
X152855000Y-81532500D01*
X152826000Y-81563500D01*
X152795000Y-81592500D01*
X152763000Y-81619500D01*
X152730000Y-81644500D01*
X152696000Y-81668500D01*
X152660000Y-81690500D01*
X152623000Y-81710500D01*
X152585000Y-81728500D01*
X152547000Y-81744500D01*
X152507000Y-81758500D01*
X152467000Y-81770500D01*
X152426000Y-81780500D01*
X152385000Y-81787500D01*
X152344000Y-81793500D01*
X152302000Y-81796500D01*
X152260000Y-81797500D01*
X152218000Y-81796500D01*
X152176000Y-81793500D01*
X152135000Y-81787500D01*
X152094000Y-81780500D01*
X152053000Y-81770500D01*
X152013000Y-81758500D01*
X151973000Y-81744500D01*
X151935000Y-81728500D01*
X151897000Y-81710500D01*
X151860000Y-81690500D01*
X151824000Y-81668500D01*
X151790000Y-81644500D01*
X151757000Y-81619500D01*
X151725000Y-81592500D01*
X151694000Y-81563500D01*
X151665000Y-81532500D01*
X151638000Y-81500500D01*
X151613000Y-81467500D01*
X151589000Y-81433500D01*
X151567000Y-81397500D01*
X151547000Y-81360500D01*
X151529000Y-81322500D01*
X151513000Y-81284500D01*
X151499000Y-81244500D01*
X151487000Y-81204500D01*
X151477000Y-81163500D01*
X151470000Y-81122500D01*
X151464000Y-81081500D01*
X151461000Y-81039500D01*
X151460000Y-80997500D01*
X151460000Y-78597500D01*
X153060000Y-78597500D01*
X153060000Y-80997500D01*
G37*
X150520000Y-80997500D02*
X150519000Y-81039500D01*
X150516000Y-81081500D01*
X150510000Y-81122500D01*
X150503000Y-81163500D01*
X150493000Y-81204500D01*
X150481000Y-81244500D01*
X150467000Y-81284500D01*
X150451000Y-81322500D01*
X150433000Y-81360500D01*
X150413000Y-81397500D01*
X150391000Y-81433500D01*
X150367000Y-81467500D01*
X150342000Y-81500500D01*
X150315000Y-81532500D01*
X150286000Y-81563500D01*
X150255000Y-81592500D01*
X150223000Y-81619500D01*
X150190000Y-81644500D01*
X150156000Y-81668500D01*
X150120000Y-81690500D01*
X150083000Y-81710500D01*
X150045000Y-81728500D01*
X150007000Y-81744500D01*
X149967000Y-81758500D01*
X149927000Y-81770500D01*
X149886000Y-81780500D01*
X149845000Y-81787500D01*
X149804000Y-81793500D01*
X149762000Y-81796500D01*
X149720000Y-81797500D01*
X149678000Y-81796500D01*
X149636000Y-81793500D01*
X149595000Y-81787500D01*
X149554000Y-81780500D01*
X149513000Y-81770500D01*
X149473000Y-81758500D01*
X149433000Y-81744500D01*
X149395000Y-81728500D01*
X149357000Y-81710500D01*
X149320000Y-81690500D01*
X149284000Y-81668500D01*
X149250000Y-81644500D01*
X149217000Y-81619500D01*
X149185000Y-81592500D01*
X149154000Y-81563500D01*
X149125000Y-81532500D01*
X149098000Y-81500500D01*
X149073000Y-81467500D01*
X149049000Y-81433500D01*
X149027000Y-81397500D01*
X149007000Y-81360500D01*
X148989000Y-81322500D01*
X148973000Y-81284500D01*
X148959000Y-81244500D01*
X148947000Y-81204500D01*
X148937000Y-81163500D01*
X148930000Y-81122500D01*
X148924000Y-81081500D01*
X148921000Y-81039500D01*
X148920000Y-80997500D01*
X148920000Y-78597500D01*
X150520000Y-78597500D01*
X150520000Y-80997500D01*
G36*
X150520000Y-80997500D02*
G01*
X150519000Y-81039500D01*
X150516000Y-81081500D01*
X150510000Y-81122500D01*
X150503000Y-81163500D01*
X150493000Y-81204500D01*
X150481000Y-81244500D01*
X150467000Y-81284500D01*
X150451000Y-81322500D01*
X150433000Y-81360500D01*
X150413000Y-81397500D01*
X150391000Y-81433500D01*
X150367000Y-81467500D01*
X150342000Y-81500500D01*
X150315000Y-81532500D01*
X150286000Y-81563500D01*
X150255000Y-81592500D01*
X150223000Y-81619500D01*
X150190000Y-81644500D01*
X150156000Y-81668500D01*
X150120000Y-81690500D01*
X150083000Y-81710500D01*
X150045000Y-81728500D01*
X150007000Y-81744500D01*
X149967000Y-81758500D01*
X149927000Y-81770500D01*
X149886000Y-81780500D01*
X149845000Y-81787500D01*
X149804000Y-81793500D01*
X149762000Y-81796500D01*
X149720000Y-81797500D01*
X149678000Y-81796500D01*
X149636000Y-81793500D01*
X149595000Y-81787500D01*
X149554000Y-81780500D01*
X149513000Y-81770500D01*
X149473000Y-81758500D01*
X149433000Y-81744500D01*
X149395000Y-81728500D01*
X149357000Y-81710500D01*
X149320000Y-81690500D01*
X149284000Y-81668500D01*
X149250000Y-81644500D01*
X149217000Y-81619500D01*
X149185000Y-81592500D01*
X149154000Y-81563500D01*
X149125000Y-81532500D01*
X149098000Y-81500500D01*
X149073000Y-81467500D01*
X149049000Y-81433500D01*
X149027000Y-81397500D01*
X149007000Y-81360500D01*
X148989000Y-81322500D01*
X148973000Y-81284500D01*
X148959000Y-81244500D01*
X148947000Y-81204500D01*
X148937000Y-81163500D01*
X148930000Y-81122500D01*
X148924000Y-81081500D01*
X148921000Y-81039500D01*
X148920000Y-80997500D01*
X148920000Y-78597500D01*
X150520000Y-78597500D01*
X150520000Y-80997500D01*
G37*
X147980000Y-80997500D02*
X147979000Y-81039500D01*
X147976000Y-81081500D01*
X147970000Y-81122500D01*
X147963000Y-81163500D01*
X147953000Y-81204500D01*
X147941000Y-81244500D01*
X147927000Y-81284500D01*
X147911000Y-81322500D01*
X147893000Y-81360500D01*
X147873000Y-81397500D01*
X147851000Y-81433500D01*
X147827000Y-81467500D01*
X147802000Y-81500500D01*
X147775000Y-81532500D01*
X147746000Y-81563500D01*
X147715000Y-81592500D01*
X147683000Y-81619500D01*
X147650000Y-81644500D01*
X147616000Y-81668500D01*
X147580000Y-81690500D01*
X147543000Y-81710500D01*
X147505000Y-81728500D01*
X147467000Y-81744500D01*
X147427000Y-81758500D01*
X147387000Y-81770500D01*
X147346000Y-81780500D01*
X147305000Y-81787500D01*
X147264000Y-81793500D01*
X147222000Y-81796500D01*
X147180000Y-81797500D01*
X147138000Y-81796500D01*
X147096000Y-81793500D01*
X147055000Y-81787500D01*
X147014000Y-81780500D01*
X146973000Y-81770500D01*
X146933000Y-81758500D01*
X146893000Y-81744500D01*
X146855000Y-81728500D01*
X146817000Y-81710500D01*
X146780000Y-81690500D01*
X146744000Y-81668500D01*
X146710000Y-81644500D01*
X146677000Y-81619500D01*
X146645000Y-81592500D01*
X146614000Y-81563500D01*
X146585000Y-81532500D01*
X146558000Y-81500500D01*
X146533000Y-81467500D01*
X146509000Y-81433500D01*
X146487000Y-81397500D01*
X146467000Y-81360500D01*
X146449000Y-81322500D01*
X146433000Y-81284500D01*
X146419000Y-81244500D01*
X146407000Y-81204500D01*
X146397000Y-81163500D01*
X146390000Y-81122500D01*
X146384000Y-81081500D01*
X146381000Y-81039500D01*
X146380000Y-80997500D01*
X146380000Y-78597500D01*
X147980000Y-78597500D01*
X147980000Y-80997500D01*
G36*
X147980000Y-80997500D02*
G01*
X147979000Y-81039500D01*
X147976000Y-81081500D01*
X147970000Y-81122500D01*
X147963000Y-81163500D01*
X147953000Y-81204500D01*
X147941000Y-81244500D01*
X147927000Y-81284500D01*
X147911000Y-81322500D01*
X147893000Y-81360500D01*
X147873000Y-81397500D01*
X147851000Y-81433500D01*
X147827000Y-81467500D01*
X147802000Y-81500500D01*
X147775000Y-81532500D01*
X147746000Y-81563500D01*
X147715000Y-81592500D01*
X147683000Y-81619500D01*
X147650000Y-81644500D01*
X147616000Y-81668500D01*
X147580000Y-81690500D01*
X147543000Y-81710500D01*
X147505000Y-81728500D01*
X147467000Y-81744500D01*
X147427000Y-81758500D01*
X147387000Y-81770500D01*
X147346000Y-81780500D01*
X147305000Y-81787500D01*
X147264000Y-81793500D01*
X147222000Y-81796500D01*
X147180000Y-81797500D01*
X147138000Y-81796500D01*
X147096000Y-81793500D01*
X147055000Y-81787500D01*
X147014000Y-81780500D01*
X146973000Y-81770500D01*
X146933000Y-81758500D01*
X146893000Y-81744500D01*
X146855000Y-81728500D01*
X146817000Y-81710500D01*
X146780000Y-81690500D01*
X146744000Y-81668500D01*
X146710000Y-81644500D01*
X146677000Y-81619500D01*
X146645000Y-81592500D01*
X146614000Y-81563500D01*
X146585000Y-81532500D01*
X146558000Y-81500500D01*
X146533000Y-81467500D01*
X146509000Y-81433500D01*
X146487000Y-81397500D01*
X146467000Y-81360500D01*
X146449000Y-81322500D01*
X146433000Y-81284500D01*
X146419000Y-81244500D01*
X146407000Y-81204500D01*
X146397000Y-81163500D01*
X146390000Y-81122500D01*
X146384000Y-81081500D01*
X146381000Y-81039500D01*
X146380000Y-80997500D01*
X146380000Y-78597500D01*
X147980000Y-78597500D01*
X147980000Y-80997500D01*
G37*
X145440000Y-80997500D02*
X145439000Y-81039500D01*
X145436000Y-81081500D01*
X145430000Y-81122500D01*
X145423000Y-81163500D01*
X145413000Y-81204500D01*
X145401000Y-81244500D01*
X145387000Y-81284500D01*
X145371000Y-81322500D01*
X145353000Y-81360500D01*
X145333000Y-81397500D01*
X145311000Y-81433500D01*
X145287000Y-81467500D01*
X145262000Y-81500500D01*
X145235000Y-81532500D01*
X145206000Y-81563500D01*
X145175000Y-81592500D01*
X145143000Y-81619500D01*
X145110000Y-81644500D01*
X145076000Y-81668500D01*
X145040000Y-81690500D01*
X145003000Y-81710500D01*
X144965000Y-81728500D01*
X144927000Y-81744500D01*
X144887000Y-81758500D01*
X144847000Y-81770500D01*
X144806000Y-81780500D01*
X144765000Y-81787500D01*
X144724000Y-81793500D01*
X144682000Y-81796500D01*
X144640000Y-81797500D01*
X144598000Y-81796500D01*
X144556000Y-81793500D01*
X144515000Y-81787500D01*
X144474000Y-81780500D01*
X144433000Y-81770500D01*
X144393000Y-81758500D01*
X144353000Y-81744500D01*
X144315000Y-81728500D01*
X144277000Y-81710500D01*
X144240000Y-81690500D01*
X144204000Y-81668500D01*
X144170000Y-81644500D01*
X144137000Y-81619500D01*
X144105000Y-81592500D01*
X144074000Y-81563500D01*
X144045000Y-81532500D01*
X144018000Y-81500500D01*
X143993000Y-81467500D01*
X143969000Y-81433500D01*
X143947000Y-81397500D01*
X143927000Y-81360500D01*
X143909000Y-81322500D01*
X143893000Y-81284500D01*
X143879000Y-81244500D01*
X143867000Y-81204500D01*
X143857000Y-81163500D01*
X143850000Y-81122500D01*
X143844000Y-81081500D01*
X143841000Y-81039500D01*
X143840000Y-80997500D01*
X143840000Y-78597500D01*
X145440000Y-78597500D01*
X145440000Y-80997500D01*
G36*
X145440000Y-80997500D02*
G01*
X145439000Y-81039500D01*
X145436000Y-81081500D01*
X145430000Y-81122500D01*
X145423000Y-81163500D01*
X145413000Y-81204500D01*
X145401000Y-81244500D01*
X145387000Y-81284500D01*
X145371000Y-81322500D01*
X145353000Y-81360500D01*
X145333000Y-81397500D01*
X145311000Y-81433500D01*
X145287000Y-81467500D01*
X145262000Y-81500500D01*
X145235000Y-81532500D01*
X145206000Y-81563500D01*
X145175000Y-81592500D01*
X145143000Y-81619500D01*
X145110000Y-81644500D01*
X145076000Y-81668500D01*
X145040000Y-81690500D01*
X145003000Y-81710500D01*
X144965000Y-81728500D01*
X144927000Y-81744500D01*
X144887000Y-81758500D01*
X144847000Y-81770500D01*
X144806000Y-81780500D01*
X144765000Y-81787500D01*
X144724000Y-81793500D01*
X144682000Y-81796500D01*
X144640000Y-81797500D01*
X144598000Y-81796500D01*
X144556000Y-81793500D01*
X144515000Y-81787500D01*
X144474000Y-81780500D01*
X144433000Y-81770500D01*
X144393000Y-81758500D01*
X144353000Y-81744500D01*
X144315000Y-81728500D01*
X144277000Y-81710500D01*
X144240000Y-81690500D01*
X144204000Y-81668500D01*
X144170000Y-81644500D01*
X144137000Y-81619500D01*
X144105000Y-81592500D01*
X144074000Y-81563500D01*
X144045000Y-81532500D01*
X144018000Y-81500500D01*
X143993000Y-81467500D01*
X143969000Y-81433500D01*
X143947000Y-81397500D01*
X143927000Y-81360500D01*
X143909000Y-81322500D01*
X143893000Y-81284500D01*
X143879000Y-81244500D01*
X143867000Y-81204500D01*
X143857000Y-81163500D01*
X143850000Y-81122500D01*
X143844000Y-81081500D01*
X143841000Y-81039500D01*
X143840000Y-80997500D01*
X143840000Y-78597500D01*
X145440000Y-78597500D01*
X145440000Y-80997500D01*
G37*
X140360000Y-80997500D02*
X140359000Y-81039500D01*
X140356000Y-81081500D01*
X140350000Y-81122500D01*
X140343000Y-81163500D01*
X140333000Y-81204500D01*
X140321000Y-81244500D01*
X140307000Y-81284500D01*
X140291000Y-81322500D01*
X140273000Y-81360500D01*
X140253000Y-81397500D01*
X140231000Y-81433500D01*
X140207000Y-81467500D01*
X140182000Y-81500500D01*
X140155000Y-81532500D01*
X140126000Y-81563500D01*
X140095000Y-81592500D01*
X140063000Y-81619500D01*
X140030000Y-81644500D01*
X139996000Y-81668500D01*
X139960000Y-81690500D01*
X139923000Y-81710500D01*
X139885000Y-81728500D01*
X139847000Y-81744500D01*
X139807000Y-81758500D01*
X139767000Y-81770500D01*
X139726000Y-81780500D01*
X139685000Y-81787500D01*
X139644000Y-81793500D01*
X139602000Y-81796500D01*
X139560000Y-81797500D01*
X139518000Y-81796500D01*
X139476000Y-81793500D01*
X139435000Y-81787500D01*
X139394000Y-81780500D01*
X139353000Y-81770500D01*
X139313000Y-81758500D01*
X139273000Y-81744500D01*
X139235000Y-81728500D01*
X139197000Y-81710500D01*
X139160000Y-81690500D01*
X139124000Y-81668500D01*
X139090000Y-81644500D01*
X139057000Y-81619500D01*
X139025000Y-81592500D01*
X138994000Y-81563500D01*
X138965000Y-81532500D01*
X138938000Y-81500500D01*
X138913000Y-81467500D01*
X138889000Y-81433500D01*
X138867000Y-81397500D01*
X138847000Y-81360500D01*
X138829000Y-81322500D01*
X138813000Y-81284500D01*
X138799000Y-81244500D01*
X138787000Y-81204500D01*
X138777000Y-81163500D01*
X138770000Y-81122500D01*
X138764000Y-81081500D01*
X138761000Y-81039500D01*
X138760000Y-80997500D01*
X138760000Y-78597500D01*
X140360000Y-78597500D01*
X140360000Y-80997500D01*
G36*
X140360000Y-80997500D02*
G01*
X140359000Y-81039500D01*
X140356000Y-81081500D01*
X140350000Y-81122500D01*
X140343000Y-81163500D01*
X140333000Y-81204500D01*
X140321000Y-81244500D01*
X140307000Y-81284500D01*
X140291000Y-81322500D01*
X140273000Y-81360500D01*
X140253000Y-81397500D01*
X140231000Y-81433500D01*
X140207000Y-81467500D01*
X140182000Y-81500500D01*
X140155000Y-81532500D01*
X140126000Y-81563500D01*
X140095000Y-81592500D01*
X140063000Y-81619500D01*
X140030000Y-81644500D01*
X139996000Y-81668500D01*
X139960000Y-81690500D01*
X139923000Y-81710500D01*
X139885000Y-81728500D01*
X139847000Y-81744500D01*
X139807000Y-81758500D01*
X139767000Y-81770500D01*
X139726000Y-81780500D01*
X139685000Y-81787500D01*
X139644000Y-81793500D01*
X139602000Y-81796500D01*
X139560000Y-81797500D01*
X139518000Y-81796500D01*
X139476000Y-81793500D01*
X139435000Y-81787500D01*
X139394000Y-81780500D01*
X139353000Y-81770500D01*
X139313000Y-81758500D01*
X139273000Y-81744500D01*
X139235000Y-81728500D01*
X139197000Y-81710500D01*
X139160000Y-81690500D01*
X139124000Y-81668500D01*
X139090000Y-81644500D01*
X139057000Y-81619500D01*
X139025000Y-81592500D01*
X138994000Y-81563500D01*
X138965000Y-81532500D01*
X138938000Y-81500500D01*
X138913000Y-81467500D01*
X138889000Y-81433500D01*
X138867000Y-81397500D01*
X138847000Y-81360500D01*
X138829000Y-81322500D01*
X138813000Y-81284500D01*
X138799000Y-81244500D01*
X138787000Y-81204500D01*
X138777000Y-81163500D01*
X138770000Y-81122500D01*
X138764000Y-81081500D01*
X138761000Y-81039500D01*
X138760000Y-80997500D01*
X138760000Y-78597500D01*
X140360000Y-78597500D01*
X140360000Y-80997500D01*
G37*
X137820000Y-80997500D02*
X137819000Y-81039500D01*
X137816000Y-81081500D01*
X137810000Y-81122500D01*
X137803000Y-81163500D01*
X137793000Y-81204500D01*
X137781000Y-81244500D01*
X137767000Y-81284500D01*
X137751000Y-81322500D01*
X137733000Y-81360500D01*
X137713000Y-81397500D01*
X137691000Y-81433500D01*
X137667000Y-81467500D01*
X137642000Y-81500500D01*
X137615000Y-81532500D01*
X137586000Y-81563500D01*
X137555000Y-81592500D01*
X137523000Y-81619500D01*
X137490000Y-81644500D01*
X137456000Y-81668500D01*
X137420000Y-81690500D01*
X137383000Y-81710500D01*
X137345000Y-81728500D01*
X137307000Y-81744500D01*
X137267000Y-81758500D01*
X137227000Y-81770500D01*
X137186000Y-81780500D01*
X137145000Y-81787500D01*
X137104000Y-81793500D01*
X137062000Y-81796500D01*
X137020000Y-81797500D01*
X136978000Y-81796500D01*
X136936000Y-81793500D01*
X136895000Y-81787500D01*
X136854000Y-81780500D01*
X136813000Y-81770500D01*
X136773000Y-81758500D01*
X136733000Y-81744500D01*
X136695000Y-81728500D01*
X136657000Y-81710500D01*
X136620000Y-81690500D01*
X136584000Y-81668500D01*
X136550000Y-81644500D01*
X136517000Y-81619500D01*
X136485000Y-81592500D01*
X136454000Y-81563500D01*
X136425000Y-81532500D01*
X136398000Y-81500500D01*
X136373000Y-81467500D01*
X136349000Y-81433500D01*
X136327000Y-81397500D01*
X136307000Y-81360500D01*
X136289000Y-81322500D01*
X136273000Y-81284500D01*
X136259000Y-81244500D01*
X136247000Y-81204500D01*
X136237000Y-81163500D01*
X136230000Y-81122500D01*
X136224000Y-81081500D01*
X136221000Y-81039500D01*
X136220000Y-80997500D01*
X136220000Y-78597500D01*
X137820000Y-78597500D01*
X137820000Y-80997500D01*
G36*
X137820000Y-80997500D02*
G01*
X137819000Y-81039500D01*
X137816000Y-81081500D01*
X137810000Y-81122500D01*
X137803000Y-81163500D01*
X137793000Y-81204500D01*
X137781000Y-81244500D01*
X137767000Y-81284500D01*
X137751000Y-81322500D01*
X137733000Y-81360500D01*
X137713000Y-81397500D01*
X137691000Y-81433500D01*
X137667000Y-81467500D01*
X137642000Y-81500500D01*
X137615000Y-81532500D01*
X137586000Y-81563500D01*
X137555000Y-81592500D01*
X137523000Y-81619500D01*
X137490000Y-81644500D01*
X137456000Y-81668500D01*
X137420000Y-81690500D01*
X137383000Y-81710500D01*
X137345000Y-81728500D01*
X137307000Y-81744500D01*
X137267000Y-81758500D01*
X137227000Y-81770500D01*
X137186000Y-81780500D01*
X137145000Y-81787500D01*
X137104000Y-81793500D01*
X137062000Y-81796500D01*
X137020000Y-81797500D01*
X136978000Y-81796500D01*
X136936000Y-81793500D01*
X136895000Y-81787500D01*
X136854000Y-81780500D01*
X136813000Y-81770500D01*
X136773000Y-81758500D01*
X136733000Y-81744500D01*
X136695000Y-81728500D01*
X136657000Y-81710500D01*
X136620000Y-81690500D01*
X136584000Y-81668500D01*
X136550000Y-81644500D01*
X136517000Y-81619500D01*
X136485000Y-81592500D01*
X136454000Y-81563500D01*
X136425000Y-81532500D01*
X136398000Y-81500500D01*
X136373000Y-81467500D01*
X136349000Y-81433500D01*
X136327000Y-81397500D01*
X136307000Y-81360500D01*
X136289000Y-81322500D01*
X136273000Y-81284500D01*
X136259000Y-81244500D01*
X136247000Y-81204500D01*
X136237000Y-81163500D01*
X136230000Y-81122500D01*
X136224000Y-81081500D01*
X136221000Y-81039500D01*
X136220000Y-80997500D01*
X136220000Y-78597500D01*
X137820000Y-78597500D01*
X137820000Y-80997500D01*
G37*
X135280000Y-80997500D02*
X135279000Y-81039500D01*
X135276000Y-81081500D01*
X135270000Y-81122500D01*
X135263000Y-81163500D01*
X135253000Y-81204500D01*
X135241000Y-81244500D01*
X135227000Y-81284500D01*
X135211000Y-81322500D01*
X135193000Y-81360500D01*
X135173000Y-81397500D01*
X135151000Y-81433500D01*
X135127000Y-81467500D01*
X135102000Y-81500500D01*
X135075000Y-81532500D01*
X135046000Y-81563500D01*
X135015000Y-81592500D01*
X134983000Y-81619500D01*
X134950000Y-81644500D01*
X134916000Y-81668500D01*
X134880000Y-81690500D01*
X134843000Y-81710500D01*
X134805000Y-81728500D01*
X134767000Y-81744500D01*
X134727000Y-81758500D01*
X134687000Y-81770500D01*
X134646000Y-81780500D01*
X134605000Y-81787500D01*
X134564000Y-81793500D01*
X134522000Y-81796500D01*
X134480000Y-81797500D01*
X134438000Y-81796500D01*
X134396000Y-81793500D01*
X134355000Y-81787500D01*
X134314000Y-81780500D01*
X134273000Y-81770500D01*
X134233000Y-81758500D01*
X134193000Y-81744500D01*
X134155000Y-81728500D01*
X134117000Y-81710500D01*
X134080000Y-81690500D01*
X134044000Y-81668500D01*
X134010000Y-81644500D01*
X133977000Y-81619500D01*
X133945000Y-81592500D01*
X133914000Y-81563500D01*
X133885000Y-81532500D01*
X133858000Y-81500500D01*
X133833000Y-81467500D01*
X133809000Y-81433500D01*
X133787000Y-81397500D01*
X133767000Y-81360500D01*
X133749000Y-81322500D01*
X133733000Y-81284500D01*
X133719000Y-81244500D01*
X133707000Y-81204500D01*
X133697000Y-81163500D01*
X133690000Y-81122500D01*
X133684000Y-81081500D01*
X133681000Y-81039500D01*
X133680000Y-80997500D01*
X133680000Y-78597500D01*
X135280000Y-78597500D01*
X135280000Y-80997500D01*
G36*
X135280000Y-80997500D02*
G01*
X135279000Y-81039500D01*
X135276000Y-81081500D01*
X135270000Y-81122500D01*
X135263000Y-81163500D01*
X135253000Y-81204500D01*
X135241000Y-81244500D01*
X135227000Y-81284500D01*
X135211000Y-81322500D01*
X135193000Y-81360500D01*
X135173000Y-81397500D01*
X135151000Y-81433500D01*
X135127000Y-81467500D01*
X135102000Y-81500500D01*
X135075000Y-81532500D01*
X135046000Y-81563500D01*
X135015000Y-81592500D01*
X134983000Y-81619500D01*
X134950000Y-81644500D01*
X134916000Y-81668500D01*
X134880000Y-81690500D01*
X134843000Y-81710500D01*
X134805000Y-81728500D01*
X134767000Y-81744500D01*
X134727000Y-81758500D01*
X134687000Y-81770500D01*
X134646000Y-81780500D01*
X134605000Y-81787500D01*
X134564000Y-81793500D01*
X134522000Y-81796500D01*
X134480000Y-81797500D01*
X134438000Y-81796500D01*
X134396000Y-81793500D01*
X134355000Y-81787500D01*
X134314000Y-81780500D01*
X134273000Y-81770500D01*
X134233000Y-81758500D01*
X134193000Y-81744500D01*
X134155000Y-81728500D01*
X134117000Y-81710500D01*
X134080000Y-81690500D01*
X134044000Y-81668500D01*
X134010000Y-81644500D01*
X133977000Y-81619500D01*
X133945000Y-81592500D01*
X133914000Y-81563500D01*
X133885000Y-81532500D01*
X133858000Y-81500500D01*
X133833000Y-81467500D01*
X133809000Y-81433500D01*
X133787000Y-81397500D01*
X133767000Y-81360500D01*
X133749000Y-81322500D01*
X133733000Y-81284500D01*
X133719000Y-81244500D01*
X133707000Y-81204500D01*
X133697000Y-81163500D01*
X133690000Y-81122500D01*
X133684000Y-81081500D01*
X133681000Y-81039500D01*
X133680000Y-80997500D01*
X133680000Y-78597500D01*
X135280000Y-78597500D01*
X135280000Y-80997500D01*
G37*
X132740000Y-80997500D02*
X132739000Y-81039500D01*
X132736000Y-81081500D01*
X132730000Y-81122500D01*
X132723000Y-81163500D01*
X132713000Y-81204500D01*
X132701000Y-81244500D01*
X132687000Y-81284500D01*
X132671000Y-81322500D01*
X132653000Y-81360500D01*
X132633000Y-81397500D01*
X132611000Y-81433500D01*
X132587000Y-81467500D01*
X132562000Y-81500500D01*
X132535000Y-81532500D01*
X132506000Y-81563500D01*
X132475000Y-81592500D01*
X132443000Y-81619500D01*
X132410000Y-81644500D01*
X132376000Y-81668500D01*
X132340000Y-81690500D01*
X132303000Y-81710500D01*
X132265000Y-81728500D01*
X132227000Y-81744500D01*
X132187000Y-81758500D01*
X132147000Y-81770500D01*
X132106000Y-81780500D01*
X132065000Y-81787500D01*
X132024000Y-81793500D01*
X131982000Y-81796500D01*
X131940000Y-81797500D01*
X131898000Y-81796500D01*
X131856000Y-81793500D01*
X131815000Y-81787500D01*
X131774000Y-81780500D01*
X131733000Y-81770500D01*
X131693000Y-81758500D01*
X131653000Y-81744500D01*
X131615000Y-81728500D01*
X131577000Y-81710500D01*
X131540000Y-81690500D01*
X131504000Y-81668500D01*
X131470000Y-81644500D01*
X131437000Y-81619500D01*
X131405000Y-81592500D01*
X131374000Y-81563500D01*
X131345000Y-81532500D01*
X131318000Y-81500500D01*
X131293000Y-81467500D01*
X131269000Y-81433500D01*
X131247000Y-81397500D01*
X131227000Y-81360500D01*
X131209000Y-81322500D01*
X131193000Y-81284500D01*
X131179000Y-81244500D01*
X131167000Y-81204500D01*
X131157000Y-81163500D01*
X131150000Y-81122500D01*
X131144000Y-81081500D01*
X131141000Y-81039500D01*
X131140000Y-80997500D01*
X131140000Y-78597500D01*
X132740000Y-78597500D01*
X132740000Y-80997500D01*
G36*
X132740000Y-80997500D02*
G01*
X132739000Y-81039500D01*
X132736000Y-81081500D01*
X132730000Y-81122500D01*
X132723000Y-81163500D01*
X132713000Y-81204500D01*
X132701000Y-81244500D01*
X132687000Y-81284500D01*
X132671000Y-81322500D01*
X132653000Y-81360500D01*
X132633000Y-81397500D01*
X132611000Y-81433500D01*
X132587000Y-81467500D01*
X132562000Y-81500500D01*
X132535000Y-81532500D01*
X132506000Y-81563500D01*
X132475000Y-81592500D01*
X132443000Y-81619500D01*
X132410000Y-81644500D01*
X132376000Y-81668500D01*
X132340000Y-81690500D01*
X132303000Y-81710500D01*
X132265000Y-81728500D01*
X132227000Y-81744500D01*
X132187000Y-81758500D01*
X132147000Y-81770500D01*
X132106000Y-81780500D01*
X132065000Y-81787500D01*
X132024000Y-81793500D01*
X131982000Y-81796500D01*
X131940000Y-81797500D01*
X131898000Y-81796500D01*
X131856000Y-81793500D01*
X131815000Y-81787500D01*
X131774000Y-81780500D01*
X131733000Y-81770500D01*
X131693000Y-81758500D01*
X131653000Y-81744500D01*
X131615000Y-81728500D01*
X131577000Y-81710500D01*
X131540000Y-81690500D01*
X131504000Y-81668500D01*
X131470000Y-81644500D01*
X131437000Y-81619500D01*
X131405000Y-81592500D01*
X131374000Y-81563500D01*
X131345000Y-81532500D01*
X131318000Y-81500500D01*
X131293000Y-81467500D01*
X131269000Y-81433500D01*
X131247000Y-81397500D01*
X131227000Y-81360500D01*
X131209000Y-81322500D01*
X131193000Y-81284500D01*
X131179000Y-81244500D01*
X131167000Y-81204500D01*
X131157000Y-81163500D01*
X131150000Y-81122500D01*
X131144000Y-81081500D01*
X131141000Y-81039500D01*
X131140000Y-80997500D01*
X131140000Y-78597500D01*
X132740000Y-78597500D01*
X132740000Y-80997500D01*
G37*
X127660000Y-80997500D02*
X127659000Y-81039500D01*
X127656000Y-81081500D01*
X127650000Y-81122500D01*
X127643000Y-81163500D01*
X127633000Y-81204500D01*
X127621000Y-81244500D01*
X127607000Y-81284500D01*
X127591000Y-81322500D01*
X127573000Y-81360500D01*
X127553000Y-81397500D01*
X127531000Y-81433500D01*
X127507000Y-81467500D01*
X127482000Y-81500500D01*
X127455000Y-81532500D01*
X127426000Y-81563500D01*
X127395000Y-81592500D01*
X127363000Y-81619500D01*
X127330000Y-81644500D01*
X127296000Y-81668500D01*
X127260000Y-81690500D01*
X127223000Y-81710500D01*
X127185000Y-81728500D01*
X127147000Y-81744500D01*
X127107000Y-81758500D01*
X127067000Y-81770500D01*
X127026000Y-81780500D01*
X126985000Y-81787500D01*
X126944000Y-81793500D01*
X126902000Y-81796500D01*
X126860000Y-81797500D01*
X126818000Y-81796500D01*
X126776000Y-81793500D01*
X126735000Y-81787500D01*
X126694000Y-81780500D01*
X126653000Y-81770500D01*
X126613000Y-81758500D01*
X126573000Y-81744500D01*
X126535000Y-81728500D01*
X126497000Y-81710500D01*
X126460000Y-81690500D01*
X126424000Y-81668500D01*
X126390000Y-81644500D01*
X126357000Y-81619500D01*
X126325000Y-81592500D01*
X126294000Y-81563500D01*
X126265000Y-81532500D01*
X126238000Y-81500500D01*
X126213000Y-81467500D01*
X126189000Y-81433500D01*
X126167000Y-81397500D01*
X126147000Y-81360500D01*
X126129000Y-81322500D01*
X126113000Y-81284500D01*
X126099000Y-81244500D01*
X126087000Y-81204500D01*
X126077000Y-81163500D01*
X126070000Y-81122500D01*
X126064000Y-81081500D01*
X126061000Y-81039500D01*
X126060000Y-80997500D01*
X126060000Y-78597500D01*
X127660000Y-78597500D01*
X127660000Y-80997500D01*
G36*
X127660000Y-80997500D02*
G01*
X127659000Y-81039500D01*
X127656000Y-81081500D01*
X127650000Y-81122500D01*
X127643000Y-81163500D01*
X127633000Y-81204500D01*
X127621000Y-81244500D01*
X127607000Y-81284500D01*
X127591000Y-81322500D01*
X127573000Y-81360500D01*
X127553000Y-81397500D01*
X127531000Y-81433500D01*
X127507000Y-81467500D01*
X127482000Y-81500500D01*
X127455000Y-81532500D01*
X127426000Y-81563500D01*
X127395000Y-81592500D01*
X127363000Y-81619500D01*
X127330000Y-81644500D01*
X127296000Y-81668500D01*
X127260000Y-81690500D01*
X127223000Y-81710500D01*
X127185000Y-81728500D01*
X127147000Y-81744500D01*
X127107000Y-81758500D01*
X127067000Y-81770500D01*
X127026000Y-81780500D01*
X126985000Y-81787500D01*
X126944000Y-81793500D01*
X126902000Y-81796500D01*
X126860000Y-81797500D01*
X126818000Y-81796500D01*
X126776000Y-81793500D01*
X126735000Y-81787500D01*
X126694000Y-81780500D01*
X126653000Y-81770500D01*
X126613000Y-81758500D01*
X126573000Y-81744500D01*
X126535000Y-81728500D01*
X126497000Y-81710500D01*
X126460000Y-81690500D01*
X126424000Y-81668500D01*
X126390000Y-81644500D01*
X126357000Y-81619500D01*
X126325000Y-81592500D01*
X126294000Y-81563500D01*
X126265000Y-81532500D01*
X126238000Y-81500500D01*
X126213000Y-81467500D01*
X126189000Y-81433500D01*
X126167000Y-81397500D01*
X126147000Y-81360500D01*
X126129000Y-81322500D01*
X126113000Y-81284500D01*
X126099000Y-81244500D01*
X126087000Y-81204500D01*
X126077000Y-81163500D01*
X126070000Y-81122500D01*
X126064000Y-81081500D01*
X126061000Y-81039500D01*
X126060000Y-80997500D01*
X126060000Y-78597500D01*
X127660000Y-78597500D01*
X127660000Y-80997500D01*
G37*
X125120000Y-80997500D02*
X125119000Y-81039500D01*
X125116000Y-81081500D01*
X125110000Y-81122500D01*
X125103000Y-81163500D01*
X125093000Y-81204500D01*
X125081000Y-81244500D01*
X125067000Y-81284500D01*
X125051000Y-81322500D01*
X125033000Y-81360500D01*
X125013000Y-81397500D01*
X124991000Y-81433500D01*
X124967000Y-81467500D01*
X124942000Y-81500500D01*
X124915000Y-81532500D01*
X124886000Y-81563500D01*
X124855000Y-81592500D01*
X124823000Y-81619500D01*
X124790000Y-81644500D01*
X124756000Y-81668500D01*
X124720000Y-81690500D01*
X124683000Y-81710500D01*
X124645000Y-81728500D01*
X124607000Y-81744500D01*
X124567000Y-81758500D01*
X124527000Y-81770500D01*
X124486000Y-81780500D01*
X124445000Y-81787500D01*
X124404000Y-81793500D01*
X124362000Y-81796500D01*
X124320000Y-81797500D01*
X124278000Y-81796500D01*
X124236000Y-81793500D01*
X124195000Y-81787500D01*
X124154000Y-81780500D01*
X124113000Y-81770500D01*
X124073000Y-81758500D01*
X124033000Y-81744500D01*
X123995000Y-81728500D01*
X123957000Y-81710500D01*
X123920000Y-81690500D01*
X123884000Y-81668500D01*
X123850000Y-81644500D01*
X123817000Y-81619500D01*
X123785000Y-81592500D01*
X123754000Y-81563500D01*
X123725000Y-81532500D01*
X123698000Y-81500500D01*
X123673000Y-81467500D01*
X123649000Y-81433500D01*
X123627000Y-81397500D01*
X123607000Y-81360500D01*
X123589000Y-81322500D01*
X123573000Y-81284500D01*
X123559000Y-81244500D01*
X123547000Y-81204500D01*
X123537000Y-81163500D01*
X123530000Y-81122500D01*
X123524000Y-81081500D01*
X123521000Y-81039500D01*
X123520000Y-80997500D01*
X123520000Y-78597500D01*
X125120000Y-78597500D01*
X125120000Y-80997500D01*
G36*
X125120000Y-80997500D02*
G01*
X125119000Y-81039500D01*
X125116000Y-81081500D01*
X125110000Y-81122500D01*
X125103000Y-81163500D01*
X125093000Y-81204500D01*
X125081000Y-81244500D01*
X125067000Y-81284500D01*
X125051000Y-81322500D01*
X125033000Y-81360500D01*
X125013000Y-81397500D01*
X124991000Y-81433500D01*
X124967000Y-81467500D01*
X124942000Y-81500500D01*
X124915000Y-81532500D01*
X124886000Y-81563500D01*
X124855000Y-81592500D01*
X124823000Y-81619500D01*
X124790000Y-81644500D01*
X124756000Y-81668500D01*
X124720000Y-81690500D01*
X124683000Y-81710500D01*
X124645000Y-81728500D01*
X124607000Y-81744500D01*
X124567000Y-81758500D01*
X124527000Y-81770500D01*
X124486000Y-81780500D01*
X124445000Y-81787500D01*
X124404000Y-81793500D01*
X124362000Y-81796500D01*
X124320000Y-81797500D01*
X124278000Y-81796500D01*
X124236000Y-81793500D01*
X124195000Y-81787500D01*
X124154000Y-81780500D01*
X124113000Y-81770500D01*
X124073000Y-81758500D01*
X124033000Y-81744500D01*
X123995000Y-81728500D01*
X123957000Y-81710500D01*
X123920000Y-81690500D01*
X123884000Y-81668500D01*
X123850000Y-81644500D01*
X123817000Y-81619500D01*
X123785000Y-81592500D01*
X123754000Y-81563500D01*
X123725000Y-81532500D01*
X123698000Y-81500500D01*
X123673000Y-81467500D01*
X123649000Y-81433500D01*
X123627000Y-81397500D01*
X123607000Y-81360500D01*
X123589000Y-81322500D01*
X123573000Y-81284500D01*
X123559000Y-81244500D01*
X123547000Y-81204500D01*
X123537000Y-81163500D01*
X123530000Y-81122500D01*
X123524000Y-81081500D01*
X123521000Y-81039500D01*
X123520000Y-80997500D01*
X123520000Y-78597500D01*
X125120000Y-78597500D01*
X125120000Y-80997500D01*
G37*
X124592000Y-86548500D02*
X124634000Y-86551500D01*
X124675000Y-86557500D01*
X124716000Y-86564500D01*
X124757000Y-86574500D01*
X124797000Y-86586500D01*
X124837000Y-86600500D01*
X124875000Y-86616500D01*
X124913000Y-86634500D01*
X124950000Y-86654500D01*
X124986000Y-86676500D01*
X125020000Y-86700500D01*
X125053000Y-86725500D01*
X125085000Y-86752500D01*
X125116000Y-86781500D01*
X125145000Y-86812500D01*
X125172000Y-86844500D01*
X125197000Y-86877500D01*
X125221000Y-86911500D01*
X125243000Y-86947500D01*
X125263000Y-86984500D01*
X125281000Y-87022500D01*
X125297000Y-87060500D01*
X125311000Y-87100500D01*
X125323000Y-87140500D01*
X125333000Y-87181500D01*
X125340000Y-87222500D01*
X125346000Y-87263500D01*
X125349000Y-87305500D01*
X125350000Y-87347500D01*
X125349000Y-87389500D01*
X125346000Y-87431500D01*
X125340000Y-87472500D01*
X125333000Y-87513500D01*
X125323000Y-87554500D01*
X125311000Y-87594500D01*
X125297000Y-87634500D01*
X125281000Y-87672500D01*
X125263000Y-87710500D01*
X125243000Y-87747500D01*
X125221000Y-87783500D01*
X125197000Y-87817500D01*
X125172000Y-87850500D01*
X125145000Y-87882500D01*
X125116000Y-87913500D01*
X125085000Y-87942500D01*
X125053000Y-87969500D01*
X125020000Y-87994500D01*
X124986000Y-88018500D01*
X124950000Y-88040500D01*
X124913000Y-88060500D01*
X124875000Y-88078500D01*
X124837000Y-88094500D01*
X124797000Y-88108500D01*
X124757000Y-88120500D01*
X124716000Y-88130500D01*
X124675000Y-88137500D01*
X124634000Y-88143500D01*
X124592000Y-88146500D01*
X124550000Y-88147500D01*
X122150000Y-88147500D01*
X122150000Y-86547500D01*
X124550000Y-86547500D01*
X124592000Y-86548500D01*
G36*
X124592000Y-86548500D02*
G01*
X124634000Y-86551500D01*
X124675000Y-86557500D01*
X124716000Y-86564500D01*
X124757000Y-86574500D01*
X124797000Y-86586500D01*
X124837000Y-86600500D01*
X124875000Y-86616500D01*
X124913000Y-86634500D01*
X124950000Y-86654500D01*
X124986000Y-86676500D01*
X125020000Y-86700500D01*
X125053000Y-86725500D01*
X125085000Y-86752500D01*
X125116000Y-86781500D01*
X125145000Y-86812500D01*
X125172000Y-86844500D01*
X125197000Y-86877500D01*
X125221000Y-86911500D01*
X125243000Y-86947500D01*
X125263000Y-86984500D01*
X125281000Y-87022500D01*
X125297000Y-87060500D01*
X125311000Y-87100500D01*
X125323000Y-87140500D01*
X125333000Y-87181500D01*
X125340000Y-87222500D01*
X125346000Y-87263500D01*
X125349000Y-87305500D01*
X125350000Y-87347500D01*
X125349000Y-87389500D01*
X125346000Y-87431500D01*
X125340000Y-87472500D01*
X125333000Y-87513500D01*
X125323000Y-87554500D01*
X125311000Y-87594500D01*
X125297000Y-87634500D01*
X125281000Y-87672500D01*
X125263000Y-87710500D01*
X125243000Y-87747500D01*
X125221000Y-87783500D01*
X125197000Y-87817500D01*
X125172000Y-87850500D01*
X125145000Y-87882500D01*
X125116000Y-87913500D01*
X125085000Y-87942500D01*
X125053000Y-87969500D01*
X125020000Y-87994500D01*
X124986000Y-88018500D01*
X124950000Y-88040500D01*
X124913000Y-88060500D01*
X124875000Y-88078500D01*
X124837000Y-88094500D01*
X124797000Y-88108500D01*
X124757000Y-88120500D01*
X124716000Y-88130500D01*
X124675000Y-88137500D01*
X124634000Y-88143500D01*
X124592000Y-88146500D01*
X124550000Y-88147500D01*
X122150000Y-88147500D01*
X122150000Y-86547500D01*
X124550000Y-86547500D01*
X124592000Y-86548500D01*
G37*
X124592000Y-91628500D02*
X124634000Y-91631500D01*
X124675000Y-91637500D01*
X124716000Y-91644500D01*
X124757000Y-91654500D01*
X124797000Y-91666500D01*
X124837000Y-91680500D01*
X124875000Y-91696500D01*
X124913000Y-91714500D01*
X124950000Y-91734500D01*
X124986000Y-91756500D01*
X125020000Y-91780500D01*
X125053000Y-91805500D01*
X125085000Y-91832500D01*
X125116000Y-91861500D01*
X125145000Y-91892500D01*
X125172000Y-91924500D01*
X125197000Y-91957500D01*
X125221000Y-91991500D01*
X125243000Y-92027500D01*
X125263000Y-92064500D01*
X125281000Y-92102500D01*
X125297000Y-92140500D01*
X125311000Y-92180500D01*
X125323000Y-92220500D01*
X125333000Y-92261500D01*
X125340000Y-92302500D01*
X125346000Y-92343500D01*
X125349000Y-92385500D01*
X125350000Y-92427500D01*
X125349000Y-92469500D01*
X125346000Y-92511500D01*
X125340000Y-92552500D01*
X125333000Y-92593500D01*
X125323000Y-92634500D01*
X125311000Y-92674500D01*
X125297000Y-92714500D01*
X125281000Y-92752500D01*
X125263000Y-92790500D01*
X125243000Y-92827500D01*
X125221000Y-92863500D01*
X125197000Y-92897500D01*
X125172000Y-92930500D01*
X125145000Y-92962500D01*
X125116000Y-92993500D01*
X125085000Y-93022500D01*
X125053000Y-93049500D01*
X125020000Y-93074500D01*
X124986000Y-93098500D01*
X124950000Y-93120500D01*
X124913000Y-93140500D01*
X124875000Y-93158500D01*
X124837000Y-93174500D01*
X124797000Y-93188500D01*
X124757000Y-93200500D01*
X124716000Y-93210500D01*
X124675000Y-93217500D01*
X124634000Y-93223500D01*
X124592000Y-93226500D01*
X124550000Y-93227500D01*
X122150000Y-93227500D01*
X122150000Y-91627500D01*
X124550000Y-91627500D01*
X124592000Y-91628500D01*
G36*
X124592000Y-91628500D02*
G01*
X124634000Y-91631500D01*
X124675000Y-91637500D01*
X124716000Y-91644500D01*
X124757000Y-91654500D01*
X124797000Y-91666500D01*
X124837000Y-91680500D01*
X124875000Y-91696500D01*
X124913000Y-91714500D01*
X124950000Y-91734500D01*
X124986000Y-91756500D01*
X125020000Y-91780500D01*
X125053000Y-91805500D01*
X125085000Y-91832500D01*
X125116000Y-91861500D01*
X125145000Y-91892500D01*
X125172000Y-91924500D01*
X125197000Y-91957500D01*
X125221000Y-91991500D01*
X125243000Y-92027500D01*
X125263000Y-92064500D01*
X125281000Y-92102500D01*
X125297000Y-92140500D01*
X125311000Y-92180500D01*
X125323000Y-92220500D01*
X125333000Y-92261500D01*
X125340000Y-92302500D01*
X125346000Y-92343500D01*
X125349000Y-92385500D01*
X125350000Y-92427500D01*
X125349000Y-92469500D01*
X125346000Y-92511500D01*
X125340000Y-92552500D01*
X125333000Y-92593500D01*
X125323000Y-92634500D01*
X125311000Y-92674500D01*
X125297000Y-92714500D01*
X125281000Y-92752500D01*
X125263000Y-92790500D01*
X125243000Y-92827500D01*
X125221000Y-92863500D01*
X125197000Y-92897500D01*
X125172000Y-92930500D01*
X125145000Y-92962500D01*
X125116000Y-92993500D01*
X125085000Y-93022500D01*
X125053000Y-93049500D01*
X125020000Y-93074500D01*
X124986000Y-93098500D01*
X124950000Y-93120500D01*
X124913000Y-93140500D01*
X124875000Y-93158500D01*
X124837000Y-93174500D01*
X124797000Y-93188500D01*
X124757000Y-93200500D01*
X124716000Y-93210500D01*
X124675000Y-93217500D01*
X124634000Y-93223500D01*
X124592000Y-93226500D01*
X124550000Y-93227500D01*
X122150000Y-93227500D01*
X122150000Y-91627500D01*
X124550000Y-91627500D01*
X124592000Y-91628500D01*
G37*
X172622000Y-97978500D02*
X172664000Y-97981500D01*
X172705000Y-97987500D01*
X172746000Y-97994500D01*
X172787000Y-98004500D01*
X172827000Y-98016500D01*
X172867000Y-98030500D01*
X172905000Y-98046500D01*
X172943000Y-98064500D01*
X172980000Y-98084500D01*
X173016000Y-98106500D01*
X173050000Y-98130500D01*
X173083000Y-98155500D01*
X173115000Y-98182500D01*
X173146000Y-98211500D01*
X173175000Y-98242500D01*
X173202000Y-98274500D01*
X173227000Y-98307500D01*
X173251000Y-98341500D01*
X173273000Y-98377500D01*
X173293000Y-98414500D01*
X173311000Y-98452500D01*
X173327000Y-98490500D01*
X173341000Y-98530500D01*
X173353000Y-98570500D01*
X173363000Y-98611500D01*
X173370000Y-98652500D01*
X173376000Y-98693500D01*
X173379000Y-98735500D01*
X173380000Y-98777500D01*
X173380000Y-101177500D01*
X171780000Y-101177500D01*
X171780000Y-98777500D01*
X171781000Y-98735500D01*
X171784000Y-98693500D01*
X171790000Y-98652500D01*
X171797000Y-98611500D01*
X171807000Y-98570500D01*
X171819000Y-98530500D01*
X171833000Y-98490500D01*
X171849000Y-98452500D01*
X171867000Y-98414500D01*
X171887000Y-98377500D01*
X171909000Y-98341500D01*
X171933000Y-98307500D01*
X171958000Y-98274500D01*
X171985000Y-98242500D01*
X172014000Y-98211500D01*
X172045000Y-98182500D01*
X172077000Y-98155500D01*
X172110000Y-98130500D01*
X172144000Y-98106500D01*
X172180000Y-98084500D01*
X172217000Y-98064500D01*
X172255000Y-98046500D01*
X172293000Y-98030500D01*
X172333000Y-98016500D01*
X172373000Y-98004500D01*
X172414000Y-97994500D01*
X172455000Y-97987500D01*
X172496000Y-97981500D01*
X172538000Y-97978500D01*
X172580000Y-97977500D01*
X172622000Y-97978500D01*
G36*
X172622000Y-97978500D02*
G01*
X172664000Y-97981500D01*
X172705000Y-97987500D01*
X172746000Y-97994500D01*
X172787000Y-98004500D01*
X172827000Y-98016500D01*
X172867000Y-98030500D01*
X172905000Y-98046500D01*
X172943000Y-98064500D01*
X172980000Y-98084500D01*
X173016000Y-98106500D01*
X173050000Y-98130500D01*
X173083000Y-98155500D01*
X173115000Y-98182500D01*
X173146000Y-98211500D01*
X173175000Y-98242500D01*
X173202000Y-98274500D01*
X173227000Y-98307500D01*
X173251000Y-98341500D01*
X173273000Y-98377500D01*
X173293000Y-98414500D01*
X173311000Y-98452500D01*
X173327000Y-98490500D01*
X173341000Y-98530500D01*
X173353000Y-98570500D01*
X173363000Y-98611500D01*
X173370000Y-98652500D01*
X173376000Y-98693500D01*
X173379000Y-98735500D01*
X173380000Y-98777500D01*
X173380000Y-101177500D01*
X171780000Y-101177500D01*
X171780000Y-98777500D01*
X171781000Y-98735500D01*
X171784000Y-98693500D01*
X171790000Y-98652500D01*
X171797000Y-98611500D01*
X171807000Y-98570500D01*
X171819000Y-98530500D01*
X171833000Y-98490500D01*
X171849000Y-98452500D01*
X171867000Y-98414500D01*
X171887000Y-98377500D01*
X171909000Y-98341500D01*
X171933000Y-98307500D01*
X171958000Y-98274500D01*
X171985000Y-98242500D01*
X172014000Y-98211500D01*
X172045000Y-98182500D01*
X172077000Y-98155500D01*
X172110000Y-98130500D01*
X172144000Y-98106500D01*
X172180000Y-98084500D01*
X172217000Y-98064500D01*
X172255000Y-98046500D01*
X172293000Y-98030500D01*
X172333000Y-98016500D01*
X172373000Y-98004500D01*
X172414000Y-97994500D01*
X172455000Y-97987500D01*
X172496000Y-97981500D01*
X172538000Y-97978500D01*
X172580000Y-97977500D01*
X172622000Y-97978500D01*
G37*
X170082000Y-97978500D02*
X170124000Y-97981500D01*
X170165000Y-97987500D01*
X170206000Y-97994500D01*
X170247000Y-98004500D01*
X170287000Y-98016500D01*
X170327000Y-98030500D01*
X170365000Y-98046500D01*
X170403000Y-98064500D01*
X170440000Y-98084500D01*
X170476000Y-98106500D01*
X170510000Y-98130500D01*
X170543000Y-98155500D01*
X170575000Y-98182500D01*
X170606000Y-98211500D01*
X170635000Y-98242500D01*
X170662000Y-98274500D01*
X170687000Y-98307500D01*
X170711000Y-98341500D01*
X170733000Y-98377500D01*
X170753000Y-98414500D01*
X170771000Y-98452500D01*
X170787000Y-98490500D01*
X170801000Y-98530500D01*
X170813000Y-98570500D01*
X170823000Y-98611500D01*
X170830000Y-98652500D01*
X170836000Y-98693500D01*
X170839000Y-98735500D01*
X170840000Y-98777500D01*
X170840000Y-101177500D01*
X169240000Y-101177500D01*
X169240000Y-98777500D01*
X169241000Y-98735500D01*
X169244000Y-98693500D01*
X169250000Y-98652500D01*
X169257000Y-98611500D01*
X169267000Y-98570500D01*
X169279000Y-98530500D01*
X169293000Y-98490500D01*
X169309000Y-98452500D01*
X169327000Y-98414500D01*
X169347000Y-98377500D01*
X169369000Y-98341500D01*
X169393000Y-98307500D01*
X169418000Y-98274500D01*
X169445000Y-98242500D01*
X169474000Y-98211500D01*
X169505000Y-98182500D01*
X169537000Y-98155500D01*
X169570000Y-98130500D01*
X169604000Y-98106500D01*
X169640000Y-98084500D01*
X169677000Y-98064500D01*
X169715000Y-98046500D01*
X169753000Y-98030500D01*
X169793000Y-98016500D01*
X169833000Y-98004500D01*
X169874000Y-97994500D01*
X169915000Y-97987500D01*
X169956000Y-97981500D01*
X169998000Y-97978500D01*
X170040000Y-97977500D01*
X170082000Y-97978500D01*
G36*
X170082000Y-97978500D02*
G01*
X170124000Y-97981500D01*
X170165000Y-97987500D01*
X170206000Y-97994500D01*
X170247000Y-98004500D01*
X170287000Y-98016500D01*
X170327000Y-98030500D01*
X170365000Y-98046500D01*
X170403000Y-98064500D01*
X170440000Y-98084500D01*
X170476000Y-98106500D01*
X170510000Y-98130500D01*
X170543000Y-98155500D01*
X170575000Y-98182500D01*
X170606000Y-98211500D01*
X170635000Y-98242500D01*
X170662000Y-98274500D01*
X170687000Y-98307500D01*
X170711000Y-98341500D01*
X170733000Y-98377500D01*
X170753000Y-98414500D01*
X170771000Y-98452500D01*
X170787000Y-98490500D01*
X170801000Y-98530500D01*
X170813000Y-98570500D01*
X170823000Y-98611500D01*
X170830000Y-98652500D01*
X170836000Y-98693500D01*
X170839000Y-98735500D01*
X170840000Y-98777500D01*
X170840000Y-101177500D01*
X169240000Y-101177500D01*
X169240000Y-98777500D01*
X169241000Y-98735500D01*
X169244000Y-98693500D01*
X169250000Y-98652500D01*
X169257000Y-98611500D01*
X169267000Y-98570500D01*
X169279000Y-98530500D01*
X169293000Y-98490500D01*
X169309000Y-98452500D01*
X169327000Y-98414500D01*
X169347000Y-98377500D01*
X169369000Y-98341500D01*
X169393000Y-98307500D01*
X169418000Y-98274500D01*
X169445000Y-98242500D01*
X169474000Y-98211500D01*
X169505000Y-98182500D01*
X169537000Y-98155500D01*
X169570000Y-98130500D01*
X169604000Y-98106500D01*
X169640000Y-98084500D01*
X169677000Y-98064500D01*
X169715000Y-98046500D01*
X169753000Y-98030500D01*
X169793000Y-98016500D01*
X169833000Y-98004500D01*
X169874000Y-97994500D01*
X169915000Y-97987500D01*
X169956000Y-97981500D01*
X169998000Y-97978500D01*
X170040000Y-97977500D01*
X170082000Y-97978500D01*
G37*
X165002000Y-97978500D02*
X165044000Y-97981500D01*
X165085000Y-97987500D01*
X165126000Y-97994500D01*
X165167000Y-98004500D01*
X165207000Y-98016500D01*
X165247000Y-98030500D01*
X165285000Y-98046500D01*
X165323000Y-98064500D01*
X165360000Y-98084500D01*
X165396000Y-98106500D01*
X165430000Y-98130500D01*
X165463000Y-98155500D01*
X165495000Y-98182500D01*
X165526000Y-98211500D01*
X165555000Y-98242500D01*
X165582000Y-98274500D01*
X165607000Y-98307500D01*
X165631000Y-98341500D01*
X165653000Y-98377500D01*
X165673000Y-98414500D01*
X165691000Y-98452500D01*
X165707000Y-98490500D01*
X165721000Y-98530500D01*
X165733000Y-98570500D01*
X165743000Y-98611500D01*
X165750000Y-98652500D01*
X165756000Y-98693500D01*
X165759000Y-98735500D01*
X165760000Y-98777500D01*
X165760000Y-101177500D01*
X164160000Y-101177500D01*
X164160000Y-98777500D01*
X164161000Y-98735500D01*
X164164000Y-98693500D01*
X164170000Y-98652500D01*
X164177000Y-98611500D01*
X164187000Y-98570500D01*
X164199000Y-98530500D01*
X164213000Y-98490500D01*
X164229000Y-98452500D01*
X164247000Y-98414500D01*
X164267000Y-98377500D01*
X164289000Y-98341500D01*
X164313000Y-98307500D01*
X164338000Y-98274500D01*
X164365000Y-98242500D01*
X164394000Y-98211500D01*
X164425000Y-98182500D01*
X164457000Y-98155500D01*
X164490000Y-98130500D01*
X164524000Y-98106500D01*
X164560000Y-98084500D01*
X164597000Y-98064500D01*
X164635000Y-98046500D01*
X164673000Y-98030500D01*
X164713000Y-98016500D01*
X164753000Y-98004500D01*
X164794000Y-97994500D01*
X164835000Y-97987500D01*
X164876000Y-97981500D01*
X164918000Y-97978500D01*
X164960000Y-97977500D01*
X165002000Y-97978500D01*
G36*
X165002000Y-97978500D02*
G01*
X165044000Y-97981500D01*
X165085000Y-97987500D01*
X165126000Y-97994500D01*
X165167000Y-98004500D01*
X165207000Y-98016500D01*
X165247000Y-98030500D01*
X165285000Y-98046500D01*
X165323000Y-98064500D01*
X165360000Y-98084500D01*
X165396000Y-98106500D01*
X165430000Y-98130500D01*
X165463000Y-98155500D01*
X165495000Y-98182500D01*
X165526000Y-98211500D01*
X165555000Y-98242500D01*
X165582000Y-98274500D01*
X165607000Y-98307500D01*
X165631000Y-98341500D01*
X165653000Y-98377500D01*
X165673000Y-98414500D01*
X165691000Y-98452500D01*
X165707000Y-98490500D01*
X165721000Y-98530500D01*
X165733000Y-98570500D01*
X165743000Y-98611500D01*
X165750000Y-98652500D01*
X165756000Y-98693500D01*
X165759000Y-98735500D01*
X165760000Y-98777500D01*
X165760000Y-101177500D01*
X164160000Y-101177500D01*
X164160000Y-98777500D01*
X164161000Y-98735500D01*
X164164000Y-98693500D01*
X164170000Y-98652500D01*
X164177000Y-98611500D01*
X164187000Y-98570500D01*
X164199000Y-98530500D01*
X164213000Y-98490500D01*
X164229000Y-98452500D01*
X164247000Y-98414500D01*
X164267000Y-98377500D01*
X164289000Y-98341500D01*
X164313000Y-98307500D01*
X164338000Y-98274500D01*
X164365000Y-98242500D01*
X164394000Y-98211500D01*
X164425000Y-98182500D01*
X164457000Y-98155500D01*
X164490000Y-98130500D01*
X164524000Y-98106500D01*
X164560000Y-98084500D01*
X164597000Y-98064500D01*
X164635000Y-98046500D01*
X164673000Y-98030500D01*
X164713000Y-98016500D01*
X164753000Y-98004500D01*
X164794000Y-97994500D01*
X164835000Y-97987500D01*
X164876000Y-97981500D01*
X164918000Y-97978500D01*
X164960000Y-97977500D01*
X165002000Y-97978500D01*
G37*
X162462000Y-97978500D02*
X162504000Y-97981500D01*
X162545000Y-97987500D01*
X162586000Y-97994500D01*
X162627000Y-98004500D01*
X162667000Y-98016500D01*
X162707000Y-98030500D01*
X162745000Y-98046500D01*
X162783000Y-98064500D01*
X162820000Y-98084500D01*
X162856000Y-98106500D01*
X162890000Y-98130500D01*
X162923000Y-98155500D01*
X162955000Y-98182500D01*
X162986000Y-98211500D01*
X163015000Y-98242500D01*
X163042000Y-98274500D01*
X163067000Y-98307500D01*
X163091000Y-98341500D01*
X163113000Y-98377500D01*
X163133000Y-98414500D01*
X163151000Y-98452500D01*
X163167000Y-98490500D01*
X163181000Y-98530500D01*
X163193000Y-98570500D01*
X163203000Y-98611500D01*
X163210000Y-98652500D01*
X163216000Y-98693500D01*
X163219000Y-98735500D01*
X163220000Y-98777500D01*
X163220000Y-101177500D01*
X161620000Y-101177500D01*
X161620000Y-98777500D01*
X161621000Y-98735500D01*
X161624000Y-98693500D01*
X161630000Y-98652500D01*
X161637000Y-98611500D01*
X161647000Y-98570500D01*
X161659000Y-98530500D01*
X161673000Y-98490500D01*
X161689000Y-98452500D01*
X161707000Y-98414500D01*
X161727000Y-98377500D01*
X161749000Y-98341500D01*
X161773000Y-98307500D01*
X161798000Y-98274500D01*
X161825000Y-98242500D01*
X161854000Y-98211500D01*
X161885000Y-98182500D01*
X161917000Y-98155500D01*
X161950000Y-98130500D01*
X161984000Y-98106500D01*
X162020000Y-98084500D01*
X162057000Y-98064500D01*
X162095000Y-98046500D01*
X162133000Y-98030500D01*
X162173000Y-98016500D01*
X162213000Y-98004500D01*
X162254000Y-97994500D01*
X162295000Y-97987500D01*
X162336000Y-97981500D01*
X162378000Y-97978500D01*
X162420000Y-97977500D01*
X162462000Y-97978500D01*
G36*
X162462000Y-97978500D02*
G01*
X162504000Y-97981500D01*
X162545000Y-97987500D01*
X162586000Y-97994500D01*
X162627000Y-98004500D01*
X162667000Y-98016500D01*
X162707000Y-98030500D01*
X162745000Y-98046500D01*
X162783000Y-98064500D01*
X162820000Y-98084500D01*
X162856000Y-98106500D01*
X162890000Y-98130500D01*
X162923000Y-98155500D01*
X162955000Y-98182500D01*
X162986000Y-98211500D01*
X163015000Y-98242500D01*
X163042000Y-98274500D01*
X163067000Y-98307500D01*
X163091000Y-98341500D01*
X163113000Y-98377500D01*
X163133000Y-98414500D01*
X163151000Y-98452500D01*
X163167000Y-98490500D01*
X163181000Y-98530500D01*
X163193000Y-98570500D01*
X163203000Y-98611500D01*
X163210000Y-98652500D01*
X163216000Y-98693500D01*
X163219000Y-98735500D01*
X163220000Y-98777500D01*
X163220000Y-101177500D01*
X161620000Y-101177500D01*
X161620000Y-98777500D01*
X161621000Y-98735500D01*
X161624000Y-98693500D01*
X161630000Y-98652500D01*
X161637000Y-98611500D01*
X161647000Y-98570500D01*
X161659000Y-98530500D01*
X161673000Y-98490500D01*
X161689000Y-98452500D01*
X161707000Y-98414500D01*
X161727000Y-98377500D01*
X161749000Y-98341500D01*
X161773000Y-98307500D01*
X161798000Y-98274500D01*
X161825000Y-98242500D01*
X161854000Y-98211500D01*
X161885000Y-98182500D01*
X161917000Y-98155500D01*
X161950000Y-98130500D01*
X161984000Y-98106500D01*
X162020000Y-98084500D01*
X162057000Y-98064500D01*
X162095000Y-98046500D01*
X162133000Y-98030500D01*
X162173000Y-98016500D01*
X162213000Y-98004500D01*
X162254000Y-97994500D01*
X162295000Y-97987500D01*
X162336000Y-97981500D01*
X162378000Y-97978500D01*
X162420000Y-97977500D01*
X162462000Y-97978500D01*
G37*
X159922000Y-97978500D02*
X159964000Y-97981500D01*
X160005000Y-97987500D01*
X160046000Y-97994500D01*
X160087000Y-98004500D01*
X160127000Y-98016500D01*
X160167000Y-98030500D01*
X160205000Y-98046500D01*
X160243000Y-98064500D01*
X160280000Y-98084500D01*
X160316000Y-98106500D01*
X160350000Y-98130500D01*
X160383000Y-98155500D01*
X160415000Y-98182500D01*
X160446000Y-98211500D01*
X160475000Y-98242500D01*
X160502000Y-98274500D01*
X160527000Y-98307500D01*
X160551000Y-98341500D01*
X160573000Y-98377500D01*
X160593000Y-98414500D01*
X160611000Y-98452500D01*
X160627000Y-98490500D01*
X160641000Y-98530500D01*
X160653000Y-98570500D01*
X160663000Y-98611500D01*
X160670000Y-98652500D01*
X160676000Y-98693500D01*
X160679000Y-98735500D01*
X160680000Y-98777500D01*
X160680000Y-101177500D01*
X159080000Y-101177500D01*
X159080000Y-98777500D01*
X159081000Y-98735500D01*
X159084000Y-98693500D01*
X159090000Y-98652500D01*
X159097000Y-98611500D01*
X159107000Y-98570500D01*
X159119000Y-98530500D01*
X159133000Y-98490500D01*
X159149000Y-98452500D01*
X159167000Y-98414500D01*
X159187000Y-98377500D01*
X159209000Y-98341500D01*
X159233000Y-98307500D01*
X159258000Y-98274500D01*
X159285000Y-98242500D01*
X159314000Y-98211500D01*
X159345000Y-98182500D01*
X159377000Y-98155500D01*
X159410000Y-98130500D01*
X159444000Y-98106500D01*
X159480000Y-98084500D01*
X159517000Y-98064500D01*
X159555000Y-98046500D01*
X159593000Y-98030500D01*
X159633000Y-98016500D01*
X159673000Y-98004500D01*
X159714000Y-97994500D01*
X159755000Y-97987500D01*
X159796000Y-97981500D01*
X159838000Y-97978500D01*
X159880000Y-97977500D01*
X159922000Y-97978500D01*
G36*
X159922000Y-97978500D02*
G01*
X159964000Y-97981500D01*
X160005000Y-97987500D01*
X160046000Y-97994500D01*
X160087000Y-98004500D01*
X160127000Y-98016500D01*
X160167000Y-98030500D01*
X160205000Y-98046500D01*
X160243000Y-98064500D01*
X160280000Y-98084500D01*
X160316000Y-98106500D01*
X160350000Y-98130500D01*
X160383000Y-98155500D01*
X160415000Y-98182500D01*
X160446000Y-98211500D01*
X160475000Y-98242500D01*
X160502000Y-98274500D01*
X160527000Y-98307500D01*
X160551000Y-98341500D01*
X160573000Y-98377500D01*
X160593000Y-98414500D01*
X160611000Y-98452500D01*
X160627000Y-98490500D01*
X160641000Y-98530500D01*
X160653000Y-98570500D01*
X160663000Y-98611500D01*
X160670000Y-98652500D01*
X160676000Y-98693500D01*
X160679000Y-98735500D01*
X160680000Y-98777500D01*
X160680000Y-101177500D01*
X159080000Y-101177500D01*
X159080000Y-98777500D01*
X159081000Y-98735500D01*
X159084000Y-98693500D01*
X159090000Y-98652500D01*
X159097000Y-98611500D01*
X159107000Y-98570500D01*
X159119000Y-98530500D01*
X159133000Y-98490500D01*
X159149000Y-98452500D01*
X159167000Y-98414500D01*
X159187000Y-98377500D01*
X159209000Y-98341500D01*
X159233000Y-98307500D01*
X159258000Y-98274500D01*
X159285000Y-98242500D01*
X159314000Y-98211500D01*
X159345000Y-98182500D01*
X159377000Y-98155500D01*
X159410000Y-98130500D01*
X159444000Y-98106500D01*
X159480000Y-98084500D01*
X159517000Y-98064500D01*
X159555000Y-98046500D01*
X159593000Y-98030500D01*
X159633000Y-98016500D01*
X159673000Y-98004500D01*
X159714000Y-97994500D01*
X159755000Y-97987500D01*
X159796000Y-97981500D01*
X159838000Y-97978500D01*
X159880000Y-97977500D01*
X159922000Y-97978500D01*
G37*
X157382000Y-97978500D02*
X157424000Y-97981500D01*
X157465000Y-97987500D01*
X157506000Y-97994500D01*
X157547000Y-98004500D01*
X157587000Y-98016500D01*
X157627000Y-98030500D01*
X157665000Y-98046500D01*
X157703000Y-98064500D01*
X157740000Y-98084500D01*
X157776000Y-98106500D01*
X157810000Y-98130500D01*
X157843000Y-98155500D01*
X157875000Y-98182500D01*
X157906000Y-98211500D01*
X157935000Y-98242500D01*
X157962000Y-98274500D01*
X157987000Y-98307500D01*
X158011000Y-98341500D01*
X158033000Y-98377500D01*
X158053000Y-98414500D01*
X158071000Y-98452500D01*
X158087000Y-98490500D01*
X158101000Y-98530500D01*
X158113000Y-98570500D01*
X158123000Y-98611500D01*
X158130000Y-98652500D01*
X158136000Y-98693500D01*
X158139000Y-98735500D01*
X158140000Y-98777500D01*
X158140000Y-101177500D01*
X156540000Y-101177500D01*
X156540000Y-98777500D01*
X156541000Y-98735500D01*
X156544000Y-98693500D01*
X156550000Y-98652500D01*
X156557000Y-98611500D01*
X156567000Y-98570500D01*
X156579000Y-98530500D01*
X156593000Y-98490500D01*
X156609000Y-98452500D01*
X156627000Y-98414500D01*
X156647000Y-98377500D01*
X156669000Y-98341500D01*
X156693000Y-98307500D01*
X156718000Y-98274500D01*
X156745000Y-98242500D01*
X156774000Y-98211500D01*
X156805000Y-98182500D01*
X156837000Y-98155500D01*
X156870000Y-98130500D01*
X156904000Y-98106500D01*
X156940000Y-98084500D01*
X156977000Y-98064500D01*
X157015000Y-98046500D01*
X157053000Y-98030500D01*
X157093000Y-98016500D01*
X157133000Y-98004500D01*
X157174000Y-97994500D01*
X157215000Y-97987500D01*
X157256000Y-97981500D01*
X157298000Y-97978500D01*
X157340000Y-97977500D01*
X157382000Y-97978500D01*
G36*
X157382000Y-97978500D02*
G01*
X157424000Y-97981500D01*
X157465000Y-97987500D01*
X157506000Y-97994500D01*
X157547000Y-98004500D01*
X157587000Y-98016500D01*
X157627000Y-98030500D01*
X157665000Y-98046500D01*
X157703000Y-98064500D01*
X157740000Y-98084500D01*
X157776000Y-98106500D01*
X157810000Y-98130500D01*
X157843000Y-98155500D01*
X157875000Y-98182500D01*
X157906000Y-98211500D01*
X157935000Y-98242500D01*
X157962000Y-98274500D01*
X157987000Y-98307500D01*
X158011000Y-98341500D01*
X158033000Y-98377500D01*
X158053000Y-98414500D01*
X158071000Y-98452500D01*
X158087000Y-98490500D01*
X158101000Y-98530500D01*
X158113000Y-98570500D01*
X158123000Y-98611500D01*
X158130000Y-98652500D01*
X158136000Y-98693500D01*
X158139000Y-98735500D01*
X158140000Y-98777500D01*
X158140000Y-101177500D01*
X156540000Y-101177500D01*
X156540000Y-98777500D01*
X156541000Y-98735500D01*
X156544000Y-98693500D01*
X156550000Y-98652500D01*
X156557000Y-98611500D01*
X156567000Y-98570500D01*
X156579000Y-98530500D01*
X156593000Y-98490500D01*
X156609000Y-98452500D01*
X156627000Y-98414500D01*
X156647000Y-98377500D01*
X156669000Y-98341500D01*
X156693000Y-98307500D01*
X156718000Y-98274500D01*
X156745000Y-98242500D01*
X156774000Y-98211500D01*
X156805000Y-98182500D01*
X156837000Y-98155500D01*
X156870000Y-98130500D01*
X156904000Y-98106500D01*
X156940000Y-98084500D01*
X156977000Y-98064500D01*
X157015000Y-98046500D01*
X157053000Y-98030500D01*
X157093000Y-98016500D01*
X157133000Y-98004500D01*
X157174000Y-97994500D01*
X157215000Y-97987500D01*
X157256000Y-97981500D01*
X157298000Y-97978500D01*
X157340000Y-97977500D01*
X157382000Y-97978500D01*
G37*
X152302000Y-97978500D02*
X152344000Y-97981500D01*
X152385000Y-97987500D01*
X152426000Y-97994500D01*
X152467000Y-98004500D01*
X152507000Y-98016500D01*
X152547000Y-98030500D01*
X152585000Y-98046500D01*
X152623000Y-98064500D01*
X152660000Y-98084500D01*
X152696000Y-98106500D01*
X152730000Y-98130500D01*
X152763000Y-98155500D01*
X152795000Y-98182500D01*
X152826000Y-98211500D01*
X152855000Y-98242500D01*
X152882000Y-98274500D01*
X152907000Y-98307500D01*
X152931000Y-98341500D01*
X152953000Y-98377500D01*
X152973000Y-98414500D01*
X152991000Y-98452500D01*
X153007000Y-98490500D01*
X153021000Y-98530500D01*
X153033000Y-98570500D01*
X153043000Y-98611500D01*
X153050000Y-98652500D01*
X153056000Y-98693500D01*
X153059000Y-98735500D01*
X153060000Y-98777500D01*
X153060000Y-101177500D01*
X151460000Y-101177500D01*
X151460000Y-98777500D01*
X151461000Y-98735500D01*
X151464000Y-98693500D01*
X151470000Y-98652500D01*
X151477000Y-98611500D01*
X151487000Y-98570500D01*
X151499000Y-98530500D01*
X151513000Y-98490500D01*
X151529000Y-98452500D01*
X151547000Y-98414500D01*
X151567000Y-98377500D01*
X151589000Y-98341500D01*
X151613000Y-98307500D01*
X151638000Y-98274500D01*
X151665000Y-98242500D01*
X151694000Y-98211500D01*
X151725000Y-98182500D01*
X151757000Y-98155500D01*
X151790000Y-98130500D01*
X151824000Y-98106500D01*
X151860000Y-98084500D01*
X151897000Y-98064500D01*
X151935000Y-98046500D01*
X151973000Y-98030500D01*
X152013000Y-98016500D01*
X152053000Y-98004500D01*
X152094000Y-97994500D01*
X152135000Y-97987500D01*
X152176000Y-97981500D01*
X152218000Y-97978500D01*
X152260000Y-97977500D01*
X152302000Y-97978500D01*
G36*
X152302000Y-97978500D02*
G01*
X152344000Y-97981500D01*
X152385000Y-97987500D01*
X152426000Y-97994500D01*
X152467000Y-98004500D01*
X152507000Y-98016500D01*
X152547000Y-98030500D01*
X152585000Y-98046500D01*
X152623000Y-98064500D01*
X152660000Y-98084500D01*
X152696000Y-98106500D01*
X152730000Y-98130500D01*
X152763000Y-98155500D01*
X152795000Y-98182500D01*
X152826000Y-98211500D01*
X152855000Y-98242500D01*
X152882000Y-98274500D01*
X152907000Y-98307500D01*
X152931000Y-98341500D01*
X152953000Y-98377500D01*
X152973000Y-98414500D01*
X152991000Y-98452500D01*
X153007000Y-98490500D01*
X153021000Y-98530500D01*
X153033000Y-98570500D01*
X153043000Y-98611500D01*
X153050000Y-98652500D01*
X153056000Y-98693500D01*
X153059000Y-98735500D01*
X153060000Y-98777500D01*
X153060000Y-101177500D01*
X151460000Y-101177500D01*
X151460000Y-98777500D01*
X151461000Y-98735500D01*
X151464000Y-98693500D01*
X151470000Y-98652500D01*
X151477000Y-98611500D01*
X151487000Y-98570500D01*
X151499000Y-98530500D01*
X151513000Y-98490500D01*
X151529000Y-98452500D01*
X151547000Y-98414500D01*
X151567000Y-98377500D01*
X151589000Y-98341500D01*
X151613000Y-98307500D01*
X151638000Y-98274500D01*
X151665000Y-98242500D01*
X151694000Y-98211500D01*
X151725000Y-98182500D01*
X151757000Y-98155500D01*
X151790000Y-98130500D01*
X151824000Y-98106500D01*
X151860000Y-98084500D01*
X151897000Y-98064500D01*
X151935000Y-98046500D01*
X151973000Y-98030500D01*
X152013000Y-98016500D01*
X152053000Y-98004500D01*
X152094000Y-97994500D01*
X152135000Y-97987500D01*
X152176000Y-97981500D01*
X152218000Y-97978500D01*
X152260000Y-97977500D01*
X152302000Y-97978500D01*
G37*
X149762000Y-97978500D02*
X149804000Y-97981500D01*
X149845000Y-97987500D01*
X149886000Y-97994500D01*
X149927000Y-98004500D01*
X149967000Y-98016500D01*
X150007000Y-98030500D01*
X150045000Y-98046500D01*
X150083000Y-98064500D01*
X150120000Y-98084500D01*
X150156000Y-98106500D01*
X150190000Y-98130500D01*
X150223000Y-98155500D01*
X150255000Y-98182500D01*
X150286000Y-98211500D01*
X150315000Y-98242500D01*
X150342000Y-98274500D01*
X150367000Y-98307500D01*
X150391000Y-98341500D01*
X150413000Y-98377500D01*
X150433000Y-98414500D01*
X150451000Y-98452500D01*
X150467000Y-98490500D01*
X150481000Y-98530500D01*
X150493000Y-98570500D01*
X150503000Y-98611500D01*
X150510000Y-98652500D01*
X150516000Y-98693500D01*
X150519000Y-98735500D01*
X150520000Y-98777500D01*
X150520000Y-101177500D01*
X148920000Y-101177500D01*
X148920000Y-98777500D01*
X148921000Y-98735500D01*
X148924000Y-98693500D01*
X148930000Y-98652500D01*
X148937000Y-98611500D01*
X148947000Y-98570500D01*
X148959000Y-98530500D01*
X148973000Y-98490500D01*
X148989000Y-98452500D01*
X149007000Y-98414500D01*
X149027000Y-98377500D01*
X149049000Y-98341500D01*
X149073000Y-98307500D01*
X149098000Y-98274500D01*
X149125000Y-98242500D01*
X149154000Y-98211500D01*
X149185000Y-98182500D01*
X149217000Y-98155500D01*
X149250000Y-98130500D01*
X149284000Y-98106500D01*
X149320000Y-98084500D01*
X149357000Y-98064500D01*
X149395000Y-98046500D01*
X149433000Y-98030500D01*
X149473000Y-98016500D01*
X149513000Y-98004500D01*
X149554000Y-97994500D01*
X149595000Y-97987500D01*
X149636000Y-97981500D01*
X149678000Y-97978500D01*
X149720000Y-97977500D01*
X149762000Y-97978500D01*
G36*
X149762000Y-97978500D02*
G01*
X149804000Y-97981500D01*
X149845000Y-97987500D01*
X149886000Y-97994500D01*
X149927000Y-98004500D01*
X149967000Y-98016500D01*
X150007000Y-98030500D01*
X150045000Y-98046500D01*
X150083000Y-98064500D01*
X150120000Y-98084500D01*
X150156000Y-98106500D01*
X150190000Y-98130500D01*
X150223000Y-98155500D01*
X150255000Y-98182500D01*
X150286000Y-98211500D01*
X150315000Y-98242500D01*
X150342000Y-98274500D01*
X150367000Y-98307500D01*
X150391000Y-98341500D01*
X150413000Y-98377500D01*
X150433000Y-98414500D01*
X150451000Y-98452500D01*
X150467000Y-98490500D01*
X150481000Y-98530500D01*
X150493000Y-98570500D01*
X150503000Y-98611500D01*
X150510000Y-98652500D01*
X150516000Y-98693500D01*
X150519000Y-98735500D01*
X150520000Y-98777500D01*
X150520000Y-101177500D01*
X148920000Y-101177500D01*
X148920000Y-98777500D01*
X148921000Y-98735500D01*
X148924000Y-98693500D01*
X148930000Y-98652500D01*
X148937000Y-98611500D01*
X148947000Y-98570500D01*
X148959000Y-98530500D01*
X148973000Y-98490500D01*
X148989000Y-98452500D01*
X149007000Y-98414500D01*
X149027000Y-98377500D01*
X149049000Y-98341500D01*
X149073000Y-98307500D01*
X149098000Y-98274500D01*
X149125000Y-98242500D01*
X149154000Y-98211500D01*
X149185000Y-98182500D01*
X149217000Y-98155500D01*
X149250000Y-98130500D01*
X149284000Y-98106500D01*
X149320000Y-98084500D01*
X149357000Y-98064500D01*
X149395000Y-98046500D01*
X149433000Y-98030500D01*
X149473000Y-98016500D01*
X149513000Y-98004500D01*
X149554000Y-97994500D01*
X149595000Y-97987500D01*
X149636000Y-97981500D01*
X149678000Y-97978500D01*
X149720000Y-97977500D01*
X149762000Y-97978500D01*
G37*
X147222000Y-97978500D02*
X147264000Y-97981500D01*
X147305000Y-97987500D01*
X147346000Y-97994500D01*
X147387000Y-98004500D01*
X147427000Y-98016500D01*
X147467000Y-98030500D01*
X147505000Y-98046500D01*
X147543000Y-98064500D01*
X147580000Y-98084500D01*
X147616000Y-98106500D01*
X147650000Y-98130500D01*
X147683000Y-98155500D01*
X147715000Y-98182500D01*
X147746000Y-98211500D01*
X147775000Y-98242500D01*
X147802000Y-98274500D01*
X147827000Y-98307500D01*
X147851000Y-98341500D01*
X147873000Y-98377500D01*
X147893000Y-98414500D01*
X147911000Y-98452500D01*
X147927000Y-98490500D01*
X147941000Y-98530500D01*
X147953000Y-98570500D01*
X147963000Y-98611500D01*
X147970000Y-98652500D01*
X147976000Y-98693500D01*
X147979000Y-98735500D01*
X147980000Y-98777500D01*
X147980000Y-101177500D01*
X146380000Y-101177500D01*
X146380000Y-98777500D01*
X146381000Y-98735500D01*
X146384000Y-98693500D01*
X146390000Y-98652500D01*
X146397000Y-98611500D01*
X146407000Y-98570500D01*
X146419000Y-98530500D01*
X146433000Y-98490500D01*
X146449000Y-98452500D01*
X146467000Y-98414500D01*
X146487000Y-98377500D01*
X146509000Y-98341500D01*
X146533000Y-98307500D01*
X146558000Y-98274500D01*
X146585000Y-98242500D01*
X146614000Y-98211500D01*
X146645000Y-98182500D01*
X146677000Y-98155500D01*
X146710000Y-98130500D01*
X146744000Y-98106500D01*
X146780000Y-98084500D01*
X146817000Y-98064500D01*
X146855000Y-98046500D01*
X146893000Y-98030500D01*
X146933000Y-98016500D01*
X146973000Y-98004500D01*
X147014000Y-97994500D01*
X147055000Y-97987500D01*
X147096000Y-97981500D01*
X147138000Y-97978500D01*
X147180000Y-97977500D01*
X147222000Y-97978500D01*
G36*
X147222000Y-97978500D02*
G01*
X147264000Y-97981500D01*
X147305000Y-97987500D01*
X147346000Y-97994500D01*
X147387000Y-98004500D01*
X147427000Y-98016500D01*
X147467000Y-98030500D01*
X147505000Y-98046500D01*
X147543000Y-98064500D01*
X147580000Y-98084500D01*
X147616000Y-98106500D01*
X147650000Y-98130500D01*
X147683000Y-98155500D01*
X147715000Y-98182500D01*
X147746000Y-98211500D01*
X147775000Y-98242500D01*
X147802000Y-98274500D01*
X147827000Y-98307500D01*
X147851000Y-98341500D01*
X147873000Y-98377500D01*
X147893000Y-98414500D01*
X147911000Y-98452500D01*
X147927000Y-98490500D01*
X147941000Y-98530500D01*
X147953000Y-98570500D01*
X147963000Y-98611500D01*
X147970000Y-98652500D01*
X147976000Y-98693500D01*
X147979000Y-98735500D01*
X147980000Y-98777500D01*
X147980000Y-101177500D01*
X146380000Y-101177500D01*
X146380000Y-98777500D01*
X146381000Y-98735500D01*
X146384000Y-98693500D01*
X146390000Y-98652500D01*
X146397000Y-98611500D01*
X146407000Y-98570500D01*
X146419000Y-98530500D01*
X146433000Y-98490500D01*
X146449000Y-98452500D01*
X146467000Y-98414500D01*
X146487000Y-98377500D01*
X146509000Y-98341500D01*
X146533000Y-98307500D01*
X146558000Y-98274500D01*
X146585000Y-98242500D01*
X146614000Y-98211500D01*
X146645000Y-98182500D01*
X146677000Y-98155500D01*
X146710000Y-98130500D01*
X146744000Y-98106500D01*
X146780000Y-98084500D01*
X146817000Y-98064500D01*
X146855000Y-98046500D01*
X146893000Y-98030500D01*
X146933000Y-98016500D01*
X146973000Y-98004500D01*
X147014000Y-97994500D01*
X147055000Y-97987500D01*
X147096000Y-97981500D01*
X147138000Y-97978500D01*
X147180000Y-97977500D01*
X147222000Y-97978500D01*
G37*
X144682000Y-97978500D02*
X144724000Y-97981500D01*
X144765000Y-97987500D01*
X144806000Y-97994500D01*
X144847000Y-98004500D01*
X144887000Y-98016500D01*
X144927000Y-98030500D01*
X144965000Y-98046500D01*
X145003000Y-98064500D01*
X145040000Y-98084500D01*
X145076000Y-98106500D01*
X145110000Y-98130500D01*
X145143000Y-98155500D01*
X145175000Y-98182500D01*
X145206000Y-98211500D01*
X145235000Y-98242500D01*
X145262000Y-98274500D01*
X145287000Y-98307500D01*
X145311000Y-98341500D01*
X145333000Y-98377500D01*
X145353000Y-98414500D01*
X145371000Y-98452500D01*
X145387000Y-98490500D01*
X145401000Y-98530500D01*
X145413000Y-98570500D01*
X145423000Y-98611500D01*
X145430000Y-98652500D01*
X145436000Y-98693500D01*
X145439000Y-98735500D01*
X145440000Y-98777500D01*
X145440000Y-101177500D01*
X143840000Y-101177500D01*
X143840000Y-98777500D01*
X143841000Y-98735500D01*
X143844000Y-98693500D01*
X143850000Y-98652500D01*
X143857000Y-98611500D01*
X143867000Y-98570500D01*
X143879000Y-98530500D01*
X143893000Y-98490500D01*
X143909000Y-98452500D01*
X143927000Y-98414500D01*
X143947000Y-98377500D01*
X143969000Y-98341500D01*
X143993000Y-98307500D01*
X144018000Y-98274500D01*
X144045000Y-98242500D01*
X144074000Y-98211500D01*
X144105000Y-98182500D01*
X144137000Y-98155500D01*
X144170000Y-98130500D01*
X144204000Y-98106500D01*
X144240000Y-98084500D01*
X144277000Y-98064500D01*
X144315000Y-98046500D01*
X144353000Y-98030500D01*
X144393000Y-98016500D01*
X144433000Y-98004500D01*
X144474000Y-97994500D01*
X144515000Y-97987500D01*
X144556000Y-97981500D01*
X144598000Y-97978500D01*
X144640000Y-97977500D01*
X144682000Y-97978500D01*
G36*
X144682000Y-97978500D02*
G01*
X144724000Y-97981500D01*
X144765000Y-97987500D01*
X144806000Y-97994500D01*
X144847000Y-98004500D01*
X144887000Y-98016500D01*
X144927000Y-98030500D01*
X144965000Y-98046500D01*
X145003000Y-98064500D01*
X145040000Y-98084500D01*
X145076000Y-98106500D01*
X145110000Y-98130500D01*
X145143000Y-98155500D01*
X145175000Y-98182500D01*
X145206000Y-98211500D01*
X145235000Y-98242500D01*
X145262000Y-98274500D01*
X145287000Y-98307500D01*
X145311000Y-98341500D01*
X145333000Y-98377500D01*
X145353000Y-98414500D01*
X145371000Y-98452500D01*
X145387000Y-98490500D01*
X145401000Y-98530500D01*
X145413000Y-98570500D01*
X145423000Y-98611500D01*
X145430000Y-98652500D01*
X145436000Y-98693500D01*
X145439000Y-98735500D01*
X145440000Y-98777500D01*
X145440000Y-101177500D01*
X143840000Y-101177500D01*
X143840000Y-98777500D01*
X143841000Y-98735500D01*
X143844000Y-98693500D01*
X143850000Y-98652500D01*
X143857000Y-98611500D01*
X143867000Y-98570500D01*
X143879000Y-98530500D01*
X143893000Y-98490500D01*
X143909000Y-98452500D01*
X143927000Y-98414500D01*
X143947000Y-98377500D01*
X143969000Y-98341500D01*
X143993000Y-98307500D01*
X144018000Y-98274500D01*
X144045000Y-98242500D01*
X144074000Y-98211500D01*
X144105000Y-98182500D01*
X144137000Y-98155500D01*
X144170000Y-98130500D01*
X144204000Y-98106500D01*
X144240000Y-98084500D01*
X144277000Y-98064500D01*
X144315000Y-98046500D01*
X144353000Y-98030500D01*
X144393000Y-98016500D01*
X144433000Y-98004500D01*
X144474000Y-97994500D01*
X144515000Y-97987500D01*
X144556000Y-97981500D01*
X144598000Y-97978500D01*
X144640000Y-97977500D01*
X144682000Y-97978500D01*
G37*
X139602000Y-97978500D02*
X139644000Y-97981500D01*
X139685000Y-97987500D01*
X139726000Y-97994500D01*
X139767000Y-98004500D01*
X139807000Y-98016500D01*
X139847000Y-98030500D01*
X139885000Y-98046500D01*
X139923000Y-98064500D01*
X139960000Y-98084500D01*
X139996000Y-98106500D01*
X140030000Y-98130500D01*
X140063000Y-98155500D01*
X140095000Y-98182500D01*
X140126000Y-98211500D01*
X140155000Y-98242500D01*
X140182000Y-98274500D01*
X140207000Y-98307500D01*
X140231000Y-98341500D01*
X140253000Y-98377500D01*
X140273000Y-98414500D01*
X140291000Y-98452500D01*
X140307000Y-98490500D01*
X140321000Y-98530500D01*
X140333000Y-98570500D01*
X140343000Y-98611500D01*
X140350000Y-98652500D01*
X140356000Y-98693500D01*
X140359000Y-98735500D01*
X140360000Y-98777500D01*
X140360000Y-101177500D01*
X138760000Y-101177500D01*
X138760000Y-98777500D01*
X138761000Y-98735500D01*
X138764000Y-98693500D01*
X138770000Y-98652500D01*
X138777000Y-98611500D01*
X138787000Y-98570500D01*
X138799000Y-98530500D01*
X138813000Y-98490500D01*
X138829000Y-98452500D01*
X138847000Y-98414500D01*
X138867000Y-98377500D01*
X138889000Y-98341500D01*
X138913000Y-98307500D01*
X138938000Y-98274500D01*
X138965000Y-98242500D01*
X138994000Y-98211500D01*
X139025000Y-98182500D01*
X139057000Y-98155500D01*
X139090000Y-98130500D01*
X139124000Y-98106500D01*
X139160000Y-98084500D01*
X139197000Y-98064500D01*
X139235000Y-98046500D01*
X139273000Y-98030500D01*
X139313000Y-98016500D01*
X139353000Y-98004500D01*
X139394000Y-97994500D01*
X139435000Y-97987500D01*
X139476000Y-97981500D01*
X139518000Y-97978500D01*
X139560000Y-97977500D01*
X139602000Y-97978500D01*
G36*
X139602000Y-97978500D02*
G01*
X139644000Y-97981500D01*
X139685000Y-97987500D01*
X139726000Y-97994500D01*
X139767000Y-98004500D01*
X139807000Y-98016500D01*
X139847000Y-98030500D01*
X139885000Y-98046500D01*
X139923000Y-98064500D01*
X139960000Y-98084500D01*
X139996000Y-98106500D01*
X140030000Y-98130500D01*
X140063000Y-98155500D01*
X140095000Y-98182500D01*
X140126000Y-98211500D01*
X140155000Y-98242500D01*
X140182000Y-98274500D01*
X140207000Y-98307500D01*
X140231000Y-98341500D01*
X140253000Y-98377500D01*
X140273000Y-98414500D01*
X140291000Y-98452500D01*
X140307000Y-98490500D01*
X140321000Y-98530500D01*
X140333000Y-98570500D01*
X140343000Y-98611500D01*
X140350000Y-98652500D01*
X140356000Y-98693500D01*
X140359000Y-98735500D01*
X140360000Y-98777500D01*
X140360000Y-101177500D01*
X138760000Y-101177500D01*
X138760000Y-98777500D01*
X138761000Y-98735500D01*
X138764000Y-98693500D01*
X138770000Y-98652500D01*
X138777000Y-98611500D01*
X138787000Y-98570500D01*
X138799000Y-98530500D01*
X138813000Y-98490500D01*
X138829000Y-98452500D01*
X138847000Y-98414500D01*
X138867000Y-98377500D01*
X138889000Y-98341500D01*
X138913000Y-98307500D01*
X138938000Y-98274500D01*
X138965000Y-98242500D01*
X138994000Y-98211500D01*
X139025000Y-98182500D01*
X139057000Y-98155500D01*
X139090000Y-98130500D01*
X139124000Y-98106500D01*
X139160000Y-98084500D01*
X139197000Y-98064500D01*
X139235000Y-98046500D01*
X139273000Y-98030500D01*
X139313000Y-98016500D01*
X139353000Y-98004500D01*
X139394000Y-97994500D01*
X139435000Y-97987500D01*
X139476000Y-97981500D01*
X139518000Y-97978500D01*
X139560000Y-97977500D01*
X139602000Y-97978500D01*
G37*
X137062000Y-97978500D02*
X137104000Y-97981500D01*
X137145000Y-97987500D01*
X137186000Y-97994500D01*
X137227000Y-98004500D01*
X137267000Y-98016500D01*
X137307000Y-98030500D01*
X137345000Y-98046500D01*
X137383000Y-98064500D01*
X137420000Y-98084500D01*
X137456000Y-98106500D01*
X137490000Y-98130500D01*
X137523000Y-98155500D01*
X137555000Y-98182500D01*
X137586000Y-98211500D01*
X137615000Y-98242500D01*
X137642000Y-98274500D01*
X137667000Y-98307500D01*
X137691000Y-98341500D01*
X137713000Y-98377500D01*
X137733000Y-98414500D01*
X137751000Y-98452500D01*
X137767000Y-98490500D01*
X137781000Y-98530500D01*
X137793000Y-98570500D01*
X137803000Y-98611500D01*
X137810000Y-98652500D01*
X137816000Y-98693500D01*
X137819000Y-98735500D01*
X137820000Y-98777500D01*
X137820000Y-101177500D01*
X136220000Y-101177500D01*
X136220000Y-98777500D01*
X136221000Y-98735500D01*
X136224000Y-98693500D01*
X136230000Y-98652500D01*
X136237000Y-98611500D01*
X136247000Y-98570500D01*
X136259000Y-98530500D01*
X136273000Y-98490500D01*
X136289000Y-98452500D01*
X136307000Y-98414500D01*
X136327000Y-98377500D01*
X136349000Y-98341500D01*
X136373000Y-98307500D01*
X136398000Y-98274500D01*
X136425000Y-98242500D01*
X136454000Y-98211500D01*
X136485000Y-98182500D01*
X136517000Y-98155500D01*
X136550000Y-98130500D01*
X136584000Y-98106500D01*
X136620000Y-98084500D01*
X136657000Y-98064500D01*
X136695000Y-98046500D01*
X136733000Y-98030500D01*
X136773000Y-98016500D01*
X136813000Y-98004500D01*
X136854000Y-97994500D01*
X136895000Y-97987500D01*
X136936000Y-97981500D01*
X136978000Y-97978500D01*
X137020000Y-97977500D01*
X137062000Y-97978500D01*
G36*
X137062000Y-97978500D02*
G01*
X137104000Y-97981500D01*
X137145000Y-97987500D01*
X137186000Y-97994500D01*
X137227000Y-98004500D01*
X137267000Y-98016500D01*
X137307000Y-98030500D01*
X137345000Y-98046500D01*
X137383000Y-98064500D01*
X137420000Y-98084500D01*
X137456000Y-98106500D01*
X137490000Y-98130500D01*
X137523000Y-98155500D01*
X137555000Y-98182500D01*
X137586000Y-98211500D01*
X137615000Y-98242500D01*
X137642000Y-98274500D01*
X137667000Y-98307500D01*
X137691000Y-98341500D01*
X137713000Y-98377500D01*
X137733000Y-98414500D01*
X137751000Y-98452500D01*
X137767000Y-98490500D01*
X137781000Y-98530500D01*
X137793000Y-98570500D01*
X137803000Y-98611500D01*
X137810000Y-98652500D01*
X137816000Y-98693500D01*
X137819000Y-98735500D01*
X137820000Y-98777500D01*
X137820000Y-101177500D01*
X136220000Y-101177500D01*
X136220000Y-98777500D01*
X136221000Y-98735500D01*
X136224000Y-98693500D01*
X136230000Y-98652500D01*
X136237000Y-98611500D01*
X136247000Y-98570500D01*
X136259000Y-98530500D01*
X136273000Y-98490500D01*
X136289000Y-98452500D01*
X136307000Y-98414500D01*
X136327000Y-98377500D01*
X136349000Y-98341500D01*
X136373000Y-98307500D01*
X136398000Y-98274500D01*
X136425000Y-98242500D01*
X136454000Y-98211500D01*
X136485000Y-98182500D01*
X136517000Y-98155500D01*
X136550000Y-98130500D01*
X136584000Y-98106500D01*
X136620000Y-98084500D01*
X136657000Y-98064500D01*
X136695000Y-98046500D01*
X136733000Y-98030500D01*
X136773000Y-98016500D01*
X136813000Y-98004500D01*
X136854000Y-97994500D01*
X136895000Y-97987500D01*
X136936000Y-97981500D01*
X136978000Y-97978500D01*
X137020000Y-97977500D01*
X137062000Y-97978500D01*
G37*
X134522000Y-97978500D02*
X134564000Y-97981500D01*
X134605000Y-97987500D01*
X134646000Y-97994500D01*
X134687000Y-98004500D01*
X134727000Y-98016500D01*
X134767000Y-98030500D01*
X134805000Y-98046500D01*
X134843000Y-98064500D01*
X134880000Y-98084500D01*
X134916000Y-98106500D01*
X134950000Y-98130500D01*
X134983000Y-98155500D01*
X135015000Y-98182500D01*
X135046000Y-98211500D01*
X135075000Y-98242500D01*
X135102000Y-98274500D01*
X135127000Y-98307500D01*
X135151000Y-98341500D01*
X135173000Y-98377500D01*
X135193000Y-98414500D01*
X135211000Y-98452500D01*
X135227000Y-98490500D01*
X135241000Y-98530500D01*
X135253000Y-98570500D01*
X135263000Y-98611500D01*
X135270000Y-98652500D01*
X135276000Y-98693500D01*
X135279000Y-98735500D01*
X135280000Y-98777500D01*
X135280000Y-101177500D01*
X133680000Y-101177500D01*
X133680000Y-98777500D01*
X133681000Y-98735500D01*
X133684000Y-98693500D01*
X133690000Y-98652500D01*
X133697000Y-98611500D01*
X133707000Y-98570500D01*
X133719000Y-98530500D01*
X133733000Y-98490500D01*
X133749000Y-98452500D01*
X133767000Y-98414500D01*
X133787000Y-98377500D01*
X133809000Y-98341500D01*
X133833000Y-98307500D01*
X133858000Y-98274500D01*
X133885000Y-98242500D01*
X133914000Y-98211500D01*
X133945000Y-98182500D01*
X133977000Y-98155500D01*
X134010000Y-98130500D01*
X134044000Y-98106500D01*
X134080000Y-98084500D01*
X134117000Y-98064500D01*
X134155000Y-98046500D01*
X134193000Y-98030500D01*
X134233000Y-98016500D01*
X134273000Y-98004500D01*
X134314000Y-97994500D01*
X134355000Y-97987500D01*
X134396000Y-97981500D01*
X134438000Y-97978500D01*
X134480000Y-97977500D01*
X134522000Y-97978500D01*
G36*
X134522000Y-97978500D02*
G01*
X134564000Y-97981500D01*
X134605000Y-97987500D01*
X134646000Y-97994500D01*
X134687000Y-98004500D01*
X134727000Y-98016500D01*
X134767000Y-98030500D01*
X134805000Y-98046500D01*
X134843000Y-98064500D01*
X134880000Y-98084500D01*
X134916000Y-98106500D01*
X134950000Y-98130500D01*
X134983000Y-98155500D01*
X135015000Y-98182500D01*
X135046000Y-98211500D01*
X135075000Y-98242500D01*
X135102000Y-98274500D01*
X135127000Y-98307500D01*
X135151000Y-98341500D01*
X135173000Y-98377500D01*
X135193000Y-98414500D01*
X135211000Y-98452500D01*
X135227000Y-98490500D01*
X135241000Y-98530500D01*
X135253000Y-98570500D01*
X135263000Y-98611500D01*
X135270000Y-98652500D01*
X135276000Y-98693500D01*
X135279000Y-98735500D01*
X135280000Y-98777500D01*
X135280000Y-101177500D01*
X133680000Y-101177500D01*
X133680000Y-98777500D01*
X133681000Y-98735500D01*
X133684000Y-98693500D01*
X133690000Y-98652500D01*
X133697000Y-98611500D01*
X133707000Y-98570500D01*
X133719000Y-98530500D01*
X133733000Y-98490500D01*
X133749000Y-98452500D01*
X133767000Y-98414500D01*
X133787000Y-98377500D01*
X133809000Y-98341500D01*
X133833000Y-98307500D01*
X133858000Y-98274500D01*
X133885000Y-98242500D01*
X133914000Y-98211500D01*
X133945000Y-98182500D01*
X133977000Y-98155500D01*
X134010000Y-98130500D01*
X134044000Y-98106500D01*
X134080000Y-98084500D01*
X134117000Y-98064500D01*
X134155000Y-98046500D01*
X134193000Y-98030500D01*
X134233000Y-98016500D01*
X134273000Y-98004500D01*
X134314000Y-97994500D01*
X134355000Y-97987500D01*
X134396000Y-97981500D01*
X134438000Y-97978500D01*
X134480000Y-97977500D01*
X134522000Y-97978500D01*
G37*
X131982000Y-97978500D02*
X132024000Y-97981500D01*
X132065000Y-97987500D01*
X132106000Y-97994500D01*
X132147000Y-98004500D01*
X132187000Y-98016500D01*
X132227000Y-98030500D01*
X132265000Y-98046500D01*
X132303000Y-98064500D01*
X132340000Y-98084500D01*
X132376000Y-98106500D01*
X132410000Y-98130500D01*
X132443000Y-98155500D01*
X132475000Y-98182500D01*
X132506000Y-98211500D01*
X132535000Y-98242500D01*
X132562000Y-98274500D01*
X132587000Y-98307500D01*
X132611000Y-98341500D01*
X132633000Y-98377500D01*
X132653000Y-98414500D01*
X132671000Y-98452500D01*
X132687000Y-98490500D01*
X132701000Y-98530500D01*
X132713000Y-98570500D01*
X132723000Y-98611500D01*
X132730000Y-98652500D01*
X132736000Y-98693500D01*
X132739000Y-98735500D01*
X132740000Y-98777500D01*
X132740000Y-101177500D01*
X131140000Y-101177500D01*
X131140000Y-98777500D01*
X131141000Y-98735500D01*
X131144000Y-98693500D01*
X131150000Y-98652500D01*
X131157000Y-98611500D01*
X131167000Y-98570500D01*
X131179000Y-98530500D01*
X131193000Y-98490500D01*
X131209000Y-98452500D01*
X131227000Y-98414500D01*
X131247000Y-98377500D01*
X131269000Y-98341500D01*
X131293000Y-98307500D01*
X131318000Y-98274500D01*
X131345000Y-98242500D01*
X131374000Y-98211500D01*
X131405000Y-98182500D01*
X131437000Y-98155500D01*
X131470000Y-98130500D01*
X131504000Y-98106500D01*
X131540000Y-98084500D01*
X131577000Y-98064500D01*
X131615000Y-98046500D01*
X131653000Y-98030500D01*
X131693000Y-98016500D01*
X131733000Y-98004500D01*
X131774000Y-97994500D01*
X131815000Y-97987500D01*
X131856000Y-97981500D01*
X131898000Y-97978500D01*
X131940000Y-97977500D01*
X131982000Y-97978500D01*
G36*
X131982000Y-97978500D02*
G01*
X132024000Y-97981500D01*
X132065000Y-97987500D01*
X132106000Y-97994500D01*
X132147000Y-98004500D01*
X132187000Y-98016500D01*
X132227000Y-98030500D01*
X132265000Y-98046500D01*
X132303000Y-98064500D01*
X132340000Y-98084500D01*
X132376000Y-98106500D01*
X132410000Y-98130500D01*
X132443000Y-98155500D01*
X132475000Y-98182500D01*
X132506000Y-98211500D01*
X132535000Y-98242500D01*
X132562000Y-98274500D01*
X132587000Y-98307500D01*
X132611000Y-98341500D01*
X132633000Y-98377500D01*
X132653000Y-98414500D01*
X132671000Y-98452500D01*
X132687000Y-98490500D01*
X132701000Y-98530500D01*
X132713000Y-98570500D01*
X132723000Y-98611500D01*
X132730000Y-98652500D01*
X132736000Y-98693500D01*
X132739000Y-98735500D01*
X132740000Y-98777500D01*
X132740000Y-101177500D01*
X131140000Y-101177500D01*
X131140000Y-98777500D01*
X131141000Y-98735500D01*
X131144000Y-98693500D01*
X131150000Y-98652500D01*
X131157000Y-98611500D01*
X131167000Y-98570500D01*
X131179000Y-98530500D01*
X131193000Y-98490500D01*
X131209000Y-98452500D01*
X131227000Y-98414500D01*
X131247000Y-98377500D01*
X131269000Y-98341500D01*
X131293000Y-98307500D01*
X131318000Y-98274500D01*
X131345000Y-98242500D01*
X131374000Y-98211500D01*
X131405000Y-98182500D01*
X131437000Y-98155500D01*
X131470000Y-98130500D01*
X131504000Y-98106500D01*
X131540000Y-98084500D01*
X131577000Y-98064500D01*
X131615000Y-98046500D01*
X131653000Y-98030500D01*
X131693000Y-98016500D01*
X131733000Y-98004500D01*
X131774000Y-97994500D01*
X131815000Y-97987500D01*
X131856000Y-97981500D01*
X131898000Y-97978500D01*
X131940000Y-97977500D01*
X131982000Y-97978500D01*
G37*
X126902000Y-97978500D02*
X126944000Y-97981500D01*
X126985000Y-97987500D01*
X127026000Y-97994500D01*
X127067000Y-98004500D01*
X127107000Y-98016500D01*
X127147000Y-98030500D01*
X127185000Y-98046500D01*
X127223000Y-98064500D01*
X127260000Y-98084500D01*
X127296000Y-98106500D01*
X127330000Y-98130500D01*
X127363000Y-98155500D01*
X127395000Y-98182500D01*
X127426000Y-98211500D01*
X127455000Y-98242500D01*
X127482000Y-98274500D01*
X127507000Y-98307500D01*
X127531000Y-98341500D01*
X127553000Y-98377500D01*
X127573000Y-98414500D01*
X127591000Y-98452500D01*
X127607000Y-98490500D01*
X127621000Y-98530500D01*
X127633000Y-98570500D01*
X127643000Y-98611500D01*
X127650000Y-98652500D01*
X127656000Y-98693500D01*
X127659000Y-98735500D01*
X127660000Y-98777500D01*
X127660000Y-101177500D01*
X126060000Y-101177500D01*
X126060000Y-98777500D01*
X126061000Y-98735500D01*
X126064000Y-98693500D01*
X126070000Y-98652500D01*
X126077000Y-98611500D01*
X126087000Y-98570500D01*
X126099000Y-98530500D01*
X126113000Y-98490500D01*
X126129000Y-98452500D01*
X126147000Y-98414500D01*
X126167000Y-98377500D01*
X126189000Y-98341500D01*
X126213000Y-98307500D01*
X126238000Y-98274500D01*
X126265000Y-98242500D01*
X126294000Y-98211500D01*
X126325000Y-98182500D01*
X126357000Y-98155500D01*
X126390000Y-98130500D01*
X126424000Y-98106500D01*
X126460000Y-98084500D01*
X126497000Y-98064500D01*
X126535000Y-98046500D01*
X126573000Y-98030500D01*
X126613000Y-98016500D01*
X126653000Y-98004500D01*
X126694000Y-97994500D01*
X126735000Y-97987500D01*
X126776000Y-97981500D01*
X126818000Y-97978500D01*
X126860000Y-97977500D01*
X126902000Y-97978500D01*
G36*
X126902000Y-97978500D02*
G01*
X126944000Y-97981500D01*
X126985000Y-97987500D01*
X127026000Y-97994500D01*
X127067000Y-98004500D01*
X127107000Y-98016500D01*
X127147000Y-98030500D01*
X127185000Y-98046500D01*
X127223000Y-98064500D01*
X127260000Y-98084500D01*
X127296000Y-98106500D01*
X127330000Y-98130500D01*
X127363000Y-98155500D01*
X127395000Y-98182500D01*
X127426000Y-98211500D01*
X127455000Y-98242500D01*
X127482000Y-98274500D01*
X127507000Y-98307500D01*
X127531000Y-98341500D01*
X127553000Y-98377500D01*
X127573000Y-98414500D01*
X127591000Y-98452500D01*
X127607000Y-98490500D01*
X127621000Y-98530500D01*
X127633000Y-98570500D01*
X127643000Y-98611500D01*
X127650000Y-98652500D01*
X127656000Y-98693500D01*
X127659000Y-98735500D01*
X127660000Y-98777500D01*
X127660000Y-101177500D01*
X126060000Y-101177500D01*
X126060000Y-98777500D01*
X126061000Y-98735500D01*
X126064000Y-98693500D01*
X126070000Y-98652500D01*
X126077000Y-98611500D01*
X126087000Y-98570500D01*
X126099000Y-98530500D01*
X126113000Y-98490500D01*
X126129000Y-98452500D01*
X126147000Y-98414500D01*
X126167000Y-98377500D01*
X126189000Y-98341500D01*
X126213000Y-98307500D01*
X126238000Y-98274500D01*
X126265000Y-98242500D01*
X126294000Y-98211500D01*
X126325000Y-98182500D01*
X126357000Y-98155500D01*
X126390000Y-98130500D01*
X126424000Y-98106500D01*
X126460000Y-98084500D01*
X126497000Y-98064500D01*
X126535000Y-98046500D01*
X126573000Y-98030500D01*
X126613000Y-98016500D01*
X126653000Y-98004500D01*
X126694000Y-97994500D01*
X126735000Y-97987500D01*
X126776000Y-97981500D01*
X126818000Y-97978500D01*
X126860000Y-97977500D01*
X126902000Y-97978500D01*
G37*
X124362000Y-97978500D02*
X124404000Y-97981500D01*
X124445000Y-97987500D01*
X124486000Y-97994500D01*
X124527000Y-98004500D01*
X124567000Y-98016500D01*
X124607000Y-98030500D01*
X124645000Y-98046500D01*
X124683000Y-98064500D01*
X124720000Y-98084500D01*
X124756000Y-98106500D01*
X124790000Y-98130500D01*
X124823000Y-98155500D01*
X124855000Y-98182500D01*
X124886000Y-98211500D01*
X124915000Y-98242500D01*
X124942000Y-98274500D01*
X124967000Y-98307500D01*
X124991000Y-98341500D01*
X125013000Y-98377500D01*
X125033000Y-98414500D01*
X125051000Y-98452500D01*
X125067000Y-98490500D01*
X125081000Y-98530500D01*
X125093000Y-98570500D01*
X125103000Y-98611500D01*
X125110000Y-98652500D01*
X125116000Y-98693500D01*
X125119000Y-98735500D01*
X125120000Y-98777500D01*
X125120000Y-101177500D01*
X123520000Y-101177500D01*
X123520000Y-98777500D01*
X123521000Y-98735500D01*
X123524000Y-98693500D01*
X123530000Y-98652500D01*
X123537000Y-98611500D01*
X123547000Y-98570500D01*
X123559000Y-98530500D01*
X123573000Y-98490500D01*
X123589000Y-98452500D01*
X123607000Y-98414500D01*
X123627000Y-98377500D01*
X123649000Y-98341500D01*
X123673000Y-98307500D01*
X123698000Y-98274500D01*
X123725000Y-98242500D01*
X123754000Y-98211500D01*
X123785000Y-98182500D01*
X123817000Y-98155500D01*
X123850000Y-98130500D01*
X123884000Y-98106500D01*
X123920000Y-98084500D01*
X123957000Y-98064500D01*
X123995000Y-98046500D01*
X124033000Y-98030500D01*
X124073000Y-98016500D01*
X124113000Y-98004500D01*
X124154000Y-97994500D01*
X124195000Y-97987500D01*
X124236000Y-97981500D01*
X124278000Y-97978500D01*
X124320000Y-97977500D01*
X124362000Y-97978500D01*
G36*
X124362000Y-97978500D02*
G01*
X124404000Y-97981500D01*
X124445000Y-97987500D01*
X124486000Y-97994500D01*
X124527000Y-98004500D01*
X124567000Y-98016500D01*
X124607000Y-98030500D01*
X124645000Y-98046500D01*
X124683000Y-98064500D01*
X124720000Y-98084500D01*
X124756000Y-98106500D01*
X124790000Y-98130500D01*
X124823000Y-98155500D01*
X124855000Y-98182500D01*
X124886000Y-98211500D01*
X124915000Y-98242500D01*
X124942000Y-98274500D01*
X124967000Y-98307500D01*
X124991000Y-98341500D01*
X125013000Y-98377500D01*
X125033000Y-98414500D01*
X125051000Y-98452500D01*
X125067000Y-98490500D01*
X125081000Y-98530500D01*
X125093000Y-98570500D01*
X125103000Y-98611500D01*
X125110000Y-98652500D01*
X125116000Y-98693500D01*
X125119000Y-98735500D01*
X125120000Y-98777500D01*
X125120000Y-101177500D01*
X123520000Y-101177500D01*
X123520000Y-98777500D01*
X123521000Y-98735500D01*
X123524000Y-98693500D01*
X123530000Y-98652500D01*
X123537000Y-98611500D01*
X123547000Y-98570500D01*
X123559000Y-98530500D01*
X123573000Y-98490500D01*
X123589000Y-98452500D01*
X123607000Y-98414500D01*
X123627000Y-98377500D01*
X123649000Y-98341500D01*
X123673000Y-98307500D01*
X123698000Y-98274500D01*
X123725000Y-98242500D01*
X123754000Y-98211500D01*
X123785000Y-98182500D01*
X123817000Y-98155500D01*
X123850000Y-98130500D01*
X123884000Y-98106500D01*
X123920000Y-98084500D01*
X123957000Y-98064500D01*
X123995000Y-98046500D01*
X124033000Y-98030500D01*
X124073000Y-98016500D01*
X124113000Y-98004500D01*
X124154000Y-97994500D01*
X124195000Y-97987500D01*
X124236000Y-97981500D01*
X124278000Y-97978500D01*
X124320000Y-97977500D01*
X124362000Y-97978500D01*
G37*
X168300000Y-81597500D02*
X168300000Y-81607500D01*
X168299000Y-81618500D01*
X168298000Y-81628500D01*
X168296000Y-81639500D01*
X168293000Y-81649500D01*
X168290000Y-81659500D01*
X168287000Y-81669500D01*
X168283000Y-81678500D01*
X168278000Y-81688500D01*
X168273000Y-81697500D01*
X168268000Y-81706500D01*
X168262000Y-81715500D01*
X168255000Y-81723500D01*
X168249000Y-81731500D01*
X168241000Y-81738500D01*
X168234000Y-81746500D01*
X168226000Y-81752500D01*
X168218000Y-81759500D01*
X168209000Y-81765500D01*
X168200000Y-81770500D01*
X168191000Y-81775500D01*
X168181000Y-81780500D01*
X168172000Y-81784500D01*
X168162000Y-81787500D01*
X168152000Y-81790500D01*
X168142000Y-81793500D01*
X168131000Y-81795500D01*
X168121000Y-81796500D01*
X168110000Y-81797500D01*
X168100000Y-81797500D01*
X166900000Y-81797500D01*
X166890000Y-81797500D01*
X166879000Y-81796500D01*
X166869000Y-81795500D01*
X166858000Y-81793500D01*
X166848000Y-81790500D01*
X166838000Y-81787500D01*
X166828000Y-81784500D01*
X166819000Y-81780500D01*
X166809000Y-81775500D01*
X166800000Y-81770500D01*
X166791000Y-81765500D01*
X166782000Y-81759500D01*
X166774000Y-81752500D01*
X166766000Y-81746500D01*
X166759000Y-81738500D01*
X166751000Y-81731500D01*
X166745000Y-81723500D01*
X166738000Y-81715500D01*
X166732000Y-81706500D01*
X166727000Y-81697500D01*
X166722000Y-81688500D01*
X166717000Y-81678500D01*
X166713000Y-81669500D01*
X166710000Y-81659500D01*
X166707000Y-81649500D01*
X166704000Y-81639500D01*
X166702000Y-81628500D01*
X166701000Y-81618500D01*
X166700000Y-81607500D01*
X166700000Y-81597500D01*
X166700000Y-78597500D01*
X168300000Y-78597500D01*
X168300000Y-81597500D01*
G36*
X168300000Y-81597500D02*
G01*
X168300000Y-81607500D01*
X168299000Y-81618500D01*
X168298000Y-81628500D01*
X168296000Y-81639500D01*
X168293000Y-81649500D01*
X168290000Y-81659500D01*
X168287000Y-81669500D01*
X168283000Y-81678500D01*
X168278000Y-81688500D01*
X168273000Y-81697500D01*
X168268000Y-81706500D01*
X168262000Y-81715500D01*
X168255000Y-81723500D01*
X168249000Y-81731500D01*
X168241000Y-81738500D01*
X168234000Y-81746500D01*
X168226000Y-81752500D01*
X168218000Y-81759500D01*
X168209000Y-81765500D01*
X168200000Y-81770500D01*
X168191000Y-81775500D01*
X168181000Y-81780500D01*
X168172000Y-81784500D01*
X168162000Y-81787500D01*
X168152000Y-81790500D01*
X168142000Y-81793500D01*
X168131000Y-81795500D01*
X168121000Y-81796500D01*
X168110000Y-81797500D01*
X168100000Y-81797500D01*
X166900000Y-81797500D01*
X166890000Y-81797500D01*
X166879000Y-81796500D01*
X166869000Y-81795500D01*
X166858000Y-81793500D01*
X166848000Y-81790500D01*
X166838000Y-81787500D01*
X166828000Y-81784500D01*
X166819000Y-81780500D01*
X166809000Y-81775500D01*
X166800000Y-81770500D01*
X166791000Y-81765500D01*
X166782000Y-81759500D01*
X166774000Y-81752500D01*
X166766000Y-81746500D01*
X166759000Y-81738500D01*
X166751000Y-81731500D01*
X166745000Y-81723500D01*
X166738000Y-81715500D01*
X166732000Y-81706500D01*
X166727000Y-81697500D01*
X166722000Y-81688500D01*
X166717000Y-81678500D01*
X166713000Y-81669500D01*
X166710000Y-81659500D01*
X166707000Y-81649500D01*
X166704000Y-81639500D01*
X166702000Y-81628500D01*
X166701000Y-81618500D01*
X166700000Y-81607500D01*
X166700000Y-81597500D01*
X166700000Y-78597500D01*
X168300000Y-78597500D01*
X168300000Y-81597500D01*
G37*
X155600000Y-81597500D02*
X155600000Y-81607500D01*
X155599000Y-81618500D01*
X155598000Y-81628500D01*
X155596000Y-81639500D01*
X155593000Y-81649500D01*
X155590000Y-81659500D01*
X155587000Y-81669500D01*
X155583000Y-81678500D01*
X155578000Y-81688500D01*
X155573000Y-81697500D01*
X155568000Y-81706500D01*
X155562000Y-81715500D01*
X155555000Y-81723500D01*
X155549000Y-81731500D01*
X155541000Y-81738500D01*
X155534000Y-81746500D01*
X155526000Y-81752500D01*
X155518000Y-81759500D01*
X155509000Y-81765500D01*
X155500000Y-81770500D01*
X155491000Y-81775500D01*
X155481000Y-81780500D01*
X155472000Y-81784500D01*
X155462000Y-81787500D01*
X155452000Y-81790500D01*
X155442000Y-81793500D01*
X155431000Y-81795500D01*
X155421000Y-81796500D01*
X155410000Y-81797500D01*
X155400000Y-81797500D01*
X154200000Y-81797500D01*
X154190000Y-81797500D01*
X154179000Y-81796500D01*
X154169000Y-81795500D01*
X154158000Y-81793500D01*
X154148000Y-81790500D01*
X154138000Y-81787500D01*
X154128000Y-81784500D01*
X154119000Y-81780500D01*
X154109000Y-81775500D01*
X154100000Y-81770500D01*
X154091000Y-81765500D01*
X154082000Y-81759500D01*
X154074000Y-81752500D01*
X154066000Y-81746500D01*
X154059000Y-81738500D01*
X154051000Y-81731500D01*
X154045000Y-81723500D01*
X154038000Y-81715500D01*
X154032000Y-81706500D01*
X154027000Y-81697500D01*
X154022000Y-81688500D01*
X154017000Y-81678500D01*
X154013000Y-81669500D01*
X154010000Y-81659500D01*
X154007000Y-81649500D01*
X154004000Y-81639500D01*
X154002000Y-81628500D01*
X154001000Y-81618500D01*
X154000000Y-81607500D01*
X154000000Y-81597500D01*
X154000000Y-78597500D01*
X155600000Y-78597500D01*
X155600000Y-81597500D01*
G36*
X155600000Y-81597500D02*
G01*
X155600000Y-81607500D01*
X155599000Y-81618500D01*
X155598000Y-81628500D01*
X155596000Y-81639500D01*
X155593000Y-81649500D01*
X155590000Y-81659500D01*
X155587000Y-81669500D01*
X155583000Y-81678500D01*
X155578000Y-81688500D01*
X155573000Y-81697500D01*
X155568000Y-81706500D01*
X155562000Y-81715500D01*
X155555000Y-81723500D01*
X155549000Y-81731500D01*
X155541000Y-81738500D01*
X155534000Y-81746500D01*
X155526000Y-81752500D01*
X155518000Y-81759500D01*
X155509000Y-81765500D01*
X155500000Y-81770500D01*
X155491000Y-81775500D01*
X155481000Y-81780500D01*
X155472000Y-81784500D01*
X155462000Y-81787500D01*
X155452000Y-81790500D01*
X155442000Y-81793500D01*
X155431000Y-81795500D01*
X155421000Y-81796500D01*
X155410000Y-81797500D01*
X155400000Y-81797500D01*
X154200000Y-81797500D01*
X154190000Y-81797500D01*
X154179000Y-81796500D01*
X154169000Y-81795500D01*
X154158000Y-81793500D01*
X154148000Y-81790500D01*
X154138000Y-81787500D01*
X154128000Y-81784500D01*
X154119000Y-81780500D01*
X154109000Y-81775500D01*
X154100000Y-81770500D01*
X154091000Y-81765500D01*
X154082000Y-81759500D01*
X154074000Y-81752500D01*
X154066000Y-81746500D01*
X154059000Y-81738500D01*
X154051000Y-81731500D01*
X154045000Y-81723500D01*
X154038000Y-81715500D01*
X154032000Y-81706500D01*
X154027000Y-81697500D01*
X154022000Y-81688500D01*
X154017000Y-81678500D01*
X154013000Y-81669500D01*
X154010000Y-81659500D01*
X154007000Y-81649500D01*
X154004000Y-81639500D01*
X154002000Y-81628500D01*
X154001000Y-81618500D01*
X154000000Y-81607500D01*
X154000000Y-81597500D01*
X154000000Y-78597500D01*
X155600000Y-78597500D01*
X155600000Y-81597500D01*
G37*
X142900000Y-81597500D02*
X142900000Y-81607500D01*
X142899000Y-81618500D01*
X142898000Y-81628500D01*
X142896000Y-81639500D01*
X142893000Y-81649500D01*
X142890000Y-81659500D01*
X142887000Y-81669500D01*
X142883000Y-81678500D01*
X142878000Y-81688500D01*
X142873000Y-81697500D01*
X142868000Y-81706500D01*
X142862000Y-81715500D01*
X142855000Y-81723500D01*
X142849000Y-81731500D01*
X142841000Y-81738500D01*
X142834000Y-81746500D01*
X142826000Y-81752500D01*
X142818000Y-81759500D01*
X142809000Y-81765500D01*
X142800000Y-81770500D01*
X142791000Y-81775500D01*
X142781000Y-81780500D01*
X142772000Y-81784500D01*
X142762000Y-81787500D01*
X142752000Y-81790500D01*
X142742000Y-81793500D01*
X142731000Y-81795500D01*
X142721000Y-81796500D01*
X142710000Y-81797500D01*
X142700000Y-81797500D01*
X141500000Y-81797500D01*
X141490000Y-81797500D01*
X141479000Y-81796500D01*
X141469000Y-81795500D01*
X141458000Y-81793500D01*
X141448000Y-81790500D01*
X141438000Y-81787500D01*
X141428000Y-81784500D01*
X141419000Y-81780500D01*
X141409000Y-81775500D01*
X141400000Y-81770500D01*
X141391000Y-81765500D01*
X141382000Y-81759500D01*
X141374000Y-81752500D01*
X141366000Y-81746500D01*
X141359000Y-81738500D01*
X141351000Y-81731500D01*
X141345000Y-81723500D01*
X141338000Y-81715500D01*
X141332000Y-81706500D01*
X141327000Y-81697500D01*
X141322000Y-81688500D01*
X141317000Y-81678500D01*
X141313000Y-81669500D01*
X141310000Y-81659500D01*
X141307000Y-81649500D01*
X141304000Y-81639500D01*
X141302000Y-81628500D01*
X141301000Y-81618500D01*
X141300000Y-81607500D01*
X141300000Y-81597500D01*
X141300000Y-78597500D01*
X142900000Y-78597500D01*
X142900000Y-81597500D01*
G36*
X142900000Y-81597500D02*
G01*
X142900000Y-81607500D01*
X142899000Y-81618500D01*
X142898000Y-81628500D01*
X142896000Y-81639500D01*
X142893000Y-81649500D01*
X142890000Y-81659500D01*
X142887000Y-81669500D01*
X142883000Y-81678500D01*
X142878000Y-81688500D01*
X142873000Y-81697500D01*
X142868000Y-81706500D01*
X142862000Y-81715500D01*
X142855000Y-81723500D01*
X142849000Y-81731500D01*
X142841000Y-81738500D01*
X142834000Y-81746500D01*
X142826000Y-81752500D01*
X142818000Y-81759500D01*
X142809000Y-81765500D01*
X142800000Y-81770500D01*
X142791000Y-81775500D01*
X142781000Y-81780500D01*
X142772000Y-81784500D01*
X142762000Y-81787500D01*
X142752000Y-81790500D01*
X142742000Y-81793500D01*
X142731000Y-81795500D01*
X142721000Y-81796500D01*
X142710000Y-81797500D01*
X142700000Y-81797500D01*
X141500000Y-81797500D01*
X141490000Y-81797500D01*
X141479000Y-81796500D01*
X141469000Y-81795500D01*
X141458000Y-81793500D01*
X141448000Y-81790500D01*
X141438000Y-81787500D01*
X141428000Y-81784500D01*
X141419000Y-81780500D01*
X141409000Y-81775500D01*
X141400000Y-81770500D01*
X141391000Y-81765500D01*
X141382000Y-81759500D01*
X141374000Y-81752500D01*
X141366000Y-81746500D01*
X141359000Y-81738500D01*
X141351000Y-81731500D01*
X141345000Y-81723500D01*
X141338000Y-81715500D01*
X141332000Y-81706500D01*
X141327000Y-81697500D01*
X141322000Y-81688500D01*
X141317000Y-81678500D01*
X141313000Y-81669500D01*
X141310000Y-81659500D01*
X141307000Y-81649500D01*
X141304000Y-81639500D01*
X141302000Y-81628500D01*
X141301000Y-81618500D01*
X141300000Y-81607500D01*
X141300000Y-81597500D01*
X141300000Y-78597500D01*
X142900000Y-78597500D01*
X142900000Y-81597500D01*
G37*
X130200000Y-81597500D02*
X130200000Y-81607500D01*
X130199000Y-81618500D01*
X130198000Y-81628500D01*
X130196000Y-81639500D01*
X130193000Y-81649500D01*
X130190000Y-81659500D01*
X130187000Y-81669500D01*
X130183000Y-81678500D01*
X130178000Y-81688500D01*
X130173000Y-81697500D01*
X130168000Y-81706500D01*
X130162000Y-81715500D01*
X130155000Y-81723500D01*
X130149000Y-81731500D01*
X130141000Y-81738500D01*
X130134000Y-81746500D01*
X130126000Y-81752500D01*
X130118000Y-81759500D01*
X130109000Y-81765500D01*
X130100000Y-81770500D01*
X130091000Y-81775500D01*
X130081000Y-81780500D01*
X130072000Y-81784500D01*
X130062000Y-81787500D01*
X130052000Y-81790500D01*
X130042000Y-81793500D01*
X130031000Y-81795500D01*
X130021000Y-81796500D01*
X130010000Y-81797500D01*
X130000000Y-81797500D01*
X128800000Y-81797500D01*
X128790000Y-81797500D01*
X128779000Y-81796500D01*
X128769000Y-81795500D01*
X128758000Y-81793500D01*
X128748000Y-81790500D01*
X128738000Y-81787500D01*
X128728000Y-81784500D01*
X128719000Y-81780500D01*
X128709000Y-81775500D01*
X128700000Y-81770500D01*
X128691000Y-81765500D01*
X128682000Y-81759500D01*
X128674000Y-81752500D01*
X128666000Y-81746500D01*
X128659000Y-81738500D01*
X128651000Y-81731500D01*
X128645000Y-81723500D01*
X128638000Y-81715500D01*
X128632000Y-81706500D01*
X128627000Y-81697500D01*
X128622000Y-81688500D01*
X128617000Y-81678500D01*
X128613000Y-81669500D01*
X128610000Y-81659500D01*
X128607000Y-81649500D01*
X128604000Y-81639500D01*
X128602000Y-81628500D01*
X128601000Y-81618500D01*
X128600000Y-81607500D01*
X128600000Y-81597500D01*
X128600000Y-78597500D01*
X130200000Y-78597500D01*
X130200000Y-81597500D01*
G36*
X130200000Y-81597500D02*
G01*
X130200000Y-81607500D01*
X130199000Y-81618500D01*
X130198000Y-81628500D01*
X130196000Y-81639500D01*
X130193000Y-81649500D01*
X130190000Y-81659500D01*
X130187000Y-81669500D01*
X130183000Y-81678500D01*
X130178000Y-81688500D01*
X130173000Y-81697500D01*
X130168000Y-81706500D01*
X130162000Y-81715500D01*
X130155000Y-81723500D01*
X130149000Y-81731500D01*
X130141000Y-81738500D01*
X130134000Y-81746500D01*
X130126000Y-81752500D01*
X130118000Y-81759500D01*
X130109000Y-81765500D01*
X130100000Y-81770500D01*
X130091000Y-81775500D01*
X130081000Y-81780500D01*
X130072000Y-81784500D01*
X130062000Y-81787500D01*
X130052000Y-81790500D01*
X130042000Y-81793500D01*
X130031000Y-81795500D01*
X130021000Y-81796500D01*
X130010000Y-81797500D01*
X130000000Y-81797500D01*
X128800000Y-81797500D01*
X128790000Y-81797500D01*
X128779000Y-81796500D01*
X128769000Y-81795500D01*
X128758000Y-81793500D01*
X128748000Y-81790500D01*
X128738000Y-81787500D01*
X128728000Y-81784500D01*
X128719000Y-81780500D01*
X128709000Y-81775500D01*
X128700000Y-81770500D01*
X128691000Y-81765500D01*
X128682000Y-81759500D01*
X128674000Y-81752500D01*
X128666000Y-81746500D01*
X128659000Y-81738500D01*
X128651000Y-81731500D01*
X128645000Y-81723500D01*
X128638000Y-81715500D01*
X128632000Y-81706500D01*
X128627000Y-81697500D01*
X128622000Y-81688500D01*
X128617000Y-81678500D01*
X128613000Y-81669500D01*
X128610000Y-81659500D01*
X128607000Y-81649500D01*
X128604000Y-81639500D01*
X128602000Y-81628500D01*
X128601000Y-81618500D01*
X128600000Y-81607500D01*
X128600000Y-81597500D01*
X128600000Y-78597500D01*
X130200000Y-78597500D01*
X130200000Y-81597500D01*
G37*
X125171000Y-89088500D02*
X125181000Y-89089500D01*
X125192000Y-89091500D01*
X125202000Y-89094500D01*
X125212000Y-89097500D01*
X125222000Y-89100500D01*
X125231000Y-89104500D01*
X125241000Y-89109500D01*
X125250000Y-89114500D01*
X125259000Y-89119500D01*
X125268000Y-89125500D01*
X125276000Y-89132500D01*
X125284000Y-89138500D01*
X125291000Y-89146500D01*
X125299000Y-89153500D01*
X125305000Y-89161500D01*
X125312000Y-89169500D01*
X125318000Y-89178500D01*
X125323000Y-89187500D01*
X125328000Y-89196500D01*
X125333000Y-89206500D01*
X125337000Y-89215500D01*
X125340000Y-89225500D01*
X125343000Y-89235500D01*
X125346000Y-89245500D01*
X125348000Y-89256500D01*
X125349000Y-89266500D01*
X125350000Y-89277500D01*
X125350000Y-89287500D01*
X125350000Y-90487500D01*
X125350000Y-90497500D01*
X125349000Y-90508500D01*
X125348000Y-90518500D01*
X125346000Y-90529500D01*
X125343000Y-90539500D01*
X125340000Y-90549500D01*
X125337000Y-90559500D01*
X125333000Y-90568500D01*
X125328000Y-90578500D01*
X125323000Y-90587500D01*
X125318000Y-90596500D01*
X125312000Y-90605500D01*
X125305000Y-90613500D01*
X125299000Y-90621500D01*
X125291000Y-90628500D01*
X125284000Y-90636500D01*
X125276000Y-90642500D01*
X125268000Y-90649500D01*
X125259000Y-90655500D01*
X125250000Y-90660500D01*
X125241000Y-90665500D01*
X125231000Y-90670500D01*
X125222000Y-90674500D01*
X125212000Y-90677500D01*
X125202000Y-90680500D01*
X125192000Y-90683500D01*
X125181000Y-90685500D01*
X125171000Y-90686500D01*
X125160000Y-90687500D01*
X125150000Y-90687500D01*
X122150000Y-90687500D01*
X122150000Y-89087500D01*
X125150000Y-89087500D01*
X125160000Y-89087500D01*
X125171000Y-89088500D01*
G36*
X125171000Y-89088500D02*
G01*
X125181000Y-89089500D01*
X125192000Y-89091500D01*
X125202000Y-89094500D01*
X125212000Y-89097500D01*
X125222000Y-89100500D01*
X125231000Y-89104500D01*
X125241000Y-89109500D01*
X125250000Y-89114500D01*
X125259000Y-89119500D01*
X125268000Y-89125500D01*
X125276000Y-89132500D01*
X125284000Y-89138500D01*
X125291000Y-89146500D01*
X125299000Y-89153500D01*
X125305000Y-89161500D01*
X125312000Y-89169500D01*
X125318000Y-89178500D01*
X125323000Y-89187500D01*
X125328000Y-89196500D01*
X125333000Y-89206500D01*
X125337000Y-89215500D01*
X125340000Y-89225500D01*
X125343000Y-89235500D01*
X125346000Y-89245500D01*
X125348000Y-89256500D01*
X125349000Y-89266500D01*
X125350000Y-89277500D01*
X125350000Y-89287500D01*
X125350000Y-90487500D01*
X125350000Y-90497500D01*
X125349000Y-90508500D01*
X125348000Y-90518500D01*
X125346000Y-90529500D01*
X125343000Y-90539500D01*
X125340000Y-90549500D01*
X125337000Y-90559500D01*
X125333000Y-90568500D01*
X125328000Y-90578500D01*
X125323000Y-90587500D01*
X125318000Y-90596500D01*
X125312000Y-90605500D01*
X125305000Y-90613500D01*
X125299000Y-90621500D01*
X125291000Y-90628500D01*
X125284000Y-90636500D01*
X125276000Y-90642500D01*
X125268000Y-90649500D01*
X125259000Y-90655500D01*
X125250000Y-90660500D01*
X125241000Y-90665500D01*
X125231000Y-90670500D01*
X125222000Y-90674500D01*
X125212000Y-90677500D01*
X125202000Y-90680500D01*
X125192000Y-90683500D01*
X125181000Y-90685500D01*
X125171000Y-90686500D01*
X125160000Y-90687500D01*
X125150000Y-90687500D01*
X122150000Y-90687500D01*
X122150000Y-89087500D01*
X125150000Y-89087500D01*
X125160000Y-89087500D01*
X125171000Y-89088500D01*
G37*
X168121000Y-97978500D02*
X168131000Y-97979500D01*
X168142000Y-97981500D01*
X168152000Y-97984500D01*
X168162000Y-97987500D01*
X168172000Y-97990500D01*
X168181000Y-97994500D01*
X168191000Y-97999500D01*
X168200000Y-98004500D01*
X168209000Y-98009500D01*
X168218000Y-98015500D01*
X168226000Y-98022500D01*
X168234000Y-98028500D01*
X168241000Y-98036500D01*
X168249000Y-98043500D01*
X168255000Y-98051500D01*
X168262000Y-98059500D01*
X168268000Y-98068500D01*
X168273000Y-98077500D01*
X168278000Y-98086500D01*
X168283000Y-98096500D01*
X168287000Y-98105500D01*
X168290000Y-98115500D01*
X168293000Y-98125500D01*
X168296000Y-98135500D01*
X168298000Y-98146500D01*
X168299000Y-98156500D01*
X168300000Y-98167500D01*
X168300000Y-98177500D01*
X168300000Y-101177500D01*
X166700000Y-101177500D01*
X166700000Y-98177500D01*
X166700000Y-98167500D01*
X166701000Y-98156500D01*
X166702000Y-98146500D01*
X166704000Y-98135500D01*
X166707000Y-98125500D01*
X166710000Y-98115500D01*
X166713000Y-98105500D01*
X166717000Y-98096500D01*
X166722000Y-98086500D01*
X166727000Y-98077500D01*
X166732000Y-98068500D01*
X166738000Y-98059500D01*
X166745000Y-98051500D01*
X166751000Y-98043500D01*
X166759000Y-98036500D01*
X166766000Y-98028500D01*
X166774000Y-98022500D01*
X166782000Y-98015500D01*
X166791000Y-98009500D01*
X166800000Y-98004500D01*
X166809000Y-97999500D01*
X166819000Y-97994500D01*
X166828000Y-97990500D01*
X166838000Y-97987500D01*
X166848000Y-97984500D01*
X166858000Y-97981500D01*
X166869000Y-97979500D01*
X166879000Y-97978500D01*
X166890000Y-97977500D01*
X166900000Y-97977500D01*
X168100000Y-97977500D01*
X168110000Y-97977500D01*
X168121000Y-97978500D01*
G36*
X168121000Y-97978500D02*
G01*
X168131000Y-97979500D01*
X168142000Y-97981500D01*
X168152000Y-97984500D01*
X168162000Y-97987500D01*
X168172000Y-97990500D01*
X168181000Y-97994500D01*
X168191000Y-97999500D01*
X168200000Y-98004500D01*
X168209000Y-98009500D01*
X168218000Y-98015500D01*
X168226000Y-98022500D01*
X168234000Y-98028500D01*
X168241000Y-98036500D01*
X168249000Y-98043500D01*
X168255000Y-98051500D01*
X168262000Y-98059500D01*
X168268000Y-98068500D01*
X168273000Y-98077500D01*
X168278000Y-98086500D01*
X168283000Y-98096500D01*
X168287000Y-98105500D01*
X168290000Y-98115500D01*
X168293000Y-98125500D01*
X168296000Y-98135500D01*
X168298000Y-98146500D01*
X168299000Y-98156500D01*
X168300000Y-98167500D01*
X168300000Y-98177500D01*
X168300000Y-101177500D01*
X166700000Y-101177500D01*
X166700000Y-98177500D01*
X166700000Y-98167500D01*
X166701000Y-98156500D01*
X166702000Y-98146500D01*
X166704000Y-98135500D01*
X166707000Y-98125500D01*
X166710000Y-98115500D01*
X166713000Y-98105500D01*
X166717000Y-98096500D01*
X166722000Y-98086500D01*
X166727000Y-98077500D01*
X166732000Y-98068500D01*
X166738000Y-98059500D01*
X166745000Y-98051500D01*
X166751000Y-98043500D01*
X166759000Y-98036500D01*
X166766000Y-98028500D01*
X166774000Y-98022500D01*
X166782000Y-98015500D01*
X166791000Y-98009500D01*
X166800000Y-98004500D01*
X166809000Y-97999500D01*
X166819000Y-97994500D01*
X166828000Y-97990500D01*
X166838000Y-97987500D01*
X166848000Y-97984500D01*
X166858000Y-97981500D01*
X166869000Y-97979500D01*
X166879000Y-97978500D01*
X166890000Y-97977500D01*
X166900000Y-97977500D01*
X168100000Y-97977500D01*
X168110000Y-97977500D01*
X168121000Y-97978500D01*
G37*
X155421000Y-97978500D02*
X155431000Y-97979500D01*
X155442000Y-97981500D01*
X155452000Y-97984500D01*
X155462000Y-97987500D01*
X155472000Y-97990500D01*
X155481000Y-97994500D01*
X155491000Y-97999500D01*
X155500000Y-98004500D01*
X155509000Y-98009500D01*
X155518000Y-98015500D01*
X155526000Y-98022500D01*
X155534000Y-98028500D01*
X155541000Y-98036500D01*
X155549000Y-98043500D01*
X155555000Y-98051500D01*
X155562000Y-98059500D01*
X155568000Y-98068500D01*
X155573000Y-98077500D01*
X155578000Y-98086500D01*
X155583000Y-98096500D01*
X155587000Y-98105500D01*
X155590000Y-98115500D01*
X155593000Y-98125500D01*
X155596000Y-98135500D01*
X155598000Y-98146500D01*
X155599000Y-98156500D01*
X155600000Y-98167500D01*
X155600000Y-98177500D01*
X155600000Y-101177500D01*
X154000000Y-101177500D01*
X154000000Y-98177500D01*
X154000000Y-98167500D01*
X154001000Y-98156500D01*
X154002000Y-98146500D01*
X154004000Y-98135500D01*
X154007000Y-98125500D01*
X154010000Y-98115500D01*
X154013000Y-98105500D01*
X154017000Y-98096500D01*
X154022000Y-98086500D01*
X154027000Y-98077500D01*
X154032000Y-98068500D01*
X154038000Y-98059500D01*
X154045000Y-98051500D01*
X154051000Y-98043500D01*
X154059000Y-98036500D01*
X154066000Y-98028500D01*
X154074000Y-98022500D01*
X154082000Y-98015500D01*
X154091000Y-98009500D01*
X154100000Y-98004500D01*
X154109000Y-97999500D01*
X154119000Y-97994500D01*
X154128000Y-97990500D01*
X154138000Y-97987500D01*
X154148000Y-97984500D01*
X154158000Y-97981500D01*
X154169000Y-97979500D01*
X154179000Y-97978500D01*
X154190000Y-97977500D01*
X154200000Y-97977500D01*
X155400000Y-97977500D01*
X155410000Y-97977500D01*
X155421000Y-97978500D01*
G36*
X155421000Y-97978500D02*
G01*
X155431000Y-97979500D01*
X155442000Y-97981500D01*
X155452000Y-97984500D01*
X155462000Y-97987500D01*
X155472000Y-97990500D01*
X155481000Y-97994500D01*
X155491000Y-97999500D01*
X155500000Y-98004500D01*
X155509000Y-98009500D01*
X155518000Y-98015500D01*
X155526000Y-98022500D01*
X155534000Y-98028500D01*
X155541000Y-98036500D01*
X155549000Y-98043500D01*
X155555000Y-98051500D01*
X155562000Y-98059500D01*
X155568000Y-98068500D01*
X155573000Y-98077500D01*
X155578000Y-98086500D01*
X155583000Y-98096500D01*
X155587000Y-98105500D01*
X155590000Y-98115500D01*
X155593000Y-98125500D01*
X155596000Y-98135500D01*
X155598000Y-98146500D01*
X155599000Y-98156500D01*
X155600000Y-98167500D01*
X155600000Y-98177500D01*
X155600000Y-101177500D01*
X154000000Y-101177500D01*
X154000000Y-98177500D01*
X154000000Y-98167500D01*
X154001000Y-98156500D01*
X154002000Y-98146500D01*
X154004000Y-98135500D01*
X154007000Y-98125500D01*
X154010000Y-98115500D01*
X154013000Y-98105500D01*
X154017000Y-98096500D01*
X154022000Y-98086500D01*
X154027000Y-98077500D01*
X154032000Y-98068500D01*
X154038000Y-98059500D01*
X154045000Y-98051500D01*
X154051000Y-98043500D01*
X154059000Y-98036500D01*
X154066000Y-98028500D01*
X154074000Y-98022500D01*
X154082000Y-98015500D01*
X154091000Y-98009500D01*
X154100000Y-98004500D01*
X154109000Y-97999500D01*
X154119000Y-97994500D01*
X154128000Y-97990500D01*
X154138000Y-97987500D01*
X154148000Y-97984500D01*
X154158000Y-97981500D01*
X154169000Y-97979500D01*
X154179000Y-97978500D01*
X154190000Y-97977500D01*
X154200000Y-97977500D01*
X155400000Y-97977500D01*
X155410000Y-97977500D01*
X155421000Y-97978500D01*
G37*
X142721000Y-97978500D02*
X142731000Y-97979500D01*
X142742000Y-97981500D01*
X142752000Y-97984500D01*
X142762000Y-97987500D01*
X142772000Y-97990500D01*
X142781000Y-97994500D01*
X142791000Y-97999500D01*
X142800000Y-98004500D01*
X142809000Y-98009500D01*
X142818000Y-98015500D01*
X142826000Y-98022500D01*
X142834000Y-98028500D01*
X142841000Y-98036500D01*
X142849000Y-98043500D01*
X142855000Y-98051500D01*
X142862000Y-98059500D01*
X142868000Y-98068500D01*
X142873000Y-98077500D01*
X142878000Y-98086500D01*
X142883000Y-98096500D01*
X142887000Y-98105500D01*
X142890000Y-98115500D01*
X142893000Y-98125500D01*
X142896000Y-98135500D01*
X142898000Y-98146500D01*
X142899000Y-98156500D01*
X142900000Y-98167500D01*
X142900000Y-98177500D01*
X142900000Y-101177500D01*
X141300000Y-101177500D01*
X141300000Y-98177500D01*
X141300000Y-98167500D01*
X141301000Y-98156500D01*
X141302000Y-98146500D01*
X141304000Y-98135500D01*
X141307000Y-98125500D01*
X141310000Y-98115500D01*
X141313000Y-98105500D01*
X141317000Y-98096500D01*
X141322000Y-98086500D01*
X141327000Y-98077500D01*
X141332000Y-98068500D01*
X141338000Y-98059500D01*
X141345000Y-98051500D01*
X141351000Y-98043500D01*
X141359000Y-98036500D01*
X141366000Y-98028500D01*
X141374000Y-98022500D01*
X141382000Y-98015500D01*
X141391000Y-98009500D01*
X141400000Y-98004500D01*
X141409000Y-97999500D01*
X141419000Y-97994500D01*
X141428000Y-97990500D01*
X141438000Y-97987500D01*
X141448000Y-97984500D01*
X141458000Y-97981500D01*
X141469000Y-97979500D01*
X141479000Y-97978500D01*
X141490000Y-97977500D01*
X141500000Y-97977500D01*
X142700000Y-97977500D01*
X142710000Y-97977500D01*
X142721000Y-97978500D01*
G36*
X142721000Y-97978500D02*
G01*
X142731000Y-97979500D01*
X142742000Y-97981500D01*
X142752000Y-97984500D01*
X142762000Y-97987500D01*
X142772000Y-97990500D01*
X142781000Y-97994500D01*
X142791000Y-97999500D01*
X142800000Y-98004500D01*
X142809000Y-98009500D01*
X142818000Y-98015500D01*
X142826000Y-98022500D01*
X142834000Y-98028500D01*
X142841000Y-98036500D01*
X142849000Y-98043500D01*
X142855000Y-98051500D01*
X142862000Y-98059500D01*
X142868000Y-98068500D01*
X142873000Y-98077500D01*
X142878000Y-98086500D01*
X142883000Y-98096500D01*
X142887000Y-98105500D01*
X142890000Y-98115500D01*
X142893000Y-98125500D01*
X142896000Y-98135500D01*
X142898000Y-98146500D01*
X142899000Y-98156500D01*
X142900000Y-98167500D01*
X142900000Y-98177500D01*
X142900000Y-101177500D01*
X141300000Y-101177500D01*
X141300000Y-98177500D01*
X141300000Y-98167500D01*
X141301000Y-98156500D01*
X141302000Y-98146500D01*
X141304000Y-98135500D01*
X141307000Y-98125500D01*
X141310000Y-98115500D01*
X141313000Y-98105500D01*
X141317000Y-98096500D01*
X141322000Y-98086500D01*
X141327000Y-98077500D01*
X141332000Y-98068500D01*
X141338000Y-98059500D01*
X141345000Y-98051500D01*
X141351000Y-98043500D01*
X141359000Y-98036500D01*
X141366000Y-98028500D01*
X141374000Y-98022500D01*
X141382000Y-98015500D01*
X141391000Y-98009500D01*
X141400000Y-98004500D01*
X141409000Y-97999500D01*
X141419000Y-97994500D01*
X141428000Y-97990500D01*
X141438000Y-97987500D01*
X141448000Y-97984500D01*
X141458000Y-97981500D01*
X141469000Y-97979500D01*
X141479000Y-97978500D01*
X141490000Y-97977500D01*
X141500000Y-97977500D01*
X142700000Y-97977500D01*
X142710000Y-97977500D01*
X142721000Y-97978500D01*
G37*
X130021000Y-97978500D02*
X130031000Y-97979500D01*
X130042000Y-97981500D01*
X130052000Y-97984500D01*
X130062000Y-97987500D01*
X130072000Y-97990500D01*
X130081000Y-97994500D01*
X130091000Y-97999500D01*
X130100000Y-98004500D01*
X130109000Y-98009500D01*
X130118000Y-98015500D01*
X130126000Y-98022500D01*
X130134000Y-98028500D01*
X130141000Y-98036500D01*
X130149000Y-98043500D01*
X130155000Y-98051500D01*
X130162000Y-98059500D01*
X130168000Y-98068500D01*
X130173000Y-98077500D01*
X130178000Y-98086500D01*
X130183000Y-98096500D01*
X130187000Y-98105500D01*
X130190000Y-98115500D01*
X130193000Y-98125500D01*
X130196000Y-98135500D01*
X130198000Y-98146500D01*
X130199000Y-98156500D01*
X130200000Y-98167500D01*
X130200000Y-98177500D01*
X130200000Y-101177500D01*
X128600000Y-101177500D01*
X128600000Y-98177500D01*
X128600000Y-98167500D01*
X128601000Y-98156500D01*
X128602000Y-98146500D01*
X128604000Y-98135500D01*
X128607000Y-98125500D01*
X128610000Y-98115500D01*
X128613000Y-98105500D01*
X128617000Y-98096500D01*
X128622000Y-98086500D01*
X128627000Y-98077500D01*
X128632000Y-98068500D01*
X128638000Y-98059500D01*
X128645000Y-98051500D01*
X128651000Y-98043500D01*
X128659000Y-98036500D01*
X128666000Y-98028500D01*
X128674000Y-98022500D01*
X128682000Y-98015500D01*
X128691000Y-98009500D01*
X128700000Y-98004500D01*
X128709000Y-97999500D01*
X128719000Y-97994500D01*
X128728000Y-97990500D01*
X128738000Y-97987500D01*
X128748000Y-97984500D01*
X128758000Y-97981500D01*
X128769000Y-97979500D01*
X128779000Y-97978500D01*
X128790000Y-97977500D01*
X128800000Y-97977500D01*
X130000000Y-97977500D01*
X130010000Y-97977500D01*
X130021000Y-97978500D01*
G36*
X130021000Y-97978500D02*
G01*
X130031000Y-97979500D01*
X130042000Y-97981500D01*
X130052000Y-97984500D01*
X130062000Y-97987500D01*
X130072000Y-97990500D01*
X130081000Y-97994500D01*
X130091000Y-97999500D01*
X130100000Y-98004500D01*
X130109000Y-98009500D01*
X130118000Y-98015500D01*
X130126000Y-98022500D01*
X130134000Y-98028500D01*
X130141000Y-98036500D01*
X130149000Y-98043500D01*
X130155000Y-98051500D01*
X130162000Y-98059500D01*
X130168000Y-98068500D01*
X130173000Y-98077500D01*
X130178000Y-98086500D01*
X130183000Y-98096500D01*
X130187000Y-98105500D01*
X130190000Y-98115500D01*
X130193000Y-98125500D01*
X130196000Y-98135500D01*
X130198000Y-98146500D01*
X130199000Y-98156500D01*
X130200000Y-98167500D01*
X130200000Y-98177500D01*
X130200000Y-101177500D01*
X128600000Y-101177500D01*
X128600000Y-98177500D01*
X128600000Y-98167500D01*
X128601000Y-98156500D01*
X128602000Y-98146500D01*
X128604000Y-98135500D01*
X128607000Y-98125500D01*
X128610000Y-98115500D01*
X128613000Y-98105500D01*
X128617000Y-98096500D01*
X128622000Y-98086500D01*
X128627000Y-98077500D01*
X128632000Y-98068500D01*
X128638000Y-98059500D01*
X128645000Y-98051500D01*
X128651000Y-98043500D01*
X128659000Y-98036500D01*
X128666000Y-98028500D01*
X128674000Y-98022500D01*
X128682000Y-98015500D01*
X128691000Y-98009500D01*
X128700000Y-98004500D01*
X128709000Y-97999500D01*
X128719000Y-97994500D01*
X128728000Y-97990500D01*
X128738000Y-97987500D01*
X128748000Y-97984500D01*
X128758000Y-97981500D01*
X128769000Y-97979500D01*
X128779000Y-97978500D01*
X128790000Y-97977500D01*
X128800000Y-97977500D01*
X130000000Y-97977500D01*
X130010000Y-97977500D01*
X130021000Y-97978500D01*
G37*
%TD*%
D11*
%TO.C,U10*%
X142050000Y-114200000D03*
X142050000Y-114850000D03*
X142050000Y-115500000D03*
X142050000Y-116150000D03*
X142050000Y-116800000D03*
X142050000Y-117450000D03*
X142050000Y-118100000D03*
X142050000Y-118750000D03*
X142050000Y-119400000D03*
X142050000Y-120050000D03*
X147850000Y-120050000D03*
X147850000Y-119400000D03*
X147850000Y-118750000D03*
X147850000Y-118100000D03*
X147850000Y-117450000D03*
X147850000Y-116800000D03*
X147850000Y-116150000D03*
X147850000Y-115500000D03*
X147850000Y-114850000D03*
X147850000Y-114200000D03*
%TD*%
D12*
%TO.C,Q4*%
X169550000Y-62225000D03*
X171450000Y-62225000D03*
X170500000Y-60350000D03*
%TD*%
D13*
%TO.C,R36*%
X160700000Y-123000000D03*
X160700000Y-121000000D03*
%TD*%
D14*
%TO.C,U3*%
X163550000Y-113607500D03*
X163550000Y-114877500D03*
X163550000Y-116147500D03*
X163550000Y-117417500D03*
X163550000Y-118687500D03*
X163550000Y-119957500D03*
X163550000Y-121227500D03*
X168500000Y-121227500D03*
X168500000Y-119957500D03*
X168500000Y-118687500D03*
X168500000Y-117417500D03*
X168500000Y-116147500D03*
X168500000Y-114877500D03*
X168500000Y-113607500D03*
%TD*%
D15*
%TO.C,F1*%
X155837500Y-141900000D03*
X153962500Y-141900000D03*
%TD*%
D13*
%TO.C,R15*%
X145200000Y-58387500D03*
X145200000Y-56387500D03*
%TD*%
D16*
%TO.C,D5*%
X170100000Y-102562500D03*
X170100000Y-104437500D03*
%TD*%
D12*
%TO.C,Q7*%
X136850000Y-62262500D03*
X138750000Y-62262500D03*
X137800000Y-60387500D03*
%TD*%
%TO.C,Q8*%
X133300000Y-62287500D03*
X135200000Y-62287500D03*
X134250000Y-60412500D03*
%TD*%
D17*
%TO.C,D3*%
X123250000Y-63762500D03*
X123250000Y-61887500D03*
%TD*%
D13*
%TO.C,R24*%
X133300000Y-67687500D03*
X133300000Y-65687500D03*
%TD*%
D12*
%TO.C,Q5*%
X154750000Y-62225000D03*
X156650000Y-62225000D03*
X155700000Y-60350000D03*
%TD*%
D18*
%TO.C,R39*%
X158200000Y-126600000D03*
X160200000Y-126600000D03*
%TD*%
D13*
%TO.C,R17*%
X134800000Y-58387500D03*
X134800000Y-56387500D03*
%TD*%
D19*
%TO.C,U1*%
X172450000Y-87162500D03*
X172450000Y-92612500D03*
D20*
X169420000Y-87462500D03*
X169420000Y-92312500D03*
D21*
X169450000Y-89887500D03*
X172750000Y-90887500D03*
X172750000Y-88887500D03*
X165950000Y-87387500D03*
X163450000Y-87387500D03*
X160950000Y-87387500D03*
%TD*%
D22*
%TO.C,R2*%
X167000000Y-123000000D03*
X167000000Y-125000000D03*
%TD*%
D23*
%TO.C,R38*%
X150800000Y-123100000D03*
X148800000Y-123100000D03*
%TD*%
D24*
%TO.C,C5*%
X139700000Y-116937500D03*
X139700000Y-118837500D03*
%TD*%
D13*
%TO.C,R27*%
X140500000Y-67687500D03*
X140500000Y-65687500D03*
%TD*%
%TO.C,R1*%
X170400000Y-125000000D03*
X170400000Y-123000000D03*
%TD*%
D25*
%TO.C,J1*%
X138300000Y-143400000D03*
X145300000Y-143400000D03*
D26*
X143100000Y-140725000D03*
X142450000Y-140725000D03*
X141800000Y-140725000D03*
X141150000Y-140725000D03*
X140500000Y-140725000D03*
D27*
X141800000Y-143400000D03*
%TD*%
D12*
%TO.C,Q10*%
X151200000Y-62262500D03*
X153100000Y-62262500D03*
X152150000Y-60387500D03*
%TD*%
D13*
%TO.C,R41*%
X157500000Y-118287500D03*
X157500000Y-116287500D03*
%TD*%
%TO.C,R12*%
X162100000Y-67587500D03*
X162100000Y-65587500D03*
%TD*%
%TO.C,R18*%
X148600000Y-58387500D03*
X148600000Y-56387500D03*
%TD*%
%TO.C,R22*%
X144000000Y-67687500D03*
X144000000Y-65687500D03*
%TD*%
D23*
%TO.C,R42*%
X152200000Y-119700000D03*
X150200000Y-119700000D03*
%TD*%
D17*
%TO.C,D2*%
X119250000Y-63825000D03*
X119250000Y-61950000D03*
%TD*%
D13*
%TO.C,R20*%
X141700000Y-58387500D03*
X141700000Y-56387500D03*
%TD*%
D28*
%TO.C,U2*%
X141080000Y-75437500D03*
X142350000Y-75437500D03*
X143620000Y-75437500D03*
X144890000Y-75437500D03*
X146160000Y-75437500D03*
X147430000Y-75437500D03*
X148700000Y-75437500D03*
X149970000Y-75437500D03*
X149970000Y-70487500D03*
X148700000Y-70487500D03*
X147430000Y-70487500D03*
X146160000Y-70487500D03*
X144890000Y-70487500D03*
X143620000Y-70487500D03*
X142350000Y-70487500D03*
X141080000Y-70487500D03*
%TD*%
D12*
%TO.C,Q12*%
X114300000Y-67762500D03*
X116200000Y-67762500D03*
X115250000Y-65887500D03*
%TD*%
%TO.C,Q3*%
X173150000Y-62225000D03*
X175050000Y-62225000D03*
X174100000Y-60350000D03*
%TD*%
%TO.C,Q6*%
X144050000Y-62262500D03*
X145950000Y-62262500D03*
X145000000Y-60387500D03*
%TD*%
%TO.C,Q11*%
X140450000Y-62262500D03*
X142350000Y-62262500D03*
X141400000Y-60387500D03*
%TD*%
D22*
%TO.C,R28*%
X115200000Y-56637500D03*
X115200000Y-58637500D03*
%TD*%
D12*
%TO.C,Q14*%
X118300000Y-67825000D03*
X120200000Y-67825000D03*
X119250000Y-65950000D03*
%TD*%
D13*
%TO.C,R21*%
X154800000Y-67687500D03*
X154800000Y-65687500D03*
%TD*%
%TO.C,R34*%
X122500000Y-73125000D03*
X122500000Y-71125000D03*
%TD*%
D22*
%TO.C,R30*%
X123250000Y-56637500D03*
X123250000Y-58637500D03*
%TD*%
D13*
%TO.C,R10*%
X173200000Y-67587500D03*
X173200000Y-65587500D03*
%TD*%
D12*
%TO.C,Q15*%
X122300000Y-67825000D03*
X124200000Y-67825000D03*
X123250000Y-65950000D03*
%TD*%
%TO.C,Q16*%
X126300000Y-67762500D03*
X128200000Y-67762500D03*
X127250000Y-65887500D03*
%TD*%
D22*
%TO.C,R31*%
X127250000Y-56637500D03*
X127250000Y-58637500D03*
%TD*%
%TO.C,R29*%
X119250000Y-56637500D03*
X119250000Y-58637500D03*
%TD*%
D13*
%TO.C,R33*%
X118600000Y-73125000D03*
X118600000Y-71125000D03*
%TD*%
D12*
%TO.C,Q13*%
X158450000Y-62262500D03*
X160350000Y-62262500D03*
X159400000Y-60387500D03*
%TD*%
D13*
%TO.C,R8*%
X158300000Y-67687500D03*
X158300000Y-65687500D03*
%TD*%
%TO.C,R16*%
X138200000Y-58387500D03*
X138200000Y-56387500D03*
%TD*%
%TO.C,R26*%
X151100000Y-67687500D03*
X151100000Y-65687500D03*
%TD*%
D29*
%TO.C,D6*%
X152000000Y-141887500D03*
X149200000Y-141887500D03*
%TD*%
D13*
%TO.C,R14*%
X155700000Y-58287500D03*
X155700000Y-56287500D03*
%TD*%
%TO.C,R13*%
X159400000Y-58287500D03*
X159400000Y-56287500D03*
%TD*%
%TO.C,R11*%
X165800000Y-67587500D03*
X165800000Y-65587500D03*
%TD*%
D17*
%TO.C,D1*%
X115250000Y-63825000D03*
X115250000Y-61950000D03*
%TD*%
D13*
%TO.C,R19*%
X152000000Y-58387500D03*
X152000000Y-56387500D03*
%TD*%
D30*
%TO.C,C4*%
X161400000Y-117377500D03*
X159500000Y-117377500D03*
%TD*%
D12*
%TO.C,Q2*%
X165850000Y-62262500D03*
X167750000Y-62262500D03*
X166800000Y-60387500D03*
%TD*%
%TO.C,Q1*%
X162150000Y-62262500D03*
X164050000Y-62262500D03*
X163100000Y-60387500D03*
%TD*%
D31*
%TO.C,C6*%
X148000000Y-112612500D03*
X148000000Y-110712500D03*
%TD*%
D12*
%TO.C,Q9*%
X147650000Y-62262500D03*
X149550000Y-62262500D03*
X148600000Y-60387500D03*
%TD*%
D17*
%TO.C,D4*%
X127250000Y-63825000D03*
X127250000Y-61950000D03*
%TD*%
D30*
%TO.C,C1*%
X139450000Y-70700000D03*
X137550000Y-70700000D03*
%TD*%
D13*
%TO.C,R35*%
X126500000Y-73125000D03*
X126500000Y-71125000D03*
%TD*%
%TO.C,R40*%
X139700000Y-115187500D03*
X139700000Y-113187500D03*
%TD*%
%TO.C,R25*%
X147700000Y-67687500D03*
X147700000Y-65687500D03*
%TD*%
D32*
%TO.C,U7*%
X156950000Y-123637500D03*
X157900000Y-123637500D03*
X158850000Y-123637500D03*
X158850000Y-121362500D03*
X156950000Y-121362500D03*
%TD*%
D33*
%TO.C,R3*%
X127075000Y-136600000D03*
X125000000Y-136600000D03*
%TD*%
D13*
%TO.C,R9*%
X169500000Y-67587500D03*
X169500000Y-65587500D03*
%TD*%
%TO.C,R32*%
X114500000Y-73125000D03*
X114500000Y-71125000D03*
%TD*%
%TO.C,R23*%
X136800000Y-67687500D03*
X136800000Y-65687500D03*
%TD*%
D22*
%TO.C,R37*%
X126900000Y-120000000D03*
X126900000Y-122000000D03*
%TD*%
M02*
