%TF.GenerationSoftware,KiCad,Pcbnew,8.0.0-8.0.0-1~ubuntu22.04.1*%
%TF.CreationDate,2024-03-10T23:44:55-06:00*%
%TF.ProjectId,Multimeter,4d756c74-696d-4657-9465-722e6b696361,rev?*%
%TF.SameCoordinates,Original*%
%TF.FileFunction,Legend,Top*%
%TF.FilePolarity,Positive*%
%FSLAX46Y46*%
G04 Gerber Fmt 4.6, Leading zero omitted, Abs format (unit mm)*
G04 Created by KiCad (PCBNEW 8.0.0-8.0.0-1~ubuntu22.04.1) date 2024-03-10 23:44:55*
%MOMM*%
%LPD*%
G01*
G04 APERTURE LIST*
%ADD10C,0.150000*%
%ADD11C,0.120000*%
%ADD12C,0.127000*%
%ADD13C,0.200000*%
G04 APERTURE END LIST*
D10*
X126536779Y-60757319D02*
X126536779Y-60090652D01*
X126536779Y-60185890D02*
X126584398Y-60138271D01*
X126584398Y-60138271D02*
X126679636Y-60090652D01*
X126679636Y-60090652D02*
X126822493Y-60090652D01*
X126822493Y-60090652D02*
X126917731Y-60138271D01*
X126917731Y-60138271D02*
X126965350Y-60233509D01*
X126965350Y-60233509D02*
X126965350Y-60757319D01*
X126965350Y-60233509D02*
X127012969Y-60138271D01*
X127012969Y-60138271D02*
X127108207Y-60090652D01*
X127108207Y-60090652D02*
X127251064Y-60090652D01*
X127251064Y-60090652D02*
X127346303Y-60138271D01*
X127346303Y-60138271D02*
X127393922Y-60233509D01*
X127393922Y-60233509D02*
X127393922Y-60757319D01*
X127870112Y-60757319D02*
X127870112Y-60090652D01*
X127870112Y-59757319D02*
X127822493Y-59804938D01*
X127822493Y-59804938D02*
X127870112Y-59852557D01*
X127870112Y-59852557D02*
X127917731Y-59804938D01*
X127917731Y-59804938D02*
X127870112Y-59757319D01*
X127870112Y-59757319D02*
X127870112Y-59852557D01*
X128774873Y-60709700D02*
X128679635Y-60757319D01*
X128679635Y-60757319D02*
X128489159Y-60757319D01*
X128489159Y-60757319D02*
X128393921Y-60709700D01*
X128393921Y-60709700D02*
X128346302Y-60662080D01*
X128346302Y-60662080D02*
X128298683Y-60566842D01*
X128298683Y-60566842D02*
X128298683Y-60281128D01*
X128298683Y-60281128D02*
X128346302Y-60185890D01*
X128346302Y-60185890D02*
X128393921Y-60138271D01*
X128393921Y-60138271D02*
X128489159Y-60090652D01*
X128489159Y-60090652D02*
X128679635Y-60090652D01*
X128679635Y-60090652D02*
X128774873Y-60138271D01*
X129203445Y-60757319D02*
X129203445Y-60090652D01*
X129203445Y-60281128D02*
X129251064Y-60185890D01*
X129251064Y-60185890D02*
X129298683Y-60138271D01*
X129298683Y-60138271D02*
X129393921Y-60090652D01*
X129393921Y-60090652D02*
X129489159Y-60090652D01*
X129965350Y-60757319D02*
X129870112Y-60709700D01*
X129870112Y-60709700D02*
X129822493Y-60662080D01*
X129822493Y-60662080D02*
X129774874Y-60566842D01*
X129774874Y-60566842D02*
X129774874Y-60281128D01*
X129774874Y-60281128D02*
X129822493Y-60185890D01*
X129822493Y-60185890D02*
X129870112Y-60138271D01*
X129870112Y-60138271D02*
X129965350Y-60090652D01*
X129965350Y-60090652D02*
X130108207Y-60090652D01*
X130108207Y-60090652D02*
X130203445Y-60138271D01*
X130203445Y-60138271D02*
X130251064Y-60185890D01*
X130251064Y-60185890D02*
X130298683Y-60281128D01*
X130298683Y-60281128D02*
X130298683Y-60566842D01*
X130298683Y-60566842D02*
X130251064Y-60662080D01*
X130251064Y-60662080D02*
X130203445Y-60709700D01*
X130203445Y-60709700D02*
X130108207Y-60757319D01*
X130108207Y-60757319D02*
X129965350Y-60757319D01*
X109279636Y-60769819D02*
X109184398Y-60722200D01*
X109184398Y-60722200D02*
X109136779Y-60626961D01*
X109136779Y-60626961D02*
X109136779Y-59769819D01*
X109803446Y-60769819D02*
X109708208Y-60722200D01*
X109708208Y-60722200D02*
X109660589Y-60674580D01*
X109660589Y-60674580D02*
X109612970Y-60579342D01*
X109612970Y-60579342D02*
X109612970Y-60293628D01*
X109612970Y-60293628D02*
X109660589Y-60198390D01*
X109660589Y-60198390D02*
X109708208Y-60150771D01*
X109708208Y-60150771D02*
X109803446Y-60103152D01*
X109803446Y-60103152D02*
X109946303Y-60103152D01*
X109946303Y-60103152D02*
X110041541Y-60150771D01*
X110041541Y-60150771D02*
X110089160Y-60198390D01*
X110089160Y-60198390D02*
X110136779Y-60293628D01*
X110136779Y-60293628D02*
X110136779Y-60579342D01*
X110136779Y-60579342D02*
X110089160Y-60674580D01*
X110089160Y-60674580D02*
X110041541Y-60722200D01*
X110041541Y-60722200D02*
X109946303Y-60769819D01*
X109946303Y-60769819D02*
X109803446Y-60769819D01*
X110470113Y-60103152D02*
X110660589Y-60769819D01*
X110660589Y-60769819D02*
X110851065Y-60293628D01*
X110851065Y-60293628D02*
X111041541Y-60769819D01*
X111041541Y-60769819D02*
X111232017Y-60103152D01*
X112327256Y-60769819D02*
X112565351Y-60769819D01*
X112565351Y-60769819D02*
X112565351Y-60579342D01*
X112565351Y-60579342D02*
X112470113Y-60531723D01*
X112470113Y-60531723D02*
X112374875Y-60436485D01*
X112374875Y-60436485D02*
X112327256Y-60293628D01*
X112327256Y-60293628D02*
X112327256Y-60055533D01*
X112327256Y-60055533D02*
X112374875Y-59912676D01*
X112374875Y-59912676D02*
X112470113Y-59817438D01*
X112470113Y-59817438D02*
X112612970Y-59769819D01*
X112612970Y-59769819D02*
X112803446Y-59769819D01*
X112803446Y-59769819D02*
X112946303Y-59817438D01*
X112946303Y-59817438D02*
X113041541Y-59912676D01*
X113041541Y-59912676D02*
X113089160Y-60055533D01*
X113089160Y-60055533D02*
X113089160Y-60293628D01*
X113089160Y-60293628D02*
X113041541Y-60436485D01*
X113041541Y-60436485D02*
X112946303Y-60531723D01*
X112946303Y-60531723D02*
X112851065Y-60579342D01*
X112851065Y-60579342D02*
X112851065Y-60769819D01*
X112851065Y-60769819D02*
X113089160Y-60769819D01*
X114232017Y-59722200D02*
X113374875Y-61007914D01*
X114565351Y-60769819D02*
X114565351Y-59769819D01*
X114565351Y-59769819D02*
X115136779Y-60769819D01*
X115136779Y-60769819D02*
X115136779Y-59769819D01*
X115993922Y-60722200D02*
X115898684Y-60769819D01*
X115898684Y-60769819D02*
X115708208Y-60769819D01*
X115708208Y-60769819D02*
X115612970Y-60722200D01*
X115612970Y-60722200D02*
X115565351Y-60626961D01*
X115565351Y-60626961D02*
X115565351Y-60246009D01*
X115565351Y-60246009D02*
X115612970Y-60150771D01*
X115612970Y-60150771D02*
X115708208Y-60103152D01*
X115708208Y-60103152D02*
X115898684Y-60103152D01*
X115898684Y-60103152D02*
X115993922Y-60150771D01*
X115993922Y-60150771D02*
X116041541Y-60246009D01*
X116041541Y-60246009D02*
X116041541Y-60341247D01*
X116041541Y-60341247D02*
X115565351Y-60436485D01*
X116898684Y-60103152D02*
X116898684Y-60912676D01*
X116898684Y-60912676D02*
X116851065Y-61007914D01*
X116851065Y-61007914D02*
X116803446Y-61055533D01*
X116803446Y-61055533D02*
X116708208Y-61103152D01*
X116708208Y-61103152D02*
X116565351Y-61103152D01*
X116565351Y-61103152D02*
X116470113Y-61055533D01*
X116898684Y-60722200D02*
X116803446Y-60769819D01*
X116803446Y-60769819D02*
X116612970Y-60769819D01*
X116612970Y-60769819D02*
X116517732Y-60722200D01*
X116517732Y-60722200D02*
X116470113Y-60674580D01*
X116470113Y-60674580D02*
X116422494Y-60579342D01*
X116422494Y-60579342D02*
X116422494Y-60293628D01*
X116422494Y-60293628D02*
X116470113Y-60198390D01*
X116470113Y-60198390D02*
X116517732Y-60150771D01*
X116517732Y-60150771D02*
X116612970Y-60103152D01*
X116612970Y-60103152D02*
X116803446Y-60103152D01*
X116803446Y-60103152D02*
X116898684Y-60150771D01*
X118193922Y-60103152D02*
X118574874Y-60103152D01*
X118336779Y-59769819D02*
X118336779Y-60626961D01*
X118336779Y-60626961D02*
X118384398Y-60722200D01*
X118384398Y-60722200D02*
X118479636Y-60769819D01*
X118479636Y-60769819D02*
X118574874Y-60769819D01*
X118908208Y-60769819D02*
X118908208Y-60103152D01*
X118908208Y-60293628D02*
X118955827Y-60198390D01*
X118955827Y-60198390D02*
X119003446Y-60150771D01*
X119003446Y-60150771D02*
X119098684Y-60103152D01*
X119098684Y-60103152D02*
X119193922Y-60103152D01*
X119527256Y-60769819D02*
X119527256Y-60103152D01*
X119527256Y-59769819D02*
X119479637Y-59817438D01*
X119479637Y-59817438D02*
X119527256Y-59865057D01*
X119527256Y-59865057D02*
X119574875Y-59817438D01*
X119574875Y-59817438D02*
X119527256Y-59769819D01*
X119527256Y-59769819D02*
X119527256Y-59865057D01*
X120432017Y-60103152D02*
X120432017Y-60912676D01*
X120432017Y-60912676D02*
X120384398Y-61007914D01*
X120384398Y-61007914D02*
X120336779Y-61055533D01*
X120336779Y-61055533D02*
X120241541Y-61103152D01*
X120241541Y-61103152D02*
X120098684Y-61103152D01*
X120098684Y-61103152D02*
X120003446Y-61055533D01*
X120432017Y-60722200D02*
X120336779Y-60769819D01*
X120336779Y-60769819D02*
X120146303Y-60769819D01*
X120146303Y-60769819D02*
X120051065Y-60722200D01*
X120051065Y-60722200D02*
X120003446Y-60674580D01*
X120003446Y-60674580D02*
X119955827Y-60579342D01*
X119955827Y-60579342D02*
X119955827Y-60293628D01*
X119955827Y-60293628D02*
X120003446Y-60198390D01*
X120003446Y-60198390D02*
X120051065Y-60150771D01*
X120051065Y-60150771D02*
X120146303Y-60103152D01*
X120146303Y-60103152D02*
X120336779Y-60103152D01*
X120336779Y-60103152D02*
X120432017Y-60150771D01*
X122536779Y-60090652D02*
X122536779Y-60757319D01*
X122536779Y-60185890D02*
X122584398Y-60138271D01*
X122584398Y-60138271D02*
X122679636Y-60090652D01*
X122679636Y-60090652D02*
X122822493Y-60090652D01*
X122822493Y-60090652D02*
X122917731Y-60138271D01*
X122917731Y-60138271D02*
X122965350Y-60233509D01*
X122965350Y-60233509D02*
X122965350Y-60757319D01*
X123870112Y-60757319D02*
X123870112Y-60233509D01*
X123870112Y-60233509D02*
X123822493Y-60138271D01*
X123822493Y-60138271D02*
X123727255Y-60090652D01*
X123727255Y-60090652D02*
X123536779Y-60090652D01*
X123536779Y-60090652D02*
X123441541Y-60138271D01*
X123870112Y-60709700D02*
X123774874Y-60757319D01*
X123774874Y-60757319D02*
X123536779Y-60757319D01*
X123536779Y-60757319D02*
X123441541Y-60709700D01*
X123441541Y-60709700D02*
X123393922Y-60614461D01*
X123393922Y-60614461D02*
X123393922Y-60519223D01*
X123393922Y-60519223D02*
X123441541Y-60423985D01*
X123441541Y-60423985D02*
X123536779Y-60376366D01*
X123536779Y-60376366D02*
X123774874Y-60376366D01*
X123774874Y-60376366D02*
X123870112Y-60328747D01*
X124346303Y-60090652D02*
X124346303Y-60757319D01*
X124346303Y-60185890D02*
X124393922Y-60138271D01*
X124393922Y-60138271D02*
X124489160Y-60090652D01*
X124489160Y-60090652D02*
X124632017Y-60090652D01*
X124632017Y-60090652D02*
X124727255Y-60138271D01*
X124727255Y-60138271D02*
X124774874Y-60233509D01*
X124774874Y-60233509D02*
X124774874Y-60757319D01*
X125393922Y-60757319D02*
X125298684Y-60709700D01*
X125298684Y-60709700D02*
X125251065Y-60662080D01*
X125251065Y-60662080D02*
X125203446Y-60566842D01*
X125203446Y-60566842D02*
X125203446Y-60281128D01*
X125203446Y-60281128D02*
X125251065Y-60185890D01*
X125251065Y-60185890D02*
X125298684Y-60138271D01*
X125298684Y-60138271D02*
X125393922Y-60090652D01*
X125393922Y-60090652D02*
X125536779Y-60090652D01*
X125536779Y-60090652D02*
X125632017Y-60138271D01*
X125632017Y-60138271D02*
X125679636Y-60185890D01*
X125679636Y-60185890D02*
X125727255Y-60281128D01*
X125727255Y-60281128D02*
X125727255Y-60566842D01*
X125727255Y-60566842D02*
X125679636Y-60662080D01*
X125679636Y-60662080D02*
X125632017Y-60709700D01*
X125632017Y-60709700D02*
X125536779Y-60757319D01*
X125536779Y-60757319D02*
X125393922Y-60757319D01*
X170604761Y-64437557D02*
X170509523Y-64389938D01*
X170509523Y-64389938D02*
X170414285Y-64294700D01*
X170414285Y-64294700D02*
X170271428Y-64151842D01*
X170271428Y-64151842D02*
X170176190Y-64104223D01*
X170176190Y-64104223D02*
X170080952Y-64104223D01*
X170128571Y-64342319D02*
X170033333Y-64294700D01*
X170033333Y-64294700D02*
X169938095Y-64199461D01*
X169938095Y-64199461D02*
X169890476Y-64008985D01*
X169890476Y-64008985D02*
X169890476Y-63675652D01*
X169890476Y-63675652D02*
X169938095Y-63485176D01*
X169938095Y-63485176D02*
X170033333Y-63389938D01*
X170033333Y-63389938D02*
X170128571Y-63342319D01*
X170128571Y-63342319D02*
X170319047Y-63342319D01*
X170319047Y-63342319D02*
X170414285Y-63389938D01*
X170414285Y-63389938D02*
X170509523Y-63485176D01*
X170509523Y-63485176D02*
X170557142Y-63675652D01*
X170557142Y-63675652D02*
X170557142Y-64008985D01*
X170557142Y-64008985D02*
X170509523Y-64199461D01*
X170509523Y-64199461D02*
X170414285Y-64294700D01*
X170414285Y-64294700D02*
X170319047Y-64342319D01*
X170319047Y-64342319D02*
X170128571Y-64342319D01*
X171414285Y-63675652D02*
X171414285Y-64342319D01*
X171176190Y-63294700D02*
X170938095Y-64008985D01*
X170938095Y-64008985D02*
X171557142Y-64008985D01*
X145557142Y-88154819D02*
X145223809Y-87678628D01*
X144985714Y-88154819D02*
X144985714Y-87154819D01*
X144985714Y-87154819D02*
X145366666Y-87154819D01*
X145366666Y-87154819D02*
X145461904Y-87202438D01*
X145461904Y-87202438D02*
X145509523Y-87250057D01*
X145509523Y-87250057D02*
X145557142Y-87345295D01*
X145557142Y-87345295D02*
X145557142Y-87488152D01*
X145557142Y-87488152D02*
X145509523Y-87583390D01*
X145509523Y-87583390D02*
X145461904Y-87631009D01*
X145461904Y-87631009D02*
X145366666Y-87678628D01*
X145366666Y-87678628D02*
X144985714Y-87678628D01*
X145890476Y-87154819D02*
X146509523Y-87154819D01*
X146509523Y-87154819D02*
X146176190Y-87535771D01*
X146176190Y-87535771D02*
X146319047Y-87535771D01*
X146319047Y-87535771D02*
X146414285Y-87583390D01*
X146414285Y-87583390D02*
X146461904Y-87631009D01*
X146461904Y-87631009D02*
X146509523Y-87726247D01*
X146509523Y-87726247D02*
X146509523Y-87964342D01*
X146509523Y-87964342D02*
X146461904Y-88059580D01*
X146461904Y-88059580D02*
X146414285Y-88107200D01*
X146414285Y-88107200D02*
X146319047Y-88154819D01*
X146319047Y-88154819D02*
X146033333Y-88154819D01*
X146033333Y-88154819D02*
X145938095Y-88107200D01*
X145938095Y-88107200D02*
X145890476Y-88059580D01*
X147366666Y-87154819D02*
X147176190Y-87154819D01*
X147176190Y-87154819D02*
X147080952Y-87202438D01*
X147080952Y-87202438D02*
X147033333Y-87250057D01*
X147033333Y-87250057D02*
X146938095Y-87392914D01*
X146938095Y-87392914D02*
X146890476Y-87583390D01*
X146890476Y-87583390D02*
X146890476Y-87964342D01*
X146890476Y-87964342D02*
X146938095Y-88059580D01*
X146938095Y-88059580D02*
X146985714Y-88107200D01*
X146985714Y-88107200D02*
X147080952Y-88154819D01*
X147080952Y-88154819D02*
X147271428Y-88154819D01*
X147271428Y-88154819D02*
X147366666Y-88107200D01*
X147366666Y-88107200D02*
X147414285Y-88059580D01*
X147414285Y-88059580D02*
X147461904Y-87964342D01*
X147461904Y-87964342D02*
X147461904Y-87726247D01*
X147461904Y-87726247D02*
X147414285Y-87631009D01*
X147414285Y-87631009D02*
X147366666Y-87583390D01*
X147366666Y-87583390D02*
X147271428Y-87535771D01*
X147271428Y-87535771D02*
X147080952Y-87535771D01*
X147080952Y-87535771D02*
X146985714Y-87583390D01*
X146985714Y-87583390D02*
X146938095Y-87631009D01*
X146938095Y-87631009D02*
X146890476Y-87726247D01*
X148363095Y-76174819D02*
X148363095Y-76984342D01*
X148363095Y-76984342D02*
X148410714Y-77079580D01*
X148410714Y-77079580D02*
X148458333Y-77127200D01*
X148458333Y-77127200D02*
X148553571Y-77174819D01*
X148553571Y-77174819D02*
X148744047Y-77174819D01*
X148744047Y-77174819D02*
X148839285Y-77127200D01*
X148839285Y-77127200D02*
X148886904Y-77079580D01*
X148886904Y-77079580D02*
X148934523Y-76984342D01*
X148934523Y-76984342D02*
X148934523Y-76174819D01*
X149315476Y-76174819D02*
X149934523Y-76174819D01*
X149934523Y-76174819D02*
X149601190Y-76555771D01*
X149601190Y-76555771D02*
X149744047Y-76555771D01*
X149744047Y-76555771D02*
X149839285Y-76603390D01*
X149839285Y-76603390D02*
X149886904Y-76651009D01*
X149886904Y-76651009D02*
X149934523Y-76746247D01*
X149934523Y-76746247D02*
X149934523Y-76984342D01*
X149934523Y-76984342D02*
X149886904Y-77079580D01*
X149886904Y-77079580D02*
X149839285Y-77127200D01*
X149839285Y-77127200D02*
X149744047Y-77174819D01*
X149744047Y-77174819D02*
X149458333Y-77174819D01*
X149458333Y-77174819D02*
X149363095Y-77127200D01*
X149363095Y-77127200D02*
X149315476Y-77079580D01*
X144004819Y-58030357D02*
X143528628Y-58363690D01*
X144004819Y-58601785D02*
X143004819Y-58601785D01*
X143004819Y-58601785D02*
X143004819Y-58220833D01*
X143004819Y-58220833D02*
X143052438Y-58125595D01*
X143052438Y-58125595D02*
X143100057Y-58077976D01*
X143100057Y-58077976D02*
X143195295Y-58030357D01*
X143195295Y-58030357D02*
X143338152Y-58030357D01*
X143338152Y-58030357D02*
X143433390Y-58077976D01*
X143433390Y-58077976D02*
X143481009Y-58125595D01*
X143481009Y-58125595D02*
X143528628Y-58220833D01*
X143528628Y-58220833D02*
X143528628Y-58601785D01*
X144004819Y-57077976D02*
X144004819Y-57649404D01*
X144004819Y-57363690D02*
X143004819Y-57363690D01*
X143004819Y-57363690D02*
X143147676Y-57458928D01*
X143147676Y-57458928D02*
X143242914Y-57554166D01*
X143242914Y-57554166D02*
X143290533Y-57649404D01*
X143004819Y-56173214D02*
X143004819Y-56649404D01*
X143004819Y-56649404D02*
X143481009Y-56697023D01*
X143481009Y-56697023D02*
X143433390Y-56649404D01*
X143433390Y-56649404D02*
X143385771Y-56554166D01*
X143385771Y-56554166D02*
X143385771Y-56316071D01*
X143385771Y-56316071D02*
X143433390Y-56220833D01*
X143433390Y-56220833D02*
X143481009Y-56173214D01*
X143481009Y-56173214D02*
X143576247Y-56125595D01*
X143576247Y-56125595D02*
X143814342Y-56125595D01*
X143814342Y-56125595D02*
X143909580Y-56173214D01*
X143909580Y-56173214D02*
X143957200Y-56220833D01*
X143957200Y-56220833D02*
X144004819Y-56316071D01*
X144004819Y-56316071D02*
X144004819Y-56554166D01*
X144004819Y-56554166D02*
X143957200Y-56649404D01*
X143957200Y-56649404D02*
X143909580Y-56697023D01*
X139234819Y-70261904D02*
X140044342Y-70261904D01*
X140044342Y-70261904D02*
X140139580Y-70214285D01*
X140139580Y-70214285D02*
X140187200Y-70166666D01*
X140187200Y-70166666D02*
X140234819Y-70071428D01*
X140234819Y-70071428D02*
X140234819Y-69880952D01*
X140234819Y-69880952D02*
X140187200Y-69785714D01*
X140187200Y-69785714D02*
X140139580Y-69738095D01*
X140139580Y-69738095D02*
X140044342Y-69690476D01*
X140044342Y-69690476D02*
X139234819Y-69690476D01*
X139234819Y-68738095D02*
X139234819Y-69214285D01*
X139234819Y-69214285D02*
X139711009Y-69261904D01*
X139711009Y-69261904D02*
X139663390Y-69214285D01*
X139663390Y-69214285D02*
X139615771Y-69119047D01*
X139615771Y-69119047D02*
X139615771Y-68880952D01*
X139615771Y-68880952D02*
X139663390Y-68785714D01*
X139663390Y-68785714D02*
X139711009Y-68738095D01*
X139711009Y-68738095D02*
X139806247Y-68690476D01*
X139806247Y-68690476D02*
X140044342Y-68690476D01*
X140044342Y-68690476D02*
X140139580Y-68738095D01*
X140139580Y-68738095D02*
X140187200Y-68785714D01*
X140187200Y-68785714D02*
X140234819Y-68880952D01*
X140234819Y-68880952D02*
X140234819Y-69119047D01*
X140234819Y-69119047D02*
X140187200Y-69214285D01*
X140187200Y-69214285D02*
X140139580Y-69261904D01*
X122054819Y-63563094D02*
X121054819Y-63563094D01*
X121054819Y-63563094D02*
X121054819Y-63324999D01*
X121054819Y-63324999D02*
X121102438Y-63182142D01*
X121102438Y-63182142D02*
X121197676Y-63086904D01*
X121197676Y-63086904D02*
X121292914Y-63039285D01*
X121292914Y-63039285D02*
X121483390Y-62991666D01*
X121483390Y-62991666D02*
X121626247Y-62991666D01*
X121626247Y-62991666D02*
X121816723Y-63039285D01*
X121816723Y-63039285D02*
X121911961Y-63086904D01*
X121911961Y-63086904D02*
X122007200Y-63182142D01*
X122007200Y-63182142D02*
X122054819Y-63324999D01*
X122054819Y-63324999D02*
X122054819Y-63563094D01*
X121054819Y-62658332D02*
X121054819Y-62039285D01*
X121054819Y-62039285D02*
X121435771Y-62372618D01*
X121435771Y-62372618D02*
X121435771Y-62229761D01*
X121435771Y-62229761D02*
X121483390Y-62134523D01*
X121483390Y-62134523D02*
X121531009Y-62086904D01*
X121531009Y-62086904D02*
X121626247Y-62039285D01*
X121626247Y-62039285D02*
X121864342Y-62039285D01*
X121864342Y-62039285D02*
X121959580Y-62086904D01*
X121959580Y-62086904D02*
X122007200Y-62134523D01*
X122007200Y-62134523D02*
X122054819Y-62229761D01*
X122054819Y-62229761D02*
X122054819Y-62515475D01*
X122054819Y-62515475D02*
X122007200Y-62610713D01*
X122007200Y-62610713D02*
X121959580Y-62658332D01*
X159616123Y-77216443D02*
X159616123Y-77931893D01*
X159616123Y-77931893D02*
X159568426Y-78074983D01*
X159568426Y-78074983D02*
X159473033Y-78170377D01*
X159473033Y-78170377D02*
X159329943Y-78218073D01*
X159329943Y-78218073D02*
X159234550Y-78218073D01*
X160522360Y-77550320D02*
X160522360Y-78218073D01*
X160283877Y-77168747D02*
X160045393Y-77884197D01*
X160045393Y-77884197D02*
X160665450Y-77884197D01*
X137157142Y-114154819D02*
X136823809Y-113678628D01*
X136585714Y-114154819D02*
X136585714Y-113154819D01*
X136585714Y-113154819D02*
X136966666Y-113154819D01*
X136966666Y-113154819D02*
X137061904Y-113202438D01*
X137061904Y-113202438D02*
X137109523Y-113250057D01*
X137109523Y-113250057D02*
X137157142Y-113345295D01*
X137157142Y-113345295D02*
X137157142Y-113488152D01*
X137157142Y-113488152D02*
X137109523Y-113583390D01*
X137109523Y-113583390D02*
X137061904Y-113631009D01*
X137061904Y-113631009D02*
X136966666Y-113678628D01*
X136966666Y-113678628D02*
X136585714Y-113678628D01*
X137490476Y-113154819D02*
X138109523Y-113154819D01*
X138109523Y-113154819D02*
X137776190Y-113535771D01*
X137776190Y-113535771D02*
X137919047Y-113535771D01*
X137919047Y-113535771D02*
X138014285Y-113583390D01*
X138014285Y-113583390D02*
X138061904Y-113631009D01*
X138061904Y-113631009D02*
X138109523Y-113726247D01*
X138109523Y-113726247D02*
X138109523Y-113964342D01*
X138109523Y-113964342D02*
X138061904Y-114059580D01*
X138061904Y-114059580D02*
X138014285Y-114107200D01*
X138014285Y-114107200D02*
X137919047Y-114154819D01*
X137919047Y-114154819D02*
X137633333Y-114154819D01*
X137633333Y-114154819D02*
X137538095Y-114107200D01*
X137538095Y-114107200D02*
X137490476Y-114059580D01*
X138585714Y-114154819D02*
X138776190Y-114154819D01*
X138776190Y-114154819D02*
X138871428Y-114107200D01*
X138871428Y-114107200D02*
X138919047Y-114059580D01*
X138919047Y-114059580D02*
X139014285Y-113916723D01*
X139014285Y-113916723D02*
X139061904Y-113726247D01*
X139061904Y-113726247D02*
X139061904Y-113345295D01*
X139061904Y-113345295D02*
X139014285Y-113250057D01*
X139014285Y-113250057D02*
X138966666Y-113202438D01*
X138966666Y-113202438D02*
X138871428Y-113154819D01*
X138871428Y-113154819D02*
X138680952Y-113154819D01*
X138680952Y-113154819D02*
X138585714Y-113202438D01*
X138585714Y-113202438D02*
X138538095Y-113250057D01*
X138538095Y-113250057D02*
X138490476Y-113345295D01*
X138490476Y-113345295D02*
X138490476Y-113583390D01*
X138490476Y-113583390D02*
X138538095Y-113678628D01*
X138538095Y-113678628D02*
X138585714Y-113726247D01*
X138585714Y-113726247D02*
X138680952Y-113773866D01*
X138680952Y-113773866D02*
X138871428Y-113773866D01*
X138871428Y-113773866D02*
X138966666Y-113726247D01*
X138966666Y-113726247D02*
X139014285Y-113678628D01*
X139014285Y-113678628D02*
X139061904Y-113583390D01*
X133604819Y-58030357D02*
X133128628Y-58363690D01*
X133604819Y-58601785D02*
X132604819Y-58601785D01*
X132604819Y-58601785D02*
X132604819Y-58220833D01*
X132604819Y-58220833D02*
X132652438Y-58125595D01*
X132652438Y-58125595D02*
X132700057Y-58077976D01*
X132700057Y-58077976D02*
X132795295Y-58030357D01*
X132795295Y-58030357D02*
X132938152Y-58030357D01*
X132938152Y-58030357D02*
X133033390Y-58077976D01*
X133033390Y-58077976D02*
X133081009Y-58125595D01*
X133081009Y-58125595D02*
X133128628Y-58220833D01*
X133128628Y-58220833D02*
X133128628Y-58601785D01*
X133604819Y-57077976D02*
X133604819Y-57649404D01*
X133604819Y-57363690D02*
X132604819Y-57363690D01*
X132604819Y-57363690D02*
X132747676Y-57458928D01*
X132747676Y-57458928D02*
X132842914Y-57554166D01*
X132842914Y-57554166D02*
X132890533Y-57649404D01*
X132604819Y-56744642D02*
X132604819Y-56077976D01*
X132604819Y-56077976D02*
X133604819Y-56506547D01*
X144838095Y-89554819D02*
X144838095Y-90364342D01*
X144838095Y-90364342D02*
X144885714Y-90459580D01*
X144885714Y-90459580D02*
X144933333Y-90507200D01*
X144933333Y-90507200D02*
X145028571Y-90554819D01*
X145028571Y-90554819D02*
X145219047Y-90554819D01*
X145219047Y-90554819D02*
X145314285Y-90507200D01*
X145314285Y-90507200D02*
X145361904Y-90459580D01*
X145361904Y-90459580D02*
X145409523Y-90364342D01*
X145409523Y-90364342D02*
X145409523Y-89554819D01*
X146409523Y-90554819D02*
X145838095Y-90554819D01*
X146123809Y-90554819D02*
X146123809Y-89554819D01*
X146123809Y-89554819D02*
X146028571Y-89697676D01*
X146028571Y-89697676D02*
X145933333Y-89792914D01*
X145933333Y-89792914D02*
X145838095Y-89840533D01*
X153633334Y-85954818D02*
X153300001Y-85478627D01*
X153061906Y-85954818D02*
X153061906Y-84954818D01*
X153061906Y-84954818D02*
X153442858Y-84954818D01*
X153442858Y-84954818D02*
X153538096Y-85002437D01*
X153538096Y-85002437D02*
X153585715Y-85050056D01*
X153585715Y-85050056D02*
X153633334Y-85145294D01*
X153633334Y-85145294D02*
X153633334Y-85288151D01*
X153633334Y-85288151D02*
X153585715Y-85383389D01*
X153585715Y-85383389D02*
X153538096Y-85431008D01*
X153538096Y-85431008D02*
X153442858Y-85478627D01*
X153442858Y-85478627D02*
X153061906Y-85478627D01*
X154014287Y-85050056D02*
X154061906Y-85002437D01*
X154061906Y-85002437D02*
X154157144Y-84954818D01*
X154157144Y-84954818D02*
X154395239Y-84954818D01*
X154395239Y-84954818D02*
X154490477Y-85002437D01*
X154490477Y-85002437D02*
X154538096Y-85050056D01*
X154538096Y-85050056D02*
X154585715Y-85145294D01*
X154585715Y-85145294D02*
X154585715Y-85240532D01*
X154585715Y-85240532D02*
X154538096Y-85383389D01*
X154538096Y-85383389D02*
X153966668Y-85954818D01*
X153966668Y-85954818D02*
X154585715Y-85954818D01*
X115957142Y-126504819D02*
X115623809Y-126028628D01*
X115385714Y-126504819D02*
X115385714Y-125504819D01*
X115385714Y-125504819D02*
X115766666Y-125504819D01*
X115766666Y-125504819D02*
X115861904Y-125552438D01*
X115861904Y-125552438D02*
X115909523Y-125600057D01*
X115909523Y-125600057D02*
X115957142Y-125695295D01*
X115957142Y-125695295D02*
X115957142Y-125838152D01*
X115957142Y-125838152D02*
X115909523Y-125933390D01*
X115909523Y-125933390D02*
X115861904Y-125981009D01*
X115861904Y-125981009D02*
X115766666Y-126028628D01*
X115766666Y-126028628D02*
X115385714Y-126028628D01*
X116338095Y-125600057D02*
X116385714Y-125552438D01*
X116385714Y-125552438D02*
X116480952Y-125504819D01*
X116480952Y-125504819D02*
X116719047Y-125504819D01*
X116719047Y-125504819D02*
X116814285Y-125552438D01*
X116814285Y-125552438D02*
X116861904Y-125600057D01*
X116861904Y-125600057D02*
X116909523Y-125695295D01*
X116909523Y-125695295D02*
X116909523Y-125790533D01*
X116909523Y-125790533D02*
X116861904Y-125933390D01*
X116861904Y-125933390D02*
X116290476Y-126504819D01*
X116290476Y-126504819D02*
X116909523Y-126504819D01*
X117290476Y-125600057D02*
X117338095Y-125552438D01*
X117338095Y-125552438D02*
X117433333Y-125504819D01*
X117433333Y-125504819D02*
X117671428Y-125504819D01*
X117671428Y-125504819D02*
X117766666Y-125552438D01*
X117766666Y-125552438D02*
X117814285Y-125600057D01*
X117814285Y-125600057D02*
X117861904Y-125695295D01*
X117861904Y-125695295D02*
X117861904Y-125790533D01*
X117861904Y-125790533D02*
X117814285Y-125933390D01*
X117814285Y-125933390D02*
X117242857Y-126504819D01*
X117242857Y-126504819D02*
X117861904Y-126504819D01*
X130161905Y-86554819D02*
X130161905Y-87364342D01*
X130161905Y-87364342D02*
X130209524Y-87459580D01*
X130209524Y-87459580D02*
X130257143Y-87507200D01*
X130257143Y-87507200D02*
X130352381Y-87554819D01*
X130352381Y-87554819D02*
X130542857Y-87554819D01*
X130542857Y-87554819D02*
X130638095Y-87507200D01*
X130638095Y-87507200D02*
X130685714Y-87459580D01*
X130685714Y-87459580D02*
X130733333Y-87364342D01*
X130733333Y-87364342D02*
X130733333Y-86554819D01*
X131733333Y-87554819D02*
X131161905Y-87554819D01*
X131447619Y-87554819D02*
X131447619Y-86554819D01*
X131447619Y-86554819D02*
X131352381Y-86697676D01*
X131352381Y-86697676D02*
X131257143Y-86792914D01*
X131257143Y-86792914D02*
X131161905Y-86840533D01*
X132352381Y-86554819D02*
X132447619Y-86554819D01*
X132447619Y-86554819D02*
X132542857Y-86602438D01*
X132542857Y-86602438D02*
X132590476Y-86650057D01*
X132590476Y-86650057D02*
X132638095Y-86745295D01*
X132638095Y-86745295D02*
X132685714Y-86935771D01*
X132685714Y-86935771D02*
X132685714Y-87173866D01*
X132685714Y-87173866D02*
X132638095Y-87364342D01*
X132638095Y-87364342D02*
X132590476Y-87459580D01*
X132590476Y-87459580D02*
X132542857Y-87507200D01*
X132542857Y-87507200D02*
X132447619Y-87554819D01*
X132447619Y-87554819D02*
X132352381Y-87554819D01*
X132352381Y-87554819D02*
X132257143Y-87507200D01*
X132257143Y-87507200D02*
X132209524Y-87459580D01*
X132209524Y-87459580D02*
X132161905Y-87364342D01*
X132161905Y-87364342D02*
X132114286Y-87173866D01*
X132114286Y-87173866D02*
X132114286Y-86935771D01*
X132114286Y-86935771D02*
X132161905Y-86745295D01*
X132161905Y-86745295D02*
X132209524Y-86650057D01*
X132209524Y-86650057D02*
X132257143Y-86602438D01*
X132257143Y-86602438D02*
X132352381Y-86554819D01*
X114357142Y-113454819D02*
X114023809Y-112978628D01*
X113785714Y-113454819D02*
X113785714Y-112454819D01*
X113785714Y-112454819D02*
X114166666Y-112454819D01*
X114166666Y-112454819D02*
X114261904Y-112502438D01*
X114261904Y-112502438D02*
X114309523Y-112550057D01*
X114309523Y-112550057D02*
X114357142Y-112645295D01*
X114357142Y-112645295D02*
X114357142Y-112788152D01*
X114357142Y-112788152D02*
X114309523Y-112883390D01*
X114309523Y-112883390D02*
X114261904Y-112931009D01*
X114261904Y-112931009D02*
X114166666Y-112978628D01*
X114166666Y-112978628D02*
X113785714Y-112978628D01*
X114690476Y-112454819D02*
X115309523Y-112454819D01*
X115309523Y-112454819D02*
X114976190Y-112835771D01*
X114976190Y-112835771D02*
X115119047Y-112835771D01*
X115119047Y-112835771D02*
X115214285Y-112883390D01*
X115214285Y-112883390D02*
X115261904Y-112931009D01*
X115261904Y-112931009D02*
X115309523Y-113026247D01*
X115309523Y-113026247D02*
X115309523Y-113264342D01*
X115309523Y-113264342D02*
X115261904Y-113359580D01*
X115261904Y-113359580D02*
X115214285Y-113407200D01*
X115214285Y-113407200D02*
X115119047Y-113454819D01*
X115119047Y-113454819D02*
X114833333Y-113454819D01*
X114833333Y-113454819D02*
X114738095Y-113407200D01*
X114738095Y-113407200D02*
X114690476Y-113359580D01*
X115880952Y-112883390D02*
X115785714Y-112835771D01*
X115785714Y-112835771D02*
X115738095Y-112788152D01*
X115738095Y-112788152D02*
X115690476Y-112692914D01*
X115690476Y-112692914D02*
X115690476Y-112645295D01*
X115690476Y-112645295D02*
X115738095Y-112550057D01*
X115738095Y-112550057D02*
X115785714Y-112502438D01*
X115785714Y-112502438D02*
X115880952Y-112454819D01*
X115880952Y-112454819D02*
X116071428Y-112454819D01*
X116071428Y-112454819D02*
X116166666Y-112502438D01*
X116166666Y-112502438D02*
X116214285Y-112550057D01*
X116214285Y-112550057D02*
X116261904Y-112645295D01*
X116261904Y-112645295D02*
X116261904Y-112692914D01*
X116261904Y-112692914D02*
X116214285Y-112788152D01*
X116214285Y-112788152D02*
X116166666Y-112835771D01*
X116166666Y-112835771D02*
X116071428Y-112883390D01*
X116071428Y-112883390D02*
X115880952Y-112883390D01*
X115880952Y-112883390D02*
X115785714Y-112931009D01*
X115785714Y-112931009D02*
X115738095Y-112978628D01*
X115738095Y-112978628D02*
X115690476Y-113073866D01*
X115690476Y-113073866D02*
X115690476Y-113264342D01*
X115690476Y-113264342D02*
X115738095Y-113359580D01*
X115738095Y-113359580D02*
X115785714Y-113407200D01*
X115785714Y-113407200D02*
X115880952Y-113454819D01*
X115880952Y-113454819D02*
X116071428Y-113454819D01*
X116071428Y-113454819D02*
X116166666Y-113407200D01*
X116166666Y-113407200D02*
X116214285Y-113359580D01*
X116214285Y-113359580D02*
X116261904Y-113264342D01*
X116261904Y-113264342D02*
X116261904Y-113073866D01*
X116261904Y-113073866D02*
X116214285Y-112978628D01*
X116214285Y-112978628D02*
X116166666Y-112931009D01*
X116166666Y-112931009D02*
X116071428Y-112883390D01*
X171238095Y-137754819D02*
X171238095Y-136754819D01*
X171238095Y-137231009D02*
X171809523Y-137231009D01*
X171809523Y-137754819D02*
X171809523Y-136754819D01*
X172714285Y-137088152D02*
X172714285Y-137754819D01*
X172476190Y-136707200D02*
X172238095Y-137421485D01*
X172238095Y-137421485D02*
X172857142Y-137421485D01*
X125983333Y-92397080D02*
X125935714Y-92444700D01*
X125935714Y-92444700D02*
X125792857Y-92492319D01*
X125792857Y-92492319D02*
X125697619Y-92492319D01*
X125697619Y-92492319D02*
X125554762Y-92444700D01*
X125554762Y-92444700D02*
X125459524Y-92349461D01*
X125459524Y-92349461D02*
X125411905Y-92254223D01*
X125411905Y-92254223D02*
X125364286Y-92063747D01*
X125364286Y-92063747D02*
X125364286Y-91920890D01*
X125364286Y-91920890D02*
X125411905Y-91730414D01*
X125411905Y-91730414D02*
X125459524Y-91635176D01*
X125459524Y-91635176D02*
X125554762Y-91539938D01*
X125554762Y-91539938D02*
X125697619Y-91492319D01*
X125697619Y-91492319D02*
X125792857Y-91492319D01*
X125792857Y-91492319D02*
X125935714Y-91539938D01*
X125935714Y-91539938D02*
X125983333Y-91587557D01*
X126888095Y-91492319D02*
X126411905Y-91492319D01*
X126411905Y-91492319D02*
X126364286Y-91968509D01*
X126364286Y-91968509D02*
X126411905Y-91920890D01*
X126411905Y-91920890D02*
X126507143Y-91873271D01*
X126507143Y-91873271D02*
X126745238Y-91873271D01*
X126745238Y-91873271D02*
X126840476Y-91920890D01*
X126840476Y-91920890D02*
X126888095Y-91968509D01*
X126888095Y-91968509D02*
X126935714Y-92063747D01*
X126935714Y-92063747D02*
X126935714Y-92301842D01*
X126935714Y-92301842D02*
X126888095Y-92397080D01*
X126888095Y-92397080D02*
X126840476Y-92444700D01*
X126840476Y-92444700D02*
X126745238Y-92492319D01*
X126745238Y-92492319D02*
X126507143Y-92492319D01*
X126507143Y-92492319D02*
X126411905Y-92444700D01*
X126411905Y-92444700D02*
X126364286Y-92397080D01*
X154038095Y-76106819D02*
X154609523Y-76106819D01*
X154323809Y-77106819D02*
X154323809Y-76106819D01*
X154942857Y-77106819D02*
X154942857Y-76106819D01*
X154942857Y-76106819D02*
X155323809Y-76106819D01*
X155323809Y-76106819D02*
X155419047Y-76154438D01*
X155419047Y-76154438D02*
X155466666Y-76202057D01*
X155466666Y-76202057D02*
X155514285Y-76297295D01*
X155514285Y-76297295D02*
X155514285Y-76440152D01*
X155514285Y-76440152D02*
X155466666Y-76535390D01*
X155466666Y-76535390D02*
X155419047Y-76583009D01*
X155419047Y-76583009D02*
X155323809Y-76630628D01*
X155323809Y-76630628D02*
X154942857Y-76630628D01*
X156466666Y-77106819D02*
X155895238Y-77106819D01*
X156180952Y-77106819D02*
X156180952Y-76106819D01*
X156180952Y-76106819D02*
X156085714Y-76249676D01*
X156085714Y-76249676D02*
X155990476Y-76344914D01*
X155990476Y-76344914D02*
X155895238Y-76392533D01*
X119666667Y-98807200D02*
X119809524Y-98854819D01*
X119809524Y-98854819D02*
X120047619Y-98854819D01*
X120047619Y-98854819D02*
X120142857Y-98807200D01*
X120142857Y-98807200D02*
X120190476Y-98759580D01*
X120190476Y-98759580D02*
X120238095Y-98664342D01*
X120238095Y-98664342D02*
X120238095Y-98569104D01*
X120238095Y-98569104D02*
X120190476Y-98473866D01*
X120190476Y-98473866D02*
X120142857Y-98426247D01*
X120142857Y-98426247D02*
X120047619Y-98378628D01*
X120047619Y-98378628D02*
X119857143Y-98331009D01*
X119857143Y-98331009D02*
X119761905Y-98283390D01*
X119761905Y-98283390D02*
X119714286Y-98235771D01*
X119714286Y-98235771D02*
X119666667Y-98140533D01*
X119666667Y-98140533D02*
X119666667Y-98045295D01*
X119666667Y-98045295D02*
X119714286Y-97950057D01*
X119714286Y-97950057D02*
X119761905Y-97902438D01*
X119761905Y-97902438D02*
X119857143Y-97854819D01*
X119857143Y-97854819D02*
X120095238Y-97854819D01*
X120095238Y-97854819D02*
X120238095Y-97902438D01*
X120571429Y-97854819D02*
X120809524Y-98854819D01*
X120809524Y-98854819D02*
X121000000Y-98140533D01*
X121000000Y-98140533D02*
X121190476Y-98854819D01*
X121190476Y-98854819D02*
X121428572Y-97854819D01*
X121714286Y-97854819D02*
X122333333Y-97854819D01*
X122333333Y-97854819D02*
X122000000Y-98235771D01*
X122000000Y-98235771D02*
X122142857Y-98235771D01*
X122142857Y-98235771D02*
X122238095Y-98283390D01*
X122238095Y-98283390D02*
X122285714Y-98331009D01*
X122285714Y-98331009D02*
X122333333Y-98426247D01*
X122333333Y-98426247D02*
X122333333Y-98664342D01*
X122333333Y-98664342D02*
X122285714Y-98759580D01*
X122285714Y-98759580D02*
X122238095Y-98807200D01*
X122238095Y-98807200D02*
X122142857Y-98854819D01*
X122142857Y-98854819D02*
X121857143Y-98854819D01*
X121857143Y-98854819D02*
X121761905Y-98807200D01*
X121761905Y-98807200D02*
X121714286Y-98759580D01*
X111590595Y-138004819D02*
X111590595Y-137004819D01*
X111590595Y-137481009D02*
X112162023Y-137481009D01*
X112162023Y-138004819D02*
X112162023Y-137004819D01*
X112542976Y-137004819D02*
X113162023Y-137004819D01*
X113162023Y-137004819D02*
X112828690Y-137385771D01*
X112828690Y-137385771D02*
X112971547Y-137385771D01*
X112971547Y-137385771D02*
X113066785Y-137433390D01*
X113066785Y-137433390D02*
X113114404Y-137481009D01*
X113114404Y-137481009D02*
X113162023Y-137576247D01*
X113162023Y-137576247D02*
X113162023Y-137814342D01*
X113162023Y-137814342D02*
X113114404Y-137909580D01*
X113114404Y-137909580D02*
X113066785Y-137957200D01*
X113066785Y-137957200D02*
X112971547Y-138004819D01*
X112971547Y-138004819D02*
X112685833Y-138004819D01*
X112685833Y-138004819D02*
X112590595Y-137957200D01*
X112590595Y-137957200D02*
X112542976Y-137909580D01*
X157733334Y-88254818D02*
X157400001Y-87778627D01*
X157161906Y-88254818D02*
X157161906Y-87254818D01*
X157161906Y-87254818D02*
X157542858Y-87254818D01*
X157542858Y-87254818D02*
X157638096Y-87302437D01*
X157638096Y-87302437D02*
X157685715Y-87350056D01*
X157685715Y-87350056D02*
X157733334Y-87445294D01*
X157733334Y-87445294D02*
X157733334Y-87588151D01*
X157733334Y-87588151D02*
X157685715Y-87683389D01*
X157685715Y-87683389D02*
X157638096Y-87731008D01*
X157638096Y-87731008D02*
X157542858Y-87778627D01*
X157542858Y-87778627D02*
X157161906Y-87778627D01*
X158685715Y-88254818D02*
X158114287Y-88254818D01*
X158400001Y-88254818D02*
X158400001Y-87254818D01*
X158400001Y-87254818D02*
X158304763Y-87397675D01*
X158304763Y-87397675D02*
X158209525Y-87492913D01*
X158209525Y-87492913D02*
X158114287Y-87540532D01*
X139304819Y-82942857D02*
X138828628Y-83276190D01*
X139304819Y-83514285D02*
X138304819Y-83514285D01*
X138304819Y-83514285D02*
X138304819Y-83133333D01*
X138304819Y-83133333D02*
X138352438Y-83038095D01*
X138352438Y-83038095D02*
X138400057Y-82990476D01*
X138400057Y-82990476D02*
X138495295Y-82942857D01*
X138495295Y-82942857D02*
X138638152Y-82942857D01*
X138638152Y-82942857D02*
X138733390Y-82990476D01*
X138733390Y-82990476D02*
X138781009Y-83038095D01*
X138781009Y-83038095D02*
X138828628Y-83133333D01*
X138828628Y-83133333D02*
X138828628Y-83514285D01*
X138638152Y-82085714D02*
X139304819Y-82085714D01*
X138257200Y-82323809D02*
X138971485Y-82561904D01*
X138971485Y-82561904D02*
X138971485Y-81942857D01*
X139304819Y-81038095D02*
X139304819Y-81609523D01*
X139304819Y-81323809D02*
X138304819Y-81323809D01*
X138304819Y-81323809D02*
X138447676Y-81419047D01*
X138447676Y-81419047D02*
X138542914Y-81514285D01*
X138542914Y-81514285D02*
X138590533Y-81609523D01*
X160904819Y-67230357D02*
X160428628Y-67563690D01*
X160904819Y-67801785D02*
X159904819Y-67801785D01*
X159904819Y-67801785D02*
X159904819Y-67420833D01*
X159904819Y-67420833D02*
X159952438Y-67325595D01*
X159952438Y-67325595D02*
X160000057Y-67277976D01*
X160000057Y-67277976D02*
X160095295Y-67230357D01*
X160095295Y-67230357D02*
X160238152Y-67230357D01*
X160238152Y-67230357D02*
X160333390Y-67277976D01*
X160333390Y-67277976D02*
X160381009Y-67325595D01*
X160381009Y-67325595D02*
X160428628Y-67420833D01*
X160428628Y-67420833D02*
X160428628Y-67801785D01*
X160904819Y-66277976D02*
X160904819Y-66849404D01*
X160904819Y-66563690D02*
X159904819Y-66563690D01*
X159904819Y-66563690D02*
X160047676Y-66658928D01*
X160047676Y-66658928D02*
X160142914Y-66754166D01*
X160142914Y-66754166D02*
X160190533Y-66849404D01*
X160000057Y-65897023D02*
X159952438Y-65849404D01*
X159952438Y-65849404D02*
X159904819Y-65754166D01*
X159904819Y-65754166D02*
X159904819Y-65516071D01*
X159904819Y-65516071D02*
X159952438Y-65420833D01*
X159952438Y-65420833D02*
X160000057Y-65373214D01*
X160000057Y-65373214D02*
X160095295Y-65325595D01*
X160095295Y-65325595D02*
X160190533Y-65325595D01*
X160190533Y-65325595D02*
X160333390Y-65373214D01*
X160333390Y-65373214D02*
X160904819Y-65944642D01*
X160904819Y-65944642D02*
X160904819Y-65325595D01*
X147404819Y-58030357D02*
X146928628Y-58363690D01*
X147404819Y-58601785D02*
X146404819Y-58601785D01*
X146404819Y-58601785D02*
X146404819Y-58220833D01*
X146404819Y-58220833D02*
X146452438Y-58125595D01*
X146452438Y-58125595D02*
X146500057Y-58077976D01*
X146500057Y-58077976D02*
X146595295Y-58030357D01*
X146595295Y-58030357D02*
X146738152Y-58030357D01*
X146738152Y-58030357D02*
X146833390Y-58077976D01*
X146833390Y-58077976D02*
X146881009Y-58125595D01*
X146881009Y-58125595D02*
X146928628Y-58220833D01*
X146928628Y-58220833D02*
X146928628Y-58601785D01*
X147404819Y-57077976D02*
X147404819Y-57649404D01*
X147404819Y-57363690D02*
X146404819Y-57363690D01*
X146404819Y-57363690D02*
X146547676Y-57458928D01*
X146547676Y-57458928D02*
X146642914Y-57554166D01*
X146642914Y-57554166D02*
X146690533Y-57649404D01*
X146833390Y-56506547D02*
X146785771Y-56601785D01*
X146785771Y-56601785D02*
X146738152Y-56649404D01*
X146738152Y-56649404D02*
X146642914Y-56697023D01*
X146642914Y-56697023D02*
X146595295Y-56697023D01*
X146595295Y-56697023D02*
X146500057Y-56649404D01*
X146500057Y-56649404D02*
X146452438Y-56601785D01*
X146452438Y-56601785D02*
X146404819Y-56506547D01*
X146404819Y-56506547D02*
X146404819Y-56316071D01*
X146404819Y-56316071D02*
X146452438Y-56220833D01*
X146452438Y-56220833D02*
X146500057Y-56173214D01*
X146500057Y-56173214D02*
X146595295Y-56125595D01*
X146595295Y-56125595D02*
X146642914Y-56125595D01*
X146642914Y-56125595D02*
X146738152Y-56173214D01*
X146738152Y-56173214D02*
X146785771Y-56220833D01*
X146785771Y-56220833D02*
X146833390Y-56316071D01*
X146833390Y-56316071D02*
X146833390Y-56506547D01*
X146833390Y-56506547D02*
X146881009Y-56601785D01*
X146881009Y-56601785D02*
X146928628Y-56649404D01*
X146928628Y-56649404D02*
X147023866Y-56697023D01*
X147023866Y-56697023D02*
X147214342Y-56697023D01*
X147214342Y-56697023D02*
X147309580Y-56649404D01*
X147309580Y-56649404D02*
X147357200Y-56601785D01*
X147357200Y-56601785D02*
X147404819Y-56506547D01*
X147404819Y-56506547D02*
X147404819Y-56316071D01*
X147404819Y-56316071D02*
X147357200Y-56220833D01*
X147357200Y-56220833D02*
X147309580Y-56173214D01*
X147309580Y-56173214D02*
X147214342Y-56125595D01*
X147214342Y-56125595D02*
X147023866Y-56125595D01*
X147023866Y-56125595D02*
X146928628Y-56173214D01*
X146928628Y-56173214D02*
X146881009Y-56220833D01*
X146881009Y-56220833D02*
X146833390Y-56316071D01*
X129657142Y-96454819D02*
X129323809Y-95978628D01*
X129085714Y-96454819D02*
X129085714Y-95454819D01*
X129085714Y-95454819D02*
X129466666Y-95454819D01*
X129466666Y-95454819D02*
X129561904Y-95502438D01*
X129561904Y-95502438D02*
X129609523Y-95550057D01*
X129609523Y-95550057D02*
X129657142Y-95645295D01*
X129657142Y-95645295D02*
X129657142Y-95788152D01*
X129657142Y-95788152D02*
X129609523Y-95883390D01*
X129609523Y-95883390D02*
X129561904Y-95931009D01*
X129561904Y-95931009D02*
X129466666Y-95978628D01*
X129466666Y-95978628D02*
X129085714Y-95978628D01*
X130514285Y-95788152D02*
X130514285Y-96454819D01*
X130276190Y-95407200D02*
X130038095Y-96121485D01*
X130038095Y-96121485D02*
X130657142Y-96121485D01*
X130990476Y-95550057D02*
X131038095Y-95502438D01*
X131038095Y-95502438D02*
X131133333Y-95454819D01*
X131133333Y-95454819D02*
X131371428Y-95454819D01*
X131371428Y-95454819D02*
X131466666Y-95502438D01*
X131466666Y-95502438D02*
X131514285Y-95550057D01*
X131514285Y-95550057D02*
X131561904Y-95645295D01*
X131561904Y-95645295D02*
X131561904Y-95740533D01*
X131561904Y-95740533D02*
X131514285Y-95883390D01*
X131514285Y-95883390D02*
X130942857Y-96454819D01*
X130942857Y-96454819D02*
X131561904Y-96454819D01*
X118054819Y-63625594D02*
X117054819Y-63625594D01*
X117054819Y-63625594D02*
X117054819Y-63387499D01*
X117054819Y-63387499D02*
X117102438Y-63244642D01*
X117102438Y-63244642D02*
X117197676Y-63149404D01*
X117197676Y-63149404D02*
X117292914Y-63101785D01*
X117292914Y-63101785D02*
X117483390Y-63054166D01*
X117483390Y-63054166D02*
X117626247Y-63054166D01*
X117626247Y-63054166D02*
X117816723Y-63101785D01*
X117816723Y-63101785D02*
X117911961Y-63149404D01*
X117911961Y-63149404D02*
X118007200Y-63244642D01*
X118007200Y-63244642D02*
X118054819Y-63387499D01*
X118054819Y-63387499D02*
X118054819Y-63625594D01*
X117150057Y-62673213D02*
X117102438Y-62625594D01*
X117102438Y-62625594D02*
X117054819Y-62530356D01*
X117054819Y-62530356D02*
X117054819Y-62292261D01*
X117054819Y-62292261D02*
X117102438Y-62197023D01*
X117102438Y-62197023D02*
X117150057Y-62149404D01*
X117150057Y-62149404D02*
X117245295Y-62101785D01*
X117245295Y-62101785D02*
X117340533Y-62101785D01*
X117340533Y-62101785D02*
X117483390Y-62149404D01*
X117483390Y-62149404D02*
X118054819Y-62720832D01*
X118054819Y-62720832D02*
X118054819Y-62101785D01*
X140504819Y-58030357D02*
X140028628Y-58363690D01*
X140504819Y-58601785D02*
X139504819Y-58601785D01*
X139504819Y-58601785D02*
X139504819Y-58220833D01*
X139504819Y-58220833D02*
X139552438Y-58125595D01*
X139552438Y-58125595D02*
X139600057Y-58077976D01*
X139600057Y-58077976D02*
X139695295Y-58030357D01*
X139695295Y-58030357D02*
X139838152Y-58030357D01*
X139838152Y-58030357D02*
X139933390Y-58077976D01*
X139933390Y-58077976D02*
X139981009Y-58125595D01*
X139981009Y-58125595D02*
X140028628Y-58220833D01*
X140028628Y-58220833D02*
X140028628Y-58601785D01*
X139600057Y-57649404D02*
X139552438Y-57601785D01*
X139552438Y-57601785D02*
X139504819Y-57506547D01*
X139504819Y-57506547D02*
X139504819Y-57268452D01*
X139504819Y-57268452D02*
X139552438Y-57173214D01*
X139552438Y-57173214D02*
X139600057Y-57125595D01*
X139600057Y-57125595D02*
X139695295Y-57077976D01*
X139695295Y-57077976D02*
X139790533Y-57077976D01*
X139790533Y-57077976D02*
X139933390Y-57125595D01*
X139933390Y-57125595D02*
X140504819Y-57697023D01*
X140504819Y-57697023D02*
X140504819Y-57077976D01*
X139504819Y-56458928D02*
X139504819Y-56363690D01*
X139504819Y-56363690D02*
X139552438Y-56268452D01*
X139552438Y-56268452D02*
X139600057Y-56220833D01*
X139600057Y-56220833D02*
X139695295Y-56173214D01*
X139695295Y-56173214D02*
X139885771Y-56125595D01*
X139885771Y-56125595D02*
X140123866Y-56125595D01*
X140123866Y-56125595D02*
X140314342Y-56173214D01*
X140314342Y-56173214D02*
X140409580Y-56220833D01*
X140409580Y-56220833D02*
X140457200Y-56268452D01*
X140457200Y-56268452D02*
X140504819Y-56363690D01*
X140504819Y-56363690D02*
X140504819Y-56458928D01*
X140504819Y-56458928D02*
X140457200Y-56554166D01*
X140457200Y-56554166D02*
X140409580Y-56601785D01*
X140409580Y-56601785D02*
X140314342Y-56649404D01*
X140314342Y-56649404D02*
X140123866Y-56697023D01*
X140123866Y-56697023D02*
X139885771Y-56697023D01*
X139885771Y-56697023D02*
X139695295Y-56649404D01*
X139695295Y-56649404D02*
X139600057Y-56601785D01*
X139600057Y-56601785D02*
X139552438Y-56554166D01*
X139552438Y-56554166D02*
X139504819Y-56458928D01*
X114678571Y-70037557D02*
X114583333Y-69989938D01*
X114583333Y-69989938D02*
X114488095Y-69894700D01*
X114488095Y-69894700D02*
X114345238Y-69751842D01*
X114345238Y-69751842D02*
X114250000Y-69704223D01*
X114250000Y-69704223D02*
X114154762Y-69704223D01*
X114202381Y-69942319D02*
X114107143Y-69894700D01*
X114107143Y-69894700D02*
X114011905Y-69799461D01*
X114011905Y-69799461D02*
X113964286Y-69608985D01*
X113964286Y-69608985D02*
X113964286Y-69275652D01*
X113964286Y-69275652D02*
X114011905Y-69085176D01*
X114011905Y-69085176D02*
X114107143Y-68989938D01*
X114107143Y-68989938D02*
X114202381Y-68942319D01*
X114202381Y-68942319D02*
X114392857Y-68942319D01*
X114392857Y-68942319D02*
X114488095Y-68989938D01*
X114488095Y-68989938D02*
X114583333Y-69085176D01*
X114583333Y-69085176D02*
X114630952Y-69275652D01*
X114630952Y-69275652D02*
X114630952Y-69608985D01*
X114630952Y-69608985D02*
X114583333Y-69799461D01*
X114583333Y-69799461D02*
X114488095Y-69894700D01*
X114488095Y-69894700D02*
X114392857Y-69942319D01*
X114392857Y-69942319D02*
X114202381Y-69942319D01*
X115583333Y-69942319D02*
X115011905Y-69942319D01*
X115297619Y-69942319D02*
X115297619Y-68942319D01*
X115297619Y-68942319D02*
X115202381Y-69085176D01*
X115202381Y-69085176D02*
X115107143Y-69180414D01*
X115107143Y-69180414D02*
X115011905Y-69228033D01*
X115964286Y-69037557D02*
X116011905Y-68989938D01*
X116011905Y-68989938D02*
X116107143Y-68942319D01*
X116107143Y-68942319D02*
X116345238Y-68942319D01*
X116345238Y-68942319D02*
X116440476Y-68989938D01*
X116440476Y-68989938D02*
X116488095Y-69037557D01*
X116488095Y-69037557D02*
X116535714Y-69132795D01*
X116535714Y-69132795D02*
X116535714Y-69228033D01*
X116535714Y-69228033D02*
X116488095Y-69370890D01*
X116488095Y-69370890D02*
X115916667Y-69942319D01*
X115916667Y-69942319D02*
X116535714Y-69942319D01*
X174004761Y-64537557D02*
X173909523Y-64489938D01*
X173909523Y-64489938D02*
X173814285Y-64394700D01*
X173814285Y-64394700D02*
X173671428Y-64251842D01*
X173671428Y-64251842D02*
X173576190Y-64204223D01*
X173576190Y-64204223D02*
X173480952Y-64204223D01*
X173528571Y-64442319D02*
X173433333Y-64394700D01*
X173433333Y-64394700D02*
X173338095Y-64299461D01*
X173338095Y-64299461D02*
X173290476Y-64108985D01*
X173290476Y-64108985D02*
X173290476Y-63775652D01*
X173290476Y-63775652D02*
X173338095Y-63585176D01*
X173338095Y-63585176D02*
X173433333Y-63489938D01*
X173433333Y-63489938D02*
X173528571Y-63442319D01*
X173528571Y-63442319D02*
X173719047Y-63442319D01*
X173719047Y-63442319D02*
X173814285Y-63489938D01*
X173814285Y-63489938D02*
X173909523Y-63585176D01*
X173909523Y-63585176D02*
X173957142Y-63775652D01*
X173957142Y-63775652D02*
X173957142Y-64108985D01*
X173957142Y-64108985D02*
X173909523Y-64299461D01*
X173909523Y-64299461D02*
X173814285Y-64394700D01*
X173814285Y-64394700D02*
X173719047Y-64442319D01*
X173719047Y-64442319D02*
X173528571Y-64442319D01*
X174290476Y-63442319D02*
X174909523Y-63442319D01*
X174909523Y-63442319D02*
X174576190Y-63823271D01*
X174576190Y-63823271D02*
X174719047Y-63823271D01*
X174719047Y-63823271D02*
X174814285Y-63870890D01*
X174814285Y-63870890D02*
X174861904Y-63918509D01*
X174861904Y-63918509D02*
X174909523Y-64013747D01*
X174909523Y-64013747D02*
X174909523Y-64251842D01*
X174909523Y-64251842D02*
X174861904Y-64347080D01*
X174861904Y-64347080D02*
X174814285Y-64394700D01*
X174814285Y-64394700D02*
X174719047Y-64442319D01*
X174719047Y-64442319D02*
X174433333Y-64442319D01*
X174433333Y-64442319D02*
X174338095Y-64394700D01*
X174338095Y-64394700D02*
X174290476Y-64347080D01*
X163538095Y-86406819D02*
X164109523Y-86406819D01*
X163823809Y-87406819D02*
X163823809Y-86406819D01*
X164442857Y-87406819D02*
X164442857Y-86406819D01*
X164442857Y-86406819D02*
X164823809Y-86406819D01*
X164823809Y-86406819D02*
X164919047Y-86454438D01*
X164919047Y-86454438D02*
X164966666Y-86502057D01*
X164966666Y-86502057D02*
X165014285Y-86597295D01*
X165014285Y-86597295D02*
X165014285Y-86740152D01*
X165014285Y-86740152D02*
X164966666Y-86835390D01*
X164966666Y-86835390D02*
X164919047Y-86883009D01*
X164919047Y-86883009D02*
X164823809Y-86930628D01*
X164823809Y-86930628D02*
X164442857Y-86930628D01*
X165395238Y-86502057D02*
X165442857Y-86454438D01*
X165442857Y-86454438D02*
X165538095Y-86406819D01*
X165538095Y-86406819D02*
X165776190Y-86406819D01*
X165776190Y-86406819D02*
X165871428Y-86454438D01*
X165871428Y-86454438D02*
X165919047Y-86502057D01*
X165919047Y-86502057D02*
X165966666Y-86597295D01*
X165966666Y-86597295D02*
X165966666Y-86692533D01*
X165966666Y-86692533D02*
X165919047Y-86835390D01*
X165919047Y-86835390D02*
X165347619Y-87406819D01*
X165347619Y-87406819D02*
X165966666Y-87406819D01*
X115957142Y-123004819D02*
X115623809Y-122528628D01*
X115385714Y-123004819D02*
X115385714Y-122004819D01*
X115385714Y-122004819D02*
X115766666Y-122004819D01*
X115766666Y-122004819D02*
X115861904Y-122052438D01*
X115861904Y-122052438D02*
X115909523Y-122100057D01*
X115909523Y-122100057D02*
X115957142Y-122195295D01*
X115957142Y-122195295D02*
X115957142Y-122338152D01*
X115957142Y-122338152D02*
X115909523Y-122433390D01*
X115909523Y-122433390D02*
X115861904Y-122481009D01*
X115861904Y-122481009D02*
X115766666Y-122528628D01*
X115766666Y-122528628D02*
X115385714Y-122528628D01*
X116338095Y-122100057D02*
X116385714Y-122052438D01*
X116385714Y-122052438D02*
X116480952Y-122004819D01*
X116480952Y-122004819D02*
X116719047Y-122004819D01*
X116719047Y-122004819D02*
X116814285Y-122052438D01*
X116814285Y-122052438D02*
X116861904Y-122100057D01*
X116861904Y-122100057D02*
X116909523Y-122195295D01*
X116909523Y-122195295D02*
X116909523Y-122290533D01*
X116909523Y-122290533D02*
X116861904Y-122433390D01*
X116861904Y-122433390D02*
X116290476Y-123004819D01*
X116290476Y-123004819D02*
X116909523Y-123004819D01*
X117861904Y-123004819D02*
X117290476Y-123004819D01*
X117576190Y-123004819D02*
X117576190Y-122004819D01*
X117576190Y-122004819D02*
X117480952Y-122147676D01*
X117480952Y-122147676D02*
X117385714Y-122242914D01*
X117385714Y-122242914D02*
X117290476Y-122290533D01*
X126238095Y-78054819D02*
X126809523Y-78054819D01*
X126523809Y-79054819D02*
X126523809Y-78054819D01*
X127142857Y-79054819D02*
X127142857Y-78054819D01*
X127142857Y-78054819D02*
X127523809Y-78054819D01*
X127523809Y-78054819D02*
X127619047Y-78102438D01*
X127619047Y-78102438D02*
X127666666Y-78150057D01*
X127666666Y-78150057D02*
X127714285Y-78245295D01*
X127714285Y-78245295D02*
X127714285Y-78388152D01*
X127714285Y-78388152D02*
X127666666Y-78483390D01*
X127666666Y-78483390D02*
X127619047Y-78531009D01*
X127619047Y-78531009D02*
X127523809Y-78578628D01*
X127523809Y-78578628D02*
X127142857Y-78578628D01*
X128047619Y-78054819D02*
X128666666Y-78054819D01*
X128666666Y-78054819D02*
X128333333Y-78435771D01*
X128333333Y-78435771D02*
X128476190Y-78435771D01*
X128476190Y-78435771D02*
X128571428Y-78483390D01*
X128571428Y-78483390D02*
X128619047Y-78531009D01*
X128619047Y-78531009D02*
X128666666Y-78626247D01*
X128666666Y-78626247D02*
X128666666Y-78864342D01*
X128666666Y-78864342D02*
X128619047Y-78959580D01*
X128619047Y-78959580D02*
X128571428Y-79007200D01*
X128571428Y-79007200D02*
X128476190Y-79054819D01*
X128476190Y-79054819D02*
X128190476Y-79054819D01*
X128190476Y-79054819D02*
X128095238Y-79007200D01*
X128095238Y-79007200D02*
X128047619Y-78959580D01*
X117304819Y-58280357D02*
X116828628Y-58613690D01*
X117304819Y-58851785D02*
X116304819Y-58851785D01*
X116304819Y-58851785D02*
X116304819Y-58470833D01*
X116304819Y-58470833D02*
X116352438Y-58375595D01*
X116352438Y-58375595D02*
X116400057Y-58327976D01*
X116400057Y-58327976D02*
X116495295Y-58280357D01*
X116495295Y-58280357D02*
X116638152Y-58280357D01*
X116638152Y-58280357D02*
X116733390Y-58327976D01*
X116733390Y-58327976D02*
X116781009Y-58375595D01*
X116781009Y-58375595D02*
X116828628Y-58470833D01*
X116828628Y-58470833D02*
X116828628Y-58851785D01*
X116400057Y-57899404D02*
X116352438Y-57851785D01*
X116352438Y-57851785D02*
X116304819Y-57756547D01*
X116304819Y-57756547D02*
X116304819Y-57518452D01*
X116304819Y-57518452D02*
X116352438Y-57423214D01*
X116352438Y-57423214D02*
X116400057Y-57375595D01*
X116400057Y-57375595D02*
X116495295Y-57327976D01*
X116495295Y-57327976D02*
X116590533Y-57327976D01*
X116590533Y-57327976D02*
X116733390Y-57375595D01*
X116733390Y-57375595D02*
X117304819Y-57947023D01*
X117304819Y-57947023D02*
X117304819Y-57327976D01*
X116733390Y-56756547D02*
X116685771Y-56851785D01*
X116685771Y-56851785D02*
X116638152Y-56899404D01*
X116638152Y-56899404D02*
X116542914Y-56947023D01*
X116542914Y-56947023D02*
X116495295Y-56947023D01*
X116495295Y-56947023D02*
X116400057Y-56899404D01*
X116400057Y-56899404D02*
X116352438Y-56851785D01*
X116352438Y-56851785D02*
X116304819Y-56756547D01*
X116304819Y-56756547D02*
X116304819Y-56566071D01*
X116304819Y-56566071D02*
X116352438Y-56470833D01*
X116352438Y-56470833D02*
X116400057Y-56423214D01*
X116400057Y-56423214D02*
X116495295Y-56375595D01*
X116495295Y-56375595D02*
X116542914Y-56375595D01*
X116542914Y-56375595D02*
X116638152Y-56423214D01*
X116638152Y-56423214D02*
X116685771Y-56470833D01*
X116685771Y-56470833D02*
X116733390Y-56566071D01*
X116733390Y-56566071D02*
X116733390Y-56756547D01*
X116733390Y-56756547D02*
X116781009Y-56851785D01*
X116781009Y-56851785D02*
X116828628Y-56899404D01*
X116828628Y-56899404D02*
X116923866Y-56947023D01*
X116923866Y-56947023D02*
X117114342Y-56947023D01*
X117114342Y-56947023D02*
X117209580Y-56899404D01*
X117209580Y-56899404D02*
X117257200Y-56851785D01*
X117257200Y-56851785D02*
X117304819Y-56756547D01*
X117304819Y-56756547D02*
X117304819Y-56566071D01*
X117304819Y-56566071D02*
X117257200Y-56470833D01*
X117257200Y-56470833D02*
X117209580Y-56423214D01*
X117209580Y-56423214D02*
X117114342Y-56375595D01*
X117114342Y-56375595D02*
X116923866Y-56375595D01*
X116923866Y-56375595D02*
X116828628Y-56423214D01*
X116828628Y-56423214D02*
X116781009Y-56470833D01*
X116781009Y-56470833D02*
X116733390Y-56566071D01*
X118678571Y-70137557D02*
X118583333Y-70089938D01*
X118583333Y-70089938D02*
X118488095Y-69994700D01*
X118488095Y-69994700D02*
X118345238Y-69851842D01*
X118345238Y-69851842D02*
X118250000Y-69804223D01*
X118250000Y-69804223D02*
X118154762Y-69804223D01*
X118202381Y-70042319D02*
X118107143Y-69994700D01*
X118107143Y-69994700D02*
X118011905Y-69899461D01*
X118011905Y-69899461D02*
X117964286Y-69708985D01*
X117964286Y-69708985D02*
X117964286Y-69375652D01*
X117964286Y-69375652D02*
X118011905Y-69185176D01*
X118011905Y-69185176D02*
X118107143Y-69089938D01*
X118107143Y-69089938D02*
X118202381Y-69042319D01*
X118202381Y-69042319D02*
X118392857Y-69042319D01*
X118392857Y-69042319D02*
X118488095Y-69089938D01*
X118488095Y-69089938D02*
X118583333Y-69185176D01*
X118583333Y-69185176D02*
X118630952Y-69375652D01*
X118630952Y-69375652D02*
X118630952Y-69708985D01*
X118630952Y-69708985D02*
X118583333Y-69899461D01*
X118583333Y-69899461D02*
X118488095Y-69994700D01*
X118488095Y-69994700D02*
X118392857Y-70042319D01*
X118392857Y-70042319D02*
X118202381Y-70042319D01*
X119583333Y-70042319D02*
X119011905Y-70042319D01*
X119297619Y-70042319D02*
X119297619Y-69042319D01*
X119297619Y-69042319D02*
X119202381Y-69185176D01*
X119202381Y-69185176D02*
X119107143Y-69280414D01*
X119107143Y-69280414D02*
X119011905Y-69328033D01*
X120440476Y-69375652D02*
X120440476Y-70042319D01*
X120202381Y-68994700D02*
X119964286Y-69708985D01*
X119964286Y-69708985D02*
X120583333Y-69708985D01*
X111238095Y-43454819D02*
X111238095Y-42454819D01*
X111238095Y-42931009D02*
X111809523Y-42931009D01*
X111809523Y-43454819D02*
X111809523Y-42454819D01*
X112809523Y-43454819D02*
X112238095Y-43454819D01*
X112523809Y-43454819D02*
X112523809Y-42454819D01*
X112523809Y-42454819D02*
X112428571Y-42597676D01*
X112428571Y-42597676D02*
X112333333Y-42692914D01*
X112333333Y-42692914D02*
X112238095Y-42740533D01*
X135733333Y-75754819D02*
X135400000Y-75278628D01*
X135161905Y-75754819D02*
X135161905Y-74754819D01*
X135161905Y-74754819D02*
X135542857Y-74754819D01*
X135542857Y-74754819D02*
X135638095Y-74802438D01*
X135638095Y-74802438D02*
X135685714Y-74850057D01*
X135685714Y-74850057D02*
X135733333Y-74945295D01*
X135733333Y-74945295D02*
X135733333Y-75088152D01*
X135733333Y-75088152D02*
X135685714Y-75183390D01*
X135685714Y-75183390D02*
X135638095Y-75231009D01*
X135638095Y-75231009D02*
X135542857Y-75278628D01*
X135542857Y-75278628D02*
X135161905Y-75278628D01*
X136304762Y-75183390D02*
X136209524Y-75135771D01*
X136209524Y-75135771D02*
X136161905Y-75088152D01*
X136161905Y-75088152D02*
X136114286Y-74992914D01*
X136114286Y-74992914D02*
X136114286Y-74945295D01*
X136114286Y-74945295D02*
X136161905Y-74850057D01*
X136161905Y-74850057D02*
X136209524Y-74802438D01*
X136209524Y-74802438D02*
X136304762Y-74754819D01*
X136304762Y-74754819D02*
X136495238Y-74754819D01*
X136495238Y-74754819D02*
X136590476Y-74802438D01*
X136590476Y-74802438D02*
X136638095Y-74850057D01*
X136638095Y-74850057D02*
X136685714Y-74945295D01*
X136685714Y-74945295D02*
X136685714Y-74992914D01*
X136685714Y-74992914D02*
X136638095Y-75088152D01*
X136638095Y-75088152D02*
X136590476Y-75135771D01*
X136590476Y-75135771D02*
X136495238Y-75183390D01*
X136495238Y-75183390D02*
X136304762Y-75183390D01*
X136304762Y-75183390D02*
X136209524Y-75231009D01*
X136209524Y-75231009D02*
X136161905Y-75278628D01*
X136161905Y-75278628D02*
X136114286Y-75373866D01*
X136114286Y-75373866D02*
X136114286Y-75564342D01*
X136114286Y-75564342D02*
X136161905Y-75659580D01*
X136161905Y-75659580D02*
X136209524Y-75707200D01*
X136209524Y-75707200D02*
X136304762Y-75754819D01*
X136304762Y-75754819D02*
X136495238Y-75754819D01*
X136495238Y-75754819D02*
X136590476Y-75707200D01*
X136590476Y-75707200D02*
X136638095Y-75659580D01*
X136638095Y-75659580D02*
X136685714Y-75564342D01*
X136685714Y-75564342D02*
X136685714Y-75373866D01*
X136685714Y-75373866D02*
X136638095Y-75278628D01*
X136638095Y-75278628D02*
X136590476Y-75231009D01*
X136590476Y-75231009D02*
X136495238Y-75183390D01*
X124654819Y-72567857D02*
X124178628Y-72901190D01*
X124654819Y-73139285D02*
X123654819Y-73139285D01*
X123654819Y-73139285D02*
X123654819Y-72758333D01*
X123654819Y-72758333D02*
X123702438Y-72663095D01*
X123702438Y-72663095D02*
X123750057Y-72615476D01*
X123750057Y-72615476D02*
X123845295Y-72567857D01*
X123845295Y-72567857D02*
X123988152Y-72567857D01*
X123988152Y-72567857D02*
X124083390Y-72615476D01*
X124083390Y-72615476D02*
X124131009Y-72663095D01*
X124131009Y-72663095D02*
X124178628Y-72758333D01*
X124178628Y-72758333D02*
X124178628Y-73139285D01*
X123654819Y-72234523D02*
X123654819Y-71615476D01*
X123654819Y-71615476D02*
X124035771Y-71948809D01*
X124035771Y-71948809D02*
X124035771Y-71805952D01*
X124035771Y-71805952D02*
X124083390Y-71710714D01*
X124083390Y-71710714D02*
X124131009Y-71663095D01*
X124131009Y-71663095D02*
X124226247Y-71615476D01*
X124226247Y-71615476D02*
X124464342Y-71615476D01*
X124464342Y-71615476D02*
X124559580Y-71663095D01*
X124559580Y-71663095D02*
X124607200Y-71710714D01*
X124607200Y-71710714D02*
X124654819Y-71805952D01*
X124654819Y-71805952D02*
X124654819Y-72091666D01*
X124654819Y-72091666D02*
X124607200Y-72186904D01*
X124607200Y-72186904D02*
X124559580Y-72234523D01*
X123988152Y-70758333D02*
X124654819Y-70758333D01*
X123607200Y-70996428D02*
X124321485Y-71234523D01*
X124321485Y-71234523D02*
X124321485Y-70615476D01*
X125354819Y-58280357D02*
X124878628Y-58613690D01*
X125354819Y-58851785D02*
X124354819Y-58851785D01*
X124354819Y-58851785D02*
X124354819Y-58470833D01*
X124354819Y-58470833D02*
X124402438Y-58375595D01*
X124402438Y-58375595D02*
X124450057Y-58327976D01*
X124450057Y-58327976D02*
X124545295Y-58280357D01*
X124545295Y-58280357D02*
X124688152Y-58280357D01*
X124688152Y-58280357D02*
X124783390Y-58327976D01*
X124783390Y-58327976D02*
X124831009Y-58375595D01*
X124831009Y-58375595D02*
X124878628Y-58470833D01*
X124878628Y-58470833D02*
X124878628Y-58851785D01*
X124354819Y-57947023D02*
X124354819Y-57327976D01*
X124354819Y-57327976D02*
X124735771Y-57661309D01*
X124735771Y-57661309D02*
X124735771Y-57518452D01*
X124735771Y-57518452D02*
X124783390Y-57423214D01*
X124783390Y-57423214D02*
X124831009Y-57375595D01*
X124831009Y-57375595D02*
X124926247Y-57327976D01*
X124926247Y-57327976D02*
X125164342Y-57327976D01*
X125164342Y-57327976D02*
X125259580Y-57375595D01*
X125259580Y-57375595D02*
X125307200Y-57423214D01*
X125307200Y-57423214D02*
X125354819Y-57518452D01*
X125354819Y-57518452D02*
X125354819Y-57804166D01*
X125354819Y-57804166D02*
X125307200Y-57899404D01*
X125307200Y-57899404D02*
X125259580Y-57947023D01*
X124354819Y-56708928D02*
X124354819Y-56613690D01*
X124354819Y-56613690D02*
X124402438Y-56518452D01*
X124402438Y-56518452D02*
X124450057Y-56470833D01*
X124450057Y-56470833D02*
X124545295Y-56423214D01*
X124545295Y-56423214D02*
X124735771Y-56375595D01*
X124735771Y-56375595D02*
X124973866Y-56375595D01*
X124973866Y-56375595D02*
X125164342Y-56423214D01*
X125164342Y-56423214D02*
X125259580Y-56470833D01*
X125259580Y-56470833D02*
X125307200Y-56518452D01*
X125307200Y-56518452D02*
X125354819Y-56613690D01*
X125354819Y-56613690D02*
X125354819Y-56708928D01*
X125354819Y-56708928D02*
X125307200Y-56804166D01*
X125307200Y-56804166D02*
X125259580Y-56851785D01*
X125259580Y-56851785D02*
X125164342Y-56899404D01*
X125164342Y-56899404D02*
X124973866Y-56947023D01*
X124973866Y-56947023D02*
X124735771Y-56947023D01*
X124735771Y-56947023D02*
X124545295Y-56899404D01*
X124545295Y-56899404D02*
X124450057Y-56851785D01*
X124450057Y-56851785D02*
X124402438Y-56804166D01*
X124402438Y-56804166D02*
X124354819Y-56708928D01*
X172004819Y-67230357D02*
X171528628Y-67563690D01*
X172004819Y-67801785D02*
X171004819Y-67801785D01*
X171004819Y-67801785D02*
X171004819Y-67420833D01*
X171004819Y-67420833D02*
X171052438Y-67325595D01*
X171052438Y-67325595D02*
X171100057Y-67277976D01*
X171100057Y-67277976D02*
X171195295Y-67230357D01*
X171195295Y-67230357D02*
X171338152Y-67230357D01*
X171338152Y-67230357D02*
X171433390Y-67277976D01*
X171433390Y-67277976D02*
X171481009Y-67325595D01*
X171481009Y-67325595D02*
X171528628Y-67420833D01*
X171528628Y-67420833D02*
X171528628Y-67801785D01*
X172004819Y-66277976D02*
X172004819Y-66849404D01*
X172004819Y-66563690D02*
X171004819Y-66563690D01*
X171004819Y-66563690D02*
X171147676Y-66658928D01*
X171147676Y-66658928D02*
X171242914Y-66754166D01*
X171242914Y-66754166D02*
X171290533Y-66849404D01*
X171004819Y-65658928D02*
X171004819Y-65563690D01*
X171004819Y-65563690D02*
X171052438Y-65468452D01*
X171052438Y-65468452D02*
X171100057Y-65420833D01*
X171100057Y-65420833D02*
X171195295Y-65373214D01*
X171195295Y-65373214D02*
X171385771Y-65325595D01*
X171385771Y-65325595D02*
X171623866Y-65325595D01*
X171623866Y-65325595D02*
X171814342Y-65373214D01*
X171814342Y-65373214D02*
X171909580Y-65420833D01*
X171909580Y-65420833D02*
X171957200Y-65468452D01*
X171957200Y-65468452D02*
X172004819Y-65563690D01*
X172004819Y-65563690D02*
X172004819Y-65658928D01*
X172004819Y-65658928D02*
X171957200Y-65754166D01*
X171957200Y-65754166D02*
X171909580Y-65801785D01*
X171909580Y-65801785D02*
X171814342Y-65849404D01*
X171814342Y-65849404D02*
X171623866Y-65897023D01*
X171623866Y-65897023D02*
X171385771Y-65897023D01*
X171385771Y-65897023D02*
X171195295Y-65849404D01*
X171195295Y-65849404D02*
X171100057Y-65801785D01*
X171100057Y-65801785D02*
X171052438Y-65754166D01*
X171052438Y-65754166D02*
X171004819Y-65658928D01*
X122678571Y-70137557D02*
X122583333Y-70089938D01*
X122583333Y-70089938D02*
X122488095Y-69994700D01*
X122488095Y-69994700D02*
X122345238Y-69851842D01*
X122345238Y-69851842D02*
X122250000Y-69804223D01*
X122250000Y-69804223D02*
X122154762Y-69804223D01*
X122202381Y-70042319D02*
X122107143Y-69994700D01*
X122107143Y-69994700D02*
X122011905Y-69899461D01*
X122011905Y-69899461D02*
X121964286Y-69708985D01*
X121964286Y-69708985D02*
X121964286Y-69375652D01*
X121964286Y-69375652D02*
X122011905Y-69185176D01*
X122011905Y-69185176D02*
X122107143Y-69089938D01*
X122107143Y-69089938D02*
X122202381Y-69042319D01*
X122202381Y-69042319D02*
X122392857Y-69042319D01*
X122392857Y-69042319D02*
X122488095Y-69089938D01*
X122488095Y-69089938D02*
X122583333Y-69185176D01*
X122583333Y-69185176D02*
X122630952Y-69375652D01*
X122630952Y-69375652D02*
X122630952Y-69708985D01*
X122630952Y-69708985D02*
X122583333Y-69899461D01*
X122583333Y-69899461D02*
X122488095Y-69994700D01*
X122488095Y-69994700D02*
X122392857Y-70042319D01*
X122392857Y-70042319D02*
X122202381Y-70042319D01*
X123583333Y-70042319D02*
X123011905Y-70042319D01*
X123297619Y-70042319D02*
X123297619Y-69042319D01*
X123297619Y-69042319D02*
X123202381Y-69185176D01*
X123202381Y-69185176D02*
X123107143Y-69280414D01*
X123107143Y-69280414D02*
X123011905Y-69328033D01*
X124488095Y-69042319D02*
X124011905Y-69042319D01*
X124011905Y-69042319D02*
X123964286Y-69518509D01*
X123964286Y-69518509D02*
X124011905Y-69470890D01*
X124011905Y-69470890D02*
X124107143Y-69423271D01*
X124107143Y-69423271D02*
X124345238Y-69423271D01*
X124345238Y-69423271D02*
X124440476Y-69470890D01*
X124440476Y-69470890D02*
X124488095Y-69518509D01*
X124488095Y-69518509D02*
X124535714Y-69613747D01*
X124535714Y-69613747D02*
X124535714Y-69851842D01*
X124535714Y-69851842D02*
X124488095Y-69947080D01*
X124488095Y-69947080D02*
X124440476Y-69994700D01*
X124440476Y-69994700D02*
X124345238Y-70042319D01*
X124345238Y-70042319D02*
X124107143Y-70042319D01*
X124107143Y-70042319D02*
X124011905Y-69994700D01*
X124011905Y-69994700D02*
X123964286Y-69947080D01*
X126678571Y-70037557D02*
X126583333Y-69989938D01*
X126583333Y-69989938D02*
X126488095Y-69894700D01*
X126488095Y-69894700D02*
X126345238Y-69751842D01*
X126345238Y-69751842D02*
X126250000Y-69704223D01*
X126250000Y-69704223D02*
X126154762Y-69704223D01*
X126202381Y-69942319D02*
X126107143Y-69894700D01*
X126107143Y-69894700D02*
X126011905Y-69799461D01*
X126011905Y-69799461D02*
X125964286Y-69608985D01*
X125964286Y-69608985D02*
X125964286Y-69275652D01*
X125964286Y-69275652D02*
X126011905Y-69085176D01*
X126011905Y-69085176D02*
X126107143Y-68989938D01*
X126107143Y-68989938D02*
X126202381Y-68942319D01*
X126202381Y-68942319D02*
X126392857Y-68942319D01*
X126392857Y-68942319D02*
X126488095Y-68989938D01*
X126488095Y-68989938D02*
X126583333Y-69085176D01*
X126583333Y-69085176D02*
X126630952Y-69275652D01*
X126630952Y-69275652D02*
X126630952Y-69608985D01*
X126630952Y-69608985D02*
X126583333Y-69799461D01*
X126583333Y-69799461D02*
X126488095Y-69894700D01*
X126488095Y-69894700D02*
X126392857Y-69942319D01*
X126392857Y-69942319D02*
X126202381Y-69942319D01*
X127583333Y-69942319D02*
X127011905Y-69942319D01*
X127297619Y-69942319D02*
X127297619Y-68942319D01*
X127297619Y-68942319D02*
X127202381Y-69085176D01*
X127202381Y-69085176D02*
X127107143Y-69180414D01*
X127107143Y-69180414D02*
X127011905Y-69228033D01*
X128440476Y-68942319D02*
X128250000Y-68942319D01*
X128250000Y-68942319D02*
X128154762Y-68989938D01*
X128154762Y-68989938D02*
X128107143Y-69037557D01*
X128107143Y-69037557D02*
X128011905Y-69180414D01*
X128011905Y-69180414D02*
X127964286Y-69370890D01*
X127964286Y-69370890D02*
X127964286Y-69751842D01*
X127964286Y-69751842D02*
X128011905Y-69847080D01*
X128011905Y-69847080D02*
X128059524Y-69894700D01*
X128059524Y-69894700D02*
X128154762Y-69942319D01*
X128154762Y-69942319D02*
X128345238Y-69942319D01*
X128345238Y-69942319D02*
X128440476Y-69894700D01*
X128440476Y-69894700D02*
X128488095Y-69847080D01*
X128488095Y-69847080D02*
X128535714Y-69751842D01*
X128535714Y-69751842D02*
X128535714Y-69513747D01*
X128535714Y-69513747D02*
X128488095Y-69418509D01*
X128488095Y-69418509D02*
X128440476Y-69370890D01*
X128440476Y-69370890D02*
X128345238Y-69323271D01*
X128345238Y-69323271D02*
X128154762Y-69323271D01*
X128154762Y-69323271D02*
X128059524Y-69370890D01*
X128059524Y-69370890D02*
X128011905Y-69418509D01*
X128011905Y-69418509D02*
X127964286Y-69513747D01*
X119066667Y-115307200D02*
X119209524Y-115354819D01*
X119209524Y-115354819D02*
X119447619Y-115354819D01*
X119447619Y-115354819D02*
X119542857Y-115307200D01*
X119542857Y-115307200D02*
X119590476Y-115259580D01*
X119590476Y-115259580D02*
X119638095Y-115164342D01*
X119638095Y-115164342D02*
X119638095Y-115069104D01*
X119638095Y-115069104D02*
X119590476Y-114973866D01*
X119590476Y-114973866D02*
X119542857Y-114926247D01*
X119542857Y-114926247D02*
X119447619Y-114878628D01*
X119447619Y-114878628D02*
X119257143Y-114831009D01*
X119257143Y-114831009D02*
X119161905Y-114783390D01*
X119161905Y-114783390D02*
X119114286Y-114735771D01*
X119114286Y-114735771D02*
X119066667Y-114640533D01*
X119066667Y-114640533D02*
X119066667Y-114545295D01*
X119066667Y-114545295D02*
X119114286Y-114450057D01*
X119114286Y-114450057D02*
X119161905Y-114402438D01*
X119161905Y-114402438D02*
X119257143Y-114354819D01*
X119257143Y-114354819D02*
X119495238Y-114354819D01*
X119495238Y-114354819D02*
X119638095Y-114402438D01*
X119971429Y-114354819D02*
X120209524Y-115354819D01*
X120209524Y-115354819D02*
X120400000Y-114640533D01*
X120400000Y-114640533D02*
X120590476Y-115354819D01*
X120590476Y-115354819D02*
X120828572Y-114354819D01*
X121161905Y-114450057D02*
X121209524Y-114402438D01*
X121209524Y-114402438D02*
X121304762Y-114354819D01*
X121304762Y-114354819D02*
X121542857Y-114354819D01*
X121542857Y-114354819D02*
X121638095Y-114402438D01*
X121638095Y-114402438D02*
X121685714Y-114450057D01*
X121685714Y-114450057D02*
X121733333Y-114545295D01*
X121733333Y-114545295D02*
X121733333Y-114640533D01*
X121733333Y-114640533D02*
X121685714Y-114783390D01*
X121685714Y-114783390D02*
X121114286Y-115354819D01*
X121114286Y-115354819D02*
X121733333Y-115354819D01*
X129354819Y-58280357D02*
X128878628Y-58613690D01*
X129354819Y-58851785D02*
X128354819Y-58851785D01*
X128354819Y-58851785D02*
X128354819Y-58470833D01*
X128354819Y-58470833D02*
X128402438Y-58375595D01*
X128402438Y-58375595D02*
X128450057Y-58327976D01*
X128450057Y-58327976D02*
X128545295Y-58280357D01*
X128545295Y-58280357D02*
X128688152Y-58280357D01*
X128688152Y-58280357D02*
X128783390Y-58327976D01*
X128783390Y-58327976D02*
X128831009Y-58375595D01*
X128831009Y-58375595D02*
X128878628Y-58470833D01*
X128878628Y-58470833D02*
X128878628Y-58851785D01*
X128354819Y-57947023D02*
X128354819Y-57327976D01*
X128354819Y-57327976D02*
X128735771Y-57661309D01*
X128735771Y-57661309D02*
X128735771Y-57518452D01*
X128735771Y-57518452D02*
X128783390Y-57423214D01*
X128783390Y-57423214D02*
X128831009Y-57375595D01*
X128831009Y-57375595D02*
X128926247Y-57327976D01*
X128926247Y-57327976D02*
X129164342Y-57327976D01*
X129164342Y-57327976D02*
X129259580Y-57375595D01*
X129259580Y-57375595D02*
X129307200Y-57423214D01*
X129307200Y-57423214D02*
X129354819Y-57518452D01*
X129354819Y-57518452D02*
X129354819Y-57804166D01*
X129354819Y-57804166D02*
X129307200Y-57899404D01*
X129307200Y-57899404D02*
X129259580Y-57947023D01*
X129354819Y-56375595D02*
X129354819Y-56947023D01*
X129354819Y-56661309D02*
X128354819Y-56661309D01*
X128354819Y-56661309D02*
X128497676Y-56756547D01*
X128497676Y-56756547D02*
X128592914Y-56851785D01*
X128592914Y-56851785D02*
X128640533Y-56947023D01*
X116833333Y-99904819D02*
X116500000Y-99428628D01*
X116261905Y-99904819D02*
X116261905Y-98904819D01*
X116261905Y-98904819D02*
X116642857Y-98904819D01*
X116642857Y-98904819D02*
X116738095Y-98952438D01*
X116738095Y-98952438D02*
X116785714Y-99000057D01*
X116785714Y-99000057D02*
X116833333Y-99095295D01*
X116833333Y-99095295D02*
X116833333Y-99238152D01*
X116833333Y-99238152D02*
X116785714Y-99333390D01*
X116785714Y-99333390D02*
X116738095Y-99381009D01*
X116738095Y-99381009D02*
X116642857Y-99428628D01*
X116642857Y-99428628D02*
X116261905Y-99428628D01*
X117690476Y-99238152D02*
X117690476Y-99904819D01*
X117452381Y-98857200D02*
X117214286Y-99571485D01*
X117214286Y-99571485D02*
X117833333Y-99571485D01*
X121354819Y-58280357D02*
X120878628Y-58613690D01*
X121354819Y-58851785D02*
X120354819Y-58851785D01*
X120354819Y-58851785D02*
X120354819Y-58470833D01*
X120354819Y-58470833D02*
X120402438Y-58375595D01*
X120402438Y-58375595D02*
X120450057Y-58327976D01*
X120450057Y-58327976D02*
X120545295Y-58280357D01*
X120545295Y-58280357D02*
X120688152Y-58280357D01*
X120688152Y-58280357D02*
X120783390Y-58327976D01*
X120783390Y-58327976D02*
X120831009Y-58375595D01*
X120831009Y-58375595D02*
X120878628Y-58470833D01*
X120878628Y-58470833D02*
X120878628Y-58851785D01*
X120450057Y-57899404D02*
X120402438Y-57851785D01*
X120402438Y-57851785D02*
X120354819Y-57756547D01*
X120354819Y-57756547D02*
X120354819Y-57518452D01*
X120354819Y-57518452D02*
X120402438Y-57423214D01*
X120402438Y-57423214D02*
X120450057Y-57375595D01*
X120450057Y-57375595D02*
X120545295Y-57327976D01*
X120545295Y-57327976D02*
X120640533Y-57327976D01*
X120640533Y-57327976D02*
X120783390Y-57375595D01*
X120783390Y-57375595D02*
X121354819Y-57947023D01*
X121354819Y-57947023D02*
X121354819Y-57327976D01*
X121354819Y-56851785D02*
X121354819Y-56661309D01*
X121354819Y-56661309D02*
X121307200Y-56566071D01*
X121307200Y-56566071D02*
X121259580Y-56518452D01*
X121259580Y-56518452D02*
X121116723Y-56423214D01*
X121116723Y-56423214D02*
X120926247Y-56375595D01*
X120926247Y-56375595D02*
X120545295Y-56375595D01*
X120545295Y-56375595D02*
X120450057Y-56423214D01*
X120450057Y-56423214D02*
X120402438Y-56470833D01*
X120402438Y-56470833D02*
X120354819Y-56566071D01*
X120354819Y-56566071D02*
X120354819Y-56756547D01*
X120354819Y-56756547D02*
X120402438Y-56851785D01*
X120402438Y-56851785D02*
X120450057Y-56899404D01*
X120450057Y-56899404D02*
X120545295Y-56947023D01*
X120545295Y-56947023D02*
X120783390Y-56947023D01*
X120783390Y-56947023D02*
X120878628Y-56899404D01*
X120878628Y-56899404D02*
X120926247Y-56851785D01*
X120926247Y-56851785D02*
X120973866Y-56756547D01*
X120973866Y-56756547D02*
X120973866Y-56566071D01*
X120973866Y-56566071D02*
X120926247Y-56470833D01*
X120926247Y-56470833D02*
X120878628Y-56423214D01*
X120878628Y-56423214D02*
X120783390Y-56375595D01*
X120754819Y-72667857D02*
X120278628Y-73001190D01*
X120754819Y-73239285D02*
X119754819Y-73239285D01*
X119754819Y-73239285D02*
X119754819Y-72858333D01*
X119754819Y-72858333D02*
X119802438Y-72763095D01*
X119802438Y-72763095D02*
X119850057Y-72715476D01*
X119850057Y-72715476D02*
X119945295Y-72667857D01*
X119945295Y-72667857D02*
X120088152Y-72667857D01*
X120088152Y-72667857D02*
X120183390Y-72715476D01*
X120183390Y-72715476D02*
X120231009Y-72763095D01*
X120231009Y-72763095D02*
X120278628Y-72858333D01*
X120278628Y-72858333D02*
X120278628Y-73239285D01*
X119754819Y-72334523D02*
X119754819Y-71715476D01*
X119754819Y-71715476D02*
X120135771Y-72048809D01*
X120135771Y-72048809D02*
X120135771Y-71905952D01*
X120135771Y-71905952D02*
X120183390Y-71810714D01*
X120183390Y-71810714D02*
X120231009Y-71763095D01*
X120231009Y-71763095D02*
X120326247Y-71715476D01*
X120326247Y-71715476D02*
X120564342Y-71715476D01*
X120564342Y-71715476D02*
X120659580Y-71763095D01*
X120659580Y-71763095D02*
X120707200Y-71810714D01*
X120707200Y-71810714D02*
X120754819Y-71905952D01*
X120754819Y-71905952D02*
X120754819Y-72191666D01*
X120754819Y-72191666D02*
X120707200Y-72286904D01*
X120707200Y-72286904D02*
X120659580Y-72334523D01*
X119754819Y-71382142D02*
X119754819Y-70763095D01*
X119754819Y-70763095D02*
X120135771Y-71096428D01*
X120135771Y-71096428D02*
X120135771Y-70953571D01*
X120135771Y-70953571D02*
X120183390Y-70858333D01*
X120183390Y-70858333D02*
X120231009Y-70810714D01*
X120231009Y-70810714D02*
X120326247Y-70763095D01*
X120326247Y-70763095D02*
X120564342Y-70763095D01*
X120564342Y-70763095D02*
X120659580Y-70810714D01*
X120659580Y-70810714D02*
X120707200Y-70858333D01*
X120707200Y-70858333D02*
X120754819Y-70953571D01*
X120754819Y-70953571D02*
X120754819Y-71239285D01*
X120754819Y-71239285D02*
X120707200Y-71334523D01*
X120707200Y-71334523D02*
X120659580Y-71382142D01*
X137004819Y-58030357D02*
X136528628Y-58363690D01*
X137004819Y-58601785D02*
X136004819Y-58601785D01*
X136004819Y-58601785D02*
X136004819Y-58220833D01*
X136004819Y-58220833D02*
X136052438Y-58125595D01*
X136052438Y-58125595D02*
X136100057Y-58077976D01*
X136100057Y-58077976D02*
X136195295Y-58030357D01*
X136195295Y-58030357D02*
X136338152Y-58030357D01*
X136338152Y-58030357D02*
X136433390Y-58077976D01*
X136433390Y-58077976D02*
X136481009Y-58125595D01*
X136481009Y-58125595D02*
X136528628Y-58220833D01*
X136528628Y-58220833D02*
X136528628Y-58601785D01*
X137004819Y-57077976D02*
X137004819Y-57649404D01*
X137004819Y-57363690D02*
X136004819Y-57363690D01*
X136004819Y-57363690D02*
X136147676Y-57458928D01*
X136147676Y-57458928D02*
X136242914Y-57554166D01*
X136242914Y-57554166D02*
X136290533Y-57649404D01*
X136004819Y-56220833D02*
X136004819Y-56411309D01*
X136004819Y-56411309D02*
X136052438Y-56506547D01*
X136052438Y-56506547D02*
X136100057Y-56554166D01*
X136100057Y-56554166D02*
X136242914Y-56649404D01*
X136242914Y-56649404D02*
X136433390Y-56697023D01*
X136433390Y-56697023D02*
X136814342Y-56697023D01*
X136814342Y-56697023D02*
X136909580Y-56649404D01*
X136909580Y-56649404D02*
X136957200Y-56601785D01*
X136957200Y-56601785D02*
X137004819Y-56506547D01*
X137004819Y-56506547D02*
X137004819Y-56316071D01*
X137004819Y-56316071D02*
X136957200Y-56220833D01*
X136957200Y-56220833D02*
X136909580Y-56173214D01*
X136909580Y-56173214D02*
X136814342Y-56125595D01*
X136814342Y-56125595D02*
X136576247Y-56125595D01*
X136576247Y-56125595D02*
X136481009Y-56173214D01*
X136481009Y-56173214D02*
X136433390Y-56220833D01*
X136433390Y-56220833D02*
X136385771Y-56316071D01*
X136385771Y-56316071D02*
X136385771Y-56506547D01*
X136385771Y-56506547D02*
X136433390Y-56601785D01*
X136433390Y-56601785D02*
X136481009Y-56649404D01*
X136481009Y-56649404D02*
X136576247Y-56697023D01*
X122733334Y-93454818D02*
X122400001Y-92978627D01*
X122161906Y-93454818D02*
X122161906Y-92454818D01*
X122161906Y-92454818D02*
X122542858Y-92454818D01*
X122542858Y-92454818D02*
X122638096Y-92502437D01*
X122638096Y-92502437D02*
X122685715Y-92550056D01*
X122685715Y-92550056D02*
X122733334Y-92645294D01*
X122733334Y-92645294D02*
X122733334Y-92788151D01*
X122733334Y-92788151D02*
X122685715Y-92883389D01*
X122685715Y-92883389D02*
X122638096Y-92931008D01*
X122638096Y-92931008D02*
X122542858Y-92978627D01*
X122542858Y-92978627D02*
X122161906Y-92978627D01*
X123638096Y-92454818D02*
X123161906Y-92454818D01*
X123161906Y-92454818D02*
X123114287Y-92931008D01*
X123114287Y-92931008D02*
X123161906Y-92883389D01*
X123161906Y-92883389D02*
X123257144Y-92835770D01*
X123257144Y-92835770D02*
X123495239Y-92835770D01*
X123495239Y-92835770D02*
X123590477Y-92883389D01*
X123590477Y-92883389D02*
X123638096Y-92931008D01*
X123638096Y-92931008D02*
X123685715Y-93026246D01*
X123685715Y-93026246D02*
X123685715Y-93264341D01*
X123685715Y-93264341D02*
X123638096Y-93359579D01*
X123638096Y-93359579D02*
X123590477Y-93407199D01*
X123590477Y-93407199D02*
X123495239Y-93454818D01*
X123495239Y-93454818D02*
X123257144Y-93454818D01*
X123257144Y-93454818D02*
X123161906Y-93407199D01*
X123161906Y-93407199D02*
X123114287Y-93359579D01*
X154504819Y-57930357D02*
X154028628Y-58263690D01*
X154504819Y-58501785D02*
X153504819Y-58501785D01*
X153504819Y-58501785D02*
X153504819Y-58120833D01*
X153504819Y-58120833D02*
X153552438Y-58025595D01*
X153552438Y-58025595D02*
X153600057Y-57977976D01*
X153600057Y-57977976D02*
X153695295Y-57930357D01*
X153695295Y-57930357D02*
X153838152Y-57930357D01*
X153838152Y-57930357D02*
X153933390Y-57977976D01*
X153933390Y-57977976D02*
X153981009Y-58025595D01*
X153981009Y-58025595D02*
X154028628Y-58120833D01*
X154028628Y-58120833D02*
X154028628Y-58501785D01*
X154504819Y-56977976D02*
X154504819Y-57549404D01*
X154504819Y-57263690D02*
X153504819Y-57263690D01*
X153504819Y-57263690D02*
X153647676Y-57358928D01*
X153647676Y-57358928D02*
X153742914Y-57454166D01*
X153742914Y-57454166D02*
X153790533Y-57549404D01*
X153838152Y-56120833D02*
X154504819Y-56120833D01*
X153457200Y-56358928D02*
X154171485Y-56597023D01*
X154171485Y-56597023D02*
X154171485Y-55977976D01*
X158204819Y-57930357D02*
X157728628Y-58263690D01*
X158204819Y-58501785D02*
X157204819Y-58501785D01*
X157204819Y-58501785D02*
X157204819Y-58120833D01*
X157204819Y-58120833D02*
X157252438Y-58025595D01*
X157252438Y-58025595D02*
X157300057Y-57977976D01*
X157300057Y-57977976D02*
X157395295Y-57930357D01*
X157395295Y-57930357D02*
X157538152Y-57930357D01*
X157538152Y-57930357D02*
X157633390Y-57977976D01*
X157633390Y-57977976D02*
X157681009Y-58025595D01*
X157681009Y-58025595D02*
X157728628Y-58120833D01*
X157728628Y-58120833D02*
X157728628Y-58501785D01*
X158204819Y-56977976D02*
X158204819Y-57549404D01*
X158204819Y-57263690D02*
X157204819Y-57263690D01*
X157204819Y-57263690D02*
X157347676Y-57358928D01*
X157347676Y-57358928D02*
X157442914Y-57454166D01*
X157442914Y-57454166D02*
X157490533Y-57549404D01*
X157204819Y-56644642D02*
X157204819Y-56025595D01*
X157204819Y-56025595D02*
X157585771Y-56358928D01*
X157585771Y-56358928D02*
X157585771Y-56216071D01*
X157585771Y-56216071D02*
X157633390Y-56120833D01*
X157633390Y-56120833D02*
X157681009Y-56073214D01*
X157681009Y-56073214D02*
X157776247Y-56025595D01*
X157776247Y-56025595D02*
X158014342Y-56025595D01*
X158014342Y-56025595D02*
X158109580Y-56073214D01*
X158109580Y-56073214D02*
X158157200Y-56120833D01*
X158157200Y-56120833D02*
X158204819Y-56216071D01*
X158204819Y-56216071D02*
X158204819Y-56501785D01*
X158204819Y-56501785D02*
X158157200Y-56597023D01*
X158157200Y-56597023D02*
X158109580Y-56644642D01*
X164604819Y-67230357D02*
X164128628Y-67563690D01*
X164604819Y-67801785D02*
X163604819Y-67801785D01*
X163604819Y-67801785D02*
X163604819Y-67420833D01*
X163604819Y-67420833D02*
X163652438Y-67325595D01*
X163652438Y-67325595D02*
X163700057Y-67277976D01*
X163700057Y-67277976D02*
X163795295Y-67230357D01*
X163795295Y-67230357D02*
X163938152Y-67230357D01*
X163938152Y-67230357D02*
X164033390Y-67277976D01*
X164033390Y-67277976D02*
X164081009Y-67325595D01*
X164081009Y-67325595D02*
X164128628Y-67420833D01*
X164128628Y-67420833D02*
X164128628Y-67801785D01*
X164604819Y-66277976D02*
X164604819Y-66849404D01*
X164604819Y-66563690D02*
X163604819Y-66563690D01*
X163604819Y-66563690D02*
X163747676Y-66658928D01*
X163747676Y-66658928D02*
X163842914Y-66754166D01*
X163842914Y-66754166D02*
X163890533Y-66849404D01*
X164604819Y-65325595D02*
X164604819Y-65897023D01*
X164604819Y-65611309D02*
X163604819Y-65611309D01*
X163604819Y-65611309D02*
X163747676Y-65706547D01*
X163747676Y-65706547D02*
X163842914Y-65801785D01*
X163842914Y-65801785D02*
X163890533Y-65897023D01*
X114054819Y-63625594D02*
X113054819Y-63625594D01*
X113054819Y-63625594D02*
X113054819Y-63387499D01*
X113054819Y-63387499D02*
X113102438Y-63244642D01*
X113102438Y-63244642D02*
X113197676Y-63149404D01*
X113197676Y-63149404D02*
X113292914Y-63101785D01*
X113292914Y-63101785D02*
X113483390Y-63054166D01*
X113483390Y-63054166D02*
X113626247Y-63054166D01*
X113626247Y-63054166D02*
X113816723Y-63101785D01*
X113816723Y-63101785D02*
X113911961Y-63149404D01*
X113911961Y-63149404D02*
X114007200Y-63244642D01*
X114007200Y-63244642D02*
X114054819Y-63387499D01*
X114054819Y-63387499D02*
X114054819Y-63625594D01*
X114054819Y-62101785D02*
X114054819Y-62673213D01*
X114054819Y-62387499D02*
X113054819Y-62387499D01*
X113054819Y-62387499D02*
X113197676Y-62482737D01*
X113197676Y-62482737D02*
X113292914Y-62577975D01*
X113292914Y-62577975D02*
X113340533Y-62673213D01*
X119066667Y-127507200D02*
X119209524Y-127554819D01*
X119209524Y-127554819D02*
X119447619Y-127554819D01*
X119447619Y-127554819D02*
X119542857Y-127507200D01*
X119542857Y-127507200D02*
X119590476Y-127459580D01*
X119590476Y-127459580D02*
X119638095Y-127364342D01*
X119638095Y-127364342D02*
X119638095Y-127269104D01*
X119638095Y-127269104D02*
X119590476Y-127173866D01*
X119590476Y-127173866D02*
X119542857Y-127126247D01*
X119542857Y-127126247D02*
X119447619Y-127078628D01*
X119447619Y-127078628D02*
X119257143Y-127031009D01*
X119257143Y-127031009D02*
X119161905Y-126983390D01*
X119161905Y-126983390D02*
X119114286Y-126935771D01*
X119114286Y-126935771D02*
X119066667Y-126840533D01*
X119066667Y-126840533D02*
X119066667Y-126745295D01*
X119066667Y-126745295D02*
X119114286Y-126650057D01*
X119114286Y-126650057D02*
X119161905Y-126602438D01*
X119161905Y-126602438D02*
X119257143Y-126554819D01*
X119257143Y-126554819D02*
X119495238Y-126554819D01*
X119495238Y-126554819D02*
X119638095Y-126602438D01*
X119971429Y-126554819D02*
X120209524Y-127554819D01*
X120209524Y-127554819D02*
X120400000Y-126840533D01*
X120400000Y-126840533D02*
X120590476Y-127554819D01*
X120590476Y-127554819D02*
X120828572Y-126554819D01*
X121733333Y-127554819D02*
X121161905Y-127554819D01*
X121447619Y-127554819D02*
X121447619Y-126554819D01*
X121447619Y-126554819D02*
X121352381Y-126697676D01*
X121352381Y-126697676D02*
X121257143Y-126792914D01*
X121257143Y-126792914D02*
X121161905Y-126840533D01*
X170538095Y-117054819D02*
X171109523Y-117054819D01*
X170823809Y-118054819D02*
X170823809Y-117054819D01*
X171442857Y-118054819D02*
X171442857Y-117054819D01*
X171442857Y-117054819D02*
X171823809Y-117054819D01*
X171823809Y-117054819D02*
X171919047Y-117102438D01*
X171919047Y-117102438D02*
X171966666Y-117150057D01*
X171966666Y-117150057D02*
X172014285Y-117245295D01*
X172014285Y-117245295D02*
X172014285Y-117388152D01*
X172014285Y-117388152D02*
X171966666Y-117483390D01*
X171966666Y-117483390D02*
X171919047Y-117531009D01*
X171919047Y-117531009D02*
X171823809Y-117578628D01*
X171823809Y-117578628D02*
X171442857Y-117578628D01*
X172871428Y-117388152D02*
X172871428Y-118054819D01*
X172633333Y-117007200D02*
X172395238Y-117721485D01*
X172395238Y-117721485D02*
X173014285Y-117721485D01*
X171238095Y-43429819D02*
X171238095Y-42429819D01*
X171238095Y-42906009D02*
X171809523Y-42906009D01*
X171809523Y-43429819D02*
X171809523Y-42429819D01*
X172238095Y-42525057D02*
X172285714Y-42477438D01*
X172285714Y-42477438D02*
X172380952Y-42429819D01*
X172380952Y-42429819D02*
X172619047Y-42429819D01*
X172619047Y-42429819D02*
X172714285Y-42477438D01*
X172714285Y-42477438D02*
X172761904Y-42525057D01*
X172761904Y-42525057D02*
X172809523Y-42620295D01*
X172809523Y-42620295D02*
X172809523Y-42715533D01*
X172809523Y-42715533D02*
X172761904Y-42858390D01*
X172761904Y-42858390D02*
X172190476Y-43429819D01*
X172190476Y-43429819D02*
X172809523Y-43429819D01*
X150804819Y-58030357D02*
X150328628Y-58363690D01*
X150804819Y-58601785D02*
X149804819Y-58601785D01*
X149804819Y-58601785D02*
X149804819Y-58220833D01*
X149804819Y-58220833D02*
X149852438Y-58125595D01*
X149852438Y-58125595D02*
X149900057Y-58077976D01*
X149900057Y-58077976D02*
X149995295Y-58030357D01*
X149995295Y-58030357D02*
X150138152Y-58030357D01*
X150138152Y-58030357D02*
X150233390Y-58077976D01*
X150233390Y-58077976D02*
X150281009Y-58125595D01*
X150281009Y-58125595D02*
X150328628Y-58220833D01*
X150328628Y-58220833D02*
X150328628Y-58601785D01*
X150804819Y-57077976D02*
X150804819Y-57649404D01*
X150804819Y-57363690D02*
X149804819Y-57363690D01*
X149804819Y-57363690D02*
X149947676Y-57458928D01*
X149947676Y-57458928D02*
X150042914Y-57554166D01*
X150042914Y-57554166D02*
X150090533Y-57649404D01*
X150804819Y-56601785D02*
X150804819Y-56411309D01*
X150804819Y-56411309D02*
X150757200Y-56316071D01*
X150757200Y-56316071D02*
X150709580Y-56268452D01*
X150709580Y-56268452D02*
X150566723Y-56173214D01*
X150566723Y-56173214D02*
X150376247Y-56125595D01*
X150376247Y-56125595D02*
X149995295Y-56125595D01*
X149995295Y-56125595D02*
X149900057Y-56173214D01*
X149900057Y-56173214D02*
X149852438Y-56220833D01*
X149852438Y-56220833D02*
X149804819Y-56316071D01*
X149804819Y-56316071D02*
X149804819Y-56506547D01*
X149804819Y-56506547D02*
X149852438Y-56601785D01*
X149852438Y-56601785D02*
X149900057Y-56649404D01*
X149900057Y-56649404D02*
X149995295Y-56697023D01*
X149995295Y-56697023D02*
X150233390Y-56697023D01*
X150233390Y-56697023D02*
X150328628Y-56649404D01*
X150328628Y-56649404D02*
X150376247Y-56601785D01*
X150376247Y-56601785D02*
X150423866Y-56506547D01*
X150423866Y-56506547D02*
X150423866Y-56316071D01*
X150423866Y-56316071D02*
X150376247Y-56220833D01*
X150376247Y-56220833D02*
X150328628Y-56173214D01*
X150328628Y-56173214D02*
X150233390Y-56125595D01*
X143333333Y-80692080D02*
X143285714Y-80739700D01*
X143285714Y-80739700D02*
X143142857Y-80787319D01*
X143142857Y-80787319D02*
X143047619Y-80787319D01*
X143047619Y-80787319D02*
X142904762Y-80739700D01*
X142904762Y-80739700D02*
X142809524Y-80644461D01*
X142809524Y-80644461D02*
X142761905Y-80549223D01*
X142761905Y-80549223D02*
X142714286Y-80358747D01*
X142714286Y-80358747D02*
X142714286Y-80215890D01*
X142714286Y-80215890D02*
X142761905Y-80025414D01*
X142761905Y-80025414D02*
X142809524Y-79930176D01*
X142809524Y-79930176D02*
X142904762Y-79834938D01*
X142904762Y-79834938D02*
X143047619Y-79787319D01*
X143047619Y-79787319D02*
X143142857Y-79787319D01*
X143142857Y-79787319D02*
X143285714Y-79834938D01*
X143285714Y-79834938D02*
X143333333Y-79882557D01*
X144190476Y-80120652D02*
X144190476Y-80787319D01*
X143952381Y-79739700D02*
X143714286Y-80453985D01*
X143714286Y-80453985D02*
X144333333Y-80453985D01*
X166104761Y-64537557D02*
X166009523Y-64489938D01*
X166009523Y-64489938D02*
X165914285Y-64394700D01*
X165914285Y-64394700D02*
X165771428Y-64251842D01*
X165771428Y-64251842D02*
X165676190Y-64204223D01*
X165676190Y-64204223D02*
X165580952Y-64204223D01*
X165628571Y-64442319D02*
X165533333Y-64394700D01*
X165533333Y-64394700D02*
X165438095Y-64299461D01*
X165438095Y-64299461D02*
X165390476Y-64108985D01*
X165390476Y-64108985D02*
X165390476Y-63775652D01*
X165390476Y-63775652D02*
X165438095Y-63585176D01*
X165438095Y-63585176D02*
X165533333Y-63489938D01*
X165533333Y-63489938D02*
X165628571Y-63442319D01*
X165628571Y-63442319D02*
X165819047Y-63442319D01*
X165819047Y-63442319D02*
X165914285Y-63489938D01*
X165914285Y-63489938D02*
X166009523Y-63585176D01*
X166009523Y-63585176D02*
X166057142Y-63775652D01*
X166057142Y-63775652D02*
X166057142Y-64108985D01*
X166057142Y-64108985D02*
X166009523Y-64299461D01*
X166009523Y-64299461D02*
X165914285Y-64394700D01*
X165914285Y-64394700D02*
X165819047Y-64442319D01*
X165819047Y-64442319D02*
X165628571Y-64442319D01*
X166438095Y-63537557D02*
X166485714Y-63489938D01*
X166485714Y-63489938D02*
X166580952Y-63442319D01*
X166580952Y-63442319D02*
X166819047Y-63442319D01*
X166819047Y-63442319D02*
X166914285Y-63489938D01*
X166914285Y-63489938D02*
X166961904Y-63537557D01*
X166961904Y-63537557D02*
X167009523Y-63632795D01*
X167009523Y-63632795D02*
X167009523Y-63728033D01*
X167009523Y-63728033D02*
X166961904Y-63870890D01*
X166961904Y-63870890D02*
X166390476Y-64442319D01*
X166390476Y-64442319D02*
X167009523Y-64442319D01*
X122566123Y-77453943D02*
X122566123Y-78169393D01*
X122566123Y-78169393D02*
X122518426Y-78312483D01*
X122518426Y-78312483D02*
X122423033Y-78407877D01*
X122423033Y-78407877D02*
X122279943Y-78455573D01*
X122279943Y-78455573D02*
X122184550Y-78455573D01*
X122947697Y-77453943D02*
X123567753Y-77453943D01*
X123567753Y-77453943D02*
X123233877Y-77835517D01*
X123233877Y-77835517D02*
X123376967Y-77835517D01*
X123376967Y-77835517D02*
X123472360Y-77883213D01*
X123472360Y-77883213D02*
X123520057Y-77930910D01*
X123520057Y-77930910D02*
X123567753Y-78026303D01*
X123567753Y-78026303D02*
X123567753Y-78264787D01*
X123567753Y-78264787D02*
X123520057Y-78360180D01*
X123520057Y-78360180D02*
X123472360Y-78407877D01*
X123472360Y-78407877D02*
X123376967Y-78455573D01*
X123376967Y-78455573D02*
X123090787Y-78455573D01*
X123090787Y-78455573D02*
X122995393Y-78407877D01*
X122995393Y-78407877D02*
X122947697Y-78360180D01*
X162204761Y-64475057D02*
X162109523Y-64427438D01*
X162109523Y-64427438D02*
X162014285Y-64332200D01*
X162014285Y-64332200D02*
X161871428Y-64189342D01*
X161871428Y-64189342D02*
X161776190Y-64141723D01*
X161776190Y-64141723D02*
X161680952Y-64141723D01*
X161728571Y-64379819D02*
X161633333Y-64332200D01*
X161633333Y-64332200D02*
X161538095Y-64236961D01*
X161538095Y-64236961D02*
X161490476Y-64046485D01*
X161490476Y-64046485D02*
X161490476Y-63713152D01*
X161490476Y-63713152D02*
X161538095Y-63522676D01*
X161538095Y-63522676D02*
X161633333Y-63427438D01*
X161633333Y-63427438D02*
X161728571Y-63379819D01*
X161728571Y-63379819D02*
X161919047Y-63379819D01*
X161919047Y-63379819D02*
X162014285Y-63427438D01*
X162014285Y-63427438D02*
X162109523Y-63522676D01*
X162109523Y-63522676D02*
X162157142Y-63713152D01*
X162157142Y-63713152D02*
X162157142Y-64046485D01*
X162157142Y-64046485D02*
X162109523Y-64236961D01*
X162109523Y-64236961D02*
X162014285Y-64332200D01*
X162014285Y-64332200D02*
X161919047Y-64379819D01*
X161919047Y-64379819D02*
X161728571Y-64379819D01*
X163109523Y-64379819D02*
X162538095Y-64379819D01*
X162823809Y-64379819D02*
X162823809Y-63379819D01*
X162823809Y-63379819D02*
X162728571Y-63522676D01*
X162728571Y-63522676D02*
X162633333Y-63617914D01*
X162633333Y-63617914D02*
X162538095Y-63665533D01*
X135129580Y-85979166D02*
X135177200Y-86026785D01*
X135177200Y-86026785D02*
X135224819Y-86169642D01*
X135224819Y-86169642D02*
X135224819Y-86264880D01*
X135224819Y-86264880D02*
X135177200Y-86407737D01*
X135177200Y-86407737D02*
X135081961Y-86502975D01*
X135081961Y-86502975D02*
X134986723Y-86550594D01*
X134986723Y-86550594D02*
X134796247Y-86598213D01*
X134796247Y-86598213D02*
X134653390Y-86598213D01*
X134653390Y-86598213D02*
X134462914Y-86550594D01*
X134462914Y-86550594D02*
X134367676Y-86502975D01*
X134367676Y-86502975D02*
X134272438Y-86407737D01*
X134272438Y-86407737D02*
X134224819Y-86264880D01*
X134224819Y-86264880D02*
X134224819Y-86169642D01*
X134224819Y-86169642D02*
X134272438Y-86026785D01*
X134272438Y-86026785D02*
X134320057Y-85979166D01*
X134224819Y-85122023D02*
X134224819Y-85312499D01*
X134224819Y-85312499D02*
X134272438Y-85407737D01*
X134272438Y-85407737D02*
X134320057Y-85455356D01*
X134320057Y-85455356D02*
X134462914Y-85550594D01*
X134462914Y-85550594D02*
X134653390Y-85598213D01*
X134653390Y-85598213D02*
X135034342Y-85598213D01*
X135034342Y-85598213D02*
X135129580Y-85550594D01*
X135129580Y-85550594D02*
X135177200Y-85502975D01*
X135177200Y-85502975D02*
X135224819Y-85407737D01*
X135224819Y-85407737D02*
X135224819Y-85217261D01*
X135224819Y-85217261D02*
X135177200Y-85122023D01*
X135177200Y-85122023D02*
X135129580Y-85074404D01*
X135129580Y-85074404D02*
X135034342Y-85026785D01*
X135034342Y-85026785D02*
X134796247Y-85026785D01*
X134796247Y-85026785D02*
X134701009Y-85074404D01*
X134701009Y-85074404D02*
X134653390Y-85122023D01*
X134653390Y-85122023D02*
X134605771Y-85217261D01*
X134605771Y-85217261D02*
X134605771Y-85407737D01*
X134605771Y-85407737D02*
X134653390Y-85502975D01*
X134653390Y-85502975D02*
X134701009Y-85550594D01*
X134701009Y-85550594D02*
X134796247Y-85598213D01*
X126054819Y-63625594D02*
X125054819Y-63625594D01*
X125054819Y-63625594D02*
X125054819Y-63387499D01*
X125054819Y-63387499D02*
X125102438Y-63244642D01*
X125102438Y-63244642D02*
X125197676Y-63149404D01*
X125197676Y-63149404D02*
X125292914Y-63101785D01*
X125292914Y-63101785D02*
X125483390Y-63054166D01*
X125483390Y-63054166D02*
X125626247Y-63054166D01*
X125626247Y-63054166D02*
X125816723Y-63101785D01*
X125816723Y-63101785D02*
X125911961Y-63149404D01*
X125911961Y-63149404D02*
X126007200Y-63244642D01*
X126007200Y-63244642D02*
X126054819Y-63387499D01*
X126054819Y-63387499D02*
X126054819Y-63625594D01*
X125388152Y-62197023D02*
X126054819Y-62197023D01*
X125007200Y-62435118D02*
X125721485Y-62673213D01*
X125721485Y-62673213D02*
X125721485Y-62054166D01*
X135733333Y-64759580D02*
X135685714Y-64807200D01*
X135685714Y-64807200D02*
X135542857Y-64854819D01*
X135542857Y-64854819D02*
X135447619Y-64854819D01*
X135447619Y-64854819D02*
X135304762Y-64807200D01*
X135304762Y-64807200D02*
X135209524Y-64711961D01*
X135209524Y-64711961D02*
X135161905Y-64616723D01*
X135161905Y-64616723D02*
X135114286Y-64426247D01*
X135114286Y-64426247D02*
X135114286Y-64283390D01*
X135114286Y-64283390D02*
X135161905Y-64092914D01*
X135161905Y-64092914D02*
X135209524Y-63997676D01*
X135209524Y-63997676D02*
X135304762Y-63902438D01*
X135304762Y-63902438D02*
X135447619Y-63854819D01*
X135447619Y-63854819D02*
X135542857Y-63854819D01*
X135542857Y-63854819D02*
X135685714Y-63902438D01*
X135685714Y-63902438D02*
X135733333Y-63950057D01*
X136685714Y-64854819D02*
X136114286Y-64854819D01*
X136400000Y-64854819D02*
X136400000Y-63854819D01*
X136400000Y-63854819D02*
X136304762Y-63997676D01*
X136304762Y-63997676D02*
X136209524Y-64092914D01*
X136209524Y-64092914D02*
X136114286Y-64140533D01*
X128654819Y-72567857D02*
X128178628Y-72901190D01*
X128654819Y-73139285D02*
X127654819Y-73139285D01*
X127654819Y-73139285D02*
X127654819Y-72758333D01*
X127654819Y-72758333D02*
X127702438Y-72663095D01*
X127702438Y-72663095D02*
X127750057Y-72615476D01*
X127750057Y-72615476D02*
X127845295Y-72567857D01*
X127845295Y-72567857D02*
X127988152Y-72567857D01*
X127988152Y-72567857D02*
X128083390Y-72615476D01*
X128083390Y-72615476D02*
X128131009Y-72663095D01*
X128131009Y-72663095D02*
X128178628Y-72758333D01*
X128178628Y-72758333D02*
X128178628Y-73139285D01*
X127654819Y-72234523D02*
X127654819Y-71615476D01*
X127654819Y-71615476D02*
X128035771Y-71948809D01*
X128035771Y-71948809D02*
X128035771Y-71805952D01*
X128035771Y-71805952D02*
X128083390Y-71710714D01*
X128083390Y-71710714D02*
X128131009Y-71663095D01*
X128131009Y-71663095D02*
X128226247Y-71615476D01*
X128226247Y-71615476D02*
X128464342Y-71615476D01*
X128464342Y-71615476D02*
X128559580Y-71663095D01*
X128559580Y-71663095D02*
X128607200Y-71710714D01*
X128607200Y-71710714D02*
X128654819Y-71805952D01*
X128654819Y-71805952D02*
X128654819Y-72091666D01*
X128654819Y-72091666D02*
X128607200Y-72186904D01*
X128607200Y-72186904D02*
X128559580Y-72234523D01*
X127654819Y-70710714D02*
X127654819Y-71186904D01*
X127654819Y-71186904D02*
X128131009Y-71234523D01*
X128131009Y-71234523D02*
X128083390Y-71186904D01*
X128083390Y-71186904D02*
X128035771Y-71091666D01*
X128035771Y-71091666D02*
X128035771Y-70853571D01*
X128035771Y-70853571D02*
X128083390Y-70758333D01*
X128083390Y-70758333D02*
X128131009Y-70710714D01*
X128131009Y-70710714D02*
X128226247Y-70663095D01*
X128226247Y-70663095D02*
X128464342Y-70663095D01*
X128464342Y-70663095D02*
X128559580Y-70710714D01*
X128559580Y-70710714D02*
X128607200Y-70758333D01*
X128607200Y-70758333D02*
X128654819Y-70853571D01*
X128654819Y-70853571D02*
X128654819Y-71091666D01*
X128654819Y-71091666D02*
X128607200Y-71186904D01*
X128607200Y-71186904D02*
X128559580Y-71234523D01*
X126954819Y-88980357D02*
X126478628Y-89313690D01*
X126954819Y-89551785D02*
X125954819Y-89551785D01*
X125954819Y-89551785D02*
X125954819Y-89170833D01*
X125954819Y-89170833D02*
X126002438Y-89075595D01*
X126002438Y-89075595D02*
X126050057Y-89027976D01*
X126050057Y-89027976D02*
X126145295Y-88980357D01*
X126145295Y-88980357D02*
X126288152Y-88980357D01*
X126288152Y-88980357D02*
X126383390Y-89027976D01*
X126383390Y-89027976D02*
X126431009Y-89075595D01*
X126431009Y-89075595D02*
X126478628Y-89170833D01*
X126478628Y-89170833D02*
X126478628Y-89551785D01*
X126288152Y-88123214D02*
X126954819Y-88123214D01*
X125907200Y-88361309D02*
X126621485Y-88599404D01*
X126621485Y-88599404D02*
X126621485Y-87980357D01*
X125954819Y-87408928D02*
X125954819Y-87313690D01*
X125954819Y-87313690D02*
X126002438Y-87218452D01*
X126002438Y-87218452D02*
X126050057Y-87170833D01*
X126050057Y-87170833D02*
X126145295Y-87123214D01*
X126145295Y-87123214D02*
X126335771Y-87075595D01*
X126335771Y-87075595D02*
X126573866Y-87075595D01*
X126573866Y-87075595D02*
X126764342Y-87123214D01*
X126764342Y-87123214D02*
X126859580Y-87170833D01*
X126859580Y-87170833D02*
X126907200Y-87218452D01*
X126907200Y-87218452D02*
X126954819Y-87313690D01*
X126954819Y-87313690D02*
X126954819Y-87408928D01*
X126954819Y-87408928D02*
X126907200Y-87504166D01*
X126907200Y-87504166D02*
X126859580Y-87551785D01*
X126859580Y-87551785D02*
X126764342Y-87599404D01*
X126764342Y-87599404D02*
X126573866Y-87647023D01*
X126573866Y-87647023D02*
X126335771Y-87647023D01*
X126335771Y-87647023D02*
X126145295Y-87599404D01*
X126145295Y-87599404D02*
X126050057Y-87551785D01*
X126050057Y-87551785D02*
X126002438Y-87504166D01*
X126002438Y-87504166D02*
X125954819Y-87408928D01*
X154433333Y-72604819D02*
X154100000Y-72128628D01*
X153861905Y-72604819D02*
X153861905Y-71604819D01*
X153861905Y-71604819D02*
X154242857Y-71604819D01*
X154242857Y-71604819D02*
X154338095Y-71652438D01*
X154338095Y-71652438D02*
X154385714Y-71700057D01*
X154385714Y-71700057D02*
X154433333Y-71795295D01*
X154433333Y-71795295D02*
X154433333Y-71938152D01*
X154433333Y-71938152D02*
X154385714Y-72033390D01*
X154385714Y-72033390D02*
X154338095Y-72081009D01*
X154338095Y-72081009D02*
X154242857Y-72128628D01*
X154242857Y-72128628D02*
X153861905Y-72128628D01*
X155290476Y-71604819D02*
X155100000Y-71604819D01*
X155100000Y-71604819D02*
X155004762Y-71652438D01*
X155004762Y-71652438D02*
X154957143Y-71700057D01*
X154957143Y-71700057D02*
X154861905Y-71842914D01*
X154861905Y-71842914D02*
X154814286Y-72033390D01*
X154814286Y-72033390D02*
X154814286Y-72414342D01*
X154814286Y-72414342D02*
X154861905Y-72509580D01*
X154861905Y-72509580D02*
X154909524Y-72557200D01*
X154909524Y-72557200D02*
X155004762Y-72604819D01*
X155004762Y-72604819D02*
X155195238Y-72604819D01*
X155195238Y-72604819D02*
X155290476Y-72557200D01*
X155290476Y-72557200D02*
X155338095Y-72509580D01*
X155338095Y-72509580D02*
X155385714Y-72414342D01*
X155385714Y-72414342D02*
X155385714Y-72176247D01*
X155385714Y-72176247D02*
X155338095Y-72081009D01*
X155338095Y-72081009D02*
X155290476Y-72033390D01*
X155290476Y-72033390D02*
X155195238Y-71985771D01*
X155195238Y-71985771D02*
X155004762Y-71985771D01*
X155004762Y-71985771D02*
X154909524Y-72033390D01*
X154909524Y-72033390D02*
X154861905Y-72081009D01*
X154861905Y-72081009D02*
X154814286Y-72176247D01*
X139338095Y-89287319D02*
X139338095Y-90096842D01*
X139338095Y-90096842D02*
X139385714Y-90192080D01*
X139385714Y-90192080D02*
X139433333Y-90239700D01*
X139433333Y-90239700D02*
X139528571Y-90287319D01*
X139528571Y-90287319D02*
X139719047Y-90287319D01*
X139719047Y-90287319D02*
X139814285Y-90239700D01*
X139814285Y-90239700D02*
X139861904Y-90192080D01*
X139861904Y-90192080D02*
X139909523Y-90096842D01*
X139909523Y-90096842D02*
X139909523Y-89287319D01*
X140290476Y-89287319D02*
X140957142Y-89287319D01*
X140957142Y-89287319D02*
X140528571Y-90287319D01*
X133633333Y-75754819D02*
X133300000Y-75278628D01*
X133061905Y-75754819D02*
X133061905Y-74754819D01*
X133061905Y-74754819D02*
X133442857Y-74754819D01*
X133442857Y-74754819D02*
X133538095Y-74802438D01*
X133538095Y-74802438D02*
X133585714Y-74850057D01*
X133585714Y-74850057D02*
X133633333Y-74945295D01*
X133633333Y-74945295D02*
X133633333Y-75088152D01*
X133633333Y-75088152D02*
X133585714Y-75183390D01*
X133585714Y-75183390D02*
X133538095Y-75231009D01*
X133538095Y-75231009D02*
X133442857Y-75278628D01*
X133442857Y-75278628D02*
X133061905Y-75278628D01*
X133966667Y-74754819D02*
X134633333Y-74754819D01*
X134633333Y-74754819D02*
X134204762Y-75754819D01*
X137774819Y-133166666D02*
X137298628Y-133499999D01*
X137774819Y-133738094D02*
X136774819Y-133738094D01*
X136774819Y-133738094D02*
X136774819Y-133357142D01*
X136774819Y-133357142D02*
X136822438Y-133261904D01*
X136822438Y-133261904D02*
X136870057Y-133214285D01*
X136870057Y-133214285D02*
X136965295Y-133166666D01*
X136965295Y-133166666D02*
X137108152Y-133166666D01*
X137108152Y-133166666D02*
X137203390Y-133214285D01*
X137203390Y-133214285D02*
X137251009Y-133261904D01*
X137251009Y-133261904D02*
X137298628Y-133357142D01*
X137298628Y-133357142D02*
X137298628Y-133738094D01*
X136774819Y-132833332D02*
X136774819Y-132214285D01*
X136774819Y-132214285D02*
X137155771Y-132547618D01*
X137155771Y-132547618D02*
X137155771Y-132404761D01*
X137155771Y-132404761D02*
X137203390Y-132309523D01*
X137203390Y-132309523D02*
X137251009Y-132261904D01*
X137251009Y-132261904D02*
X137346247Y-132214285D01*
X137346247Y-132214285D02*
X137584342Y-132214285D01*
X137584342Y-132214285D02*
X137679580Y-132261904D01*
X137679580Y-132261904D02*
X137727200Y-132309523D01*
X137727200Y-132309523D02*
X137774819Y-132404761D01*
X137774819Y-132404761D02*
X137774819Y-132690475D01*
X137774819Y-132690475D02*
X137727200Y-132785713D01*
X137727200Y-132785713D02*
X137679580Y-132833332D01*
X168304819Y-66754166D02*
X167828628Y-67087499D01*
X168304819Y-67325594D02*
X167304819Y-67325594D01*
X167304819Y-67325594D02*
X167304819Y-66944642D01*
X167304819Y-66944642D02*
X167352438Y-66849404D01*
X167352438Y-66849404D02*
X167400057Y-66801785D01*
X167400057Y-66801785D02*
X167495295Y-66754166D01*
X167495295Y-66754166D02*
X167638152Y-66754166D01*
X167638152Y-66754166D02*
X167733390Y-66801785D01*
X167733390Y-66801785D02*
X167781009Y-66849404D01*
X167781009Y-66849404D02*
X167828628Y-66944642D01*
X167828628Y-66944642D02*
X167828628Y-67325594D01*
X168304819Y-66277975D02*
X168304819Y-66087499D01*
X168304819Y-66087499D02*
X168257200Y-65992261D01*
X168257200Y-65992261D02*
X168209580Y-65944642D01*
X168209580Y-65944642D02*
X168066723Y-65849404D01*
X168066723Y-65849404D02*
X167876247Y-65801785D01*
X167876247Y-65801785D02*
X167495295Y-65801785D01*
X167495295Y-65801785D02*
X167400057Y-65849404D01*
X167400057Y-65849404D02*
X167352438Y-65897023D01*
X167352438Y-65897023D02*
X167304819Y-65992261D01*
X167304819Y-65992261D02*
X167304819Y-66182737D01*
X167304819Y-66182737D02*
X167352438Y-66277975D01*
X167352438Y-66277975D02*
X167400057Y-66325594D01*
X167400057Y-66325594D02*
X167495295Y-66373213D01*
X167495295Y-66373213D02*
X167733390Y-66373213D01*
X167733390Y-66373213D02*
X167828628Y-66325594D01*
X167828628Y-66325594D02*
X167876247Y-66277975D01*
X167876247Y-66277975D02*
X167923866Y-66182737D01*
X167923866Y-66182737D02*
X167923866Y-65992261D01*
X167923866Y-65992261D02*
X167876247Y-65897023D01*
X167876247Y-65897023D02*
X167828628Y-65849404D01*
X167828628Y-65849404D02*
X167733390Y-65801785D01*
X116754819Y-72767857D02*
X116278628Y-73101190D01*
X116754819Y-73339285D02*
X115754819Y-73339285D01*
X115754819Y-73339285D02*
X115754819Y-72958333D01*
X115754819Y-72958333D02*
X115802438Y-72863095D01*
X115802438Y-72863095D02*
X115850057Y-72815476D01*
X115850057Y-72815476D02*
X115945295Y-72767857D01*
X115945295Y-72767857D02*
X116088152Y-72767857D01*
X116088152Y-72767857D02*
X116183390Y-72815476D01*
X116183390Y-72815476D02*
X116231009Y-72863095D01*
X116231009Y-72863095D02*
X116278628Y-72958333D01*
X116278628Y-72958333D02*
X116278628Y-73339285D01*
X115754819Y-72434523D02*
X115754819Y-71815476D01*
X115754819Y-71815476D02*
X116135771Y-72148809D01*
X116135771Y-72148809D02*
X116135771Y-72005952D01*
X116135771Y-72005952D02*
X116183390Y-71910714D01*
X116183390Y-71910714D02*
X116231009Y-71863095D01*
X116231009Y-71863095D02*
X116326247Y-71815476D01*
X116326247Y-71815476D02*
X116564342Y-71815476D01*
X116564342Y-71815476D02*
X116659580Y-71863095D01*
X116659580Y-71863095D02*
X116707200Y-71910714D01*
X116707200Y-71910714D02*
X116754819Y-72005952D01*
X116754819Y-72005952D02*
X116754819Y-72291666D01*
X116754819Y-72291666D02*
X116707200Y-72386904D01*
X116707200Y-72386904D02*
X116659580Y-72434523D01*
X115850057Y-71434523D02*
X115802438Y-71386904D01*
X115802438Y-71386904D02*
X115754819Y-71291666D01*
X115754819Y-71291666D02*
X115754819Y-71053571D01*
X115754819Y-71053571D02*
X115802438Y-70958333D01*
X115802438Y-70958333D02*
X115850057Y-70910714D01*
X115850057Y-70910714D02*
X115945295Y-70863095D01*
X115945295Y-70863095D02*
X116040533Y-70863095D01*
X116040533Y-70863095D02*
X116183390Y-70910714D01*
X116183390Y-70910714D02*
X116754819Y-71482142D01*
X116754819Y-71482142D02*
X116754819Y-70863095D01*
X116357142Y-107254819D02*
X116023809Y-106778628D01*
X115785714Y-107254819D02*
X115785714Y-106254819D01*
X115785714Y-106254819D02*
X116166666Y-106254819D01*
X116166666Y-106254819D02*
X116261904Y-106302438D01*
X116261904Y-106302438D02*
X116309523Y-106350057D01*
X116309523Y-106350057D02*
X116357142Y-106445295D01*
X116357142Y-106445295D02*
X116357142Y-106588152D01*
X116357142Y-106588152D02*
X116309523Y-106683390D01*
X116309523Y-106683390D02*
X116261904Y-106731009D01*
X116261904Y-106731009D02*
X116166666Y-106778628D01*
X116166666Y-106778628D02*
X115785714Y-106778628D01*
X116690476Y-106254819D02*
X117309523Y-106254819D01*
X117309523Y-106254819D02*
X116976190Y-106635771D01*
X116976190Y-106635771D02*
X117119047Y-106635771D01*
X117119047Y-106635771D02*
X117214285Y-106683390D01*
X117214285Y-106683390D02*
X117261904Y-106731009D01*
X117261904Y-106731009D02*
X117309523Y-106826247D01*
X117309523Y-106826247D02*
X117309523Y-107064342D01*
X117309523Y-107064342D02*
X117261904Y-107159580D01*
X117261904Y-107159580D02*
X117214285Y-107207200D01*
X117214285Y-107207200D02*
X117119047Y-107254819D01*
X117119047Y-107254819D02*
X116833333Y-107254819D01*
X116833333Y-107254819D02*
X116738095Y-107207200D01*
X116738095Y-107207200D02*
X116690476Y-107159580D01*
X117642857Y-106254819D02*
X118309523Y-106254819D01*
X118309523Y-106254819D02*
X117880952Y-107254819D01*
X115104819Y-53239404D02*
X115914342Y-53239404D01*
X115914342Y-53239404D02*
X116009580Y-53191785D01*
X116009580Y-53191785D02*
X116057200Y-53144166D01*
X116057200Y-53144166D02*
X116104819Y-53048928D01*
X116104819Y-53048928D02*
X116104819Y-52858452D01*
X116104819Y-52858452D02*
X116057200Y-52763214D01*
X116057200Y-52763214D02*
X116009580Y-52715595D01*
X116009580Y-52715595D02*
X115914342Y-52667976D01*
X115914342Y-52667976D02*
X115104819Y-52667976D01*
X115438152Y-51763214D02*
X116104819Y-51763214D01*
X115057200Y-52001309D02*
X115771485Y-52239404D01*
X115771485Y-52239404D02*
X115771485Y-51620357D01*
D11*
%TO.C,Q4*%
X168940000Y-61287500D02*
X168940000Y-60637500D01*
X168940000Y-61287500D02*
X168940000Y-62962500D01*
X172060000Y-61287500D02*
X172060000Y-60637500D01*
X172060000Y-61287500D02*
X172060000Y-61937500D01*
%TO.C,R36*%
X143065000Y-87127064D02*
X143065000Y-86672936D01*
X144535000Y-87127064D02*
X144535000Y-86672936D01*
%TO.C,U3*%
X149125000Y-77565000D02*
X145675000Y-77565000D01*
X149125000Y-77565000D02*
X151075000Y-77565000D01*
X149125000Y-86435000D02*
X147175000Y-86435000D01*
X149125000Y-86435000D02*
X151075000Y-86435000D01*
%TO.C,R15*%
X144465000Y-57614564D02*
X144465000Y-57160436D01*
X145935000Y-57614564D02*
X145935000Y-57160436D01*
%TO.C,U5*%
X140615000Y-65640000D02*
X140860000Y-65640000D01*
X140615000Y-69500000D02*
X140615000Y-65640000D01*
X140615000Y-69500000D02*
X140615000Y-73360000D01*
X140615000Y-73360000D02*
X140860000Y-73360000D01*
X140860000Y-73360000D02*
X140860000Y-75175000D01*
X152385000Y-65640000D02*
X152140000Y-65640000D01*
X152385000Y-69500000D02*
X152385000Y-65640000D01*
X152385000Y-69500000D02*
X152385000Y-73360000D01*
X152385000Y-73360000D02*
X152140000Y-73360000D01*
%TO.C,D3*%
X122290000Y-61825000D02*
X122290000Y-64510000D01*
X122290000Y-64510000D02*
X124210000Y-64510000D01*
X124210000Y-64510000D02*
X124210000Y-61825000D01*
%TO.C,R39*%
X137672936Y-111265000D02*
X138127064Y-111265000D01*
X137672936Y-112735000D02*
X138127064Y-112735000D01*
%TO.C,R17*%
X134065000Y-57614564D02*
X134065000Y-57160436D01*
X135535000Y-57614564D02*
X135535000Y-57160436D01*
D12*
%TO.C,U1*%
X145500000Y-91837500D02*
X145500000Y-92087500D01*
X145500000Y-91837500D02*
X152340000Y-91837500D01*
X145500000Y-142837500D02*
X145500000Y-142587500D01*
X152000000Y-142837500D02*
X145500000Y-142837500D01*
X152000000Y-144137500D02*
X152000000Y-142837500D01*
X159660000Y-91837500D02*
X166500000Y-91837500D01*
X160000000Y-142837500D02*
X160000000Y-144137500D01*
X160000000Y-144137500D02*
X152000000Y-144137500D01*
X166500000Y-91837500D02*
X166500000Y-92087500D01*
X166500000Y-142587500D02*
X166500000Y-142837500D01*
X166500000Y-142837500D02*
X160000000Y-142837500D01*
D13*
X168290000Y-141467500D02*
G75*
G02*
X168090000Y-141467500I-100000J0D01*
G01*
X168090000Y-141467500D02*
G75*
G02*
X168290000Y-141467500I100000J0D01*
G01*
D11*
%TO.C,R2*%
X153165000Y-87772936D02*
X153165000Y-88227064D01*
X154635000Y-87772936D02*
X154635000Y-88227064D01*
%TO.C,R22*%
X116827064Y-123665000D02*
X116372936Y-123665000D01*
X116827064Y-125135000D02*
X116372936Y-125135000D01*
D10*
%TO.C,U10*%
X130000000Y-87825000D02*
X135725000Y-87825000D01*
X131075000Y-94650000D02*
X131075000Y-94625000D01*
X131075000Y-94650000D02*
X135725000Y-94650000D01*
X135725000Y-87825000D02*
X135725000Y-87925000D01*
X135725000Y-94650000D02*
X135725000Y-94625000D01*
D11*
%TO.C,R38*%
X116665000Y-113227064D02*
X116665000Y-112772936D01*
X118135000Y-113227064D02*
X118135000Y-112772936D01*
%TO.C,C5*%
X127415000Y-91776248D02*
X127415000Y-92298752D01*
X128885000Y-91776248D02*
X128885000Y-92298752D01*
%TO.C,TP1*%
X154350000Y-77350000D02*
X156250000Y-77350000D01*
X154350000Y-79250000D02*
X154350000Y-77350000D01*
X156250000Y-77350000D02*
X156250000Y-79250000D01*
X156250000Y-79250000D02*
X154350000Y-79250000D01*
D12*
%TO.C,SW3*%
X119223800Y-99338100D02*
X135581400Y-99338100D01*
X119223800Y-113739900D02*
X119223800Y-99338100D01*
X135581400Y-99338100D02*
X135581400Y-113739900D01*
X135581400Y-113739900D02*
X119223800Y-113739900D01*
D13*
X132102600Y-114539000D02*
G75*
G02*
X131902600Y-114539000I-100000J0D01*
G01*
X131902600Y-114539000D02*
G75*
G02*
X132102600Y-114539000I100000J0D01*
G01*
D11*
%TO.C,R1*%
X155265000Y-88227064D02*
X155265000Y-87772936D01*
X156735000Y-88227064D02*
X156735000Y-87772936D01*
%TO.C,R41*%
X139765000Y-82527064D02*
X139765000Y-82072936D01*
X141235000Y-82527064D02*
X141235000Y-82072936D01*
%TO.C,R12*%
X161365000Y-66814564D02*
X161365000Y-66360436D01*
X162835000Y-66814564D02*
X162835000Y-66360436D01*
%TO.C,R18*%
X147865000Y-57614564D02*
X147865000Y-57160436D01*
X149335000Y-57614564D02*
X149335000Y-57160436D01*
%TO.C,R42*%
X133472936Y-95165000D02*
X133927064Y-95165000D01*
X133472936Y-96635000D02*
X133927064Y-96635000D01*
%TO.C,D2*%
X118290000Y-61887500D02*
X118290000Y-64572500D01*
X118290000Y-64572500D02*
X120210000Y-64572500D01*
X120210000Y-64572500D02*
X120210000Y-61887500D01*
%TO.C,R20*%
X140965000Y-57614564D02*
X140965000Y-57160436D01*
X142435000Y-57614564D02*
X142435000Y-57160436D01*
%TO.C,Q12*%
X113690000Y-66825000D02*
X113690000Y-66175000D01*
X113690000Y-66825000D02*
X113690000Y-68500000D01*
X116810000Y-66825000D02*
X116810000Y-66175000D01*
X116810000Y-66825000D02*
X116810000Y-67475000D01*
%TO.C,Q3*%
X172540000Y-61287500D02*
X172540000Y-60637500D01*
X172540000Y-61287500D02*
X172540000Y-62962500D01*
X175660000Y-61287500D02*
X175660000Y-60637500D01*
X175660000Y-61287500D02*
X175660000Y-61937500D01*
%TO.C,TP2*%
X163850000Y-87650000D02*
X165750000Y-87650000D01*
X163850000Y-89550000D02*
X163850000Y-87650000D01*
X165750000Y-87650000D02*
X165750000Y-89550000D01*
X165750000Y-89550000D02*
X163850000Y-89550000D01*
%TO.C,R21*%
X116827064Y-120165000D02*
X116372936Y-120165000D01*
X116827064Y-121635000D02*
X116372936Y-121635000D01*
%TO.C,TP3*%
X129150000Y-78350000D02*
X131050000Y-78350000D01*
X129150000Y-80250000D02*
X129150000Y-78350000D01*
X131050000Y-78350000D02*
X131050000Y-80250000D01*
X131050000Y-80250000D02*
X129150000Y-80250000D01*
%TO.C,R28*%
X114465000Y-57410436D02*
X114465000Y-57864564D01*
X115935000Y-57410436D02*
X115935000Y-57864564D01*
%TO.C,Q14*%
X117690000Y-66887500D02*
X117690000Y-66237500D01*
X117690000Y-66887500D02*
X117690000Y-68562500D01*
X120810000Y-66887500D02*
X120810000Y-66237500D01*
X120810000Y-66887500D02*
X120810000Y-67537500D01*
%TO.C,R8*%
X135165000Y-78027064D02*
X135165000Y-77572936D01*
X136635000Y-78027064D02*
X136635000Y-77572936D01*
%TO.C,R34*%
X121765000Y-72352064D02*
X121765000Y-71897936D01*
X123235000Y-72352064D02*
X123235000Y-71897936D01*
%TO.C,R30*%
X122515000Y-57410436D02*
X122515000Y-57864564D01*
X123985000Y-57410436D02*
X123985000Y-57864564D01*
%TO.C,R10*%
X172465000Y-66814564D02*
X172465000Y-66360436D01*
X173935000Y-66814564D02*
X173935000Y-66360436D01*
%TO.C,Q15*%
X121690000Y-66887500D02*
X121690000Y-66237500D01*
X121690000Y-66887500D02*
X121690000Y-68562500D01*
X124810000Y-66887500D02*
X124810000Y-66237500D01*
X124810000Y-66887500D02*
X124810000Y-67537500D01*
%TO.C,Q16*%
X125690000Y-66825000D02*
X125690000Y-66175000D01*
X125690000Y-66825000D02*
X125690000Y-68500000D01*
X128810000Y-66825000D02*
X128810000Y-66175000D01*
X128810000Y-66825000D02*
X128810000Y-67475000D01*
D12*
%TO.C,SW2*%
X119207500Y-115875000D02*
X121205000Y-115875000D01*
X119207500Y-126035000D02*
X119207500Y-115875000D01*
X121205000Y-126035000D02*
X119207500Y-126035000D01*
X133670000Y-115875000D02*
X135667500Y-115875000D01*
X135667500Y-115875000D02*
X135667500Y-126035000D01*
X135667500Y-126035000D02*
X133670000Y-126035000D01*
D13*
X118557500Y-117500000D02*
G75*
G02*
X118357500Y-117500000I-100000J0D01*
G01*
X118357500Y-117500000D02*
G75*
G02*
X118557500Y-117500000I100000J0D01*
G01*
D11*
%TO.C,R31*%
X126515000Y-57410436D02*
X126515000Y-57864564D01*
X127985000Y-57410436D02*
X127985000Y-57864564D01*
%TO.C,R4*%
X116772936Y-100365000D02*
X117227064Y-100365000D01*
X116772936Y-101835000D02*
X117227064Y-101835000D01*
%TO.C,R29*%
X118515000Y-57410436D02*
X118515000Y-57864564D01*
X119985000Y-57410436D02*
X119985000Y-57864564D01*
%TO.C,R33*%
X117865000Y-72352064D02*
X117865000Y-71897936D01*
X119335000Y-72352064D02*
X119335000Y-71897936D01*
%TO.C,R16*%
X137465000Y-57614564D02*
X137465000Y-57160436D01*
X138935000Y-57614564D02*
X138935000Y-57160436D01*
%TO.C,R5*%
X122165000Y-90172936D02*
X122165000Y-90627064D01*
X123635000Y-90172936D02*
X123635000Y-90627064D01*
%TO.C,R14*%
X154965000Y-57514564D02*
X154965000Y-57060436D01*
X156435000Y-57514564D02*
X156435000Y-57060436D01*
%TO.C,R13*%
X158665000Y-57514564D02*
X158665000Y-57060436D01*
X160135000Y-57514564D02*
X160135000Y-57060436D01*
%TO.C,R11*%
X165065000Y-66814564D02*
X165065000Y-66360436D01*
X166535000Y-66814564D02*
X166535000Y-66360436D01*
%TO.C,D1*%
X114290000Y-61887500D02*
X114290000Y-64572500D01*
X114290000Y-64572500D02*
X116210000Y-64572500D01*
X116210000Y-64572500D02*
X116210000Y-61887500D01*
D12*
%TO.C,SW1*%
X119170000Y-138180000D02*
X119170000Y-128020000D01*
X135630000Y-128020000D02*
X119170000Y-128020000D01*
X135630000Y-128020000D02*
X135630000Y-138180000D01*
X135630000Y-129800000D02*
X135630000Y-131350000D01*
X135630000Y-138180000D02*
X119170000Y-138180000D01*
D13*
X118460000Y-131530000D02*
G75*
G02*
X118260000Y-131530000I-100000J0D01*
G01*
X118260000Y-131530000D02*
G75*
G02*
X118460000Y-131530000I100000J0D01*
G01*
D11*
%TO.C,TP4*%
X170200000Y-114000000D02*
X173400000Y-114000000D01*
X170200000Y-116800000D02*
X170200000Y-114000000D01*
X173400000Y-114000000D02*
X173400000Y-116800000D01*
X173400000Y-116800000D02*
X170200000Y-116800000D01*
%TO.C,R19*%
X151265000Y-57614564D02*
X151265000Y-57160436D01*
X152735000Y-57614564D02*
X152735000Y-57160436D01*
%TO.C,C4*%
X143811252Y-81225000D02*
X143288748Y-81225000D01*
X143811252Y-82695000D02*
X143288748Y-82695000D01*
%TO.C,Q2*%
X165240000Y-61325000D02*
X165240000Y-60675000D01*
X165240000Y-61325000D02*
X165240000Y-63000000D01*
X168360000Y-61325000D02*
X168360000Y-60675000D01*
X168360000Y-61325000D02*
X168360000Y-61975000D01*
%TO.C,Q1*%
X161540000Y-61325000D02*
X161540000Y-60675000D01*
X161540000Y-61325000D02*
X161540000Y-63000000D01*
X164660000Y-61325000D02*
X164660000Y-60675000D01*
X164660000Y-61325000D02*
X164660000Y-61975000D01*
%TO.C,C6*%
X135715000Y-86073752D02*
X135715000Y-85551248D01*
X137185000Y-86073752D02*
X137185000Y-85551248D01*
%TO.C,D4*%
X126290000Y-61887500D02*
X126290000Y-64572500D01*
X126290000Y-64572500D02*
X128210000Y-64572500D01*
X128210000Y-64572500D02*
X128210000Y-61887500D01*
%TO.C,C1*%
X138811252Y-63765000D02*
X138288748Y-63765000D01*
X138811252Y-65235000D02*
X138288748Y-65235000D01*
%TO.C,R35*%
X125765000Y-72352064D02*
X125765000Y-71897936D01*
X127235000Y-72352064D02*
X127235000Y-71897936D01*
%TO.C,R40*%
X127415000Y-88564564D02*
X127415000Y-88110436D01*
X128885000Y-88564564D02*
X128885000Y-88110436D01*
%TO.C,R6*%
X154827064Y-69765000D02*
X154372936Y-69765000D01*
X154827064Y-71235000D02*
X154372936Y-71235000D01*
%TO.C,U7*%
X139440000Y-87082500D02*
X139440000Y-86282500D01*
X139440000Y-87082500D02*
X139440000Y-88882500D01*
X142560000Y-87082500D02*
X142560000Y-86282500D01*
X142560000Y-87082500D02*
X142560000Y-87882500D01*
%TO.C,R7*%
X133065000Y-78027064D02*
X133065000Y-77572936D01*
X134535000Y-78027064D02*
X134535000Y-77572936D01*
%TO.C,R3*%
X138265000Y-133261252D02*
X138265000Y-132738748D01*
X139735000Y-133261252D02*
X139735000Y-132738748D01*
%TO.C,R9*%
X168765000Y-66814564D02*
X168765000Y-66360436D01*
X170235000Y-66814564D02*
X170235000Y-66360436D01*
%TO.C,R32*%
X113765000Y-72352064D02*
X113765000Y-71897936D01*
X115235000Y-72352064D02*
X115235000Y-71897936D01*
%TO.C,R37*%
X116772936Y-107765000D02*
X117227064Y-107765000D01*
X116772936Y-109235000D02*
X117227064Y-109235000D01*
%TO.C,U4*%
X116730000Y-54477500D02*
X116730000Y-35237500D01*
X116730000Y-54477500D02*
X167270000Y-54477500D01*
X134650000Y-54857500D02*
X136650000Y-54857500D01*
X167270000Y-35237500D02*
X116730000Y-35237500D01*
X167270000Y-54477500D02*
X167270000Y-35237500D01*
%TD*%
M02*
