%TF.GenerationSoftware,KiCad,Pcbnew,8.0.0-8.0.0-1~ubuntu22.04.1*%
%TF.CreationDate,2024-03-10T23:44:55-06:00*%
%TF.ProjectId,Multimeter,4d756c74-696d-4657-9465-722e6b696361,rev?*%
%TF.SameCoordinates,Original*%
%TF.FileFunction,Soldermask,Top*%
%TF.FilePolarity,Negative*%
%FSLAX46Y46*%
G04 Gerber Fmt 4.6, Leading zero omitted, Abs format (unit mm)*
G04 Created by KiCad (PCBNEW 8.0.0-8.0.0-1~ubuntu22.04.1) date 2024-03-10 23:44:55*
%MOMM*%
%LPD*%
G01*
G04 APERTURE LIST*
G04 Aperture macros list*
%AMRoundRect*
0 Rectangle with rounded corners*
0 $1 Rounding radius*
0 $2 $3 $4 $5 $6 $7 $8 $9 X,Y pos of 4 corners*
0 Add a 4 corners polygon primitive as box body*
4,1,4,$2,$3,$4,$5,$6,$7,$8,$9,$2,$3,0*
0 Add four circle primitives for the rounded corners*
1,1,$1+$1,$2,$3*
1,1,$1+$1,$4,$5*
1,1,$1+$1,$6,$7*
1,1,$1+$1,$8,$9*
0 Add four rect primitives between the rounded corners*
20,1,$1+$1,$2,$3,$4,$5,0*
20,1,$1+$1,$4,$5,$6,$7,0*
20,1,$1+$1,$6,$7,$8,$9,0*
20,1,$1+$1,$8,$9,$2,$3,0*%
G04 Aperture macros list end*
%ADD10C,0.010000*%
%ADD11RoundRect,0.150000X0.150000X-0.587500X0.150000X0.587500X-0.150000X0.587500X-0.150000X-0.587500X0*%
%ADD12RoundRect,0.250000X0.450000X-0.350000X0.450000X0.350000X-0.450000X0.350000X-0.450000X-0.350000X0*%
%ADD13RoundRect,0.150000X-0.825000X-0.150000X0.825000X-0.150000X0.825000X0.150000X-0.825000X0.150000X0*%
%ADD14RoundRect,0.150000X0.150000X-0.875000X0.150000X0.875000X-0.150000X0.875000X-0.150000X-0.875000X0*%
%ADD15RoundRect,0.243750X0.456250X-0.243750X0.456250X0.243750X-0.456250X0.243750X-0.456250X-0.243750X0*%
%ADD16C,8.104000*%
%ADD17RoundRect,0.250000X-0.350000X-0.450000X0.350000X-0.450000X0.350000X0.450000X-0.350000X0.450000X0*%
%ADD18O,1.304000X2.004000*%
%ADD19O,1.254000X1.654000*%
%ADD20RoundRect,0.511200X0.340800X0.340800X-0.340800X0.340800X-0.340800X-0.340800X0.340800X-0.340800X0*%
%ADD21RoundRect,0.250000X-0.450000X0.350000X-0.450000X-0.350000X0.450000X-0.350000X0.450000X0.350000X0*%
%ADD22RoundRect,0.250000X0.350000X0.450000X-0.350000X0.450000X-0.350000X-0.450000X0.350000X-0.450000X0*%
%ADD23R,1.000000X0.400000*%
%ADD24C,0.800000*%
%ADD25C,5.400000*%
%ADD26RoundRect,0.250000X-0.475000X0.250000X-0.475000X-0.250000X0.475000X-0.250000X0.475000X0.250000X0*%
%ADD27R,1.500000X1.500000*%
%ADD28RoundRect,0.102000X-1.314450X-1.314450X1.314450X-1.314450X1.314450X1.314450X-1.314450X1.314450X0*%
%ADD29C,2.832900*%
%ADD30RoundRect,0.102000X-1.312500X-1.312500X1.312500X-1.312500X1.312500X1.312500X-1.312500X1.312500X0*%
%ADD31C,2.829000*%
%ADD32C,2.400000*%
%ADD33RoundRect,0.250000X0.250000X0.475000X-0.250000X0.475000X-0.250000X-0.475000X0.250000X-0.475000X0*%
%ADD34RoundRect,0.250000X0.475000X-0.250000X0.475000X0.250000X-0.475000X0.250000X-0.475000X-0.250000X0*%
%ADD35RoundRect,0.150000X0.150000X-0.512500X0.150000X0.512500X-0.150000X0.512500X-0.150000X-0.512500X0*%
%ADD36RoundRect,0.250000X0.475000X-0.337500X0.475000X0.337500X-0.475000X0.337500X-0.475000X-0.337500X0*%
%ADD37C,1.500000*%
G04 APERTURE END LIST*
D10*
%TO.C,U1*%
X147157000Y-92308500D02*
X147204000Y-92312500D01*
X147251000Y-92318500D01*
X147297000Y-92327500D01*
X147343000Y-92338500D01*
X147388000Y-92351500D01*
X147433000Y-92367500D01*
X147476000Y-92385500D01*
X147519000Y-92405500D01*
X147560000Y-92428500D01*
X147600000Y-92452500D01*
X147639000Y-92479500D01*
X147676000Y-92508500D01*
X147712000Y-92538500D01*
X147746000Y-92571500D01*
X147779000Y-92605500D01*
X147809000Y-92641500D01*
X147838000Y-92678500D01*
X147865000Y-92717500D01*
X147889000Y-92757500D01*
X147912000Y-92798500D01*
X147932000Y-92841500D01*
X147950000Y-92884500D01*
X147966000Y-92929500D01*
X147979000Y-92974500D01*
X147990000Y-93020500D01*
X147999000Y-93066500D01*
X148005000Y-93113500D01*
X148009000Y-93160500D01*
X148010000Y-93207500D01*
X148009000Y-93254500D01*
X148005000Y-93301500D01*
X147999000Y-93348500D01*
X147990000Y-93394500D01*
X147979000Y-93440500D01*
X147966000Y-93485500D01*
X147950000Y-93530500D01*
X147932000Y-93573500D01*
X147912000Y-93616500D01*
X147889000Y-93657500D01*
X147865000Y-93697500D01*
X147838000Y-93736500D01*
X147809000Y-93773500D01*
X147779000Y-93809500D01*
X147746000Y-93843500D01*
X147712000Y-93876500D01*
X147676000Y-93906500D01*
X147639000Y-93935500D01*
X147600000Y-93962500D01*
X147560000Y-93986500D01*
X147519000Y-94009500D01*
X147476000Y-94029500D01*
X147433000Y-94047500D01*
X147388000Y-94063500D01*
X147343000Y-94076500D01*
X147297000Y-94087500D01*
X147251000Y-94096500D01*
X147204000Y-94102500D01*
X147157000Y-94106500D01*
X147110000Y-94107500D01*
X144610000Y-94107500D01*
X144610000Y-92307500D01*
X147110000Y-92307500D01*
X147157000Y-92308500D01*
G36*
X147157000Y-92308500D02*
G01*
X147204000Y-92312500D01*
X147251000Y-92318500D01*
X147297000Y-92327500D01*
X147343000Y-92338500D01*
X147388000Y-92351500D01*
X147433000Y-92367500D01*
X147476000Y-92385500D01*
X147519000Y-92405500D01*
X147560000Y-92428500D01*
X147600000Y-92452500D01*
X147639000Y-92479500D01*
X147676000Y-92508500D01*
X147712000Y-92538500D01*
X147746000Y-92571500D01*
X147779000Y-92605500D01*
X147809000Y-92641500D01*
X147838000Y-92678500D01*
X147865000Y-92717500D01*
X147889000Y-92757500D01*
X147912000Y-92798500D01*
X147932000Y-92841500D01*
X147950000Y-92884500D01*
X147966000Y-92929500D01*
X147979000Y-92974500D01*
X147990000Y-93020500D01*
X147999000Y-93066500D01*
X148005000Y-93113500D01*
X148009000Y-93160500D01*
X148010000Y-93207500D01*
X148009000Y-93254500D01*
X148005000Y-93301500D01*
X147999000Y-93348500D01*
X147990000Y-93394500D01*
X147979000Y-93440500D01*
X147966000Y-93485500D01*
X147950000Y-93530500D01*
X147932000Y-93573500D01*
X147912000Y-93616500D01*
X147889000Y-93657500D01*
X147865000Y-93697500D01*
X147838000Y-93736500D01*
X147809000Y-93773500D01*
X147779000Y-93809500D01*
X147746000Y-93843500D01*
X147712000Y-93876500D01*
X147676000Y-93906500D01*
X147639000Y-93935500D01*
X147600000Y-93962500D01*
X147560000Y-93986500D01*
X147519000Y-94009500D01*
X147476000Y-94029500D01*
X147433000Y-94047500D01*
X147388000Y-94063500D01*
X147343000Y-94076500D01*
X147297000Y-94087500D01*
X147251000Y-94096500D01*
X147204000Y-94102500D01*
X147157000Y-94106500D01*
X147110000Y-94107500D01*
X144610000Y-94107500D01*
X144610000Y-92307500D01*
X147110000Y-92307500D01*
X147157000Y-92308500D01*
G37*
X147157000Y-94848500D02*
X147204000Y-94852500D01*
X147251000Y-94858500D01*
X147297000Y-94867500D01*
X147343000Y-94878500D01*
X147388000Y-94891500D01*
X147433000Y-94907500D01*
X147476000Y-94925500D01*
X147519000Y-94945500D01*
X147560000Y-94968500D01*
X147600000Y-94992500D01*
X147639000Y-95019500D01*
X147676000Y-95048500D01*
X147712000Y-95078500D01*
X147746000Y-95111500D01*
X147779000Y-95145500D01*
X147809000Y-95181500D01*
X147838000Y-95218500D01*
X147865000Y-95257500D01*
X147889000Y-95297500D01*
X147912000Y-95338500D01*
X147932000Y-95381500D01*
X147950000Y-95424500D01*
X147966000Y-95469500D01*
X147979000Y-95514500D01*
X147990000Y-95560500D01*
X147999000Y-95606500D01*
X148005000Y-95653500D01*
X148009000Y-95700500D01*
X148010000Y-95747500D01*
X148009000Y-95794500D01*
X148005000Y-95841500D01*
X147999000Y-95888500D01*
X147990000Y-95934500D01*
X147979000Y-95980500D01*
X147966000Y-96025500D01*
X147950000Y-96070500D01*
X147932000Y-96113500D01*
X147912000Y-96156500D01*
X147889000Y-96197500D01*
X147865000Y-96237500D01*
X147838000Y-96276500D01*
X147809000Y-96313500D01*
X147779000Y-96349500D01*
X147746000Y-96383500D01*
X147712000Y-96416500D01*
X147676000Y-96446500D01*
X147639000Y-96475500D01*
X147600000Y-96502500D01*
X147560000Y-96526500D01*
X147519000Y-96549500D01*
X147476000Y-96569500D01*
X147433000Y-96587500D01*
X147388000Y-96603500D01*
X147343000Y-96616500D01*
X147297000Y-96627500D01*
X147251000Y-96636500D01*
X147204000Y-96642500D01*
X147157000Y-96646500D01*
X147110000Y-96647500D01*
X144610000Y-96647500D01*
X144610000Y-94847500D01*
X147110000Y-94847500D01*
X147157000Y-94848500D01*
G36*
X147157000Y-94848500D02*
G01*
X147204000Y-94852500D01*
X147251000Y-94858500D01*
X147297000Y-94867500D01*
X147343000Y-94878500D01*
X147388000Y-94891500D01*
X147433000Y-94907500D01*
X147476000Y-94925500D01*
X147519000Y-94945500D01*
X147560000Y-94968500D01*
X147600000Y-94992500D01*
X147639000Y-95019500D01*
X147676000Y-95048500D01*
X147712000Y-95078500D01*
X147746000Y-95111500D01*
X147779000Y-95145500D01*
X147809000Y-95181500D01*
X147838000Y-95218500D01*
X147865000Y-95257500D01*
X147889000Y-95297500D01*
X147912000Y-95338500D01*
X147932000Y-95381500D01*
X147950000Y-95424500D01*
X147966000Y-95469500D01*
X147979000Y-95514500D01*
X147990000Y-95560500D01*
X147999000Y-95606500D01*
X148005000Y-95653500D01*
X148009000Y-95700500D01*
X148010000Y-95747500D01*
X148009000Y-95794500D01*
X148005000Y-95841500D01*
X147999000Y-95888500D01*
X147990000Y-95934500D01*
X147979000Y-95980500D01*
X147966000Y-96025500D01*
X147950000Y-96070500D01*
X147932000Y-96113500D01*
X147912000Y-96156500D01*
X147889000Y-96197500D01*
X147865000Y-96237500D01*
X147838000Y-96276500D01*
X147809000Y-96313500D01*
X147779000Y-96349500D01*
X147746000Y-96383500D01*
X147712000Y-96416500D01*
X147676000Y-96446500D01*
X147639000Y-96475500D01*
X147600000Y-96502500D01*
X147560000Y-96526500D01*
X147519000Y-96549500D01*
X147476000Y-96569500D01*
X147433000Y-96587500D01*
X147388000Y-96603500D01*
X147343000Y-96616500D01*
X147297000Y-96627500D01*
X147251000Y-96636500D01*
X147204000Y-96642500D01*
X147157000Y-96646500D01*
X147110000Y-96647500D01*
X144610000Y-96647500D01*
X144610000Y-94847500D01*
X147110000Y-94847500D01*
X147157000Y-94848500D01*
G37*
X147157000Y-99928500D02*
X147204000Y-99932500D01*
X147251000Y-99938500D01*
X147297000Y-99947500D01*
X147343000Y-99958500D01*
X147388000Y-99971500D01*
X147433000Y-99987500D01*
X147476000Y-100005500D01*
X147519000Y-100025500D01*
X147560000Y-100048500D01*
X147600000Y-100072500D01*
X147639000Y-100099500D01*
X147676000Y-100128500D01*
X147712000Y-100158500D01*
X147746000Y-100191500D01*
X147779000Y-100225500D01*
X147809000Y-100261500D01*
X147838000Y-100298500D01*
X147865000Y-100337500D01*
X147889000Y-100377500D01*
X147912000Y-100418500D01*
X147932000Y-100461500D01*
X147950000Y-100504500D01*
X147966000Y-100549500D01*
X147979000Y-100594500D01*
X147990000Y-100640500D01*
X147999000Y-100686500D01*
X148005000Y-100733500D01*
X148009000Y-100780500D01*
X148010000Y-100827500D01*
X148009000Y-100874500D01*
X148005000Y-100921500D01*
X147999000Y-100968500D01*
X147990000Y-101014500D01*
X147979000Y-101060500D01*
X147966000Y-101105500D01*
X147950000Y-101150500D01*
X147932000Y-101193500D01*
X147912000Y-101236500D01*
X147889000Y-101277500D01*
X147865000Y-101317500D01*
X147838000Y-101356500D01*
X147809000Y-101393500D01*
X147779000Y-101429500D01*
X147746000Y-101463500D01*
X147712000Y-101496500D01*
X147676000Y-101526500D01*
X147639000Y-101555500D01*
X147600000Y-101582500D01*
X147560000Y-101606500D01*
X147519000Y-101629500D01*
X147476000Y-101649500D01*
X147433000Y-101667500D01*
X147388000Y-101683500D01*
X147343000Y-101696500D01*
X147297000Y-101707500D01*
X147251000Y-101716500D01*
X147204000Y-101722500D01*
X147157000Y-101726500D01*
X147110000Y-101727500D01*
X144610000Y-101727500D01*
X144610000Y-99927500D01*
X147110000Y-99927500D01*
X147157000Y-99928500D01*
G36*
X147157000Y-99928500D02*
G01*
X147204000Y-99932500D01*
X147251000Y-99938500D01*
X147297000Y-99947500D01*
X147343000Y-99958500D01*
X147388000Y-99971500D01*
X147433000Y-99987500D01*
X147476000Y-100005500D01*
X147519000Y-100025500D01*
X147560000Y-100048500D01*
X147600000Y-100072500D01*
X147639000Y-100099500D01*
X147676000Y-100128500D01*
X147712000Y-100158500D01*
X147746000Y-100191500D01*
X147779000Y-100225500D01*
X147809000Y-100261500D01*
X147838000Y-100298500D01*
X147865000Y-100337500D01*
X147889000Y-100377500D01*
X147912000Y-100418500D01*
X147932000Y-100461500D01*
X147950000Y-100504500D01*
X147966000Y-100549500D01*
X147979000Y-100594500D01*
X147990000Y-100640500D01*
X147999000Y-100686500D01*
X148005000Y-100733500D01*
X148009000Y-100780500D01*
X148010000Y-100827500D01*
X148009000Y-100874500D01*
X148005000Y-100921500D01*
X147999000Y-100968500D01*
X147990000Y-101014500D01*
X147979000Y-101060500D01*
X147966000Y-101105500D01*
X147950000Y-101150500D01*
X147932000Y-101193500D01*
X147912000Y-101236500D01*
X147889000Y-101277500D01*
X147865000Y-101317500D01*
X147838000Y-101356500D01*
X147809000Y-101393500D01*
X147779000Y-101429500D01*
X147746000Y-101463500D01*
X147712000Y-101496500D01*
X147676000Y-101526500D01*
X147639000Y-101555500D01*
X147600000Y-101582500D01*
X147560000Y-101606500D01*
X147519000Y-101629500D01*
X147476000Y-101649500D01*
X147433000Y-101667500D01*
X147388000Y-101683500D01*
X147343000Y-101696500D01*
X147297000Y-101707500D01*
X147251000Y-101716500D01*
X147204000Y-101722500D01*
X147157000Y-101726500D01*
X147110000Y-101727500D01*
X144610000Y-101727500D01*
X144610000Y-99927500D01*
X147110000Y-99927500D01*
X147157000Y-99928500D01*
G37*
X147157000Y-102468500D02*
X147204000Y-102472500D01*
X147251000Y-102478500D01*
X147297000Y-102487500D01*
X147343000Y-102498500D01*
X147388000Y-102511500D01*
X147433000Y-102527500D01*
X147476000Y-102545500D01*
X147519000Y-102565500D01*
X147560000Y-102588500D01*
X147600000Y-102612500D01*
X147639000Y-102639500D01*
X147676000Y-102668500D01*
X147712000Y-102698500D01*
X147746000Y-102731500D01*
X147779000Y-102765500D01*
X147809000Y-102801500D01*
X147838000Y-102838500D01*
X147865000Y-102877500D01*
X147889000Y-102917500D01*
X147912000Y-102958500D01*
X147932000Y-103001500D01*
X147950000Y-103044500D01*
X147966000Y-103089500D01*
X147979000Y-103134500D01*
X147990000Y-103180500D01*
X147999000Y-103226500D01*
X148005000Y-103273500D01*
X148009000Y-103320500D01*
X148010000Y-103367500D01*
X148009000Y-103414500D01*
X148005000Y-103461500D01*
X147999000Y-103508500D01*
X147990000Y-103554500D01*
X147979000Y-103600500D01*
X147966000Y-103645500D01*
X147950000Y-103690500D01*
X147932000Y-103733500D01*
X147912000Y-103776500D01*
X147889000Y-103817500D01*
X147865000Y-103857500D01*
X147838000Y-103896500D01*
X147809000Y-103933500D01*
X147779000Y-103969500D01*
X147746000Y-104003500D01*
X147712000Y-104036500D01*
X147676000Y-104066500D01*
X147639000Y-104095500D01*
X147600000Y-104122500D01*
X147560000Y-104146500D01*
X147519000Y-104169500D01*
X147476000Y-104189500D01*
X147433000Y-104207500D01*
X147388000Y-104223500D01*
X147343000Y-104236500D01*
X147297000Y-104247500D01*
X147251000Y-104256500D01*
X147204000Y-104262500D01*
X147157000Y-104266500D01*
X147110000Y-104267500D01*
X144610000Y-104267500D01*
X144610000Y-102467500D01*
X147110000Y-102467500D01*
X147157000Y-102468500D01*
G36*
X147157000Y-102468500D02*
G01*
X147204000Y-102472500D01*
X147251000Y-102478500D01*
X147297000Y-102487500D01*
X147343000Y-102498500D01*
X147388000Y-102511500D01*
X147433000Y-102527500D01*
X147476000Y-102545500D01*
X147519000Y-102565500D01*
X147560000Y-102588500D01*
X147600000Y-102612500D01*
X147639000Y-102639500D01*
X147676000Y-102668500D01*
X147712000Y-102698500D01*
X147746000Y-102731500D01*
X147779000Y-102765500D01*
X147809000Y-102801500D01*
X147838000Y-102838500D01*
X147865000Y-102877500D01*
X147889000Y-102917500D01*
X147912000Y-102958500D01*
X147932000Y-103001500D01*
X147950000Y-103044500D01*
X147966000Y-103089500D01*
X147979000Y-103134500D01*
X147990000Y-103180500D01*
X147999000Y-103226500D01*
X148005000Y-103273500D01*
X148009000Y-103320500D01*
X148010000Y-103367500D01*
X148009000Y-103414500D01*
X148005000Y-103461500D01*
X147999000Y-103508500D01*
X147990000Y-103554500D01*
X147979000Y-103600500D01*
X147966000Y-103645500D01*
X147950000Y-103690500D01*
X147932000Y-103733500D01*
X147912000Y-103776500D01*
X147889000Y-103817500D01*
X147865000Y-103857500D01*
X147838000Y-103896500D01*
X147809000Y-103933500D01*
X147779000Y-103969500D01*
X147746000Y-104003500D01*
X147712000Y-104036500D01*
X147676000Y-104066500D01*
X147639000Y-104095500D01*
X147600000Y-104122500D01*
X147560000Y-104146500D01*
X147519000Y-104169500D01*
X147476000Y-104189500D01*
X147433000Y-104207500D01*
X147388000Y-104223500D01*
X147343000Y-104236500D01*
X147297000Y-104247500D01*
X147251000Y-104256500D01*
X147204000Y-104262500D01*
X147157000Y-104266500D01*
X147110000Y-104267500D01*
X144610000Y-104267500D01*
X144610000Y-102467500D01*
X147110000Y-102467500D01*
X147157000Y-102468500D01*
G37*
X147157000Y-105008500D02*
X147204000Y-105012500D01*
X147251000Y-105018500D01*
X147297000Y-105027500D01*
X147343000Y-105038500D01*
X147388000Y-105051500D01*
X147433000Y-105067500D01*
X147476000Y-105085500D01*
X147519000Y-105105500D01*
X147560000Y-105128500D01*
X147600000Y-105152500D01*
X147639000Y-105179500D01*
X147676000Y-105208500D01*
X147712000Y-105238500D01*
X147746000Y-105271500D01*
X147779000Y-105305500D01*
X147809000Y-105341500D01*
X147838000Y-105378500D01*
X147865000Y-105417500D01*
X147889000Y-105457500D01*
X147912000Y-105498500D01*
X147932000Y-105541500D01*
X147950000Y-105584500D01*
X147966000Y-105629500D01*
X147979000Y-105674500D01*
X147990000Y-105720500D01*
X147999000Y-105766500D01*
X148005000Y-105813500D01*
X148009000Y-105860500D01*
X148010000Y-105907500D01*
X148009000Y-105954500D01*
X148005000Y-106001500D01*
X147999000Y-106048500D01*
X147990000Y-106094500D01*
X147979000Y-106140500D01*
X147966000Y-106185500D01*
X147950000Y-106230500D01*
X147932000Y-106273500D01*
X147912000Y-106316500D01*
X147889000Y-106357500D01*
X147865000Y-106397500D01*
X147838000Y-106436500D01*
X147809000Y-106473500D01*
X147779000Y-106509500D01*
X147746000Y-106543500D01*
X147712000Y-106576500D01*
X147676000Y-106606500D01*
X147639000Y-106635500D01*
X147600000Y-106662500D01*
X147560000Y-106686500D01*
X147519000Y-106709500D01*
X147476000Y-106729500D01*
X147433000Y-106747500D01*
X147388000Y-106763500D01*
X147343000Y-106776500D01*
X147297000Y-106787500D01*
X147251000Y-106796500D01*
X147204000Y-106802500D01*
X147157000Y-106806500D01*
X147110000Y-106807500D01*
X144610000Y-106807500D01*
X144610000Y-105007500D01*
X147110000Y-105007500D01*
X147157000Y-105008500D01*
G36*
X147157000Y-105008500D02*
G01*
X147204000Y-105012500D01*
X147251000Y-105018500D01*
X147297000Y-105027500D01*
X147343000Y-105038500D01*
X147388000Y-105051500D01*
X147433000Y-105067500D01*
X147476000Y-105085500D01*
X147519000Y-105105500D01*
X147560000Y-105128500D01*
X147600000Y-105152500D01*
X147639000Y-105179500D01*
X147676000Y-105208500D01*
X147712000Y-105238500D01*
X147746000Y-105271500D01*
X147779000Y-105305500D01*
X147809000Y-105341500D01*
X147838000Y-105378500D01*
X147865000Y-105417500D01*
X147889000Y-105457500D01*
X147912000Y-105498500D01*
X147932000Y-105541500D01*
X147950000Y-105584500D01*
X147966000Y-105629500D01*
X147979000Y-105674500D01*
X147990000Y-105720500D01*
X147999000Y-105766500D01*
X148005000Y-105813500D01*
X148009000Y-105860500D01*
X148010000Y-105907500D01*
X148009000Y-105954500D01*
X148005000Y-106001500D01*
X147999000Y-106048500D01*
X147990000Y-106094500D01*
X147979000Y-106140500D01*
X147966000Y-106185500D01*
X147950000Y-106230500D01*
X147932000Y-106273500D01*
X147912000Y-106316500D01*
X147889000Y-106357500D01*
X147865000Y-106397500D01*
X147838000Y-106436500D01*
X147809000Y-106473500D01*
X147779000Y-106509500D01*
X147746000Y-106543500D01*
X147712000Y-106576500D01*
X147676000Y-106606500D01*
X147639000Y-106635500D01*
X147600000Y-106662500D01*
X147560000Y-106686500D01*
X147519000Y-106709500D01*
X147476000Y-106729500D01*
X147433000Y-106747500D01*
X147388000Y-106763500D01*
X147343000Y-106776500D01*
X147297000Y-106787500D01*
X147251000Y-106796500D01*
X147204000Y-106802500D01*
X147157000Y-106806500D01*
X147110000Y-106807500D01*
X144610000Y-106807500D01*
X144610000Y-105007500D01*
X147110000Y-105007500D01*
X147157000Y-105008500D01*
G37*
X147157000Y-107548500D02*
X147204000Y-107552500D01*
X147251000Y-107558500D01*
X147297000Y-107567500D01*
X147343000Y-107578500D01*
X147388000Y-107591500D01*
X147433000Y-107607500D01*
X147476000Y-107625500D01*
X147519000Y-107645500D01*
X147560000Y-107668500D01*
X147600000Y-107692500D01*
X147639000Y-107719500D01*
X147676000Y-107748500D01*
X147712000Y-107778500D01*
X147746000Y-107811500D01*
X147779000Y-107845500D01*
X147809000Y-107881500D01*
X147838000Y-107918500D01*
X147865000Y-107957500D01*
X147889000Y-107997500D01*
X147912000Y-108038500D01*
X147932000Y-108081500D01*
X147950000Y-108124500D01*
X147966000Y-108169500D01*
X147979000Y-108214500D01*
X147990000Y-108260500D01*
X147999000Y-108306500D01*
X148005000Y-108353500D01*
X148009000Y-108400500D01*
X148010000Y-108447500D01*
X148009000Y-108494500D01*
X148005000Y-108541500D01*
X147999000Y-108588500D01*
X147990000Y-108634500D01*
X147979000Y-108680500D01*
X147966000Y-108725500D01*
X147950000Y-108770500D01*
X147932000Y-108813500D01*
X147912000Y-108856500D01*
X147889000Y-108897500D01*
X147865000Y-108937500D01*
X147838000Y-108976500D01*
X147809000Y-109013500D01*
X147779000Y-109049500D01*
X147746000Y-109083500D01*
X147712000Y-109116500D01*
X147676000Y-109146500D01*
X147639000Y-109175500D01*
X147600000Y-109202500D01*
X147560000Y-109226500D01*
X147519000Y-109249500D01*
X147476000Y-109269500D01*
X147433000Y-109287500D01*
X147388000Y-109303500D01*
X147343000Y-109316500D01*
X147297000Y-109327500D01*
X147251000Y-109336500D01*
X147204000Y-109342500D01*
X147157000Y-109346500D01*
X147110000Y-109347500D01*
X144610000Y-109347500D01*
X144610000Y-107547500D01*
X147110000Y-107547500D01*
X147157000Y-107548500D01*
G36*
X147157000Y-107548500D02*
G01*
X147204000Y-107552500D01*
X147251000Y-107558500D01*
X147297000Y-107567500D01*
X147343000Y-107578500D01*
X147388000Y-107591500D01*
X147433000Y-107607500D01*
X147476000Y-107625500D01*
X147519000Y-107645500D01*
X147560000Y-107668500D01*
X147600000Y-107692500D01*
X147639000Y-107719500D01*
X147676000Y-107748500D01*
X147712000Y-107778500D01*
X147746000Y-107811500D01*
X147779000Y-107845500D01*
X147809000Y-107881500D01*
X147838000Y-107918500D01*
X147865000Y-107957500D01*
X147889000Y-107997500D01*
X147912000Y-108038500D01*
X147932000Y-108081500D01*
X147950000Y-108124500D01*
X147966000Y-108169500D01*
X147979000Y-108214500D01*
X147990000Y-108260500D01*
X147999000Y-108306500D01*
X148005000Y-108353500D01*
X148009000Y-108400500D01*
X148010000Y-108447500D01*
X148009000Y-108494500D01*
X148005000Y-108541500D01*
X147999000Y-108588500D01*
X147990000Y-108634500D01*
X147979000Y-108680500D01*
X147966000Y-108725500D01*
X147950000Y-108770500D01*
X147932000Y-108813500D01*
X147912000Y-108856500D01*
X147889000Y-108897500D01*
X147865000Y-108937500D01*
X147838000Y-108976500D01*
X147809000Y-109013500D01*
X147779000Y-109049500D01*
X147746000Y-109083500D01*
X147712000Y-109116500D01*
X147676000Y-109146500D01*
X147639000Y-109175500D01*
X147600000Y-109202500D01*
X147560000Y-109226500D01*
X147519000Y-109249500D01*
X147476000Y-109269500D01*
X147433000Y-109287500D01*
X147388000Y-109303500D01*
X147343000Y-109316500D01*
X147297000Y-109327500D01*
X147251000Y-109336500D01*
X147204000Y-109342500D01*
X147157000Y-109346500D01*
X147110000Y-109347500D01*
X144610000Y-109347500D01*
X144610000Y-107547500D01*
X147110000Y-107547500D01*
X147157000Y-107548500D01*
G37*
X147157000Y-112628500D02*
X147204000Y-112632500D01*
X147251000Y-112638500D01*
X147297000Y-112647500D01*
X147343000Y-112658500D01*
X147388000Y-112671500D01*
X147433000Y-112687500D01*
X147476000Y-112705500D01*
X147519000Y-112725500D01*
X147560000Y-112748500D01*
X147600000Y-112772500D01*
X147639000Y-112799500D01*
X147676000Y-112828500D01*
X147712000Y-112858500D01*
X147746000Y-112891500D01*
X147779000Y-112925500D01*
X147809000Y-112961500D01*
X147838000Y-112998500D01*
X147865000Y-113037500D01*
X147889000Y-113077500D01*
X147912000Y-113118500D01*
X147932000Y-113161500D01*
X147950000Y-113204500D01*
X147966000Y-113249500D01*
X147979000Y-113294500D01*
X147990000Y-113340500D01*
X147999000Y-113386500D01*
X148005000Y-113433500D01*
X148009000Y-113480500D01*
X148010000Y-113527500D01*
X148009000Y-113574500D01*
X148005000Y-113621500D01*
X147999000Y-113668500D01*
X147990000Y-113714500D01*
X147979000Y-113760500D01*
X147966000Y-113805500D01*
X147950000Y-113850500D01*
X147932000Y-113893500D01*
X147912000Y-113936500D01*
X147889000Y-113977500D01*
X147865000Y-114017500D01*
X147838000Y-114056500D01*
X147809000Y-114093500D01*
X147779000Y-114129500D01*
X147746000Y-114163500D01*
X147712000Y-114196500D01*
X147676000Y-114226500D01*
X147639000Y-114255500D01*
X147600000Y-114282500D01*
X147560000Y-114306500D01*
X147519000Y-114329500D01*
X147476000Y-114349500D01*
X147433000Y-114367500D01*
X147388000Y-114383500D01*
X147343000Y-114396500D01*
X147297000Y-114407500D01*
X147251000Y-114416500D01*
X147204000Y-114422500D01*
X147157000Y-114426500D01*
X147110000Y-114427500D01*
X144610000Y-114427500D01*
X144610000Y-112627500D01*
X147110000Y-112627500D01*
X147157000Y-112628500D01*
G36*
X147157000Y-112628500D02*
G01*
X147204000Y-112632500D01*
X147251000Y-112638500D01*
X147297000Y-112647500D01*
X147343000Y-112658500D01*
X147388000Y-112671500D01*
X147433000Y-112687500D01*
X147476000Y-112705500D01*
X147519000Y-112725500D01*
X147560000Y-112748500D01*
X147600000Y-112772500D01*
X147639000Y-112799500D01*
X147676000Y-112828500D01*
X147712000Y-112858500D01*
X147746000Y-112891500D01*
X147779000Y-112925500D01*
X147809000Y-112961500D01*
X147838000Y-112998500D01*
X147865000Y-113037500D01*
X147889000Y-113077500D01*
X147912000Y-113118500D01*
X147932000Y-113161500D01*
X147950000Y-113204500D01*
X147966000Y-113249500D01*
X147979000Y-113294500D01*
X147990000Y-113340500D01*
X147999000Y-113386500D01*
X148005000Y-113433500D01*
X148009000Y-113480500D01*
X148010000Y-113527500D01*
X148009000Y-113574500D01*
X148005000Y-113621500D01*
X147999000Y-113668500D01*
X147990000Y-113714500D01*
X147979000Y-113760500D01*
X147966000Y-113805500D01*
X147950000Y-113850500D01*
X147932000Y-113893500D01*
X147912000Y-113936500D01*
X147889000Y-113977500D01*
X147865000Y-114017500D01*
X147838000Y-114056500D01*
X147809000Y-114093500D01*
X147779000Y-114129500D01*
X147746000Y-114163500D01*
X147712000Y-114196500D01*
X147676000Y-114226500D01*
X147639000Y-114255500D01*
X147600000Y-114282500D01*
X147560000Y-114306500D01*
X147519000Y-114329500D01*
X147476000Y-114349500D01*
X147433000Y-114367500D01*
X147388000Y-114383500D01*
X147343000Y-114396500D01*
X147297000Y-114407500D01*
X147251000Y-114416500D01*
X147204000Y-114422500D01*
X147157000Y-114426500D01*
X147110000Y-114427500D01*
X144610000Y-114427500D01*
X144610000Y-112627500D01*
X147110000Y-112627500D01*
X147157000Y-112628500D01*
G37*
X147157000Y-115168500D02*
X147204000Y-115172500D01*
X147251000Y-115178500D01*
X147297000Y-115187500D01*
X147343000Y-115198500D01*
X147388000Y-115211500D01*
X147433000Y-115227500D01*
X147476000Y-115245500D01*
X147519000Y-115265500D01*
X147560000Y-115288500D01*
X147600000Y-115312500D01*
X147639000Y-115339500D01*
X147676000Y-115368500D01*
X147712000Y-115398500D01*
X147746000Y-115431500D01*
X147779000Y-115465500D01*
X147809000Y-115501500D01*
X147838000Y-115538500D01*
X147865000Y-115577500D01*
X147889000Y-115617500D01*
X147912000Y-115658500D01*
X147932000Y-115701500D01*
X147950000Y-115744500D01*
X147966000Y-115789500D01*
X147979000Y-115834500D01*
X147990000Y-115880500D01*
X147999000Y-115926500D01*
X148005000Y-115973500D01*
X148009000Y-116020500D01*
X148010000Y-116067500D01*
X148009000Y-116114500D01*
X148005000Y-116161500D01*
X147999000Y-116208500D01*
X147990000Y-116254500D01*
X147979000Y-116300500D01*
X147966000Y-116345500D01*
X147950000Y-116390500D01*
X147932000Y-116433500D01*
X147912000Y-116476500D01*
X147889000Y-116517500D01*
X147865000Y-116557500D01*
X147838000Y-116596500D01*
X147809000Y-116633500D01*
X147779000Y-116669500D01*
X147746000Y-116703500D01*
X147712000Y-116736500D01*
X147676000Y-116766500D01*
X147639000Y-116795500D01*
X147600000Y-116822500D01*
X147560000Y-116846500D01*
X147519000Y-116869500D01*
X147476000Y-116889500D01*
X147433000Y-116907500D01*
X147388000Y-116923500D01*
X147343000Y-116936500D01*
X147297000Y-116947500D01*
X147251000Y-116956500D01*
X147204000Y-116962500D01*
X147157000Y-116966500D01*
X147110000Y-116967500D01*
X144610000Y-116967500D01*
X144610000Y-115167500D01*
X147110000Y-115167500D01*
X147157000Y-115168500D01*
G36*
X147157000Y-115168500D02*
G01*
X147204000Y-115172500D01*
X147251000Y-115178500D01*
X147297000Y-115187500D01*
X147343000Y-115198500D01*
X147388000Y-115211500D01*
X147433000Y-115227500D01*
X147476000Y-115245500D01*
X147519000Y-115265500D01*
X147560000Y-115288500D01*
X147600000Y-115312500D01*
X147639000Y-115339500D01*
X147676000Y-115368500D01*
X147712000Y-115398500D01*
X147746000Y-115431500D01*
X147779000Y-115465500D01*
X147809000Y-115501500D01*
X147838000Y-115538500D01*
X147865000Y-115577500D01*
X147889000Y-115617500D01*
X147912000Y-115658500D01*
X147932000Y-115701500D01*
X147950000Y-115744500D01*
X147966000Y-115789500D01*
X147979000Y-115834500D01*
X147990000Y-115880500D01*
X147999000Y-115926500D01*
X148005000Y-115973500D01*
X148009000Y-116020500D01*
X148010000Y-116067500D01*
X148009000Y-116114500D01*
X148005000Y-116161500D01*
X147999000Y-116208500D01*
X147990000Y-116254500D01*
X147979000Y-116300500D01*
X147966000Y-116345500D01*
X147950000Y-116390500D01*
X147932000Y-116433500D01*
X147912000Y-116476500D01*
X147889000Y-116517500D01*
X147865000Y-116557500D01*
X147838000Y-116596500D01*
X147809000Y-116633500D01*
X147779000Y-116669500D01*
X147746000Y-116703500D01*
X147712000Y-116736500D01*
X147676000Y-116766500D01*
X147639000Y-116795500D01*
X147600000Y-116822500D01*
X147560000Y-116846500D01*
X147519000Y-116869500D01*
X147476000Y-116889500D01*
X147433000Y-116907500D01*
X147388000Y-116923500D01*
X147343000Y-116936500D01*
X147297000Y-116947500D01*
X147251000Y-116956500D01*
X147204000Y-116962500D01*
X147157000Y-116966500D01*
X147110000Y-116967500D01*
X144610000Y-116967500D01*
X144610000Y-115167500D01*
X147110000Y-115167500D01*
X147157000Y-115168500D01*
G37*
X147157000Y-117708500D02*
X147204000Y-117712500D01*
X147251000Y-117718500D01*
X147297000Y-117727500D01*
X147343000Y-117738500D01*
X147388000Y-117751500D01*
X147433000Y-117767500D01*
X147476000Y-117785500D01*
X147519000Y-117805500D01*
X147560000Y-117828500D01*
X147600000Y-117852500D01*
X147639000Y-117879500D01*
X147676000Y-117908500D01*
X147712000Y-117938500D01*
X147746000Y-117971500D01*
X147779000Y-118005500D01*
X147809000Y-118041500D01*
X147838000Y-118078500D01*
X147865000Y-118117500D01*
X147889000Y-118157500D01*
X147912000Y-118198500D01*
X147932000Y-118241500D01*
X147950000Y-118284500D01*
X147966000Y-118329500D01*
X147979000Y-118374500D01*
X147990000Y-118420500D01*
X147999000Y-118466500D01*
X148005000Y-118513500D01*
X148009000Y-118560500D01*
X148010000Y-118607500D01*
X148009000Y-118654500D01*
X148005000Y-118701500D01*
X147999000Y-118748500D01*
X147990000Y-118794500D01*
X147979000Y-118840500D01*
X147966000Y-118885500D01*
X147950000Y-118930500D01*
X147932000Y-118973500D01*
X147912000Y-119016500D01*
X147889000Y-119057500D01*
X147865000Y-119097500D01*
X147838000Y-119136500D01*
X147809000Y-119173500D01*
X147779000Y-119209500D01*
X147746000Y-119243500D01*
X147712000Y-119276500D01*
X147676000Y-119306500D01*
X147639000Y-119335500D01*
X147600000Y-119362500D01*
X147560000Y-119386500D01*
X147519000Y-119409500D01*
X147476000Y-119429500D01*
X147433000Y-119447500D01*
X147388000Y-119463500D01*
X147343000Y-119476500D01*
X147297000Y-119487500D01*
X147251000Y-119496500D01*
X147204000Y-119502500D01*
X147157000Y-119506500D01*
X147110000Y-119507500D01*
X144610000Y-119507500D01*
X144610000Y-117707500D01*
X147110000Y-117707500D01*
X147157000Y-117708500D01*
G36*
X147157000Y-117708500D02*
G01*
X147204000Y-117712500D01*
X147251000Y-117718500D01*
X147297000Y-117727500D01*
X147343000Y-117738500D01*
X147388000Y-117751500D01*
X147433000Y-117767500D01*
X147476000Y-117785500D01*
X147519000Y-117805500D01*
X147560000Y-117828500D01*
X147600000Y-117852500D01*
X147639000Y-117879500D01*
X147676000Y-117908500D01*
X147712000Y-117938500D01*
X147746000Y-117971500D01*
X147779000Y-118005500D01*
X147809000Y-118041500D01*
X147838000Y-118078500D01*
X147865000Y-118117500D01*
X147889000Y-118157500D01*
X147912000Y-118198500D01*
X147932000Y-118241500D01*
X147950000Y-118284500D01*
X147966000Y-118329500D01*
X147979000Y-118374500D01*
X147990000Y-118420500D01*
X147999000Y-118466500D01*
X148005000Y-118513500D01*
X148009000Y-118560500D01*
X148010000Y-118607500D01*
X148009000Y-118654500D01*
X148005000Y-118701500D01*
X147999000Y-118748500D01*
X147990000Y-118794500D01*
X147979000Y-118840500D01*
X147966000Y-118885500D01*
X147950000Y-118930500D01*
X147932000Y-118973500D01*
X147912000Y-119016500D01*
X147889000Y-119057500D01*
X147865000Y-119097500D01*
X147838000Y-119136500D01*
X147809000Y-119173500D01*
X147779000Y-119209500D01*
X147746000Y-119243500D01*
X147712000Y-119276500D01*
X147676000Y-119306500D01*
X147639000Y-119335500D01*
X147600000Y-119362500D01*
X147560000Y-119386500D01*
X147519000Y-119409500D01*
X147476000Y-119429500D01*
X147433000Y-119447500D01*
X147388000Y-119463500D01*
X147343000Y-119476500D01*
X147297000Y-119487500D01*
X147251000Y-119496500D01*
X147204000Y-119502500D01*
X147157000Y-119506500D01*
X147110000Y-119507500D01*
X144610000Y-119507500D01*
X144610000Y-117707500D01*
X147110000Y-117707500D01*
X147157000Y-117708500D01*
G37*
X147157000Y-120248500D02*
X147204000Y-120252500D01*
X147251000Y-120258500D01*
X147297000Y-120267500D01*
X147343000Y-120278500D01*
X147388000Y-120291500D01*
X147433000Y-120307500D01*
X147476000Y-120325500D01*
X147519000Y-120345500D01*
X147560000Y-120368500D01*
X147600000Y-120392500D01*
X147639000Y-120419500D01*
X147676000Y-120448500D01*
X147712000Y-120478500D01*
X147746000Y-120511500D01*
X147779000Y-120545500D01*
X147809000Y-120581500D01*
X147838000Y-120618500D01*
X147865000Y-120657500D01*
X147889000Y-120697500D01*
X147912000Y-120738500D01*
X147932000Y-120781500D01*
X147950000Y-120824500D01*
X147966000Y-120869500D01*
X147979000Y-120914500D01*
X147990000Y-120960500D01*
X147999000Y-121006500D01*
X148005000Y-121053500D01*
X148009000Y-121100500D01*
X148010000Y-121147500D01*
X148009000Y-121194500D01*
X148005000Y-121241500D01*
X147999000Y-121288500D01*
X147990000Y-121334500D01*
X147979000Y-121380500D01*
X147966000Y-121425500D01*
X147950000Y-121470500D01*
X147932000Y-121513500D01*
X147912000Y-121556500D01*
X147889000Y-121597500D01*
X147865000Y-121637500D01*
X147838000Y-121676500D01*
X147809000Y-121713500D01*
X147779000Y-121749500D01*
X147746000Y-121783500D01*
X147712000Y-121816500D01*
X147676000Y-121846500D01*
X147639000Y-121875500D01*
X147600000Y-121902500D01*
X147560000Y-121926500D01*
X147519000Y-121949500D01*
X147476000Y-121969500D01*
X147433000Y-121987500D01*
X147388000Y-122003500D01*
X147343000Y-122016500D01*
X147297000Y-122027500D01*
X147251000Y-122036500D01*
X147204000Y-122042500D01*
X147157000Y-122046500D01*
X147110000Y-122047500D01*
X144610000Y-122047500D01*
X144610000Y-120247500D01*
X147110000Y-120247500D01*
X147157000Y-120248500D01*
G36*
X147157000Y-120248500D02*
G01*
X147204000Y-120252500D01*
X147251000Y-120258500D01*
X147297000Y-120267500D01*
X147343000Y-120278500D01*
X147388000Y-120291500D01*
X147433000Y-120307500D01*
X147476000Y-120325500D01*
X147519000Y-120345500D01*
X147560000Y-120368500D01*
X147600000Y-120392500D01*
X147639000Y-120419500D01*
X147676000Y-120448500D01*
X147712000Y-120478500D01*
X147746000Y-120511500D01*
X147779000Y-120545500D01*
X147809000Y-120581500D01*
X147838000Y-120618500D01*
X147865000Y-120657500D01*
X147889000Y-120697500D01*
X147912000Y-120738500D01*
X147932000Y-120781500D01*
X147950000Y-120824500D01*
X147966000Y-120869500D01*
X147979000Y-120914500D01*
X147990000Y-120960500D01*
X147999000Y-121006500D01*
X148005000Y-121053500D01*
X148009000Y-121100500D01*
X148010000Y-121147500D01*
X148009000Y-121194500D01*
X148005000Y-121241500D01*
X147999000Y-121288500D01*
X147990000Y-121334500D01*
X147979000Y-121380500D01*
X147966000Y-121425500D01*
X147950000Y-121470500D01*
X147932000Y-121513500D01*
X147912000Y-121556500D01*
X147889000Y-121597500D01*
X147865000Y-121637500D01*
X147838000Y-121676500D01*
X147809000Y-121713500D01*
X147779000Y-121749500D01*
X147746000Y-121783500D01*
X147712000Y-121816500D01*
X147676000Y-121846500D01*
X147639000Y-121875500D01*
X147600000Y-121902500D01*
X147560000Y-121926500D01*
X147519000Y-121949500D01*
X147476000Y-121969500D01*
X147433000Y-121987500D01*
X147388000Y-122003500D01*
X147343000Y-122016500D01*
X147297000Y-122027500D01*
X147251000Y-122036500D01*
X147204000Y-122042500D01*
X147157000Y-122046500D01*
X147110000Y-122047500D01*
X144610000Y-122047500D01*
X144610000Y-120247500D01*
X147110000Y-120247500D01*
X147157000Y-120248500D01*
G37*
X147157000Y-125328500D02*
X147204000Y-125332500D01*
X147251000Y-125338500D01*
X147297000Y-125347500D01*
X147343000Y-125358500D01*
X147388000Y-125371500D01*
X147433000Y-125387500D01*
X147476000Y-125405500D01*
X147519000Y-125425500D01*
X147560000Y-125448500D01*
X147600000Y-125472500D01*
X147639000Y-125499500D01*
X147676000Y-125528500D01*
X147712000Y-125558500D01*
X147746000Y-125591500D01*
X147779000Y-125625500D01*
X147809000Y-125661500D01*
X147838000Y-125698500D01*
X147865000Y-125737500D01*
X147889000Y-125777500D01*
X147912000Y-125818500D01*
X147932000Y-125861500D01*
X147950000Y-125904500D01*
X147966000Y-125949500D01*
X147979000Y-125994500D01*
X147990000Y-126040500D01*
X147999000Y-126086500D01*
X148005000Y-126133500D01*
X148009000Y-126180500D01*
X148010000Y-126227500D01*
X148009000Y-126274500D01*
X148005000Y-126321500D01*
X147999000Y-126368500D01*
X147990000Y-126414500D01*
X147979000Y-126460500D01*
X147966000Y-126505500D01*
X147950000Y-126550500D01*
X147932000Y-126593500D01*
X147912000Y-126636500D01*
X147889000Y-126677500D01*
X147865000Y-126717500D01*
X147838000Y-126756500D01*
X147809000Y-126793500D01*
X147779000Y-126829500D01*
X147746000Y-126863500D01*
X147712000Y-126896500D01*
X147676000Y-126926500D01*
X147639000Y-126955500D01*
X147600000Y-126982500D01*
X147560000Y-127006500D01*
X147519000Y-127029500D01*
X147476000Y-127049500D01*
X147433000Y-127067500D01*
X147388000Y-127083500D01*
X147343000Y-127096500D01*
X147297000Y-127107500D01*
X147251000Y-127116500D01*
X147204000Y-127122500D01*
X147157000Y-127126500D01*
X147110000Y-127127500D01*
X144610000Y-127127500D01*
X144610000Y-125327500D01*
X147110000Y-125327500D01*
X147157000Y-125328500D01*
G36*
X147157000Y-125328500D02*
G01*
X147204000Y-125332500D01*
X147251000Y-125338500D01*
X147297000Y-125347500D01*
X147343000Y-125358500D01*
X147388000Y-125371500D01*
X147433000Y-125387500D01*
X147476000Y-125405500D01*
X147519000Y-125425500D01*
X147560000Y-125448500D01*
X147600000Y-125472500D01*
X147639000Y-125499500D01*
X147676000Y-125528500D01*
X147712000Y-125558500D01*
X147746000Y-125591500D01*
X147779000Y-125625500D01*
X147809000Y-125661500D01*
X147838000Y-125698500D01*
X147865000Y-125737500D01*
X147889000Y-125777500D01*
X147912000Y-125818500D01*
X147932000Y-125861500D01*
X147950000Y-125904500D01*
X147966000Y-125949500D01*
X147979000Y-125994500D01*
X147990000Y-126040500D01*
X147999000Y-126086500D01*
X148005000Y-126133500D01*
X148009000Y-126180500D01*
X148010000Y-126227500D01*
X148009000Y-126274500D01*
X148005000Y-126321500D01*
X147999000Y-126368500D01*
X147990000Y-126414500D01*
X147979000Y-126460500D01*
X147966000Y-126505500D01*
X147950000Y-126550500D01*
X147932000Y-126593500D01*
X147912000Y-126636500D01*
X147889000Y-126677500D01*
X147865000Y-126717500D01*
X147838000Y-126756500D01*
X147809000Y-126793500D01*
X147779000Y-126829500D01*
X147746000Y-126863500D01*
X147712000Y-126896500D01*
X147676000Y-126926500D01*
X147639000Y-126955500D01*
X147600000Y-126982500D01*
X147560000Y-127006500D01*
X147519000Y-127029500D01*
X147476000Y-127049500D01*
X147433000Y-127067500D01*
X147388000Y-127083500D01*
X147343000Y-127096500D01*
X147297000Y-127107500D01*
X147251000Y-127116500D01*
X147204000Y-127122500D01*
X147157000Y-127126500D01*
X147110000Y-127127500D01*
X144610000Y-127127500D01*
X144610000Y-125327500D01*
X147110000Y-125327500D01*
X147157000Y-125328500D01*
G37*
X147157000Y-127868500D02*
X147204000Y-127872500D01*
X147251000Y-127878500D01*
X147297000Y-127887500D01*
X147343000Y-127898500D01*
X147388000Y-127911500D01*
X147433000Y-127927500D01*
X147476000Y-127945500D01*
X147519000Y-127965500D01*
X147560000Y-127988500D01*
X147600000Y-128012500D01*
X147639000Y-128039500D01*
X147676000Y-128068500D01*
X147712000Y-128098500D01*
X147746000Y-128131500D01*
X147779000Y-128165500D01*
X147809000Y-128201500D01*
X147838000Y-128238500D01*
X147865000Y-128277500D01*
X147889000Y-128317500D01*
X147912000Y-128358500D01*
X147932000Y-128401500D01*
X147950000Y-128444500D01*
X147966000Y-128489500D01*
X147979000Y-128534500D01*
X147990000Y-128580500D01*
X147999000Y-128626500D01*
X148005000Y-128673500D01*
X148009000Y-128720500D01*
X148010000Y-128767500D01*
X148009000Y-128814500D01*
X148005000Y-128861500D01*
X147999000Y-128908500D01*
X147990000Y-128954500D01*
X147979000Y-129000500D01*
X147966000Y-129045500D01*
X147950000Y-129090500D01*
X147932000Y-129133500D01*
X147912000Y-129176500D01*
X147889000Y-129217500D01*
X147865000Y-129257500D01*
X147838000Y-129296500D01*
X147809000Y-129333500D01*
X147779000Y-129369500D01*
X147746000Y-129403500D01*
X147712000Y-129436500D01*
X147676000Y-129466500D01*
X147639000Y-129495500D01*
X147600000Y-129522500D01*
X147560000Y-129546500D01*
X147519000Y-129569500D01*
X147476000Y-129589500D01*
X147433000Y-129607500D01*
X147388000Y-129623500D01*
X147343000Y-129636500D01*
X147297000Y-129647500D01*
X147251000Y-129656500D01*
X147204000Y-129662500D01*
X147157000Y-129666500D01*
X147110000Y-129667500D01*
X144610000Y-129667500D01*
X144610000Y-127867500D01*
X147110000Y-127867500D01*
X147157000Y-127868500D01*
G36*
X147157000Y-127868500D02*
G01*
X147204000Y-127872500D01*
X147251000Y-127878500D01*
X147297000Y-127887500D01*
X147343000Y-127898500D01*
X147388000Y-127911500D01*
X147433000Y-127927500D01*
X147476000Y-127945500D01*
X147519000Y-127965500D01*
X147560000Y-127988500D01*
X147600000Y-128012500D01*
X147639000Y-128039500D01*
X147676000Y-128068500D01*
X147712000Y-128098500D01*
X147746000Y-128131500D01*
X147779000Y-128165500D01*
X147809000Y-128201500D01*
X147838000Y-128238500D01*
X147865000Y-128277500D01*
X147889000Y-128317500D01*
X147912000Y-128358500D01*
X147932000Y-128401500D01*
X147950000Y-128444500D01*
X147966000Y-128489500D01*
X147979000Y-128534500D01*
X147990000Y-128580500D01*
X147999000Y-128626500D01*
X148005000Y-128673500D01*
X148009000Y-128720500D01*
X148010000Y-128767500D01*
X148009000Y-128814500D01*
X148005000Y-128861500D01*
X147999000Y-128908500D01*
X147990000Y-128954500D01*
X147979000Y-129000500D01*
X147966000Y-129045500D01*
X147950000Y-129090500D01*
X147932000Y-129133500D01*
X147912000Y-129176500D01*
X147889000Y-129217500D01*
X147865000Y-129257500D01*
X147838000Y-129296500D01*
X147809000Y-129333500D01*
X147779000Y-129369500D01*
X147746000Y-129403500D01*
X147712000Y-129436500D01*
X147676000Y-129466500D01*
X147639000Y-129495500D01*
X147600000Y-129522500D01*
X147560000Y-129546500D01*
X147519000Y-129569500D01*
X147476000Y-129589500D01*
X147433000Y-129607500D01*
X147388000Y-129623500D01*
X147343000Y-129636500D01*
X147297000Y-129647500D01*
X147251000Y-129656500D01*
X147204000Y-129662500D01*
X147157000Y-129666500D01*
X147110000Y-129667500D01*
X144610000Y-129667500D01*
X144610000Y-127867500D01*
X147110000Y-127867500D01*
X147157000Y-127868500D01*
G37*
X147157000Y-130408500D02*
X147204000Y-130412500D01*
X147251000Y-130418500D01*
X147297000Y-130427500D01*
X147343000Y-130438500D01*
X147388000Y-130451500D01*
X147433000Y-130467500D01*
X147476000Y-130485500D01*
X147519000Y-130505500D01*
X147560000Y-130528500D01*
X147600000Y-130552500D01*
X147639000Y-130579500D01*
X147676000Y-130608500D01*
X147712000Y-130638500D01*
X147746000Y-130671500D01*
X147779000Y-130705500D01*
X147809000Y-130741500D01*
X147838000Y-130778500D01*
X147865000Y-130817500D01*
X147889000Y-130857500D01*
X147912000Y-130898500D01*
X147932000Y-130941500D01*
X147950000Y-130984500D01*
X147966000Y-131029500D01*
X147979000Y-131074500D01*
X147990000Y-131120500D01*
X147999000Y-131166500D01*
X148005000Y-131213500D01*
X148009000Y-131260500D01*
X148010000Y-131307500D01*
X148009000Y-131354500D01*
X148005000Y-131401500D01*
X147999000Y-131448500D01*
X147990000Y-131494500D01*
X147979000Y-131540500D01*
X147966000Y-131585500D01*
X147950000Y-131630500D01*
X147932000Y-131673500D01*
X147912000Y-131716500D01*
X147889000Y-131757500D01*
X147865000Y-131797500D01*
X147838000Y-131836500D01*
X147809000Y-131873500D01*
X147779000Y-131909500D01*
X147746000Y-131943500D01*
X147712000Y-131976500D01*
X147676000Y-132006500D01*
X147639000Y-132035500D01*
X147600000Y-132062500D01*
X147560000Y-132086500D01*
X147519000Y-132109500D01*
X147476000Y-132129500D01*
X147433000Y-132147500D01*
X147388000Y-132163500D01*
X147343000Y-132176500D01*
X147297000Y-132187500D01*
X147251000Y-132196500D01*
X147204000Y-132202500D01*
X147157000Y-132206500D01*
X147110000Y-132207500D01*
X144610000Y-132207500D01*
X144610000Y-130407500D01*
X147110000Y-130407500D01*
X147157000Y-130408500D01*
G36*
X147157000Y-130408500D02*
G01*
X147204000Y-130412500D01*
X147251000Y-130418500D01*
X147297000Y-130427500D01*
X147343000Y-130438500D01*
X147388000Y-130451500D01*
X147433000Y-130467500D01*
X147476000Y-130485500D01*
X147519000Y-130505500D01*
X147560000Y-130528500D01*
X147600000Y-130552500D01*
X147639000Y-130579500D01*
X147676000Y-130608500D01*
X147712000Y-130638500D01*
X147746000Y-130671500D01*
X147779000Y-130705500D01*
X147809000Y-130741500D01*
X147838000Y-130778500D01*
X147865000Y-130817500D01*
X147889000Y-130857500D01*
X147912000Y-130898500D01*
X147932000Y-130941500D01*
X147950000Y-130984500D01*
X147966000Y-131029500D01*
X147979000Y-131074500D01*
X147990000Y-131120500D01*
X147999000Y-131166500D01*
X148005000Y-131213500D01*
X148009000Y-131260500D01*
X148010000Y-131307500D01*
X148009000Y-131354500D01*
X148005000Y-131401500D01*
X147999000Y-131448500D01*
X147990000Y-131494500D01*
X147979000Y-131540500D01*
X147966000Y-131585500D01*
X147950000Y-131630500D01*
X147932000Y-131673500D01*
X147912000Y-131716500D01*
X147889000Y-131757500D01*
X147865000Y-131797500D01*
X147838000Y-131836500D01*
X147809000Y-131873500D01*
X147779000Y-131909500D01*
X147746000Y-131943500D01*
X147712000Y-131976500D01*
X147676000Y-132006500D01*
X147639000Y-132035500D01*
X147600000Y-132062500D01*
X147560000Y-132086500D01*
X147519000Y-132109500D01*
X147476000Y-132129500D01*
X147433000Y-132147500D01*
X147388000Y-132163500D01*
X147343000Y-132176500D01*
X147297000Y-132187500D01*
X147251000Y-132196500D01*
X147204000Y-132202500D01*
X147157000Y-132206500D01*
X147110000Y-132207500D01*
X144610000Y-132207500D01*
X144610000Y-130407500D01*
X147110000Y-130407500D01*
X147157000Y-130408500D01*
G37*
X147157000Y-132948500D02*
X147204000Y-132952500D01*
X147251000Y-132958500D01*
X147297000Y-132967500D01*
X147343000Y-132978500D01*
X147388000Y-132991500D01*
X147433000Y-133007500D01*
X147476000Y-133025500D01*
X147519000Y-133045500D01*
X147560000Y-133068500D01*
X147600000Y-133092500D01*
X147639000Y-133119500D01*
X147676000Y-133148500D01*
X147712000Y-133178500D01*
X147746000Y-133211500D01*
X147779000Y-133245500D01*
X147809000Y-133281500D01*
X147838000Y-133318500D01*
X147865000Y-133357500D01*
X147889000Y-133397500D01*
X147912000Y-133438500D01*
X147932000Y-133481500D01*
X147950000Y-133524500D01*
X147966000Y-133569500D01*
X147979000Y-133614500D01*
X147990000Y-133660500D01*
X147999000Y-133706500D01*
X148005000Y-133753500D01*
X148009000Y-133800500D01*
X148010000Y-133847500D01*
X148009000Y-133894500D01*
X148005000Y-133941500D01*
X147999000Y-133988500D01*
X147990000Y-134034500D01*
X147979000Y-134080500D01*
X147966000Y-134125500D01*
X147950000Y-134170500D01*
X147932000Y-134213500D01*
X147912000Y-134256500D01*
X147889000Y-134297500D01*
X147865000Y-134337500D01*
X147838000Y-134376500D01*
X147809000Y-134413500D01*
X147779000Y-134449500D01*
X147746000Y-134483500D01*
X147712000Y-134516500D01*
X147676000Y-134546500D01*
X147639000Y-134575500D01*
X147600000Y-134602500D01*
X147560000Y-134626500D01*
X147519000Y-134649500D01*
X147476000Y-134669500D01*
X147433000Y-134687500D01*
X147388000Y-134703500D01*
X147343000Y-134716500D01*
X147297000Y-134727500D01*
X147251000Y-134736500D01*
X147204000Y-134742500D01*
X147157000Y-134746500D01*
X147110000Y-134747500D01*
X144610000Y-134747500D01*
X144610000Y-132947500D01*
X147110000Y-132947500D01*
X147157000Y-132948500D01*
G36*
X147157000Y-132948500D02*
G01*
X147204000Y-132952500D01*
X147251000Y-132958500D01*
X147297000Y-132967500D01*
X147343000Y-132978500D01*
X147388000Y-132991500D01*
X147433000Y-133007500D01*
X147476000Y-133025500D01*
X147519000Y-133045500D01*
X147560000Y-133068500D01*
X147600000Y-133092500D01*
X147639000Y-133119500D01*
X147676000Y-133148500D01*
X147712000Y-133178500D01*
X147746000Y-133211500D01*
X147779000Y-133245500D01*
X147809000Y-133281500D01*
X147838000Y-133318500D01*
X147865000Y-133357500D01*
X147889000Y-133397500D01*
X147912000Y-133438500D01*
X147932000Y-133481500D01*
X147950000Y-133524500D01*
X147966000Y-133569500D01*
X147979000Y-133614500D01*
X147990000Y-133660500D01*
X147999000Y-133706500D01*
X148005000Y-133753500D01*
X148009000Y-133800500D01*
X148010000Y-133847500D01*
X148009000Y-133894500D01*
X148005000Y-133941500D01*
X147999000Y-133988500D01*
X147990000Y-134034500D01*
X147979000Y-134080500D01*
X147966000Y-134125500D01*
X147950000Y-134170500D01*
X147932000Y-134213500D01*
X147912000Y-134256500D01*
X147889000Y-134297500D01*
X147865000Y-134337500D01*
X147838000Y-134376500D01*
X147809000Y-134413500D01*
X147779000Y-134449500D01*
X147746000Y-134483500D01*
X147712000Y-134516500D01*
X147676000Y-134546500D01*
X147639000Y-134575500D01*
X147600000Y-134602500D01*
X147560000Y-134626500D01*
X147519000Y-134649500D01*
X147476000Y-134669500D01*
X147433000Y-134687500D01*
X147388000Y-134703500D01*
X147343000Y-134716500D01*
X147297000Y-134727500D01*
X147251000Y-134736500D01*
X147204000Y-134742500D01*
X147157000Y-134746500D01*
X147110000Y-134747500D01*
X144610000Y-134747500D01*
X144610000Y-132947500D01*
X147110000Y-132947500D01*
X147157000Y-132948500D01*
G37*
X147157000Y-138028500D02*
X147204000Y-138032500D01*
X147251000Y-138038500D01*
X147297000Y-138047500D01*
X147343000Y-138058500D01*
X147388000Y-138071500D01*
X147433000Y-138087500D01*
X147476000Y-138105500D01*
X147519000Y-138125500D01*
X147560000Y-138148500D01*
X147600000Y-138172500D01*
X147639000Y-138199500D01*
X147676000Y-138228500D01*
X147712000Y-138258500D01*
X147746000Y-138291500D01*
X147779000Y-138325500D01*
X147809000Y-138361500D01*
X147838000Y-138398500D01*
X147865000Y-138437500D01*
X147889000Y-138477500D01*
X147912000Y-138518500D01*
X147932000Y-138561500D01*
X147950000Y-138604500D01*
X147966000Y-138649500D01*
X147979000Y-138694500D01*
X147990000Y-138740500D01*
X147999000Y-138786500D01*
X148005000Y-138833500D01*
X148009000Y-138880500D01*
X148010000Y-138927500D01*
X148009000Y-138974500D01*
X148005000Y-139021500D01*
X147999000Y-139068500D01*
X147990000Y-139114500D01*
X147979000Y-139160500D01*
X147966000Y-139205500D01*
X147950000Y-139250500D01*
X147932000Y-139293500D01*
X147912000Y-139336500D01*
X147889000Y-139377500D01*
X147865000Y-139417500D01*
X147838000Y-139456500D01*
X147809000Y-139493500D01*
X147779000Y-139529500D01*
X147746000Y-139563500D01*
X147712000Y-139596500D01*
X147676000Y-139626500D01*
X147639000Y-139655500D01*
X147600000Y-139682500D01*
X147560000Y-139706500D01*
X147519000Y-139729500D01*
X147476000Y-139749500D01*
X147433000Y-139767500D01*
X147388000Y-139783500D01*
X147343000Y-139796500D01*
X147297000Y-139807500D01*
X147251000Y-139816500D01*
X147204000Y-139822500D01*
X147157000Y-139826500D01*
X147110000Y-139827500D01*
X144610000Y-139827500D01*
X144610000Y-138027500D01*
X147110000Y-138027500D01*
X147157000Y-138028500D01*
G36*
X147157000Y-138028500D02*
G01*
X147204000Y-138032500D01*
X147251000Y-138038500D01*
X147297000Y-138047500D01*
X147343000Y-138058500D01*
X147388000Y-138071500D01*
X147433000Y-138087500D01*
X147476000Y-138105500D01*
X147519000Y-138125500D01*
X147560000Y-138148500D01*
X147600000Y-138172500D01*
X147639000Y-138199500D01*
X147676000Y-138228500D01*
X147712000Y-138258500D01*
X147746000Y-138291500D01*
X147779000Y-138325500D01*
X147809000Y-138361500D01*
X147838000Y-138398500D01*
X147865000Y-138437500D01*
X147889000Y-138477500D01*
X147912000Y-138518500D01*
X147932000Y-138561500D01*
X147950000Y-138604500D01*
X147966000Y-138649500D01*
X147979000Y-138694500D01*
X147990000Y-138740500D01*
X147999000Y-138786500D01*
X148005000Y-138833500D01*
X148009000Y-138880500D01*
X148010000Y-138927500D01*
X148009000Y-138974500D01*
X148005000Y-139021500D01*
X147999000Y-139068500D01*
X147990000Y-139114500D01*
X147979000Y-139160500D01*
X147966000Y-139205500D01*
X147950000Y-139250500D01*
X147932000Y-139293500D01*
X147912000Y-139336500D01*
X147889000Y-139377500D01*
X147865000Y-139417500D01*
X147838000Y-139456500D01*
X147809000Y-139493500D01*
X147779000Y-139529500D01*
X147746000Y-139563500D01*
X147712000Y-139596500D01*
X147676000Y-139626500D01*
X147639000Y-139655500D01*
X147600000Y-139682500D01*
X147560000Y-139706500D01*
X147519000Y-139729500D01*
X147476000Y-139749500D01*
X147433000Y-139767500D01*
X147388000Y-139783500D01*
X147343000Y-139796500D01*
X147297000Y-139807500D01*
X147251000Y-139816500D01*
X147204000Y-139822500D01*
X147157000Y-139826500D01*
X147110000Y-139827500D01*
X144610000Y-139827500D01*
X144610000Y-138027500D01*
X147110000Y-138027500D01*
X147157000Y-138028500D01*
G37*
X147157000Y-140568500D02*
X147204000Y-140572500D01*
X147251000Y-140578500D01*
X147297000Y-140587500D01*
X147343000Y-140598500D01*
X147388000Y-140611500D01*
X147433000Y-140627500D01*
X147476000Y-140645500D01*
X147519000Y-140665500D01*
X147560000Y-140688500D01*
X147600000Y-140712500D01*
X147639000Y-140739500D01*
X147676000Y-140768500D01*
X147712000Y-140798500D01*
X147746000Y-140831500D01*
X147779000Y-140865500D01*
X147809000Y-140901500D01*
X147838000Y-140938500D01*
X147865000Y-140977500D01*
X147889000Y-141017500D01*
X147912000Y-141058500D01*
X147932000Y-141101500D01*
X147950000Y-141144500D01*
X147966000Y-141189500D01*
X147979000Y-141234500D01*
X147990000Y-141280500D01*
X147999000Y-141326500D01*
X148005000Y-141373500D01*
X148009000Y-141420500D01*
X148010000Y-141467500D01*
X148009000Y-141514500D01*
X148005000Y-141561500D01*
X147999000Y-141608500D01*
X147990000Y-141654500D01*
X147979000Y-141700500D01*
X147966000Y-141745500D01*
X147950000Y-141790500D01*
X147932000Y-141833500D01*
X147912000Y-141876500D01*
X147889000Y-141917500D01*
X147865000Y-141957500D01*
X147838000Y-141996500D01*
X147809000Y-142033500D01*
X147779000Y-142069500D01*
X147746000Y-142103500D01*
X147712000Y-142136500D01*
X147676000Y-142166500D01*
X147639000Y-142195500D01*
X147600000Y-142222500D01*
X147560000Y-142246500D01*
X147519000Y-142269500D01*
X147476000Y-142289500D01*
X147433000Y-142307500D01*
X147388000Y-142323500D01*
X147343000Y-142336500D01*
X147297000Y-142347500D01*
X147251000Y-142356500D01*
X147204000Y-142362500D01*
X147157000Y-142366500D01*
X147110000Y-142367500D01*
X144610000Y-142367500D01*
X144610000Y-140567500D01*
X147110000Y-140567500D01*
X147157000Y-140568500D01*
G36*
X147157000Y-140568500D02*
G01*
X147204000Y-140572500D01*
X147251000Y-140578500D01*
X147297000Y-140587500D01*
X147343000Y-140598500D01*
X147388000Y-140611500D01*
X147433000Y-140627500D01*
X147476000Y-140645500D01*
X147519000Y-140665500D01*
X147560000Y-140688500D01*
X147600000Y-140712500D01*
X147639000Y-140739500D01*
X147676000Y-140768500D01*
X147712000Y-140798500D01*
X147746000Y-140831500D01*
X147779000Y-140865500D01*
X147809000Y-140901500D01*
X147838000Y-140938500D01*
X147865000Y-140977500D01*
X147889000Y-141017500D01*
X147912000Y-141058500D01*
X147932000Y-141101500D01*
X147950000Y-141144500D01*
X147966000Y-141189500D01*
X147979000Y-141234500D01*
X147990000Y-141280500D01*
X147999000Y-141326500D01*
X148005000Y-141373500D01*
X148009000Y-141420500D01*
X148010000Y-141467500D01*
X148009000Y-141514500D01*
X148005000Y-141561500D01*
X147999000Y-141608500D01*
X147990000Y-141654500D01*
X147979000Y-141700500D01*
X147966000Y-141745500D01*
X147950000Y-141790500D01*
X147932000Y-141833500D01*
X147912000Y-141876500D01*
X147889000Y-141917500D01*
X147865000Y-141957500D01*
X147838000Y-141996500D01*
X147809000Y-142033500D01*
X147779000Y-142069500D01*
X147746000Y-142103500D01*
X147712000Y-142136500D01*
X147676000Y-142166500D01*
X147639000Y-142195500D01*
X147600000Y-142222500D01*
X147560000Y-142246500D01*
X147519000Y-142269500D01*
X147476000Y-142289500D01*
X147433000Y-142307500D01*
X147388000Y-142323500D01*
X147343000Y-142336500D01*
X147297000Y-142347500D01*
X147251000Y-142356500D01*
X147204000Y-142362500D01*
X147157000Y-142366500D01*
X147110000Y-142367500D01*
X144610000Y-142367500D01*
X144610000Y-140567500D01*
X147110000Y-140567500D01*
X147157000Y-140568500D01*
G37*
X154360000Y-93437500D02*
X154359000Y-93484500D01*
X154355000Y-93531500D01*
X154349000Y-93578500D01*
X154340000Y-93624500D01*
X154329000Y-93670500D01*
X154316000Y-93715500D01*
X154300000Y-93760500D01*
X154282000Y-93803500D01*
X154262000Y-93846500D01*
X154239000Y-93887500D01*
X154215000Y-93927500D01*
X154188000Y-93966500D01*
X154159000Y-94003500D01*
X154129000Y-94039500D01*
X154096000Y-94073500D01*
X154062000Y-94106500D01*
X154026000Y-94136500D01*
X153989000Y-94165500D01*
X153950000Y-94192500D01*
X153910000Y-94216500D01*
X153869000Y-94239500D01*
X153826000Y-94259500D01*
X153783000Y-94277500D01*
X153738000Y-94293500D01*
X153693000Y-94306500D01*
X153647000Y-94317500D01*
X153601000Y-94326500D01*
X153554000Y-94332500D01*
X153507000Y-94336500D01*
X153460000Y-94337500D01*
X153413000Y-94336500D01*
X153366000Y-94332500D01*
X153319000Y-94326500D01*
X153273000Y-94317500D01*
X153227000Y-94306500D01*
X153182000Y-94293500D01*
X153137000Y-94277500D01*
X153094000Y-94259500D01*
X153051000Y-94239500D01*
X153010000Y-94216500D01*
X152970000Y-94192500D01*
X152931000Y-94165500D01*
X152894000Y-94136500D01*
X152858000Y-94106500D01*
X152824000Y-94073500D01*
X152791000Y-94039500D01*
X152761000Y-94003500D01*
X152732000Y-93966500D01*
X152705000Y-93927500D01*
X152681000Y-93887500D01*
X152658000Y-93846500D01*
X152638000Y-93803500D01*
X152620000Y-93760500D01*
X152604000Y-93715500D01*
X152591000Y-93670500D01*
X152580000Y-93624500D01*
X152571000Y-93578500D01*
X152565000Y-93531500D01*
X152561000Y-93484500D01*
X152560000Y-93437500D01*
X152560000Y-90937500D01*
X154360000Y-90937500D01*
X154360000Y-93437500D01*
G36*
X154360000Y-93437500D02*
G01*
X154359000Y-93484500D01*
X154355000Y-93531500D01*
X154349000Y-93578500D01*
X154340000Y-93624500D01*
X154329000Y-93670500D01*
X154316000Y-93715500D01*
X154300000Y-93760500D01*
X154282000Y-93803500D01*
X154262000Y-93846500D01*
X154239000Y-93887500D01*
X154215000Y-93927500D01*
X154188000Y-93966500D01*
X154159000Y-94003500D01*
X154129000Y-94039500D01*
X154096000Y-94073500D01*
X154062000Y-94106500D01*
X154026000Y-94136500D01*
X153989000Y-94165500D01*
X153950000Y-94192500D01*
X153910000Y-94216500D01*
X153869000Y-94239500D01*
X153826000Y-94259500D01*
X153783000Y-94277500D01*
X153738000Y-94293500D01*
X153693000Y-94306500D01*
X153647000Y-94317500D01*
X153601000Y-94326500D01*
X153554000Y-94332500D01*
X153507000Y-94336500D01*
X153460000Y-94337500D01*
X153413000Y-94336500D01*
X153366000Y-94332500D01*
X153319000Y-94326500D01*
X153273000Y-94317500D01*
X153227000Y-94306500D01*
X153182000Y-94293500D01*
X153137000Y-94277500D01*
X153094000Y-94259500D01*
X153051000Y-94239500D01*
X153010000Y-94216500D01*
X152970000Y-94192500D01*
X152931000Y-94165500D01*
X152894000Y-94136500D01*
X152858000Y-94106500D01*
X152824000Y-94073500D01*
X152791000Y-94039500D01*
X152761000Y-94003500D01*
X152732000Y-93966500D01*
X152705000Y-93927500D01*
X152681000Y-93887500D01*
X152658000Y-93846500D01*
X152638000Y-93803500D01*
X152620000Y-93760500D01*
X152604000Y-93715500D01*
X152591000Y-93670500D01*
X152580000Y-93624500D01*
X152571000Y-93578500D01*
X152565000Y-93531500D01*
X152561000Y-93484500D01*
X152560000Y-93437500D01*
X152560000Y-90937500D01*
X154360000Y-90937500D01*
X154360000Y-93437500D01*
G37*
X159440000Y-93437500D02*
X159439000Y-93484500D01*
X159435000Y-93531500D01*
X159429000Y-93578500D01*
X159420000Y-93624500D01*
X159409000Y-93670500D01*
X159396000Y-93715500D01*
X159380000Y-93760500D01*
X159362000Y-93803500D01*
X159342000Y-93846500D01*
X159319000Y-93887500D01*
X159295000Y-93927500D01*
X159268000Y-93966500D01*
X159239000Y-94003500D01*
X159209000Y-94039500D01*
X159176000Y-94073500D01*
X159142000Y-94106500D01*
X159106000Y-94136500D01*
X159069000Y-94165500D01*
X159030000Y-94192500D01*
X158990000Y-94216500D01*
X158949000Y-94239500D01*
X158906000Y-94259500D01*
X158863000Y-94277500D01*
X158818000Y-94293500D01*
X158773000Y-94306500D01*
X158727000Y-94317500D01*
X158681000Y-94326500D01*
X158634000Y-94332500D01*
X158587000Y-94336500D01*
X158540000Y-94337500D01*
X158493000Y-94336500D01*
X158446000Y-94332500D01*
X158399000Y-94326500D01*
X158353000Y-94317500D01*
X158307000Y-94306500D01*
X158262000Y-94293500D01*
X158217000Y-94277500D01*
X158174000Y-94259500D01*
X158131000Y-94239500D01*
X158090000Y-94216500D01*
X158050000Y-94192500D01*
X158011000Y-94165500D01*
X157974000Y-94136500D01*
X157938000Y-94106500D01*
X157904000Y-94073500D01*
X157871000Y-94039500D01*
X157841000Y-94003500D01*
X157812000Y-93966500D01*
X157785000Y-93927500D01*
X157761000Y-93887500D01*
X157738000Y-93846500D01*
X157718000Y-93803500D01*
X157700000Y-93760500D01*
X157684000Y-93715500D01*
X157671000Y-93670500D01*
X157660000Y-93624500D01*
X157651000Y-93578500D01*
X157645000Y-93531500D01*
X157641000Y-93484500D01*
X157640000Y-93437500D01*
X157640000Y-90937500D01*
X159440000Y-90937500D01*
X159440000Y-93437500D01*
G36*
X159440000Y-93437500D02*
G01*
X159439000Y-93484500D01*
X159435000Y-93531500D01*
X159429000Y-93578500D01*
X159420000Y-93624500D01*
X159409000Y-93670500D01*
X159396000Y-93715500D01*
X159380000Y-93760500D01*
X159362000Y-93803500D01*
X159342000Y-93846500D01*
X159319000Y-93887500D01*
X159295000Y-93927500D01*
X159268000Y-93966500D01*
X159239000Y-94003500D01*
X159209000Y-94039500D01*
X159176000Y-94073500D01*
X159142000Y-94106500D01*
X159106000Y-94136500D01*
X159069000Y-94165500D01*
X159030000Y-94192500D01*
X158990000Y-94216500D01*
X158949000Y-94239500D01*
X158906000Y-94259500D01*
X158863000Y-94277500D01*
X158818000Y-94293500D01*
X158773000Y-94306500D01*
X158727000Y-94317500D01*
X158681000Y-94326500D01*
X158634000Y-94332500D01*
X158587000Y-94336500D01*
X158540000Y-94337500D01*
X158493000Y-94336500D01*
X158446000Y-94332500D01*
X158399000Y-94326500D01*
X158353000Y-94317500D01*
X158307000Y-94306500D01*
X158262000Y-94293500D01*
X158217000Y-94277500D01*
X158174000Y-94259500D01*
X158131000Y-94239500D01*
X158090000Y-94216500D01*
X158050000Y-94192500D01*
X158011000Y-94165500D01*
X157974000Y-94136500D01*
X157938000Y-94106500D01*
X157904000Y-94073500D01*
X157871000Y-94039500D01*
X157841000Y-94003500D01*
X157812000Y-93966500D01*
X157785000Y-93927500D01*
X157761000Y-93887500D01*
X157738000Y-93846500D01*
X157718000Y-93803500D01*
X157700000Y-93760500D01*
X157684000Y-93715500D01*
X157671000Y-93670500D01*
X157660000Y-93624500D01*
X157651000Y-93578500D01*
X157645000Y-93531500D01*
X157641000Y-93484500D01*
X157640000Y-93437500D01*
X157640000Y-90937500D01*
X159440000Y-90937500D01*
X159440000Y-93437500D01*
G37*
X167390000Y-94107500D02*
X164890000Y-94107500D01*
X164843000Y-94106500D01*
X164796000Y-94102500D01*
X164749000Y-94096500D01*
X164703000Y-94087500D01*
X164657000Y-94076500D01*
X164612000Y-94063500D01*
X164567000Y-94047500D01*
X164524000Y-94029500D01*
X164481000Y-94009500D01*
X164440000Y-93986500D01*
X164400000Y-93962500D01*
X164361000Y-93935500D01*
X164324000Y-93906500D01*
X164288000Y-93876500D01*
X164254000Y-93843500D01*
X164221000Y-93809500D01*
X164191000Y-93773500D01*
X164162000Y-93736500D01*
X164135000Y-93697500D01*
X164111000Y-93657500D01*
X164088000Y-93616500D01*
X164068000Y-93573500D01*
X164050000Y-93530500D01*
X164034000Y-93485500D01*
X164021000Y-93440500D01*
X164010000Y-93394500D01*
X164001000Y-93348500D01*
X163995000Y-93301500D01*
X163991000Y-93254500D01*
X163990000Y-93207500D01*
X163991000Y-93160500D01*
X163995000Y-93113500D01*
X164001000Y-93066500D01*
X164010000Y-93020500D01*
X164021000Y-92974500D01*
X164034000Y-92929500D01*
X164050000Y-92884500D01*
X164068000Y-92841500D01*
X164088000Y-92798500D01*
X164111000Y-92757500D01*
X164135000Y-92717500D01*
X164162000Y-92678500D01*
X164191000Y-92641500D01*
X164221000Y-92605500D01*
X164254000Y-92571500D01*
X164288000Y-92538500D01*
X164324000Y-92508500D01*
X164361000Y-92479500D01*
X164400000Y-92452500D01*
X164440000Y-92428500D01*
X164481000Y-92405500D01*
X164524000Y-92385500D01*
X164567000Y-92367500D01*
X164612000Y-92351500D01*
X164657000Y-92338500D01*
X164703000Y-92327500D01*
X164749000Y-92318500D01*
X164796000Y-92312500D01*
X164843000Y-92308500D01*
X164890000Y-92307500D01*
X167390000Y-92307500D01*
X167390000Y-94107500D01*
G36*
X167390000Y-94107500D02*
G01*
X164890000Y-94107500D01*
X164843000Y-94106500D01*
X164796000Y-94102500D01*
X164749000Y-94096500D01*
X164703000Y-94087500D01*
X164657000Y-94076500D01*
X164612000Y-94063500D01*
X164567000Y-94047500D01*
X164524000Y-94029500D01*
X164481000Y-94009500D01*
X164440000Y-93986500D01*
X164400000Y-93962500D01*
X164361000Y-93935500D01*
X164324000Y-93906500D01*
X164288000Y-93876500D01*
X164254000Y-93843500D01*
X164221000Y-93809500D01*
X164191000Y-93773500D01*
X164162000Y-93736500D01*
X164135000Y-93697500D01*
X164111000Y-93657500D01*
X164088000Y-93616500D01*
X164068000Y-93573500D01*
X164050000Y-93530500D01*
X164034000Y-93485500D01*
X164021000Y-93440500D01*
X164010000Y-93394500D01*
X164001000Y-93348500D01*
X163995000Y-93301500D01*
X163991000Y-93254500D01*
X163990000Y-93207500D01*
X163991000Y-93160500D01*
X163995000Y-93113500D01*
X164001000Y-93066500D01*
X164010000Y-93020500D01*
X164021000Y-92974500D01*
X164034000Y-92929500D01*
X164050000Y-92884500D01*
X164068000Y-92841500D01*
X164088000Y-92798500D01*
X164111000Y-92757500D01*
X164135000Y-92717500D01*
X164162000Y-92678500D01*
X164191000Y-92641500D01*
X164221000Y-92605500D01*
X164254000Y-92571500D01*
X164288000Y-92538500D01*
X164324000Y-92508500D01*
X164361000Y-92479500D01*
X164400000Y-92452500D01*
X164440000Y-92428500D01*
X164481000Y-92405500D01*
X164524000Y-92385500D01*
X164567000Y-92367500D01*
X164612000Y-92351500D01*
X164657000Y-92338500D01*
X164703000Y-92327500D01*
X164749000Y-92318500D01*
X164796000Y-92312500D01*
X164843000Y-92308500D01*
X164890000Y-92307500D01*
X167390000Y-92307500D01*
X167390000Y-94107500D01*
G37*
X167390000Y-96647500D02*
X164890000Y-96647500D01*
X164843000Y-96646500D01*
X164796000Y-96642500D01*
X164749000Y-96636500D01*
X164703000Y-96627500D01*
X164657000Y-96616500D01*
X164612000Y-96603500D01*
X164567000Y-96587500D01*
X164524000Y-96569500D01*
X164481000Y-96549500D01*
X164440000Y-96526500D01*
X164400000Y-96502500D01*
X164361000Y-96475500D01*
X164324000Y-96446500D01*
X164288000Y-96416500D01*
X164254000Y-96383500D01*
X164221000Y-96349500D01*
X164191000Y-96313500D01*
X164162000Y-96276500D01*
X164135000Y-96237500D01*
X164111000Y-96197500D01*
X164088000Y-96156500D01*
X164068000Y-96113500D01*
X164050000Y-96070500D01*
X164034000Y-96025500D01*
X164021000Y-95980500D01*
X164010000Y-95934500D01*
X164001000Y-95888500D01*
X163995000Y-95841500D01*
X163991000Y-95794500D01*
X163990000Y-95747500D01*
X163991000Y-95700500D01*
X163995000Y-95653500D01*
X164001000Y-95606500D01*
X164010000Y-95560500D01*
X164021000Y-95514500D01*
X164034000Y-95469500D01*
X164050000Y-95424500D01*
X164068000Y-95381500D01*
X164088000Y-95338500D01*
X164111000Y-95297500D01*
X164135000Y-95257500D01*
X164162000Y-95218500D01*
X164191000Y-95181500D01*
X164221000Y-95145500D01*
X164254000Y-95111500D01*
X164288000Y-95078500D01*
X164324000Y-95048500D01*
X164361000Y-95019500D01*
X164400000Y-94992500D01*
X164440000Y-94968500D01*
X164481000Y-94945500D01*
X164524000Y-94925500D01*
X164567000Y-94907500D01*
X164612000Y-94891500D01*
X164657000Y-94878500D01*
X164703000Y-94867500D01*
X164749000Y-94858500D01*
X164796000Y-94852500D01*
X164843000Y-94848500D01*
X164890000Y-94847500D01*
X167390000Y-94847500D01*
X167390000Y-96647500D01*
G36*
X167390000Y-96647500D02*
G01*
X164890000Y-96647500D01*
X164843000Y-96646500D01*
X164796000Y-96642500D01*
X164749000Y-96636500D01*
X164703000Y-96627500D01*
X164657000Y-96616500D01*
X164612000Y-96603500D01*
X164567000Y-96587500D01*
X164524000Y-96569500D01*
X164481000Y-96549500D01*
X164440000Y-96526500D01*
X164400000Y-96502500D01*
X164361000Y-96475500D01*
X164324000Y-96446500D01*
X164288000Y-96416500D01*
X164254000Y-96383500D01*
X164221000Y-96349500D01*
X164191000Y-96313500D01*
X164162000Y-96276500D01*
X164135000Y-96237500D01*
X164111000Y-96197500D01*
X164088000Y-96156500D01*
X164068000Y-96113500D01*
X164050000Y-96070500D01*
X164034000Y-96025500D01*
X164021000Y-95980500D01*
X164010000Y-95934500D01*
X164001000Y-95888500D01*
X163995000Y-95841500D01*
X163991000Y-95794500D01*
X163990000Y-95747500D01*
X163991000Y-95700500D01*
X163995000Y-95653500D01*
X164001000Y-95606500D01*
X164010000Y-95560500D01*
X164021000Y-95514500D01*
X164034000Y-95469500D01*
X164050000Y-95424500D01*
X164068000Y-95381500D01*
X164088000Y-95338500D01*
X164111000Y-95297500D01*
X164135000Y-95257500D01*
X164162000Y-95218500D01*
X164191000Y-95181500D01*
X164221000Y-95145500D01*
X164254000Y-95111500D01*
X164288000Y-95078500D01*
X164324000Y-95048500D01*
X164361000Y-95019500D01*
X164400000Y-94992500D01*
X164440000Y-94968500D01*
X164481000Y-94945500D01*
X164524000Y-94925500D01*
X164567000Y-94907500D01*
X164612000Y-94891500D01*
X164657000Y-94878500D01*
X164703000Y-94867500D01*
X164749000Y-94858500D01*
X164796000Y-94852500D01*
X164843000Y-94848500D01*
X164890000Y-94847500D01*
X167390000Y-94847500D01*
X167390000Y-96647500D01*
G37*
X167390000Y-101727500D02*
X164890000Y-101727500D01*
X164843000Y-101726500D01*
X164796000Y-101722500D01*
X164749000Y-101716500D01*
X164703000Y-101707500D01*
X164657000Y-101696500D01*
X164612000Y-101683500D01*
X164567000Y-101667500D01*
X164524000Y-101649500D01*
X164481000Y-101629500D01*
X164440000Y-101606500D01*
X164400000Y-101582500D01*
X164361000Y-101555500D01*
X164324000Y-101526500D01*
X164288000Y-101496500D01*
X164254000Y-101463500D01*
X164221000Y-101429500D01*
X164191000Y-101393500D01*
X164162000Y-101356500D01*
X164135000Y-101317500D01*
X164111000Y-101277500D01*
X164088000Y-101236500D01*
X164068000Y-101193500D01*
X164050000Y-101150500D01*
X164034000Y-101105500D01*
X164021000Y-101060500D01*
X164010000Y-101014500D01*
X164001000Y-100968500D01*
X163995000Y-100921500D01*
X163991000Y-100874500D01*
X163990000Y-100827500D01*
X163991000Y-100780500D01*
X163995000Y-100733500D01*
X164001000Y-100686500D01*
X164010000Y-100640500D01*
X164021000Y-100594500D01*
X164034000Y-100549500D01*
X164050000Y-100504500D01*
X164068000Y-100461500D01*
X164088000Y-100418500D01*
X164111000Y-100377500D01*
X164135000Y-100337500D01*
X164162000Y-100298500D01*
X164191000Y-100261500D01*
X164221000Y-100225500D01*
X164254000Y-100191500D01*
X164288000Y-100158500D01*
X164324000Y-100128500D01*
X164361000Y-100099500D01*
X164400000Y-100072500D01*
X164440000Y-100048500D01*
X164481000Y-100025500D01*
X164524000Y-100005500D01*
X164567000Y-99987500D01*
X164612000Y-99971500D01*
X164657000Y-99958500D01*
X164703000Y-99947500D01*
X164749000Y-99938500D01*
X164796000Y-99932500D01*
X164843000Y-99928500D01*
X164890000Y-99927500D01*
X167390000Y-99927500D01*
X167390000Y-101727500D01*
G36*
X167390000Y-101727500D02*
G01*
X164890000Y-101727500D01*
X164843000Y-101726500D01*
X164796000Y-101722500D01*
X164749000Y-101716500D01*
X164703000Y-101707500D01*
X164657000Y-101696500D01*
X164612000Y-101683500D01*
X164567000Y-101667500D01*
X164524000Y-101649500D01*
X164481000Y-101629500D01*
X164440000Y-101606500D01*
X164400000Y-101582500D01*
X164361000Y-101555500D01*
X164324000Y-101526500D01*
X164288000Y-101496500D01*
X164254000Y-101463500D01*
X164221000Y-101429500D01*
X164191000Y-101393500D01*
X164162000Y-101356500D01*
X164135000Y-101317500D01*
X164111000Y-101277500D01*
X164088000Y-101236500D01*
X164068000Y-101193500D01*
X164050000Y-101150500D01*
X164034000Y-101105500D01*
X164021000Y-101060500D01*
X164010000Y-101014500D01*
X164001000Y-100968500D01*
X163995000Y-100921500D01*
X163991000Y-100874500D01*
X163990000Y-100827500D01*
X163991000Y-100780500D01*
X163995000Y-100733500D01*
X164001000Y-100686500D01*
X164010000Y-100640500D01*
X164021000Y-100594500D01*
X164034000Y-100549500D01*
X164050000Y-100504500D01*
X164068000Y-100461500D01*
X164088000Y-100418500D01*
X164111000Y-100377500D01*
X164135000Y-100337500D01*
X164162000Y-100298500D01*
X164191000Y-100261500D01*
X164221000Y-100225500D01*
X164254000Y-100191500D01*
X164288000Y-100158500D01*
X164324000Y-100128500D01*
X164361000Y-100099500D01*
X164400000Y-100072500D01*
X164440000Y-100048500D01*
X164481000Y-100025500D01*
X164524000Y-100005500D01*
X164567000Y-99987500D01*
X164612000Y-99971500D01*
X164657000Y-99958500D01*
X164703000Y-99947500D01*
X164749000Y-99938500D01*
X164796000Y-99932500D01*
X164843000Y-99928500D01*
X164890000Y-99927500D01*
X167390000Y-99927500D01*
X167390000Y-101727500D01*
G37*
X167390000Y-104267500D02*
X164890000Y-104267500D01*
X164843000Y-104266500D01*
X164796000Y-104262500D01*
X164749000Y-104256500D01*
X164703000Y-104247500D01*
X164657000Y-104236500D01*
X164612000Y-104223500D01*
X164567000Y-104207500D01*
X164524000Y-104189500D01*
X164481000Y-104169500D01*
X164440000Y-104146500D01*
X164400000Y-104122500D01*
X164361000Y-104095500D01*
X164324000Y-104066500D01*
X164288000Y-104036500D01*
X164254000Y-104003500D01*
X164221000Y-103969500D01*
X164191000Y-103933500D01*
X164162000Y-103896500D01*
X164135000Y-103857500D01*
X164111000Y-103817500D01*
X164088000Y-103776500D01*
X164068000Y-103733500D01*
X164050000Y-103690500D01*
X164034000Y-103645500D01*
X164021000Y-103600500D01*
X164010000Y-103554500D01*
X164001000Y-103508500D01*
X163995000Y-103461500D01*
X163991000Y-103414500D01*
X163990000Y-103367500D01*
X163991000Y-103320500D01*
X163995000Y-103273500D01*
X164001000Y-103226500D01*
X164010000Y-103180500D01*
X164021000Y-103134500D01*
X164034000Y-103089500D01*
X164050000Y-103044500D01*
X164068000Y-103001500D01*
X164088000Y-102958500D01*
X164111000Y-102917500D01*
X164135000Y-102877500D01*
X164162000Y-102838500D01*
X164191000Y-102801500D01*
X164221000Y-102765500D01*
X164254000Y-102731500D01*
X164288000Y-102698500D01*
X164324000Y-102668500D01*
X164361000Y-102639500D01*
X164400000Y-102612500D01*
X164440000Y-102588500D01*
X164481000Y-102565500D01*
X164524000Y-102545500D01*
X164567000Y-102527500D01*
X164612000Y-102511500D01*
X164657000Y-102498500D01*
X164703000Y-102487500D01*
X164749000Y-102478500D01*
X164796000Y-102472500D01*
X164843000Y-102468500D01*
X164890000Y-102467500D01*
X167390000Y-102467500D01*
X167390000Y-104267500D01*
G36*
X167390000Y-104267500D02*
G01*
X164890000Y-104267500D01*
X164843000Y-104266500D01*
X164796000Y-104262500D01*
X164749000Y-104256500D01*
X164703000Y-104247500D01*
X164657000Y-104236500D01*
X164612000Y-104223500D01*
X164567000Y-104207500D01*
X164524000Y-104189500D01*
X164481000Y-104169500D01*
X164440000Y-104146500D01*
X164400000Y-104122500D01*
X164361000Y-104095500D01*
X164324000Y-104066500D01*
X164288000Y-104036500D01*
X164254000Y-104003500D01*
X164221000Y-103969500D01*
X164191000Y-103933500D01*
X164162000Y-103896500D01*
X164135000Y-103857500D01*
X164111000Y-103817500D01*
X164088000Y-103776500D01*
X164068000Y-103733500D01*
X164050000Y-103690500D01*
X164034000Y-103645500D01*
X164021000Y-103600500D01*
X164010000Y-103554500D01*
X164001000Y-103508500D01*
X163995000Y-103461500D01*
X163991000Y-103414500D01*
X163990000Y-103367500D01*
X163991000Y-103320500D01*
X163995000Y-103273500D01*
X164001000Y-103226500D01*
X164010000Y-103180500D01*
X164021000Y-103134500D01*
X164034000Y-103089500D01*
X164050000Y-103044500D01*
X164068000Y-103001500D01*
X164088000Y-102958500D01*
X164111000Y-102917500D01*
X164135000Y-102877500D01*
X164162000Y-102838500D01*
X164191000Y-102801500D01*
X164221000Y-102765500D01*
X164254000Y-102731500D01*
X164288000Y-102698500D01*
X164324000Y-102668500D01*
X164361000Y-102639500D01*
X164400000Y-102612500D01*
X164440000Y-102588500D01*
X164481000Y-102565500D01*
X164524000Y-102545500D01*
X164567000Y-102527500D01*
X164612000Y-102511500D01*
X164657000Y-102498500D01*
X164703000Y-102487500D01*
X164749000Y-102478500D01*
X164796000Y-102472500D01*
X164843000Y-102468500D01*
X164890000Y-102467500D01*
X167390000Y-102467500D01*
X167390000Y-104267500D01*
G37*
X167390000Y-106807500D02*
X164890000Y-106807500D01*
X164843000Y-106806500D01*
X164796000Y-106802500D01*
X164749000Y-106796500D01*
X164703000Y-106787500D01*
X164657000Y-106776500D01*
X164612000Y-106763500D01*
X164567000Y-106747500D01*
X164524000Y-106729500D01*
X164481000Y-106709500D01*
X164440000Y-106686500D01*
X164400000Y-106662500D01*
X164361000Y-106635500D01*
X164324000Y-106606500D01*
X164288000Y-106576500D01*
X164254000Y-106543500D01*
X164221000Y-106509500D01*
X164191000Y-106473500D01*
X164162000Y-106436500D01*
X164135000Y-106397500D01*
X164111000Y-106357500D01*
X164088000Y-106316500D01*
X164068000Y-106273500D01*
X164050000Y-106230500D01*
X164034000Y-106185500D01*
X164021000Y-106140500D01*
X164010000Y-106094500D01*
X164001000Y-106048500D01*
X163995000Y-106001500D01*
X163991000Y-105954500D01*
X163990000Y-105907500D01*
X163991000Y-105860500D01*
X163995000Y-105813500D01*
X164001000Y-105766500D01*
X164010000Y-105720500D01*
X164021000Y-105674500D01*
X164034000Y-105629500D01*
X164050000Y-105584500D01*
X164068000Y-105541500D01*
X164088000Y-105498500D01*
X164111000Y-105457500D01*
X164135000Y-105417500D01*
X164162000Y-105378500D01*
X164191000Y-105341500D01*
X164221000Y-105305500D01*
X164254000Y-105271500D01*
X164288000Y-105238500D01*
X164324000Y-105208500D01*
X164361000Y-105179500D01*
X164400000Y-105152500D01*
X164440000Y-105128500D01*
X164481000Y-105105500D01*
X164524000Y-105085500D01*
X164567000Y-105067500D01*
X164612000Y-105051500D01*
X164657000Y-105038500D01*
X164703000Y-105027500D01*
X164749000Y-105018500D01*
X164796000Y-105012500D01*
X164843000Y-105008500D01*
X164890000Y-105007500D01*
X167390000Y-105007500D01*
X167390000Y-106807500D01*
G36*
X167390000Y-106807500D02*
G01*
X164890000Y-106807500D01*
X164843000Y-106806500D01*
X164796000Y-106802500D01*
X164749000Y-106796500D01*
X164703000Y-106787500D01*
X164657000Y-106776500D01*
X164612000Y-106763500D01*
X164567000Y-106747500D01*
X164524000Y-106729500D01*
X164481000Y-106709500D01*
X164440000Y-106686500D01*
X164400000Y-106662500D01*
X164361000Y-106635500D01*
X164324000Y-106606500D01*
X164288000Y-106576500D01*
X164254000Y-106543500D01*
X164221000Y-106509500D01*
X164191000Y-106473500D01*
X164162000Y-106436500D01*
X164135000Y-106397500D01*
X164111000Y-106357500D01*
X164088000Y-106316500D01*
X164068000Y-106273500D01*
X164050000Y-106230500D01*
X164034000Y-106185500D01*
X164021000Y-106140500D01*
X164010000Y-106094500D01*
X164001000Y-106048500D01*
X163995000Y-106001500D01*
X163991000Y-105954500D01*
X163990000Y-105907500D01*
X163991000Y-105860500D01*
X163995000Y-105813500D01*
X164001000Y-105766500D01*
X164010000Y-105720500D01*
X164021000Y-105674500D01*
X164034000Y-105629500D01*
X164050000Y-105584500D01*
X164068000Y-105541500D01*
X164088000Y-105498500D01*
X164111000Y-105457500D01*
X164135000Y-105417500D01*
X164162000Y-105378500D01*
X164191000Y-105341500D01*
X164221000Y-105305500D01*
X164254000Y-105271500D01*
X164288000Y-105238500D01*
X164324000Y-105208500D01*
X164361000Y-105179500D01*
X164400000Y-105152500D01*
X164440000Y-105128500D01*
X164481000Y-105105500D01*
X164524000Y-105085500D01*
X164567000Y-105067500D01*
X164612000Y-105051500D01*
X164657000Y-105038500D01*
X164703000Y-105027500D01*
X164749000Y-105018500D01*
X164796000Y-105012500D01*
X164843000Y-105008500D01*
X164890000Y-105007500D01*
X167390000Y-105007500D01*
X167390000Y-106807500D01*
G37*
X167390000Y-109347500D02*
X164890000Y-109347500D01*
X164843000Y-109346500D01*
X164796000Y-109342500D01*
X164749000Y-109336500D01*
X164703000Y-109327500D01*
X164657000Y-109316500D01*
X164612000Y-109303500D01*
X164567000Y-109287500D01*
X164524000Y-109269500D01*
X164481000Y-109249500D01*
X164440000Y-109226500D01*
X164400000Y-109202500D01*
X164361000Y-109175500D01*
X164324000Y-109146500D01*
X164288000Y-109116500D01*
X164254000Y-109083500D01*
X164221000Y-109049500D01*
X164191000Y-109013500D01*
X164162000Y-108976500D01*
X164135000Y-108937500D01*
X164111000Y-108897500D01*
X164088000Y-108856500D01*
X164068000Y-108813500D01*
X164050000Y-108770500D01*
X164034000Y-108725500D01*
X164021000Y-108680500D01*
X164010000Y-108634500D01*
X164001000Y-108588500D01*
X163995000Y-108541500D01*
X163991000Y-108494500D01*
X163990000Y-108447500D01*
X163991000Y-108400500D01*
X163995000Y-108353500D01*
X164001000Y-108306500D01*
X164010000Y-108260500D01*
X164021000Y-108214500D01*
X164034000Y-108169500D01*
X164050000Y-108124500D01*
X164068000Y-108081500D01*
X164088000Y-108038500D01*
X164111000Y-107997500D01*
X164135000Y-107957500D01*
X164162000Y-107918500D01*
X164191000Y-107881500D01*
X164221000Y-107845500D01*
X164254000Y-107811500D01*
X164288000Y-107778500D01*
X164324000Y-107748500D01*
X164361000Y-107719500D01*
X164400000Y-107692500D01*
X164440000Y-107668500D01*
X164481000Y-107645500D01*
X164524000Y-107625500D01*
X164567000Y-107607500D01*
X164612000Y-107591500D01*
X164657000Y-107578500D01*
X164703000Y-107567500D01*
X164749000Y-107558500D01*
X164796000Y-107552500D01*
X164843000Y-107548500D01*
X164890000Y-107547500D01*
X167390000Y-107547500D01*
X167390000Y-109347500D01*
G36*
X167390000Y-109347500D02*
G01*
X164890000Y-109347500D01*
X164843000Y-109346500D01*
X164796000Y-109342500D01*
X164749000Y-109336500D01*
X164703000Y-109327500D01*
X164657000Y-109316500D01*
X164612000Y-109303500D01*
X164567000Y-109287500D01*
X164524000Y-109269500D01*
X164481000Y-109249500D01*
X164440000Y-109226500D01*
X164400000Y-109202500D01*
X164361000Y-109175500D01*
X164324000Y-109146500D01*
X164288000Y-109116500D01*
X164254000Y-109083500D01*
X164221000Y-109049500D01*
X164191000Y-109013500D01*
X164162000Y-108976500D01*
X164135000Y-108937500D01*
X164111000Y-108897500D01*
X164088000Y-108856500D01*
X164068000Y-108813500D01*
X164050000Y-108770500D01*
X164034000Y-108725500D01*
X164021000Y-108680500D01*
X164010000Y-108634500D01*
X164001000Y-108588500D01*
X163995000Y-108541500D01*
X163991000Y-108494500D01*
X163990000Y-108447500D01*
X163991000Y-108400500D01*
X163995000Y-108353500D01*
X164001000Y-108306500D01*
X164010000Y-108260500D01*
X164021000Y-108214500D01*
X164034000Y-108169500D01*
X164050000Y-108124500D01*
X164068000Y-108081500D01*
X164088000Y-108038500D01*
X164111000Y-107997500D01*
X164135000Y-107957500D01*
X164162000Y-107918500D01*
X164191000Y-107881500D01*
X164221000Y-107845500D01*
X164254000Y-107811500D01*
X164288000Y-107778500D01*
X164324000Y-107748500D01*
X164361000Y-107719500D01*
X164400000Y-107692500D01*
X164440000Y-107668500D01*
X164481000Y-107645500D01*
X164524000Y-107625500D01*
X164567000Y-107607500D01*
X164612000Y-107591500D01*
X164657000Y-107578500D01*
X164703000Y-107567500D01*
X164749000Y-107558500D01*
X164796000Y-107552500D01*
X164843000Y-107548500D01*
X164890000Y-107547500D01*
X167390000Y-107547500D01*
X167390000Y-109347500D01*
G37*
X167390000Y-114427500D02*
X164890000Y-114427500D01*
X164843000Y-114426500D01*
X164796000Y-114422500D01*
X164749000Y-114416500D01*
X164703000Y-114407500D01*
X164657000Y-114396500D01*
X164612000Y-114383500D01*
X164567000Y-114367500D01*
X164524000Y-114349500D01*
X164481000Y-114329500D01*
X164440000Y-114306500D01*
X164400000Y-114282500D01*
X164361000Y-114255500D01*
X164324000Y-114226500D01*
X164288000Y-114196500D01*
X164254000Y-114163500D01*
X164221000Y-114129500D01*
X164191000Y-114093500D01*
X164162000Y-114056500D01*
X164135000Y-114017500D01*
X164111000Y-113977500D01*
X164088000Y-113936500D01*
X164068000Y-113893500D01*
X164050000Y-113850500D01*
X164034000Y-113805500D01*
X164021000Y-113760500D01*
X164010000Y-113714500D01*
X164001000Y-113668500D01*
X163995000Y-113621500D01*
X163991000Y-113574500D01*
X163990000Y-113527500D01*
X163991000Y-113480500D01*
X163995000Y-113433500D01*
X164001000Y-113386500D01*
X164010000Y-113340500D01*
X164021000Y-113294500D01*
X164034000Y-113249500D01*
X164050000Y-113204500D01*
X164068000Y-113161500D01*
X164088000Y-113118500D01*
X164111000Y-113077500D01*
X164135000Y-113037500D01*
X164162000Y-112998500D01*
X164191000Y-112961500D01*
X164221000Y-112925500D01*
X164254000Y-112891500D01*
X164288000Y-112858500D01*
X164324000Y-112828500D01*
X164361000Y-112799500D01*
X164400000Y-112772500D01*
X164440000Y-112748500D01*
X164481000Y-112725500D01*
X164524000Y-112705500D01*
X164567000Y-112687500D01*
X164612000Y-112671500D01*
X164657000Y-112658500D01*
X164703000Y-112647500D01*
X164749000Y-112638500D01*
X164796000Y-112632500D01*
X164843000Y-112628500D01*
X164890000Y-112627500D01*
X167390000Y-112627500D01*
X167390000Y-114427500D01*
G36*
X167390000Y-114427500D02*
G01*
X164890000Y-114427500D01*
X164843000Y-114426500D01*
X164796000Y-114422500D01*
X164749000Y-114416500D01*
X164703000Y-114407500D01*
X164657000Y-114396500D01*
X164612000Y-114383500D01*
X164567000Y-114367500D01*
X164524000Y-114349500D01*
X164481000Y-114329500D01*
X164440000Y-114306500D01*
X164400000Y-114282500D01*
X164361000Y-114255500D01*
X164324000Y-114226500D01*
X164288000Y-114196500D01*
X164254000Y-114163500D01*
X164221000Y-114129500D01*
X164191000Y-114093500D01*
X164162000Y-114056500D01*
X164135000Y-114017500D01*
X164111000Y-113977500D01*
X164088000Y-113936500D01*
X164068000Y-113893500D01*
X164050000Y-113850500D01*
X164034000Y-113805500D01*
X164021000Y-113760500D01*
X164010000Y-113714500D01*
X164001000Y-113668500D01*
X163995000Y-113621500D01*
X163991000Y-113574500D01*
X163990000Y-113527500D01*
X163991000Y-113480500D01*
X163995000Y-113433500D01*
X164001000Y-113386500D01*
X164010000Y-113340500D01*
X164021000Y-113294500D01*
X164034000Y-113249500D01*
X164050000Y-113204500D01*
X164068000Y-113161500D01*
X164088000Y-113118500D01*
X164111000Y-113077500D01*
X164135000Y-113037500D01*
X164162000Y-112998500D01*
X164191000Y-112961500D01*
X164221000Y-112925500D01*
X164254000Y-112891500D01*
X164288000Y-112858500D01*
X164324000Y-112828500D01*
X164361000Y-112799500D01*
X164400000Y-112772500D01*
X164440000Y-112748500D01*
X164481000Y-112725500D01*
X164524000Y-112705500D01*
X164567000Y-112687500D01*
X164612000Y-112671500D01*
X164657000Y-112658500D01*
X164703000Y-112647500D01*
X164749000Y-112638500D01*
X164796000Y-112632500D01*
X164843000Y-112628500D01*
X164890000Y-112627500D01*
X167390000Y-112627500D01*
X167390000Y-114427500D01*
G37*
X167390000Y-116967500D02*
X164890000Y-116967500D01*
X164843000Y-116966500D01*
X164796000Y-116962500D01*
X164749000Y-116956500D01*
X164703000Y-116947500D01*
X164657000Y-116936500D01*
X164612000Y-116923500D01*
X164567000Y-116907500D01*
X164524000Y-116889500D01*
X164481000Y-116869500D01*
X164440000Y-116846500D01*
X164400000Y-116822500D01*
X164361000Y-116795500D01*
X164324000Y-116766500D01*
X164288000Y-116736500D01*
X164254000Y-116703500D01*
X164221000Y-116669500D01*
X164191000Y-116633500D01*
X164162000Y-116596500D01*
X164135000Y-116557500D01*
X164111000Y-116517500D01*
X164088000Y-116476500D01*
X164068000Y-116433500D01*
X164050000Y-116390500D01*
X164034000Y-116345500D01*
X164021000Y-116300500D01*
X164010000Y-116254500D01*
X164001000Y-116208500D01*
X163995000Y-116161500D01*
X163991000Y-116114500D01*
X163990000Y-116067500D01*
X163991000Y-116020500D01*
X163995000Y-115973500D01*
X164001000Y-115926500D01*
X164010000Y-115880500D01*
X164021000Y-115834500D01*
X164034000Y-115789500D01*
X164050000Y-115744500D01*
X164068000Y-115701500D01*
X164088000Y-115658500D01*
X164111000Y-115617500D01*
X164135000Y-115577500D01*
X164162000Y-115538500D01*
X164191000Y-115501500D01*
X164221000Y-115465500D01*
X164254000Y-115431500D01*
X164288000Y-115398500D01*
X164324000Y-115368500D01*
X164361000Y-115339500D01*
X164400000Y-115312500D01*
X164440000Y-115288500D01*
X164481000Y-115265500D01*
X164524000Y-115245500D01*
X164567000Y-115227500D01*
X164612000Y-115211500D01*
X164657000Y-115198500D01*
X164703000Y-115187500D01*
X164749000Y-115178500D01*
X164796000Y-115172500D01*
X164843000Y-115168500D01*
X164890000Y-115167500D01*
X167390000Y-115167500D01*
X167390000Y-116967500D01*
G36*
X167390000Y-116967500D02*
G01*
X164890000Y-116967500D01*
X164843000Y-116966500D01*
X164796000Y-116962500D01*
X164749000Y-116956500D01*
X164703000Y-116947500D01*
X164657000Y-116936500D01*
X164612000Y-116923500D01*
X164567000Y-116907500D01*
X164524000Y-116889500D01*
X164481000Y-116869500D01*
X164440000Y-116846500D01*
X164400000Y-116822500D01*
X164361000Y-116795500D01*
X164324000Y-116766500D01*
X164288000Y-116736500D01*
X164254000Y-116703500D01*
X164221000Y-116669500D01*
X164191000Y-116633500D01*
X164162000Y-116596500D01*
X164135000Y-116557500D01*
X164111000Y-116517500D01*
X164088000Y-116476500D01*
X164068000Y-116433500D01*
X164050000Y-116390500D01*
X164034000Y-116345500D01*
X164021000Y-116300500D01*
X164010000Y-116254500D01*
X164001000Y-116208500D01*
X163995000Y-116161500D01*
X163991000Y-116114500D01*
X163990000Y-116067500D01*
X163991000Y-116020500D01*
X163995000Y-115973500D01*
X164001000Y-115926500D01*
X164010000Y-115880500D01*
X164021000Y-115834500D01*
X164034000Y-115789500D01*
X164050000Y-115744500D01*
X164068000Y-115701500D01*
X164088000Y-115658500D01*
X164111000Y-115617500D01*
X164135000Y-115577500D01*
X164162000Y-115538500D01*
X164191000Y-115501500D01*
X164221000Y-115465500D01*
X164254000Y-115431500D01*
X164288000Y-115398500D01*
X164324000Y-115368500D01*
X164361000Y-115339500D01*
X164400000Y-115312500D01*
X164440000Y-115288500D01*
X164481000Y-115265500D01*
X164524000Y-115245500D01*
X164567000Y-115227500D01*
X164612000Y-115211500D01*
X164657000Y-115198500D01*
X164703000Y-115187500D01*
X164749000Y-115178500D01*
X164796000Y-115172500D01*
X164843000Y-115168500D01*
X164890000Y-115167500D01*
X167390000Y-115167500D01*
X167390000Y-116967500D01*
G37*
X167390000Y-119507500D02*
X164890000Y-119507500D01*
X164843000Y-119506500D01*
X164796000Y-119502500D01*
X164749000Y-119496500D01*
X164703000Y-119487500D01*
X164657000Y-119476500D01*
X164612000Y-119463500D01*
X164567000Y-119447500D01*
X164524000Y-119429500D01*
X164481000Y-119409500D01*
X164440000Y-119386500D01*
X164400000Y-119362500D01*
X164361000Y-119335500D01*
X164324000Y-119306500D01*
X164288000Y-119276500D01*
X164254000Y-119243500D01*
X164221000Y-119209500D01*
X164191000Y-119173500D01*
X164162000Y-119136500D01*
X164135000Y-119097500D01*
X164111000Y-119057500D01*
X164088000Y-119016500D01*
X164068000Y-118973500D01*
X164050000Y-118930500D01*
X164034000Y-118885500D01*
X164021000Y-118840500D01*
X164010000Y-118794500D01*
X164001000Y-118748500D01*
X163995000Y-118701500D01*
X163991000Y-118654500D01*
X163990000Y-118607500D01*
X163991000Y-118560500D01*
X163995000Y-118513500D01*
X164001000Y-118466500D01*
X164010000Y-118420500D01*
X164021000Y-118374500D01*
X164034000Y-118329500D01*
X164050000Y-118284500D01*
X164068000Y-118241500D01*
X164088000Y-118198500D01*
X164111000Y-118157500D01*
X164135000Y-118117500D01*
X164162000Y-118078500D01*
X164191000Y-118041500D01*
X164221000Y-118005500D01*
X164254000Y-117971500D01*
X164288000Y-117938500D01*
X164324000Y-117908500D01*
X164361000Y-117879500D01*
X164400000Y-117852500D01*
X164440000Y-117828500D01*
X164481000Y-117805500D01*
X164524000Y-117785500D01*
X164567000Y-117767500D01*
X164612000Y-117751500D01*
X164657000Y-117738500D01*
X164703000Y-117727500D01*
X164749000Y-117718500D01*
X164796000Y-117712500D01*
X164843000Y-117708500D01*
X164890000Y-117707500D01*
X167390000Y-117707500D01*
X167390000Y-119507500D01*
G36*
X167390000Y-119507500D02*
G01*
X164890000Y-119507500D01*
X164843000Y-119506500D01*
X164796000Y-119502500D01*
X164749000Y-119496500D01*
X164703000Y-119487500D01*
X164657000Y-119476500D01*
X164612000Y-119463500D01*
X164567000Y-119447500D01*
X164524000Y-119429500D01*
X164481000Y-119409500D01*
X164440000Y-119386500D01*
X164400000Y-119362500D01*
X164361000Y-119335500D01*
X164324000Y-119306500D01*
X164288000Y-119276500D01*
X164254000Y-119243500D01*
X164221000Y-119209500D01*
X164191000Y-119173500D01*
X164162000Y-119136500D01*
X164135000Y-119097500D01*
X164111000Y-119057500D01*
X164088000Y-119016500D01*
X164068000Y-118973500D01*
X164050000Y-118930500D01*
X164034000Y-118885500D01*
X164021000Y-118840500D01*
X164010000Y-118794500D01*
X164001000Y-118748500D01*
X163995000Y-118701500D01*
X163991000Y-118654500D01*
X163990000Y-118607500D01*
X163991000Y-118560500D01*
X163995000Y-118513500D01*
X164001000Y-118466500D01*
X164010000Y-118420500D01*
X164021000Y-118374500D01*
X164034000Y-118329500D01*
X164050000Y-118284500D01*
X164068000Y-118241500D01*
X164088000Y-118198500D01*
X164111000Y-118157500D01*
X164135000Y-118117500D01*
X164162000Y-118078500D01*
X164191000Y-118041500D01*
X164221000Y-118005500D01*
X164254000Y-117971500D01*
X164288000Y-117938500D01*
X164324000Y-117908500D01*
X164361000Y-117879500D01*
X164400000Y-117852500D01*
X164440000Y-117828500D01*
X164481000Y-117805500D01*
X164524000Y-117785500D01*
X164567000Y-117767500D01*
X164612000Y-117751500D01*
X164657000Y-117738500D01*
X164703000Y-117727500D01*
X164749000Y-117718500D01*
X164796000Y-117712500D01*
X164843000Y-117708500D01*
X164890000Y-117707500D01*
X167390000Y-117707500D01*
X167390000Y-119507500D01*
G37*
X167390000Y-122047500D02*
X164890000Y-122047500D01*
X164843000Y-122046500D01*
X164796000Y-122042500D01*
X164749000Y-122036500D01*
X164703000Y-122027500D01*
X164657000Y-122016500D01*
X164612000Y-122003500D01*
X164567000Y-121987500D01*
X164524000Y-121969500D01*
X164481000Y-121949500D01*
X164440000Y-121926500D01*
X164400000Y-121902500D01*
X164361000Y-121875500D01*
X164324000Y-121846500D01*
X164288000Y-121816500D01*
X164254000Y-121783500D01*
X164221000Y-121749500D01*
X164191000Y-121713500D01*
X164162000Y-121676500D01*
X164135000Y-121637500D01*
X164111000Y-121597500D01*
X164088000Y-121556500D01*
X164068000Y-121513500D01*
X164050000Y-121470500D01*
X164034000Y-121425500D01*
X164021000Y-121380500D01*
X164010000Y-121334500D01*
X164001000Y-121288500D01*
X163995000Y-121241500D01*
X163991000Y-121194500D01*
X163990000Y-121147500D01*
X163991000Y-121100500D01*
X163995000Y-121053500D01*
X164001000Y-121006500D01*
X164010000Y-120960500D01*
X164021000Y-120914500D01*
X164034000Y-120869500D01*
X164050000Y-120824500D01*
X164068000Y-120781500D01*
X164088000Y-120738500D01*
X164111000Y-120697500D01*
X164135000Y-120657500D01*
X164162000Y-120618500D01*
X164191000Y-120581500D01*
X164221000Y-120545500D01*
X164254000Y-120511500D01*
X164288000Y-120478500D01*
X164324000Y-120448500D01*
X164361000Y-120419500D01*
X164400000Y-120392500D01*
X164440000Y-120368500D01*
X164481000Y-120345500D01*
X164524000Y-120325500D01*
X164567000Y-120307500D01*
X164612000Y-120291500D01*
X164657000Y-120278500D01*
X164703000Y-120267500D01*
X164749000Y-120258500D01*
X164796000Y-120252500D01*
X164843000Y-120248500D01*
X164890000Y-120247500D01*
X167390000Y-120247500D01*
X167390000Y-122047500D01*
G36*
X167390000Y-122047500D02*
G01*
X164890000Y-122047500D01*
X164843000Y-122046500D01*
X164796000Y-122042500D01*
X164749000Y-122036500D01*
X164703000Y-122027500D01*
X164657000Y-122016500D01*
X164612000Y-122003500D01*
X164567000Y-121987500D01*
X164524000Y-121969500D01*
X164481000Y-121949500D01*
X164440000Y-121926500D01*
X164400000Y-121902500D01*
X164361000Y-121875500D01*
X164324000Y-121846500D01*
X164288000Y-121816500D01*
X164254000Y-121783500D01*
X164221000Y-121749500D01*
X164191000Y-121713500D01*
X164162000Y-121676500D01*
X164135000Y-121637500D01*
X164111000Y-121597500D01*
X164088000Y-121556500D01*
X164068000Y-121513500D01*
X164050000Y-121470500D01*
X164034000Y-121425500D01*
X164021000Y-121380500D01*
X164010000Y-121334500D01*
X164001000Y-121288500D01*
X163995000Y-121241500D01*
X163991000Y-121194500D01*
X163990000Y-121147500D01*
X163991000Y-121100500D01*
X163995000Y-121053500D01*
X164001000Y-121006500D01*
X164010000Y-120960500D01*
X164021000Y-120914500D01*
X164034000Y-120869500D01*
X164050000Y-120824500D01*
X164068000Y-120781500D01*
X164088000Y-120738500D01*
X164111000Y-120697500D01*
X164135000Y-120657500D01*
X164162000Y-120618500D01*
X164191000Y-120581500D01*
X164221000Y-120545500D01*
X164254000Y-120511500D01*
X164288000Y-120478500D01*
X164324000Y-120448500D01*
X164361000Y-120419500D01*
X164400000Y-120392500D01*
X164440000Y-120368500D01*
X164481000Y-120345500D01*
X164524000Y-120325500D01*
X164567000Y-120307500D01*
X164612000Y-120291500D01*
X164657000Y-120278500D01*
X164703000Y-120267500D01*
X164749000Y-120258500D01*
X164796000Y-120252500D01*
X164843000Y-120248500D01*
X164890000Y-120247500D01*
X167390000Y-120247500D01*
X167390000Y-122047500D01*
G37*
X167390000Y-127127500D02*
X164890000Y-127127500D01*
X164843000Y-127126500D01*
X164796000Y-127122500D01*
X164749000Y-127116500D01*
X164703000Y-127107500D01*
X164657000Y-127096500D01*
X164612000Y-127083500D01*
X164567000Y-127067500D01*
X164524000Y-127049500D01*
X164481000Y-127029500D01*
X164440000Y-127006500D01*
X164400000Y-126982500D01*
X164361000Y-126955500D01*
X164324000Y-126926500D01*
X164288000Y-126896500D01*
X164254000Y-126863500D01*
X164221000Y-126829500D01*
X164191000Y-126793500D01*
X164162000Y-126756500D01*
X164135000Y-126717500D01*
X164111000Y-126677500D01*
X164088000Y-126636500D01*
X164068000Y-126593500D01*
X164050000Y-126550500D01*
X164034000Y-126505500D01*
X164021000Y-126460500D01*
X164010000Y-126414500D01*
X164001000Y-126368500D01*
X163995000Y-126321500D01*
X163991000Y-126274500D01*
X163990000Y-126227500D01*
X163991000Y-126180500D01*
X163995000Y-126133500D01*
X164001000Y-126086500D01*
X164010000Y-126040500D01*
X164021000Y-125994500D01*
X164034000Y-125949500D01*
X164050000Y-125904500D01*
X164068000Y-125861500D01*
X164088000Y-125818500D01*
X164111000Y-125777500D01*
X164135000Y-125737500D01*
X164162000Y-125698500D01*
X164191000Y-125661500D01*
X164221000Y-125625500D01*
X164254000Y-125591500D01*
X164288000Y-125558500D01*
X164324000Y-125528500D01*
X164361000Y-125499500D01*
X164400000Y-125472500D01*
X164440000Y-125448500D01*
X164481000Y-125425500D01*
X164524000Y-125405500D01*
X164567000Y-125387500D01*
X164612000Y-125371500D01*
X164657000Y-125358500D01*
X164703000Y-125347500D01*
X164749000Y-125338500D01*
X164796000Y-125332500D01*
X164843000Y-125328500D01*
X164890000Y-125327500D01*
X167390000Y-125327500D01*
X167390000Y-127127500D01*
G36*
X167390000Y-127127500D02*
G01*
X164890000Y-127127500D01*
X164843000Y-127126500D01*
X164796000Y-127122500D01*
X164749000Y-127116500D01*
X164703000Y-127107500D01*
X164657000Y-127096500D01*
X164612000Y-127083500D01*
X164567000Y-127067500D01*
X164524000Y-127049500D01*
X164481000Y-127029500D01*
X164440000Y-127006500D01*
X164400000Y-126982500D01*
X164361000Y-126955500D01*
X164324000Y-126926500D01*
X164288000Y-126896500D01*
X164254000Y-126863500D01*
X164221000Y-126829500D01*
X164191000Y-126793500D01*
X164162000Y-126756500D01*
X164135000Y-126717500D01*
X164111000Y-126677500D01*
X164088000Y-126636500D01*
X164068000Y-126593500D01*
X164050000Y-126550500D01*
X164034000Y-126505500D01*
X164021000Y-126460500D01*
X164010000Y-126414500D01*
X164001000Y-126368500D01*
X163995000Y-126321500D01*
X163991000Y-126274500D01*
X163990000Y-126227500D01*
X163991000Y-126180500D01*
X163995000Y-126133500D01*
X164001000Y-126086500D01*
X164010000Y-126040500D01*
X164021000Y-125994500D01*
X164034000Y-125949500D01*
X164050000Y-125904500D01*
X164068000Y-125861500D01*
X164088000Y-125818500D01*
X164111000Y-125777500D01*
X164135000Y-125737500D01*
X164162000Y-125698500D01*
X164191000Y-125661500D01*
X164221000Y-125625500D01*
X164254000Y-125591500D01*
X164288000Y-125558500D01*
X164324000Y-125528500D01*
X164361000Y-125499500D01*
X164400000Y-125472500D01*
X164440000Y-125448500D01*
X164481000Y-125425500D01*
X164524000Y-125405500D01*
X164567000Y-125387500D01*
X164612000Y-125371500D01*
X164657000Y-125358500D01*
X164703000Y-125347500D01*
X164749000Y-125338500D01*
X164796000Y-125332500D01*
X164843000Y-125328500D01*
X164890000Y-125327500D01*
X167390000Y-125327500D01*
X167390000Y-127127500D01*
G37*
X167390000Y-129667500D02*
X164890000Y-129667500D01*
X164843000Y-129666500D01*
X164796000Y-129662500D01*
X164749000Y-129656500D01*
X164703000Y-129647500D01*
X164657000Y-129636500D01*
X164612000Y-129623500D01*
X164567000Y-129607500D01*
X164524000Y-129589500D01*
X164481000Y-129569500D01*
X164440000Y-129546500D01*
X164400000Y-129522500D01*
X164361000Y-129495500D01*
X164324000Y-129466500D01*
X164288000Y-129436500D01*
X164254000Y-129403500D01*
X164221000Y-129369500D01*
X164191000Y-129333500D01*
X164162000Y-129296500D01*
X164135000Y-129257500D01*
X164111000Y-129217500D01*
X164088000Y-129176500D01*
X164068000Y-129133500D01*
X164050000Y-129090500D01*
X164034000Y-129045500D01*
X164021000Y-129000500D01*
X164010000Y-128954500D01*
X164001000Y-128908500D01*
X163995000Y-128861500D01*
X163991000Y-128814500D01*
X163990000Y-128767500D01*
X163991000Y-128720500D01*
X163995000Y-128673500D01*
X164001000Y-128626500D01*
X164010000Y-128580500D01*
X164021000Y-128534500D01*
X164034000Y-128489500D01*
X164050000Y-128444500D01*
X164068000Y-128401500D01*
X164088000Y-128358500D01*
X164111000Y-128317500D01*
X164135000Y-128277500D01*
X164162000Y-128238500D01*
X164191000Y-128201500D01*
X164221000Y-128165500D01*
X164254000Y-128131500D01*
X164288000Y-128098500D01*
X164324000Y-128068500D01*
X164361000Y-128039500D01*
X164400000Y-128012500D01*
X164440000Y-127988500D01*
X164481000Y-127965500D01*
X164524000Y-127945500D01*
X164567000Y-127927500D01*
X164612000Y-127911500D01*
X164657000Y-127898500D01*
X164703000Y-127887500D01*
X164749000Y-127878500D01*
X164796000Y-127872500D01*
X164843000Y-127868500D01*
X164890000Y-127867500D01*
X167390000Y-127867500D01*
X167390000Y-129667500D01*
G36*
X167390000Y-129667500D02*
G01*
X164890000Y-129667500D01*
X164843000Y-129666500D01*
X164796000Y-129662500D01*
X164749000Y-129656500D01*
X164703000Y-129647500D01*
X164657000Y-129636500D01*
X164612000Y-129623500D01*
X164567000Y-129607500D01*
X164524000Y-129589500D01*
X164481000Y-129569500D01*
X164440000Y-129546500D01*
X164400000Y-129522500D01*
X164361000Y-129495500D01*
X164324000Y-129466500D01*
X164288000Y-129436500D01*
X164254000Y-129403500D01*
X164221000Y-129369500D01*
X164191000Y-129333500D01*
X164162000Y-129296500D01*
X164135000Y-129257500D01*
X164111000Y-129217500D01*
X164088000Y-129176500D01*
X164068000Y-129133500D01*
X164050000Y-129090500D01*
X164034000Y-129045500D01*
X164021000Y-129000500D01*
X164010000Y-128954500D01*
X164001000Y-128908500D01*
X163995000Y-128861500D01*
X163991000Y-128814500D01*
X163990000Y-128767500D01*
X163991000Y-128720500D01*
X163995000Y-128673500D01*
X164001000Y-128626500D01*
X164010000Y-128580500D01*
X164021000Y-128534500D01*
X164034000Y-128489500D01*
X164050000Y-128444500D01*
X164068000Y-128401500D01*
X164088000Y-128358500D01*
X164111000Y-128317500D01*
X164135000Y-128277500D01*
X164162000Y-128238500D01*
X164191000Y-128201500D01*
X164221000Y-128165500D01*
X164254000Y-128131500D01*
X164288000Y-128098500D01*
X164324000Y-128068500D01*
X164361000Y-128039500D01*
X164400000Y-128012500D01*
X164440000Y-127988500D01*
X164481000Y-127965500D01*
X164524000Y-127945500D01*
X164567000Y-127927500D01*
X164612000Y-127911500D01*
X164657000Y-127898500D01*
X164703000Y-127887500D01*
X164749000Y-127878500D01*
X164796000Y-127872500D01*
X164843000Y-127868500D01*
X164890000Y-127867500D01*
X167390000Y-127867500D01*
X167390000Y-129667500D01*
G37*
X167390000Y-132207500D02*
X164890000Y-132207500D01*
X164843000Y-132206500D01*
X164796000Y-132202500D01*
X164749000Y-132196500D01*
X164703000Y-132187500D01*
X164657000Y-132176500D01*
X164612000Y-132163500D01*
X164567000Y-132147500D01*
X164524000Y-132129500D01*
X164481000Y-132109500D01*
X164440000Y-132086500D01*
X164400000Y-132062500D01*
X164361000Y-132035500D01*
X164324000Y-132006500D01*
X164288000Y-131976500D01*
X164254000Y-131943500D01*
X164221000Y-131909500D01*
X164191000Y-131873500D01*
X164162000Y-131836500D01*
X164135000Y-131797500D01*
X164111000Y-131757500D01*
X164088000Y-131716500D01*
X164068000Y-131673500D01*
X164050000Y-131630500D01*
X164034000Y-131585500D01*
X164021000Y-131540500D01*
X164010000Y-131494500D01*
X164001000Y-131448500D01*
X163995000Y-131401500D01*
X163991000Y-131354500D01*
X163990000Y-131307500D01*
X163991000Y-131260500D01*
X163995000Y-131213500D01*
X164001000Y-131166500D01*
X164010000Y-131120500D01*
X164021000Y-131074500D01*
X164034000Y-131029500D01*
X164050000Y-130984500D01*
X164068000Y-130941500D01*
X164088000Y-130898500D01*
X164111000Y-130857500D01*
X164135000Y-130817500D01*
X164162000Y-130778500D01*
X164191000Y-130741500D01*
X164221000Y-130705500D01*
X164254000Y-130671500D01*
X164288000Y-130638500D01*
X164324000Y-130608500D01*
X164361000Y-130579500D01*
X164400000Y-130552500D01*
X164440000Y-130528500D01*
X164481000Y-130505500D01*
X164524000Y-130485500D01*
X164567000Y-130467500D01*
X164612000Y-130451500D01*
X164657000Y-130438500D01*
X164703000Y-130427500D01*
X164749000Y-130418500D01*
X164796000Y-130412500D01*
X164843000Y-130408500D01*
X164890000Y-130407500D01*
X167390000Y-130407500D01*
X167390000Y-132207500D01*
G36*
X167390000Y-132207500D02*
G01*
X164890000Y-132207500D01*
X164843000Y-132206500D01*
X164796000Y-132202500D01*
X164749000Y-132196500D01*
X164703000Y-132187500D01*
X164657000Y-132176500D01*
X164612000Y-132163500D01*
X164567000Y-132147500D01*
X164524000Y-132129500D01*
X164481000Y-132109500D01*
X164440000Y-132086500D01*
X164400000Y-132062500D01*
X164361000Y-132035500D01*
X164324000Y-132006500D01*
X164288000Y-131976500D01*
X164254000Y-131943500D01*
X164221000Y-131909500D01*
X164191000Y-131873500D01*
X164162000Y-131836500D01*
X164135000Y-131797500D01*
X164111000Y-131757500D01*
X164088000Y-131716500D01*
X164068000Y-131673500D01*
X164050000Y-131630500D01*
X164034000Y-131585500D01*
X164021000Y-131540500D01*
X164010000Y-131494500D01*
X164001000Y-131448500D01*
X163995000Y-131401500D01*
X163991000Y-131354500D01*
X163990000Y-131307500D01*
X163991000Y-131260500D01*
X163995000Y-131213500D01*
X164001000Y-131166500D01*
X164010000Y-131120500D01*
X164021000Y-131074500D01*
X164034000Y-131029500D01*
X164050000Y-130984500D01*
X164068000Y-130941500D01*
X164088000Y-130898500D01*
X164111000Y-130857500D01*
X164135000Y-130817500D01*
X164162000Y-130778500D01*
X164191000Y-130741500D01*
X164221000Y-130705500D01*
X164254000Y-130671500D01*
X164288000Y-130638500D01*
X164324000Y-130608500D01*
X164361000Y-130579500D01*
X164400000Y-130552500D01*
X164440000Y-130528500D01*
X164481000Y-130505500D01*
X164524000Y-130485500D01*
X164567000Y-130467500D01*
X164612000Y-130451500D01*
X164657000Y-130438500D01*
X164703000Y-130427500D01*
X164749000Y-130418500D01*
X164796000Y-130412500D01*
X164843000Y-130408500D01*
X164890000Y-130407500D01*
X167390000Y-130407500D01*
X167390000Y-132207500D01*
G37*
X167390000Y-134747500D02*
X164890000Y-134747500D01*
X164843000Y-134746500D01*
X164796000Y-134742500D01*
X164749000Y-134736500D01*
X164703000Y-134727500D01*
X164657000Y-134716500D01*
X164612000Y-134703500D01*
X164567000Y-134687500D01*
X164524000Y-134669500D01*
X164481000Y-134649500D01*
X164440000Y-134626500D01*
X164400000Y-134602500D01*
X164361000Y-134575500D01*
X164324000Y-134546500D01*
X164288000Y-134516500D01*
X164254000Y-134483500D01*
X164221000Y-134449500D01*
X164191000Y-134413500D01*
X164162000Y-134376500D01*
X164135000Y-134337500D01*
X164111000Y-134297500D01*
X164088000Y-134256500D01*
X164068000Y-134213500D01*
X164050000Y-134170500D01*
X164034000Y-134125500D01*
X164021000Y-134080500D01*
X164010000Y-134034500D01*
X164001000Y-133988500D01*
X163995000Y-133941500D01*
X163991000Y-133894500D01*
X163990000Y-133847500D01*
X163991000Y-133800500D01*
X163995000Y-133753500D01*
X164001000Y-133706500D01*
X164010000Y-133660500D01*
X164021000Y-133614500D01*
X164034000Y-133569500D01*
X164050000Y-133524500D01*
X164068000Y-133481500D01*
X164088000Y-133438500D01*
X164111000Y-133397500D01*
X164135000Y-133357500D01*
X164162000Y-133318500D01*
X164191000Y-133281500D01*
X164221000Y-133245500D01*
X164254000Y-133211500D01*
X164288000Y-133178500D01*
X164324000Y-133148500D01*
X164361000Y-133119500D01*
X164400000Y-133092500D01*
X164440000Y-133068500D01*
X164481000Y-133045500D01*
X164524000Y-133025500D01*
X164567000Y-133007500D01*
X164612000Y-132991500D01*
X164657000Y-132978500D01*
X164703000Y-132967500D01*
X164749000Y-132958500D01*
X164796000Y-132952500D01*
X164843000Y-132948500D01*
X164890000Y-132947500D01*
X167390000Y-132947500D01*
X167390000Y-134747500D01*
G36*
X167390000Y-134747500D02*
G01*
X164890000Y-134747500D01*
X164843000Y-134746500D01*
X164796000Y-134742500D01*
X164749000Y-134736500D01*
X164703000Y-134727500D01*
X164657000Y-134716500D01*
X164612000Y-134703500D01*
X164567000Y-134687500D01*
X164524000Y-134669500D01*
X164481000Y-134649500D01*
X164440000Y-134626500D01*
X164400000Y-134602500D01*
X164361000Y-134575500D01*
X164324000Y-134546500D01*
X164288000Y-134516500D01*
X164254000Y-134483500D01*
X164221000Y-134449500D01*
X164191000Y-134413500D01*
X164162000Y-134376500D01*
X164135000Y-134337500D01*
X164111000Y-134297500D01*
X164088000Y-134256500D01*
X164068000Y-134213500D01*
X164050000Y-134170500D01*
X164034000Y-134125500D01*
X164021000Y-134080500D01*
X164010000Y-134034500D01*
X164001000Y-133988500D01*
X163995000Y-133941500D01*
X163991000Y-133894500D01*
X163990000Y-133847500D01*
X163991000Y-133800500D01*
X163995000Y-133753500D01*
X164001000Y-133706500D01*
X164010000Y-133660500D01*
X164021000Y-133614500D01*
X164034000Y-133569500D01*
X164050000Y-133524500D01*
X164068000Y-133481500D01*
X164088000Y-133438500D01*
X164111000Y-133397500D01*
X164135000Y-133357500D01*
X164162000Y-133318500D01*
X164191000Y-133281500D01*
X164221000Y-133245500D01*
X164254000Y-133211500D01*
X164288000Y-133178500D01*
X164324000Y-133148500D01*
X164361000Y-133119500D01*
X164400000Y-133092500D01*
X164440000Y-133068500D01*
X164481000Y-133045500D01*
X164524000Y-133025500D01*
X164567000Y-133007500D01*
X164612000Y-132991500D01*
X164657000Y-132978500D01*
X164703000Y-132967500D01*
X164749000Y-132958500D01*
X164796000Y-132952500D01*
X164843000Y-132948500D01*
X164890000Y-132947500D01*
X167390000Y-132947500D01*
X167390000Y-134747500D01*
G37*
X167390000Y-139827500D02*
X164890000Y-139827500D01*
X164843000Y-139826500D01*
X164796000Y-139822500D01*
X164749000Y-139816500D01*
X164703000Y-139807500D01*
X164657000Y-139796500D01*
X164612000Y-139783500D01*
X164567000Y-139767500D01*
X164524000Y-139749500D01*
X164481000Y-139729500D01*
X164440000Y-139706500D01*
X164400000Y-139682500D01*
X164361000Y-139655500D01*
X164324000Y-139626500D01*
X164288000Y-139596500D01*
X164254000Y-139563500D01*
X164221000Y-139529500D01*
X164191000Y-139493500D01*
X164162000Y-139456500D01*
X164135000Y-139417500D01*
X164111000Y-139377500D01*
X164088000Y-139336500D01*
X164068000Y-139293500D01*
X164050000Y-139250500D01*
X164034000Y-139205500D01*
X164021000Y-139160500D01*
X164010000Y-139114500D01*
X164001000Y-139068500D01*
X163995000Y-139021500D01*
X163991000Y-138974500D01*
X163990000Y-138927500D01*
X163991000Y-138880500D01*
X163995000Y-138833500D01*
X164001000Y-138786500D01*
X164010000Y-138740500D01*
X164021000Y-138694500D01*
X164034000Y-138649500D01*
X164050000Y-138604500D01*
X164068000Y-138561500D01*
X164088000Y-138518500D01*
X164111000Y-138477500D01*
X164135000Y-138437500D01*
X164162000Y-138398500D01*
X164191000Y-138361500D01*
X164221000Y-138325500D01*
X164254000Y-138291500D01*
X164288000Y-138258500D01*
X164324000Y-138228500D01*
X164361000Y-138199500D01*
X164400000Y-138172500D01*
X164440000Y-138148500D01*
X164481000Y-138125500D01*
X164524000Y-138105500D01*
X164567000Y-138087500D01*
X164612000Y-138071500D01*
X164657000Y-138058500D01*
X164703000Y-138047500D01*
X164749000Y-138038500D01*
X164796000Y-138032500D01*
X164843000Y-138028500D01*
X164890000Y-138027500D01*
X167390000Y-138027500D01*
X167390000Y-139827500D01*
G36*
X167390000Y-139827500D02*
G01*
X164890000Y-139827500D01*
X164843000Y-139826500D01*
X164796000Y-139822500D01*
X164749000Y-139816500D01*
X164703000Y-139807500D01*
X164657000Y-139796500D01*
X164612000Y-139783500D01*
X164567000Y-139767500D01*
X164524000Y-139749500D01*
X164481000Y-139729500D01*
X164440000Y-139706500D01*
X164400000Y-139682500D01*
X164361000Y-139655500D01*
X164324000Y-139626500D01*
X164288000Y-139596500D01*
X164254000Y-139563500D01*
X164221000Y-139529500D01*
X164191000Y-139493500D01*
X164162000Y-139456500D01*
X164135000Y-139417500D01*
X164111000Y-139377500D01*
X164088000Y-139336500D01*
X164068000Y-139293500D01*
X164050000Y-139250500D01*
X164034000Y-139205500D01*
X164021000Y-139160500D01*
X164010000Y-139114500D01*
X164001000Y-139068500D01*
X163995000Y-139021500D01*
X163991000Y-138974500D01*
X163990000Y-138927500D01*
X163991000Y-138880500D01*
X163995000Y-138833500D01*
X164001000Y-138786500D01*
X164010000Y-138740500D01*
X164021000Y-138694500D01*
X164034000Y-138649500D01*
X164050000Y-138604500D01*
X164068000Y-138561500D01*
X164088000Y-138518500D01*
X164111000Y-138477500D01*
X164135000Y-138437500D01*
X164162000Y-138398500D01*
X164191000Y-138361500D01*
X164221000Y-138325500D01*
X164254000Y-138291500D01*
X164288000Y-138258500D01*
X164324000Y-138228500D01*
X164361000Y-138199500D01*
X164400000Y-138172500D01*
X164440000Y-138148500D01*
X164481000Y-138125500D01*
X164524000Y-138105500D01*
X164567000Y-138087500D01*
X164612000Y-138071500D01*
X164657000Y-138058500D01*
X164703000Y-138047500D01*
X164749000Y-138038500D01*
X164796000Y-138032500D01*
X164843000Y-138028500D01*
X164890000Y-138027500D01*
X167390000Y-138027500D01*
X167390000Y-139827500D01*
G37*
X167390000Y-142367500D02*
X164890000Y-142367500D01*
X164843000Y-142366500D01*
X164796000Y-142362500D01*
X164749000Y-142356500D01*
X164703000Y-142347500D01*
X164657000Y-142336500D01*
X164612000Y-142323500D01*
X164567000Y-142307500D01*
X164524000Y-142289500D01*
X164481000Y-142269500D01*
X164440000Y-142246500D01*
X164400000Y-142222500D01*
X164361000Y-142195500D01*
X164324000Y-142166500D01*
X164288000Y-142136500D01*
X164254000Y-142103500D01*
X164221000Y-142069500D01*
X164191000Y-142033500D01*
X164162000Y-141996500D01*
X164135000Y-141957500D01*
X164111000Y-141917500D01*
X164088000Y-141876500D01*
X164068000Y-141833500D01*
X164050000Y-141790500D01*
X164034000Y-141745500D01*
X164021000Y-141700500D01*
X164010000Y-141654500D01*
X164001000Y-141608500D01*
X163995000Y-141561500D01*
X163991000Y-141514500D01*
X163990000Y-141467500D01*
X163991000Y-141420500D01*
X163995000Y-141373500D01*
X164001000Y-141326500D01*
X164010000Y-141280500D01*
X164021000Y-141234500D01*
X164034000Y-141189500D01*
X164050000Y-141144500D01*
X164068000Y-141101500D01*
X164088000Y-141058500D01*
X164111000Y-141017500D01*
X164135000Y-140977500D01*
X164162000Y-140938500D01*
X164191000Y-140901500D01*
X164221000Y-140865500D01*
X164254000Y-140831500D01*
X164288000Y-140798500D01*
X164324000Y-140768500D01*
X164361000Y-140739500D01*
X164400000Y-140712500D01*
X164440000Y-140688500D01*
X164481000Y-140665500D01*
X164524000Y-140645500D01*
X164567000Y-140627500D01*
X164612000Y-140611500D01*
X164657000Y-140598500D01*
X164703000Y-140587500D01*
X164749000Y-140578500D01*
X164796000Y-140572500D01*
X164843000Y-140568500D01*
X164890000Y-140567500D01*
X167390000Y-140567500D01*
X167390000Y-142367500D01*
G36*
X167390000Y-142367500D02*
G01*
X164890000Y-142367500D01*
X164843000Y-142366500D01*
X164796000Y-142362500D01*
X164749000Y-142356500D01*
X164703000Y-142347500D01*
X164657000Y-142336500D01*
X164612000Y-142323500D01*
X164567000Y-142307500D01*
X164524000Y-142289500D01*
X164481000Y-142269500D01*
X164440000Y-142246500D01*
X164400000Y-142222500D01*
X164361000Y-142195500D01*
X164324000Y-142166500D01*
X164288000Y-142136500D01*
X164254000Y-142103500D01*
X164221000Y-142069500D01*
X164191000Y-142033500D01*
X164162000Y-141996500D01*
X164135000Y-141957500D01*
X164111000Y-141917500D01*
X164088000Y-141876500D01*
X164068000Y-141833500D01*
X164050000Y-141790500D01*
X164034000Y-141745500D01*
X164021000Y-141700500D01*
X164010000Y-141654500D01*
X164001000Y-141608500D01*
X163995000Y-141561500D01*
X163991000Y-141514500D01*
X163990000Y-141467500D01*
X163991000Y-141420500D01*
X163995000Y-141373500D01*
X164001000Y-141326500D01*
X164010000Y-141280500D01*
X164021000Y-141234500D01*
X164034000Y-141189500D01*
X164050000Y-141144500D01*
X164068000Y-141101500D01*
X164088000Y-141058500D01*
X164111000Y-141017500D01*
X164135000Y-140977500D01*
X164162000Y-140938500D01*
X164191000Y-140901500D01*
X164221000Y-140865500D01*
X164254000Y-140831500D01*
X164288000Y-140798500D01*
X164324000Y-140768500D01*
X164361000Y-140739500D01*
X164400000Y-140712500D01*
X164440000Y-140688500D01*
X164481000Y-140665500D01*
X164524000Y-140645500D01*
X164567000Y-140627500D01*
X164612000Y-140611500D01*
X164657000Y-140598500D01*
X164703000Y-140587500D01*
X164749000Y-140578500D01*
X164796000Y-140572500D01*
X164843000Y-140568500D01*
X164890000Y-140567500D01*
X167390000Y-140567500D01*
X167390000Y-142367500D01*
G37*
X147741000Y-97389500D02*
X147757000Y-97391500D01*
X147772000Y-97394500D01*
X147788000Y-97397500D01*
X147803000Y-97402500D01*
X147818000Y-97407500D01*
X147832000Y-97413500D01*
X147846000Y-97420500D01*
X147860000Y-97427500D01*
X147873000Y-97435500D01*
X147886000Y-97444500D01*
X147899000Y-97454500D01*
X147911000Y-97464500D01*
X147922000Y-97475500D01*
X147933000Y-97486500D01*
X147943000Y-97498500D01*
X147953000Y-97511500D01*
X147962000Y-97524500D01*
X147970000Y-97537500D01*
X147977000Y-97551500D01*
X147984000Y-97565500D01*
X147990000Y-97579500D01*
X147995000Y-97594500D01*
X148000000Y-97609500D01*
X148003000Y-97625500D01*
X148006000Y-97640500D01*
X148008000Y-97656500D01*
X148010000Y-97671500D01*
X148010000Y-97687500D01*
X148010000Y-98887500D01*
X148010000Y-98903500D01*
X148008000Y-98918500D01*
X148006000Y-98934500D01*
X148003000Y-98949500D01*
X148000000Y-98965500D01*
X147995000Y-98980500D01*
X147990000Y-98995500D01*
X147984000Y-99009500D01*
X147977000Y-99023500D01*
X147970000Y-99037500D01*
X147962000Y-99050500D01*
X147953000Y-99063500D01*
X147943000Y-99076500D01*
X147933000Y-99088500D01*
X147922000Y-99099500D01*
X147911000Y-99110500D01*
X147899000Y-99120500D01*
X147886000Y-99130500D01*
X147873000Y-99139500D01*
X147860000Y-99147500D01*
X147846000Y-99154500D01*
X147832000Y-99161500D01*
X147818000Y-99167500D01*
X147803000Y-99172500D01*
X147788000Y-99177500D01*
X147772000Y-99180500D01*
X147757000Y-99183500D01*
X147741000Y-99185500D01*
X147726000Y-99187500D01*
X147710000Y-99187500D01*
X144610000Y-99187500D01*
X144610000Y-97387500D01*
X147710000Y-97387500D01*
X147726000Y-97387500D01*
X147741000Y-97389500D01*
G36*
X147741000Y-97389500D02*
G01*
X147757000Y-97391500D01*
X147772000Y-97394500D01*
X147788000Y-97397500D01*
X147803000Y-97402500D01*
X147818000Y-97407500D01*
X147832000Y-97413500D01*
X147846000Y-97420500D01*
X147860000Y-97427500D01*
X147873000Y-97435500D01*
X147886000Y-97444500D01*
X147899000Y-97454500D01*
X147911000Y-97464500D01*
X147922000Y-97475500D01*
X147933000Y-97486500D01*
X147943000Y-97498500D01*
X147953000Y-97511500D01*
X147962000Y-97524500D01*
X147970000Y-97537500D01*
X147977000Y-97551500D01*
X147984000Y-97565500D01*
X147990000Y-97579500D01*
X147995000Y-97594500D01*
X148000000Y-97609500D01*
X148003000Y-97625500D01*
X148006000Y-97640500D01*
X148008000Y-97656500D01*
X148010000Y-97671500D01*
X148010000Y-97687500D01*
X148010000Y-98887500D01*
X148010000Y-98903500D01*
X148008000Y-98918500D01*
X148006000Y-98934500D01*
X148003000Y-98949500D01*
X148000000Y-98965500D01*
X147995000Y-98980500D01*
X147990000Y-98995500D01*
X147984000Y-99009500D01*
X147977000Y-99023500D01*
X147970000Y-99037500D01*
X147962000Y-99050500D01*
X147953000Y-99063500D01*
X147943000Y-99076500D01*
X147933000Y-99088500D01*
X147922000Y-99099500D01*
X147911000Y-99110500D01*
X147899000Y-99120500D01*
X147886000Y-99130500D01*
X147873000Y-99139500D01*
X147860000Y-99147500D01*
X147846000Y-99154500D01*
X147832000Y-99161500D01*
X147818000Y-99167500D01*
X147803000Y-99172500D01*
X147788000Y-99177500D01*
X147772000Y-99180500D01*
X147757000Y-99183500D01*
X147741000Y-99185500D01*
X147726000Y-99187500D01*
X147710000Y-99187500D01*
X144610000Y-99187500D01*
X144610000Y-97387500D01*
X147710000Y-97387500D01*
X147726000Y-97387500D01*
X147741000Y-97389500D01*
G37*
X147741000Y-110089500D02*
X147757000Y-110091500D01*
X147772000Y-110094500D01*
X147788000Y-110097500D01*
X147803000Y-110102500D01*
X147818000Y-110107500D01*
X147832000Y-110113500D01*
X147846000Y-110120500D01*
X147860000Y-110127500D01*
X147873000Y-110135500D01*
X147886000Y-110144500D01*
X147899000Y-110154500D01*
X147911000Y-110164500D01*
X147922000Y-110175500D01*
X147933000Y-110186500D01*
X147943000Y-110198500D01*
X147953000Y-110211500D01*
X147962000Y-110224500D01*
X147970000Y-110237500D01*
X147977000Y-110251500D01*
X147984000Y-110265500D01*
X147990000Y-110279500D01*
X147995000Y-110294500D01*
X148000000Y-110309500D01*
X148003000Y-110325500D01*
X148006000Y-110340500D01*
X148008000Y-110356500D01*
X148010000Y-110371500D01*
X148010000Y-110387500D01*
X148010000Y-111587500D01*
X148010000Y-111603500D01*
X148008000Y-111618500D01*
X148006000Y-111634500D01*
X148003000Y-111649500D01*
X148000000Y-111665500D01*
X147995000Y-111680500D01*
X147990000Y-111695500D01*
X147984000Y-111709500D01*
X147977000Y-111723500D01*
X147970000Y-111737500D01*
X147962000Y-111750500D01*
X147953000Y-111763500D01*
X147943000Y-111776500D01*
X147933000Y-111788500D01*
X147922000Y-111799500D01*
X147911000Y-111810500D01*
X147899000Y-111820500D01*
X147886000Y-111830500D01*
X147873000Y-111839500D01*
X147860000Y-111847500D01*
X147846000Y-111854500D01*
X147832000Y-111861500D01*
X147818000Y-111867500D01*
X147803000Y-111872500D01*
X147788000Y-111877500D01*
X147772000Y-111880500D01*
X147757000Y-111883500D01*
X147741000Y-111885500D01*
X147726000Y-111887500D01*
X147710000Y-111887500D01*
X144610000Y-111887500D01*
X144610000Y-110087500D01*
X147710000Y-110087500D01*
X147726000Y-110087500D01*
X147741000Y-110089500D01*
G36*
X147741000Y-110089500D02*
G01*
X147757000Y-110091500D01*
X147772000Y-110094500D01*
X147788000Y-110097500D01*
X147803000Y-110102500D01*
X147818000Y-110107500D01*
X147832000Y-110113500D01*
X147846000Y-110120500D01*
X147860000Y-110127500D01*
X147873000Y-110135500D01*
X147886000Y-110144500D01*
X147899000Y-110154500D01*
X147911000Y-110164500D01*
X147922000Y-110175500D01*
X147933000Y-110186500D01*
X147943000Y-110198500D01*
X147953000Y-110211500D01*
X147962000Y-110224500D01*
X147970000Y-110237500D01*
X147977000Y-110251500D01*
X147984000Y-110265500D01*
X147990000Y-110279500D01*
X147995000Y-110294500D01*
X148000000Y-110309500D01*
X148003000Y-110325500D01*
X148006000Y-110340500D01*
X148008000Y-110356500D01*
X148010000Y-110371500D01*
X148010000Y-110387500D01*
X148010000Y-111587500D01*
X148010000Y-111603500D01*
X148008000Y-111618500D01*
X148006000Y-111634500D01*
X148003000Y-111649500D01*
X148000000Y-111665500D01*
X147995000Y-111680500D01*
X147990000Y-111695500D01*
X147984000Y-111709500D01*
X147977000Y-111723500D01*
X147970000Y-111737500D01*
X147962000Y-111750500D01*
X147953000Y-111763500D01*
X147943000Y-111776500D01*
X147933000Y-111788500D01*
X147922000Y-111799500D01*
X147911000Y-111810500D01*
X147899000Y-111820500D01*
X147886000Y-111830500D01*
X147873000Y-111839500D01*
X147860000Y-111847500D01*
X147846000Y-111854500D01*
X147832000Y-111861500D01*
X147818000Y-111867500D01*
X147803000Y-111872500D01*
X147788000Y-111877500D01*
X147772000Y-111880500D01*
X147757000Y-111883500D01*
X147741000Y-111885500D01*
X147726000Y-111887500D01*
X147710000Y-111887500D01*
X144610000Y-111887500D01*
X144610000Y-110087500D01*
X147710000Y-110087500D01*
X147726000Y-110087500D01*
X147741000Y-110089500D01*
G37*
X147741000Y-122789500D02*
X147757000Y-122791500D01*
X147772000Y-122794500D01*
X147788000Y-122797500D01*
X147803000Y-122802500D01*
X147818000Y-122807500D01*
X147832000Y-122813500D01*
X147846000Y-122820500D01*
X147860000Y-122827500D01*
X147873000Y-122835500D01*
X147886000Y-122844500D01*
X147899000Y-122854500D01*
X147911000Y-122864500D01*
X147922000Y-122875500D01*
X147933000Y-122886500D01*
X147943000Y-122898500D01*
X147953000Y-122911500D01*
X147962000Y-122924500D01*
X147970000Y-122937500D01*
X147977000Y-122951500D01*
X147984000Y-122965500D01*
X147990000Y-122979500D01*
X147995000Y-122994500D01*
X148000000Y-123009500D01*
X148003000Y-123025500D01*
X148006000Y-123040500D01*
X148008000Y-123056500D01*
X148010000Y-123071500D01*
X148010000Y-123087500D01*
X148010000Y-124287500D01*
X148010000Y-124303500D01*
X148008000Y-124318500D01*
X148006000Y-124334500D01*
X148003000Y-124349500D01*
X148000000Y-124365500D01*
X147995000Y-124380500D01*
X147990000Y-124395500D01*
X147984000Y-124409500D01*
X147977000Y-124423500D01*
X147970000Y-124437500D01*
X147962000Y-124450500D01*
X147953000Y-124463500D01*
X147943000Y-124476500D01*
X147933000Y-124488500D01*
X147922000Y-124499500D01*
X147911000Y-124510500D01*
X147899000Y-124520500D01*
X147886000Y-124530500D01*
X147873000Y-124539500D01*
X147860000Y-124547500D01*
X147846000Y-124554500D01*
X147832000Y-124561500D01*
X147818000Y-124567500D01*
X147803000Y-124572500D01*
X147788000Y-124577500D01*
X147772000Y-124580500D01*
X147757000Y-124583500D01*
X147741000Y-124585500D01*
X147726000Y-124587500D01*
X147710000Y-124587500D01*
X144610000Y-124587500D01*
X144610000Y-122787500D01*
X147710000Y-122787500D01*
X147726000Y-122787500D01*
X147741000Y-122789500D01*
G36*
X147741000Y-122789500D02*
G01*
X147757000Y-122791500D01*
X147772000Y-122794500D01*
X147788000Y-122797500D01*
X147803000Y-122802500D01*
X147818000Y-122807500D01*
X147832000Y-122813500D01*
X147846000Y-122820500D01*
X147860000Y-122827500D01*
X147873000Y-122835500D01*
X147886000Y-122844500D01*
X147899000Y-122854500D01*
X147911000Y-122864500D01*
X147922000Y-122875500D01*
X147933000Y-122886500D01*
X147943000Y-122898500D01*
X147953000Y-122911500D01*
X147962000Y-122924500D01*
X147970000Y-122937500D01*
X147977000Y-122951500D01*
X147984000Y-122965500D01*
X147990000Y-122979500D01*
X147995000Y-122994500D01*
X148000000Y-123009500D01*
X148003000Y-123025500D01*
X148006000Y-123040500D01*
X148008000Y-123056500D01*
X148010000Y-123071500D01*
X148010000Y-123087500D01*
X148010000Y-124287500D01*
X148010000Y-124303500D01*
X148008000Y-124318500D01*
X148006000Y-124334500D01*
X148003000Y-124349500D01*
X148000000Y-124365500D01*
X147995000Y-124380500D01*
X147990000Y-124395500D01*
X147984000Y-124409500D01*
X147977000Y-124423500D01*
X147970000Y-124437500D01*
X147962000Y-124450500D01*
X147953000Y-124463500D01*
X147943000Y-124476500D01*
X147933000Y-124488500D01*
X147922000Y-124499500D01*
X147911000Y-124510500D01*
X147899000Y-124520500D01*
X147886000Y-124530500D01*
X147873000Y-124539500D01*
X147860000Y-124547500D01*
X147846000Y-124554500D01*
X147832000Y-124561500D01*
X147818000Y-124567500D01*
X147803000Y-124572500D01*
X147788000Y-124577500D01*
X147772000Y-124580500D01*
X147757000Y-124583500D01*
X147741000Y-124585500D01*
X147726000Y-124587500D01*
X147710000Y-124587500D01*
X144610000Y-124587500D01*
X144610000Y-122787500D01*
X147710000Y-122787500D01*
X147726000Y-122787500D01*
X147741000Y-122789500D01*
G37*
X147741000Y-135489500D02*
X147757000Y-135491500D01*
X147772000Y-135494500D01*
X147788000Y-135497500D01*
X147803000Y-135502500D01*
X147818000Y-135507500D01*
X147832000Y-135513500D01*
X147846000Y-135520500D01*
X147860000Y-135527500D01*
X147873000Y-135535500D01*
X147886000Y-135544500D01*
X147899000Y-135554500D01*
X147911000Y-135564500D01*
X147922000Y-135575500D01*
X147933000Y-135586500D01*
X147943000Y-135598500D01*
X147953000Y-135611500D01*
X147962000Y-135624500D01*
X147970000Y-135637500D01*
X147977000Y-135651500D01*
X147984000Y-135665500D01*
X147990000Y-135679500D01*
X147995000Y-135694500D01*
X148000000Y-135709500D01*
X148003000Y-135725500D01*
X148006000Y-135740500D01*
X148008000Y-135756500D01*
X148010000Y-135771500D01*
X148010000Y-135787500D01*
X148010000Y-136987500D01*
X148010000Y-137003500D01*
X148008000Y-137018500D01*
X148006000Y-137034500D01*
X148003000Y-137049500D01*
X148000000Y-137065500D01*
X147995000Y-137080500D01*
X147990000Y-137095500D01*
X147984000Y-137109500D01*
X147977000Y-137123500D01*
X147970000Y-137137500D01*
X147962000Y-137150500D01*
X147953000Y-137163500D01*
X147943000Y-137176500D01*
X147933000Y-137188500D01*
X147922000Y-137199500D01*
X147911000Y-137210500D01*
X147899000Y-137220500D01*
X147886000Y-137230500D01*
X147873000Y-137239500D01*
X147860000Y-137247500D01*
X147846000Y-137254500D01*
X147832000Y-137261500D01*
X147818000Y-137267500D01*
X147803000Y-137272500D01*
X147788000Y-137277500D01*
X147772000Y-137280500D01*
X147757000Y-137283500D01*
X147741000Y-137285500D01*
X147726000Y-137287500D01*
X147710000Y-137287500D01*
X144610000Y-137287500D01*
X144610000Y-135487500D01*
X147710000Y-135487500D01*
X147726000Y-135487500D01*
X147741000Y-135489500D01*
G36*
X147741000Y-135489500D02*
G01*
X147757000Y-135491500D01*
X147772000Y-135494500D01*
X147788000Y-135497500D01*
X147803000Y-135502500D01*
X147818000Y-135507500D01*
X147832000Y-135513500D01*
X147846000Y-135520500D01*
X147860000Y-135527500D01*
X147873000Y-135535500D01*
X147886000Y-135544500D01*
X147899000Y-135554500D01*
X147911000Y-135564500D01*
X147922000Y-135575500D01*
X147933000Y-135586500D01*
X147943000Y-135598500D01*
X147953000Y-135611500D01*
X147962000Y-135624500D01*
X147970000Y-135637500D01*
X147977000Y-135651500D01*
X147984000Y-135665500D01*
X147990000Y-135679500D01*
X147995000Y-135694500D01*
X148000000Y-135709500D01*
X148003000Y-135725500D01*
X148006000Y-135740500D01*
X148008000Y-135756500D01*
X148010000Y-135771500D01*
X148010000Y-135787500D01*
X148010000Y-136987500D01*
X148010000Y-137003500D01*
X148008000Y-137018500D01*
X148006000Y-137034500D01*
X148003000Y-137049500D01*
X148000000Y-137065500D01*
X147995000Y-137080500D01*
X147990000Y-137095500D01*
X147984000Y-137109500D01*
X147977000Y-137123500D01*
X147970000Y-137137500D01*
X147962000Y-137150500D01*
X147953000Y-137163500D01*
X147943000Y-137176500D01*
X147933000Y-137188500D01*
X147922000Y-137199500D01*
X147911000Y-137210500D01*
X147899000Y-137220500D01*
X147886000Y-137230500D01*
X147873000Y-137239500D01*
X147860000Y-137247500D01*
X147846000Y-137254500D01*
X147832000Y-137261500D01*
X147818000Y-137267500D01*
X147803000Y-137272500D01*
X147788000Y-137277500D01*
X147772000Y-137280500D01*
X147757000Y-137283500D01*
X147741000Y-137285500D01*
X147726000Y-137287500D01*
X147710000Y-137287500D01*
X144610000Y-137287500D01*
X144610000Y-135487500D01*
X147710000Y-135487500D01*
X147726000Y-135487500D01*
X147741000Y-135489500D01*
G37*
X156900000Y-94037500D02*
X156900000Y-94053500D01*
X156898000Y-94068500D01*
X156896000Y-94084500D01*
X156893000Y-94099500D01*
X156890000Y-94115500D01*
X156885000Y-94130500D01*
X156880000Y-94145500D01*
X156874000Y-94159500D01*
X156867000Y-94173500D01*
X156860000Y-94187500D01*
X156852000Y-94200500D01*
X156843000Y-94213500D01*
X156833000Y-94226500D01*
X156823000Y-94238500D01*
X156812000Y-94249500D01*
X156801000Y-94260500D01*
X156789000Y-94270500D01*
X156776000Y-94280500D01*
X156763000Y-94289500D01*
X156750000Y-94297500D01*
X156736000Y-94304500D01*
X156722000Y-94311500D01*
X156708000Y-94317500D01*
X156693000Y-94322500D01*
X156678000Y-94327500D01*
X156662000Y-94330500D01*
X156647000Y-94333500D01*
X156631000Y-94335500D01*
X156616000Y-94337500D01*
X156600000Y-94337500D01*
X155400000Y-94337500D01*
X155384000Y-94337500D01*
X155369000Y-94335500D01*
X155353000Y-94333500D01*
X155338000Y-94330500D01*
X155322000Y-94327500D01*
X155307000Y-94322500D01*
X155292000Y-94317500D01*
X155278000Y-94311500D01*
X155264000Y-94304500D01*
X155250000Y-94297500D01*
X155237000Y-94289500D01*
X155224000Y-94280500D01*
X155211000Y-94270500D01*
X155199000Y-94260500D01*
X155188000Y-94249500D01*
X155177000Y-94238500D01*
X155167000Y-94226500D01*
X155157000Y-94213500D01*
X155148000Y-94200500D01*
X155140000Y-94187500D01*
X155133000Y-94173500D01*
X155126000Y-94159500D01*
X155120000Y-94145500D01*
X155115000Y-94130500D01*
X155110000Y-94115500D01*
X155107000Y-94099500D01*
X155104000Y-94084500D01*
X155102000Y-94068500D01*
X155100000Y-94053500D01*
X155100000Y-94037500D01*
X155100000Y-90937500D01*
X156900000Y-90937500D01*
X156900000Y-94037500D01*
G36*
X156900000Y-94037500D02*
G01*
X156900000Y-94053500D01*
X156898000Y-94068500D01*
X156896000Y-94084500D01*
X156893000Y-94099500D01*
X156890000Y-94115500D01*
X156885000Y-94130500D01*
X156880000Y-94145500D01*
X156874000Y-94159500D01*
X156867000Y-94173500D01*
X156860000Y-94187500D01*
X156852000Y-94200500D01*
X156843000Y-94213500D01*
X156833000Y-94226500D01*
X156823000Y-94238500D01*
X156812000Y-94249500D01*
X156801000Y-94260500D01*
X156789000Y-94270500D01*
X156776000Y-94280500D01*
X156763000Y-94289500D01*
X156750000Y-94297500D01*
X156736000Y-94304500D01*
X156722000Y-94311500D01*
X156708000Y-94317500D01*
X156693000Y-94322500D01*
X156678000Y-94327500D01*
X156662000Y-94330500D01*
X156647000Y-94333500D01*
X156631000Y-94335500D01*
X156616000Y-94337500D01*
X156600000Y-94337500D01*
X155400000Y-94337500D01*
X155384000Y-94337500D01*
X155369000Y-94335500D01*
X155353000Y-94333500D01*
X155338000Y-94330500D01*
X155322000Y-94327500D01*
X155307000Y-94322500D01*
X155292000Y-94317500D01*
X155278000Y-94311500D01*
X155264000Y-94304500D01*
X155250000Y-94297500D01*
X155237000Y-94289500D01*
X155224000Y-94280500D01*
X155211000Y-94270500D01*
X155199000Y-94260500D01*
X155188000Y-94249500D01*
X155177000Y-94238500D01*
X155167000Y-94226500D01*
X155157000Y-94213500D01*
X155148000Y-94200500D01*
X155140000Y-94187500D01*
X155133000Y-94173500D01*
X155126000Y-94159500D01*
X155120000Y-94145500D01*
X155115000Y-94130500D01*
X155110000Y-94115500D01*
X155107000Y-94099500D01*
X155104000Y-94084500D01*
X155102000Y-94068500D01*
X155100000Y-94053500D01*
X155100000Y-94037500D01*
X155100000Y-90937500D01*
X156900000Y-90937500D01*
X156900000Y-94037500D01*
G37*
X167390000Y-99187500D02*
X164290000Y-99187500D01*
X164274000Y-99187500D01*
X164259000Y-99185500D01*
X164243000Y-99183500D01*
X164228000Y-99180500D01*
X164212000Y-99177500D01*
X164197000Y-99172500D01*
X164182000Y-99167500D01*
X164168000Y-99161500D01*
X164154000Y-99154500D01*
X164140000Y-99147500D01*
X164127000Y-99139500D01*
X164114000Y-99130500D01*
X164101000Y-99120500D01*
X164089000Y-99110500D01*
X164078000Y-99099500D01*
X164067000Y-99088500D01*
X164057000Y-99076500D01*
X164047000Y-99063500D01*
X164038000Y-99050500D01*
X164030000Y-99037500D01*
X164023000Y-99023500D01*
X164016000Y-99009500D01*
X164010000Y-98995500D01*
X164005000Y-98980500D01*
X164000000Y-98965500D01*
X163997000Y-98949500D01*
X163994000Y-98934500D01*
X163992000Y-98918500D01*
X163990000Y-98903500D01*
X163990000Y-98887500D01*
X163990000Y-97687500D01*
X163990000Y-97671500D01*
X163992000Y-97656500D01*
X163994000Y-97640500D01*
X163997000Y-97625500D01*
X164000000Y-97609500D01*
X164005000Y-97594500D01*
X164010000Y-97579500D01*
X164016000Y-97565500D01*
X164023000Y-97551500D01*
X164030000Y-97537500D01*
X164038000Y-97524500D01*
X164047000Y-97511500D01*
X164057000Y-97498500D01*
X164067000Y-97486500D01*
X164078000Y-97475500D01*
X164089000Y-97464500D01*
X164101000Y-97454500D01*
X164114000Y-97444500D01*
X164127000Y-97435500D01*
X164140000Y-97427500D01*
X164154000Y-97420500D01*
X164168000Y-97413500D01*
X164182000Y-97407500D01*
X164197000Y-97402500D01*
X164212000Y-97397500D01*
X164228000Y-97394500D01*
X164243000Y-97391500D01*
X164259000Y-97389500D01*
X164274000Y-97387500D01*
X164290000Y-97387500D01*
X167390000Y-97387500D01*
X167390000Y-99187500D01*
G36*
X167390000Y-99187500D02*
G01*
X164290000Y-99187500D01*
X164274000Y-99187500D01*
X164259000Y-99185500D01*
X164243000Y-99183500D01*
X164228000Y-99180500D01*
X164212000Y-99177500D01*
X164197000Y-99172500D01*
X164182000Y-99167500D01*
X164168000Y-99161500D01*
X164154000Y-99154500D01*
X164140000Y-99147500D01*
X164127000Y-99139500D01*
X164114000Y-99130500D01*
X164101000Y-99120500D01*
X164089000Y-99110500D01*
X164078000Y-99099500D01*
X164067000Y-99088500D01*
X164057000Y-99076500D01*
X164047000Y-99063500D01*
X164038000Y-99050500D01*
X164030000Y-99037500D01*
X164023000Y-99023500D01*
X164016000Y-99009500D01*
X164010000Y-98995500D01*
X164005000Y-98980500D01*
X164000000Y-98965500D01*
X163997000Y-98949500D01*
X163994000Y-98934500D01*
X163992000Y-98918500D01*
X163990000Y-98903500D01*
X163990000Y-98887500D01*
X163990000Y-97687500D01*
X163990000Y-97671500D01*
X163992000Y-97656500D01*
X163994000Y-97640500D01*
X163997000Y-97625500D01*
X164000000Y-97609500D01*
X164005000Y-97594500D01*
X164010000Y-97579500D01*
X164016000Y-97565500D01*
X164023000Y-97551500D01*
X164030000Y-97537500D01*
X164038000Y-97524500D01*
X164047000Y-97511500D01*
X164057000Y-97498500D01*
X164067000Y-97486500D01*
X164078000Y-97475500D01*
X164089000Y-97464500D01*
X164101000Y-97454500D01*
X164114000Y-97444500D01*
X164127000Y-97435500D01*
X164140000Y-97427500D01*
X164154000Y-97420500D01*
X164168000Y-97413500D01*
X164182000Y-97407500D01*
X164197000Y-97402500D01*
X164212000Y-97397500D01*
X164228000Y-97394500D01*
X164243000Y-97391500D01*
X164259000Y-97389500D01*
X164274000Y-97387500D01*
X164290000Y-97387500D01*
X167390000Y-97387500D01*
X167390000Y-99187500D01*
G37*
X167390000Y-111887500D02*
X164290000Y-111887500D01*
X164274000Y-111887500D01*
X164259000Y-111885500D01*
X164243000Y-111883500D01*
X164228000Y-111880500D01*
X164212000Y-111877500D01*
X164197000Y-111872500D01*
X164182000Y-111867500D01*
X164168000Y-111861500D01*
X164154000Y-111854500D01*
X164140000Y-111847500D01*
X164127000Y-111839500D01*
X164114000Y-111830500D01*
X164101000Y-111820500D01*
X164089000Y-111810500D01*
X164078000Y-111799500D01*
X164067000Y-111788500D01*
X164057000Y-111776500D01*
X164047000Y-111763500D01*
X164038000Y-111750500D01*
X164030000Y-111737500D01*
X164023000Y-111723500D01*
X164016000Y-111709500D01*
X164010000Y-111695500D01*
X164005000Y-111680500D01*
X164000000Y-111665500D01*
X163997000Y-111649500D01*
X163994000Y-111634500D01*
X163992000Y-111618500D01*
X163990000Y-111603500D01*
X163990000Y-111587500D01*
X163990000Y-110387500D01*
X163990000Y-110371500D01*
X163992000Y-110356500D01*
X163994000Y-110340500D01*
X163997000Y-110325500D01*
X164000000Y-110309500D01*
X164005000Y-110294500D01*
X164010000Y-110279500D01*
X164016000Y-110265500D01*
X164023000Y-110251500D01*
X164030000Y-110237500D01*
X164038000Y-110224500D01*
X164047000Y-110211500D01*
X164057000Y-110198500D01*
X164067000Y-110186500D01*
X164078000Y-110175500D01*
X164089000Y-110164500D01*
X164101000Y-110154500D01*
X164114000Y-110144500D01*
X164127000Y-110135500D01*
X164140000Y-110127500D01*
X164154000Y-110120500D01*
X164168000Y-110113500D01*
X164182000Y-110107500D01*
X164197000Y-110102500D01*
X164212000Y-110097500D01*
X164228000Y-110094500D01*
X164243000Y-110091500D01*
X164259000Y-110089500D01*
X164274000Y-110087500D01*
X164290000Y-110087500D01*
X167390000Y-110087500D01*
X167390000Y-111887500D01*
G36*
X167390000Y-111887500D02*
G01*
X164290000Y-111887500D01*
X164274000Y-111887500D01*
X164259000Y-111885500D01*
X164243000Y-111883500D01*
X164228000Y-111880500D01*
X164212000Y-111877500D01*
X164197000Y-111872500D01*
X164182000Y-111867500D01*
X164168000Y-111861500D01*
X164154000Y-111854500D01*
X164140000Y-111847500D01*
X164127000Y-111839500D01*
X164114000Y-111830500D01*
X164101000Y-111820500D01*
X164089000Y-111810500D01*
X164078000Y-111799500D01*
X164067000Y-111788500D01*
X164057000Y-111776500D01*
X164047000Y-111763500D01*
X164038000Y-111750500D01*
X164030000Y-111737500D01*
X164023000Y-111723500D01*
X164016000Y-111709500D01*
X164010000Y-111695500D01*
X164005000Y-111680500D01*
X164000000Y-111665500D01*
X163997000Y-111649500D01*
X163994000Y-111634500D01*
X163992000Y-111618500D01*
X163990000Y-111603500D01*
X163990000Y-111587500D01*
X163990000Y-110387500D01*
X163990000Y-110371500D01*
X163992000Y-110356500D01*
X163994000Y-110340500D01*
X163997000Y-110325500D01*
X164000000Y-110309500D01*
X164005000Y-110294500D01*
X164010000Y-110279500D01*
X164016000Y-110265500D01*
X164023000Y-110251500D01*
X164030000Y-110237500D01*
X164038000Y-110224500D01*
X164047000Y-110211500D01*
X164057000Y-110198500D01*
X164067000Y-110186500D01*
X164078000Y-110175500D01*
X164089000Y-110164500D01*
X164101000Y-110154500D01*
X164114000Y-110144500D01*
X164127000Y-110135500D01*
X164140000Y-110127500D01*
X164154000Y-110120500D01*
X164168000Y-110113500D01*
X164182000Y-110107500D01*
X164197000Y-110102500D01*
X164212000Y-110097500D01*
X164228000Y-110094500D01*
X164243000Y-110091500D01*
X164259000Y-110089500D01*
X164274000Y-110087500D01*
X164290000Y-110087500D01*
X167390000Y-110087500D01*
X167390000Y-111887500D01*
G37*
X167390000Y-124587500D02*
X164290000Y-124587500D01*
X164274000Y-124587500D01*
X164259000Y-124585500D01*
X164243000Y-124583500D01*
X164228000Y-124580500D01*
X164212000Y-124577500D01*
X164197000Y-124572500D01*
X164182000Y-124567500D01*
X164168000Y-124561500D01*
X164154000Y-124554500D01*
X164140000Y-124547500D01*
X164127000Y-124539500D01*
X164114000Y-124530500D01*
X164101000Y-124520500D01*
X164089000Y-124510500D01*
X164078000Y-124499500D01*
X164067000Y-124488500D01*
X164057000Y-124476500D01*
X164047000Y-124463500D01*
X164038000Y-124450500D01*
X164030000Y-124437500D01*
X164023000Y-124423500D01*
X164016000Y-124409500D01*
X164010000Y-124395500D01*
X164005000Y-124380500D01*
X164000000Y-124365500D01*
X163997000Y-124349500D01*
X163994000Y-124334500D01*
X163992000Y-124318500D01*
X163990000Y-124303500D01*
X163990000Y-124287500D01*
X163990000Y-123087500D01*
X163990000Y-123071500D01*
X163992000Y-123056500D01*
X163994000Y-123040500D01*
X163997000Y-123025500D01*
X164000000Y-123009500D01*
X164005000Y-122994500D01*
X164010000Y-122979500D01*
X164016000Y-122965500D01*
X164023000Y-122951500D01*
X164030000Y-122937500D01*
X164038000Y-122924500D01*
X164047000Y-122911500D01*
X164057000Y-122898500D01*
X164067000Y-122886500D01*
X164078000Y-122875500D01*
X164089000Y-122864500D01*
X164101000Y-122854500D01*
X164114000Y-122844500D01*
X164127000Y-122835500D01*
X164140000Y-122827500D01*
X164154000Y-122820500D01*
X164168000Y-122813500D01*
X164182000Y-122807500D01*
X164197000Y-122802500D01*
X164212000Y-122797500D01*
X164228000Y-122794500D01*
X164243000Y-122791500D01*
X164259000Y-122789500D01*
X164274000Y-122787500D01*
X164290000Y-122787500D01*
X167390000Y-122787500D01*
X167390000Y-124587500D01*
G36*
X167390000Y-124587500D02*
G01*
X164290000Y-124587500D01*
X164274000Y-124587500D01*
X164259000Y-124585500D01*
X164243000Y-124583500D01*
X164228000Y-124580500D01*
X164212000Y-124577500D01*
X164197000Y-124572500D01*
X164182000Y-124567500D01*
X164168000Y-124561500D01*
X164154000Y-124554500D01*
X164140000Y-124547500D01*
X164127000Y-124539500D01*
X164114000Y-124530500D01*
X164101000Y-124520500D01*
X164089000Y-124510500D01*
X164078000Y-124499500D01*
X164067000Y-124488500D01*
X164057000Y-124476500D01*
X164047000Y-124463500D01*
X164038000Y-124450500D01*
X164030000Y-124437500D01*
X164023000Y-124423500D01*
X164016000Y-124409500D01*
X164010000Y-124395500D01*
X164005000Y-124380500D01*
X164000000Y-124365500D01*
X163997000Y-124349500D01*
X163994000Y-124334500D01*
X163992000Y-124318500D01*
X163990000Y-124303500D01*
X163990000Y-124287500D01*
X163990000Y-123087500D01*
X163990000Y-123071500D01*
X163992000Y-123056500D01*
X163994000Y-123040500D01*
X163997000Y-123025500D01*
X164000000Y-123009500D01*
X164005000Y-122994500D01*
X164010000Y-122979500D01*
X164016000Y-122965500D01*
X164023000Y-122951500D01*
X164030000Y-122937500D01*
X164038000Y-122924500D01*
X164047000Y-122911500D01*
X164057000Y-122898500D01*
X164067000Y-122886500D01*
X164078000Y-122875500D01*
X164089000Y-122864500D01*
X164101000Y-122854500D01*
X164114000Y-122844500D01*
X164127000Y-122835500D01*
X164140000Y-122827500D01*
X164154000Y-122820500D01*
X164168000Y-122813500D01*
X164182000Y-122807500D01*
X164197000Y-122802500D01*
X164212000Y-122797500D01*
X164228000Y-122794500D01*
X164243000Y-122791500D01*
X164259000Y-122789500D01*
X164274000Y-122787500D01*
X164290000Y-122787500D01*
X167390000Y-122787500D01*
X167390000Y-124587500D01*
G37*
X167390000Y-137287500D02*
X164290000Y-137287500D01*
X164274000Y-137287500D01*
X164259000Y-137285500D01*
X164243000Y-137283500D01*
X164228000Y-137280500D01*
X164212000Y-137277500D01*
X164197000Y-137272500D01*
X164182000Y-137267500D01*
X164168000Y-137261500D01*
X164154000Y-137254500D01*
X164140000Y-137247500D01*
X164127000Y-137239500D01*
X164114000Y-137230500D01*
X164101000Y-137220500D01*
X164089000Y-137210500D01*
X164078000Y-137199500D01*
X164067000Y-137188500D01*
X164057000Y-137176500D01*
X164047000Y-137163500D01*
X164038000Y-137150500D01*
X164030000Y-137137500D01*
X164023000Y-137123500D01*
X164016000Y-137109500D01*
X164010000Y-137095500D01*
X164005000Y-137080500D01*
X164000000Y-137065500D01*
X163997000Y-137049500D01*
X163994000Y-137034500D01*
X163992000Y-137018500D01*
X163990000Y-137003500D01*
X163990000Y-136987500D01*
X163990000Y-135787500D01*
X163990000Y-135771500D01*
X163992000Y-135756500D01*
X163994000Y-135740500D01*
X163997000Y-135725500D01*
X164000000Y-135709500D01*
X164005000Y-135694500D01*
X164010000Y-135679500D01*
X164016000Y-135665500D01*
X164023000Y-135651500D01*
X164030000Y-135637500D01*
X164038000Y-135624500D01*
X164047000Y-135611500D01*
X164057000Y-135598500D01*
X164067000Y-135586500D01*
X164078000Y-135575500D01*
X164089000Y-135564500D01*
X164101000Y-135554500D01*
X164114000Y-135544500D01*
X164127000Y-135535500D01*
X164140000Y-135527500D01*
X164154000Y-135520500D01*
X164168000Y-135513500D01*
X164182000Y-135507500D01*
X164197000Y-135502500D01*
X164212000Y-135497500D01*
X164228000Y-135494500D01*
X164243000Y-135491500D01*
X164259000Y-135489500D01*
X164274000Y-135487500D01*
X164290000Y-135487500D01*
X167390000Y-135487500D01*
X167390000Y-137287500D01*
G36*
X167390000Y-137287500D02*
G01*
X164290000Y-137287500D01*
X164274000Y-137287500D01*
X164259000Y-137285500D01*
X164243000Y-137283500D01*
X164228000Y-137280500D01*
X164212000Y-137277500D01*
X164197000Y-137272500D01*
X164182000Y-137267500D01*
X164168000Y-137261500D01*
X164154000Y-137254500D01*
X164140000Y-137247500D01*
X164127000Y-137239500D01*
X164114000Y-137230500D01*
X164101000Y-137220500D01*
X164089000Y-137210500D01*
X164078000Y-137199500D01*
X164067000Y-137188500D01*
X164057000Y-137176500D01*
X164047000Y-137163500D01*
X164038000Y-137150500D01*
X164030000Y-137137500D01*
X164023000Y-137123500D01*
X164016000Y-137109500D01*
X164010000Y-137095500D01*
X164005000Y-137080500D01*
X164000000Y-137065500D01*
X163997000Y-137049500D01*
X163994000Y-137034500D01*
X163992000Y-137018500D01*
X163990000Y-137003500D01*
X163990000Y-136987500D01*
X163990000Y-135787500D01*
X163990000Y-135771500D01*
X163992000Y-135756500D01*
X163994000Y-135740500D01*
X163997000Y-135725500D01*
X164000000Y-135709500D01*
X164005000Y-135694500D01*
X164010000Y-135679500D01*
X164016000Y-135665500D01*
X164023000Y-135651500D01*
X164030000Y-135637500D01*
X164038000Y-135624500D01*
X164047000Y-135611500D01*
X164057000Y-135598500D01*
X164067000Y-135586500D01*
X164078000Y-135575500D01*
X164089000Y-135564500D01*
X164101000Y-135554500D01*
X164114000Y-135544500D01*
X164127000Y-135535500D01*
X164140000Y-135527500D01*
X164154000Y-135520500D01*
X164168000Y-135513500D01*
X164182000Y-135507500D01*
X164197000Y-135502500D01*
X164212000Y-135497500D01*
X164228000Y-135494500D01*
X164243000Y-135491500D01*
X164259000Y-135489500D01*
X164274000Y-135487500D01*
X164290000Y-135487500D01*
X167390000Y-135487500D01*
X167390000Y-137287500D01*
G37*
%TD*%
D11*
%TO.C,Q4*%
X169550000Y-62225000D03*
X171450000Y-62225000D03*
X170500000Y-60350000D03*
%TD*%
D12*
%TO.C,R36*%
X143800000Y-87900000D03*
X143800000Y-85900000D03*
%TD*%
D13*
%TO.C,U3*%
X146650000Y-78190000D03*
X146650000Y-79460000D03*
X146650000Y-80730000D03*
X146650000Y-82000000D03*
X146650000Y-83270000D03*
X146650000Y-84540000D03*
X146650000Y-85810000D03*
X151600000Y-85810000D03*
X151600000Y-84540000D03*
X151600000Y-83270000D03*
X151600000Y-82000000D03*
X151600000Y-80730000D03*
X151600000Y-79460000D03*
X151600000Y-78190000D03*
%TD*%
D12*
%TO.C,R15*%
X145200000Y-58387500D03*
X145200000Y-56387500D03*
%TD*%
D14*
%TO.C,U5*%
X141420000Y-74150000D03*
X142690000Y-74150000D03*
X143960000Y-74150000D03*
X145230000Y-74150000D03*
X146500000Y-74150000D03*
X147770000Y-74150000D03*
X149040000Y-74150000D03*
X150310000Y-74150000D03*
X151580000Y-74150000D03*
X151580000Y-64850000D03*
X150310000Y-64850000D03*
X149040000Y-64850000D03*
X147770000Y-64850000D03*
X146500000Y-64850000D03*
X145230000Y-64850000D03*
X143960000Y-64850000D03*
X142690000Y-64850000D03*
X141420000Y-64850000D03*
%TD*%
D15*
%TO.C,D3*%
X123250000Y-63762500D03*
X123250000Y-61887500D03*
%TD*%
D16*
%TO.C,J4*%
X160000000Y-83000000D03*
%TD*%
D17*
%TO.C,R39*%
X136900000Y-112000000D03*
X138900000Y-112000000D03*
%TD*%
D12*
%TO.C,R17*%
X134800000Y-58387500D03*
X134800000Y-56387500D03*
%TD*%
D18*
%TO.C,U1*%
X158725000Y-141337500D03*
X153275000Y-141337500D03*
D19*
X158425000Y-138307500D03*
X153575000Y-138307500D03*
D20*
X156000000Y-138337500D03*
X155000000Y-141637500D03*
X157000000Y-141637500D03*
X158500000Y-134837500D03*
X158500000Y-132337500D03*
X158500000Y-129837500D03*
%TD*%
D21*
%TO.C,R2*%
X153900000Y-87000000D03*
X153900000Y-89000000D03*
%TD*%
D22*
%TO.C,R22*%
X117600000Y-124400000D03*
X115600000Y-124400000D03*
%TD*%
D23*
%TO.C,U10*%
X130500000Y-88350000D03*
X130500000Y-89000000D03*
X130500000Y-89650000D03*
X130500000Y-90300000D03*
X130500000Y-90950000D03*
X130500000Y-91600000D03*
X130500000Y-92250000D03*
X130500000Y-92900000D03*
X130500000Y-93550000D03*
X130500000Y-94200000D03*
X136300000Y-94200000D03*
X136300000Y-93550000D03*
X136300000Y-92900000D03*
X136300000Y-92250000D03*
X136300000Y-91600000D03*
X136300000Y-90950000D03*
X136300000Y-90300000D03*
X136300000Y-89650000D03*
X136300000Y-89000000D03*
X136300000Y-88350000D03*
%TD*%
D12*
%TO.C,R38*%
X117400000Y-114000000D03*
X117400000Y-112000000D03*
%TD*%
D24*
%TO.C,H4*%
X169975000Y-141000000D03*
X170568109Y-139568109D03*
X170568109Y-142431891D03*
X172000000Y-138975000D03*
D25*
X172000000Y-141000000D03*
D24*
X172000000Y-143025000D03*
X173431891Y-139568109D03*
X173431891Y-142431891D03*
X174025000Y-141000000D03*
%TD*%
D26*
%TO.C,C5*%
X128150000Y-91087500D03*
X128150000Y-92987500D03*
%TD*%
D27*
%TO.C,TP1*%
X155300000Y-78300000D03*
%TD*%
D28*
%TO.C,SW3*%
X132000000Y-112000000D03*
D29*
X127402600Y-112000000D03*
X122805200Y-112000000D03*
X132000000Y-105446800D03*
X127402600Y-105446800D03*
X122805200Y-105446800D03*
X132000000Y-101078000D03*
X127402600Y-101078000D03*
X122805200Y-101078000D03*
%TD*%
D24*
%TO.C,H3*%
X109975000Y-141000000D03*
X110568109Y-139568109D03*
X110568109Y-142431891D03*
X112000000Y-138975000D03*
D25*
X112000000Y-141000000D03*
D24*
X112000000Y-143025000D03*
X113431891Y-139568109D03*
X113431891Y-142431891D03*
X114025000Y-141000000D03*
%TD*%
D12*
%TO.C,R1*%
X156000000Y-89000000D03*
X156000000Y-87000000D03*
%TD*%
%TO.C,R41*%
X140500000Y-83300000D03*
X140500000Y-81300000D03*
%TD*%
%TO.C,R12*%
X162100000Y-67587500D03*
X162100000Y-65587500D03*
%TD*%
%TO.C,R18*%
X148600000Y-58387500D03*
X148600000Y-56387500D03*
%TD*%
D17*
%TO.C,R42*%
X132700000Y-95900000D03*
X134700000Y-95900000D03*
%TD*%
D15*
%TO.C,D2*%
X119250000Y-63825000D03*
X119250000Y-61950000D03*
%TD*%
D12*
%TO.C,R20*%
X141700000Y-58387500D03*
X141700000Y-56387500D03*
%TD*%
D11*
%TO.C,Q12*%
X114300000Y-67762500D03*
X116200000Y-67762500D03*
X115250000Y-65887500D03*
%TD*%
%TO.C,Q3*%
X173150000Y-62225000D03*
X175050000Y-62225000D03*
X174100000Y-60350000D03*
%TD*%
D27*
%TO.C,TP2*%
X164800000Y-88600000D03*
%TD*%
D22*
%TO.C,R21*%
X117600000Y-120900000D03*
X115600000Y-120900000D03*
%TD*%
D27*
%TO.C,TP3*%
X130100000Y-79300000D03*
%TD*%
D21*
%TO.C,R28*%
X115200000Y-56637500D03*
X115200000Y-58637500D03*
%TD*%
D11*
%TO.C,Q14*%
X118300000Y-67825000D03*
X120200000Y-67825000D03*
X119250000Y-65950000D03*
%TD*%
D24*
%TO.C,H1*%
X109975000Y-39000000D03*
X110568109Y-37568109D03*
X110568109Y-40431891D03*
X112000000Y-36975000D03*
D25*
X112000000Y-39000000D03*
D24*
X112000000Y-41025000D03*
X113431891Y-37568109D03*
X113431891Y-40431891D03*
X114025000Y-39000000D03*
%TD*%
D12*
%TO.C,R8*%
X135900000Y-78800000D03*
X135900000Y-76800000D03*
%TD*%
%TO.C,R34*%
X122500000Y-73125000D03*
X122500000Y-71125000D03*
%TD*%
D21*
%TO.C,R30*%
X123250000Y-56637500D03*
X123250000Y-58637500D03*
%TD*%
D12*
%TO.C,R10*%
X173200000Y-67587500D03*
X173200000Y-65587500D03*
%TD*%
D11*
%TO.C,Q15*%
X122300000Y-67825000D03*
X124200000Y-67825000D03*
X123250000Y-65950000D03*
%TD*%
%TO.C,Q16*%
X126300000Y-67762500D03*
X128200000Y-67762500D03*
X127250000Y-65887500D03*
%TD*%
D30*
%TO.C,SW2*%
X122837500Y-117500000D03*
D31*
X127437500Y-117500000D03*
X132037500Y-117500000D03*
X122837500Y-124410000D03*
X127437500Y-124410000D03*
X132037500Y-124410000D03*
%TD*%
D21*
%TO.C,R31*%
X127250000Y-56637500D03*
X127250000Y-58637500D03*
%TD*%
D17*
%TO.C,R4*%
X116000000Y-101100000D03*
X118000000Y-101100000D03*
%TD*%
D21*
%TO.C,R29*%
X119250000Y-56637500D03*
X119250000Y-58637500D03*
%TD*%
D12*
%TO.C,R33*%
X118600000Y-73125000D03*
X118600000Y-71125000D03*
%TD*%
%TO.C,R16*%
X138200000Y-58387500D03*
X138200000Y-56387500D03*
%TD*%
D21*
%TO.C,R5*%
X122900000Y-89400000D03*
X122900000Y-91400000D03*
%TD*%
D12*
%TO.C,R14*%
X155700000Y-58287500D03*
X155700000Y-56287500D03*
%TD*%
%TO.C,R13*%
X159400000Y-58287500D03*
X159400000Y-56287500D03*
%TD*%
%TO.C,R11*%
X165800000Y-67587500D03*
X165800000Y-65587500D03*
%TD*%
D15*
%TO.C,D1*%
X115250000Y-63825000D03*
X115250000Y-61950000D03*
%TD*%
D30*
%TO.C,SW1*%
X122800000Y-132010000D03*
D31*
X127400000Y-132010000D03*
%TD*%
D32*
%TO.C,TP4*%
X171800000Y-115400000D03*
%TD*%
D24*
%TO.C,H2*%
X169975000Y-39000000D03*
X170568109Y-37568109D03*
X170568109Y-40431891D03*
X172000000Y-36975000D03*
D25*
X172000000Y-39000000D03*
D24*
X172000000Y-41025000D03*
X173431891Y-37568109D03*
X173431891Y-40431891D03*
X174025000Y-39000000D03*
%TD*%
D12*
%TO.C,R19*%
X152000000Y-58387500D03*
X152000000Y-56387500D03*
%TD*%
D33*
%TO.C,C4*%
X144500000Y-81960000D03*
X142600000Y-81960000D03*
%TD*%
D11*
%TO.C,Q2*%
X165850000Y-62262500D03*
X167750000Y-62262500D03*
X166800000Y-60387500D03*
%TD*%
D16*
%TO.C,J3*%
X123000000Y-83000000D03*
%TD*%
D11*
%TO.C,Q1*%
X162150000Y-62262500D03*
X164050000Y-62262500D03*
X163100000Y-60387500D03*
%TD*%
D34*
%TO.C,C6*%
X136450000Y-86762500D03*
X136450000Y-84862500D03*
%TD*%
D15*
%TO.C,D4*%
X127250000Y-63825000D03*
X127250000Y-61950000D03*
%TD*%
D33*
%TO.C,C1*%
X139500000Y-64500000D03*
X137600000Y-64500000D03*
%TD*%
D12*
%TO.C,R35*%
X126500000Y-73125000D03*
X126500000Y-71125000D03*
%TD*%
%TO.C,R40*%
X128150000Y-89337500D03*
X128150000Y-87337500D03*
%TD*%
D22*
%TO.C,R6*%
X155600000Y-70500000D03*
X153600000Y-70500000D03*
%TD*%
D35*
%TO.C,U7*%
X140050000Y-88220000D03*
X141000000Y-88220000D03*
X141950000Y-88220000D03*
X141950000Y-85945000D03*
X140050000Y-85945000D03*
%TD*%
D12*
%TO.C,R7*%
X133800000Y-78800000D03*
X133800000Y-76800000D03*
%TD*%
D36*
%TO.C,R3*%
X139000000Y-134037500D03*
X139000000Y-131962500D03*
%TD*%
D12*
%TO.C,R9*%
X169500000Y-67587500D03*
X169500000Y-65587500D03*
%TD*%
%TO.C,R32*%
X114500000Y-73125000D03*
X114500000Y-71125000D03*
%TD*%
D17*
%TO.C,R37*%
X116000000Y-108500000D03*
X118000000Y-108500000D03*
%TD*%
D27*
%TO.C,U4*%
X135650000Y-52477500D03*
D37*
X138190000Y-52477500D03*
X140730000Y-52477500D03*
X143270000Y-52477500D03*
X145810000Y-52477500D03*
X148350000Y-52477500D03*
X148350000Y-37237500D03*
X145810000Y-37237500D03*
X143270000Y-37237500D03*
X140730000Y-37237500D03*
X138190000Y-37237500D03*
X135650000Y-37237500D03*
%TD*%
M02*
