%TF.GenerationSoftware,KiCad,Pcbnew,8.0.0-8.0.0-1~ubuntu22.04.1*%
%TF.CreationDate,2024-04-13T22:18:37-06:00*%
%TF.ProjectId,Multimeter,4d756c74-696d-4657-9465-722e6b696361,rev?*%
%TF.SameCoordinates,Original*%
%TF.FileFunction,Soldermask,Bot*%
%TF.FilePolarity,Negative*%
%FSLAX46Y46*%
G04 Gerber Fmt 4.6, Leading zero omitted, Abs format (unit mm)*
G04 Created by KiCad (PCBNEW 8.0.0-8.0.0-1~ubuntu22.04.1) date 2024-04-13 22:18:37*
%MOMM*%
%LPD*%
G01*
G04 APERTURE LIST*
G04 Aperture macros list*
%AMRoundRect*
0 Rectangle with rounded corners*
0 $1 Rounding radius*
0 $2 $3 $4 $5 $6 $7 $8 $9 X,Y pos of 4 corners*
0 Add a 4 corners polygon primitive as box body*
4,1,4,$2,$3,$4,$5,$6,$7,$8,$9,$2,$3,0*
0 Add four circle primitives for the rounded corners*
1,1,$1+$1,$2,$3*
1,1,$1+$1,$4,$5*
1,1,$1+$1,$6,$7*
1,1,$1+$1,$8,$9*
0 Add four rect primitives between the rounded corners*
20,1,$1+$1,$2,$3,$4,$5,0*
20,1,$1+$1,$4,$5,$6,$7,0*
20,1,$1+$1,$6,$7,$8,$9,0*
20,1,$1+$1,$8,$9,$2,$3,0*%
G04 Aperture macros list end*
%ADD10C,8.104000*%
%ADD11C,0.800000*%
%ADD12C,5.400000*%
%ADD13R,1.500000X1.500000*%
%ADD14RoundRect,0.102000X-1.314450X-1.314450X1.314450X-1.314450X1.314450X1.314450X-1.314450X1.314450X0*%
%ADD15C,2.832900*%
%ADD16RoundRect,0.102000X-1.312500X-1.312500X1.312500X-1.312500X1.312500X1.312500X-1.312500X1.312500X0*%
%ADD17C,2.829000*%
%ADD18C,2.400000*%
%ADD19C,1.500000*%
G04 APERTURE END LIST*
D10*
%TO.C,J4*%
X160000000Y-83000000D03*
%TD*%
D11*
%TO.C,H4*%
X169975000Y-141000000D03*
X170568109Y-139568109D03*
X170568109Y-142431891D03*
X172000000Y-138975000D03*
D12*
X172000000Y-141000000D03*
D11*
X172000000Y-143025000D03*
X173431891Y-139568109D03*
X173431891Y-142431891D03*
X174025000Y-141000000D03*
%TD*%
D13*
%TO.C,TP1*%
X154200000Y-81300000D03*
%TD*%
D14*
%TO.C,SW3*%
X132000000Y-112000000D03*
D15*
X127402600Y-112000000D03*
X122805200Y-112000000D03*
X132000000Y-105446800D03*
X127402600Y-105446800D03*
X122805200Y-105446800D03*
X132000000Y-101078000D03*
X127402600Y-101078000D03*
X122805200Y-101078000D03*
%TD*%
D11*
%TO.C,H3*%
X109975000Y-141000000D03*
X110568109Y-139568109D03*
X110568109Y-142431891D03*
X112000000Y-138975000D03*
D12*
X112000000Y-141000000D03*
D11*
X112000000Y-143025000D03*
X113431891Y-139568109D03*
X113431891Y-142431891D03*
X114025000Y-141000000D03*
%TD*%
D13*
%TO.C,TP2*%
X164800000Y-88600000D03*
%TD*%
%TO.C,TP3*%
X130100000Y-80400000D03*
%TD*%
D11*
%TO.C,H1*%
X109975000Y-39000000D03*
X110568109Y-37568109D03*
X110568109Y-40431891D03*
X112000000Y-36975000D03*
D12*
X112000000Y-39000000D03*
D11*
X112000000Y-41025000D03*
X113431891Y-37568109D03*
X113431891Y-40431891D03*
X114025000Y-39000000D03*
%TD*%
D16*
%TO.C,SW2*%
X122837500Y-117500000D03*
D17*
X127437500Y-117500000D03*
X132037500Y-117500000D03*
X122837500Y-124410000D03*
X127437500Y-124410000D03*
X132037500Y-124410000D03*
%TD*%
D16*
%TO.C,SW1*%
X122800000Y-132010000D03*
D17*
X127400000Y-132010000D03*
%TD*%
D18*
%TO.C,TP4*%
X171800000Y-115400000D03*
%TD*%
D11*
%TO.C,H2*%
X169975000Y-39000000D03*
X170568109Y-37568109D03*
X170568109Y-40431891D03*
X172000000Y-36975000D03*
D12*
X172000000Y-39000000D03*
D11*
X172000000Y-41025000D03*
X173431891Y-37568109D03*
X173431891Y-40431891D03*
X174025000Y-39000000D03*
%TD*%
D10*
%TO.C,J3*%
X123000000Y-83000000D03*
%TD*%
D13*
%TO.C,U4*%
X135650000Y-52477500D03*
D19*
X138190000Y-52477500D03*
X140730000Y-52477500D03*
X143270000Y-52477500D03*
X145810000Y-52477500D03*
X148350000Y-52477500D03*
X148350000Y-37237500D03*
X145810000Y-37237500D03*
X143270000Y-37237500D03*
X140730000Y-37237500D03*
X138190000Y-37237500D03*
X135650000Y-37237500D03*
%TD*%
M02*
