%TF.GenerationSoftware,KiCad,Pcbnew,8.0.0-8.0.0-1~ubuntu22.04.1*%
%TF.CreationDate,2024-03-03T20:01:54-07:00*%
%TF.ProjectId,Multimeter,4d756c74-696d-4657-9465-722e6b696361,rev?*%
%TF.SameCoordinates,Original*%
%TF.FileFunction,Copper,L2,Bot*%
%TF.FilePolarity,Positive*%
%FSLAX46Y46*%
G04 Gerber Fmt 4.6, Leading zero omitted, Abs format (unit mm)*
G04 Created by KiCad (PCBNEW 8.0.0-8.0.0-1~ubuntu22.04.1) date 2024-03-03 20:01:54*
%MOMM*%
%LPD*%
G01*
G04 APERTURE LIST*
%TA.AperFunction,ComponentPad*%
%ADD10C,7.900000*%
%TD*%
%TA.AperFunction,ComponentPad*%
%ADD11C,0.800000*%
%TD*%
%TA.AperFunction,ComponentPad*%
%ADD12C,5.400000*%
%TD*%
%TA.AperFunction,ComponentPad*%
%ADD13R,1.500000X1.500000*%
%TD*%
%TA.AperFunction,ComponentPad*%
%ADD14R,2.628900X2.628900*%
%TD*%
%TA.AperFunction,ComponentPad*%
%ADD15C,2.628900*%
%TD*%
%TA.AperFunction,ComponentPad*%
%ADD16R,2.625000X2.625000*%
%TD*%
%TA.AperFunction,ComponentPad*%
%ADD17C,2.625000*%
%TD*%
%TA.AperFunction,ComponentPad*%
%ADD18C,1.500000*%
%TD*%
%TA.AperFunction,ViaPad*%
%ADD19C,0.800000*%
%TD*%
%TA.AperFunction,Conductor*%
%ADD20C,0.250000*%
%TD*%
%TA.AperFunction,Conductor*%
%ADD21C,0.500000*%
%TD*%
G04 APERTURE END LIST*
D10*
%TO.P,J4,1,Pin_1*%
%TO.N,Net-(J4-Pin_1)*%
X160000000Y-83000000D03*
%TD*%
D11*
%TO.P,H4,1,1*%
%TO.N,GND*%
X169975000Y-141000000D03*
X170568109Y-139568109D03*
X170568109Y-142431891D03*
X172000000Y-138975000D03*
D12*
X172000000Y-141000000D03*
D11*
X172000000Y-143025000D03*
X173431891Y-139568109D03*
X173431891Y-142431891D03*
X174025000Y-141000000D03*
%TD*%
D13*
%TO.P,TP1,1,1*%
%TO.N,Net-(U10-CH0)*%
X155300000Y-78300000D03*
%TD*%
D14*
%TO.P,S1,1*%
%TO.N,Net-(R39-Pad1)*%
X132000000Y-112000000D03*
D15*
%TO.P,S1,2*%
%TO.N,Net-(U3D-+)*%
X127402600Y-112000000D03*
%TO.P,S1,3*%
%TO.N,Net-(R38-Pad2)*%
X122805200Y-112000000D03*
%TO.P,S1,4*%
%TO.N,unconnected-(S1-Pad4)*%
X132000000Y-105446800D03*
%TO.P,S1,5*%
%TO.N,Net-(U3D-+)*%
X127402600Y-105446800D03*
%TO.P,S1,6*%
%TO.N,Net-(R5-Pad2)*%
X122805200Y-105446800D03*
%TO.P,S1,7*%
%TO.N,unconnected-(S1-Pad7)*%
X132000000Y-101078000D03*
%TO.P,S1,8*%
%TO.N,GND*%
X127402600Y-101078000D03*
%TO.P,S1,9*%
%TO.N,/Analog Front End/MODE*%
X122805200Y-101078000D03*
%TD*%
D11*
%TO.P,H3,1,1*%
%TO.N,GND*%
X109975000Y-141000000D03*
X110568109Y-139568109D03*
X110568109Y-142431891D03*
X112000000Y-138975000D03*
D12*
X112000000Y-141000000D03*
D11*
X112000000Y-143025000D03*
X113431891Y-139568109D03*
X113431891Y-142431891D03*
X114025000Y-141000000D03*
%TD*%
D13*
%TO.P,TP2,1,1*%
%TO.N,Net-(J4-Pin_1)*%
X164800000Y-88600000D03*
%TD*%
%TO.P,TP3,1,1*%
%TO.N,Net-(U3A--)*%
X136500000Y-81500000D03*
%TD*%
D11*
%TO.P,H1,1,1*%
%TO.N,GND*%
X109975000Y-39000000D03*
X110568109Y-37568109D03*
X110568109Y-40431891D03*
X112000000Y-36975000D03*
D12*
X112000000Y-39000000D03*
D11*
X112000000Y-41025000D03*
X113431891Y-37568109D03*
X113431891Y-40431891D03*
X114025000Y-39000000D03*
%TD*%
D16*
%TO.P,SW1,1,A*%
%TO.N,GND*%
X122900000Y-120000000D03*
D17*
%TO.P,SW1,2,B*%
%TO.N,Net-(SW1-B)*%
X127500000Y-120000000D03*
%TD*%
D11*
%TO.P,H2,1,1*%
%TO.N,GND*%
X169975000Y-39000000D03*
X170568109Y-37568109D03*
X170568109Y-40431891D03*
X172000000Y-36975000D03*
D12*
X172000000Y-39000000D03*
D11*
X172000000Y-41025000D03*
X173431891Y-37568109D03*
X173431891Y-40431891D03*
X174025000Y-39000000D03*
%TD*%
D10*
%TO.P,J3,1,Pin_1*%
%TO.N,Net-(J3-Pin_1)*%
X123000000Y-83000000D03*
%TD*%
D13*
%TO.P,U4,1,e*%
%TO.N,Net-(U4-e)*%
X135650000Y-52477500D03*
D18*
%TO.P,U4,2,d*%
%TO.N,Net-(U4-d)*%
X138190000Y-52477500D03*
%TO.P,U4,3,DPX*%
%TO.N,Net-(U4-DPX)*%
X140730000Y-52477500D03*
%TO.P,U4,4,c*%
%TO.N,Net-(U4-c)*%
X143270000Y-52477500D03*
%TO.P,U4,5,g*%
%TO.N,Net-(U4-g)*%
X145810000Y-52477500D03*
%TO.P,U4,6,CC4*%
%TO.N,Net-(Q1-D)*%
X148350000Y-52477500D03*
%TO.P,U4,7,b*%
%TO.N,Net-(U4-b)*%
X148350000Y-37237500D03*
%TO.P,U4,8,CC3*%
%TO.N,Net-(Q2-D)*%
X145810000Y-37237500D03*
%TO.P,U4,9,CC2*%
%TO.N,Net-(Q3-D)*%
X143270000Y-37237500D03*
%TO.P,U4,10,f*%
%TO.N,Net-(U4-f)*%
X140730000Y-37237500D03*
%TO.P,U4,11,a*%
%TO.N,Net-(U4-a)*%
X138190000Y-37237500D03*
%TO.P,U4,12,CC1*%
%TO.N,Net-(Q4-D)*%
X135650000Y-37237500D03*
%TD*%
D19*
%TO.N,+5V*%
X150300000Y-55200000D03*
X142100000Y-53700000D03*
X160900000Y-55100000D03*
X157400000Y-55100000D03*
X155600000Y-66300000D03*
X157200000Y-71500000D03*
X146900000Y-55600000D03*
X153700000Y-54900000D03*
%TO.N,GND*%
X143800000Y-111000000D03*
X174100000Y-71000000D03*
X153500000Y-136800000D03*
X151700000Y-141200000D03*
X125200000Y-64287500D03*
X148700000Y-98300000D03*
X168100000Y-123700000D03*
X117300000Y-64287500D03*
X153500000Y-81982500D03*
X172000000Y-63887500D03*
X132200000Y-89100000D03*
X143900000Y-72300000D03*
X156000000Y-95000000D03*
X163300000Y-98300000D03*
X137800000Y-89000000D03*
X134500000Y-84200000D03*
X152300000Y-89000000D03*
X158400000Y-136800000D03*
X138700000Y-86000000D03*
X167800000Y-64087500D03*
X151600000Y-72400000D03*
X128100000Y-94400000D03*
X143700000Y-136400000D03*
X168100000Y-136400000D03*
X164000000Y-64087500D03*
X139325000Y-80100000D03*
X168100000Y-110900000D03*
X142000000Y-80000000D03*
X160200000Y-141300000D03*
X121200000Y-64287500D03*
X137600000Y-62900000D03*
X143600000Y-123700000D03*
X129200000Y-64287500D03*
%TO.N,+3.3V*%
X131200000Y-80200000D03*
X112500000Y-95600000D03*
X115300000Y-103000000D03*
X128300000Y-82400000D03*
X140600000Y-79400000D03*
X129300000Y-85600000D03*
X124500000Y-93900000D03*
X173200000Y-84000000D03*
X157800000Y-89100000D03*
X115000000Y-89900000D03*
X138000000Y-78300000D03*
X131300000Y-84400000D03*
%TO.N,/Analog Front End/MODE*%
X143700000Y-118600000D03*
X128400000Y-108200000D03*
X126400000Y-108200000D03*
X151700000Y-118607500D03*
%TO.N,Net-(J4-Pin_1)*%
X142400000Y-102800000D03*
X143000000Y-100300000D03*
X141987347Y-90287347D03*
X139000000Y-109000000D03*
X134900000Y-92100000D03*
%TO.N,Net-(U3D-+)*%
X148507109Y-89907109D03*
X150000000Y-88400000D03*
%TO.N,/Display/SDA*%
X150800000Y-107000000D03*
X158500000Y-99325000D03*
X158500000Y-95500000D03*
X150800000Y-111600000D03*
%TO.N,/Display/SCL*%
X151900000Y-107100000D03*
X166300000Y-85700000D03*
X159500000Y-99325000D03*
X162200000Y-94400000D03*
X151900000Y-111600000D03*
X160000000Y-97700000D03*
%TO.N,Net-(Q2-D)*%
X154400000Y-43400000D03*
X156600000Y-43400000D03*
X148800000Y-42000000D03*
X146800000Y-40000000D03*
%TO.N,Net-(Q4-D)*%
X160700000Y-45900000D03*
X139700000Y-42900000D03*
X168300000Y-53200000D03*
X165800000Y-50900000D03*
X141800000Y-42900000D03*
X154300000Y-45900000D03*
%TO.N,Net-(U5-GP5)*%
X145500000Y-62200000D03*
X148200000Y-60000000D03*
%TO.N,Net-(U5-GP6)*%
X149300000Y-60900000D03*
X144300000Y-62900000D03*
%TO.N,Net-(U5-GP7)*%
X141700000Y-59800000D03*
X141700000Y-61825000D03*
%TO.N,/Display/digit1*%
X169500000Y-96600000D03*
X169500000Y-94800000D03*
%TO.N,Net-(U4-a)*%
X141800000Y-41800000D03*
X159800000Y-51200000D03*
X139700000Y-41700000D03*
X154400000Y-44600000D03*
X159800000Y-53300000D03*
X156600000Y-44600000D03*
%TO.N,Net-(U4-b)*%
X155700000Y-51500000D03*
X155700000Y-53500000D03*
X155800000Y-41900000D03*
X155800000Y-40100000D03*
%TO.N,/Display/low_ohm*%
X157475000Y-115400000D03*
X140400000Y-115300000D03*
X162625000Y-114600000D03*
X151700000Y-115400000D03*
%TO.N,/Display/pico*%
X117000000Y-92300000D03*
X143600000Y-94500000D03*
X149100000Y-94500000D03*
X140550000Y-99635324D03*
X124000000Y-96000000D03*
X117000000Y-94900000D03*
X119575000Y-95900000D03*
X142000000Y-99600000D03*
%TO.N,/Display/nano*%
X167100000Y-77500000D03*
X171125000Y-77500000D03*
%TO.N,/Display/micro*%
X167100000Y-76400000D03*
X171200000Y-76400000D03*
%TO.N,Net-(U3A-+)*%
X143800000Y-83994500D03*
X144800000Y-79482500D03*
%TO.N,/Analog Front End/CS*%
X135400000Y-97400000D03*
X161600000Y-125000000D03*
X143300000Y-114300000D03*
X136300000Y-104100000D03*
X156600000Y-114675000D03*
X156600000Y-119332500D03*
X151600000Y-114300000D03*
X157400000Y-124900000D03*
%TO.N,Net-(U10-CH0)*%
X147800000Y-89200000D03*
X140187347Y-91287347D03*
X134900000Y-90900000D03*
X149200000Y-87800000D03*
%TO.N,Net-(SW1-B)*%
X143700000Y-127600000D03*
X148500000Y-127600000D03*
%TO.N,/Analog Front End/SCK*%
X158300000Y-117600000D03*
X148600000Y-110800000D03*
X143300000Y-109300000D03*
X158300000Y-119500000D03*
X136506114Y-97489568D03*
X137700000Y-104100000D03*
%TO.N,/Analog Front End/SDI*%
X138612653Y-103412653D03*
X159600000Y-117600000D03*
X148600000Y-109600000D03*
X137500000Y-97600000D03*
X159600000Y-119400000D03*
X143500000Y-108000000D03*
%TO.N,/Analog Front End/SDO*%
X138500000Y-97700000D03*
X139362653Y-102662653D03*
X148700000Y-108300000D03*
X142840742Y-106150793D03*
X160800000Y-119500000D03*
X160800000Y-117700000D03*
%TO.N,/Analog Front End/MDAT*%
X140200000Y-102000000D03*
X143600000Y-105500000D03*
X161900000Y-119500000D03*
X148700000Y-106800000D03*
X139500000Y-97800000D03*
X161900000Y-117700000D03*
%TD*%
D20*
%TO.N,+5V*%
X151900000Y-54900000D02*
X153700000Y-54900000D01*
X146900000Y-55600000D02*
X148400000Y-55600000D01*
D21*
X156300000Y-68400000D02*
X156800000Y-68400000D01*
D20*
X142100000Y-53700000D02*
X142100000Y-54300000D01*
X150300000Y-55200000D02*
X151600000Y-55200000D01*
X142100000Y-54300000D02*
X143400000Y-55600000D01*
X151600000Y-55200000D02*
X151900000Y-54900000D01*
D21*
X157200000Y-68800000D02*
X157200000Y-71500000D01*
D20*
X143400000Y-55600000D02*
X146900000Y-55600000D01*
X148800000Y-55200000D02*
X150300000Y-55200000D01*
D21*
X155600000Y-67700000D02*
X156300000Y-68400000D01*
D20*
X153700000Y-54900000D02*
X157200000Y-54900000D01*
X148400000Y-55600000D02*
X148800000Y-55200000D01*
D21*
X155600000Y-66300000D02*
X155600000Y-67700000D01*
D20*
X157200000Y-54900000D02*
X157400000Y-55100000D01*
D21*
X156800000Y-68400000D02*
X157200000Y-68800000D01*
D20*
X157400000Y-55100000D02*
X160900000Y-55100000D01*
D21*
%TO.N,+3.3V*%
X112500000Y-95600000D02*
X115300000Y-98400000D01*
X128300000Y-84600000D02*
X129300000Y-85600000D01*
X131200000Y-80200000D02*
X131200000Y-84300000D01*
X115000000Y-89900000D02*
X116300000Y-89900000D01*
X116300000Y-89900000D02*
X120300000Y-93900000D01*
X120300000Y-93900000D02*
X124500000Y-93900000D01*
D20*
X157800000Y-89100000D02*
X162100000Y-89100000D01*
X163600000Y-86500000D02*
X166100000Y-84000000D01*
X166100000Y-84000000D02*
X173200000Y-84000000D01*
X162800000Y-87300000D02*
X163600000Y-86500000D01*
D21*
X131200000Y-84300000D02*
X131300000Y-84400000D01*
X138000000Y-78300000D02*
X139500000Y-78300000D01*
X128300000Y-82400000D02*
X128300000Y-84600000D01*
X139500000Y-78300000D02*
X140600000Y-79400000D01*
X115300000Y-98400000D02*
X115300000Y-103000000D01*
D20*
X162100000Y-89100000D02*
X162800000Y-88400000D01*
X162800000Y-88400000D02*
X162800000Y-87300000D01*
%TO.N,/Analog Front End/MODE*%
X126400000Y-108200000D02*
X128400000Y-108200000D01*
X151692500Y-118600000D02*
X151700000Y-118607500D01*
X143700000Y-118600000D02*
X151692500Y-118600000D01*
%TO.N,Net-(J4-Pin_1)*%
X142900000Y-98800000D02*
X143000000Y-98900000D01*
X139900000Y-92100000D02*
X140100000Y-92100000D01*
X142400000Y-102800000D02*
X139000000Y-106200000D01*
X140800000Y-98400000D02*
X142500000Y-98400000D01*
X140200000Y-96800000D02*
X140600000Y-97200000D01*
X141987347Y-90287347D02*
X141350000Y-90924694D01*
X141350000Y-90924694D02*
X141350000Y-91150000D01*
X134900000Y-92100000D02*
X139900000Y-92100000D01*
X142500000Y-98400000D02*
X142900000Y-98800000D01*
X140600000Y-98200000D02*
X140800000Y-98400000D01*
X139000000Y-106200000D02*
X139000000Y-109000000D01*
X143000000Y-98900000D02*
X143000000Y-100300000D01*
X140600000Y-97200000D02*
X140600000Y-97800000D01*
X140100000Y-92100000D02*
X140100000Y-96700000D01*
X140600000Y-97800000D02*
X140600000Y-98200000D01*
X141350000Y-91150000D02*
X140400000Y-92100000D01*
X140400000Y-92100000D02*
X140100000Y-92100000D01*
X140100000Y-96700000D02*
X140200000Y-96800000D01*
%TO.N,Net-(U3D-+)*%
X150000000Y-88400000D02*
X150000000Y-88414218D01*
X150000000Y-88414218D02*
X148507109Y-89907109D01*
%TO.N,/Display/SDA*%
X158500000Y-99325000D02*
X158500000Y-95500000D01*
X150800000Y-107000000D02*
X150800000Y-111600000D01*
%TO.N,/Display/SCL*%
X166800000Y-86200000D02*
X166800000Y-91500000D01*
X162800000Y-93800000D02*
X162200000Y-94400000D01*
X160000000Y-97700000D02*
X160000000Y-98825000D01*
X163700000Y-93800000D02*
X162800000Y-93800000D01*
X164500000Y-93800000D02*
X163700000Y-93800000D01*
X160000000Y-98825000D02*
X159500000Y-99325000D01*
X151900000Y-107100000D02*
X151900000Y-111600000D01*
X166300000Y-85700000D02*
X166800000Y-86200000D01*
X166800000Y-91500000D02*
X164500000Y-93800000D01*
%TO.N,Net-(Q2-D)*%
X154400000Y-43400000D02*
X156600000Y-43400000D01*
X146800000Y-40000000D02*
X148800000Y-42000000D01*
%TO.N,Net-(Q4-D)*%
X168100000Y-53200000D02*
X168300000Y-53200000D01*
X154300000Y-45900000D02*
X160700000Y-45900000D01*
X139700000Y-42900000D02*
X141800000Y-42900000D01*
X165800000Y-50900000D02*
X168100000Y-53200000D01*
%TO.N,Net-(U5-GP5)*%
X146000000Y-62200000D02*
X145500000Y-62200000D01*
X148200000Y-60000000D02*
X146000000Y-62200000D01*
%TO.N,Net-(U5-GP6)*%
X147275000Y-62925000D02*
X149300000Y-60900000D01*
X144300000Y-62900000D02*
X144325000Y-62925000D01*
X144325000Y-62925000D02*
X147275000Y-62925000D01*
%TO.N,Net-(U5-GP7)*%
X141700000Y-59800000D02*
X141700000Y-61825000D01*
%TO.N,/Display/digit1*%
X169500000Y-96600000D02*
X169500000Y-94800000D01*
%TO.N,Net-(U4-a)*%
X154400000Y-44600000D02*
X156600000Y-44600000D01*
X141700000Y-41700000D02*
X141800000Y-41800000D01*
X159800000Y-51200000D02*
X159800000Y-53300000D01*
X139700000Y-41700000D02*
X141700000Y-41700000D01*
%TO.N,Net-(U4-b)*%
X155800000Y-41900000D02*
X155800000Y-40100000D01*
X155700000Y-53500000D02*
X155700000Y-51500000D01*
%TO.N,/Display/low_ohm*%
X162600000Y-114600000D02*
X162625000Y-114600000D01*
X151700000Y-115400000D02*
X151600000Y-115300000D01*
X151600000Y-115300000D02*
X140400000Y-115300000D01*
X161800000Y-115400000D02*
X162600000Y-114600000D01*
X157475000Y-115400000D02*
X161800000Y-115400000D01*
%TO.N,/Display/pico*%
X142000000Y-99600000D02*
X140585324Y-99600000D01*
X117000000Y-94900000D02*
X117000000Y-92300000D01*
X149100000Y-94500000D02*
X143600000Y-94500000D01*
X140585324Y-99600000D02*
X140550000Y-99635324D01*
X124000000Y-96000000D02*
X123900000Y-95900000D01*
X123900000Y-95900000D02*
X119575000Y-95900000D01*
%TO.N,/Display/nano*%
X171125000Y-77500000D02*
X167100000Y-77500000D01*
%TO.N,/Display/micro*%
X171200000Y-76400000D02*
X167600000Y-76400000D01*
X167600000Y-76400000D02*
X167100000Y-76400000D01*
%TO.N,Net-(U3A-+)*%
X143100000Y-79482500D02*
X144800000Y-79482500D01*
X143800000Y-83994500D02*
X143800000Y-82782500D01*
X142900000Y-81882500D02*
X142900000Y-79682500D01*
X143800000Y-82782500D02*
X142900000Y-81882500D01*
X142900000Y-79682500D02*
X143100000Y-79482500D01*
%TO.N,/Analog Front End/CS*%
X135400000Y-97400000D02*
X135400000Y-97900000D01*
X135800000Y-98300000D02*
X135800000Y-102800000D01*
X157400000Y-124900000D02*
X161500000Y-124900000D01*
X143300000Y-114300000D02*
X151600000Y-114300000D01*
X161500000Y-124900000D02*
X161600000Y-125000000D01*
X156600000Y-119332500D02*
X156600000Y-114675000D01*
X135800000Y-103600000D02*
X136300000Y-104100000D01*
X135400000Y-97900000D02*
X135800000Y-98300000D01*
X135800000Y-102800000D02*
X135800000Y-103600000D01*
%TO.N,Net-(U10-CH0)*%
X147800000Y-89200000D02*
X149200000Y-87800000D01*
X140187347Y-91287347D02*
X139800000Y-90900000D01*
X139800000Y-90900000D02*
X134900000Y-90900000D01*
%TO.N,Net-(SW1-B)*%
X143700000Y-127600000D02*
X148500000Y-127600000D01*
%TO.N,/Analog Front End/SCK*%
X136506114Y-97489568D02*
X136506114Y-102906114D01*
X146900000Y-110800000D02*
X148600000Y-110800000D01*
X136506114Y-102906114D02*
X137700000Y-104100000D01*
X158300000Y-117600000D02*
X158300000Y-119500000D01*
X145400000Y-109300000D02*
X146800000Y-110700000D01*
X143300000Y-109300000D02*
X145400000Y-109300000D01*
X146800000Y-110700000D02*
X146900000Y-110800000D01*
%TO.N,/Analog Front End/SDI*%
X137500000Y-97600000D02*
X137500000Y-102300000D01*
X143500000Y-108000000D02*
X146200000Y-108000000D01*
X147300000Y-109100000D02*
X147800000Y-109600000D01*
X147800000Y-109600000D02*
X148600000Y-109600000D01*
X159600000Y-117600000D02*
X159600000Y-119400000D01*
X137500000Y-102300000D02*
X138612653Y-103412653D01*
X146200000Y-108000000D02*
X147300000Y-109100000D01*
%TO.N,/Analog Front End/SDO*%
X138500000Y-97700000D02*
X138500000Y-101800000D01*
X147800000Y-107400000D02*
X148700000Y-108300000D01*
X147000000Y-107400000D02*
X147800000Y-107400000D01*
X160800000Y-117700000D02*
X160800000Y-119500000D01*
X142840742Y-106150793D02*
X144089949Y-107400000D01*
X138500000Y-101800000D02*
X139362653Y-102662653D01*
X144089949Y-107400000D02*
X147000000Y-107400000D01*
%TO.N,/Analog Front End/MDAT*%
X139350000Y-99299695D02*
X139350000Y-101150000D01*
X139500000Y-99149695D02*
X139350000Y-99299695D01*
X139500000Y-97800000D02*
X139500000Y-99149695D01*
X144300000Y-106200000D02*
X145500000Y-106200000D01*
X145500000Y-106200000D02*
X148100000Y-106200000D01*
X143600000Y-105500000D02*
X144300000Y-106200000D01*
X148100000Y-106200000D02*
X148700000Y-106800000D01*
X161900000Y-117700000D02*
X161900000Y-119500000D01*
X139350000Y-101150000D02*
X140200000Y-102000000D01*
%TD*%
%TA.AperFunction,Conductor*%
%TO.N,GND*%
G36*
X110970278Y-141879466D02*
G01*
X111120534Y-142029722D01*
X111238281Y-142115270D01*
X110780050Y-142573501D01*
X110818109Y-142481619D01*
X110818109Y-142382163D01*
X110780049Y-142290277D01*
X110709723Y-142219951D01*
X110617837Y-142181891D01*
X110518381Y-142181891D01*
X110426495Y-142219951D01*
X110356169Y-142290277D01*
X110318109Y-142382163D01*
X110318109Y-142481619D01*
X110356169Y-142573505D01*
X110426495Y-142643831D01*
X110518381Y-142681891D01*
X110617837Y-142681891D01*
X110709719Y-142643832D01*
X109920397Y-143433154D01*
X110001693Y-143505806D01*
X110294805Y-143713781D01*
X110294810Y-143713784D01*
X110391951Y-143767472D01*
X110441104Y-143817129D01*
X110455607Y-143885477D01*
X110430857Y-143950816D01*
X110374711Y-143992401D01*
X110331970Y-144000000D01*
X109124000Y-144000000D01*
X109056961Y-143980315D01*
X109011206Y-143927511D01*
X109000000Y-143876000D01*
X109000000Y-142668030D01*
X109019685Y-142600991D01*
X109072489Y-142555236D01*
X109141647Y-142545292D01*
X109205203Y-142574317D01*
X109232528Y-142608049D01*
X109286215Y-142705189D01*
X109286218Y-142705194D01*
X109494193Y-142998306D01*
X109566844Y-143079601D01*
X110884728Y-141761717D01*
X110970278Y-141879466D01*
G37*
%TD.AperFunction*%
%TA.AperFunction,Conductor*%
G36*
X134910913Y-36019685D02*
G01*
X134956668Y-36072489D01*
X134966612Y-36141647D01*
X134937587Y-36205203D01*
X134914997Y-36225575D01*
X134843121Y-36275902D01*
X134688402Y-36430621D01*
X134562900Y-36609857D01*
X134562898Y-36609861D01*
X134470426Y-36808168D01*
X134470422Y-36808177D01*
X134413793Y-37019520D01*
X134413793Y-37019524D01*
X134395817Y-37225000D01*
X134394723Y-37237500D01*
X134412535Y-37441103D01*
X134413793Y-37455475D01*
X134413793Y-37455479D01*
X134470422Y-37666822D01*
X134470424Y-37666826D01*
X134470425Y-37666830D01*
X134492382Y-37713916D01*
X134562897Y-37865138D01*
X134562898Y-37865139D01*
X134688402Y-38044377D01*
X134843123Y-38199098D01*
X135022361Y-38324602D01*
X135220670Y-38417075D01*
X135432023Y-38473707D01*
X135614926Y-38489708D01*
X135649998Y-38492777D01*
X135650000Y-38492777D01*
X135650002Y-38492777D01*
X135678254Y-38490305D01*
X135867977Y-38473707D01*
X136079330Y-38417075D01*
X136277639Y-38324602D01*
X136456877Y-38199098D01*
X136611598Y-38044377D01*
X136737102Y-37865139D01*
X136807618Y-37713914D01*
X136853790Y-37661477D01*
X136920984Y-37642325D01*
X136987865Y-37662541D01*
X137032381Y-37713914D01*
X137102898Y-37865139D01*
X137228402Y-38044377D01*
X137383123Y-38199098D01*
X137562361Y-38324602D01*
X137760670Y-38417075D01*
X137972023Y-38473707D01*
X138154926Y-38489708D01*
X138189998Y-38492777D01*
X138190000Y-38492777D01*
X138190002Y-38492777D01*
X138218254Y-38490305D01*
X138407977Y-38473707D01*
X138619330Y-38417075D01*
X138817639Y-38324602D01*
X138996877Y-38199098D01*
X139151598Y-38044377D01*
X139277102Y-37865139D01*
X139347618Y-37713914D01*
X139393790Y-37661477D01*
X139460984Y-37642325D01*
X139527865Y-37662541D01*
X139572381Y-37713914D01*
X139642898Y-37865139D01*
X139768402Y-38044377D01*
X139923123Y-38199098D01*
X140102361Y-38324602D01*
X140300670Y-38417075D01*
X140512023Y-38473707D01*
X140694926Y-38489708D01*
X140729998Y-38492777D01*
X140730000Y-38492777D01*
X140730002Y-38492777D01*
X140758254Y-38490305D01*
X140947977Y-38473707D01*
X141159330Y-38417075D01*
X141357639Y-38324602D01*
X141536877Y-38199098D01*
X141691598Y-38044377D01*
X141817102Y-37865139D01*
X141887618Y-37713914D01*
X141933790Y-37661477D01*
X142000984Y-37642325D01*
X142067865Y-37662541D01*
X142112381Y-37713914D01*
X142182898Y-37865139D01*
X142308402Y-38044377D01*
X142463123Y-38199098D01*
X142642361Y-38324602D01*
X142840670Y-38417075D01*
X143052023Y-38473707D01*
X143234926Y-38489708D01*
X143269998Y-38492777D01*
X143270000Y-38492777D01*
X143270002Y-38492777D01*
X143298254Y-38490305D01*
X143487977Y-38473707D01*
X143699330Y-38417075D01*
X143897639Y-38324602D01*
X144076877Y-38199098D01*
X144231598Y-38044377D01*
X144357102Y-37865139D01*
X144427618Y-37713914D01*
X144473790Y-37661477D01*
X144540984Y-37642325D01*
X144607865Y-37662541D01*
X144652381Y-37713914D01*
X144722898Y-37865139D01*
X144848402Y-38044377D01*
X145003123Y-38199098D01*
X145182361Y-38324602D01*
X145380670Y-38417075D01*
X145592023Y-38473707D01*
X145774926Y-38489708D01*
X145809998Y-38492777D01*
X145810000Y-38492777D01*
X145810002Y-38492777D01*
X145838254Y-38490305D01*
X146027977Y-38473707D01*
X146239330Y-38417075D01*
X146437639Y-38324602D01*
X146616877Y-38199098D01*
X146771598Y-38044377D01*
X146897102Y-37865139D01*
X146967618Y-37713914D01*
X147013790Y-37661477D01*
X147080984Y-37642325D01*
X147147865Y-37662541D01*
X147192381Y-37713914D01*
X147262898Y-37865139D01*
X147388402Y-38044377D01*
X147543123Y-38199098D01*
X147722361Y-38324602D01*
X147920670Y-38417075D01*
X148132023Y-38473707D01*
X148314926Y-38489708D01*
X148349998Y-38492777D01*
X148350000Y-38492777D01*
X148350002Y-38492777D01*
X148378254Y-38490305D01*
X148567977Y-38473707D01*
X148779330Y-38417075D01*
X148977639Y-38324602D01*
X149156877Y-38199098D01*
X149311598Y-38044377D01*
X149437102Y-37865139D01*
X149529575Y-37666830D01*
X149586207Y-37455477D01*
X149605277Y-37237500D01*
X149604183Y-37225000D01*
X149594701Y-37116614D01*
X149586207Y-37019523D01*
X149529575Y-36808170D01*
X149437102Y-36609862D01*
X149437100Y-36609859D01*
X149437099Y-36609857D01*
X149311599Y-36430624D01*
X149311596Y-36430621D01*
X149156877Y-36275902D01*
X149084998Y-36225572D01*
X149041377Y-36170998D01*
X149034184Y-36101499D01*
X149065706Y-36039145D01*
X149125936Y-36003731D01*
X149156125Y-36000000D01*
X170331970Y-36000000D01*
X170399009Y-36019685D01*
X170444764Y-36072489D01*
X170454708Y-36141647D01*
X170425683Y-36205203D01*
X170391951Y-36232528D01*
X170294810Y-36286215D01*
X170294805Y-36286218D01*
X170001693Y-36494193D01*
X169920397Y-36566844D01*
X170709721Y-37356168D01*
X170617837Y-37318109D01*
X170518381Y-37318109D01*
X170426495Y-37356169D01*
X170356169Y-37426495D01*
X170318109Y-37518381D01*
X170318109Y-37617837D01*
X170356168Y-37709721D01*
X169566844Y-36920397D01*
X169494193Y-37001693D01*
X169286218Y-37294805D01*
X169286215Y-37294810D01*
X169112355Y-37609386D01*
X169112353Y-37609390D01*
X168974812Y-37941447D01*
X168875316Y-38286805D01*
X168875314Y-38286814D01*
X168815112Y-38641141D01*
X168815110Y-38641153D01*
X168794958Y-39000000D01*
X168815110Y-39358846D01*
X168815112Y-39358858D01*
X168875314Y-39713185D01*
X168875316Y-39713194D01*
X168974812Y-40058552D01*
X169112353Y-40390609D01*
X169112355Y-40390613D01*
X169286215Y-40705189D01*
X169286218Y-40705194D01*
X169494193Y-40998306D01*
X169566844Y-41079601D01*
X170884728Y-39761717D01*
X170970278Y-39879466D01*
X171120534Y-40029722D01*
X171238281Y-40115270D01*
X170780050Y-40573501D01*
X170818109Y-40481619D01*
X170818109Y-40382163D01*
X170780049Y-40290277D01*
X170709723Y-40219951D01*
X170617837Y-40181891D01*
X170518381Y-40181891D01*
X170426495Y-40219951D01*
X170356169Y-40290277D01*
X170318109Y-40382163D01*
X170318109Y-40481619D01*
X170356169Y-40573505D01*
X170426495Y-40643831D01*
X170518381Y-40681891D01*
X170617837Y-40681891D01*
X170709719Y-40643832D01*
X169920397Y-41433154D01*
X170001693Y-41505806D01*
X170294805Y-41713781D01*
X170294810Y-41713784D01*
X170609386Y-41887644D01*
X170609390Y-41887646D01*
X170941447Y-42025187D01*
X171286805Y-42124683D01*
X171286814Y-42124685D01*
X171641141Y-42184887D01*
X171641153Y-42184889D01*
X172000000Y-42205041D01*
X172358846Y-42184889D01*
X172358858Y-42184887D01*
X172713185Y-42124685D01*
X172713194Y-42124683D01*
X173058552Y-42025187D01*
X173390609Y-41887646D01*
X173390613Y-41887644D01*
X173705189Y-41713784D01*
X173705194Y-41713781D01*
X173998299Y-41505811D01*
X173998322Y-41505793D01*
X174079602Y-41433155D01*
X174079602Y-41433154D01*
X173290279Y-40643832D01*
X173382163Y-40681891D01*
X173481619Y-40681891D01*
X173573505Y-40643831D01*
X173643831Y-40573505D01*
X173681891Y-40481619D01*
X173681891Y-40382163D01*
X173643832Y-40290280D01*
X174433154Y-41079602D01*
X174433155Y-41079602D01*
X174505793Y-40998322D01*
X174505811Y-40998299D01*
X174713781Y-40705194D01*
X174713784Y-40705189D01*
X174767472Y-40608049D01*
X174817129Y-40558896D01*
X174885477Y-40544393D01*
X174950816Y-40569143D01*
X174992401Y-40625289D01*
X175000000Y-40668030D01*
X175000000Y-139331969D01*
X174980315Y-139399008D01*
X174927511Y-139444763D01*
X174858353Y-139454707D01*
X174794797Y-139425682D01*
X174767473Y-139391951D01*
X174713788Y-139294816D01*
X174713781Y-139294805D01*
X174505806Y-139001693D01*
X174433154Y-138920397D01*
X173643832Y-139709718D01*
X173681891Y-139617837D01*
X173681891Y-139518381D01*
X173643831Y-139426495D01*
X173573505Y-139356169D01*
X173481619Y-139318109D01*
X173382163Y-139318109D01*
X173290277Y-139356169D01*
X173219951Y-139426495D01*
X173181891Y-139518381D01*
X173181891Y-139617837D01*
X173219951Y-139709723D01*
X173290277Y-139780049D01*
X173382163Y-139818109D01*
X173481619Y-139818109D01*
X173573500Y-139780050D01*
X173115270Y-140238281D01*
X173029722Y-140120534D01*
X172879466Y-139970278D01*
X172761717Y-139884729D01*
X174079601Y-138566844D01*
X174079602Y-138566844D01*
X173998306Y-138494193D01*
X173705194Y-138286218D01*
X173705189Y-138286215D01*
X173390613Y-138112355D01*
X173390609Y-138112353D01*
X173058552Y-137974812D01*
X172713194Y-137875316D01*
X172713185Y-137875314D01*
X172358858Y-137815112D01*
X172358846Y-137815110D01*
X172000000Y-137794958D01*
X171641153Y-137815110D01*
X171641141Y-137815112D01*
X171286814Y-137875314D01*
X171286805Y-137875316D01*
X170941447Y-137974812D01*
X170609390Y-138112353D01*
X170609386Y-138112355D01*
X170294810Y-138286215D01*
X170294805Y-138286218D01*
X170001693Y-138494193D01*
X169920397Y-138566844D01*
X170709721Y-139356168D01*
X170617837Y-139318109D01*
X170518381Y-139318109D01*
X170426495Y-139356169D01*
X170356169Y-139426495D01*
X170318109Y-139518381D01*
X170318109Y-139617837D01*
X170356168Y-139709721D01*
X169566844Y-138920397D01*
X169494193Y-139001693D01*
X169286218Y-139294805D01*
X169286215Y-139294810D01*
X169112355Y-139609386D01*
X169112353Y-139609390D01*
X168974812Y-139941447D01*
X168875316Y-140286805D01*
X168875314Y-140286814D01*
X168815112Y-140641141D01*
X168815110Y-140641153D01*
X168794958Y-141000000D01*
X168815110Y-141358846D01*
X168815112Y-141358858D01*
X168875314Y-141713185D01*
X168875316Y-141713194D01*
X168974812Y-142058552D01*
X169112353Y-142390609D01*
X169112355Y-142390613D01*
X169286215Y-142705189D01*
X169286218Y-142705194D01*
X169494193Y-142998306D01*
X169566844Y-143079601D01*
X170884728Y-141761717D01*
X170970278Y-141879466D01*
X171120534Y-142029722D01*
X171238281Y-142115270D01*
X170780050Y-142573501D01*
X170818109Y-142481619D01*
X170818109Y-142382163D01*
X170780049Y-142290277D01*
X170709723Y-142219951D01*
X170617837Y-142181891D01*
X170518381Y-142181891D01*
X170426495Y-142219951D01*
X170356169Y-142290277D01*
X170318109Y-142382163D01*
X170318109Y-142481619D01*
X170356169Y-142573505D01*
X170426495Y-142643831D01*
X170518381Y-142681891D01*
X170617837Y-142681891D01*
X170709719Y-142643832D01*
X169920397Y-143433154D01*
X170001693Y-143505806D01*
X170294805Y-143713781D01*
X170294810Y-143713784D01*
X170391951Y-143767472D01*
X170441104Y-143817129D01*
X170455607Y-143885477D01*
X170430857Y-143950816D01*
X170374711Y-143992401D01*
X170331970Y-144000000D01*
X113668030Y-144000000D01*
X113600991Y-143980315D01*
X113555236Y-143927511D01*
X113545292Y-143858353D01*
X113574317Y-143794797D01*
X113608049Y-143767472D01*
X113705189Y-143713784D01*
X113705194Y-143713781D01*
X113998299Y-143505811D01*
X113998322Y-143505793D01*
X114079602Y-143433155D01*
X114079602Y-143433154D01*
X113290279Y-142643832D01*
X113382163Y-142681891D01*
X113481619Y-142681891D01*
X113573505Y-142643831D01*
X113643831Y-142573505D01*
X113681891Y-142481619D01*
X113681891Y-142382163D01*
X113643832Y-142290279D01*
X114433154Y-143079602D01*
X114433155Y-143079602D01*
X114505793Y-142998322D01*
X114505811Y-142998299D01*
X114713781Y-142705194D01*
X114713784Y-142705189D01*
X114887644Y-142390613D01*
X114887646Y-142390609D01*
X115025187Y-142058552D01*
X115124683Y-141713194D01*
X115124685Y-141713185D01*
X115184887Y-141358858D01*
X115184889Y-141358846D01*
X115205041Y-141000000D01*
X115184889Y-140641153D01*
X115184887Y-140641141D01*
X115124685Y-140286814D01*
X115124683Y-140286805D01*
X115025187Y-139941447D01*
X114887646Y-139609390D01*
X114887644Y-139609386D01*
X114713784Y-139294810D01*
X114713781Y-139294805D01*
X114505806Y-139001693D01*
X114433154Y-138920397D01*
X113643832Y-139709718D01*
X113681891Y-139617837D01*
X113681891Y-139518381D01*
X113643831Y-139426495D01*
X113573505Y-139356169D01*
X113481619Y-139318109D01*
X113382163Y-139318109D01*
X113290277Y-139356169D01*
X113219951Y-139426495D01*
X113181891Y-139518381D01*
X113181891Y-139617837D01*
X113219951Y-139709723D01*
X113290277Y-139780049D01*
X113382163Y-139818109D01*
X113481619Y-139818109D01*
X113573500Y-139780050D01*
X113115270Y-140238281D01*
X113029722Y-140120534D01*
X112879466Y-139970278D01*
X112761717Y-139884729D01*
X114079601Y-138566844D01*
X114079602Y-138566844D01*
X113998306Y-138494193D01*
X113705194Y-138286218D01*
X113705189Y-138286215D01*
X113390613Y-138112355D01*
X113390609Y-138112353D01*
X113058552Y-137974812D01*
X112713194Y-137875316D01*
X112713185Y-137875314D01*
X112358858Y-137815112D01*
X112358846Y-137815110D01*
X112000000Y-137794958D01*
X111641153Y-137815110D01*
X111641141Y-137815112D01*
X111286814Y-137875314D01*
X111286805Y-137875316D01*
X110941447Y-137974812D01*
X110609390Y-138112353D01*
X110609386Y-138112355D01*
X110294810Y-138286215D01*
X110294805Y-138286218D01*
X110001693Y-138494193D01*
X109920397Y-138566844D01*
X110709721Y-139356168D01*
X110617837Y-139318109D01*
X110518381Y-139318109D01*
X110426495Y-139356169D01*
X110356169Y-139426495D01*
X110318109Y-139518381D01*
X110318109Y-139617837D01*
X110356168Y-139709721D01*
X109566844Y-138920397D01*
X109494193Y-139001693D01*
X109286218Y-139294805D01*
X109286211Y-139294816D01*
X109232527Y-139391951D01*
X109182871Y-139441103D01*
X109114523Y-139455606D01*
X109049184Y-139430856D01*
X109007599Y-139374709D01*
X109000000Y-139331969D01*
X109000000Y-127600000D01*
X142794540Y-127600000D01*
X142814326Y-127788256D01*
X142814327Y-127788259D01*
X142872818Y-127968277D01*
X142872821Y-127968284D01*
X142967467Y-128132216D01*
X143069185Y-128245185D01*
X143094129Y-128272888D01*
X143247265Y-128384148D01*
X143247270Y-128384151D01*
X143420192Y-128461142D01*
X143420197Y-128461144D01*
X143605354Y-128500500D01*
X143605355Y-128500500D01*
X143794644Y-128500500D01*
X143794646Y-128500500D01*
X143979803Y-128461144D01*
X144152730Y-128384151D01*
X144305871Y-128272888D01*
X144308788Y-128269647D01*
X144311600Y-128266526D01*
X144371087Y-128229879D01*
X144403748Y-128225500D01*
X147796252Y-128225500D01*
X147863291Y-128245185D01*
X147888400Y-128266526D01*
X147894126Y-128272885D01*
X147894130Y-128272889D01*
X148047265Y-128384148D01*
X148047270Y-128384151D01*
X148220192Y-128461142D01*
X148220197Y-128461144D01*
X148405354Y-128500500D01*
X148405355Y-128500500D01*
X148594644Y-128500500D01*
X148594646Y-128500500D01*
X148779803Y-128461144D01*
X148952730Y-128384151D01*
X149105871Y-128272888D01*
X149232533Y-128132216D01*
X149327179Y-127968284D01*
X149385674Y-127788256D01*
X149405460Y-127600000D01*
X149385674Y-127411744D01*
X149327179Y-127231716D01*
X149232533Y-127067784D01*
X149105871Y-126927112D01*
X149105870Y-126927111D01*
X148952734Y-126815851D01*
X148952729Y-126815848D01*
X148779807Y-126738857D01*
X148779802Y-126738855D01*
X148634001Y-126707865D01*
X148594646Y-126699500D01*
X148405354Y-126699500D01*
X148372897Y-126706398D01*
X148220197Y-126738855D01*
X148220192Y-126738857D01*
X148047270Y-126815848D01*
X148047265Y-126815851D01*
X147894130Y-126927110D01*
X147894126Y-126927114D01*
X147888400Y-126933474D01*
X147828913Y-126970121D01*
X147796252Y-126974500D01*
X144403748Y-126974500D01*
X144336709Y-126954815D01*
X144311600Y-126933474D01*
X144305873Y-126927114D01*
X144305869Y-126927110D01*
X144152734Y-126815851D01*
X144152729Y-126815848D01*
X143979807Y-126738857D01*
X143979802Y-126738855D01*
X143834001Y-126707865D01*
X143794646Y-126699500D01*
X143605354Y-126699500D01*
X143572897Y-126706398D01*
X143420197Y-126738855D01*
X143420192Y-126738857D01*
X143247270Y-126815848D01*
X143247265Y-126815851D01*
X143094129Y-126927111D01*
X142967466Y-127067785D01*
X142872821Y-127231715D01*
X142872818Y-127231722D01*
X142814327Y-127411740D01*
X142814326Y-127411744D01*
X142794540Y-127600000D01*
X109000000Y-127600000D01*
X109000000Y-124900000D01*
X156494540Y-124900000D01*
X156514326Y-125088256D01*
X156514327Y-125088259D01*
X156572818Y-125268277D01*
X156572821Y-125268284D01*
X156667467Y-125432216D01*
X156757506Y-125532214D01*
X156794129Y-125572888D01*
X156947265Y-125684148D01*
X156947270Y-125684151D01*
X157120192Y-125761142D01*
X157120197Y-125761144D01*
X157305354Y-125800500D01*
X157305355Y-125800500D01*
X157494644Y-125800500D01*
X157494646Y-125800500D01*
X157679803Y-125761144D01*
X157852730Y-125684151D01*
X158005871Y-125572888D01*
X158011598Y-125566528D01*
X158011600Y-125566526D01*
X158071087Y-125529879D01*
X158103748Y-125525500D01*
X160806212Y-125525500D01*
X160873251Y-125545185D01*
X160898360Y-125566526D01*
X160904089Y-125572889D01*
X160994129Y-125672888D01*
X161147265Y-125784148D01*
X161147270Y-125784151D01*
X161320192Y-125861142D01*
X161320197Y-125861144D01*
X161505354Y-125900500D01*
X161505355Y-125900500D01*
X161694644Y-125900500D01*
X161694646Y-125900500D01*
X161879803Y-125861144D01*
X162052730Y-125784151D01*
X162205871Y-125672888D01*
X162332533Y-125532216D01*
X162427179Y-125368284D01*
X162485674Y-125188256D01*
X162505460Y-125000000D01*
X162485674Y-124811744D01*
X162427179Y-124631716D01*
X162332533Y-124467784D01*
X162205871Y-124327112D01*
X162133457Y-124274500D01*
X162052734Y-124215851D01*
X162052729Y-124215848D01*
X161879807Y-124138857D01*
X161879802Y-124138855D01*
X161734001Y-124107865D01*
X161694646Y-124099500D01*
X161505354Y-124099500D01*
X161472897Y-124106398D01*
X161320197Y-124138855D01*
X161320192Y-124138857D01*
X161147270Y-124215848D01*
X161147265Y-124215851D01*
X161099138Y-124250818D01*
X161033331Y-124274298D01*
X161026253Y-124274500D01*
X158103748Y-124274500D01*
X158036709Y-124254815D01*
X158011600Y-124233474D01*
X158005873Y-124227114D01*
X158005869Y-124227110D01*
X157852734Y-124115851D01*
X157852729Y-124115848D01*
X157679807Y-124038857D01*
X157679802Y-124038855D01*
X157534001Y-124007865D01*
X157494646Y-123999500D01*
X157305354Y-123999500D01*
X157272897Y-124006398D01*
X157120197Y-124038855D01*
X157120192Y-124038857D01*
X156947270Y-124115848D01*
X156947265Y-124115851D01*
X156794129Y-124227111D01*
X156667466Y-124367785D01*
X156572821Y-124531715D01*
X156572818Y-124531722D01*
X156514327Y-124711740D01*
X156514326Y-124711744D01*
X156494540Y-124900000D01*
X109000000Y-124900000D01*
X109000000Y-121360344D01*
X121087500Y-121360344D01*
X121093901Y-121419872D01*
X121093903Y-121419879D01*
X121144145Y-121554586D01*
X121144149Y-121554593D01*
X121230309Y-121669687D01*
X121230312Y-121669690D01*
X121345406Y-121755850D01*
X121345413Y-121755854D01*
X121480120Y-121806096D01*
X121480127Y-121806098D01*
X121539655Y-121812499D01*
X121539672Y-121812500D01*
X122650000Y-121812500D01*
X122650000Y-120842413D01*
X122813820Y-120875000D01*
X122986180Y-120875000D01*
X123150000Y-120842413D01*
X123150000Y-121812500D01*
X124260328Y-121812500D01*
X124260344Y-121812499D01*
X124319872Y-121806098D01*
X124319879Y-121806096D01*
X124454586Y-121755854D01*
X124454593Y-121755850D01*
X124569687Y-121669690D01*
X124569690Y-121669687D01*
X124655850Y-121554593D01*
X124655854Y-121554586D01*
X124706096Y-121419879D01*
X124706098Y-121419872D01*
X124712499Y-121360344D01*
X124712500Y-121360327D01*
X124712500Y-120250000D01*
X123742414Y-120250000D01*
X123775000Y-120086180D01*
X123775000Y-120000004D01*
X125681916Y-120000004D01*
X125702221Y-120270969D01*
X125722803Y-120361144D01*
X125762688Y-120535890D01*
X125762690Y-120535895D01*
X125861960Y-120788831D01*
X125861963Y-120788839D01*
X125892295Y-120841374D01*
X125997829Y-121024163D01*
X126134670Y-121195757D01*
X126167253Y-121236615D01*
X126355290Y-121411087D01*
X126366443Y-121421435D01*
X126590958Y-121574507D01*
X126835779Y-121692407D01*
X127095438Y-121772501D01*
X127095439Y-121772501D01*
X127095442Y-121772502D01*
X127364126Y-121812999D01*
X127364131Y-121812999D01*
X127364134Y-121813000D01*
X127364135Y-121813000D01*
X127635865Y-121813000D01*
X127635866Y-121813000D01*
X127635873Y-121812999D01*
X127904557Y-121772502D01*
X127904558Y-121772501D01*
X127904562Y-121772501D01*
X128164221Y-121692407D01*
X128409042Y-121574507D01*
X128633557Y-121421435D01*
X128832750Y-121236611D01*
X129002171Y-121024163D01*
X129138037Y-120788837D01*
X129237312Y-120535890D01*
X129297778Y-120270971D01*
X129309272Y-120117592D01*
X129318084Y-120000004D01*
X129318084Y-119999995D01*
X129301162Y-119774190D01*
X129297778Y-119729029D01*
X129237312Y-119464110D01*
X129138037Y-119211163D01*
X129138036Y-119211160D01*
X129080612Y-119111700D01*
X129002171Y-118975837D01*
X128832750Y-118763389D01*
X128832749Y-118763388D01*
X128832746Y-118763384D01*
X128656659Y-118600000D01*
X142794540Y-118600000D01*
X142814326Y-118788256D01*
X142814327Y-118788259D01*
X142872818Y-118968277D01*
X142872821Y-118968284D01*
X142967467Y-119132216D01*
X143069185Y-119245185D01*
X143094129Y-119272888D01*
X143247265Y-119384148D01*
X143247270Y-119384151D01*
X143420192Y-119461142D01*
X143420197Y-119461144D01*
X143605354Y-119500500D01*
X143605355Y-119500500D01*
X143794644Y-119500500D01*
X143794646Y-119500500D01*
X143979803Y-119461144D01*
X144152730Y-119384151D01*
X144305871Y-119272888D01*
X144308788Y-119269647D01*
X144311600Y-119266526D01*
X144371087Y-119229879D01*
X144403748Y-119225500D01*
X150989499Y-119225500D01*
X151056538Y-119245185D01*
X151081648Y-119266527D01*
X151094128Y-119280387D01*
X151094135Y-119280393D01*
X151247265Y-119391648D01*
X151247270Y-119391651D01*
X151420192Y-119468642D01*
X151420197Y-119468644D01*
X151605354Y-119508000D01*
X151605355Y-119508000D01*
X151794644Y-119508000D01*
X151794646Y-119508000D01*
X151979803Y-119468644D01*
X152152730Y-119391651D01*
X152234145Y-119332500D01*
X155694540Y-119332500D01*
X155714326Y-119520756D01*
X155714327Y-119520759D01*
X155772818Y-119700777D01*
X155772821Y-119700784D01*
X155867467Y-119864716D01*
X155989273Y-119999995D01*
X155994129Y-120005388D01*
X156147265Y-120116648D01*
X156147270Y-120116651D01*
X156320192Y-120193642D01*
X156320197Y-120193644D01*
X156505354Y-120233000D01*
X156505355Y-120233000D01*
X156694644Y-120233000D01*
X156694646Y-120233000D01*
X156879803Y-120193644D01*
X157052730Y-120116651D01*
X157205871Y-120005388D01*
X157302555Y-119898008D01*
X157362040Y-119861361D01*
X157431897Y-119862691D01*
X157489946Y-119901578D01*
X157502091Y-119918982D01*
X157567465Y-120032214D01*
X157694129Y-120172888D01*
X157847265Y-120284148D01*
X157847270Y-120284151D01*
X158020192Y-120361142D01*
X158020197Y-120361144D01*
X158205354Y-120400500D01*
X158205355Y-120400500D01*
X158394644Y-120400500D01*
X158394646Y-120400500D01*
X158579803Y-120361144D01*
X158752730Y-120284151D01*
X158905871Y-120172888D01*
X158920498Y-120156642D01*
X158979981Y-120119994D01*
X159049839Y-120121323D01*
X159085534Y-120139297D01*
X159147264Y-120184147D01*
X159147270Y-120184151D01*
X159320192Y-120261142D01*
X159320197Y-120261144D01*
X159505354Y-120300500D01*
X159505355Y-120300500D01*
X159694644Y-120300500D01*
X159694646Y-120300500D01*
X159879803Y-120261144D01*
X160052730Y-120184151D01*
X160058294Y-120180108D01*
X160124098Y-120156628D01*
X160192153Y-120172452D01*
X160204065Y-120180108D01*
X160347265Y-120284148D01*
X160347270Y-120284151D01*
X160520192Y-120361142D01*
X160520197Y-120361144D01*
X160705354Y-120400500D01*
X160705355Y-120400500D01*
X160894644Y-120400500D01*
X160894646Y-120400500D01*
X161079803Y-120361144D01*
X161252730Y-120284151D01*
X161277114Y-120266434D01*
X161342919Y-120242954D01*
X161410973Y-120258778D01*
X161422879Y-120266429D01*
X161447266Y-120284148D01*
X161447269Y-120284150D01*
X161447270Y-120284151D01*
X161620192Y-120361142D01*
X161620197Y-120361144D01*
X161805354Y-120400500D01*
X161805355Y-120400500D01*
X161994644Y-120400500D01*
X161994646Y-120400500D01*
X162179803Y-120361144D01*
X162352730Y-120284151D01*
X162505871Y-120172888D01*
X162632533Y-120032216D01*
X162727179Y-119868284D01*
X162785674Y-119688256D01*
X162805460Y-119500000D01*
X162785674Y-119311744D01*
X162729778Y-119139714D01*
X162727181Y-119131722D01*
X162727180Y-119131721D01*
X162727179Y-119131716D01*
X162632533Y-118967784D01*
X162602554Y-118934489D01*
X162557350Y-118884284D01*
X162527120Y-118821292D01*
X162525500Y-118801312D01*
X162525500Y-118398687D01*
X162545185Y-118331648D01*
X162557350Y-118315715D01*
X162575891Y-118295122D01*
X162632533Y-118232216D01*
X162727179Y-118068284D01*
X162785674Y-117888256D01*
X162805460Y-117700000D01*
X162785674Y-117511744D01*
X162727179Y-117331716D01*
X162632533Y-117167784D01*
X162505871Y-117027112D01*
X162505870Y-117027111D01*
X162352734Y-116915851D01*
X162352729Y-116915848D01*
X162179807Y-116838857D01*
X162179802Y-116838855D01*
X162034001Y-116807865D01*
X161994646Y-116799500D01*
X161805354Y-116799500D01*
X161772897Y-116806398D01*
X161620197Y-116838855D01*
X161620192Y-116838857D01*
X161447270Y-116915848D01*
X161447265Y-116915851D01*
X161422885Y-116933565D01*
X161357079Y-116957045D01*
X161289025Y-116941219D01*
X161277115Y-116933565D01*
X161252734Y-116915851D01*
X161252729Y-116915848D01*
X161079807Y-116838857D01*
X161079802Y-116838855D01*
X160934001Y-116807865D01*
X160894646Y-116799500D01*
X160705354Y-116799500D01*
X160672897Y-116806398D01*
X160520197Y-116838855D01*
X160520192Y-116838857D01*
X160347270Y-116915848D01*
X160341698Y-116919897D01*
X160275890Y-116943372D01*
X160207837Y-116927542D01*
X160195934Y-116919892D01*
X160052734Y-116815851D01*
X160052729Y-116815848D01*
X159879807Y-116738857D01*
X159879802Y-116738855D01*
X159734001Y-116707865D01*
X159694646Y-116699500D01*
X159505354Y-116699500D01*
X159472897Y-116706398D01*
X159320197Y-116738855D01*
X159320192Y-116738857D01*
X159147271Y-116815848D01*
X159022885Y-116906219D01*
X158957078Y-116929698D01*
X158889024Y-116913872D01*
X158877115Y-116906219D01*
X158784398Y-116838857D01*
X158752730Y-116815849D01*
X158752728Y-116815848D01*
X158752729Y-116815848D01*
X158579807Y-116738857D01*
X158579802Y-116738855D01*
X158434001Y-116707865D01*
X158394646Y-116699500D01*
X158205354Y-116699500D01*
X158172897Y-116706398D01*
X158020197Y-116738855D01*
X158020192Y-116738857D01*
X157847270Y-116815848D01*
X157847265Y-116815851D01*
X157694129Y-116927111D01*
X157567466Y-117067785D01*
X157472821Y-117231715D01*
X157472819Y-117231719D01*
X157467431Y-117248304D01*
X157427993Y-117305979D01*
X157363634Y-117333177D01*
X157294788Y-117321262D01*
X157243312Y-117274017D01*
X157225500Y-117209985D01*
X157225500Y-116420711D01*
X157245185Y-116353672D01*
X157297989Y-116307917D01*
X157367147Y-116297973D01*
X157375263Y-116299418D01*
X157380354Y-116300500D01*
X157380357Y-116300500D01*
X157569644Y-116300500D01*
X157569646Y-116300500D01*
X157754803Y-116261144D01*
X157927730Y-116184151D01*
X158080871Y-116072888D01*
X158083788Y-116069647D01*
X158086600Y-116066526D01*
X158146087Y-116029879D01*
X158178748Y-116025500D01*
X161861607Y-116025500D01*
X161922029Y-116013481D01*
X161982452Y-116001463D01*
X162032496Y-115980734D01*
X162096286Y-115954312D01*
X162147509Y-115920084D01*
X162198733Y-115885858D01*
X162285858Y-115798733D01*
X162285860Y-115798729D01*
X162547772Y-115536816D01*
X162609094Y-115503334D01*
X162635452Y-115500500D01*
X162719644Y-115500500D01*
X162719646Y-115500500D01*
X162904803Y-115461144D01*
X163077730Y-115384151D01*
X163230871Y-115272888D01*
X163357533Y-115132216D01*
X163452179Y-114968284D01*
X163510674Y-114788256D01*
X163530460Y-114600000D01*
X163510674Y-114411744D01*
X163452179Y-114231716D01*
X163357533Y-114067784D01*
X163230871Y-113927112D01*
X163180962Y-113890851D01*
X163077734Y-113815851D01*
X163077729Y-113815848D01*
X162904807Y-113738857D01*
X162904802Y-113738855D01*
X162759001Y-113707865D01*
X162719646Y-113699500D01*
X162530354Y-113699500D01*
X162497897Y-113706398D01*
X162345197Y-113738855D01*
X162345192Y-113738857D01*
X162172270Y-113815848D01*
X162172265Y-113815851D01*
X162019129Y-113927111D01*
X161892466Y-114067785D01*
X161797821Y-114231715D01*
X161797818Y-114231722D01*
X161743304Y-114399500D01*
X161739326Y-114411744D01*
X161732926Y-114472635D01*
X161724614Y-114551716D01*
X161698029Y-114616330D01*
X161688975Y-114626433D01*
X161577230Y-114738180D01*
X161515907Y-114771666D01*
X161489548Y-114774500D01*
X158178748Y-114774500D01*
X158111709Y-114754815D01*
X158086600Y-114733474D01*
X158080873Y-114727114D01*
X158080869Y-114727110D01*
X157927734Y-114615851D01*
X157927729Y-114615848D01*
X157754807Y-114538857D01*
X157754802Y-114538855D01*
X157617609Y-114509694D01*
X157569646Y-114499500D01*
X157569645Y-114499500D01*
X157569640Y-114499499D01*
X157567065Y-114499228D01*
X157565676Y-114498656D01*
X157563289Y-114498149D01*
X157563381Y-114497712D01*
X157502454Y-114472635D01*
X157462477Y-114415332D01*
X157462112Y-114414227D01*
X157427181Y-114306722D01*
X157427180Y-114306721D01*
X157427179Y-114306716D01*
X157332533Y-114142784D01*
X157205871Y-114002112D01*
X157205870Y-114002111D01*
X157052734Y-113890851D01*
X157052729Y-113890848D01*
X156879807Y-113813857D01*
X156879802Y-113813855D01*
X156734001Y-113782865D01*
X156694646Y-113774500D01*
X156505354Y-113774500D01*
X156472897Y-113781398D01*
X156320197Y-113813855D01*
X156320192Y-113813857D01*
X156147270Y-113890848D01*
X156147265Y-113890851D01*
X155994129Y-114002111D01*
X155867466Y-114142785D01*
X155772821Y-114306715D01*
X155772818Y-114306722D01*
X155718910Y-114472635D01*
X155714326Y-114486744D01*
X155694540Y-114675000D01*
X155714326Y-114863256D01*
X155714327Y-114863259D01*
X155772818Y-115043277D01*
X155772821Y-115043284D01*
X155867467Y-115207216D01*
X155910772Y-115255310D01*
X155942650Y-115290715D01*
X155972880Y-115353706D01*
X155974500Y-115373687D01*
X155974500Y-118633812D01*
X155954815Y-118700851D01*
X155942650Y-118716784D01*
X155867466Y-118800284D01*
X155772821Y-118964215D01*
X155772818Y-118964222D01*
X155718234Y-119132216D01*
X155714326Y-119144244D01*
X155694540Y-119332500D01*
X152234145Y-119332500D01*
X152305871Y-119280388D01*
X152432533Y-119139716D01*
X152527179Y-118975784D01*
X152585674Y-118795756D01*
X152605460Y-118607500D01*
X152585674Y-118419244D01*
X152527179Y-118239216D01*
X152432533Y-118075284D01*
X152305871Y-117934612D01*
X152305870Y-117934611D01*
X152152734Y-117823351D01*
X152152729Y-117823348D01*
X151979807Y-117746357D01*
X151979802Y-117746355D01*
X151834001Y-117715365D01*
X151794646Y-117707000D01*
X151605354Y-117707000D01*
X151572897Y-117713898D01*
X151420197Y-117746355D01*
X151420192Y-117746357D01*
X151247270Y-117823348D01*
X151247265Y-117823351D01*
X151094130Y-117934610D01*
X151089299Y-117938961D01*
X151088210Y-117937752D01*
X151035661Y-117970123D01*
X151003005Y-117974500D01*
X144403748Y-117974500D01*
X144336709Y-117954815D01*
X144311600Y-117933474D01*
X144305873Y-117927114D01*
X144305869Y-117927110D01*
X144152734Y-117815851D01*
X144152729Y-117815848D01*
X143979807Y-117738857D01*
X143979802Y-117738855D01*
X143829931Y-117707000D01*
X143794646Y-117699500D01*
X143605354Y-117699500D01*
X143572897Y-117706398D01*
X143420197Y-117738855D01*
X143420192Y-117738857D01*
X143247270Y-117815848D01*
X143247265Y-117815851D01*
X143094129Y-117927111D01*
X142967466Y-118067785D01*
X142872821Y-118231715D01*
X142872818Y-118231722D01*
X142814327Y-118411740D01*
X142814326Y-118411744D01*
X142794540Y-118600000D01*
X128656659Y-118600000D01*
X128633557Y-118578565D01*
X128438259Y-118445413D01*
X128409042Y-118425493D01*
X128409039Y-118425492D01*
X128409037Y-118425490D01*
X128164221Y-118307593D01*
X127904563Y-118227499D01*
X127904557Y-118227497D01*
X127635873Y-118187000D01*
X127635866Y-118187000D01*
X127364134Y-118187000D01*
X127364126Y-118187000D01*
X127095442Y-118227497D01*
X127095436Y-118227499D01*
X126835778Y-118307593D01*
X126590962Y-118425490D01*
X126366442Y-118578565D01*
X126167253Y-118763384D01*
X125997829Y-118975837D01*
X125861963Y-119211160D01*
X125861960Y-119211168D01*
X125762690Y-119464104D01*
X125762685Y-119464121D01*
X125702221Y-119729030D01*
X125681916Y-119999995D01*
X125681916Y-120000004D01*
X123775000Y-120000004D01*
X123775000Y-119913820D01*
X123742414Y-119750000D01*
X124712500Y-119750000D01*
X124712500Y-118639672D01*
X124712499Y-118639655D01*
X124706098Y-118580127D01*
X124706096Y-118580120D01*
X124655854Y-118445413D01*
X124655850Y-118445406D01*
X124569690Y-118330312D01*
X124569687Y-118330309D01*
X124454593Y-118244149D01*
X124454586Y-118244145D01*
X124319879Y-118193903D01*
X124319872Y-118193901D01*
X124260344Y-118187500D01*
X123150000Y-118187500D01*
X123150000Y-119157586D01*
X122986180Y-119125000D01*
X122813820Y-119125000D01*
X122650000Y-119157586D01*
X122650000Y-118187500D01*
X121539655Y-118187500D01*
X121480127Y-118193901D01*
X121480120Y-118193903D01*
X121345413Y-118244145D01*
X121345406Y-118244149D01*
X121230312Y-118330309D01*
X121230309Y-118330312D01*
X121144149Y-118445406D01*
X121144145Y-118445413D01*
X121093903Y-118580120D01*
X121093901Y-118580127D01*
X121087500Y-118639655D01*
X121087500Y-119750000D01*
X122057586Y-119750000D01*
X122025000Y-119913820D01*
X122025000Y-120086180D01*
X122057586Y-120250000D01*
X121087500Y-120250000D01*
X121087500Y-121360344D01*
X109000000Y-121360344D01*
X109000000Y-115300000D01*
X139494540Y-115300000D01*
X139514326Y-115488256D01*
X139514327Y-115488259D01*
X139572818Y-115668277D01*
X139572821Y-115668284D01*
X139667467Y-115832216D01*
X139757506Y-115932214D01*
X139794129Y-115972888D01*
X139947265Y-116084148D01*
X139947270Y-116084151D01*
X140120192Y-116161142D01*
X140120197Y-116161144D01*
X140305354Y-116200500D01*
X140305355Y-116200500D01*
X140494644Y-116200500D01*
X140494646Y-116200500D01*
X140679803Y-116161144D01*
X140852730Y-116084151D01*
X141005871Y-115972888D01*
X141011598Y-115966528D01*
X141011600Y-115966526D01*
X141071087Y-115929879D01*
X141103748Y-115925500D01*
X150906212Y-115925500D01*
X150973251Y-115945185D01*
X150998360Y-115966526D01*
X151088401Y-116066526D01*
X151094129Y-116072888D01*
X151247265Y-116184148D01*
X151247270Y-116184151D01*
X151420192Y-116261142D01*
X151420197Y-116261144D01*
X151605354Y-116300500D01*
X151605355Y-116300500D01*
X151794644Y-116300500D01*
X151794646Y-116300500D01*
X151979803Y-116261144D01*
X152152730Y-116184151D01*
X152305871Y-116072888D01*
X152432533Y-115932216D01*
X152527179Y-115768284D01*
X152585674Y-115588256D01*
X152605460Y-115400000D01*
X152585674Y-115211744D01*
X152527179Y-115031716D01*
X152432533Y-114867784D01*
X152419370Y-114853165D01*
X152389142Y-114790175D01*
X152397768Y-114720840D01*
X152404126Y-114708212D01*
X152427179Y-114668284D01*
X152485674Y-114488256D01*
X152505460Y-114300000D01*
X152485674Y-114111744D01*
X152427179Y-113931716D01*
X152332533Y-113767784D01*
X152205871Y-113627112D01*
X152205870Y-113627111D01*
X152052734Y-113515851D01*
X152052729Y-113515848D01*
X151879807Y-113438857D01*
X151879802Y-113438855D01*
X151734001Y-113407865D01*
X151694646Y-113399500D01*
X151505354Y-113399500D01*
X151472897Y-113406398D01*
X151320197Y-113438855D01*
X151320192Y-113438857D01*
X151147270Y-113515848D01*
X151147265Y-113515851D01*
X150994130Y-113627110D01*
X150994126Y-113627114D01*
X150988400Y-113633474D01*
X150928913Y-113670121D01*
X150896252Y-113674500D01*
X144003748Y-113674500D01*
X143936709Y-113654815D01*
X143911600Y-113633474D01*
X143905873Y-113627114D01*
X143905869Y-113627110D01*
X143752734Y-113515851D01*
X143752729Y-113515848D01*
X143579807Y-113438857D01*
X143579802Y-113438855D01*
X143434001Y-113407865D01*
X143394646Y-113399500D01*
X143205354Y-113399500D01*
X143172897Y-113406398D01*
X143020197Y-113438855D01*
X143020192Y-113438857D01*
X142847270Y-113515848D01*
X142847265Y-113515851D01*
X142694129Y-113627111D01*
X142567466Y-113767785D01*
X142472821Y-113931715D01*
X142472818Y-113931722D01*
X142428609Y-114067785D01*
X142414326Y-114111744D01*
X142394540Y-114300000D01*
X142414326Y-114488256D01*
X142414327Y-114488259D01*
X142422100Y-114512182D01*
X142424095Y-114582023D01*
X142388015Y-114641856D01*
X142325314Y-114672684D01*
X142304169Y-114674500D01*
X141103748Y-114674500D01*
X141036709Y-114654815D01*
X141011600Y-114633474D01*
X141005873Y-114627114D01*
X141005869Y-114627110D01*
X140852734Y-114515851D01*
X140852729Y-114515848D01*
X140679807Y-114438857D01*
X140679802Y-114438855D01*
X140534001Y-114407865D01*
X140494646Y-114399500D01*
X140305354Y-114399500D01*
X140272897Y-114406398D01*
X140120197Y-114438855D01*
X140120192Y-114438857D01*
X139947270Y-114515848D01*
X139947265Y-114515851D01*
X139794129Y-114627111D01*
X139667466Y-114767785D01*
X139572821Y-114931715D01*
X139572818Y-114931722D01*
X139536572Y-115043277D01*
X139514326Y-115111744D01*
X139494540Y-115300000D01*
X109000000Y-115300000D01*
X109000000Y-112000004D01*
X120985161Y-112000004D01*
X121005488Y-112271260D01*
X121048827Y-112461142D01*
X121066020Y-112536466D01*
X121165402Y-112789685D01*
X121301413Y-113025264D01*
X121438401Y-113197042D01*
X121471020Y-113237945D01*
X121588077Y-113346557D01*
X121670424Y-113422964D01*
X121895181Y-113576200D01*
X122140265Y-113694227D01*
X122400203Y-113774407D01*
X122400204Y-113774407D01*
X122400207Y-113774408D01*
X122669180Y-113814949D01*
X122669185Y-113814949D01*
X122669188Y-113814950D01*
X122669189Y-113814950D01*
X122941211Y-113814950D01*
X122941212Y-113814950D01*
X122941219Y-113814949D01*
X123210192Y-113774408D01*
X123210193Y-113774407D01*
X123210197Y-113774407D01*
X123470135Y-113694227D01*
X123715220Y-113576200D01*
X123939976Y-113422964D01*
X124139383Y-113237941D01*
X124308987Y-113025264D01*
X124444998Y-112789685D01*
X124544380Y-112536466D01*
X124604911Y-112271263D01*
X124625239Y-112000004D01*
X125582561Y-112000004D01*
X125602888Y-112271260D01*
X125646227Y-112461142D01*
X125663420Y-112536466D01*
X125762802Y-112789685D01*
X125898813Y-113025264D01*
X126035801Y-113197042D01*
X126068420Y-113237945D01*
X126185477Y-113346557D01*
X126267824Y-113422964D01*
X126492581Y-113576200D01*
X126737665Y-113694227D01*
X126997603Y-113774407D01*
X126997604Y-113774407D01*
X126997607Y-113774408D01*
X127266580Y-113814949D01*
X127266585Y-113814949D01*
X127266588Y-113814950D01*
X127266589Y-113814950D01*
X127538611Y-113814950D01*
X127538612Y-113814950D01*
X127538619Y-113814949D01*
X127807592Y-113774408D01*
X127807593Y-113774407D01*
X127807597Y-113774407D01*
X128067535Y-113694227D01*
X128312620Y-113576200D01*
X128537376Y-113422964D01*
X128602735Y-113362320D01*
X130185050Y-113362320D01*
X130185051Y-113362326D01*
X130191458Y-113421933D01*
X130241752Y-113556778D01*
X130241756Y-113556785D01*
X130328002Y-113671994D01*
X130328005Y-113671997D01*
X130443214Y-113758243D01*
X130443221Y-113758247D01*
X130578067Y-113808541D01*
X130578066Y-113808541D01*
X130584994Y-113809285D01*
X130637677Y-113814950D01*
X133362322Y-113814949D01*
X133421933Y-113808541D01*
X133556781Y-113758246D01*
X133671996Y-113671996D01*
X133758246Y-113556781D01*
X133808541Y-113421933D01*
X133814950Y-113362323D01*
X133814949Y-110637678D01*
X133808541Y-110578067D01*
X133808156Y-110577036D01*
X133758247Y-110443221D01*
X133758243Y-110443214D01*
X133671997Y-110328005D01*
X133671994Y-110328002D01*
X133556785Y-110241756D01*
X133556778Y-110241752D01*
X133421932Y-110191458D01*
X133421933Y-110191458D01*
X133362333Y-110185051D01*
X133362331Y-110185050D01*
X133362323Y-110185050D01*
X133362314Y-110185050D01*
X130637679Y-110185050D01*
X130637673Y-110185051D01*
X130578066Y-110191458D01*
X130443221Y-110241752D01*
X130443214Y-110241756D01*
X130328005Y-110328002D01*
X130328002Y-110328005D01*
X130241756Y-110443214D01*
X130241752Y-110443221D01*
X130191458Y-110578067D01*
X130187838Y-110611744D01*
X130185051Y-110637673D01*
X130185050Y-110637685D01*
X130185050Y-113362320D01*
X128602735Y-113362320D01*
X128736783Y-113237941D01*
X128906387Y-113025264D01*
X129042398Y-112789685D01*
X129141780Y-112536466D01*
X129202311Y-112271263D01*
X129222639Y-112000000D01*
X129220262Y-111968284D01*
X129202311Y-111728739D01*
X129186882Y-111661142D01*
X129141780Y-111463534D01*
X129042398Y-111210315D01*
X128906387Y-110974736D01*
X128736783Y-110762059D01*
X128736782Y-110762058D01*
X128736779Y-110762054D01*
X128537376Y-110577036D01*
X128324239Y-110431722D01*
X128312620Y-110423800D01*
X128312616Y-110423798D01*
X128312615Y-110423797D01*
X128067535Y-110305773D01*
X127807598Y-110225593D01*
X127807592Y-110225591D01*
X127538619Y-110185050D01*
X127538612Y-110185050D01*
X127266588Y-110185050D01*
X127266580Y-110185050D01*
X126997607Y-110225591D01*
X126997601Y-110225593D01*
X126837241Y-110275057D01*
X126737665Y-110305773D01*
X126737663Y-110305774D01*
X126737659Y-110305775D01*
X126492584Y-110423798D01*
X126492580Y-110423800D01*
X126267826Y-110577034D01*
X126068420Y-110762054D01*
X125898813Y-110974736D01*
X125762803Y-111210312D01*
X125762801Y-111210316D01*
X125663420Y-111463533D01*
X125663418Y-111463540D01*
X125602888Y-111728739D01*
X125582561Y-111999995D01*
X125582561Y-112000004D01*
X124625239Y-112000004D01*
X124625239Y-112000000D01*
X124622862Y-111968284D01*
X124604911Y-111728739D01*
X124589482Y-111661142D01*
X124544380Y-111463534D01*
X124444998Y-111210315D01*
X124308987Y-110974736D01*
X124139383Y-110762059D01*
X124139382Y-110762058D01*
X124139379Y-110762054D01*
X123939976Y-110577036D01*
X123726839Y-110431722D01*
X123715220Y-110423800D01*
X123715216Y-110423798D01*
X123715215Y-110423797D01*
X123470135Y-110305773D01*
X123210198Y-110225593D01*
X123210192Y-110225591D01*
X122941219Y-110185050D01*
X122941212Y-110185050D01*
X122669188Y-110185050D01*
X122669180Y-110185050D01*
X122400207Y-110225591D01*
X122400201Y-110225593D01*
X122239841Y-110275057D01*
X122140265Y-110305773D01*
X122140263Y-110305774D01*
X122140259Y-110305775D01*
X121895184Y-110423798D01*
X121895180Y-110423800D01*
X121670426Y-110577034D01*
X121471020Y-110762054D01*
X121301413Y-110974736D01*
X121165403Y-111210312D01*
X121165401Y-111210316D01*
X121066020Y-111463533D01*
X121066018Y-111463540D01*
X121005488Y-111728739D01*
X120985161Y-111999995D01*
X120985161Y-112000004D01*
X109000000Y-112000004D01*
X109000000Y-108200000D01*
X125494540Y-108200000D01*
X125514326Y-108388256D01*
X125514327Y-108388259D01*
X125572818Y-108568277D01*
X125572821Y-108568284D01*
X125667467Y-108732216D01*
X125757503Y-108832211D01*
X125794129Y-108872888D01*
X125947265Y-108984148D01*
X125947270Y-108984151D01*
X126120192Y-109061142D01*
X126120197Y-109061144D01*
X126305354Y-109100500D01*
X126305355Y-109100500D01*
X126494644Y-109100500D01*
X126494646Y-109100500D01*
X126679803Y-109061144D01*
X126852730Y-108984151D01*
X127005871Y-108872888D01*
X127008788Y-108869647D01*
X127011600Y-108866526D01*
X127071087Y-108829879D01*
X127103748Y-108825500D01*
X127696252Y-108825500D01*
X127763291Y-108845185D01*
X127788400Y-108866526D01*
X127794126Y-108872885D01*
X127794130Y-108872889D01*
X127947265Y-108984148D01*
X127947270Y-108984151D01*
X128120192Y-109061142D01*
X128120197Y-109061144D01*
X128305354Y-109100500D01*
X128305355Y-109100500D01*
X128494644Y-109100500D01*
X128494646Y-109100500D01*
X128679803Y-109061144D01*
X128817133Y-109000000D01*
X138094540Y-109000000D01*
X138114326Y-109188256D01*
X138114327Y-109188259D01*
X138172818Y-109368277D01*
X138172821Y-109368284D01*
X138267467Y-109532216D01*
X138389977Y-109668277D01*
X138394129Y-109672888D01*
X138547265Y-109784148D01*
X138547270Y-109784151D01*
X138720192Y-109861142D01*
X138720197Y-109861144D01*
X138905354Y-109900500D01*
X138905355Y-109900500D01*
X139094644Y-109900500D01*
X139094646Y-109900500D01*
X139279803Y-109861144D01*
X139452730Y-109784151D01*
X139605871Y-109672888D01*
X139732533Y-109532216D01*
X139827179Y-109368284D01*
X139885674Y-109188256D01*
X139905460Y-109000000D01*
X139885674Y-108811744D01*
X139827179Y-108631716D01*
X139732533Y-108467784D01*
X139729881Y-108464839D01*
X139657350Y-108384284D01*
X139627120Y-108321292D01*
X139625500Y-108301312D01*
X139625500Y-106510452D01*
X139645185Y-106443413D01*
X139661819Y-106422771D01*
X139933797Y-106150793D01*
X141935282Y-106150793D01*
X141955068Y-106339049D01*
X141955069Y-106339052D01*
X142013560Y-106519070D01*
X142013563Y-106519077D01*
X142108209Y-106683009D01*
X142224119Y-106811740D01*
X142234871Y-106823681D01*
X142388007Y-106934941D01*
X142388012Y-106934944D01*
X142560934Y-107011935D01*
X142560939Y-107011937D01*
X142746096Y-107051293D01*
X142805290Y-107051293D01*
X142872329Y-107070978D01*
X142892971Y-107087612D01*
X142929513Y-107124154D01*
X142962998Y-107185477D01*
X142958014Y-107255169D01*
X142916142Y-107311102D01*
X142914719Y-107312152D01*
X142894128Y-107327112D01*
X142894123Y-107327116D01*
X142767466Y-107467785D01*
X142672821Y-107631715D01*
X142672818Y-107631722D01*
X142614327Y-107811740D01*
X142614326Y-107811744D01*
X142594540Y-108000000D01*
X142614326Y-108188256D01*
X142614327Y-108188259D01*
X142672818Y-108368277D01*
X142672821Y-108368284D01*
X142728567Y-108464839D01*
X142745040Y-108532740D01*
X142722187Y-108598766D01*
X142698697Y-108622484D01*
X142698953Y-108622769D01*
X142694123Y-108627116D01*
X142567466Y-108767785D01*
X142472821Y-108931715D01*
X142472818Y-108931722D01*
X142427908Y-109069942D01*
X142414326Y-109111744D01*
X142394540Y-109300000D01*
X142414326Y-109488256D01*
X142414327Y-109488259D01*
X142472818Y-109668277D01*
X142472821Y-109668284D01*
X142567467Y-109832216D01*
X142669185Y-109945185D01*
X142694129Y-109972888D01*
X142847265Y-110084148D01*
X142847270Y-110084151D01*
X143020192Y-110161142D01*
X143020197Y-110161144D01*
X143205354Y-110200500D01*
X143205355Y-110200500D01*
X143394644Y-110200500D01*
X143394646Y-110200500D01*
X143579803Y-110161144D01*
X143752730Y-110084151D01*
X143905871Y-109972888D01*
X143908788Y-109969647D01*
X143911600Y-109966526D01*
X143971087Y-109929879D01*
X144003748Y-109925500D01*
X145089548Y-109925500D01*
X145156587Y-109945185D01*
X145177229Y-109961819D01*
X146407071Y-111191661D01*
X146407074Y-111191665D01*
X146407075Y-111191665D01*
X146414141Y-111198731D01*
X146414142Y-111198733D01*
X146501267Y-111285858D01*
X146501268Y-111285859D01*
X146603707Y-111354307D01*
X146603713Y-111354310D01*
X146603714Y-111354311D01*
X146717548Y-111401463D01*
X146744700Y-111406863D01*
X146769194Y-111411736D01*
X146769214Y-111411739D01*
X146769236Y-111411744D01*
X146838391Y-111425499D01*
X146838392Y-111425500D01*
X146838393Y-111425500D01*
X146838394Y-111425500D01*
X147896252Y-111425500D01*
X147963291Y-111445185D01*
X147988400Y-111466526D01*
X147994126Y-111472885D01*
X147994130Y-111472889D01*
X148147265Y-111584148D01*
X148147270Y-111584151D01*
X148320192Y-111661142D01*
X148320197Y-111661144D01*
X148505354Y-111700500D01*
X148505355Y-111700500D01*
X148694644Y-111700500D01*
X148694646Y-111700500D01*
X148879803Y-111661144D01*
X149017133Y-111600000D01*
X149894540Y-111600000D01*
X149914326Y-111788256D01*
X149914327Y-111788259D01*
X149972818Y-111968277D01*
X149972821Y-111968284D01*
X150067467Y-112132216D01*
X150192663Y-112271260D01*
X150194129Y-112272888D01*
X150347265Y-112384148D01*
X150347270Y-112384151D01*
X150520192Y-112461142D01*
X150520197Y-112461144D01*
X150705354Y-112500500D01*
X150705355Y-112500500D01*
X150894644Y-112500500D01*
X150894646Y-112500500D01*
X151079803Y-112461144D01*
X151252730Y-112384151D01*
X151277114Y-112366434D01*
X151342919Y-112342954D01*
X151410973Y-112358778D01*
X151422879Y-112366429D01*
X151447266Y-112384148D01*
X151447269Y-112384150D01*
X151447270Y-112384151D01*
X151620192Y-112461142D01*
X151620197Y-112461144D01*
X151805354Y-112500500D01*
X151805355Y-112500500D01*
X151994644Y-112500500D01*
X151994646Y-112500500D01*
X152179803Y-112461144D01*
X152352730Y-112384151D01*
X152505871Y-112272888D01*
X152632533Y-112132216D01*
X152727179Y-111968284D01*
X152785674Y-111788256D01*
X152805460Y-111600000D01*
X152785674Y-111411744D01*
X152727179Y-111231716D01*
X152632533Y-111067784D01*
X152557350Y-110984284D01*
X152527120Y-110921292D01*
X152525500Y-110901312D01*
X152525500Y-107798687D01*
X152545185Y-107731648D01*
X152557350Y-107715715D01*
X152575891Y-107695122D01*
X152632533Y-107632216D01*
X152727179Y-107468284D01*
X152785674Y-107288256D01*
X152805460Y-107100000D01*
X152785674Y-106911744D01*
X152727179Y-106731716D01*
X152632533Y-106567784D01*
X152505871Y-106427112D01*
X152505870Y-106427111D01*
X152352734Y-106315851D01*
X152352729Y-106315848D01*
X152179807Y-106238857D01*
X152179802Y-106238855D01*
X152034001Y-106207865D01*
X151994646Y-106199500D01*
X151805354Y-106199500D01*
X151755375Y-106210123D01*
X151620199Y-106238855D01*
X151477391Y-106302438D01*
X151408141Y-106311722D01*
X151354070Y-106289476D01*
X151252734Y-106215851D01*
X151252729Y-106215848D01*
X151079807Y-106138857D01*
X151079802Y-106138855D01*
X150934001Y-106107865D01*
X150894646Y-106099500D01*
X150705354Y-106099500D01*
X150672897Y-106106398D01*
X150520197Y-106138855D01*
X150520192Y-106138857D01*
X150347270Y-106215848D01*
X150347265Y-106215851D01*
X150194129Y-106327111D01*
X150067466Y-106467785D01*
X149972821Y-106631715D01*
X149972818Y-106631722D01*
X149918142Y-106800000D01*
X149914326Y-106811744D01*
X149894540Y-107000000D01*
X149914326Y-107188256D01*
X149914327Y-107188259D01*
X149972818Y-107368277D01*
X149972821Y-107368284D01*
X150067467Y-107532216D01*
X150101471Y-107569981D01*
X150142650Y-107615715D01*
X150172880Y-107678706D01*
X150174500Y-107698687D01*
X150174500Y-110901312D01*
X150154815Y-110968351D01*
X150142650Y-110984284D01*
X150067466Y-111067784D01*
X149972821Y-111231715D01*
X149972818Y-111231722D01*
X149914327Y-111411740D01*
X149914326Y-111411744D01*
X149894540Y-111600000D01*
X149017133Y-111600000D01*
X149052730Y-111584151D01*
X149205871Y-111472888D01*
X149332533Y-111332216D01*
X149427179Y-111168284D01*
X149485674Y-110988256D01*
X149505460Y-110800000D01*
X149485674Y-110611744D01*
X149427179Y-110431716D01*
X149354467Y-110305775D01*
X149329284Y-110262156D01*
X149331929Y-110260628D01*
X149312779Y-110207421D01*
X149328417Y-110139323D01*
X149329344Y-110137879D01*
X149329284Y-110137844D01*
X149409599Y-109998733D01*
X149427179Y-109968284D01*
X149485674Y-109788256D01*
X149505460Y-109600000D01*
X149485674Y-109411744D01*
X149427179Y-109231716D01*
X149333779Y-109069942D01*
X149317306Y-109002042D01*
X149340159Y-108936015D01*
X149349003Y-108924985D01*
X149432533Y-108832216D01*
X149527179Y-108668284D01*
X149585674Y-108488256D01*
X149605460Y-108300000D01*
X149585674Y-108111744D01*
X149527179Y-107931716D01*
X149432533Y-107767784D01*
X149311146Y-107632971D01*
X149280917Y-107569981D01*
X149289542Y-107500646D01*
X149311147Y-107467028D01*
X149432533Y-107332216D01*
X149527179Y-107168284D01*
X149585674Y-106988256D01*
X149605460Y-106800000D01*
X149585674Y-106611744D01*
X149527179Y-106431716D01*
X149432533Y-106267784D01*
X149305871Y-106127112D01*
X149305870Y-106127111D01*
X149152734Y-106015851D01*
X149152729Y-106015848D01*
X148979807Y-105938857D01*
X148979802Y-105938855D01*
X148814471Y-105903714D01*
X148794646Y-105899500D01*
X148794645Y-105899500D01*
X148735452Y-105899500D01*
X148668413Y-105879815D01*
X148647771Y-105863181D01*
X148590198Y-105805608D01*
X148590178Y-105805586D01*
X148498735Y-105714143D01*
X148475946Y-105698916D01*
X148430982Y-105668872D01*
X148430983Y-105668872D01*
X148430981Y-105668870D01*
X148396290Y-105645690D01*
X148396286Y-105645688D01*
X148315792Y-105612347D01*
X148282453Y-105598537D01*
X148272427Y-105596543D01*
X148222029Y-105586518D01*
X148161610Y-105574500D01*
X148161607Y-105574500D01*
X148161606Y-105574500D01*
X145561606Y-105574500D01*
X144624940Y-105574500D01*
X144557901Y-105554815D01*
X144512146Y-105502011D01*
X144501620Y-105463465D01*
X144485674Y-105311744D01*
X144427179Y-105131716D01*
X144332533Y-104967784D01*
X144205871Y-104827112D01*
X144205870Y-104827111D01*
X144052734Y-104715851D01*
X144052729Y-104715848D01*
X143879807Y-104638857D01*
X143879802Y-104638855D01*
X143734001Y-104607865D01*
X143694646Y-104599500D01*
X143505354Y-104599500D01*
X143472897Y-104606398D01*
X143320197Y-104638855D01*
X143320192Y-104638857D01*
X143147270Y-104715848D01*
X143147265Y-104715851D01*
X142994129Y-104827111D01*
X142867466Y-104967785D01*
X142772821Y-105131715D01*
X142772818Y-105131723D01*
X142755538Y-105184902D01*
X142716099Y-105242576D01*
X142663390Y-105267871D01*
X142560938Y-105289649D01*
X142560934Y-105289650D01*
X142388012Y-105366641D01*
X142388007Y-105366644D01*
X142234871Y-105477904D01*
X142108208Y-105618578D01*
X142013563Y-105782508D01*
X142013560Y-105782515D01*
X141962762Y-105938856D01*
X141955068Y-105962537D01*
X141935282Y-106150793D01*
X139933797Y-106150793D01*
X142347771Y-103736819D01*
X142409094Y-103703334D01*
X142435452Y-103700500D01*
X142494644Y-103700500D01*
X142494646Y-103700500D01*
X142679803Y-103661144D01*
X142852730Y-103584151D01*
X143005871Y-103472888D01*
X143132533Y-103332216D01*
X143227179Y-103168284D01*
X143285674Y-102988256D01*
X143305460Y-102800000D01*
X143285674Y-102611744D01*
X143227179Y-102431716D01*
X143132533Y-102267784D01*
X143005871Y-102127112D01*
X142973046Y-102103263D01*
X142852734Y-102015851D01*
X142852729Y-102015848D01*
X142679807Y-101938857D01*
X142679802Y-101938855D01*
X142534001Y-101907865D01*
X142494646Y-101899500D01*
X142305354Y-101899500D01*
X142272897Y-101906398D01*
X142120197Y-101938855D01*
X142120192Y-101938857D01*
X141947270Y-102015848D01*
X141947265Y-102015851D01*
X141794129Y-102127111D01*
X141667466Y-102267785D01*
X141572821Y-102431715D01*
X141572818Y-102431722D01*
X141540166Y-102532216D01*
X141514326Y-102611744D01*
X141509909Y-102653769D01*
X141496678Y-102779651D01*
X141470093Y-102844266D01*
X141461038Y-102854370D01*
X138601270Y-105714139D01*
X138514144Y-105801264D01*
X138514138Y-105801272D01*
X138445690Y-105903708D01*
X138445688Y-105903713D01*
X138413294Y-105981921D01*
X138398538Y-106017544D01*
X138398535Y-106017556D01*
X138374500Y-106138389D01*
X138374500Y-108301312D01*
X138354815Y-108368351D01*
X138342650Y-108384284D01*
X138267466Y-108467784D01*
X138172821Y-108631715D01*
X138172818Y-108631722D01*
X138114327Y-108811740D01*
X138114326Y-108811744D01*
X138094540Y-109000000D01*
X128817133Y-109000000D01*
X128852730Y-108984151D01*
X129005871Y-108872888D01*
X129132533Y-108732216D01*
X129227179Y-108568284D01*
X129285674Y-108388256D01*
X129305460Y-108200000D01*
X129285674Y-108011744D01*
X129227179Y-107831716D01*
X129132533Y-107667784D01*
X129005871Y-107527112D01*
X128969444Y-107500646D01*
X128852734Y-107415851D01*
X128852729Y-107415848D01*
X128679807Y-107338857D01*
X128679802Y-107338855D01*
X128515144Y-107303857D01*
X128494646Y-107299500D01*
X128305354Y-107299500D01*
X128305351Y-107299500D01*
X128299156Y-107300817D01*
X128229489Y-107295498D01*
X128173757Y-107253359D01*
X128149655Y-107187778D01*
X128164835Y-107119577D01*
X128214477Y-107070410D01*
X128219568Y-107067811D01*
X128312620Y-107023000D01*
X128537376Y-106869764D01*
X128736783Y-106684741D01*
X128906387Y-106472064D01*
X129042398Y-106236485D01*
X129141780Y-105983266D01*
X129202311Y-105718063D01*
X129220308Y-105477904D01*
X129222639Y-105446804D01*
X130179961Y-105446804D01*
X130200288Y-105718060D01*
X130260818Y-105983259D01*
X130260820Y-105983266D01*
X130352103Y-106215851D01*
X130360202Y-106236485D01*
X130496213Y-106472064D01*
X130533705Y-106519077D01*
X130665820Y-106684745D01*
X130716450Y-106731722D01*
X130865224Y-106869764D01*
X131089981Y-107023000D01*
X131335065Y-107141027D01*
X131595003Y-107221207D01*
X131595004Y-107221207D01*
X131595007Y-107221208D01*
X131863980Y-107261749D01*
X131863985Y-107261749D01*
X131863988Y-107261750D01*
X131863989Y-107261750D01*
X132136011Y-107261750D01*
X132136012Y-107261750D01*
X132136019Y-107261749D01*
X132404992Y-107221208D01*
X132404993Y-107221207D01*
X132404997Y-107221207D01*
X132664935Y-107141027D01*
X132910020Y-107023000D01*
X133134776Y-106869764D01*
X133334183Y-106684741D01*
X133503787Y-106472064D01*
X133639798Y-106236485D01*
X133739180Y-105983266D01*
X133799711Y-105718063D01*
X133817708Y-105477904D01*
X133820039Y-105446804D01*
X133820039Y-105446795D01*
X133799711Y-105175539D01*
X133789710Y-105131723D01*
X133739180Y-104910334D01*
X133639798Y-104657115D01*
X133503787Y-104421536D01*
X133334183Y-104208859D01*
X133334182Y-104208858D01*
X133334179Y-104208854D01*
X133134776Y-104023836D01*
X133097957Y-103998733D01*
X132910020Y-103870600D01*
X132910016Y-103870598D01*
X132910015Y-103870597D01*
X132664935Y-103752573D01*
X132404998Y-103672393D01*
X132404992Y-103672391D01*
X132136019Y-103631850D01*
X132136012Y-103631850D01*
X131863988Y-103631850D01*
X131863980Y-103631850D01*
X131595007Y-103672391D01*
X131595001Y-103672393D01*
X131494694Y-103703334D01*
X131335065Y-103752573D01*
X131335063Y-103752574D01*
X131335059Y-103752575D01*
X131089984Y-103870598D01*
X131089980Y-103870600D01*
X130865226Y-104023834D01*
X130665820Y-104208854D01*
X130496213Y-104421536D01*
X130360203Y-104657112D01*
X130360201Y-104657116D01*
X130260820Y-104910333D01*
X130260818Y-104910340D01*
X130200288Y-105175539D01*
X130179961Y-105446795D01*
X130179961Y-105446804D01*
X129222639Y-105446804D01*
X129222639Y-105446795D01*
X129202311Y-105175539D01*
X129192310Y-105131723D01*
X129141780Y-104910334D01*
X129042398Y-104657115D01*
X128906387Y-104421536D01*
X128736783Y-104208859D01*
X128736782Y-104208858D01*
X128736779Y-104208854D01*
X128537376Y-104023836D01*
X128500557Y-103998733D01*
X128312620Y-103870600D01*
X128312616Y-103870598D01*
X128312615Y-103870597D01*
X128067535Y-103752573D01*
X127807598Y-103672393D01*
X127807592Y-103672391D01*
X127538619Y-103631850D01*
X127538612Y-103631850D01*
X127266588Y-103631850D01*
X127266580Y-103631850D01*
X126997607Y-103672391D01*
X126997601Y-103672393D01*
X126897294Y-103703334D01*
X126737665Y-103752573D01*
X126737663Y-103752574D01*
X126737659Y-103752575D01*
X126492584Y-103870598D01*
X126492580Y-103870600D01*
X126267826Y-104023834D01*
X126068420Y-104208854D01*
X125898813Y-104421536D01*
X125762803Y-104657112D01*
X125762801Y-104657116D01*
X125663420Y-104910333D01*
X125663418Y-104910340D01*
X125602888Y-105175539D01*
X125582561Y-105446795D01*
X125582561Y-105446804D01*
X125602888Y-105718060D01*
X125663418Y-105983259D01*
X125663420Y-105983266D01*
X125754703Y-106215851D01*
X125762802Y-106236485D01*
X125898813Y-106472064D01*
X125936305Y-106519077D01*
X126068420Y-106684745D01*
X126119050Y-106731722D01*
X126267824Y-106869764D01*
X126492581Y-107023000D01*
X126551332Y-107051293D01*
X126589730Y-107069785D01*
X126641590Y-107116608D01*
X126659902Y-107184035D01*
X126638854Y-107250659D01*
X126585127Y-107295327D01*
X126515780Y-107303857D01*
X126510154Y-107302796D01*
X126494646Y-107299500D01*
X126305354Y-107299500D01*
X126284856Y-107303857D01*
X126120197Y-107338855D01*
X126120192Y-107338857D01*
X125947270Y-107415848D01*
X125947265Y-107415851D01*
X125794129Y-107527111D01*
X125667466Y-107667785D01*
X125572821Y-107831715D01*
X125572818Y-107831722D01*
X125518142Y-108000000D01*
X125514326Y-108011744D01*
X125494540Y-108200000D01*
X109000000Y-108200000D01*
X109000000Y-105446804D01*
X120985161Y-105446804D01*
X121005488Y-105718060D01*
X121066018Y-105983259D01*
X121066020Y-105983266D01*
X121157303Y-106215851D01*
X121165402Y-106236485D01*
X121301413Y-106472064D01*
X121338905Y-106519077D01*
X121471020Y-106684745D01*
X121521650Y-106731722D01*
X121670424Y-106869764D01*
X121895181Y-107023000D01*
X122140265Y-107141027D01*
X122400203Y-107221207D01*
X122400204Y-107221207D01*
X122400207Y-107221208D01*
X122669180Y-107261749D01*
X122669185Y-107261749D01*
X122669188Y-107261750D01*
X122669189Y-107261750D01*
X122941211Y-107261750D01*
X122941212Y-107261750D01*
X122941219Y-107261749D01*
X123210192Y-107221208D01*
X123210193Y-107221207D01*
X123210197Y-107221207D01*
X123470135Y-107141027D01*
X123715220Y-107023000D01*
X123939976Y-106869764D01*
X124139383Y-106684741D01*
X124308987Y-106472064D01*
X124444998Y-106236485D01*
X124544380Y-105983266D01*
X124604911Y-105718063D01*
X124622908Y-105477904D01*
X124625239Y-105446804D01*
X124625239Y-105446795D01*
X124604911Y-105175539D01*
X124594910Y-105131723D01*
X124544380Y-104910334D01*
X124444998Y-104657115D01*
X124308987Y-104421536D01*
X124139383Y-104208859D01*
X124139382Y-104208858D01*
X124139379Y-104208854D01*
X123939976Y-104023836D01*
X123903157Y-103998733D01*
X123715220Y-103870600D01*
X123715216Y-103870598D01*
X123715215Y-103870597D01*
X123470135Y-103752573D01*
X123210198Y-103672393D01*
X123210192Y-103672391D01*
X122941219Y-103631850D01*
X122941212Y-103631850D01*
X122669188Y-103631850D01*
X122669180Y-103631850D01*
X122400207Y-103672391D01*
X122400201Y-103672393D01*
X122299894Y-103703334D01*
X122140265Y-103752573D01*
X122140263Y-103752574D01*
X122140259Y-103752575D01*
X121895184Y-103870598D01*
X121895180Y-103870600D01*
X121670426Y-104023834D01*
X121471020Y-104208854D01*
X121301413Y-104421536D01*
X121165403Y-104657112D01*
X121165401Y-104657116D01*
X121066020Y-104910333D01*
X121066018Y-104910340D01*
X121005488Y-105175539D01*
X120985161Y-105446795D01*
X120985161Y-105446804D01*
X109000000Y-105446804D01*
X109000000Y-95600000D01*
X111594540Y-95600000D01*
X111614326Y-95788256D01*
X111614327Y-95788259D01*
X111672818Y-95968277D01*
X111672821Y-95968284D01*
X111767467Y-96132216D01*
X111857063Y-96231722D01*
X111894129Y-96272888D01*
X112047265Y-96384148D01*
X112047270Y-96384151D01*
X112220191Y-96461142D01*
X112220193Y-96461142D01*
X112220197Y-96461144D01*
X112285329Y-96474987D01*
X112346809Y-96508178D01*
X112347228Y-96508596D01*
X114513181Y-98674549D01*
X114546666Y-98735872D01*
X114549500Y-98762230D01*
X114549500Y-102465677D01*
X114532887Y-102527677D01*
X114472821Y-102631714D01*
X114418142Y-102800000D01*
X114414326Y-102811744D01*
X114394540Y-103000000D01*
X114414326Y-103188256D01*
X114414327Y-103188259D01*
X114472818Y-103368277D01*
X114472821Y-103368284D01*
X114567467Y-103532216D01*
X114693683Y-103672393D01*
X114694129Y-103672888D01*
X114847265Y-103784148D01*
X114847270Y-103784151D01*
X115020192Y-103861142D01*
X115020197Y-103861144D01*
X115205354Y-103900500D01*
X115205355Y-103900500D01*
X115394644Y-103900500D01*
X115394646Y-103900500D01*
X115579803Y-103861144D01*
X115752730Y-103784151D01*
X115905871Y-103672888D01*
X116032533Y-103532216D01*
X116127179Y-103368284D01*
X116185674Y-103188256D01*
X116205460Y-103000000D01*
X116185674Y-102811744D01*
X116127179Y-102631716D01*
X116115646Y-102611740D01*
X116067113Y-102527677D01*
X116050500Y-102465677D01*
X116050500Y-101078004D01*
X120985161Y-101078004D01*
X121005488Y-101349260D01*
X121066018Y-101614459D01*
X121066020Y-101614466D01*
X121160253Y-101854567D01*
X121165402Y-101867685D01*
X121301413Y-102103264D01*
X121432613Y-102267784D01*
X121471020Y-102315945D01*
X121527429Y-102368284D01*
X121670424Y-102500964D01*
X121895181Y-102654200D01*
X122140265Y-102772227D01*
X122400203Y-102852407D01*
X122400204Y-102852407D01*
X122400207Y-102852408D01*
X122669180Y-102892949D01*
X122669185Y-102892949D01*
X122669188Y-102892950D01*
X122669189Y-102892950D01*
X122941211Y-102892950D01*
X122941212Y-102892950D01*
X122941219Y-102892949D01*
X123210192Y-102852408D01*
X123210193Y-102852407D01*
X123210197Y-102852407D01*
X123470135Y-102772227D01*
X123715220Y-102654200D01*
X123939976Y-102500964D01*
X124139383Y-102315941D01*
X124308987Y-102103264D01*
X124444998Y-101867685D01*
X124544380Y-101614466D01*
X124604911Y-101349263D01*
X124619008Y-101161144D01*
X124625239Y-101078004D01*
X125583062Y-101078004D01*
X125603384Y-101349185D01*
X125663896Y-101614306D01*
X125663901Y-101614323D01*
X125763253Y-101867468D01*
X125899226Y-102102980D01*
X125899233Y-102102991D01*
X125954612Y-102172432D01*
X125954613Y-102172433D01*
X126629209Y-101497837D01*
X126721933Y-101636609D01*
X126843991Y-101758667D01*
X126982761Y-101851390D01*
X126307049Y-102527101D01*
X126492837Y-102653769D01*
X126492838Y-102653770D01*
X126737845Y-102771758D01*
X126737843Y-102771758D01*
X126997706Y-102851915D01*
X126997712Y-102851916D01*
X127266620Y-102892449D01*
X127266627Y-102892450D01*
X127538573Y-102892450D01*
X127538579Y-102892449D01*
X127807487Y-102851916D01*
X127807493Y-102851915D01*
X128067355Y-102771758D01*
X128312368Y-102653766D01*
X128312371Y-102653765D01*
X128498149Y-102527101D01*
X127822437Y-101851390D01*
X127961209Y-101758667D01*
X128083267Y-101636609D01*
X128175990Y-101497837D01*
X128850585Y-102172433D01*
X128850585Y-102172432D01*
X128905975Y-102102978D01*
X129041946Y-101867468D01*
X129141298Y-101614323D01*
X129141303Y-101614306D01*
X129201815Y-101349185D01*
X129222138Y-101078004D01*
X130179961Y-101078004D01*
X130200288Y-101349260D01*
X130260818Y-101614459D01*
X130260820Y-101614466D01*
X130355053Y-101854567D01*
X130360202Y-101867685D01*
X130496213Y-102103264D01*
X130627413Y-102267784D01*
X130665820Y-102315945D01*
X130722229Y-102368284D01*
X130865224Y-102500964D01*
X131089981Y-102654200D01*
X131335065Y-102772227D01*
X131595003Y-102852407D01*
X131595004Y-102852407D01*
X131595007Y-102852408D01*
X131863980Y-102892949D01*
X131863985Y-102892949D01*
X131863988Y-102892950D01*
X131863989Y-102892950D01*
X132136011Y-102892950D01*
X132136012Y-102892950D01*
X132136019Y-102892949D01*
X132404992Y-102852408D01*
X132404993Y-102852407D01*
X132404997Y-102852407D01*
X132664935Y-102772227D01*
X132910020Y-102654200D01*
X133134776Y-102500964D01*
X133334183Y-102315941D01*
X133503787Y-102103264D01*
X133639798Y-101867685D01*
X133739180Y-101614466D01*
X133799711Y-101349263D01*
X133813808Y-101161144D01*
X133820039Y-101078004D01*
X133820039Y-101077995D01*
X133799711Y-100806739D01*
X133780928Y-100724447D01*
X133739180Y-100541534D01*
X133639798Y-100288315D01*
X133503787Y-100052736D01*
X133334183Y-99840059D01*
X133334182Y-99840058D01*
X133334179Y-99840054D01*
X133134776Y-99655036D01*
X133096437Y-99628897D01*
X132910020Y-99501800D01*
X132910016Y-99501798D01*
X132910015Y-99501797D01*
X132664935Y-99383773D01*
X132404998Y-99303593D01*
X132404992Y-99303591D01*
X132136019Y-99263050D01*
X132136012Y-99263050D01*
X131863988Y-99263050D01*
X131863980Y-99263050D01*
X131595007Y-99303591D01*
X131595001Y-99303593D01*
X131434641Y-99353057D01*
X131335065Y-99383773D01*
X131335063Y-99383774D01*
X131335059Y-99383775D01*
X131089984Y-99501798D01*
X131089980Y-99501800D01*
X130865226Y-99655034D01*
X130665820Y-99840054D01*
X130496213Y-100052736D01*
X130360203Y-100288312D01*
X130360201Y-100288316D01*
X130260820Y-100541533D01*
X130260818Y-100541540D01*
X130200288Y-100806739D01*
X130179961Y-101077995D01*
X130179961Y-101078004D01*
X129222138Y-101078004D01*
X129222138Y-101077995D01*
X129201815Y-100806814D01*
X129141303Y-100541693D01*
X129141298Y-100541676D01*
X129041946Y-100288531D01*
X128905973Y-100053019D01*
X128905966Y-100053008D01*
X128850586Y-99983566D01*
X128850585Y-99983565D01*
X128175989Y-100658161D01*
X128083267Y-100519391D01*
X127961209Y-100397333D01*
X127822437Y-100304609D01*
X128498149Y-99628897D01*
X128312362Y-99502230D01*
X128312361Y-99502229D01*
X128067354Y-99384241D01*
X128067356Y-99384241D01*
X127807493Y-99304084D01*
X127807487Y-99304083D01*
X127538579Y-99263550D01*
X127266620Y-99263550D01*
X126997712Y-99304083D01*
X126997706Y-99304084D01*
X126737844Y-99384241D01*
X126492838Y-99502229D01*
X126492830Y-99502234D01*
X126307049Y-99628897D01*
X126982762Y-100304609D01*
X126843991Y-100397333D01*
X126721933Y-100519391D01*
X126629209Y-100658162D01*
X125954612Y-99983565D01*
X125899229Y-100053014D01*
X125763253Y-100288531D01*
X125663901Y-100541676D01*
X125663896Y-100541693D01*
X125603384Y-100806814D01*
X125583062Y-101077995D01*
X125583062Y-101078004D01*
X124625239Y-101078004D01*
X124625239Y-101077995D01*
X124604911Y-100806739D01*
X124586128Y-100724447D01*
X124544380Y-100541534D01*
X124444998Y-100288315D01*
X124308987Y-100052736D01*
X124139383Y-99840059D01*
X124139382Y-99840058D01*
X124139379Y-99840054D01*
X123939976Y-99655036D01*
X123901637Y-99628897D01*
X123715220Y-99501800D01*
X123715216Y-99501798D01*
X123715215Y-99501797D01*
X123470135Y-99383773D01*
X123210198Y-99303593D01*
X123210192Y-99303591D01*
X122941219Y-99263050D01*
X122941212Y-99263050D01*
X122669188Y-99263050D01*
X122669180Y-99263050D01*
X122400207Y-99303591D01*
X122400201Y-99303593D01*
X122239841Y-99353057D01*
X122140265Y-99383773D01*
X122140263Y-99383774D01*
X122140259Y-99383775D01*
X121895184Y-99501798D01*
X121895180Y-99501800D01*
X121670426Y-99655034D01*
X121471020Y-99840054D01*
X121301413Y-100052736D01*
X121165403Y-100288312D01*
X121165401Y-100288316D01*
X121066020Y-100541533D01*
X121066018Y-100541540D01*
X121005488Y-100806739D01*
X120985161Y-101077995D01*
X120985161Y-101078004D01*
X116050500Y-101078004D01*
X116050500Y-98326079D01*
X116021659Y-98181092D01*
X116021658Y-98181091D01*
X116021658Y-98181087D01*
X115965084Y-98044505D01*
X115914155Y-97968284D01*
X115890055Y-97932214D01*
X115882954Y-97921586D01*
X113861368Y-95900000D01*
X118669540Y-95900000D01*
X118689326Y-96088256D01*
X118689327Y-96088259D01*
X118747818Y-96268277D01*
X118747821Y-96268284D01*
X118842467Y-96432216D01*
X118938487Y-96538857D01*
X118969129Y-96572888D01*
X119122265Y-96684148D01*
X119122270Y-96684151D01*
X119295192Y-96761142D01*
X119295197Y-96761144D01*
X119480354Y-96800500D01*
X119480355Y-96800500D01*
X119669644Y-96800500D01*
X119669646Y-96800500D01*
X119854803Y-96761144D01*
X120027730Y-96684151D01*
X120180871Y-96572888D01*
X120186598Y-96566528D01*
X120186600Y-96566526D01*
X120246087Y-96529879D01*
X120278748Y-96525500D01*
X123206212Y-96525500D01*
X123273251Y-96545185D01*
X123298360Y-96566526D01*
X123354093Y-96628424D01*
X123394129Y-96672888D01*
X123547265Y-96784148D01*
X123547270Y-96784151D01*
X123720192Y-96861142D01*
X123720197Y-96861144D01*
X123905354Y-96900500D01*
X123905355Y-96900500D01*
X124094644Y-96900500D01*
X124094646Y-96900500D01*
X124279803Y-96861144D01*
X124452730Y-96784151D01*
X124605871Y-96672888D01*
X124732533Y-96532216D01*
X124827179Y-96368284D01*
X124885674Y-96188256D01*
X124905460Y-96000000D01*
X124885674Y-95811744D01*
X124827179Y-95631716D01*
X124732533Y-95467784D01*
X124605871Y-95327112D01*
X124584719Y-95311744D01*
X124452734Y-95215851D01*
X124452729Y-95215848D01*
X124279807Y-95138857D01*
X124279802Y-95138855D01*
X124134001Y-95107865D01*
X124094646Y-95099500D01*
X123905354Y-95099500D01*
X123872897Y-95106398D01*
X123720197Y-95138855D01*
X123720192Y-95138857D01*
X123547270Y-95215848D01*
X123547265Y-95215851D01*
X123499138Y-95250818D01*
X123433331Y-95274298D01*
X123426253Y-95274500D01*
X120278748Y-95274500D01*
X120211709Y-95254815D01*
X120186600Y-95233474D01*
X120180873Y-95227114D01*
X120180869Y-95227110D01*
X120027734Y-95115851D01*
X120027729Y-95115848D01*
X119854807Y-95038857D01*
X119854802Y-95038855D01*
X119709001Y-95007865D01*
X119669646Y-94999500D01*
X119480354Y-94999500D01*
X119447897Y-95006398D01*
X119295197Y-95038855D01*
X119295192Y-95038857D01*
X119122270Y-95115848D01*
X119122265Y-95115851D01*
X118969129Y-95227111D01*
X118842466Y-95367785D01*
X118747821Y-95531715D01*
X118747818Y-95531722D01*
X118689327Y-95711740D01*
X118689326Y-95711744D01*
X118669540Y-95900000D01*
X113861368Y-95900000D01*
X113412770Y-95451402D01*
X113382521Y-95402041D01*
X113344215Y-95284148D01*
X113327181Y-95231721D01*
X113327178Y-95231715D01*
X113324522Y-95227114D01*
X113232533Y-95067784D01*
X113105871Y-94927112D01*
X113105870Y-94927111D01*
X112952734Y-94815851D01*
X112952729Y-94815848D01*
X112779807Y-94738857D01*
X112779802Y-94738855D01*
X112634001Y-94707865D01*
X112594646Y-94699500D01*
X112405354Y-94699500D01*
X112372897Y-94706398D01*
X112220197Y-94738855D01*
X112220192Y-94738857D01*
X112047270Y-94815848D01*
X112047265Y-94815851D01*
X111894129Y-94927111D01*
X111767466Y-95067785D01*
X111672821Y-95231715D01*
X111672818Y-95231722D01*
X111628609Y-95367785D01*
X111614326Y-95411744D01*
X111594540Y-95600000D01*
X109000000Y-95600000D01*
X109000000Y-89900000D01*
X114094540Y-89900000D01*
X114114326Y-90088256D01*
X114114327Y-90088259D01*
X114172818Y-90268277D01*
X114172821Y-90268284D01*
X114267467Y-90432216D01*
X114384922Y-90562663D01*
X114394129Y-90572888D01*
X114547265Y-90684148D01*
X114547270Y-90684151D01*
X114720192Y-90761142D01*
X114720197Y-90761144D01*
X114905354Y-90800500D01*
X114905355Y-90800500D01*
X115094644Y-90800500D01*
X115094646Y-90800500D01*
X115279803Y-90761144D01*
X115452730Y-90684151D01*
X115454776Y-90682664D01*
X115466452Y-90674182D01*
X115532258Y-90650702D01*
X115539337Y-90650500D01*
X115937770Y-90650500D01*
X116004809Y-90670185D01*
X116025451Y-90686819D01*
X116632262Y-91293630D01*
X116665747Y-91354953D01*
X116660763Y-91424645D01*
X116618891Y-91480578D01*
X116595018Y-91494590D01*
X116547267Y-91515850D01*
X116547265Y-91515851D01*
X116394129Y-91627111D01*
X116267466Y-91767785D01*
X116172821Y-91931715D01*
X116172818Y-91931722D01*
X116118142Y-92100000D01*
X116114326Y-92111744D01*
X116094540Y-92300000D01*
X116114326Y-92488256D01*
X116114327Y-92488259D01*
X116172818Y-92668277D01*
X116172821Y-92668284D01*
X116267467Y-92832216D01*
X116283030Y-92849500D01*
X116342650Y-92915715D01*
X116372880Y-92978706D01*
X116374500Y-92998687D01*
X116374500Y-94201312D01*
X116354815Y-94268351D01*
X116342650Y-94284284D01*
X116267466Y-94367784D01*
X116172821Y-94531715D01*
X116172818Y-94531722D01*
X116118304Y-94699500D01*
X116114326Y-94711744D01*
X116094540Y-94900000D01*
X116114326Y-95088256D01*
X116114327Y-95088259D01*
X116172818Y-95268277D01*
X116172821Y-95268284D01*
X116267467Y-95432216D01*
X116357063Y-95531722D01*
X116394129Y-95572888D01*
X116547265Y-95684148D01*
X116547270Y-95684151D01*
X116720192Y-95761142D01*
X116720197Y-95761144D01*
X116905354Y-95800500D01*
X116905355Y-95800500D01*
X117094644Y-95800500D01*
X117094646Y-95800500D01*
X117279803Y-95761144D01*
X117452730Y-95684151D01*
X117605871Y-95572888D01*
X117732533Y-95432216D01*
X117827179Y-95268284D01*
X117885674Y-95088256D01*
X117905460Y-94900000D01*
X117885674Y-94711744D01*
X117827179Y-94531716D01*
X117732533Y-94367784D01*
X117720401Y-94354310D01*
X117657350Y-94284284D01*
X117627120Y-94221292D01*
X117625500Y-94201312D01*
X117625500Y-92998687D01*
X117645185Y-92931648D01*
X117657350Y-92915715D01*
X117716970Y-92849500D01*
X117732533Y-92832216D01*
X117812168Y-92694282D01*
X117862733Y-92646069D01*
X117931340Y-92632845D01*
X117996205Y-92658813D01*
X118007235Y-92668603D01*
X118870348Y-93531715D01*
X119717049Y-94378416D01*
X119770348Y-94431715D01*
X119821585Y-94482952D01*
X119944498Y-94565080D01*
X119944511Y-94565087D01*
X120057152Y-94611744D01*
X120081087Y-94621658D01*
X120081091Y-94621658D01*
X120081092Y-94621659D01*
X120226079Y-94650500D01*
X120226082Y-94650500D01*
X123960663Y-94650500D01*
X124027702Y-94670185D01*
X124033548Y-94674182D01*
X124047265Y-94684148D01*
X124047270Y-94684151D01*
X124220192Y-94761142D01*
X124220197Y-94761144D01*
X124405354Y-94800500D01*
X124405355Y-94800500D01*
X124594644Y-94800500D01*
X124594646Y-94800500D01*
X124779803Y-94761144D01*
X124952730Y-94684151D01*
X125105871Y-94572888D01*
X125232533Y-94432216D01*
X125327179Y-94268284D01*
X125385674Y-94088256D01*
X125405460Y-93900000D01*
X125385674Y-93711744D01*
X125327179Y-93531716D01*
X125232533Y-93367784D01*
X125105871Y-93227112D01*
X125066541Y-93198537D01*
X124952734Y-93115851D01*
X124952729Y-93115848D01*
X124779807Y-93038857D01*
X124779802Y-93038855D01*
X124634001Y-93007865D01*
X124594646Y-92999500D01*
X124405354Y-92999500D01*
X124372897Y-93006398D01*
X124220197Y-93038855D01*
X124220192Y-93038857D01*
X124047270Y-93115848D01*
X124047265Y-93115851D01*
X124033548Y-93125818D01*
X123967742Y-93149298D01*
X123960663Y-93149500D01*
X120662229Y-93149500D01*
X120595190Y-93129815D01*
X120574548Y-93113181D01*
X119561368Y-92100000D01*
X133994540Y-92100000D01*
X134014326Y-92288256D01*
X134014327Y-92288259D01*
X134072818Y-92468277D01*
X134072821Y-92468284D01*
X134167467Y-92632216D01*
X134269185Y-92745185D01*
X134294129Y-92772888D01*
X134447265Y-92884148D01*
X134447270Y-92884151D01*
X134620192Y-92961142D01*
X134620197Y-92961144D01*
X134805354Y-93000500D01*
X134805355Y-93000500D01*
X134994644Y-93000500D01*
X134994646Y-93000500D01*
X135179803Y-92961144D01*
X135352730Y-92884151D01*
X135505871Y-92772888D01*
X135508788Y-92769647D01*
X135511600Y-92766526D01*
X135571087Y-92729879D01*
X135603748Y-92725500D01*
X139350500Y-92725500D01*
X139417539Y-92745185D01*
X139463294Y-92797989D01*
X139474500Y-92849500D01*
X139474500Y-96761607D01*
X139475097Y-96767669D01*
X139473413Y-96767834D01*
X139467906Y-96829363D01*
X139425041Y-96884539D01*
X139378298Y-96905250D01*
X139220197Y-96938855D01*
X139139393Y-96974832D01*
X139070143Y-96984116D01*
X139016072Y-96961870D01*
X138952729Y-96915848D01*
X138779807Y-96838857D01*
X138779802Y-96838855D01*
X138634001Y-96807865D01*
X138594646Y-96799500D01*
X138405354Y-96799500D01*
X138372897Y-96806398D01*
X138220197Y-96838855D01*
X138139393Y-96874832D01*
X138070143Y-96884116D01*
X138016072Y-96861870D01*
X138015707Y-96861605D01*
X137980818Y-96836256D01*
X137952729Y-96815848D01*
X137779807Y-96738857D01*
X137779802Y-96738855D01*
X137622493Y-96705419D01*
X137594646Y-96699500D01*
X137405354Y-96699500D01*
X137377507Y-96705419D01*
X137220197Y-96738855D01*
X137220195Y-96738856D01*
X137152087Y-96769180D01*
X137082837Y-96778464D01*
X137028767Y-96756218D01*
X136958848Y-96705419D01*
X136958843Y-96705416D01*
X136785921Y-96628425D01*
X136785916Y-96628423D01*
X136640115Y-96597433D01*
X136600760Y-96589068D01*
X136411468Y-96589068D01*
X136379011Y-96595966D01*
X136226311Y-96628423D01*
X136226306Y-96628425D01*
X136070811Y-96697657D01*
X136001561Y-96706942D01*
X135947491Y-96684697D01*
X135876115Y-96632839D01*
X135852729Y-96615848D01*
X135679807Y-96538857D01*
X135679802Y-96538855D01*
X135534001Y-96507865D01*
X135494646Y-96499500D01*
X135305354Y-96499500D01*
X135272897Y-96506398D01*
X135120197Y-96538855D01*
X135120192Y-96538857D01*
X134947270Y-96615848D01*
X134947265Y-96615851D01*
X134794129Y-96727111D01*
X134667466Y-96867785D01*
X134572821Y-97031715D01*
X134572818Y-97031722D01*
X134528609Y-97167785D01*
X134514326Y-97211744D01*
X134494540Y-97400000D01*
X134514326Y-97588256D01*
X134514327Y-97588259D01*
X134572818Y-97768277D01*
X134572821Y-97768284D01*
X134667467Y-97932216D01*
X134736008Y-98008338D01*
X134780699Y-98057972D01*
X134803105Y-98093480D01*
X134806010Y-98100494D01*
X134806012Y-98100501D01*
X134806013Y-98100501D01*
X134845688Y-98196286D01*
X134873823Y-98238391D01*
X134873824Y-98238394D01*
X134914138Y-98298728D01*
X134914139Y-98298729D01*
X134914142Y-98298733D01*
X135001267Y-98385858D01*
X135001269Y-98385859D01*
X135008335Y-98392925D01*
X135008334Y-98392925D01*
X135008338Y-98392928D01*
X135138181Y-98522771D01*
X135171666Y-98584094D01*
X135174500Y-98610452D01*
X135174500Y-103661611D01*
X135198535Y-103782444D01*
X135198540Y-103782461D01*
X135245685Y-103896281D01*
X135245687Y-103896284D01*
X135278150Y-103944867D01*
X135278151Y-103944869D01*
X135314141Y-103998733D01*
X135314144Y-103998736D01*
X135361038Y-104045629D01*
X135394524Y-104106952D01*
X135396678Y-104120343D01*
X135414326Y-104288256D01*
X135414327Y-104288259D01*
X135472818Y-104468277D01*
X135472821Y-104468284D01*
X135567467Y-104632216D01*
X135690210Y-104768535D01*
X135694129Y-104772888D01*
X135847265Y-104884148D01*
X135847270Y-104884151D01*
X136020192Y-104961142D01*
X136020197Y-104961144D01*
X136205354Y-105000500D01*
X136205355Y-105000500D01*
X136394644Y-105000500D01*
X136394646Y-105000500D01*
X136579803Y-104961144D01*
X136752730Y-104884151D01*
X136905871Y-104772888D01*
X136905875Y-104772884D01*
X136907849Y-104770692D01*
X136909309Y-104769792D01*
X136910706Y-104768535D01*
X136910935Y-104768790D01*
X136967335Y-104734043D01*
X137037192Y-104735372D01*
X137089110Y-104768738D01*
X137089294Y-104768535D01*
X137090539Y-104769656D01*
X137092151Y-104770692D01*
X137094124Y-104772884D01*
X137094130Y-104772889D01*
X137247265Y-104884148D01*
X137247270Y-104884151D01*
X137420192Y-104961142D01*
X137420197Y-104961144D01*
X137605354Y-105000500D01*
X137605355Y-105000500D01*
X137794644Y-105000500D01*
X137794646Y-105000500D01*
X137979803Y-104961144D01*
X138152730Y-104884151D01*
X138305871Y-104772888D01*
X138432533Y-104632216D01*
X138527179Y-104468284D01*
X138549744Y-104398836D01*
X138589181Y-104341160D01*
X138653539Y-104313961D01*
X138667675Y-104313153D01*
X138707297Y-104313153D01*
X138707299Y-104313153D01*
X138892456Y-104273797D01*
X139065383Y-104196804D01*
X139218524Y-104085541D01*
X139345186Y-103944869D01*
X139439832Y-103780937D01*
X139492426Y-103619068D01*
X139531862Y-103561396D01*
X139584572Y-103536100D01*
X139642456Y-103523797D01*
X139642460Y-103523795D01*
X139642461Y-103523795D01*
X139756798Y-103472888D01*
X139815383Y-103446804D01*
X139968524Y-103335541D01*
X140095186Y-103194869D01*
X140189832Y-103030937D01*
X140205459Y-102982841D01*
X140244895Y-102925166D01*
X140297602Y-102899871D01*
X140479803Y-102861144D01*
X140479807Y-102861142D01*
X140479808Y-102861142D01*
X140574717Y-102818885D01*
X140652730Y-102784151D01*
X140805871Y-102672888D01*
X140932533Y-102532216D01*
X141027179Y-102368284D01*
X141085674Y-102188256D01*
X141105460Y-102000000D01*
X141085674Y-101811744D01*
X141027179Y-101631716D01*
X140932533Y-101467784D01*
X140805871Y-101327112D01*
X140805870Y-101327111D01*
X140652734Y-101215851D01*
X140652729Y-101215848D01*
X140479807Y-101138857D01*
X140479802Y-101138855D01*
X140334001Y-101107865D01*
X140294646Y-101099500D01*
X140294645Y-101099500D01*
X140235452Y-101099500D01*
X140168413Y-101079815D01*
X140147776Y-101063185D01*
X140011817Y-100927226D01*
X139978334Y-100865905D01*
X139975500Y-100839547D01*
X139975500Y-100556202D01*
X139995185Y-100489163D01*
X140047989Y-100443408D01*
X140117147Y-100433464D01*
X140149929Y-100442920D01*
X140270197Y-100496468D01*
X140455354Y-100535824D01*
X140455355Y-100535824D01*
X140644644Y-100535824D01*
X140644646Y-100535824D01*
X140829803Y-100496468D01*
X141002730Y-100419475D01*
X141155871Y-100308212D01*
X141161975Y-100301433D01*
X141193404Y-100266528D01*
X141252890Y-100229879D01*
X141285554Y-100225500D01*
X141296252Y-100225500D01*
X141363291Y-100245185D01*
X141388400Y-100266526D01*
X141394126Y-100272885D01*
X141394130Y-100272889D01*
X141547265Y-100384148D01*
X141547270Y-100384151D01*
X141720192Y-100461142D01*
X141720197Y-100461144D01*
X141905354Y-100500500D01*
X141905355Y-100500500D01*
X142028212Y-100500500D01*
X142095251Y-100520185D01*
X142141006Y-100572989D01*
X142146143Y-100586181D01*
X142172819Y-100668280D01*
X142172821Y-100668284D01*
X142267467Y-100832216D01*
X142394129Y-100972888D01*
X142547265Y-101084148D01*
X142547270Y-101084151D01*
X142720192Y-101161142D01*
X142720197Y-101161144D01*
X142905354Y-101200500D01*
X142905355Y-101200500D01*
X143094644Y-101200500D01*
X143094646Y-101200500D01*
X143279803Y-101161144D01*
X143452730Y-101084151D01*
X143605871Y-100972888D01*
X143732533Y-100832216D01*
X143827179Y-100668284D01*
X143885674Y-100488256D01*
X143905460Y-100300000D01*
X143885674Y-100111744D01*
X143827179Y-99931716D01*
X143732533Y-99767784D01*
X143657350Y-99684284D01*
X143627120Y-99621292D01*
X143625500Y-99601312D01*
X143625500Y-99325000D01*
X157594540Y-99325000D01*
X157614326Y-99513256D01*
X157614327Y-99513259D01*
X157672818Y-99693277D01*
X157672821Y-99693284D01*
X157767467Y-99857216D01*
X157881233Y-99983566D01*
X157894129Y-99997888D01*
X158047265Y-100109148D01*
X158047270Y-100109151D01*
X158220192Y-100186142D01*
X158220197Y-100186144D01*
X158405354Y-100225500D01*
X158405355Y-100225500D01*
X158594644Y-100225500D01*
X158594646Y-100225500D01*
X158779803Y-100186144D01*
X158949566Y-100110559D01*
X159018813Y-100101275D01*
X159050430Y-100110557D01*
X159220197Y-100186144D01*
X159405354Y-100225500D01*
X159405355Y-100225500D01*
X159594644Y-100225500D01*
X159594646Y-100225500D01*
X159779803Y-100186144D01*
X159952730Y-100109151D01*
X160105871Y-99997888D01*
X160232533Y-99857216D01*
X160327179Y-99693284D01*
X160385674Y-99513256D01*
X160403321Y-99345346D01*
X160429904Y-99280735D01*
X160438948Y-99270641D01*
X160485858Y-99223733D01*
X160516584Y-99177746D01*
X160537254Y-99146813D01*
X160537256Y-99146810D01*
X160544106Y-99136557D01*
X160554312Y-99121285D01*
X160581938Y-99054590D01*
X160601463Y-99007452D01*
X160625500Y-98886606D01*
X160625500Y-98398687D01*
X160645185Y-98331648D01*
X160657350Y-98315715D01*
X160675891Y-98295122D01*
X160732533Y-98232216D01*
X160827179Y-98068284D01*
X160885674Y-97888256D01*
X160905460Y-97700000D01*
X160885674Y-97511744D01*
X160827179Y-97331716D01*
X160732533Y-97167784D01*
X160605871Y-97027112D01*
X160605870Y-97027111D01*
X160452734Y-96915851D01*
X160452729Y-96915848D01*
X160279807Y-96838857D01*
X160279802Y-96838855D01*
X160134001Y-96807865D01*
X160094646Y-96799500D01*
X159905354Y-96799500D01*
X159872897Y-96806398D01*
X159720197Y-96838855D01*
X159720192Y-96838857D01*
X159547270Y-96915848D01*
X159547265Y-96915851D01*
X159394129Y-97027111D01*
X159394128Y-97027112D01*
X159341649Y-97085396D01*
X159282162Y-97122044D01*
X159212305Y-97120713D01*
X159154257Y-97081826D01*
X159126448Y-97017729D01*
X159125500Y-97002423D01*
X159125500Y-96600000D01*
X168594540Y-96600000D01*
X168614326Y-96788256D01*
X168614327Y-96788259D01*
X168672818Y-96968277D01*
X168672821Y-96968284D01*
X168767467Y-97132216D01*
X168799493Y-97167784D01*
X168894129Y-97272888D01*
X169047265Y-97384148D01*
X169047270Y-97384151D01*
X169220192Y-97461142D01*
X169220197Y-97461144D01*
X169405354Y-97500500D01*
X169405355Y-97500500D01*
X169594644Y-97500500D01*
X169594646Y-97500500D01*
X169779803Y-97461144D01*
X169952730Y-97384151D01*
X170105871Y-97272888D01*
X170232533Y-97132216D01*
X170327179Y-96968284D01*
X170385674Y-96788256D01*
X170405460Y-96600000D01*
X170385674Y-96411744D01*
X170327179Y-96231716D01*
X170232533Y-96067784D01*
X170157350Y-95984284D01*
X170127120Y-95921292D01*
X170125500Y-95901312D01*
X170125500Y-95498687D01*
X170145185Y-95431648D01*
X170157350Y-95415715D01*
X170175891Y-95395122D01*
X170232533Y-95332216D01*
X170327179Y-95168284D01*
X170385674Y-94988256D01*
X170405460Y-94800000D01*
X170385674Y-94611744D01*
X170331112Y-94443823D01*
X170327181Y-94431722D01*
X170327180Y-94431721D01*
X170327179Y-94431716D01*
X170232533Y-94267784D01*
X170105871Y-94127112D01*
X170105870Y-94127111D01*
X169952734Y-94015851D01*
X169952729Y-94015848D01*
X169779807Y-93938857D01*
X169779802Y-93938855D01*
X169634001Y-93907865D01*
X169594646Y-93899500D01*
X169405354Y-93899500D01*
X169372897Y-93906398D01*
X169220197Y-93938855D01*
X169220192Y-93938857D01*
X169047270Y-94015848D01*
X169047265Y-94015851D01*
X168894129Y-94127111D01*
X168767466Y-94267785D01*
X168672821Y-94431715D01*
X168672818Y-94431722D01*
X168618304Y-94599500D01*
X168614326Y-94611744D01*
X168594540Y-94800000D01*
X168614326Y-94988256D01*
X168614327Y-94988259D01*
X168672818Y-95168277D01*
X168672821Y-95168284D01*
X168767467Y-95332216D01*
X168793514Y-95361144D01*
X168842650Y-95415715D01*
X168872880Y-95478706D01*
X168874500Y-95498687D01*
X168874500Y-95901312D01*
X168854815Y-95968351D01*
X168842650Y-95984284D01*
X168767466Y-96067784D01*
X168672821Y-96231715D01*
X168672818Y-96231722D01*
X168621538Y-96389547D01*
X168614326Y-96411744D01*
X168594540Y-96600000D01*
X159125500Y-96600000D01*
X159125500Y-96198687D01*
X159145185Y-96131648D01*
X159157350Y-96115715D01*
X159182074Y-96088256D01*
X159232533Y-96032216D01*
X159327179Y-95868284D01*
X159385674Y-95688256D01*
X159405460Y-95500000D01*
X159385674Y-95311744D01*
X159327179Y-95131716D01*
X159232533Y-94967784D01*
X159105871Y-94827112D01*
X159090369Y-94815849D01*
X158952734Y-94715851D01*
X158952729Y-94715848D01*
X158779807Y-94638857D01*
X158779802Y-94638855D01*
X158634001Y-94607865D01*
X158594646Y-94599500D01*
X158405354Y-94599500D01*
X158372897Y-94606398D01*
X158220197Y-94638855D01*
X158220192Y-94638857D01*
X158047270Y-94715848D01*
X158047265Y-94715851D01*
X157894129Y-94827111D01*
X157767466Y-94967785D01*
X157672821Y-95131715D01*
X157672818Y-95131722D01*
X157617979Y-95300500D01*
X157614326Y-95311744D01*
X157594540Y-95500000D01*
X157614326Y-95688256D01*
X157614327Y-95688259D01*
X157672818Y-95868277D01*
X157672821Y-95868284D01*
X157767467Y-96032216D01*
X157799493Y-96067784D01*
X157842650Y-96115715D01*
X157872880Y-96178706D01*
X157874500Y-96198687D01*
X157874500Y-98626312D01*
X157854815Y-98693351D01*
X157842650Y-98709284D01*
X157767466Y-98792784D01*
X157672821Y-98956715D01*
X157672818Y-98956722D01*
X157619349Y-99121285D01*
X157614326Y-99136744D01*
X157594540Y-99325000D01*
X143625500Y-99325000D01*
X143625500Y-98838393D01*
X143620615Y-98813838D01*
X143620614Y-98813834D01*
X143612727Y-98774180D01*
X143601463Y-98717549D01*
X143593669Y-98698733D01*
X143593668Y-98698730D01*
X143593668Y-98698729D01*
X143554312Y-98603717D01*
X143554311Y-98603714D01*
X143554309Y-98603711D01*
X143554307Y-98603707D01*
X143485859Y-98501268D01*
X143448447Y-98463856D01*
X143398733Y-98414142D01*
X143398731Y-98414141D01*
X143385858Y-98401267D01*
X143385857Y-98401266D01*
X142992927Y-98008337D01*
X142992925Y-98008334D01*
X142992925Y-98008335D01*
X142985859Y-98001269D01*
X142985858Y-98001267D01*
X142898733Y-97914142D01*
X142830982Y-97868872D01*
X142830983Y-97868872D01*
X142830981Y-97868870D01*
X142796290Y-97845690D01*
X142796286Y-97845688D01*
X142715792Y-97812347D01*
X142682453Y-97798537D01*
X142672427Y-97796543D01*
X142622029Y-97786518D01*
X142561610Y-97774500D01*
X142561607Y-97774500D01*
X142561606Y-97774500D01*
X141349500Y-97774500D01*
X141282461Y-97754815D01*
X141236706Y-97702011D01*
X141225500Y-97650500D01*
X141225500Y-97138397D01*
X141225500Y-97138394D01*
X141224243Y-97132076D01*
X141224243Y-97132072D01*
X141201464Y-97017555D01*
X141201463Y-97017548D01*
X141154311Y-96903714D01*
X141126175Y-96861606D01*
X141126175Y-96861605D01*
X141126173Y-96861604D01*
X141085858Y-96801267D01*
X140998733Y-96714142D01*
X140998732Y-96714141D01*
X140761819Y-96477228D01*
X140728334Y-96415905D01*
X140725500Y-96389547D01*
X140725500Y-94500000D01*
X142694540Y-94500000D01*
X142714326Y-94688256D01*
X142714327Y-94688259D01*
X142772818Y-94868277D01*
X142772821Y-94868284D01*
X142867467Y-95032216D01*
X142963487Y-95138857D01*
X142994129Y-95172888D01*
X143147265Y-95284148D01*
X143147270Y-95284151D01*
X143320192Y-95361142D01*
X143320197Y-95361144D01*
X143505354Y-95400500D01*
X143505355Y-95400500D01*
X143694644Y-95400500D01*
X143694646Y-95400500D01*
X143879803Y-95361144D01*
X144052730Y-95284151D01*
X144205871Y-95172888D01*
X144208788Y-95169647D01*
X144211600Y-95166526D01*
X144271087Y-95129879D01*
X144303748Y-95125500D01*
X148396252Y-95125500D01*
X148463291Y-95145185D01*
X148488400Y-95166526D01*
X148494126Y-95172885D01*
X148494130Y-95172889D01*
X148647265Y-95284148D01*
X148647270Y-95284151D01*
X148820192Y-95361142D01*
X148820197Y-95361144D01*
X149005354Y-95400500D01*
X149005355Y-95400500D01*
X149194644Y-95400500D01*
X149194646Y-95400500D01*
X149379803Y-95361144D01*
X149552730Y-95284151D01*
X149705871Y-95172888D01*
X149832533Y-95032216D01*
X149927179Y-94868284D01*
X149985674Y-94688256D01*
X150005460Y-94500000D01*
X149985674Y-94311744D01*
X149927179Y-94131716D01*
X149832533Y-93967784D01*
X149705871Y-93827112D01*
X149705870Y-93827111D01*
X149552734Y-93715851D01*
X149552729Y-93715848D01*
X149379807Y-93638857D01*
X149379802Y-93638855D01*
X149234001Y-93607865D01*
X149194646Y-93599500D01*
X149005354Y-93599500D01*
X148972897Y-93606398D01*
X148820197Y-93638855D01*
X148820192Y-93638857D01*
X148647270Y-93715848D01*
X148647265Y-93715851D01*
X148494130Y-93827110D01*
X148494126Y-93827114D01*
X148488400Y-93833474D01*
X148428913Y-93870121D01*
X148396252Y-93874500D01*
X144303748Y-93874500D01*
X144236709Y-93854815D01*
X144211600Y-93833474D01*
X144205873Y-93827114D01*
X144205869Y-93827110D01*
X144052734Y-93715851D01*
X144052729Y-93715848D01*
X143879807Y-93638857D01*
X143879802Y-93638855D01*
X143734001Y-93607865D01*
X143694646Y-93599500D01*
X143505354Y-93599500D01*
X143472897Y-93606398D01*
X143320197Y-93638855D01*
X143320192Y-93638857D01*
X143147270Y-93715848D01*
X143147265Y-93715851D01*
X142994129Y-93827111D01*
X142867466Y-93967785D01*
X142772821Y-94131715D01*
X142772818Y-94131722D01*
X142722736Y-94285861D01*
X142714326Y-94311744D01*
X142694540Y-94500000D01*
X140725500Y-94500000D01*
X140725500Y-92701069D01*
X140745185Y-92634030D01*
X140780609Y-92597967D01*
X140798733Y-92585858D01*
X140885858Y-92498733D01*
X140885859Y-92498731D01*
X140892925Y-92491665D01*
X140892928Y-92491661D01*
X141748729Y-91635860D01*
X141748733Y-91635858D01*
X141835858Y-91548733D01*
X141904311Y-91446286D01*
X141904312Y-91446285D01*
X141904313Y-91446282D01*
X141904315Y-91446279D01*
X141914672Y-91421272D01*
X141951463Y-91332451D01*
X141959185Y-91293630D01*
X141960374Y-91287655D01*
X141992759Y-91225744D01*
X142053475Y-91191170D01*
X142075532Y-91188599D01*
X142075525Y-91188527D01*
X142081979Y-91187848D01*
X142081991Y-91187847D01*
X142081993Y-91187847D01*
X142267150Y-91148491D01*
X142440077Y-91071498D01*
X142593218Y-90960235D01*
X142719880Y-90819563D01*
X142814526Y-90655631D01*
X142873021Y-90475603D01*
X142892807Y-90287347D01*
X142873021Y-90099091D01*
X142814526Y-89919063D01*
X142719880Y-89755131D01*
X142593218Y-89614459D01*
X142593217Y-89614458D01*
X142440081Y-89503198D01*
X142440076Y-89503195D01*
X142267154Y-89426204D01*
X142267149Y-89426202D01*
X142121348Y-89395212D01*
X142081993Y-89386847D01*
X141892701Y-89386847D01*
X141860244Y-89393745D01*
X141707544Y-89426202D01*
X141707539Y-89426204D01*
X141534617Y-89503195D01*
X141534612Y-89503198D01*
X141381476Y-89614458D01*
X141254813Y-89755132D01*
X141160168Y-89919062D01*
X141160165Y-89919069D01*
X141101674Y-90099087D01*
X141101673Y-90099091D01*
X141096343Y-90149807D01*
X141084025Y-90266998D01*
X141057440Y-90331613D01*
X141048386Y-90341717D01*
X140951270Y-90438833D01*
X140951267Y-90438836D01*
X140886908Y-90503195D01*
X140859834Y-90530269D01*
X140858328Y-90528763D01*
X140808527Y-90562663D01*
X140738682Y-90564510D01*
X140697574Y-90544970D01*
X140640077Y-90503196D01*
X140640076Y-90503195D01*
X140467154Y-90426204D01*
X140467149Y-90426202D01*
X140321348Y-90395212D01*
X140281993Y-90386847D01*
X140281992Y-90386847D01*
X140195499Y-90386847D01*
X140128460Y-90367162D01*
X140126607Y-90365948D01*
X140096290Y-90345690D01*
X140096286Y-90345688D01*
X140062305Y-90331613D01*
X140015792Y-90312347D01*
X139982452Y-90298537D01*
X139982448Y-90298536D01*
X139982444Y-90298535D01*
X139866098Y-90275392D01*
X139866093Y-90275392D01*
X139861609Y-90274500D01*
X139861607Y-90274500D01*
X139861606Y-90274500D01*
X135603748Y-90274500D01*
X135536709Y-90254815D01*
X135511600Y-90233474D01*
X135505873Y-90227114D01*
X135505869Y-90227110D01*
X135352734Y-90115851D01*
X135352729Y-90115848D01*
X135179807Y-90038857D01*
X135179802Y-90038855D01*
X135034001Y-90007865D01*
X134994646Y-89999500D01*
X134805354Y-89999500D01*
X134772897Y-90006398D01*
X134620197Y-90038855D01*
X134620192Y-90038857D01*
X134447270Y-90115848D01*
X134447265Y-90115851D01*
X134294129Y-90227111D01*
X134167466Y-90367785D01*
X134072821Y-90531715D01*
X134072818Y-90531722D01*
X134014327Y-90711740D01*
X134014326Y-90711744D01*
X133994540Y-90900000D01*
X134014326Y-91088256D01*
X134014327Y-91088259D01*
X134072818Y-91268277D01*
X134072821Y-91268284D01*
X134170716Y-91437844D01*
X134168150Y-91439325D01*
X134187250Y-91493098D01*
X134171327Y-91561129D01*
X134170680Y-91562135D01*
X134170716Y-91562156D01*
X134072821Y-91731715D01*
X134072818Y-91731722D01*
X134014327Y-91911740D01*
X134014326Y-91911744D01*
X133994540Y-92100000D01*
X119561368Y-92100000D01*
X116778421Y-89317052D01*
X116778420Y-89317051D01*
X116757891Y-89303334D01*
X116674057Y-89247319D01*
X116655495Y-89234916D01*
X116655491Y-89234914D01*
X116655489Y-89234913D01*
X116571202Y-89200000D01*
X146894540Y-89200000D01*
X146914326Y-89388256D01*
X146914327Y-89388259D01*
X146972818Y-89568277D01*
X146972821Y-89568284D01*
X147067467Y-89732216D01*
X147122914Y-89793796D01*
X147194129Y-89872888D01*
X147347265Y-89984148D01*
X147347270Y-89984151D01*
X147520191Y-90061142D01*
X147520193Y-90061142D01*
X147520197Y-90061144D01*
X147546975Y-90066835D01*
X147608454Y-90100026D01*
X147639124Y-90149807D01*
X147679927Y-90275386D01*
X147679929Y-90275390D01*
X147679930Y-90275393D01*
X147774576Y-90439325D01*
X147885630Y-90562663D01*
X147901238Y-90579997D01*
X148054374Y-90691257D01*
X148054379Y-90691260D01*
X148227301Y-90768251D01*
X148227306Y-90768253D01*
X148412463Y-90807609D01*
X148412464Y-90807609D01*
X148601753Y-90807609D01*
X148601755Y-90807609D01*
X148786912Y-90768253D01*
X148959839Y-90691260D01*
X149112980Y-90579997D01*
X149239642Y-90439325D01*
X149334288Y-90275393D01*
X149392783Y-90095365D01*
X149410430Y-89927453D01*
X149437013Y-89862843D01*
X149446059Y-89852748D01*
X149961990Y-89336819D01*
X150023313Y-89303334D01*
X150049671Y-89300500D01*
X150094644Y-89300500D01*
X150094646Y-89300500D01*
X150279803Y-89261144D01*
X150452730Y-89184151D01*
X150605871Y-89072888D01*
X150732533Y-88932216D01*
X150827179Y-88768284D01*
X150885674Y-88588256D01*
X150905460Y-88400000D01*
X150885674Y-88211744D01*
X150827179Y-88031716D01*
X150732533Y-87867784D01*
X150605871Y-87727112D01*
X150605870Y-87727111D01*
X150452734Y-87615851D01*
X150452729Y-87615848D01*
X150279807Y-87538857D01*
X150279802Y-87538855D01*
X150146400Y-87510500D01*
X150115260Y-87503881D01*
X150053779Y-87470690D01*
X150030656Y-87437212D01*
X150030429Y-87437344D01*
X150028810Y-87434540D01*
X150027756Y-87433014D01*
X150027181Y-87431722D01*
X150027179Y-87431716D01*
X150027173Y-87431705D01*
X149932534Y-87267785D01*
X149869202Y-87197448D01*
X149805871Y-87127112D01*
X149805870Y-87127111D01*
X149652734Y-87015851D01*
X149652729Y-87015848D01*
X149479807Y-86938857D01*
X149479802Y-86938855D01*
X149334001Y-86907865D01*
X149294646Y-86899500D01*
X149105354Y-86899500D01*
X149072897Y-86906398D01*
X148920197Y-86938855D01*
X148920192Y-86938857D01*
X148747270Y-87015848D01*
X148747265Y-87015851D01*
X148594129Y-87127111D01*
X148467466Y-87267785D01*
X148372821Y-87431715D01*
X148372818Y-87431722D01*
X148331434Y-87559090D01*
X148314326Y-87611744D01*
X148306405Y-87687105D01*
X148296678Y-87779651D01*
X148270093Y-87844266D01*
X148261038Y-87854370D01*
X147852229Y-88263181D01*
X147790906Y-88296666D01*
X147764548Y-88299500D01*
X147705354Y-88299500D01*
X147672897Y-88306398D01*
X147520197Y-88338855D01*
X147520192Y-88338857D01*
X147347270Y-88415848D01*
X147347265Y-88415851D01*
X147194129Y-88527111D01*
X147067466Y-88667785D01*
X146972821Y-88831715D01*
X146972818Y-88831722D01*
X146940166Y-88932216D01*
X146914326Y-89011744D01*
X146894540Y-89200000D01*
X116571202Y-89200000D01*
X116518917Y-89178343D01*
X116518907Y-89178340D01*
X116373920Y-89149500D01*
X116373918Y-89149500D01*
X115539337Y-89149500D01*
X115472298Y-89129815D01*
X115466452Y-89125818D01*
X115452734Y-89115851D01*
X115452729Y-89115848D01*
X115279807Y-89038857D01*
X115279802Y-89038855D01*
X115134001Y-89007865D01*
X115094646Y-88999500D01*
X114905354Y-88999500D01*
X114872897Y-89006398D01*
X114720197Y-89038855D01*
X114720192Y-89038857D01*
X114547270Y-89115848D01*
X114547265Y-89115851D01*
X114394129Y-89227111D01*
X114267466Y-89367785D01*
X114172821Y-89531715D01*
X114172818Y-89531722D01*
X114114327Y-89711740D01*
X114114326Y-89711744D01*
X114094540Y-89900000D01*
X109000000Y-89900000D01*
X109000000Y-83000000D01*
X118544453Y-83000000D01*
X118564628Y-83423531D01*
X118624971Y-83843219D01*
X118724934Y-84255274D01*
X118724937Y-84255285D01*
X118863607Y-84655944D01*
X118863613Y-84655960D01*
X118982301Y-84915851D01*
X119039754Y-85041654D01*
X119251758Y-85408857D01*
X119251764Y-85408865D01*
X119497693Y-85754224D01*
X119497702Y-85754234D01*
X119497703Y-85754236D01*
X119535588Y-85797958D01*
X119769827Y-86068284D01*
X119775369Y-86074679D01*
X120082237Y-86367278D01*
X120082246Y-86367285D01*
X120415534Y-86629385D01*
X120579186Y-86734557D01*
X120772227Y-86858617D01*
X121149099Y-87052908D01*
X121149104Y-87052910D01*
X121149106Y-87052911D01*
X121310561Y-87117548D01*
X121542733Y-87210496D01*
X121949565Y-87329952D01*
X122194834Y-87377223D01*
X122345197Y-87406204D01*
X122365910Y-87410196D01*
X122787997Y-87450500D01*
X122788004Y-87450500D01*
X123211996Y-87450500D01*
X123212003Y-87450500D01*
X123634090Y-87410196D01*
X124050435Y-87329952D01*
X124457267Y-87210496D01*
X124850901Y-87052908D01*
X125227774Y-86858617D01*
X125435372Y-86725200D01*
X125584456Y-86629391D01*
X125584459Y-86629389D01*
X125584461Y-86629387D01*
X125584471Y-86629381D01*
X125917763Y-86367278D01*
X126224631Y-86074679D01*
X126502297Y-85754236D01*
X126540919Y-85700000D01*
X126748235Y-85408865D01*
X126748241Y-85408857D01*
X126748242Y-85408854D01*
X126748245Y-85408851D01*
X126960248Y-85041650D01*
X127136387Y-84655960D01*
X127275066Y-84255273D01*
X127304995Y-84131902D01*
X127339930Y-84071394D01*
X127402033Y-84039378D01*
X127471586Y-84046019D01*
X127526507Y-84089210D01*
X127549360Y-84155237D01*
X127549500Y-84161137D01*
X127549500Y-84673918D01*
X127549500Y-84673920D01*
X127549499Y-84673920D01*
X127578340Y-84818907D01*
X127578343Y-84818917D01*
X127634914Y-84955492D01*
X127634915Y-84955494D01*
X127634916Y-84955495D01*
X127652711Y-84982128D01*
X127664318Y-84999498D01*
X127664319Y-84999501D01*
X127717046Y-85078414D01*
X127717052Y-85078421D01*
X128387228Y-85748595D01*
X128417478Y-85797958D01*
X128472818Y-85968277D01*
X128472821Y-85968284D01*
X128567467Y-86132216D01*
X128573030Y-86138394D01*
X128694129Y-86272888D01*
X128847265Y-86384148D01*
X128847270Y-86384151D01*
X129020192Y-86461142D01*
X129020197Y-86461144D01*
X129205354Y-86500500D01*
X129205355Y-86500500D01*
X129394644Y-86500500D01*
X129394646Y-86500500D01*
X129579803Y-86461144D01*
X129752730Y-86384151D01*
X129905871Y-86272888D01*
X130032533Y-86132216D01*
X130127179Y-85968284D01*
X130185674Y-85788256D01*
X130205460Y-85600000D01*
X130185674Y-85411744D01*
X130127179Y-85231716D01*
X130032533Y-85067784D01*
X129905871Y-84927112D01*
X129890369Y-84915849D01*
X129752734Y-84815851D01*
X129752729Y-84815848D01*
X129579807Y-84738857D01*
X129579802Y-84738855D01*
X129514669Y-84725011D01*
X129453187Y-84691818D01*
X129452769Y-84691402D01*
X129086819Y-84325451D01*
X129053334Y-84264128D01*
X129050500Y-84237770D01*
X129050500Y-82934321D01*
X129067113Y-82872321D01*
X129127179Y-82768284D01*
X129185674Y-82588256D01*
X129205460Y-82400000D01*
X129185674Y-82211744D01*
X129127179Y-82031716D01*
X129032533Y-81867784D01*
X128905871Y-81727112D01*
X128905870Y-81727111D01*
X128752734Y-81615851D01*
X128752729Y-81615848D01*
X128579807Y-81538857D01*
X128579802Y-81538855D01*
X128434001Y-81507865D01*
X128394646Y-81499500D01*
X128205354Y-81499500D01*
X128172897Y-81506398D01*
X128020197Y-81538855D01*
X128020192Y-81538857D01*
X127847270Y-81615848D01*
X127847265Y-81615851D01*
X127694129Y-81727111D01*
X127567467Y-81867783D01*
X127537467Y-81919745D01*
X127486899Y-81967960D01*
X127418292Y-81981182D01*
X127353428Y-81955214D01*
X127312900Y-81898300D01*
X127309578Y-81886988D01*
X127275066Y-81744727D01*
X127268969Y-81727112D01*
X127136392Y-81344055D01*
X127136387Y-81344040D01*
X126960248Y-80958350D01*
X126748245Y-80591149D01*
X126748241Y-80591142D01*
X126748235Y-80591134D01*
X126502306Y-80245775D01*
X126502295Y-80245762D01*
X126462642Y-80200000D01*
X130294540Y-80200000D01*
X130314326Y-80388256D01*
X130314327Y-80388259D01*
X130372818Y-80568277D01*
X130372821Y-80568284D01*
X130415679Y-80642517D01*
X130432887Y-80672321D01*
X130449500Y-80734321D01*
X130449500Y-84083850D01*
X130443431Y-84122168D01*
X130421958Y-84188256D01*
X130414326Y-84211744D01*
X130394540Y-84400000D01*
X130414326Y-84588256D01*
X130414327Y-84588259D01*
X130472818Y-84768277D01*
X130472821Y-84768284D01*
X130567467Y-84932216D01*
X130628050Y-84999500D01*
X130694129Y-85072888D01*
X130847265Y-85184148D01*
X130847270Y-85184151D01*
X131020192Y-85261142D01*
X131020197Y-85261144D01*
X131205354Y-85300500D01*
X131205355Y-85300500D01*
X131394644Y-85300500D01*
X131394646Y-85300500D01*
X131579803Y-85261144D01*
X131752730Y-85184151D01*
X131905871Y-85072888D01*
X132032533Y-84932216D01*
X132127179Y-84768284D01*
X132185674Y-84588256D01*
X132205460Y-84400000D01*
X132185674Y-84211744D01*
X132127179Y-84031716D01*
X132032533Y-83867784D01*
X131982350Y-83812050D01*
X131952120Y-83749058D01*
X131950500Y-83729078D01*
X131950500Y-82297870D01*
X135249500Y-82297870D01*
X135249501Y-82297876D01*
X135255908Y-82357483D01*
X135306202Y-82492328D01*
X135306206Y-82492335D01*
X135392452Y-82607544D01*
X135392455Y-82607547D01*
X135507664Y-82693793D01*
X135507671Y-82693797D01*
X135642517Y-82744091D01*
X135642516Y-82744091D01*
X135649444Y-82744835D01*
X135702127Y-82750500D01*
X137297872Y-82750499D01*
X137357483Y-82744091D01*
X137492331Y-82693796D01*
X137607546Y-82607546D01*
X137693796Y-82492331D01*
X137744091Y-82357483D01*
X137750500Y-82297873D01*
X137750500Y-81944110D01*
X142274500Y-81944110D01*
X142298535Y-82064944D01*
X142298538Y-82064954D01*
X142312347Y-82098292D01*
X142312347Y-82098293D01*
X142345686Y-82178782D01*
X142345688Y-82178786D01*
X142347214Y-82181069D01*
X142347220Y-82181090D01*
X142347226Y-82181087D01*
X142414141Y-82281232D01*
X142414144Y-82281236D01*
X142505586Y-82372678D01*
X142505608Y-82372698D01*
X143138181Y-83005271D01*
X143171666Y-83066594D01*
X143174500Y-83092952D01*
X143174500Y-83295812D01*
X143154815Y-83362851D01*
X143142650Y-83378784D01*
X143067466Y-83462284D01*
X142972821Y-83626215D01*
X142972818Y-83626222D01*
X142923933Y-83776677D01*
X142914326Y-83806244D01*
X142894540Y-83994500D01*
X142914326Y-84182756D01*
X142914327Y-84182759D01*
X142972818Y-84362777D01*
X142972821Y-84362784D01*
X143067467Y-84526716D01*
X143174137Y-84645185D01*
X143194129Y-84667388D01*
X143347265Y-84778648D01*
X143347270Y-84778651D01*
X143520192Y-84855642D01*
X143520197Y-84855644D01*
X143705354Y-84895000D01*
X143705355Y-84895000D01*
X143894644Y-84895000D01*
X143894646Y-84895000D01*
X144079803Y-84855644D01*
X144252730Y-84778651D01*
X144405871Y-84667388D01*
X144532533Y-84526716D01*
X144627179Y-84362784D01*
X144685674Y-84182756D01*
X144705460Y-83994500D01*
X144685674Y-83806244D01*
X144627179Y-83626216D01*
X144532533Y-83462284D01*
X144497636Y-83423527D01*
X144457350Y-83378784D01*
X144427120Y-83315792D01*
X144425500Y-83295812D01*
X144425500Y-83000000D01*
X155544453Y-83000000D01*
X155564628Y-83423531D01*
X155624971Y-83843219D01*
X155724934Y-84255274D01*
X155724937Y-84255285D01*
X155863607Y-84655944D01*
X155863613Y-84655960D01*
X155982301Y-84915851D01*
X156039754Y-85041654D01*
X156251758Y-85408857D01*
X156251764Y-85408865D01*
X156497693Y-85754224D01*
X156497702Y-85754234D01*
X156497703Y-85754236D01*
X156535588Y-85797958D01*
X156769827Y-86068284D01*
X156775369Y-86074679D01*
X157082237Y-86367278D01*
X157082246Y-86367285D01*
X157415534Y-86629385D01*
X157579186Y-86734557D01*
X157772227Y-86858617D01*
X158149099Y-87052908D01*
X158149104Y-87052910D01*
X158149106Y-87052911D01*
X158310561Y-87117548D01*
X158542733Y-87210496D01*
X158949565Y-87329952D01*
X159194834Y-87377223D01*
X159345197Y-87406204D01*
X159365910Y-87410196D01*
X159787997Y-87450500D01*
X159788004Y-87450500D01*
X160211996Y-87450500D01*
X160212003Y-87450500D01*
X160634090Y-87410196D01*
X161050435Y-87329952D01*
X161457267Y-87210496D01*
X161850901Y-87052908D01*
X162026019Y-86962628D01*
X162094624Y-86949405D01*
X162159488Y-86975373D01*
X162200017Y-87032287D01*
X162203342Y-87102078D01*
X162200206Y-87111692D01*
X162200305Y-87111722D01*
X162198535Y-87117556D01*
X162174500Y-87238389D01*
X162174500Y-88089547D01*
X162154815Y-88156586D01*
X162138181Y-88177228D01*
X161877229Y-88438181D01*
X161815906Y-88471666D01*
X161789548Y-88474500D01*
X158503748Y-88474500D01*
X158436709Y-88454815D01*
X158411600Y-88433474D01*
X158405873Y-88427114D01*
X158405869Y-88427110D01*
X158252734Y-88315851D01*
X158252729Y-88315848D01*
X158079807Y-88238857D01*
X158079802Y-88238855D01*
X157934001Y-88207865D01*
X157894646Y-88199500D01*
X157705354Y-88199500D01*
X157672897Y-88206398D01*
X157520197Y-88238855D01*
X157520192Y-88238857D01*
X157347270Y-88315848D01*
X157347265Y-88315851D01*
X157194129Y-88427111D01*
X157067466Y-88567785D01*
X156972821Y-88731715D01*
X156972818Y-88731722D01*
X156914327Y-88911740D01*
X156914326Y-88911744D01*
X156894540Y-89100000D01*
X156914326Y-89288256D01*
X156914327Y-89288259D01*
X156972818Y-89468277D01*
X156972821Y-89468284D01*
X157067467Y-89632216D01*
X157178141Y-89755132D01*
X157194129Y-89772888D01*
X157347265Y-89884148D01*
X157347270Y-89884151D01*
X157520192Y-89961142D01*
X157520197Y-89961144D01*
X157705354Y-90000500D01*
X157705355Y-90000500D01*
X157894644Y-90000500D01*
X157894646Y-90000500D01*
X158079803Y-89961144D01*
X158252730Y-89884151D01*
X158405871Y-89772888D01*
X158408788Y-89769647D01*
X158411600Y-89766526D01*
X158471087Y-89729879D01*
X158503748Y-89725500D01*
X162161608Y-89725500D01*
X162161608Y-89725499D01*
X162230764Y-89711744D01*
X162230765Y-89711744D01*
X162243774Y-89709156D01*
X162282452Y-89701463D01*
X162320128Y-89685857D01*
X162396286Y-89654312D01*
X162447509Y-89620084D01*
X162498733Y-89585858D01*
X162585858Y-89498733D01*
X162585858Y-89498731D01*
X162596066Y-89488524D01*
X162596067Y-89488521D01*
X163285857Y-88798734D01*
X163298289Y-88780129D01*
X163303676Y-88772068D01*
X163322396Y-88744050D01*
X163376007Y-88699243D01*
X163445332Y-88690534D01*
X163508360Y-88720687D01*
X163545081Y-88780129D01*
X163549500Y-88812938D01*
X163549500Y-89397870D01*
X163549501Y-89397876D01*
X163555908Y-89457483D01*
X163606202Y-89592328D01*
X163606206Y-89592335D01*
X163692452Y-89707544D01*
X163692455Y-89707547D01*
X163807664Y-89793793D01*
X163807671Y-89793797D01*
X163942517Y-89844091D01*
X163942516Y-89844091D01*
X163949444Y-89844835D01*
X164002127Y-89850500D01*
X165597872Y-89850499D01*
X165657483Y-89844091D01*
X165792331Y-89793796D01*
X165907546Y-89707546D01*
X165951234Y-89649186D01*
X166007167Y-89607316D01*
X166076859Y-89602332D01*
X166138182Y-89635817D01*
X166171666Y-89697141D01*
X166174500Y-89723498D01*
X166174500Y-91189548D01*
X166154815Y-91256587D01*
X166138181Y-91277229D01*
X164277229Y-93138181D01*
X164215906Y-93171666D01*
X164189548Y-93174500D01*
X162738393Y-93174500D01*
X162719077Y-93178342D01*
X162719076Y-93178341D01*
X162617554Y-93198535D01*
X162617545Y-93198537D01*
X162597543Y-93206823D01*
X162584207Y-93212347D01*
X162503719Y-93245684D01*
X162503705Y-93245692D01*
X162401272Y-93314138D01*
X162401264Y-93314144D01*
X162252228Y-93463181D01*
X162190905Y-93496666D01*
X162164547Y-93499500D01*
X162105354Y-93499500D01*
X162072897Y-93506398D01*
X161920197Y-93538855D01*
X161920192Y-93538857D01*
X161747270Y-93615848D01*
X161747265Y-93615851D01*
X161594129Y-93727111D01*
X161467466Y-93867785D01*
X161372821Y-94031715D01*
X161372818Y-94031722D01*
X161314327Y-94211740D01*
X161314326Y-94211744D01*
X161294540Y-94400000D01*
X161314326Y-94588256D01*
X161314327Y-94588259D01*
X161372818Y-94768277D01*
X161372821Y-94768284D01*
X161467467Y-94932216D01*
X161563487Y-95038857D01*
X161594129Y-95072888D01*
X161747265Y-95184148D01*
X161747270Y-95184151D01*
X161920192Y-95261142D01*
X161920197Y-95261144D01*
X162105354Y-95300500D01*
X162105355Y-95300500D01*
X162294644Y-95300500D01*
X162294646Y-95300500D01*
X162479803Y-95261144D01*
X162652730Y-95184151D01*
X162805871Y-95072888D01*
X162932533Y-94932216D01*
X163027179Y-94768284D01*
X163085674Y-94588256D01*
X163091109Y-94536535D01*
X163117694Y-94471924D01*
X163174991Y-94431939D01*
X163214430Y-94425500D01*
X164561607Y-94425500D01*
X164622029Y-94413481D01*
X164682452Y-94401463D01*
X164682455Y-94401461D01*
X164682458Y-94401461D01*
X164715787Y-94387654D01*
X164715786Y-94387654D01*
X164715792Y-94387652D01*
X164796286Y-94354312D01*
X164859992Y-94311744D01*
X164859993Y-94311744D01*
X164885641Y-94294605D01*
X164898733Y-94285858D01*
X164985858Y-94198733D01*
X164985859Y-94198730D01*
X164992925Y-94191665D01*
X164992928Y-94191661D01*
X167198729Y-91985860D01*
X167198733Y-91985858D01*
X167285858Y-91898733D01*
X167354311Y-91796286D01*
X167401463Y-91682452D01*
X167425500Y-91561606D01*
X167425500Y-86138394D01*
X167401463Y-86017548D01*
X167375760Y-85955495D01*
X167354312Y-85903715D01*
X167331030Y-85868872D01*
X167285858Y-85801267D01*
X167285856Y-85801264D01*
X167285855Y-85801263D01*
X167238961Y-85754370D01*
X167205475Y-85693047D01*
X167203323Y-85679668D01*
X167185674Y-85511744D01*
X167127179Y-85331716D01*
X167032533Y-85167784D01*
X166905871Y-85027112D01*
X166867868Y-84999501D01*
X166752734Y-84915851D01*
X166752729Y-84915848D01*
X166633535Y-84862779D01*
X166580298Y-84817529D01*
X166559977Y-84750680D01*
X166579023Y-84683456D01*
X166631389Y-84637201D01*
X166683971Y-84625500D01*
X172496252Y-84625500D01*
X172563291Y-84645185D01*
X172588400Y-84666526D01*
X172594126Y-84672885D01*
X172594130Y-84672889D01*
X172747265Y-84784148D01*
X172747270Y-84784151D01*
X172920192Y-84861142D01*
X172920197Y-84861144D01*
X173105354Y-84900500D01*
X173105355Y-84900500D01*
X173294644Y-84900500D01*
X173294646Y-84900500D01*
X173479803Y-84861144D01*
X173652730Y-84784151D01*
X173805871Y-84672888D01*
X173932533Y-84532216D01*
X174027179Y-84368284D01*
X174085674Y-84188256D01*
X174105460Y-84000000D01*
X174085674Y-83811744D01*
X174027179Y-83631716D01*
X173932533Y-83467784D01*
X173805871Y-83327112D01*
X173805870Y-83327111D01*
X173652734Y-83215851D01*
X173652729Y-83215848D01*
X173479807Y-83138857D01*
X173479802Y-83138855D01*
X173334001Y-83107865D01*
X173294646Y-83099500D01*
X173105354Y-83099500D01*
X173072897Y-83106398D01*
X172920197Y-83138855D01*
X172920192Y-83138857D01*
X172747270Y-83215848D01*
X172747265Y-83215851D01*
X172594130Y-83327110D01*
X172594126Y-83327114D01*
X172588400Y-83333474D01*
X172528913Y-83370121D01*
X172496252Y-83374500D01*
X166161607Y-83374500D01*
X166038393Y-83374500D01*
X165990819Y-83383963D01*
X165990818Y-83383962D01*
X165917555Y-83398535D01*
X165917541Y-83398539D01*
X165880781Y-83413765D01*
X165880782Y-83413766D01*
X165803713Y-83445688D01*
X165803714Y-83445689D01*
X165701268Y-83514140D01*
X165657705Y-83557703D01*
X165614142Y-83601267D01*
X165614139Y-83601270D01*
X164266765Y-84948643D01*
X164205442Y-84982128D01*
X164135750Y-84977144D01*
X164079817Y-84935272D01*
X164055400Y-84869808D01*
X164066290Y-84809450D01*
X164068337Y-84804969D01*
X164136387Y-84655960D01*
X164275066Y-84255273D01*
X164375029Y-83843218D01*
X164435372Y-83423527D01*
X164455547Y-83000000D01*
X164435372Y-82576473D01*
X164375029Y-82156782D01*
X164275066Y-81744727D01*
X164268969Y-81727112D01*
X164136392Y-81344055D01*
X164136387Y-81344040D01*
X163960248Y-80958350D01*
X163748245Y-80591149D01*
X163748241Y-80591142D01*
X163748235Y-80591134D01*
X163502306Y-80245775D01*
X163502295Y-80245762D01*
X163423985Y-80155388D01*
X163224631Y-79925321D01*
X162917763Y-79632722D01*
X162902722Y-79620894D01*
X162805059Y-79544091D01*
X162584471Y-79370619D01*
X162584467Y-79370617D01*
X162584459Y-79370610D01*
X162584456Y-79370608D01*
X162227781Y-79141387D01*
X162227774Y-79141383D01*
X162175075Y-79114215D01*
X161850901Y-78947092D01*
X161850899Y-78947091D01*
X161850891Y-78947087D01*
X161457268Y-78789504D01*
X161457256Y-78789500D01*
X161050440Y-78670049D01*
X161050423Y-78670045D01*
X160634105Y-78589806D01*
X160634093Y-78589804D01*
X160507463Y-78577712D01*
X160212003Y-78549500D01*
X159787997Y-78549500D01*
X159519396Y-78575148D01*
X159365906Y-78589804D01*
X159365894Y-78589806D01*
X158949576Y-78670045D01*
X158949559Y-78670049D01*
X158542743Y-78789500D01*
X158542731Y-78789504D01*
X158149106Y-78947088D01*
X158149102Y-78947090D01*
X157772230Y-79141381D01*
X157415534Y-79370614D01*
X157082246Y-79632714D01*
X157082227Y-79632731D01*
X156775366Y-79925323D01*
X156497704Y-80245762D01*
X156497693Y-80245775D01*
X156251764Y-80591134D01*
X156251758Y-80591142D01*
X156039754Y-80958345D01*
X155863617Y-81344030D01*
X155863607Y-81344055D01*
X155724937Y-81744714D01*
X155724934Y-81744725D01*
X155624971Y-82156780D01*
X155564628Y-82576468D01*
X155544453Y-83000000D01*
X144425500Y-83000000D01*
X144425500Y-82720893D01*
X144425499Y-82720889D01*
X144414617Y-82666180D01*
X144401463Y-82600048D01*
X144363020Y-82507239D01*
X144354312Y-82486216D01*
X144354307Y-82486207D01*
X144285858Y-82383767D01*
X144285855Y-82383763D01*
X144195637Y-82293545D01*
X144195606Y-82293516D01*
X143561819Y-81659729D01*
X143528334Y-81598406D01*
X143525500Y-81572048D01*
X143525500Y-80232000D01*
X143545185Y-80164961D01*
X143597989Y-80119206D01*
X143649500Y-80108000D01*
X144096252Y-80108000D01*
X144163291Y-80127685D01*
X144188400Y-80149026D01*
X144194126Y-80155385D01*
X144194130Y-80155389D01*
X144347265Y-80266648D01*
X144347270Y-80266651D01*
X144520192Y-80343642D01*
X144520197Y-80343644D01*
X144705354Y-80383000D01*
X144705355Y-80383000D01*
X144894644Y-80383000D01*
X144894646Y-80383000D01*
X145079803Y-80343644D01*
X145252730Y-80266651D01*
X145405871Y-80155388D01*
X145532533Y-80014716D01*
X145627179Y-79850784D01*
X145685674Y-79670756D01*
X145705460Y-79482500D01*
X145685674Y-79294244D01*
X145627179Y-79114216D01*
X145617742Y-79097870D01*
X154049500Y-79097870D01*
X154049501Y-79097876D01*
X154055908Y-79157483D01*
X154106202Y-79292328D01*
X154106206Y-79292335D01*
X154192452Y-79407544D01*
X154192455Y-79407547D01*
X154307664Y-79493793D01*
X154307671Y-79493797D01*
X154442517Y-79544091D01*
X154442516Y-79544091D01*
X154449444Y-79544835D01*
X154502127Y-79550500D01*
X156097872Y-79550499D01*
X156157483Y-79544091D01*
X156292331Y-79493796D01*
X156407546Y-79407546D01*
X156493796Y-79292331D01*
X156544091Y-79157483D01*
X156550500Y-79097873D01*
X156550499Y-77502128D01*
X156550270Y-77500000D01*
X166194540Y-77500000D01*
X166214326Y-77688256D01*
X166214327Y-77688259D01*
X166272818Y-77868277D01*
X166272821Y-77868284D01*
X166367467Y-78032216D01*
X166469185Y-78145185D01*
X166494129Y-78172888D01*
X166647265Y-78284148D01*
X166647270Y-78284151D01*
X166820192Y-78361142D01*
X166820197Y-78361144D01*
X167005354Y-78400500D01*
X167005355Y-78400500D01*
X167194644Y-78400500D01*
X167194646Y-78400500D01*
X167379803Y-78361144D01*
X167552730Y-78284151D01*
X167705871Y-78172888D01*
X167708788Y-78169647D01*
X167711600Y-78166526D01*
X167771087Y-78129879D01*
X167803748Y-78125500D01*
X170421252Y-78125500D01*
X170488291Y-78145185D01*
X170513400Y-78166526D01*
X170519126Y-78172885D01*
X170519130Y-78172889D01*
X170672265Y-78284148D01*
X170672270Y-78284151D01*
X170845192Y-78361142D01*
X170845197Y-78361144D01*
X171030354Y-78400500D01*
X171030355Y-78400500D01*
X171219644Y-78400500D01*
X171219646Y-78400500D01*
X171404803Y-78361144D01*
X171577730Y-78284151D01*
X171730871Y-78172888D01*
X171857533Y-78032216D01*
X171952179Y-77868284D01*
X172010674Y-77688256D01*
X172030460Y-77500000D01*
X172010674Y-77311744D01*
X171952179Y-77131716D01*
X171919367Y-77074884D01*
X171902895Y-77006987D01*
X171925747Y-76940960D01*
X171930349Y-76935221D01*
X171932529Y-76932220D01*
X171932533Y-76932216D01*
X172027179Y-76768284D01*
X172085674Y-76588256D01*
X172105460Y-76400000D01*
X172085674Y-76211744D01*
X172027179Y-76031716D01*
X171932533Y-75867784D01*
X171805871Y-75727112D01*
X171805870Y-75727111D01*
X171652734Y-75615851D01*
X171652729Y-75615848D01*
X171479807Y-75538857D01*
X171479802Y-75538855D01*
X171334001Y-75507865D01*
X171294646Y-75499500D01*
X171105354Y-75499500D01*
X171072897Y-75506398D01*
X170920197Y-75538855D01*
X170920192Y-75538857D01*
X170747270Y-75615848D01*
X170747265Y-75615851D01*
X170594130Y-75727110D01*
X170594126Y-75727114D01*
X170588400Y-75733474D01*
X170528913Y-75770121D01*
X170496252Y-75774500D01*
X167803748Y-75774500D01*
X167736709Y-75754815D01*
X167711600Y-75733474D01*
X167705873Y-75727114D01*
X167705869Y-75727110D01*
X167552734Y-75615851D01*
X167552729Y-75615848D01*
X167379807Y-75538857D01*
X167379802Y-75538855D01*
X167234001Y-75507865D01*
X167194646Y-75499500D01*
X167005354Y-75499500D01*
X166972897Y-75506398D01*
X166820197Y-75538855D01*
X166820192Y-75538857D01*
X166647270Y-75615848D01*
X166647265Y-75615851D01*
X166494129Y-75727111D01*
X166367466Y-75867785D01*
X166272821Y-76031715D01*
X166272818Y-76031722D01*
X166214327Y-76211740D01*
X166214326Y-76211744D01*
X166194540Y-76400000D01*
X166214326Y-76588256D01*
X166214327Y-76588259D01*
X166272818Y-76768277D01*
X166272821Y-76768284D01*
X166341939Y-76888000D01*
X166358412Y-76955900D01*
X166341939Y-77012000D01*
X166272821Y-77131715D01*
X166272818Y-77131722D01*
X166215650Y-77307669D01*
X166214326Y-77311744D01*
X166194540Y-77500000D01*
X156550270Y-77500000D01*
X156544091Y-77442517D01*
X156542725Y-77438855D01*
X156493797Y-77307671D01*
X156493793Y-77307664D01*
X156407547Y-77192455D01*
X156407544Y-77192452D01*
X156292335Y-77106206D01*
X156292328Y-77106202D01*
X156157482Y-77055908D01*
X156157483Y-77055908D01*
X156097883Y-77049501D01*
X156097881Y-77049500D01*
X156097873Y-77049500D01*
X156097864Y-77049500D01*
X154502129Y-77049500D01*
X154502123Y-77049501D01*
X154442516Y-77055908D01*
X154307671Y-77106202D01*
X154307664Y-77106206D01*
X154192455Y-77192452D01*
X154192452Y-77192455D01*
X154106206Y-77307664D01*
X154106202Y-77307671D01*
X154055908Y-77442517D01*
X154049501Y-77502116D01*
X154049501Y-77502123D01*
X154049500Y-77502135D01*
X154049500Y-79097870D01*
X145617742Y-79097870D01*
X145532533Y-78950284D01*
X145405871Y-78809612D01*
X145405870Y-78809611D01*
X145252734Y-78698351D01*
X145252729Y-78698348D01*
X145079807Y-78621357D01*
X145079802Y-78621355D01*
X144931361Y-78589804D01*
X144894646Y-78582000D01*
X144705354Y-78582000D01*
X144672897Y-78588898D01*
X144520197Y-78621355D01*
X144520192Y-78621357D01*
X144347270Y-78698348D01*
X144347265Y-78698351D01*
X144194130Y-78809610D01*
X144194126Y-78809614D01*
X144188400Y-78815974D01*
X144128913Y-78852621D01*
X144096252Y-78857000D01*
X143038389Y-78857000D01*
X142917553Y-78881035D01*
X142917541Y-78881039D01*
X142885262Y-78894409D01*
X142870397Y-78900567D01*
X142803719Y-78928185D01*
X142803717Y-78928186D01*
X142701266Y-78996641D01*
X142701263Y-78996644D01*
X142540427Y-79157482D01*
X142501269Y-79196640D01*
X142501267Y-79196642D01*
X142457704Y-79240204D01*
X142414142Y-79283766D01*
X142385867Y-79326083D01*
X142385866Y-79326082D01*
X142345692Y-79386207D01*
X142345685Y-79386219D01*
X142319475Y-79449499D01*
X142319475Y-79449500D01*
X142298537Y-79500046D01*
X142274500Y-79620896D01*
X142274500Y-81944110D01*
X137750500Y-81944110D01*
X137750499Y-80702128D01*
X137744091Y-80642517D01*
X137724929Y-80591142D01*
X137693797Y-80507671D01*
X137693793Y-80507664D01*
X137607547Y-80392455D01*
X137607544Y-80392452D01*
X137492335Y-80306206D01*
X137492328Y-80306202D01*
X137357482Y-80255908D01*
X137357483Y-80255908D01*
X137297883Y-80249501D01*
X137297881Y-80249500D01*
X137297873Y-80249500D01*
X137297864Y-80249500D01*
X135702129Y-80249500D01*
X135702123Y-80249501D01*
X135642516Y-80255908D01*
X135507671Y-80306202D01*
X135507664Y-80306206D01*
X135392455Y-80392452D01*
X135392452Y-80392455D01*
X135306206Y-80507664D01*
X135306202Y-80507671D01*
X135255908Y-80642517D01*
X135249611Y-80701096D01*
X135249501Y-80702123D01*
X135249500Y-80702135D01*
X135249500Y-82297870D01*
X131950500Y-82297870D01*
X131950500Y-80734321D01*
X131967113Y-80672321D01*
X132027179Y-80568284D01*
X132085674Y-80388256D01*
X132105460Y-80200000D01*
X132085674Y-80011744D01*
X132027179Y-79831716D01*
X131932533Y-79667784D01*
X131805871Y-79527112D01*
X131805870Y-79527111D01*
X131652734Y-79415851D01*
X131652729Y-79415848D01*
X131479807Y-79338857D01*
X131479802Y-79338855D01*
X131334001Y-79307865D01*
X131294646Y-79299500D01*
X131105354Y-79299500D01*
X131072897Y-79306398D01*
X130920197Y-79338855D01*
X130920192Y-79338857D01*
X130747270Y-79415848D01*
X130747265Y-79415851D01*
X130594129Y-79527111D01*
X130467466Y-79667785D01*
X130372821Y-79831715D01*
X130372818Y-79831722D01*
X130340166Y-79932216D01*
X130314326Y-80011744D01*
X130294540Y-80200000D01*
X126462642Y-80200000D01*
X126423985Y-80155388D01*
X126224631Y-79925321D01*
X125917763Y-79632722D01*
X125902722Y-79620894D01*
X125805059Y-79544091D01*
X125584471Y-79370619D01*
X125584467Y-79370617D01*
X125584459Y-79370610D01*
X125584456Y-79370608D01*
X125227781Y-79141387D01*
X125227774Y-79141383D01*
X125175075Y-79114215D01*
X124850901Y-78947092D01*
X124850899Y-78947091D01*
X124850891Y-78947087D01*
X124457268Y-78789504D01*
X124457256Y-78789500D01*
X124050440Y-78670049D01*
X124050423Y-78670045D01*
X123634105Y-78589806D01*
X123634093Y-78589804D01*
X123507463Y-78577712D01*
X123212003Y-78549500D01*
X122787997Y-78549500D01*
X122519396Y-78575148D01*
X122365906Y-78589804D01*
X122365894Y-78589806D01*
X121949576Y-78670045D01*
X121949559Y-78670049D01*
X121542743Y-78789500D01*
X121542731Y-78789504D01*
X121149106Y-78947088D01*
X121149102Y-78947090D01*
X120772230Y-79141381D01*
X120415534Y-79370614D01*
X120082246Y-79632714D01*
X120082227Y-79632731D01*
X119775366Y-79925323D01*
X119497704Y-80245762D01*
X119497693Y-80245775D01*
X119251764Y-80591134D01*
X119251758Y-80591142D01*
X119039754Y-80958345D01*
X118863617Y-81344030D01*
X118863607Y-81344055D01*
X118724937Y-81744714D01*
X118724934Y-81744725D01*
X118624971Y-82156780D01*
X118564628Y-82576468D01*
X118544453Y-83000000D01*
X109000000Y-83000000D01*
X109000000Y-78300000D01*
X137094540Y-78300000D01*
X137114326Y-78488256D01*
X137114327Y-78488259D01*
X137172818Y-78668277D01*
X137172821Y-78668284D01*
X137267467Y-78832216D01*
X137285840Y-78852621D01*
X137394129Y-78972888D01*
X137547265Y-79084148D01*
X137547270Y-79084151D01*
X137720192Y-79161142D01*
X137720197Y-79161144D01*
X137905354Y-79200500D01*
X137905355Y-79200500D01*
X138094644Y-79200500D01*
X138094646Y-79200500D01*
X138279803Y-79161144D01*
X138452730Y-79084151D01*
X138454776Y-79082664D01*
X138466452Y-79074182D01*
X138532258Y-79050702D01*
X138539337Y-79050500D01*
X139137770Y-79050500D01*
X139204809Y-79070185D01*
X139225451Y-79086819D01*
X139687228Y-79548596D01*
X139717478Y-79597958D01*
X139772819Y-79768280D01*
X139772821Y-79768284D01*
X139867467Y-79932216D01*
X139939071Y-80011740D01*
X139994129Y-80072888D01*
X140147265Y-80184148D01*
X140147270Y-80184151D01*
X140320192Y-80261142D01*
X140320197Y-80261144D01*
X140505354Y-80300500D01*
X140505355Y-80300500D01*
X140694644Y-80300500D01*
X140694646Y-80300500D01*
X140879803Y-80261144D01*
X141052730Y-80184151D01*
X141205871Y-80072888D01*
X141332533Y-79932216D01*
X141427179Y-79768284D01*
X141485674Y-79588256D01*
X141505460Y-79400000D01*
X141485674Y-79211744D01*
X141427179Y-79031716D01*
X141332533Y-78867784D01*
X141205871Y-78727112D01*
X141166285Y-78698351D01*
X141052734Y-78615851D01*
X141052729Y-78615848D01*
X140879807Y-78538857D01*
X140879803Y-78538856D01*
X140814669Y-78525011D01*
X140753188Y-78491818D01*
X140752770Y-78491402D01*
X139978421Y-77717052D01*
X139978414Y-77717046D01*
X139904729Y-77667812D01*
X139904729Y-77667813D01*
X139855491Y-77634913D01*
X139718917Y-77578343D01*
X139718907Y-77578340D01*
X139573920Y-77549500D01*
X139573918Y-77549500D01*
X138539337Y-77549500D01*
X138472298Y-77529815D01*
X138466452Y-77525818D01*
X138452734Y-77515851D01*
X138452729Y-77515848D01*
X138279807Y-77438857D01*
X138279802Y-77438855D01*
X138134001Y-77407865D01*
X138094646Y-77399500D01*
X137905354Y-77399500D01*
X137872897Y-77406398D01*
X137720197Y-77438855D01*
X137720192Y-77438857D01*
X137547270Y-77515848D01*
X137547265Y-77515851D01*
X137394129Y-77627111D01*
X137267466Y-77767785D01*
X137172821Y-77931715D01*
X137172818Y-77931722D01*
X137140166Y-78032216D01*
X137114326Y-78111744D01*
X137094540Y-78300000D01*
X109000000Y-78300000D01*
X109000000Y-66300000D01*
X154694540Y-66300000D01*
X154714326Y-66488256D01*
X154714327Y-66488259D01*
X154772818Y-66668277D01*
X154772821Y-66668284D01*
X154832887Y-66772321D01*
X154849500Y-66834321D01*
X154849500Y-67773918D01*
X154849500Y-67773920D01*
X154849499Y-67773920D01*
X154878340Y-67918907D01*
X154878343Y-67918917D01*
X154934913Y-68055490D01*
X154934914Y-68055491D01*
X154934916Y-68055495D01*
X154950181Y-68078340D01*
X154950182Y-68078342D01*
X155017051Y-68178420D01*
X155017052Y-68178421D01*
X155564712Y-68726079D01*
X155717048Y-68878415D01*
X155717049Y-68878416D01*
X155821584Y-68982951D01*
X155821585Y-68982952D01*
X155944498Y-69065080D01*
X155944511Y-69065087D01*
X156081082Y-69121656D01*
X156081087Y-69121658D01*
X156081091Y-69121658D01*
X156081092Y-69121659D01*
X156226079Y-69150500D01*
X156226082Y-69150500D01*
X156325500Y-69150500D01*
X156392539Y-69170185D01*
X156438294Y-69222989D01*
X156449500Y-69274500D01*
X156449500Y-70965677D01*
X156432887Y-71027677D01*
X156372821Y-71131714D01*
X156314327Y-71311740D01*
X156314326Y-71311744D01*
X156294540Y-71500000D01*
X156314326Y-71688256D01*
X156314327Y-71688259D01*
X156372818Y-71868277D01*
X156372821Y-71868284D01*
X156467467Y-72032216D01*
X156594129Y-72172888D01*
X156747265Y-72284148D01*
X156747270Y-72284151D01*
X156920192Y-72361142D01*
X156920197Y-72361144D01*
X157105354Y-72400500D01*
X157105355Y-72400500D01*
X157294644Y-72400500D01*
X157294646Y-72400500D01*
X157479803Y-72361144D01*
X157652730Y-72284151D01*
X157805871Y-72172888D01*
X157932533Y-72032216D01*
X158027179Y-71868284D01*
X158085674Y-71688256D01*
X158105460Y-71500000D01*
X158085674Y-71311744D01*
X158027179Y-71131716D01*
X157967113Y-71027677D01*
X157950500Y-70965677D01*
X157950500Y-68726079D01*
X157921659Y-68581092D01*
X157921658Y-68581091D01*
X157921658Y-68581087D01*
X157921656Y-68581082D01*
X157865087Y-68444511D01*
X157865080Y-68444498D01*
X157782952Y-68321585D01*
X157782951Y-68321584D01*
X157678416Y-68217049D01*
X157639783Y-68178416D01*
X157278421Y-67817052D01*
X157278414Y-67817046D01*
X157204729Y-67767812D01*
X157204729Y-67767813D01*
X157155491Y-67734913D01*
X157018917Y-67678343D01*
X157018907Y-67678340D01*
X156873920Y-67649500D01*
X156873918Y-67649500D01*
X156662229Y-67649500D01*
X156595190Y-67629815D01*
X156574548Y-67613181D01*
X156386819Y-67425451D01*
X156353334Y-67364128D01*
X156350500Y-67337770D01*
X156350500Y-66834321D01*
X156367113Y-66772321D01*
X156427179Y-66668284D01*
X156485674Y-66488256D01*
X156505460Y-66300000D01*
X156485674Y-66111744D01*
X156427179Y-65931716D01*
X156332533Y-65767784D01*
X156205871Y-65627112D01*
X156205870Y-65627111D01*
X156052734Y-65515851D01*
X156052729Y-65515848D01*
X155879807Y-65438857D01*
X155879802Y-65438855D01*
X155734001Y-65407865D01*
X155694646Y-65399500D01*
X155505354Y-65399500D01*
X155472897Y-65406398D01*
X155320197Y-65438855D01*
X155320192Y-65438857D01*
X155147270Y-65515848D01*
X155147265Y-65515851D01*
X154994129Y-65627111D01*
X154867466Y-65767785D01*
X154772821Y-65931715D01*
X154772818Y-65931722D01*
X154714327Y-66111740D01*
X154714326Y-66111744D01*
X154694540Y-66300000D01*
X109000000Y-66300000D01*
X109000000Y-62900000D01*
X143394540Y-62900000D01*
X143414326Y-63088256D01*
X143414327Y-63088259D01*
X143472818Y-63268277D01*
X143472821Y-63268284D01*
X143567467Y-63432216D01*
X143639892Y-63512652D01*
X143694129Y-63572888D01*
X143847265Y-63684148D01*
X143847270Y-63684151D01*
X144020192Y-63761142D01*
X144020197Y-63761144D01*
X144205354Y-63800500D01*
X144205355Y-63800500D01*
X144394644Y-63800500D01*
X144394646Y-63800500D01*
X144579803Y-63761144D01*
X144752730Y-63684151D01*
X144904090Y-63574182D01*
X144969896Y-63550702D01*
X144976975Y-63550500D01*
X147336607Y-63550500D01*
X147397029Y-63538481D01*
X147457452Y-63526463D01*
X147457455Y-63526461D01*
X147457458Y-63526461D01*
X147490787Y-63512654D01*
X147490786Y-63512654D01*
X147490792Y-63512652D01*
X147571286Y-63479312D01*
X147622509Y-63445084D01*
X147673733Y-63410858D01*
X147760858Y-63323733D01*
X147760858Y-63323731D01*
X147771066Y-63313524D01*
X147771067Y-63313521D01*
X149247772Y-61836819D01*
X149309095Y-61803334D01*
X149335453Y-61800500D01*
X149394644Y-61800500D01*
X149394646Y-61800500D01*
X149579803Y-61761144D01*
X149752730Y-61684151D01*
X149905871Y-61572888D01*
X150032533Y-61432216D01*
X150127179Y-61268284D01*
X150185674Y-61088256D01*
X150205460Y-60900000D01*
X150185674Y-60711744D01*
X150127179Y-60531716D01*
X150032533Y-60367784D01*
X149905871Y-60227112D01*
X149905870Y-60227111D01*
X149752734Y-60115851D01*
X149752729Y-60115848D01*
X149579807Y-60038857D01*
X149579802Y-60038855D01*
X149434001Y-60007865D01*
X149394646Y-59999500D01*
X149217058Y-59999500D01*
X149150019Y-59979815D01*
X149104264Y-59927011D01*
X149093737Y-59888462D01*
X149085674Y-59811744D01*
X149027179Y-59631716D01*
X148932533Y-59467784D01*
X148805871Y-59327112D01*
X148805870Y-59327111D01*
X148652734Y-59215851D01*
X148652729Y-59215848D01*
X148479807Y-59138857D01*
X148479802Y-59138855D01*
X148334001Y-59107865D01*
X148294646Y-59099500D01*
X148105354Y-59099500D01*
X148072897Y-59106398D01*
X147920197Y-59138855D01*
X147920192Y-59138857D01*
X147747270Y-59215848D01*
X147747265Y-59215851D01*
X147594129Y-59327111D01*
X147467466Y-59467785D01*
X147372821Y-59631715D01*
X147372818Y-59631722D01*
X147318142Y-59800000D01*
X147314326Y-59811744D01*
X147306405Y-59887105D01*
X147296678Y-59979651D01*
X147270093Y-60044266D01*
X147261038Y-60054370D01*
X145976202Y-61339206D01*
X145914879Y-61372691D01*
X145845187Y-61367707D01*
X145838086Y-61364805D01*
X145779802Y-61338855D01*
X145634001Y-61307865D01*
X145594646Y-61299500D01*
X145405354Y-61299500D01*
X145372897Y-61306398D01*
X145220197Y-61338855D01*
X145220192Y-61338857D01*
X145047270Y-61415848D01*
X145047265Y-61415851D01*
X144894129Y-61527111D01*
X144767466Y-61667785D01*
X144672821Y-61831715D01*
X144672819Y-61831719D01*
X144638357Y-61937784D01*
X144598919Y-61995459D01*
X144534561Y-62022657D01*
X144494646Y-62020755D01*
X144394647Y-61999500D01*
X144394646Y-61999500D01*
X144205354Y-61999500D01*
X144172897Y-62006398D01*
X144020197Y-62038855D01*
X144020192Y-62038857D01*
X143847270Y-62115848D01*
X143847265Y-62115851D01*
X143694129Y-62227111D01*
X143567466Y-62367785D01*
X143472821Y-62531715D01*
X143472818Y-62531722D01*
X143422644Y-62686144D01*
X143414326Y-62711744D01*
X143394540Y-62900000D01*
X109000000Y-62900000D01*
X109000000Y-61825000D01*
X140794540Y-61825000D01*
X140814326Y-62013256D01*
X140814327Y-62013259D01*
X140872818Y-62193277D01*
X140872821Y-62193284D01*
X140967467Y-62357216D01*
X141094129Y-62497888D01*
X141247265Y-62609148D01*
X141247270Y-62609151D01*
X141420192Y-62686142D01*
X141420197Y-62686144D01*
X141605354Y-62725500D01*
X141605355Y-62725500D01*
X141794644Y-62725500D01*
X141794646Y-62725500D01*
X141979803Y-62686144D01*
X142152730Y-62609151D01*
X142305871Y-62497888D01*
X142432533Y-62357216D01*
X142527179Y-62193284D01*
X142585674Y-62013256D01*
X142605460Y-61825000D01*
X142585674Y-61636744D01*
X142527179Y-61456716D01*
X142432533Y-61292784D01*
X142410467Y-61268277D01*
X142357350Y-61209284D01*
X142327120Y-61146292D01*
X142325500Y-61126312D01*
X142325500Y-60498687D01*
X142345185Y-60431648D01*
X142357350Y-60415715D01*
X142375891Y-60395122D01*
X142432533Y-60332216D01*
X142527179Y-60168284D01*
X142585674Y-59988256D01*
X142605460Y-59800000D01*
X142585674Y-59611744D01*
X142527179Y-59431716D01*
X142432533Y-59267784D01*
X142305871Y-59127112D01*
X142305870Y-59127111D01*
X142152734Y-59015851D01*
X142152729Y-59015848D01*
X141979807Y-58938857D01*
X141979802Y-58938855D01*
X141834001Y-58907865D01*
X141794646Y-58899500D01*
X141605354Y-58899500D01*
X141572897Y-58906398D01*
X141420197Y-58938855D01*
X141420192Y-58938857D01*
X141247270Y-59015848D01*
X141247265Y-59015851D01*
X141094129Y-59127111D01*
X140967466Y-59267785D01*
X140872821Y-59431715D01*
X140872818Y-59431722D01*
X140814327Y-59611740D01*
X140814326Y-59611744D01*
X140794540Y-59800000D01*
X140814326Y-59988256D01*
X140814327Y-59988259D01*
X140872818Y-60168277D01*
X140872821Y-60168284D01*
X140967467Y-60332216D01*
X140999493Y-60367784D01*
X141042650Y-60415715D01*
X141072880Y-60478706D01*
X141074500Y-60498687D01*
X141074500Y-61126312D01*
X141054815Y-61193351D01*
X141042650Y-61209284D01*
X140967466Y-61292784D01*
X140872821Y-61456715D01*
X140872818Y-61456722D01*
X140835074Y-61572888D01*
X140814326Y-61636744D01*
X140794540Y-61825000D01*
X109000000Y-61825000D01*
X109000000Y-53275370D01*
X134399500Y-53275370D01*
X134399501Y-53275376D01*
X134405908Y-53334983D01*
X134456202Y-53469828D01*
X134456206Y-53469835D01*
X134542452Y-53585044D01*
X134542455Y-53585047D01*
X134657664Y-53671293D01*
X134657671Y-53671297D01*
X134792517Y-53721591D01*
X134792516Y-53721591D01*
X134799444Y-53722335D01*
X134852127Y-53728000D01*
X136447872Y-53727999D01*
X136507483Y-53721591D01*
X136642331Y-53671296D01*
X136757546Y-53585046D01*
X136843796Y-53469831D01*
X136894091Y-53334983D01*
X136900500Y-53275373D01*
X136900499Y-53209360D01*
X136920183Y-53142324D01*
X136972986Y-53096568D01*
X137042144Y-53086624D01*
X137105700Y-53115648D01*
X137126073Y-53138238D01*
X137169320Y-53200000D01*
X137228402Y-53284377D01*
X137383123Y-53439098D01*
X137562361Y-53564602D01*
X137760670Y-53657075D01*
X137972023Y-53713707D01*
X138154926Y-53729708D01*
X138189998Y-53732777D01*
X138190000Y-53732777D01*
X138190002Y-53732777D01*
X138218254Y-53730305D01*
X138407977Y-53713707D01*
X138619330Y-53657075D01*
X138817639Y-53564602D01*
X138996877Y-53439098D01*
X139151598Y-53284377D01*
X139277102Y-53105139D01*
X139347618Y-52953914D01*
X139393790Y-52901477D01*
X139460984Y-52882325D01*
X139527865Y-52902541D01*
X139572381Y-52953914D01*
X139642898Y-53105139D01*
X139768402Y-53284377D01*
X139923123Y-53439098D01*
X140102361Y-53564602D01*
X140300670Y-53657075D01*
X140512023Y-53713707D01*
X140694926Y-53729708D01*
X140729998Y-53732777D01*
X140730000Y-53732777D01*
X140730002Y-53732777D01*
X140758254Y-53730305D01*
X140947977Y-53713707D01*
X141048950Y-53686651D01*
X141118798Y-53688314D01*
X141176660Y-53727476D01*
X141204165Y-53791704D01*
X141204363Y-53793464D01*
X141214326Y-53888256D01*
X141214327Y-53888259D01*
X141272818Y-54068277D01*
X141272821Y-54068284D01*
X141367466Y-54232215D01*
X141448998Y-54322766D01*
X141478465Y-54381546D01*
X141498535Y-54482445D01*
X141498536Y-54482449D01*
X141498537Y-54482452D01*
X141506332Y-54501270D01*
X141512347Y-54515792D01*
X141512347Y-54515793D01*
X141545685Y-54596281D01*
X141545687Y-54596284D01*
X141545688Y-54596286D01*
X141547192Y-54598537D01*
X141569600Y-54632071D01*
X141569601Y-54632073D01*
X141614140Y-54698731D01*
X141614141Y-54698732D01*
X141614142Y-54698733D01*
X141701267Y-54785858D01*
X141701268Y-54785858D01*
X141708335Y-54792925D01*
X141708334Y-54792925D01*
X141708338Y-54792928D01*
X143001263Y-56085855D01*
X143001267Y-56085858D01*
X143103708Y-56154308D01*
X143103715Y-56154312D01*
X143167504Y-56180734D01*
X143217548Y-56201463D01*
X143237597Y-56205451D01*
X143271196Y-56212134D01*
X143338392Y-56225501D01*
X143338394Y-56225501D01*
X143467721Y-56225501D01*
X143467741Y-56225500D01*
X146196252Y-56225500D01*
X146263291Y-56245185D01*
X146288400Y-56266526D01*
X146294126Y-56272885D01*
X146294130Y-56272889D01*
X146447265Y-56384148D01*
X146447270Y-56384151D01*
X146620192Y-56461142D01*
X146620197Y-56461144D01*
X146805354Y-56500500D01*
X146805355Y-56500500D01*
X146994644Y-56500500D01*
X146994646Y-56500500D01*
X147179803Y-56461144D01*
X147352730Y-56384151D01*
X147505871Y-56272888D01*
X147508788Y-56269647D01*
X147511600Y-56266526D01*
X147571087Y-56229879D01*
X147603748Y-56225500D01*
X148461607Y-56225500D01*
X148522029Y-56213481D01*
X148582452Y-56201463D01*
X148632496Y-56180734D01*
X148696286Y-56154312D01*
X148747509Y-56120084D01*
X148798733Y-56085858D01*
X148885858Y-55998733D01*
X148885858Y-55998731D01*
X148896066Y-55988524D01*
X148896069Y-55988520D01*
X149022774Y-55861818D01*
X149084097Y-55828333D01*
X149110454Y-55825500D01*
X149596252Y-55825500D01*
X149663291Y-55845185D01*
X149688400Y-55866526D01*
X149694126Y-55872885D01*
X149694130Y-55872889D01*
X149847265Y-55984148D01*
X149847270Y-55984151D01*
X150020192Y-56061142D01*
X150020197Y-56061144D01*
X150205354Y-56100500D01*
X150205355Y-56100500D01*
X150394644Y-56100500D01*
X150394646Y-56100500D01*
X150579803Y-56061144D01*
X150752730Y-55984151D01*
X150905871Y-55872888D01*
X150908788Y-55869647D01*
X150911600Y-55866526D01*
X150971087Y-55829879D01*
X151003748Y-55825500D01*
X151661607Y-55825500D01*
X151722029Y-55813481D01*
X151782452Y-55801463D01*
X151782455Y-55801461D01*
X151782458Y-55801461D01*
X151815787Y-55787654D01*
X151815786Y-55787654D01*
X151815792Y-55787652D01*
X151896286Y-55754312D01*
X151947509Y-55720084D01*
X151998733Y-55685858D01*
X152085858Y-55598733D01*
X152085859Y-55598731D01*
X152092925Y-55591665D01*
X152092931Y-55591658D01*
X152122775Y-55561816D01*
X152184099Y-55528333D01*
X152210453Y-55525500D01*
X152996252Y-55525500D01*
X153063291Y-55545185D01*
X153088400Y-55566526D01*
X153094126Y-55572885D01*
X153094130Y-55572889D01*
X153247265Y-55684148D01*
X153247270Y-55684151D01*
X153420192Y-55761142D01*
X153420197Y-55761144D01*
X153605354Y-55800500D01*
X153605355Y-55800500D01*
X153794644Y-55800500D01*
X153794646Y-55800500D01*
X153979803Y-55761144D01*
X154152730Y-55684151D01*
X154305871Y-55572888D01*
X154308788Y-55569647D01*
X154311600Y-55566526D01*
X154371087Y-55529879D01*
X154403748Y-55525500D01*
X156534263Y-55525500D01*
X156601302Y-55545185D01*
X156641650Y-55587500D01*
X156660512Y-55620170D01*
X156667467Y-55632216D01*
X156769185Y-55745185D01*
X156794129Y-55772888D01*
X156947265Y-55884148D01*
X156947270Y-55884151D01*
X157120192Y-55961142D01*
X157120197Y-55961144D01*
X157305354Y-56000500D01*
X157305355Y-56000500D01*
X157494644Y-56000500D01*
X157494646Y-56000500D01*
X157679803Y-55961144D01*
X157852730Y-55884151D01*
X158005871Y-55772888D01*
X158008788Y-55769647D01*
X158011600Y-55766526D01*
X158071087Y-55729879D01*
X158103748Y-55725500D01*
X160196252Y-55725500D01*
X160263291Y-55745185D01*
X160288400Y-55766526D01*
X160294126Y-55772885D01*
X160294130Y-55772889D01*
X160447265Y-55884148D01*
X160447270Y-55884151D01*
X160620192Y-55961142D01*
X160620197Y-55961144D01*
X160805354Y-56000500D01*
X160805355Y-56000500D01*
X160994644Y-56000500D01*
X160994646Y-56000500D01*
X161179803Y-55961144D01*
X161352730Y-55884151D01*
X161505871Y-55772888D01*
X161632533Y-55632216D01*
X161727179Y-55468284D01*
X161785674Y-55288256D01*
X161805460Y-55100000D01*
X161785674Y-54911744D01*
X161727179Y-54731716D01*
X161632533Y-54567784D01*
X161505871Y-54427112D01*
X161505870Y-54427111D01*
X161352734Y-54315851D01*
X161352729Y-54315848D01*
X161179807Y-54238857D01*
X161179802Y-54238855D01*
X161006459Y-54202011D01*
X160994646Y-54199500D01*
X160805354Y-54199500D01*
X160793541Y-54202011D01*
X160620197Y-54238855D01*
X160620192Y-54238857D01*
X160447270Y-54315848D01*
X160447265Y-54315851D01*
X160294130Y-54427110D01*
X160294126Y-54427114D01*
X160288400Y-54433474D01*
X160228913Y-54470121D01*
X160196252Y-54474500D01*
X158103748Y-54474500D01*
X158036709Y-54454815D01*
X158011600Y-54433474D01*
X158005873Y-54427114D01*
X158005869Y-54427110D01*
X157852734Y-54315851D01*
X157852729Y-54315848D01*
X157679807Y-54238857D01*
X157679802Y-54238855D01*
X157506459Y-54202011D01*
X157494646Y-54199500D01*
X157305354Y-54199500D01*
X157293541Y-54202011D01*
X157120197Y-54238855D01*
X157120193Y-54238857D01*
X157064219Y-54263779D01*
X157013783Y-54274500D01*
X156492888Y-54274500D01*
X156425849Y-54254815D01*
X156380094Y-54202011D01*
X156370150Y-54132853D01*
X156399175Y-54069297D01*
X156400738Y-54067528D01*
X156406488Y-54061142D01*
X156432533Y-54032216D01*
X156527179Y-53868284D01*
X156585674Y-53688256D01*
X156605460Y-53500000D01*
X156585674Y-53311744D01*
X156581858Y-53300000D01*
X158894540Y-53300000D01*
X158914326Y-53488256D01*
X158914327Y-53488259D01*
X158972818Y-53668277D01*
X158972821Y-53668284D01*
X159067467Y-53832216D01*
X159194129Y-53972888D01*
X159347265Y-54084148D01*
X159347270Y-54084151D01*
X159520192Y-54161142D01*
X159520197Y-54161144D01*
X159705354Y-54200500D01*
X159705355Y-54200500D01*
X159894644Y-54200500D01*
X159894646Y-54200500D01*
X160079803Y-54161144D01*
X160252730Y-54084151D01*
X160405871Y-53972888D01*
X160532533Y-53832216D01*
X160627179Y-53668284D01*
X160685674Y-53488256D01*
X160705460Y-53300000D01*
X160685674Y-53111744D01*
X160627179Y-52931716D01*
X160532533Y-52767784D01*
X160457350Y-52684284D01*
X160427120Y-52621292D01*
X160425500Y-52601312D01*
X160425500Y-51898687D01*
X160445185Y-51831648D01*
X160457350Y-51815715D01*
X160493264Y-51775828D01*
X160532533Y-51732216D01*
X160627179Y-51568284D01*
X160685674Y-51388256D01*
X160705460Y-51200000D01*
X160685674Y-51011744D01*
X160649366Y-50900000D01*
X164894540Y-50900000D01*
X164914326Y-51088256D01*
X164914327Y-51088259D01*
X164972818Y-51268277D01*
X164972821Y-51268284D01*
X165067467Y-51432216D01*
X165189977Y-51568277D01*
X165194129Y-51572888D01*
X165347265Y-51684148D01*
X165347270Y-51684151D01*
X165520192Y-51761142D01*
X165520197Y-51761144D01*
X165705354Y-51800500D01*
X165764548Y-51800500D01*
X165831587Y-51820185D01*
X165852229Y-51836819D01*
X167398404Y-53382994D01*
X167428654Y-53432356D01*
X167472819Y-53568280D01*
X167472821Y-53568284D01*
X167567467Y-53732216D01*
X167657506Y-53832214D01*
X167694129Y-53872888D01*
X167847265Y-53984148D01*
X167847270Y-53984151D01*
X168020192Y-54061142D01*
X168020197Y-54061144D01*
X168205354Y-54100500D01*
X168205355Y-54100500D01*
X168394644Y-54100500D01*
X168394646Y-54100500D01*
X168579803Y-54061144D01*
X168752730Y-53984151D01*
X168905871Y-53872888D01*
X169032533Y-53732216D01*
X169127179Y-53568284D01*
X169185674Y-53388256D01*
X169205460Y-53200000D01*
X169185674Y-53011744D01*
X169127179Y-52831716D01*
X169032533Y-52667784D01*
X168905871Y-52527112D01*
X168905870Y-52527111D01*
X168752734Y-52415851D01*
X168752729Y-52415848D01*
X168579807Y-52338857D01*
X168579802Y-52338855D01*
X168428797Y-52306759D01*
X168394646Y-52299500D01*
X168205354Y-52299500D01*
X168205353Y-52299500D01*
X168171199Y-52306759D01*
X168101532Y-52301441D01*
X168057739Y-52273149D01*
X166738960Y-50954370D01*
X166705475Y-50893047D01*
X166703323Y-50879671D01*
X166685674Y-50711744D01*
X166627179Y-50531716D01*
X166532533Y-50367784D01*
X166405871Y-50227112D01*
X166405870Y-50227111D01*
X166252734Y-50115851D01*
X166252729Y-50115848D01*
X166079807Y-50038857D01*
X166079802Y-50038855D01*
X165934001Y-50007865D01*
X165894646Y-49999500D01*
X165705354Y-49999500D01*
X165672897Y-50006398D01*
X165520197Y-50038855D01*
X165520192Y-50038857D01*
X165347270Y-50115848D01*
X165347265Y-50115851D01*
X165194129Y-50227111D01*
X165067466Y-50367785D01*
X164972821Y-50531715D01*
X164972818Y-50531722D01*
X164928609Y-50667785D01*
X164914326Y-50711744D01*
X164894540Y-50900000D01*
X160649366Y-50900000D01*
X160627179Y-50831716D01*
X160532533Y-50667784D01*
X160405871Y-50527112D01*
X160405870Y-50527111D01*
X160252734Y-50415851D01*
X160252729Y-50415848D01*
X160079807Y-50338857D01*
X160079802Y-50338855D01*
X159934001Y-50307865D01*
X159894646Y-50299500D01*
X159705354Y-50299500D01*
X159672897Y-50306398D01*
X159520197Y-50338855D01*
X159520192Y-50338857D01*
X159347270Y-50415848D01*
X159347265Y-50415851D01*
X159194129Y-50527111D01*
X159067466Y-50667785D01*
X158972821Y-50831715D01*
X158972818Y-50831722D01*
X158928609Y-50967785D01*
X158914326Y-51011744D01*
X158894540Y-51200000D01*
X158914326Y-51388256D01*
X158914327Y-51388259D01*
X158972818Y-51568277D01*
X158972821Y-51568284D01*
X159067467Y-51732216D01*
X159093514Y-51761144D01*
X159142650Y-51815715D01*
X159172880Y-51878706D01*
X159174500Y-51898687D01*
X159174500Y-52601312D01*
X159154815Y-52668351D01*
X159142650Y-52684284D01*
X159067466Y-52767784D01*
X158972821Y-52931715D01*
X158972818Y-52931722D01*
X158922488Y-53086624D01*
X158914326Y-53111744D01*
X158894540Y-53300000D01*
X156581858Y-53300000D01*
X156527179Y-53131716D01*
X156432533Y-52967784D01*
X156400063Y-52931722D01*
X156357350Y-52884284D01*
X156327120Y-52821292D01*
X156325500Y-52801312D01*
X156325500Y-52198687D01*
X156345185Y-52131648D01*
X156357350Y-52115715D01*
X156375891Y-52095122D01*
X156432533Y-52032216D01*
X156527179Y-51868284D01*
X156585674Y-51688256D01*
X156605460Y-51500000D01*
X156585674Y-51311744D01*
X156527179Y-51131716D01*
X156432533Y-50967784D01*
X156305871Y-50827112D01*
X156305870Y-50827111D01*
X156152734Y-50715851D01*
X156152729Y-50715848D01*
X155979807Y-50638857D01*
X155979802Y-50638855D01*
X155834001Y-50607865D01*
X155794646Y-50599500D01*
X155605354Y-50599500D01*
X155572897Y-50606398D01*
X155420197Y-50638855D01*
X155420192Y-50638857D01*
X155247270Y-50715848D01*
X155247265Y-50715851D01*
X155094129Y-50827111D01*
X154967466Y-50967785D01*
X154872821Y-51131715D01*
X154872818Y-51131722D01*
X154814327Y-51311740D01*
X154814326Y-51311744D01*
X154794540Y-51500000D01*
X154814326Y-51688256D01*
X154814327Y-51688259D01*
X154872818Y-51868277D01*
X154872821Y-51868284D01*
X154967467Y-52032216D01*
X155003896Y-52072674D01*
X155042650Y-52115715D01*
X155072880Y-52178706D01*
X155074500Y-52198687D01*
X155074500Y-52801312D01*
X155054815Y-52868351D01*
X155042650Y-52884284D01*
X154967466Y-52967784D01*
X154872821Y-53131715D01*
X154872818Y-53131722D01*
X154818142Y-53300000D01*
X154814326Y-53311744D01*
X154794540Y-53500000D01*
X154814326Y-53688256D01*
X154814327Y-53688259D01*
X154872818Y-53868277D01*
X154872821Y-53868284D01*
X154967467Y-54032216D01*
X154973445Y-54038855D01*
X154999262Y-54067528D01*
X155029492Y-54130520D01*
X155020867Y-54199855D01*
X154976125Y-54253520D01*
X154909473Y-54274478D01*
X154907112Y-54274500D01*
X154403748Y-54274500D01*
X154336709Y-54254815D01*
X154311600Y-54233474D01*
X154305873Y-54227114D01*
X154305869Y-54227110D01*
X154152734Y-54115851D01*
X154152729Y-54115848D01*
X153979807Y-54038857D01*
X153979802Y-54038855D01*
X153834001Y-54007865D01*
X153794646Y-53999500D01*
X153605354Y-53999500D01*
X153572897Y-54006398D01*
X153420197Y-54038855D01*
X153420192Y-54038857D01*
X153247270Y-54115848D01*
X153247265Y-54115851D01*
X153094130Y-54227110D01*
X153094126Y-54227114D01*
X153088400Y-54233474D01*
X153028913Y-54270121D01*
X152996252Y-54274500D01*
X151838389Y-54274500D01*
X151777971Y-54286518D01*
X151740259Y-54294019D01*
X151717550Y-54298536D01*
X151717548Y-54298537D01*
X151684207Y-54312347D01*
X151603718Y-54345685D01*
X151603709Y-54345690D01*
X151563007Y-54372888D01*
X151563006Y-54372889D01*
X151501268Y-54414140D01*
X151460594Y-54454815D01*
X151414142Y-54501267D01*
X151414139Y-54501270D01*
X151414127Y-54501280D01*
X151377229Y-54538180D01*
X151315907Y-54571666D01*
X151289547Y-54574500D01*
X151003748Y-54574500D01*
X150936709Y-54554815D01*
X150911600Y-54533474D01*
X150905873Y-54527114D01*
X150905869Y-54527110D01*
X150752734Y-54415851D01*
X150752729Y-54415848D01*
X150579807Y-54338857D01*
X150579802Y-54338855D01*
X150434001Y-54307865D01*
X150394646Y-54299500D01*
X150205354Y-54299500D01*
X150172897Y-54306398D01*
X150020197Y-54338855D01*
X150020192Y-54338857D01*
X149847270Y-54415848D01*
X149847265Y-54415851D01*
X149694130Y-54527110D01*
X149694126Y-54527114D01*
X149688400Y-54533474D01*
X149628913Y-54570121D01*
X149596252Y-54574500D01*
X148861606Y-54574500D01*
X148738393Y-54574500D01*
X148628865Y-54596286D01*
X148628864Y-54596285D01*
X148617551Y-54598536D01*
X148617545Y-54598538D01*
X148503716Y-54645687D01*
X148423182Y-54699499D01*
X148423181Y-54699499D01*
X148401270Y-54714139D01*
X148401267Y-54714141D01*
X148329551Y-54785858D01*
X148177227Y-54938182D01*
X148115907Y-54971666D01*
X148089548Y-54974500D01*
X147603748Y-54974500D01*
X147536709Y-54954815D01*
X147511600Y-54933474D01*
X147505873Y-54927114D01*
X147505869Y-54927110D01*
X147352734Y-54815851D01*
X147352729Y-54815848D01*
X147179807Y-54738857D01*
X147179802Y-54738855D01*
X147034001Y-54707865D01*
X146994646Y-54699500D01*
X146805354Y-54699500D01*
X146772897Y-54706398D01*
X146620197Y-54738855D01*
X146620192Y-54738857D01*
X146447270Y-54815848D01*
X146447265Y-54815851D01*
X146294130Y-54927110D01*
X146294126Y-54927114D01*
X146288400Y-54933474D01*
X146228913Y-54970121D01*
X146196252Y-54974500D01*
X143710453Y-54974500D01*
X143643414Y-54954815D01*
X143622772Y-54938181D01*
X142930659Y-54246068D01*
X142897174Y-54184745D01*
X142902158Y-54115053D01*
X142910947Y-54096397D01*
X142927179Y-54068284D01*
X142985674Y-53888256D01*
X142991720Y-53830729D01*
X143018303Y-53766117D01*
X143075600Y-53726132D01*
X143125844Y-53720165D01*
X143253474Y-53731331D01*
X143269999Y-53732777D01*
X143270000Y-53732777D01*
X143270002Y-53732777D01*
X143298254Y-53730305D01*
X143487977Y-53713707D01*
X143699330Y-53657075D01*
X143897639Y-53564602D01*
X144076877Y-53439098D01*
X144231598Y-53284377D01*
X144357102Y-53105139D01*
X144427618Y-52953914D01*
X144473790Y-52901477D01*
X144540984Y-52882325D01*
X144607865Y-52902541D01*
X144652381Y-52953914D01*
X144722898Y-53105139D01*
X144848402Y-53284377D01*
X145003123Y-53439098D01*
X145182361Y-53564602D01*
X145380670Y-53657075D01*
X145592023Y-53713707D01*
X145774926Y-53729708D01*
X145809998Y-53732777D01*
X145810000Y-53732777D01*
X145810002Y-53732777D01*
X145838254Y-53730305D01*
X146027977Y-53713707D01*
X146239330Y-53657075D01*
X146437639Y-53564602D01*
X146616877Y-53439098D01*
X146771598Y-53284377D01*
X146897102Y-53105139D01*
X146967618Y-52953914D01*
X147013790Y-52901477D01*
X147080984Y-52882325D01*
X147147865Y-52902541D01*
X147192381Y-52953914D01*
X147262898Y-53105139D01*
X147388402Y-53284377D01*
X147543123Y-53439098D01*
X147722361Y-53564602D01*
X147920670Y-53657075D01*
X148132023Y-53713707D01*
X148314926Y-53729708D01*
X148349998Y-53732777D01*
X148350000Y-53732777D01*
X148350002Y-53732777D01*
X148378254Y-53730305D01*
X148567977Y-53713707D01*
X148779330Y-53657075D01*
X148977639Y-53564602D01*
X149156877Y-53439098D01*
X149311598Y-53284377D01*
X149437102Y-53105139D01*
X149529575Y-52906830D01*
X149586207Y-52695477D01*
X149605277Y-52477500D01*
X149586207Y-52259523D01*
X149529575Y-52048170D01*
X149437102Y-51849862D01*
X149437100Y-51849859D01*
X149437099Y-51849857D01*
X149311599Y-51670624D01*
X149260991Y-51620016D01*
X149156877Y-51515902D01*
X148977639Y-51390398D01*
X148977640Y-51390398D01*
X148977638Y-51390397D01*
X148878484Y-51344161D01*
X148779330Y-51297925D01*
X148779326Y-51297924D01*
X148779322Y-51297922D01*
X148567977Y-51241293D01*
X148350002Y-51222223D01*
X148349998Y-51222223D01*
X148222151Y-51233408D01*
X148132023Y-51241293D01*
X148132020Y-51241293D01*
X147920677Y-51297922D01*
X147920668Y-51297926D01*
X147722361Y-51390398D01*
X147722357Y-51390400D01*
X147543121Y-51515902D01*
X147388402Y-51670621D01*
X147262900Y-51849857D01*
X147262898Y-51849861D01*
X147192382Y-52001083D01*
X147146209Y-52053522D01*
X147079016Y-52072674D01*
X147012135Y-52052458D01*
X146967618Y-52001083D01*
X146953118Y-51969988D01*
X146897102Y-51849862D01*
X146897100Y-51849859D01*
X146897099Y-51849857D01*
X146771599Y-51670624D01*
X146720991Y-51620016D01*
X146616877Y-51515902D01*
X146437639Y-51390398D01*
X146437640Y-51390398D01*
X146437638Y-51390397D01*
X146338484Y-51344161D01*
X146239330Y-51297925D01*
X146239326Y-51297924D01*
X146239322Y-51297922D01*
X146027977Y-51241293D01*
X145810002Y-51222223D01*
X145809998Y-51222223D01*
X145682151Y-51233408D01*
X145592023Y-51241293D01*
X145592020Y-51241293D01*
X145380677Y-51297922D01*
X145380668Y-51297926D01*
X145182361Y-51390398D01*
X145182357Y-51390400D01*
X145003121Y-51515902D01*
X144848402Y-51670621D01*
X144722900Y-51849857D01*
X144722898Y-51849861D01*
X144652382Y-52001083D01*
X144606209Y-52053522D01*
X144539016Y-52072674D01*
X144472135Y-52052458D01*
X144427618Y-52001083D01*
X144413118Y-51969988D01*
X144357102Y-51849862D01*
X144357100Y-51849859D01*
X144357099Y-51849857D01*
X144231599Y-51670624D01*
X144180991Y-51620016D01*
X144076877Y-51515902D01*
X143897639Y-51390398D01*
X143897640Y-51390398D01*
X143897638Y-51390397D01*
X143798484Y-51344161D01*
X143699330Y-51297925D01*
X143699326Y-51297924D01*
X143699322Y-51297922D01*
X143487977Y-51241293D01*
X143270002Y-51222223D01*
X143269998Y-51222223D01*
X143142151Y-51233408D01*
X143052023Y-51241293D01*
X143052020Y-51241293D01*
X142840677Y-51297922D01*
X142840668Y-51297926D01*
X142642361Y-51390398D01*
X142642357Y-51390400D01*
X142463121Y-51515902D01*
X142308402Y-51670621D01*
X142182900Y-51849857D01*
X142182898Y-51849861D01*
X142112382Y-52001083D01*
X142066209Y-52053522D01*
X141999016Y-52072674D01*
X141932135Y-52052458D01*
X141887618Y-52001083D01*
X141873118Y-51969988D01*
X141817102Y-51849862D01*
X141817100Y-51849859D01*
X141817099Y-51849857D01*
X141691599Y-51670624D01*
X141640991Y-51620016D01*
X141536877Y-51515902D01*
X141357639Y-51390398D01*
X141357640Y-51390398D01*
X141357638Y-51390397D01*
X141258484Y-51344161D01*
X141159330Y-51297925D01*
X141159326Y-51297924D01*
X141159322Y-51297922D01*
X140947977Y-51241293D01*
X140730002Y-51222223D01*
X140729998Y-51222223D01*
X140602151Y-51233408D01*
X140512023Y-51241293D01*
X140512020Y-51241293D01*
X140300677Y-51297922D01*
X140300668Y-51297926D01*
X140102361Y-51390398D01*
X140102357Y-51390400D01*
X139923121Y-51515902D01*
X139768402Y-51670621D01*
X139642900Y-51849857D01*
X139642898Y-51849861D01*
X139572382Y-52001083D01*
X139526209Y-52053522D01*
X139459016Y-52072674D01*
X139392135Y-52052458D01*
X139347618Y-52001083D01*
X139333118Y-51969988D01*
X139277102Y-51849862D01*
X139277100Y-51849859D01*
X139277099Y-51849857D01*
X139151599Y-51670624D01*
X139100991Y-51620016D01*
X138996877Y-51515902D01*
X138817639Y-51390398D01*
X138817640Y-51390398D01*
X138817638Y-51390397D01*
X138718484Y-51344161D01*
X138619330Y-51297925D01*
X138619326Y-51297924D01*
X138619322Y-51297922D01*
X138407977Y-51241293D01*
X138190002Y-51222223D01*
X138189998Y-51222223D01*
X138062151Y-51233408D01*
X137972023Y-51241293D01*
X137972020Y-51241293D01*
X137760677Y-51297922D01*
X137760668Y-51297926D01*
X137562361Y-51390398D01*
X137562357Y-51390400D01*
X137383121Y-51515902D01*
X137228402Y-51670621D01*
X137126074Y-51816762D01*
X137071497Y-51860387D01*
X137001999Y-51867581D01*
X136939644Y-51836058D01*
X136904230Y-51775828D01*
X136900499Y-51745639D01*
X136900499Y-51679629D01*
X136900498Y-51679623D01*
X136900497Y-51679616D01*
X136894091Y-51620017D01*
X136874793Y-51568277D01*
X136843797Y-51485171D01*
X136843793Y-51485164D01*
X136757547Y-51369955D01*
X136757544Y-51369952D01*
X136642335Y-51283706D01*
X136642328Y-51283702D01*
X136507482Y-51233408D01*
X136507483Y-51233408D01*
X136447883Y-51227001D01*
X136447881Y-51227000D01*
X136447873Y-51227000D01*
X136447864Y-51227000D01*
X134852129Y-51227000D01*
X134852123Y-51227001D01*
X134792516Y-51233408D01*
X134657671Y-51283702D01*
X134657664Y-51283706D01*
X134542455Y-51369952D01*
X134542452Y-51369955D01*
X134456206Y-51485164D01*
X134456202Y-51485171D01*
X134405908Y-51620017D01*
X134400468Y-51670621D01*
X134399501Y-51679623D01*
X134399500Y-51679635D01*
X134399500Y-53275370D01*
X109000000Y-53275370D01*
X109000000Y-45900000D01*
X153394540Y-45900000D01*
X153414326Y-46088256D01*
X153414327Y-46088259D01*
X153472818Y-46268277D01*
X153472821Y-46268284D01*
X153567467Y-46432216D01*
X153669185Y-46545185D01*
X153694129Y-46572888D01*
X153847265Y-46684148D01*
X153847270Y-46684151D01*
X154020192Y-46761142D01*
X154020197Y-46761144D01*
X154205354Y-46800500D01*
X154205355Y-46800500D01*
X154394644Y-46800500D01*
X154394646Y-46800500D01*
X154579803Y-46761144D01*
X154752730Y-46684151D01*
X154905871Y-46572888D01*
X154908788Y-46569647D01*
X154911600Y-46566526D01*
X154971087Y-46529879D01*
X155003748Y-46525500D01*
X159996252Y-46525500D01*
X160063291Y-46545185D01*
X160088400Y-46566526D01*
X160094126Y-46572885D01*
X160094130Y-46572889D01*
X160247265Y-46684148D01*
X160247270Y-46684151D01*
X160420192Y-46761142D01*
X160420197Y-46761144D01*
X160605354Y-46800500D01*
X160605355Y-46800500D01*
X160794644Y-46800500D01*
X160794646Y-46800500D01*
X160979803Y-46761144D01*
X161152730Y-46684151D01*
X161305871Y-46572888D01*
X161432533Y-46432216D01*
X161527179Y-46268284D01*
X161585674Y-46088256D01*
X161605460Y-45900000D01*
X161585674Y-45711744D01*
X161527179Y-45531716D01*
X161432533Y-45367784D01*
X161305871Y-45227112D01*
X161305870Y-45227111D01*
X161152734Y-45115851D01*
X161152729Y-45115848D01*
X160979807Y-45038857D01*
X160979802Y-45038855D01*
X160834001Y-45007865D01*
X160794646Y-44999500D01*
X160605354Y-44999500D01*
X160572897Y-45006398D01*
X160420197Y-45038855D01*
X160420192Y-45038857D01*
X160247270Y-45115848D01*
X160247265Y-45115851D01*
X160094130Y-45227110D01*
X160094126Y-45227114D01*
X160088400Y-45233474D01*
X160028913Y-45270121D01*
X159996252Y-45274500D01*
X157465160Y-45274500D01*
X157398121Y-45254815D01*
X157352366Y-45202011D01*
X157342422Y-45132853D01*
X157357772Y-45088501D01*
X157364376Y-45077061D01*
X157427179Y-44968284D01*
X157485674Y-44788256D01*
X157505460Y-44600000D01*
X157485674Y-44411744D01*
X157427179Y-44231716D01*
X157332533Y-44067784D01*
X157329284Y-44062156D01*
X157331929Y-44060628D01*
X157312779Y-44007421D01*
X157328417Y-43939323D01*
X157329344Y-43937879D01*
X157329284Y-43937844D01*
X157353071Y-43896642D01*
X157427179Y-43768284D01*
X157485674Y-43588256D01*
X157505460Y-43400000D01*
X157485674Y-43211744D01*
X157427179Y-43031716D01*
X157332533Y-42867784D01*
X157205871Y-42727112D01*
X157205870Y-42727111D01*
X157052734Y-42615851D01*
X157052729Y-42615848D01*
X156879807Y-42538857D01*
X156879802Y-42538855D01*
X156728693Y-42506736D01*
X156694646Y-42499500D01*
X156694645Y-42499500D01*
X156688289Y-42498149D01*
X156688561Y-42496865D01*
X156630460Y-42472957D01*
X156590478Y-42415658D01*
X156587822Y-42345839D01*
X156600650Y-42314233D01*
X156627179Y-42268284D01*
X156685674Y-42088256D01*
X156705460Y-41900000D01*
X156685674Y-41711744D01*
X156627179Y-41531716D01*
X156532533Y-41367784D01*
X156500063Y-41331722D01*
X156457350Y-41284284D01*
X156427120Y-41221292D01*
X156425500Y-41201312D01*
X156425500Y-40798687D01*
X156445185Y-40731648D01*
X156457350Y-40715715D01*
X156495911Y-40672888D01*
X156532533Y-40632216D01*
X156627179Y-40468284D01*
X156685674Y-40288256D01*
X156705460Y-40100000D01*
X156685674Y-39911744D01*
X156627179Y-39731716D01*
X156532533Y-39567784D01*
X156405871Y-39427112D01*
X156405870Y-39427111D01*
X156252734Y-39315851D01*
X156252729Y-39315848D01*
X156079807Y-39238857D01*
X156079802Y-39238855D01*
X155934001Y-39207865D01*
X155894646Y-39199500D01*
X155705354Y-39199500D01*
X155672897Y-39206398D01*
X155520197Y-39238855D01*
X155520192Y-39238857D01*
X155347270Y-39315848D01*
X155347265Y-39315851D01*
X155194129Y-39427111D01*
X155067466Y-39567785D01*
X154972821Y-39731715D01*
X154972818Y-39731722D01*
X154914327Y-39911740D01*
X154914326Y-39911744D01*
X154894540Y-40100000D01*
X154914326Y-40288256D01*
X154914327Y-40288259D01*
X154972818Y-40468277D01*
X154972821Y-40468284D01*
X155067467Y-40632216D01*
X155104089Y-40672888D01*
X155142650Y-40715715D01*
X155172880Y-40778706D01*
X155174500Y-40798687D01*
X155174500Y-41201312D01*
X155154815Y-41268351D01*
X155142650Y-41284284D01*
X155067466Y-41367784D01*
X154972821Y-41531715D01*
X154972818Y-41531722D01*
X154918142Y-41700000D01*
X154914326Y-41711744D01*
X154894540Y-41900000D01*
X154914326Y-42088256D01*
X154914327Y-42088259D01*
X154972818Y-42268277D01*
X154972819Y-42268279D01*
X154972821Y-42268284D01*
X155067467Y-42432216D01*
X155157063Y-42531722D01*
X155162380Y-42537627D01*
X155192610Y-42600618D01*
X155183985Y-42669953D01*
X155139244Y-42723619D01*
X155072591Y-42744577D01*
X155005189Y-42726172D01*
X154997345Y-42720917D01*
X154852734Y-42615851D01*
X154852729Y-42615848D01*
X154679807Y-42538857D01*
X154679802Y-42538855D01*
X154534001Y-42507865D01*
X154494646Y-42499500D01*
X154305354Y-42499500D01*
X154272897Y-42506398D01*
X154120197Y-42538855D01*
X154120192Y-42538857D01*
X153947270Y-42615848D01*
X153947265Y-42615851D01*
X153794129Y-42727111D01*
X153667466Y-42867785D01*
X153572821Y-43031715D01*
X153572818Y-43031722D01*
X153514327Y-43211740D01*
X153514326Y-43211744D01*
X153494540Y-43400000D01*
X153514326Y-43588256D01*
X153514327Y-43588259D01*
X153572818Y-43768277D01*
X153572821Y-43768284D01*
X153670716Y-43937844D01*
X153668150Y-43939325D01*
X153687250Y-43993098D01*
X153671327Y-44061129D01*
X153670680Y-44062135D01*
X153670716Y-44062156D01*
X153572821Y-44231715D01*
X153572818Y-44231722D01*
X153514327Y-44411740D01*
X153514326Y-44411744D01*
X153494540Y-44600000D01*
X153514326Y-44788256D01*
X153514327Y-44788259D01*
X153572818Y-44968277D01*
X153572821Y-44968284D01*
X153666220Y-45130057D01*
X153682693Y-45197958D01*
X153659840Y-45263985D01*
X153650983Y-45275029D01*
X153567466Y-45367784D01*
X153472821Y-45531715D01*
X153472818Y-45531722D01*
X153414327Y-45711740D01*
X153414326Y-45711744D01*
X153394540Y-45900000D01*
X109000000Y-45900000D01*
X109000000Y-42900000D01*
X138794540Y-42900000D01*
X138814326Y-43088256D01*
X138814327Y-43088259D01*
X138872818Y-43268277D01*
X138872821Y-43268284D01*
X138967467Y-43432216D01*
X139069185Y-43545185D01*
X139094129Y-43572888D01*
X139247265Y-43684148D01*
X139247270Y-43684151D01*
X139420192Y-43761142D01*
X139420197Y-43761144D01*
X139605354Y-43800500D01*
X139605355Y-43800500D01*
X139794644Y-43800500D01*
X139794646Y-43800500D01*
X139979803Y-43761144D01*
X140152730Y-43684151D01*
X140305871Y-43572888D01*
X140308788Y-43569647D01*
X140311600Y-43566526D01*
X140371087Y-43529879D01*
X140403748Y-43525500D01*
X141096252Y-43525500D01*
X141163291Y-43545185D01*
X141188400Y-43566526D01*
X141194126Y-43572885D01*
X141194130Y-43572889D01*
X141347265Y-43684148D01*
X141347270Y-43684151D01*
X141520192Y-43761142D01*
X141520197Y-43761144D01*
X141705354Y-43800500D01*
X141705355Y-43800500D01*
X141894644Y-43800500D01*
X141894646Y-43800500D01*
X142079803Y-43761144D01*
X142252730Y-43684151D01*
X142405871Y-43572888D01*
X142532533Y-43432216D01*
X142627179Y-43268284D01*
X142685674Y-43088256D01*
X142705460Y-42900000D01*
X142685674Y-42711744D01*
X142629100Y-42537627D01*
X142627181Y-42531722D01*
X142627180Y-42531721D01*
X142627179Y-42531716D01*
X142558060Y-42411999D01*
X142541588Y-42344100D01*
X142558061Y-42288000D01*
X142569448Y-42268277D01*
X142627179Y-42168284D01*
X142685674Y-41988256D01*
X142705460Y-41800000D01*
X142685674Y-41611744D01*
X142627179Y-41431716D01*
X142532533Y-41267784D01*
X142405871Y-41127112D01*
X142405870Y-41127111D01*
X142252734Y-41015851D01*
X142252729Y-41015848D01*
X142079807Y-40938857D01*
X142079802Y-40938855D01*
X141934001Y-40907865D01*
X141894646Y-40899500D01*
X141705354Y-40899500D01*
X141672897Y-40906398D01*
X141520197Y-40938855D01*
X141520192Y-40938857D01*
X141347270Y-41015848D01*
X141347265Y-41015851D01*
X141299138Y-41050818D01*
X141233331Y-41074298D01*
X141226253Y-41074500D01*
X140403748Y-41074500D01*
X140336709Y-41054815D01*
X140311600Y-41033474D01*
X140305873Y-41027114D01*
X140305869Y-41027110D01*
X140152734Y-40915851D01*
X140152729Y-40915848D01*
X139979807Y-40838857D01*
X139979802Y-40838855D01*
X139834001Y-40807865D01*
X139794646Y-40799500D01*
X139605354Y-40799500D01*
X139572897Y-40806398D01*
X139420197Y-40838855D01*
X139420192Y-40838857D01*
X139247270Y-40915848D01*
X139247265Y-40915851D01*
X139094129Y-41027111D01*
X138967466Y-41167785D01*
X138872821Y-41331715D01*
X138872818Y-41331722D01*
X138814327Y-41511740D01*
X138814326Y-41511744D01*
X138794540Y-41700000D01*
X138814326Y-41888256D01*
X138814327Y-41888259D01*
X138872818Y-42068277D01*
X138872821Y-42068284D01*
X138970716Y-42237844D01*
X138968150Y-42239325D01*
X138987250Y-42293098D01*
X138971327Y-42361129D01*
X138970680Y-42362135D01*
X138970716Y-42362156D01*
X138872821Y-42531715D01*
X138872818Y-42531722D01*
X138814327Y-42711740D01*
X138814326Y-42711744D01*
X138794540Y-42900000D01*
X109000000Y-42900000D01*
X109000000Y-40668030D01*
X109019685Y-40600991D01*
X109072489Y-40555236D01*
X109141647Y-40545292D01*
X109205203Y-40574317D01*
X109232528Y-40608049D01*
X109286215Y-40705189D01*
X109286218Y-40705194D01*
X109494193Y-40998306D01*
X109566844Y-41079601D01*
X110884728Y-39761717D01*
X110970278Y-39879466D01*
X111120534Y-40029722D01*
X111238281Y-40115270D01*
X110780050Y-40573501D01*
X110818109Y-40481619D01*
X110818109Y-40382163D01*
X110780049Y-40290277D01*
X110709723Y-40219951D01*
X110617837Y-40181891D01*
X110518381Y-40181891D01*
X110426495Y-40219951D01*
X110356169Y-40290277D01*
X110318109Y-40382163D01*
X110318109Y-40481619D01*
X110356169Y-40573505D01*
X110426495Y-40643831D01*
X110518381Y-40681891D01*
X110617837Y-40681891D01*
X110709719Y-40643832D01*
X109920397Y-41433154D01*
X110001693Y-41505806D01*
X110294805Y-41713781D01*
X110294810Y-41713784D01*
X110609386Y-41887644D01*
X110609390Y-41887646D01*
X110941447Y-42025187D01*
X111286805Y-42124683D01*
X111286814Y-42124685D01*
X111641141Y-42184887D01*
X111641153Y-42184889D01*
X112000000Y-42205041D01*
X112358846Y-42184889D01*
X112358858Y-42184887D01*
X112713185Y-42124685D01*
X112713194Y-42124683D01*
X113058552Y-42025187D01*
X113390609Y-41887646D01*
X113390613Y-41887644D01*
X113705189Y-41713784D01*
X113705194Y-41713781D01*
X113998299Y-41505811D01*
X113998322Y-41505793D01*
X114079602Y-41433155D01*
X114079602Y-41433154D01*
X113290279Y-40643832D01*
X113382163Y-40681891D01*
X113481619Y-40681891D01*
X113573505Y-40643831D01*
X113643831Y-40573505D01*
X113681891Y-40481619D01*
X113681891Y-40382163D01*
X113643832Y-40290279D01*
X114433154Y-41079602D01*
X114433155Y-41079602D01*
X114505793Y-40998322D01*
X114505811Y-40998299D01*
X114713781Y-40705194D01*
X114713784Y-40705189D01*
X114887644Y-40390613D01*
X114887646Y-40390609D01*
X115025187Y-40058552D01*
X115042056Y-40000000D01*
X145894540Y-40000000D01*
X145914326Y-40188256D01*
X145914327Y-40188259D01*
X145972818Y-40368277D01*
X145972821Y-40368284D01*
X146067467Y-40532216D01*
X146135748Y-40608049D01*
X146194129Y-40672888D01*
X146347265Y-40784148D01*
X146347270Y-40784151D01*
X146520192Y-40861142D01*
X146520197Y-40861144D01*
X146705354Y-40900500D01*
X146764548Y-40900500D01*
X146831587Y-40920185D01*
X146852229Y-40936819D01*
X147861038Y-41945628D01*
X147894523Y-42006951D01*
X147896678Y-42020347D01*
X147897187Y-42025187D01*
X147914326Y-42188256D01*
X147914327Y-42188259D01*
X147972818Y-42368277D01*
X147972821Y-42368284D01*
X148067467Y-42532216D01*
X148129057Y-42600618D01*
X148194129Y-42672888D01*
X148347265Y-42784148D01*
X148347270Y-42784151D01*
X148520192Y-42861142D01*
X148520197Y-42861144D01*
X148705354Y-42900500D01*
X148705355Y-42900500D01*
X148894644Y-42900500D01*
X148894646Y-42900500D01*
X149079803Y-42861144D01*
X149252730Y-42784151D01*
X149405871Y-42672888D01*
X149532533Y-42532216D01*
X149627179Y-42368284D01*
X149685674Y-42188256D01*
X149705460Y-42000000D01*
X149685674Y-41811744D01*
X149627179Y-41631716D01*
X149532533Y-41467784D01*
X149405871Y-41327112D01*
X149405870Y-41327111D01*
X149252734Y-41215851D01*
X149252729Y-41215848D01*
X149079807Y-41138857D01*
X149079802Y-41138855D01*
X148934001Y-41107865D01*
X148894646Y-41099500D01*
X148894645Y-41099500D01*
X148835452Y-41099500D01*
X148768413Y-41079815D01*
X148747771Y-41063181D01*
X147738960Y-40054370D01*
X147705475Y-39993047D01*
X147703323Y-39979671D01*
X147685674Y-39811744D01*
X147627179Y-39631716D01*
X147532533Y-39467784D01*
X147405871Y-39327112D01*
X147390369Y-39315849D01*
X147252734Y-39215851D01*
X147252729Y-39215848D01*
X147079807Y-39138857D01*
X147079802Y-39138855D01*
X146926388Y-39106247D01*
X146894646Y-39099500D01*
X146705354Y-39099500D01*
X146673612Y-39106247D01*
X146520197Y-39138855D01*
X146520192Y-39138857D01*
X146347270Y-39215848D01*
X146347265Y-39215851D01*
X146194129Y-39327111D01*
X146067466Y-39467785D01*
X145972821Y-39631715D01*
X145972818Y-39631722D01*
X145914327Y-39811740D01*
X145914326Y-39811744D01*
X145894540Y-40000000D01*
X115042056Y-40000000D01*
X115124683Y-39713194D01*
X115124685Y-39713185D01*
X115184887Y-39358858D01*
X115184889Y-39358846D01*
X115205041Y-39000000D01*
X115184889Y-38641153D01*
X115184887Y-38641141D01*
X115124685Y-38286814D01*
X115124683Y-38286805D01*
X115025187Y-37941447D01*
X114887646Y-37609390D01*
X114887644Y-37609386D01*
X114713784Y-37294810D01*
X114713781Y-37294805D01*
X114505806Y-37001693D01*
X114433154Y-36920397D01*
X113643832Y-37709718D01*
X113681891Y-37617837D01*
X113681891Y-37518381D01*
X113643831Y-37426495D01*
X113573505Y-37356169D01*
X113481619Y-37318109D01*
X113382163Y-37318109D01*
X113290277Y-37356169D01*
X113219951Y-37426495D01*
X113181891Y-37518381D01*
X113181891Y-37617837D01*
X113219951Y-37709723D01*
X113290277Y-37780049D01*
X113382163Y-37818109D01*
X113481619Y-37818109D01*
X113573500Y-37780050D01*
X113115270Y-38238281D01*
X113029722Y-38120534D01*
X112879466Y-37970278D01*
X112761717Y-37884729D01*
X114079601Y-36566844D01*
X114079602Y-36566844D01*
X113998306Y-36494193D01*
X113705194Y-36286218D01*
X113705189Y-36286215D01*
X113608049Y-36232528D01*
X113558896Y-36182871D01*
X113544393Y-36114523D01*
X113569143Y-36049184D01*
X113625289Y-36007599D01*
X113668030Y-36000000D01*
X134843874Y-36000000D01*
X134910913Y-36019685D01*
G37*
%TD.AperFunction*%
%TA.AperFunction,Conductor*%
G36*
X174433154Y-143079602D02*
G01*
X174433155Y-143079602D01*
X174505793Y-142998322D01*
X174505811Y-142998299D01*
X174713781Y-142705194D01*
X174713784Y-142705189D01*
X174767472Y-142608049D01*
X174817129Y-142558896D01*
X174885477Y-142544393D01*
X174950816Y-142569143D01*
X174992401Y-142625289D01*
X175000000Y-142668030D01*
X175000000Y-143876000D01*
X174980315Y-143943039D01*
X174927511Y-143988794D01*
X174876000Y-144000000D01*
X173668030Y-144000000D01*
X173600991Y-143980315D01*
X173555236Y-143927511D01*
X173545292Y-143858353D01*
X173574317Y-143794797D01*
X173608049Y-143767472D01*
X173705189Y-143713784D01*
X173705194Y-143713781D01*
X173998299Y-143505811D01*
X173998322Y-143505793D01*
X174079602Y-143433155D01*
X174079602Y-143433154D01*
X173290279Y-142643832D01*
X173382163Y-142681891D01*
X173481619Y-142681891D01*
X173573505Y-142643831D01*
X173643831Y-142573505D01*
X173681891Y-142481619D01*
X173681891Y-142382163D01*
X173643832Y-142290280D01*
X174433154Y-143079602D01*
G37*
%TD.AperFunction*%
%TA.AperFunction,Conductor*%
G36*
X113573502Y-142219949D02*
G01*
X113481619Y-142181891D01*
X113382163Y-142181891D01*
X113290277Y-142219951D01*
X113219951Y-142290277D01*
X113181891Y-142382163D01*
X113181891Y-142481619D01*
X113219949Y-142573502D01*
X112761718Y-142115270D01*
X112879466Y-142029722D01*
X113029722Y-141879466D01*
X113115270Y-141761718D01*
X113573502Y-142219949D01*
G37*
%TD.AperFunction*%
%TA.AperFunction,Conductor*%
G36*
X173573501Y-142219949D02*
G01*
X173481619Y-142181891D01*
X173382163Y-142181891D01*
X173290277Y-142219951D01*
X173219951Y-142290277D01*
X173181891Y-142382163D01*
X173181891Y-142481619D01*
X173219949Y-142573502D01*
X172761718Y-142115270D01*
X172879466Y-142029722D01*
X173029722Y-141879466D01*
X173115270Y-141761718D01*
X173573501Y-142219949D01*
G37*
%TD.AperFunction*%
%TA.AperFunction,Conductor*%
G36*
X111238282Y-139884729D02*
G01*
X111120534Y-139970278D01*
X110970278Y-140120534D01*
X110884729Y-140238282D01*
X110426496Y-139780049D01*
X110518381Y-139818109D01*
X110617837Y-139818109D01*
X110709723Y-139780049D01*
X110780049Y-139709723D01*
X110818109Y-139617837D01*
X110818109Y-139518381D01*
X110780049Y-139426496D01*
X111238282Y-139884729D01*
G37*
%TD.AperFunction*%
%TA.AperFunction,Conductor*%
G36*
X171238282Y-139884729D02*
G01*
X171120534Y-139970278D01*
X170970278Y-140120534D01*
X170884729Y-140238282D01*
X170426496Y-139780049D01*
X170518381Y-139818109D01*
X170617837Y-139818109D01*
X170709723Y-139780049D01*
X170780049Y-139709723D01*
X170818109Y-139617837D01*
X170818109Y-139518381D01*
X170780049Y-139426496D01*
X171238282Y-139884729D01*
G37*
%TD.AperFunction*%
%TA.AperFunction,Conductor*%
G36*
X113573502Y-40219949D02*
G01*
X113481619Y-40181891D01*
X113382163Y-40181891D01*
X113290277Y-40219951D01*
X113219951Y-40290277D01*
X113181891Y-40382163D01*
X113181891Y-40481619D01*
X113219949Y-40573502D01*
X112761718Y-40115270D01*
X112879466Y-40029722D01*
X113029722Y-39879466D01*
X113115270Y-39761718D01*
X113573502Y-40219949D01*
G37*
%TD.AperFunction*%
%TA.AperFunction,Conductor*%
G36*
X173573501Y-40219949D02*
G01*
X173481619Y-40181891D01*
X173382163Y-40181891D01*
X173290277Y-40219951D01*
X173219951Y-40290277D01*
X173181891Y-40382163D01*
X173181891Y-40481619D01*
X173219949Y-40573502D01*
X172761718Y-40115270D01*
X172879466Y-40029722D01*
X173029722Y-39879466D01*
X173115270Y-39761718D01*
X173573501Y-40219949D01*
G37*
%TD.AperFunction*%
%TA.AperFunction,Conductor*%
G36*
X111238282Y-37884729D02*
G01*
X111120534Y-37970278D01*
X110970278Y-38120534D01*
X110884729Y-38238282D01*
X110426496Y-37780049D01*
X110518381Y-37818109D01*
X110617837Y-37818109D01*
X110709723Y-37780049D01*
X110780049Y-37709723D01*
X110818109Y-37617837D01*
X110818109Y-37518381D01*
X110780049Y-37426496D01*
X111238282Y-37884729D01*
G37*
%TD.AperFunction*%
%TA.AperFunction,Conductor*%
G36*
X171238282Y-37884729D02*
G01*
X171120534Y-37970278D01*
X170970278Y-38120534D01*
X170884729Y-38238282D01*
X170426496Y-37780049D01*
X170518381Y-37818109D01*
X170617837Y-37818109D01*
X170709723Y-37780049D01*
X170780049Y-37709723D01*
X170818109Y-37617837D01*
X170818109Y-37518381D01*
X170780049Y-37426496D01*
X171238282Y-37884729D01*
G37*
%TD.AperFunction*%
%TA.AperFunction,Conductor*%
G36*
X174943039Y-36019685D02*
G01*
X174988794Y-36072489D01*
X175000000Y-36124000D01*
X175000000Y-37331969D01*
X174980315Y-37399008D01*
X174927511Y-37444763D01*
X174858353Y-37454707D01*
X174794797Y-37425682D01*
X174767473Y-37391951D01*
X174713788Y-37294816D01*
X174713781Y-37294805D01*
X174505806Y-37001693D01*
X174433154Y-36920397D01*
X173643832Y-37709718D01*
X173681891Y-37617837D01*
X173681891Y-37518381D01*
X173643831Y-37426495D01*
X173573505Y-37356169D01*
X173481619Y-37318109D01*
X173382163Y-37318109D01*
X173290277Y-37356169D01*
X173219951Y-37426495D01*
X173181891Y-37518381D01*
X173181891Y-37617837D01*
X173219951Y-37709723D01*
X173290277Y-37780049D01*
X173382163Y-37818109D01*
X173481619Y-37818109D01*
X173573500Y-37780050D01*
X173115270Y-38238281D01*
X173029722Y-38120534D01*
X172879466Y-37970278D01*
X172761717Y-37884729D01*
X174079601Y-36566844D01*
X174079602Y-36566844D01*
X173998306Y-36494193D01*
X173705194Y-36286218D01*
X173705189Y-36286215D01*
X173608049Y-36232528D01*
X173558896Y-36182871D01*
X173544393Y-36114523D01*
X173569143Y-36049184D01*
X173625289Y-36007599D01*
X173668030Y-36000000D01*
X174876000Y-36000000D01*
X174943039Y-36019685D01*
G37*
%TD.AperFunction*%
%TA.AperFunction,Conductor*%
G36*
X110399009Y-36019685D02*
G01*
X110444764Y-36072489D01*
X110454708Y-36141647D01*
X110425683Y-36205203D01*
X110391951Y-36232528D01*
X110294810Y-36286215D01*
X110294805Y-36286218D01*
X110001693Y-36494193D01*
X109920397Y-36566844D01*
X110709721Y-37356168D01*
X110617837Y-37318109D01*
X110518381Y-37318109D01*
X110426495Y-37356169D01*
X110356169Y-37426495D01*
X110318109Y-37518381D01*
X110318109Y-37617837D01*
X110356168Y-37709721D01*
X109566844Y-36920397D01*
X109494193Y-37001693D01*
X109286218Y-37294805D01*
X109286211Y-37294816D01*
X109232527Y-37391951D01*
X109182871Y-37441103D01*
X109114523Y-37455606D01*
X109049184Y-37430856D01*
X109007599Y-37374709D01*
X109000000Y-37331969D01*
X109000000Y-36124000D01*
X109019685Y-36056961D01*
X109072489Y-36011206D01*
X109124000Y-36000000D01*
X110331970Y-36000000D01*
X110399009Y-36019685D01*
G37*
%TD.AperFunction*%
%TD*%
M02*
