M48
; DRILL file {KiCad 8.0.0-8.0.0-1~ubuntu22.04.1} date 2024-04-15T16:10:20-0600
; FORMAT={-:-/ absolute / inch / decimal}
; #@! TF.CreationDate,2024-04-15T16:10:20-06:00
; #@! TF.GenerationSoftware,Kicad,Pcbnew,8.0.0-8.0.0-1~ubuntu22.04.1
; #@! TF.FileFunction,MixedPlating,1,2
FMAT,2
INCH
; #@! TA.AperFunction,Plated,PTH,ViaDrill
T1C0.0157
; #@! TA.AperFunction,Plated,PTH,ComponentDrill
T2C0.0197
; #@! TA.AperFunction,Plated,PTH,ComponentDrill
T3C0.0276
; #@! TA.AperFunction,Plated,PTH,ComponentDrill
T4C0.0394
; #@! TA.AperFunction,Plated,PTH,ComponentDrill
T5C0.0472
; #@! TA.AperFunction,Plated,PTH,ComponentDrill
T6C0.0689
; #@! TA.AperFunction,Plated,PTH,ComponentDrill
T7C0.0690
; #@! TA.AperFunction,Plated,PTH,ComponentDrill
T8C0.1063
; #@! TA.AperFunction,Plated,PTH,ComponentDrill
T9C0.2126
%
G90
G05
T1
X4.4291Y-3.7638
X4.5276Y-3.5394
X4.5394Y-4.0551
X4.6063Y-3.6339
X4.6063Y-3.7362
X4.6181Y-2.531
X4.7077Y-3.7756
X4.7717Y-2.531
X4.8819Y-3.7795
X4.9016Y-3.6969
X4.9291Y-2.531
X4.9764Y-4.2598
X5.0197Y-3.7598
X5.0433Y-3.7165
X5.0591Y-2.9449
X5.0866Y-2.531
X5.0984Y-4.0236
X5.0984Y-4.0945
X5.0984Y-4.2913
X5.0984Y-4.5167
X5.1024Y-3.937
X5.1929Y-3.5778
X5.2047Y-4.2598
X5.2283Y-2.9803
X5.2362Y-3.6181
X5.248Y-3.5354
X5.2717Y-2.5748
X5.2953Y-3.315
X5.3071Y-3.4331
X5.3307Y-3.8346
X5.3661Y-4.0984
X5.3743Y-3.8382
X5.3819Y-2.9803
X5.4134Y-2.5709
X5.4134Y-3.8425
X5.4213Y-4.0984
X5.4449Y-3.3307
X5.4528Y-3.8465
X5.4572Y-4.0714
X5.4724Y-4.2913
X5.4852Y-3.1535
X5.4867Y-4.0418
X5.4921Y-3.8504
X5.5Y-1.6417
X5.5Y-1.689
X5.5153Y-3.5855
X5.5197Y-4.0157
X5.5276Y-4.5394
X5.5335Y-3.9227
X5.5354Y-2.9331
X5.5512Y-2.5748
X5.5551Y-3.3346
X5.5603Y-3.5839
X5.5827Y-1.6457
X5.5827Y-1.689
X5.5906Y-3.9213
X5.5945Y-2.1142
X5.6063Y-4.0472
X5.6237Y-4.1792
X5.6299Y-3.9488
X5.6417Y-4.3031
X5.6417Y-4.5
X5.6457Y-4.7913
X5.6496Y-3.3937
X5.6496Y-4.252
X5.6535Y-3.7205
X5.6535Y-4.1535
X5.6535Y-4.8701
X5.6575Y-4.6693
X5.6575Y-5.0236
X5.6575Y-5.3701
X5.6614Y-3.6142
X5.6614Y-4.3701
X5.6732Y-3.4764
X5.6929Y-2.5748
X5.6929Y-2.9331
X5.6969Y-3.2165
X5.7008Y-3.126
X5.7795Y-1.5748
X5.7835Y-2.189
X5.8346Y-2.5709
X5.8386Y-3.3228
X5.8465Y-5.0236
X5.8543Y-2.937
X5.8543Y-3.8701
X5.8583Y-1.6535
X5.8701Y-3.7205
X5.8819Y-4.1457
X5.9173Y-2.1732
X5.9252Y-4.7913
X5.9291Y-4.1417
X5.937Y-3.5512
X5.9685Y-4.5
X5.9724Y-2.5748
X5.9724Y-4.5433
X5.9724Y-4.6696
X5.9724Y-5.5591
X5.9764Y-4.1378
X5.9882Y-3.5197
X6.0157Y-2.9291
X6.0315Y-4.8268
X6.0433Y-3.311
X6.0433Y-5.3858
X6.0512Y-2.1614
X6.0591Y-4.063
X6.0669Y-4.6378
X6.0669Y-4.7008
X6.0748Y-1.8071
X6.0787Y-1.7087
X6.0787Y-1.7559
X6.1102Y-2.5709
X6.1102Y-3.9685
X6.122Y-4.3622
X6.1299Y-2.0276
X6.1299Y-2.1063
X6.1339Y-1.5787
X6.1339Y-1.6496
X6.1417Y-3.7402
X6.1457Y-4.315
X6.1535Y-4.2717
X6.1575Y-4.2047
X6.1619Y-4.0281
X6.1654Y-1.7087
X6.1654Y-1.7559
X6.1654Y-4.5148
X6.1654Y-4.6981
X6.1732Y-2.9213
X6.1969Y-2.1693
X6.1969Y-4.9173
X6.1998Y-4.5433
X6.2283Y-4.5787
X6.2323Y-4.7047
X6.2362Y-5.3858
X6.252Y-2.5748
X6.2835Y-4.5787
X6.2835Y-4.7008
X6.2913Y-2.0157
X6.2913Y-2.0984
X6.3071Y-5.563
X6.3268Y-1.8071
X6.3307Y-3.9409
X6.3307Y-4.5787
X6.3307Y-4.7047
X6.3346Y-2.1693
X6.3622Y-4.9213
X6.374Y-4.5787
X6.374Y-4.7047
X6.4026Y-4.5118
X6.4267Y-3.0891
X6.4528Y-3.126
X6.4567Y-2.5231
X6.5079Y-3.3386
X6.5276Y-2.0039
X6.5837Y-3.5354
X6.6063Y-2.5231
X6.6181Y-4.3661
X6.6181Y-4.8701
X6.6181Y-5.3701
X6.622Y-3.8701
X6.623Y-3.5354
X6.626Y-2.0945
X6.6575Y-3.5039
X6.6732Y-3.8031
X6.6969Y-3.4803
X6.7205Y-3.2874
X6.7283Y-3.3504
X6.7283Y-3.4449
X6.7323Y-3.7047
X6.7717Y-2.5153
X6.8504Y-3.1378
X6.8543Y-2.7953
X6.8937Y-3.1024
T2
X4.3297Y-1.5354
X4.3297Y-5.5512
X4.3531Y-1.4791
X4.3531Y-1.5918
X4.3531Y-5.4948
X4.3531Y-5.6076
X4.4094Y-1.4557
X4.4094Y-1.6152
X4.4094Y-5.4715
X4.4094Y-5.6309
X4.4658Y-1.4791
X4.4658Y-1.5918
X4.4658Y-5.4948
X4.4658Y-5.6076
X4.4892Y-1.5354
X4.4892Y-5.5512
X6.6919Y-1.5354
X6.6919Y-5.5512
X6.7153Y-1.4791
X6.7153Y-1.5918
X6.7153Y-5.4948
X6.7153Y-5.6076
X6.7717Y-1.4557
X6.7717Y-1.6152
X6.7717Y-5.4715
X6.7717Y-5.6309
X6.828Y-1.4791
X6.828Y-1.5918
X6.828Y-5.4948
X6.828Y-5.6076
X6.8514Y-1.5354
X6.8514Y-5.5512
T3
X5.122Y-3.1654
X6.0709Y-3.2008
X6.4882Y-3.4882
T4
X5.3406Y-1.466
X5.3406Y-2.066
X5.4406Y-1.466
X5.4406Y-2.066
X5.5406Y-1.466
X5.5406Y-2.066
X5.6406Y-1.466
X5.6406Y-2.066
X5.7406Y-1.466
X5.7406Y-2.066
X5.8406Y-1.466
X5.8406Y-2.066
T5
X6.7638Y-4.5433
T6
X4.8346Y-5.1972
X4.8361Y-4.626
X4.8361Y-4.898
X5.0157Y-5.1972
X5.0172Y-4.626
X5.0172Y-4.898
X5.1983Y-4.626
X5.1983Y-4.898
T7
X4.8349Y-3.9794
X4.8349Y-4.1514
X4.8349Y-4.4094
X5.0159Y-3.9794
X5.0159Y-4.1514
X5.0159Y-4.4094
X5.1969Y-3.9794
X5.1969Y-4.1514
X5.1969Y-4.4094
T8
X4.4094Y-1.5354
X4.4094Y-5.5512
X6.7717Y-1.5354
X6.7717Y-5.5512
T9
X4.8425Y-3.2677
X6.2992Y-3.2677
M30
