M48
; DRILL file {KiCad 8.0.0-8.0.0-1~ubuntu22.04.1} date 2024-03-13T22:55:37-0600
; FORMAT={-:-/ absolute / metric / decimal}
; #@! TF.CreationDate,2024-03-13T22:55:37-06:00
; #@! TF.GenerationSoftware,Kicad,Pcbnew,8.0.0-8.0.0-1~ubuntu22.04.1
; #@! TF.FileFunction,MixedPlating,1,2
FMAT,2
METRIC
; #@! TA.AperFunction,Plated,PTH,ViaDrill
T1C0.400
; #@! TA.AperFunction,Plated,PTH,ComponentDrill
T2C0.500
; #@! TA.AperFunction,Plated,PTH,ComponentDrill
T3C0.700
; #@! TA.AperFunction,Plated,PTH,ComponentDrill
T4C1.000
; #@! TA.AperFunction,Plated,PTH,ComponentDrill
T5C1.200
; #@! TA.AperFunction,Plated,PTH,ComponentDrill
T6C1.750
; #@! TA.AperFunction,Plated,PTH,ComponentDrill
T7C1.753
; #@! TA.AperFunction,Plated,PTH,ComponentDrill
T8C2.700
; #@! TA.AperFunction,Plated,PTH,ComponentDrill
T9C5.400
%
G90
G05
T1
X112.5Y-95.6
X115.0Y-89.9
X115.3Y-103.0
X117.0Y-92.3
X117.0Y-94.9
X117.3Y-64.287
X119.575Y-95.9
X121.2Y-64.287
X124.0Y-96.0
X124.5Y-93.9
X125.2Y-64.287
X126.4Y-108.2
X127.5Y-95.5
X128.1Y-94.4
X128.5Y-74.8
X129.2Y-64.287
X129.5Y-102.2
X129.5Y-104.0
X129.5Y-109.0
X129.5Y-114.725
X129.6Y-100.0
X131.9Y-90.875
X132.2Y-108.2
X132.8Y-75.7
X133.0Y-91.9
X133.3Y-89.8
X133.9Y-65.4
X134.5Y-84.2
X134.8Y-87.2
X135.4Y-97.4
X136.3Y-104.1
X136.506Y-97.49
X136.7Y-75.7
X137.5Y-65.3
X137.5Y-97.6
X137.7Y-104.1
X138.3Y-84.6
X138.5Y-97.7
X138.613Y-103.413
X139.0Y-109.0
X139.325Y-80.1
X139.363Y-102.663
X139.5Y-97.8
X139.7Y-41.7
X139.7Y-42.9
X140.088Y-91.071
X140.2Y-102.0
X140.4Y-115.3
X140.55Y-99.635
X140.6Y-74.5
X141.0Y-65.4
X141.1Y-84.7
X141.231Y-91.031
X141.8Y-41.8
X141.8Y-42.9
X142.0Y-99.6
X142.1Y-53.7
X142.4Y-102.8
X142.841Y-106.151
X143.0Y-100.3
X143.3Y-109.3
X143.3Y-114.3
X143.4Y-121.7
X143.5Y-86.2
X143.5Y-108.0
X143.6Y-94.5
X143.6Y-105.5
X143.6Y-123.7
X143.7Y-118.6
X143.7Y-127.6
X143.7Y-136.4
X143.8Y-91.8
X143.8Y-111.0
X144.1Y-88.3
X144.6Y-65.4
X144.6Y-74.5
X144.7Y-81.7
X144.8Y-79.4
X146.8Y-40.0
X146.9Y-55.6
X148.2Y-65.3
X148.3Y-84.4
X148.5Y-127.6
X148.7Y-74.6
X148.7Y-98.3
X148.8Y-42.0
X149.1Y-94.5
X149.4Y-105.3
X150.3Y-55.2
X150.5Y-121.7
X150.6Y-105.2
X150.8Y-90.2
X151.6Y-114.3
X151.7Y-65.4
X151.7Y-115.4
X151.7Y-118.608
X151.7Y-141.2
X151.8Y-105.1
X152.1Y-89.4
X152.8Y-74.4
X153.2Y-122.6
X153.5Y-84.1
X153.5Y-136.8
X153.7Y-54.9
X153.9Y-103.2
X154.1Y-117.8
X154.1Y-119.4
X154.3Y-45.9
X154.4Y-43.4
X154.4Y-44.6
X155.2Y-65.3
X155.2Y-100.8
X155.5Y-110.8
X155.7Y-51.5
X155.7Y-53.5
X155.8Y-40.1
X155.8Y-41.9
X156.0Y-95.0
X156.1Y-109.6
X156.3Y-108.5
X156.4Y-106.8
X156.513Y-102.313
X156.6Y-43.4
X156.6Y-44.6
X156.6Y-114.675
X156.6Y-119.332
X156.8Y-74.2
X157.4Y-55.1
X157.4Y-124.9
X157.475Y-115.4
X158.2Y-116.3
X158.3Y-119.5
X158.4Y-136.8
X158.8Y-65.4
X159.6Y-116.3
X159.6Y-119.4
X159.8Y-51.2
X159.8Y-53.3
X160.2Y-141.3
X160.7Y-45.9
X160.8Y-100.1
X160.8Y-116.3
X160.8Y-119.5
X160.9Y-55.1
X161.6Y-125.0
X161.9Y-116.3
X161.9Y-119.5
X162.625Y-114.6
X163.237Y-78.463
X163.9Y-79.4
X164.0Y-64.087
X165.3Y-84.8
X165.8Y-50.9
X167.225Y-89.8
X167.8Y-64.087
X168.1Y-110.9
X168.1Y-123.7
X168.1Y-136.4
X168.2Y-98.3
X168.225Y-89.8
X168.3Y-53.2
X169.1Y-89.0
X169.5Y-96.6
X170.1Y-88.4
X170.7Y-83.5
X170.9Y-85.1
X170.9Y-87.5
X171.0Y-94.1
X172.0Y-63.887
X174.0Y-79.7
X174.1Y-71.0
X175.1Y-78.8
T2
X109.975Y-39.0
X109.975Y-141.0
X110.568Y-37.568
X110.568Y-40.432
X110.568Y-139.568
X110.568Y-142.432
X112.0Y-36.975
X112.0Y-41.025
X112.0Y-138.975
X112.0Y-143.025
X113.432Y-37.568
X113.432Y-40.432
X113.432Y-139.568
X113.432Y-142.432
X114.025Y-39.0
X114.025Y-141.0
X169.975Y-39.0
X169.975Y-141.0
X170.568Y-37.568
X170.568Y-40.432
X170.568Y-139.568
X170.568Y-142.432
X172.0Y-36.975
X172.0Y-41.025
X172.0Y-138.975
X172.0Y-143.025
X173.432Y-37.568
X173.432Y-40.432
X173.432Y-139.568
X173.432Y-142.432
X174.025Y-39.0
X174.025Y-141.0
T3
X130.1Y-80.4
X154.2Y-81.3
X164.8Y-88.6
T4
X135.65Y-37.237
X135.65Y-52.477
X138.19Y-37.237
X138.19Y-52.477
X140.73Y-37.237
X140.73Y-52.477
X143.27Y-37.237
X143.27Y-52.477
X145.81Y-37.237
X145.81Y-52.477
X148.35Y-37.237
X148.35Y-52.477
T5
X171.8Y-115.4
T6
X122.8Y-132.01
X122.837Y-117.5
X122.837Y-124.41
X127.4Y-132.01
X127.438Y-117.5
X127.438Y-124.41
X132.037Y-117.5
X132.037Y-124.41
T7
X122.805Y-101.078
X122.805Y-105.447
X122.805Y-112.0
X127.403Y-101.078
X127.403Y-105.447
X127.403Y-112.0
X132.0Y-101.078
X132.0Y-105.447
X132.0Y-112.0
T8
X112.0Y-39.0
X112.0Y-141.0
X172.0Y-39.0
X172.0Y-141.0
T9
X123.0Y-83.0
X160.0Y-83.0
M30
