M48
; DRILL file {KiCad 8.0.0-8.0.0-1~ubuntu22.04.1} date 2024-03-03T20:01:54-0700
; FORMAT={-:-/ absolute / metric / decimal}
; #@! TF.CreationDate,2024-03-03T20:01:54-07:00
; #@! TF.GenerationSoftware,Kicad,Pcbnew,8.0.0-8.0.0-1~ubuntu22.04.1
; #@! TF.FileFunction,MixedPlating,1,2
FMAT,2
METRIC
; #@! TA.AperFunction,Plated,PTH,ViaDrill
T1C0.400
; #@! TA.AperFunction,Plated,PTH,ComponentDrill
T2C0.500
; #@! TA.AperFunction,Plated,PTH,ComponentDrill
T3C0.700
; #@! TA.AperFunction,Plated,PTH,ComponentDrill
T4C1.000
; #@! TA.AperFunction,Plated,PTH,ComponentDrill
T5C1.750
; #@! TA.AperFunction,Plated,PTH,ComponentDrill
T6C1.753
; #@! TA.AperFunction,Plated,PTH,ComponentDrill
T7C2.700
; #@! TA.AperFunction,Plated,PTH,ComponentDrill
T8C5.400
%
G90
G05
T1
X112.5Y-95.6
X115.0Y-89.9
X115.3Y-103.0
X117.0Y-92.3
X117.0Y-94.9
X117.3Y-64.287
X119.575Y-95.9
X121.2Y-64.287
X124.0Y-96.0
X124.5Y-93.9
X125.2Y-64.287
X126.4Y-108.2
X128.1Y-94.4
X128.3Y-82.4
X128.4Y-108.2
X129.2Y-64.287
X129.3Y-85.6
X131.2Y-80.2
X131.3Y-84.4
X132.2Y-89.1
X134.5Y-84.2
X134.9Y-90.9
X134.9Y-92.1
X135.4Y-97.4
X136.3Y-104.1
X136.506Y-97.49
X137.5Y-97.6
X137.6Y-62.9
X137.7Y-104.1
X137.8Y-89.0
X138.0Y-78.3
X138.5Y-97.7
X138.613Y-103.413
X138.7Y-86.0
X139.0Y-109.0
X139.325Y-80.1
X139.363Y-102.663
X139.5Y-97.8
X139.7Y-41.7
X139.7Y-42.9
X140.187Y-91.287
X140.2Y-102.0
X140.4Y-115.3
X140.55Y-99.635
X140.6Y-79.4
X141.7Y-59.8
X141.7Y-61.825
X141.8Y-41.8
X141.8Y-42.9
X141.987Y-90.287
X142.0Y-80.0
X142.0Y-99.6
X142.1Y-53.7
X142.4Y-102.8
X142.841Y-106.151
X143.0Y-100.3
X143.3Y-109.3
X143.3Y-114.3
X143.5Y-108.0
X143.6Y-94.5
X143.6Y-105.5
X143.6Y-123.7
X143.7Y-118.6
X143.7Y-127.6
X143.7Y-136.4
X143.8Y-83.995
X143.8Y-111.0
X143.9Y-72.3
X144.3Y-62.9
X144.8Y-79.483
X145.5Y-62.2
X146.8Y-40.0
X146.9Y-55.6
X147.8Y-89.2
X148.2Y-60.0
X148.5Y-127.6
X148.507Y-89.907
X148.6Y-109.6
X148.6Y-110.8
X148.7Y-98.3
X148.7Y-106.8
X148.7Y-108.3
X148.8Y-42.0
X149.1Y-94.5
X149.2Y-87.8
X149.3Y-60.9
X150.0Y-88.4
X150.3Y-55.2
X150.8Y-107.0
X150.8Y-111.6
X151.6Y-72.4
X151.6Y-114.3
X151.7Y-115.4
X151.7Y-118.608
X151.7Y-141.2
X151.9Y-107.1
X151.9Y-111.6
X152.3Y-89.0
X153.5Y-81.983
X153.5Y-136.8
X153.7Y-54.9
X154.3Y-45.9
X154.4Y-43.4
X154.4Y-44.6
X155.6Y-66.3
X155.7Y-51.5
X155.7Y-53.5
X155.8Y-40.1
X155.8Y-41.9
X156.0Y-95.0
X156.6Y-43.4
X156.6Y-44.6
X156.6Y-114.675
X156.6Y-119.332
X157.2Y-71.5
X157.4Y-55.1
X157.4Y-124.9
X157.475Y-115.4
X157.8Y-89.1
X158.3Y-117.6
X158.3Y-119.5
X158.4Y-136.8
X158.5Y-95.5
X158.5Y-99.325
X159.5Y-99.325
X159.6Y-117.6
X159.6Y-119.4
X159.8Y-51.2
X159.8Y-53.3
X160.0Y-97.7
X160.2Y-141.3
X160.7Y-45.9
X160.8Y-117.7
X160.8Y-119.5
X160.9Y-55.1
X161.6Y-125.0
X161.9Y-117.7
X161.9Y-119.5
X162.2Y-94.4
X162.625Y-114.6
X163.3Y-98.3
X164.0Y-64.087
X165.8Y-50.9
X166.3Y-85.7
X167.1Y-76.4
X167.1Y-77.5
X167.8Y-64.087
X168.1Y-110.9
X168.1Y-123.7
X168.1Y-136.4
X168.3Y-53.2
X169.5Y-94.8
X169.5Y-96.6
X171.125Y-77.5
X171.2Y-76.4
X172.0Y-63.887
X173.2Y-84.0
X174.1Y-71.0
T2
X109.975Y-39.0
X109.975Y-141.0
X110.568Y-37.568
X110.568Y-40.432
X110.568Y-139.568
X110.568Y-142.432
X112.0Y-36.975
X112.0Y-41.025
X112.0Y-138.975
X112.0Y-143.025
X113.432Y-37.568
X113.432Y-40.432
X113.432Y-139.568
X113.432Y-142.432
X114.025Y-39.0
X114.025Y-141.0
X169.975Y-39.0
X169.975Y-141.0
X170.568Y-37.568
X170.568Y-40.432
X170.568Y-139.568
X170.568Y-142.432
X172.0Y-36.975
X172.0Y-41.025
X172.0Y-138.975
X172.0Y-143.025
X173.432Y-37.568
X173.432Y-40.432
X173.432Y-139.568
X173.432Y-142.432
X174.025Y-39.0
X174.025Y-141.0
T3
X136.5Y-81.5
X155.3Y-78.3
X164.8Y-88.6
T4
X135.65Y-37.237
X135.65Y-52.477
X138.19Y-37.237
X138.19Y-52.477
X140.73Y-37.237
X140.73Y-52.477
X143.27Y-37.237
X143.27Y-52.477
X145.81Y-37.237
X145.81Y-52.477
X148.35Y-37.237
X148.35Y-52.477
T5
X122.9Y-120.0
X127.5Y-120.0
T6
X122.805Y-101.078
X122.805Y-105.447
X122.805Y-112.0
X127.403Y-101.078
X127.403Y-105.447
X127.403Y-112.0
X132.0Y-101.078
X132.0Y-105.447
X132.0Y-112.0
T7
X112.0Y-39.0
X112.0Y-141.0
X172.0Y-39.0
X172.0Y-141.0
T8
X123.0Y-83.0
X160.0Y-83.0
M30
