%TF.GenerationSoftware,KiCad,Pcbnew,8.0.9-8.0.9-0~ubuntu22.04.1*%
%TF.CreationDate,2025-08-30T17:36:57-05:00*%
%TF.ProjectId,Multimeter,4d756c74-696d-4657-9465-722e6b696361,rev?*%
%TF.SameCoordinates,Original*%
%TF.FileFunction,Copper,L1,Top*%
%TF.FilePolarity,Positive*%
%FSLAX46Y46*%
G04 Gerber Fmt 4.6, Leading zero omitted, Abs format (unit mm)*
G04 Created by KiCad (PCBNEW 8.0.9-8.0.9-0~ubuntu22.04.1) date 2025-08-30 17:36:57*
%MOMM*%
%LPD*%
G01*
G04 APERTURE LIST*
G04 Aperture macros list*
%AMRoundRect*
0 Rectangle with rounded corners*
0 $1 Rounding radius*
0 $2 $3 $4 $5 $6 $7 $8 $9 X,Y pos of 4 corners*
0 Add a 4 corners polygon primitive as box body*
4,1,4,$2,$3,$4,$5,$6,$7,$8,$9,$2,$3,0*
0 Add four circle primitives for the rounded corners*
1,1,$1+$1,$2,$3*
1,1,$1+$1,$4,$5*
1,1,$1+$1,$6,$7*
1,1,$1+$1,$8,$9*
0 Add four rect primitives between the rounded corners*
20,1,$1+$1,$2,$3,$4,$5,0*
20,1,$1+$1,$4,$5,$6,$7,0*
20,1,$1+$1,$6,$7,$8,$9,0*
20,1,$1+$1,$8,$9,$2,$3,0*%
%AMFreePoly0*
4,1,129,0.800119,0.804999,0.842119,0.803999,0.842356,0.803987,0.884356,0.800987,0.884724,0.800947,0.925724,0.794947,0.925841,0.794929,0.966841,0.787929,0.967185,0.787858,1.008185,0.777858,1.008437,0.777789,1.048437,0.765789,1.048652,0.765719,1.088652,0.751719,1.088940,0.751608,1.126940,0.735608,1.127140,0.735519,1.165140,0.717519,1.165378,0.717399,1.202378,0.697399,
1.202607,0.697266,1.238607,0.675266,1.238883,0.675085,1.272883,0.651085,1.273019,0.650985,1.306019,0.625985,1.306224,0.625821,1.338224,0.598821,1.338416,0.598651,1.369416,0.569651,1.369651,0.569416,1.398651,0.538416,1.398821,0.538224,1.425821,0.506224,1.425985,0.506019,1.450985,0.473019,1.451085,0.472883,1.475085,0.438883,1.475266,0.438607,1.497266,0.402607,
1.497399,0.402378,1.517399,0.365378,1.517519,0.365140,1.535519,0.327140,1.535608,0.326940,1.551608,0.288940,1.551719,0.288652,1.565719,0.248652,1.565789,0.248437,1.577789,0.208437,1.577858,0.208185,1.587858,0.167185,1.587929,0.166841,1.594929,0.125841,1.594947,0.125724,1.600947,0.084724,1.600987,0.084356,1.603987,0.042356,1.603999,0.042119,1.604999,0.000119,
1.604999,-0.000119,1.603999,-0.042119,1.603987,-0.042356,1.600987,-0.084356,1.600947,-0.084724,1.594947,-0.125724,1.594929,-0.125841,1.587929,-0.166841,1.587858,-0.167185,1.577858,-0.208185,1.577789,-0.208437,1.565789,-0.248437,1.565719,-0.248652,1.551719,-0.288652,1.551608,-0.288940,1.535608,-0.326940,1.535519,-0.327140,1.517519,-0.365140,1.517399,-0.365378,1.497399,-0.402378,
1.497266,-0.402607,1.475266,-0.438607,1.475085,-0.438883,1.451085,-0.472883,1.450985,-0.473019,1.425985,-0.506019,1.425821,-0.506224,1.398821,-0.538224,1.398651,-0.538416,1.369651,-0.569416,1.369416,-0.569651,1.338416,-0.598651,1.338224,-0.598821,1.306224,-0.625821,1.306019,-0.625985,1.273019,-0.650985,1.272883,-0.651085,1.238883,-0.675085,1.238607,-0.675266,1.202607,-0.697266,
1.202378,-0.697399,1.165378,-0.717399,1.165140,-0.717519,1.127140,-0.735519,1.126940,-0.735608,1.088940,-0.751608,1.088652,-0.751719,1.048652,-0.765719,1.048437,-0.765789,1.008437,-0.777789,1.008185,-0.777858,0.967185,-0.787858,0.966841,-0.787929,0.925841,-0.794929,0.925724,-0.794947,0.884724,-0.800947,0.884356,-0.800987,0.842356,-0.803987,0.842119,-0.803999,0.800119,-0.804999,
0.800000,-0.805000,-1.600000,-0.805000,-1.603536,-0.803536,-1.605000,-0.800000,-1.605000,0.800000,-1.603536,0.803536,-1.600000,0.805000,0.800000,0.805000,0.800119,0.804999,0.800119,0.804999,$1*%
%AMFreePoly1*
4,1,93,1.410453,0.804979,1.421453,0.803979,1.421498,0.803975,1.431498,0.802975,1.431894,0.802919,1.442894,0.800919,1.443437,0.800789,1.473437,0.791789,1.474031,0.791569,1.483031,0.787569,1.483236,0.787472,1.493236,0.782472,1.493428,0.782371,1.511428,0.772371,1.511774,0.772160,1.520774,0.766160,1.521293,0.765763,1.529155,0.758883,1.537000,0.753000,1.537763,0.752293,
1.544543,0.744543,1.552293,0.737763,1.553000,0.737000,1.558883,0.729155,1.565763,0.721293,1.566160,0.720774,1.572160,0.711774,1.572371,0.711428,1.582371,0.693428,1.582472,0.693236,1.587472,0.683236,1.587569,0.683031,1.591569,0.674031,1.591789,0.673437,1.600789,0.643437,1.600919,0.642894,1.602919,0.631894,1.602975,0.631498,1.603975,0.621498,1.603979,0.621453,
1.604979,0.610453,1.605000,0.610000,1.605000,-0.610000,1.604979,-0.610453,1.603979,-0.621453,1.603975,-0.621498,1.602975,-0.631498,1.602919,-0.631894,1.600919,-0.642894,1.600789,-0.643437,1.591789,-0.673437,1.591569,-0.674031,1.587569,-0.683031,1.587472,-0.683236,1.582472,-0.693236,1.582371,-0.693428,1.572371,-0.711428,1.572160,-0.711774,1.566160,-0.720774,1.565763,-0.721293,
1.558883,-0.729155,1.553000,-0.737000,1.552293,-0.737763,1.544543,-0.744543,1.537763,-0.752293,1.537000,-0.753000,1.529155,-0.758883,1.521293,-0.765763,1.520774,-0.766160,1.511774,-0.772160,1.511428,-0.772371,1.493428,-0.782371,1.493236,-0.782472,1.483236,-0.787472,1.483031,-0.787569,1.474031,-0.791569,1.473437,-0.791789,1.443437,-0.800789,1.442894,-0.800919,1.431894,-0.802919,
1.431498,-0.802975,1.421498,-0.803975,1.421453,-0.803979,1.410453,-0.804979,1.410000,-0.805000,-1.600000,-0.805000,-1.603536,-0.803536,-1.605000,-0.800000,-1.605000,0.800000,-1.603536,0.803536,-1.600000,0.805000,1.410000,0.805000,1.410453,0.804979,1.410453,0.804979,$1*%
%AMFreePoly2*
4,1,129,1.603536,0.803536,1.605000,0.800000,1.605000,-0.800000,1.603536,-0.803536,1.600000,-0.805000,-0.800000,-0.805000,-0.800119,-0.804999,-0.842119,-0.803999,-0.842356,-0.803987,-0.884356,-0.800987,-0.884724,-0.800947,-0.925724,-0.794947,-0.925841,-0.794929,-0.966841,-0.787929,-0.967185,-0.787858,-1.008185,-0.777858,-1.008437,-0.777789,-1.048437,-0.765789,-1.048652,-0.765719,-1.088652,-0.751719,
-1.088940,-0.751608,-1.126940,-0.735608,-1.127140,-0.735519,-1.165140,-0.717519,-1.165378,-0.717399,-1.202378,-0.697399,-1.202607,-0.697266,-1.238607,-0.675266,-1.238883,-0.675085,-1.272883,-0.651085,-1.273019,-0.650985,-1.306019,-0.625985,-1.306224,-0.625821,-1.338224,-0.598821,-1.338416,-0.598651,-1.369416,-0.569651,-1.369651,-0.569416,-1.398651,-0.538416,-1.398821,-0.538224,-1.425821,-0.506224,
-1.425985,-0.506019,-1.450985,-0.473019,-1.451085,-0.472883,-1.475085,-0.438883,-1.475266,-0.438607,-1.497266,-0.402607,-1.497399,-0.402378,-1.517399,-0.365378,-1.517519,-0.365140,-1.535519,-0.327140,-1.535608,-0.326940,-1.551608,-0.288940,-1.551719,-0.288652,-1.565719,-0.248652,-1.565789,-0.248437,-1.577789,-0.208437,-1.577858,-0.208185,-1.587858,-0.167185,-1.587929,-0.166841,-1.594929,-0.125841,
-1.594947,-0.125724,-1.600947,-0.084724,-1.600987,-0.084356,-1.603987,-0.042356,-1.603999,-0.042119,-1.604999,-0.000119,-1.604999,0.000119,-1.603999,0.042119,-1.603987,0.042356,-1.600987,0.084356,-1.600947,0.084724,-1.594947,0.125724,-1.594929,0.125841,-1.587929,0.166841,-1.587858,0.167185,-1.577858,0.208185,-1.577789,0.208437,-1.565789,0.248437,-1.565719,0.248652,-1.551719,0.288652,
-1.551608,0.288940,-1.535608,0.326940,-1.535519,0.327140,-1.517519,0.365140,-1.517399,0.365378,-1.497399,0.402378,-1.497266,0.402607,-1.475266,0.438607,-1.475085,0.438883,-1.451085,0.472883,-1.450985,0.473019,-1.425985,0.506019,-1.425821,0.506224,-1.398821,0.538224,-1.398651,0.538416,-1.369651,0.569416,-1.369416,0.569651,-1.338416,0.598651,-1.338224,0.598821,-1.306224,0.625821,
-1.306019,0.625985,-1.273019,0.650985,-1.272883,0.651085,-1.238883,0.675085,-1.238607,0.675266,-1.202607,0.697266,-1.202378,0.697399,-1.165378,0.717399,-1.165140,0.717519,-1.127140,0.735519,-1.126940,0.735608,-1.088940,0.751608,-1.088652,0.751719,-1.048652,0.765719,-1.048437,0.765789,-1.008437,0.777789,-1.008185,0.777858,-0.967185,0.787858,-0.966841,0.787929,-0.925841,0.794929,
-0.925724,0.794947,-0.884724,0.800947,-0.884356,0.800987,-0.842356,0.803987,-0.842119,0.803999,-0.800119,0.804999,-0.800000,0.805000,1.600000,0.805000,1.603536,0.803536,1.603536,0.803536,$1*%
%AMFreePoly3*
4,1,93,1.603536,0.803536,1.605000,0.800000,1.605000,-0.800000,1.603536,-0.803536,1.600000,-0.805000,-1.410000,-0.805000,-1.410453,-0.804979,-1.421453,-0.803979,-1.421498,-0.803975,-1.431498,-0.802975,-1.431894,-0.802919,-1.442894,-0.800919,-1.443437,-0.800789,-1.473437,-0.791789,-1.474031,-0.791569,-1.483031,-0.787569,-1.483236,-0.787472,-1.493236,-0.782472,-1.493428,-0.782371,-1.511428,-0.772371,
-1.511774,-0.772160,-1.520774,-0.766160,-1.521293,-0.765763,-1.529155,-0.758883,-1.537000,-0.753000,-1.537763,-0.752293,-1.544543,-0.744543,-1.552293,-0.737763,-1.553000,-0.737000,-1.558883,-0.729155,-1.565763,-0.721293,-1.566160,-0.720774,-1.572160,-0.711774,-1.572371,-0.711428,-1.582371,-0.693428,-1.582472,-0.693236,-1.587472,-0.683236,-1.587569,-0.683031,-1.591569,-0.674031,-1.591789,-0.673437,
-1.600789,-0.643437,-1.600919,-0.642894,-1.602919,-0.631894,-1.602975,-0.631498,-1.603975,-0.621498,-1.603979,-0.621453,-1.604979,-0.610453,-1.605000,-0.610000,-1.605000,0.610000,-1.604979,0.610453,-1.603979,0.621453,-1.603975,0.621498,-1.602975,0.631498,-1.602919,0.631894,-1.600919,0.642894,-1.600789,0.643437,-1.591789,0.673437,-1.591569,0.674031,-1.587569,0.683031,-1.587472,0.683236,
-1.582472,0.693236,-1.582371,0.693428,-1.572371,0.711428,-1.572160,0.711774,-1.566160,0.720774,-1.565763,0.721293,-1.558883,0.729155,-1.553000,0.737000,-1.552293,0.737763,-1.544543,0.744543,-1.537763,0.752293,-1.537000,0.753000,-1.529155,0.758883,-1.521293,0.765763,-1.520774,0.766160,-1.511774,0.772160,-1.511428,0.772371,-1.493428,0.782371,-1.493236,0.782472,-1.483236,0.787472,
-1.483031,0.787569,-1.474031,0.791569,-1.473437,0.791789,-1.443437,0.800789,-1.442894,0.800919,-1.431894,0.802919,-1.431498,0.802975,-1.421498,0.803975,-1.421453,0.803979,-1.410453,0.804979,-1.410000,0.805000,1.600000,0.805000,1.603536,0.803536,1.603536,0.803536,$1*%
%AMFreePoly4*
4,1,129,0.042119,1.603999,0.042356,1.603987,0.084356,1.600987,0.084724,1.600947,0.125724,1.594947,0.125841,1.594929,0.166841,1.587929,0.167185,1.587858,0.208185,1.577858,0.208437,1.577789,0.248437,1.565789,0.248652,1.565719,0.288652,1.551719,0.288940,1.551608,0.326940,1.535608,0.327140,1.535519,0.365140,1.517519,0.365378,1.517399,0.402378,1.497399,0.402607,1.497266,
0.438607,1.475266,0.438883,1.475085,0.472883,1.451085,0.473019,1.450985,0.506019,1.425985,0.506224,1.425821,0.538224,1.398821,0.538416,1.398651,0.569416,1.369651,0.569651,1.369416,0.598651,1.338416,0.598821,1.338224,0.625821,1.306224,0.625985,1.306019,0.650985,1.273019,0.651085,1.272883,0.675085,1.238883,0.675266,1.238607,0.697266,1.202607,0.697399,1.202378,
0.717399,1.165378,0.717519,1.165140,0.735519,1.127140,0.735608,1.126940,0.751608,1.088940,0.751719,1.088652,0.765719,1.048652,0.765789,1.048437,0.777789,1.008437,0.777858,1.008185,0.787858,0.967185,0.787929,0.966841,0.794929,0.925841,0.794947,0.925724,0.800947,0.884724,0.800987,0.884356,0.803987,0.842356,0.803999,0.842119,0.804999,0.800119,0.805000,0.800000,
0.805000,-1.600000,0.803536,-1.603536,0.800000,-1.605000,-0.800000,-1.605000,-0.803536,-1.603536,-0.805000,-1.600000,-0.805000,0.800000,-0.804999,0.800119,-0.803999,0.842119,-0.803987,0.842356,-0.800987,0.884356,-0.800947,0.884724,-0.794947,0.925724,-0.794929,0.925841,-0.787929,0.966841,-0.787858,0.967185,-0.777858,1.008185,-0.777789,1.008437,-0.765789,1.048437,-0.765719,1.048652,
-0.751719,1.088652,-0.751608,1.088940,-0.735608,1.126940,-0.735519,1.127140,-0.717519,1.165140,-0.717399,1.165378,-0.697399,1.202378,-0.697266,1.202607,-0.675266,1.238607,-0.675085,1.238883,-0.651085,1.272883,-0.650985,1.273019,-0.625985,1.306019,-0.625821,1.306224,-0.598821,1.338224,-0.598651,1.338416,-0.569651,1.369416,-0.569416,1.369651,-0.538416,1.398651,-0.538224,1.398821,
-0.506224,1.425821,-0.506019,1.425985,-0.473019,1.450985,-0.472883,1.451085,-0.438883,1.475085,-0.438607,1.475266,-0.402607,1.497266,-0.402378,1.497399,-0.365378,1.517399,-0.365140,1.517519,-0.327140,1.535519,-0.326940,1.535608,-0.288940,1.551608,-0.288652,1.551719,-0.248652,1.565719,-0.248437,1.565789,-0.208437,1.577789,-0.208185,1.577858,-0.167185,1.587858,-0.166841,1.587929,
-0.125841,1.594929,-0.125724,1.594947,-0.084724,1.600947,-0.084356,1.600987,-0.042356,1.603987,-0.042119,1.603999,-0.000119,1.604999,0.000119,1.604999,0.042119,1.603999,0.042119,1.603999,$1*%
%AMFreePoly5*
4,1,93,0.610453,1.604979,0.621453,1.603979,0.621498,1.603975,0.631498,1.602975,0.631894,1.602919,0.642894,1.600919,0.643437,1.600789,0.673437,1.591789,0.674031,1.591569,0.683031,1.587569,0.683236,1.587472,0.693236,1.582472,0.693428,1.582371,0.711428,1.572371,0.711774,1.572160,0.720774,1.566160,0.721293,1.565763,0.729155,1.558883,0.737000,1.553000,0.737763,1.552293,
0.744543,1.544543,0.752293,1.537763,0.753000,1.537000,0.758883,1.529155,0.765763,1.521293,0.766160,1.520774,0.772160,1.511774,0.772371,1.511428,0.782371,1.493428,0.782472,1.493236,0.787472,1.483236,0.787569,1.483031,0.791569,1.474031,0.791789,1.473437,0.800789,1.443437,0.800919,1.442894,0.802919,1.431894,0.802975,1.431498,0.803975,1.421498,0.803979,1.421453,
0.804979,1.410453,0.805000,1.410000,0.805000,-1.600000,0.803536,-1.603536,0.800000,-1.605000,-0.800000,-1.605000,-0.803536,-1.603536,-0.805000,-1.600000,-0.805000,1.410000,-0.804979,1.410453,-0.803979,1.421453,-0.803975,1.421498,-0.802975,1.431498,-0.802919,1.431894,-0.800919,1.442894,-0.800789,1.443437,-0.791789,1.473437,-0.791569,1.474031,-0.787569,1.483031,-0.787472,1.483236,
-0.782472,1.493236,-0.782371,1.493428,-0.772371,1.511428,-0.772160,1.511774,-0.766160,1.520774,-0.765763,1.521293,-0.758883,1.529155,-0.753000,1.537000,-0.752293,1.537763,-0.744543,1.544543,-0.737763,1.552293,-0.737000,1.553000,-0.729155,1.558883,-0.721293,1.565763,-0.720774,1.566160,-0.711774,1.572160,-0.711428,1.572371,-0.693428,1.582371,-0.693236,1.582472,-0.683236,1.587472,
-0.683031,1.587569,-0.674031,1.591569,-0.673437,1.591789,-0.643437,1.600789,-0.642894,1.600919,-0.631894,1.602919,-0.631498,1.602975,-0.621498,1.603975,-0.621453,1.603979,-0.610453,1.604979,-0.610000,1.605000,0.610000,1.605000,0.610453,1.604979,0.610453,1.604979,$1*%
G04 Aperture macros list end*
%TA.AperFunction,SMDPad,CuDef*%
%ADD10RoundRect,0.150000X0.150000X-0.587500X0.150000X0.587500X-0.150000X0.587500X-0.150000X-0.587500X0*%
%TD*%
%TA.AperFunction,SMDPad,CuDef*%
%ADD11RoundRect,0.250000X0.450000X-0.262500X0.450000X0.262500X-0.450000X0.262500X-0.450000X-0.262500X0*%
%TD*%
%TA.AperFunction,SMDPad,CuDef*%
%ADD12RoundRect,0.150000X-0.825000X-0.150000X0.825000X-0.150000X0.825000X0.150000X-0.825000X0.150000X0*%
%TD*%
%TA.AperFunction,SMDPad,CuDef*%
%ADD13RoundRect,0.250000X-0.450000X0.262500X-0.450000X-0.262500X0.450000X-0.262500X0.450000X0.262500X0*%
%TD*%
%TA.AperFunction,SMDPad,CuDef*%
%ADD14RoundRect,0.150000X-0.150000X0.587500X-0.150000X-0.587500X0.150000X-0.587500X0.150000X0.587500X0*%
%TD*%
%TA.AperFunction,SMDPad,CuDef*%
%ADD15RoundRect,0.250000X-0.262500X-0.450000X0.262500X-0.450000X0.262500X0.450000X-0.262500X0.450000X0*%
%TD*%
%TA.AperFunction,ComponentPad*%
%ADD16R,1.700000X1.700000*%
%TD*%
%TA.AperFunction,ComponentPad*%
%ADD17C,1.700000*%
%TD*%
%TA.AperFunction,ComponentPad*%
%ADD18C,3.500000*%
%TD*%
%TA.AperFunction,SMDPad,CuDef*%
%ADD19RoundRect,0.243750X0.456250X-0.243750X0.456250X0.243750X-0.456250X0.243750X-0.456250X-0.243750X0*%
%TD*%
%TA.AperFunction,ComponentPad*%
%ADD20C,7.900000*%
%TD*%
%TA.AperFunction,SMDPad,CuDef*%
%ADD21RoundRect,0.100000X-0.675000X-0.100000X0.675000X-0.100000X0.675000X0.100000X-0.675000X0.100000X0*%
%TD*%
%TA.AperFunction,SMDPad,CuDef*%
%ADD22RoundRect,0.100000X-0.712500X-0.100000X0.712500X-0.100000X0.712500X0.100000X-0.712500X0.100000X0*%
%TD*%
%TA.AperFunction,SMDPad,CuDef*%
%ADD23RoundRect,0.150000X0.150000X-0.512500X0.150000X0.512500X-0.150000X0.512500X-0.150000X-0.512500X0*%
%TD*%
%TA.AperFunction,SMDPad,CuDef*%
%ADD24RoundRect,0.225000X-0.375000X0.225000X-0.375000X-0.225000X0.375000X-0.225000X0.375000X0.225000X0*%
%TD*%
%TA.AperFunction,ComponentPad*%
%ADD25C,0.800000*%
%TD*%
%TA.AperFunction,ComponentPad*%
%ADD26C,6.400000*%
%TD*%
%TA.AperFunction,SMDPad,CuDef*%
%ADD27RoundRect,0.250000X-0.475000X0.250000X-0.475000X-0.250000X0.475000X-0.250000X0.475000X0.250000X0*%
%TD*%
%TA.AperFunction,ComponentPad*%
%ADD28R,1.500000X1.500000*%
%TD*%
%TA.AperFunction,SMDPad,CuDef*%
%ADD29FreePoly0,90.000000*%
%TD*%
%TA.AperFunction,SMDPad,CuDef*%
%ADD30FreePoly1,90.000000*%
%TD*%
%TA.AperFunction,SMDPad,CuDef*%
%ADD31FreePoly2,90.000000*%
%TD*%
%TA.AperFunction,SMDPad,CuDef*%
%ADD32FreePoly3,90.000000*%
%TD*%
%TA.AperFunction,SMDPad,CuDef*%
%ADD33O,1.800000X1.100000*%
%TD*%
%TA.AperFunction,SMDPad,CuDef*%
%ADD34O,1.450000X1.050000*%
%TD*%
%TA.AperFunction,SMDPad,CuDef*%
%ADD35FreePoly4,90.000000*%
%TD*%
%TA.AperFunction,SMDPad,CuDef*%
%ADD36FreePoly5,90.000000*%
%TD*%
%TA.AperFunction,SMDPad,CuDef*%
%ADD37RoundRect,0.450000X0.300000X-0.300000X0.300000X0.300000X-0.300000X0.300000X-0.300000X-0.300000X0*%
%TD*%
%TA.AperFunction,SMDPad,CuDef*%
%ADD38RoundRect,0.250000X0.300000X0.300000X-0.300000X0.300000X-0.300000X-0.300000X0.300000X-0.300000X0*%
%TD*%
%TA.AperFunction,ComponentPad*%
%ADD39R,2.628900X2.628900*%
%TD*%
%TA.AperFunction,ComponentPad*%
%ADD40C,2.628900*%
%TD*%
%TA.AperFunction,SMDPad,CuDef*%
%ADD41RoundRect,0.250000X0.475000X-0.250000X0.475000X0.250000X-0.475000X0.250000X-0.475000X-0.250000X0*%
%TD*%
%TA.AperFunction,SMDPad,CuDef*%
%ADD42RoundRect,0.250000X0.262500X0.450000X-0.262500X0.450000X-0.262500X-0.450000X0.262500X-0.450000X0*%
%TD*%
%TA.AperFunction,SMDPad,CuDef*%
%ADD43RoundRect,0.250000X-0.250000X-0.475000X0.250000X-0.475000X0.250000X0.475000X-0.250000X0.475000X0*%
%TD*%
%TA.AperFunction,ComponentPad*%
%ADD44C,2.000000*%
%TD*%
%TA.AperFunction,SMDPad,CuDef*%
%ADD45RoundRect,0.250000X-1.000000X-0.900000X1.000000X-0.900000X1.000000X0.900000X-1.000000X0.900000X0*%
%TD*%
%TA.AperFunction,SMDPad,CuDef*%
%ADD46RoundRect,0.225000X0.375000X-0.225000X0.375000X0.225000X-0.375000X0.225000X-0.375000X-0.225000X0*%
%TD*%
%TA.AperFunction,SMDPad,CuDef*%
%ADD47RoundRect,0.250000X0.250000X0.475000X-0.250000X0.475000X-0.250000X-0.475000X0.250000X-0.475000X0*%
%TD*%
%TA.AperFunction,SMDPad,CuDef*%
%ADD48RoundRect,0.100000X-0.637500X-0.100000X0.637500X-0.100000X0.637500X0.100000X-0.637500X0.100000X0*%
%TD*%
%TA.AperFunction,SMDPad,CuDef*%
%ADD49RoundRect,0.243750X0.243750X0.456250X-0.243750X0.456250X-0.243750X-0.456250X0.243750X-0.456250X0*%
%TD*%
%TA.AperFunction,SMDPad,CuDef*%
%ADD50RoundRect,0.150000X-0.512500X-0.150000X0.512500X-0.150000X0.512500X0.150000X-0.512500X0.150000X0*%
%TD*%
%TA.AperFunction,ComponentPad*%
%ADD51C,1.500000*%
%TD*%
%TA.AperFunction,ViaPad*%
%ADD52C,0.800000*%
%TD*%
%TA.AperFunction,Conductor*%
%ADD53C,0.250000*%
%TD*%
%TA.AperFunction,Conductor*%
%ADD54C,0.500000*%
%TD*%
G04 APERTURE END LIST*
D10*
%TO.P,Q4,1,G*%
%TO.N,Net-(Q4-G)*%
X169550000Y-62225000D03*
%TO.P,Q4,2,S*%
%TO.N,GND*%
X171450000Y-62225000D03*
%TO.P,Q4,3,D*%
%TO.N,Net-(Q4-D)*%
X170500000Y-60350000D03*
%TD*%
D11*
%TO.P,R48,1*%
%TO.N,/Display/D*%
X133600000Y-72812500D03*
%TO.P,R48,2*%
%TO.N,Net-(Q20-G)*%
X133600000Y-70987500D03*
%TD*%
D12*
%TO.P,U3,1*%
%TO.N,Net-(C14-Pad1)*%
X150850000Y-115445000D03*
%TO.P,U3,2,-*%
%TO.N,Net-(U3A--)*%
X150850000Y-116715000D03*
%TO.P,U3,3,+*%
%TO.N,Net-(U3A-+)*%
X150850000Y-117985000D03*
%TO.P,U3,4,V+*%
%TO.N,+3.3V*%
X150850000Y-119255000D03*
%TO.P,U3,5,+*%
%TO.N,Net-(Q25-D)*%
X150850000Y-120525000D03*
%TO.P,U3,6,-*%
%TO.N,/Analog Front End/Continuity Detector/Vbias*%
X150850000Y-121795000D03*
%TO.P,U3,7*%
X150850000Y-123065000D03*
%TO.P,U3,8*%
%TO.N,Net-(U3C--)*%
X155800000Y-123065000D03*
%TO.P,U3,9,-*%
X155800000Y-121795000D03*
%TO.P,U3,10,+*%
%TO.N,REF*%
X155800000Y-120525000D03*
%TO.P,U3,11,V-*%
%TO.N,GND*%
X155800000Y-119255000D03*
%TO.P,U3,12,+*%
%TO.N,Net-(D5-K)*%
X155800000Y-117985000D03*
%TO.P,U3,13,-*%
%TO.N,Net-(U10-CH0)*%
X155800000Y-116715000D03*
%TO.P,U3,14*%
X155800000Y-115445000D03*
%TD*%
D11*
%TO.P,R45,1*%
%TO.N,/Display/A*%
X157800000Y-72812500D03*
%TO.P,R45,2*%
%TO.N,Net-(Q17-G)*%
X157800000Y-70987500D03*
%TD*%
D13*
%TO.P,R21,1*%
%TO.N,REF*%
X158200000Y-123275000D03*
%TO.P,R21,2*%
%TO.N,Net-(U3A-+)*%
X158200000Y-125100000D03*
%TD*%
D11*
%TO.P,R15,1*%
%TO.N,Net-(Q7-D)*%
X145200000Y-58300000D03*
%TO.P,R15,2*%
%TO.N,Net-(U4-c)*%
X145200000Y-56475000D03*
%TD*%
D14*
%TO.P,Q14,1,G*%
%TO.N,Net-(Q14-G)*%
X151250000Y-128025000D03*
%TO.P,Q14,2,S*%
%TO.N,Net-(Q14-S)*%
X149350000Y-128025000D03*
%TO.P,Q14,3,D*%
%TO.N,Net-(D7-A)*%
X150300000Y-129900000D03*
%TD*%
D11*
%TO.P,R25,1*%
%TO.N,+5V*%
X135600000Y-72812500D03*
%TO.P,R25,2*%
%TO.N,Net-(Q20-D)*%
X135600000Y-70987500D03*
%TD*%
%TO.P,R43,1*%
%TO.N,+5V*%
X151800000Y-72812500D03*
%TO.P,R43,2*%
%TO.N,Net-(Q11-G)*%
X151800000Y-70987500D03*
%TD*%
D15*
%TO.P,R22,1*%
%TO.N,Net-(U3C--)*%
X130487500Y-120300000D03*
%TO.P,R22,2*%
%TO.N,Net-(U5-COM1)*%
X132312500Y-120300000D03*
%TD*%
D16*
%TO.P,J1,1,VBUS*%
%TO.N,Net-(D2-A)*%
X126250000Y-136422500D03*
D17*
%TO.P,J1,2,D-*%
%TO.N,unconnected-(J1-D--Pad2)*%
X123750000Y-136422500D03*
%TO.P,J1,3,D+*%
%TO.N,unconnected-(J1-D+-Pad3)*%
X123750000Y-138422500D03*
%TO.P,J1,4,GND*%
%TO.N,GND*%
X126250000Y-138422500D03*
D18*
%TO.P,J1,5,Shield*%
X131020000Y-141132500D03*
X118980000Y-141132500D03*
%TD*%
D11*
%TO.P,R52,1*%
%TO.N,/Display/DP*%
X137600000Y-72812500D03*
%TO.P,R52,2*%
%TO.N,Net-(Q24-G)*%
X137600000Y-70987500D03*
%TD*%
D19*
%TO.P,D3,1,K*%
%TO.N,Net-(D3-K)*%
X123250000Y-63762500D03*
%TO.P,D3,2,A*%
%TO.N,Net-(D3-A)*%
X123250000Y-61887500D03*
%TD*%
D11*
%TO.P,R27,1*%
%TO.N,+5V*%
X147700000Y-72812500D03*
%TO.P,R27,2*%
%TO.N,Net-(Q10-G)*%
X147700000Y-70987500D03*
%TD*%
%TO.P,R49,1*%
%TO.N,/Display/E*%
X129600000Y-72812500D03*
%TO.P,R49,2*%
%TO.N,Net-(Q21-G)*%
X129600000Y-70987500D03*
%TD*%
D20*
%TO.P,J4,1,Pin_1*%
%TO.N,/Analog Front End/Continuity Detector/Vbias*%
X163000000Y-131000000D03*
%TD*%
D15*
%TO.P,R39,1*%
%TO.N,Net-(C1-Pad1)*%
X132487500Y-117300000D03*
%TO.P,R39,2*%
%TO.N,/Analog Front End/Continuity Detector/Vbias*%
X134312500Y-117300000D03*
%TD*%
D11*
%TO.P,R17,1*%
%TO.N,Net-(Q9-D)*%
X134800000Y-58300000D03*
%TO.P,R17,2*%
%TO.N,Net-(U4-e)*%
X134800000Y-56475000D03*
%TD*%
D14*
%TO.P,Q25,1,G*%
%TO.N,Net-(Q25-G)*%
X156400000Y-110100000D03*
%TO.P,Q25,2,S*%
%TO.N,GND*%
X154500000Y-110100000D03*
%TO.P,Q25,3,D*%
%TO.N,Net-(Q25-D)*%
X155450000Y-111975000D03*
%TD*%
D15*
%TO.P,R56,1*%
%TO.N,Net-(U3C--)*%
X130475000Y-126600000D03*
%TO.P,R56,2*%
%TO.N,Net-(U5-COM4)*%
X132300000Y-126600000D03*
%TD*%
D21*
%TO.P,U10,1,AVdd*%
%TO.N,+3.3V*%
X162825000Y-116275000D03*
%TO.P,U10,2,AGND*%
%TO.N,GND*%
X162825000Y-116925000D03*
%TO.P,U10,3,REFIN-*%
X162825000Y-117575000D03*
%TO.P,U10,4,REFIN+*%
%TO.N,Net-(U10-REFIN+)*%
X162825000Y-118225000D03*
%TO.P,U10,5,CH0*%
%TO.N,Net-(U10-CH0)*%
X162825000Y-118875000D03*
%TO.P,U10,6,CH1*%
%TO.N,/Analog Front End/Continuity Detector/Vbias*%
X162825000Y-119525000D03*
%TO.P,U10,7*%
%TO.N,unconnected-(U10-Pad7)*%
X162825000Y-120175000D03*
%TO.P,U10,8*%
%TO.N,unconnected-(U10-Pad8)*%
X162825000Y-120825000D03*
%TO.P,U10,9*%
%TO.N,unconnected-(U10-Pad9)*%
X162825000Y-121475000D03*
%TO.P,U10,10*%
%TO.N,unconnected-(U10-Pad10)*%
X162825000Y-122125000D03*
%TO.P,U10,11*%
%TO.N,unconnected-(U10-Pad11)*%
X168575000Y-122125000D03*
%TO.P,U10,12*%
%TO.N,unconnected-(U10-Pad12)*%
X168575000Y-121475000D03*
%TO.P,U10,13,CS*%
%TO.N,/Analog Front End/CS*%
X168575000Y-120825000D03*
%TO.P,U10,14,SCK*%
%TO.N,/Analog Front End/SCK*%
X168575000Y-120175000D03*
%TO.P,U10,15,SDI*%
%TO.N,/Analog Front End/SDI*%
X168575000Y-119525000D03*
%TO.P,U10,16,SDO*%
%TO.N,/Analog Front End/SDO*%
X168575000Y-118875000D03*
%TO.P,U10,17,MDAT*%
%TO.N,/Analog Front End/MDAT*%
X168575000Y-118225000D03*
%TO.P,U10,18,MCLK*%
%TO.N,unconnected-(U10-MCLK-Pad18)*%
X168575000Y-117575000D03*
%TO.P,U10,19,DGND*%
%TO.N,GND*%
X168575000Y-116925000D03*
%TO.P,U10,20,DVdd*%
%TO.N,+3.3V*%
X168575000Y-116275000D03*
%TD*%
D10*
%TO.P,Q18,1,G*%
%TO.N,Net-(Q18-G)*%
X153287500Y-67587500D03*
%TO.P,Q18,2,S*%
%TO.N,GND*%
X155187500Y-67587500D03*
%TO.P,Q18,3,D*%
%TO.N,Net-(Q18-D)*%
X154237500Y-65712500D03*
%TD*%
D22*
%TO.P,U9,1,R1*%
%TO.N,Net-(R65-Pad1)*%
X147687500Y-138425000D03*
%TO.P,U9,2,-*%
%TO.N,Net-(U9--)*%
X147687500Y-139075000D03*
%TO.P,U9,3,+*%
%TO.N,Net-(U9-+)*%
X147687500Y-139725000D03*
%TO.P,U9,4,V-*%
%TO.N,GND*%
X147687500Y-140375000D03*
%TO.P,U9,5,R2*%
%TO.N,Net-(U9-R2)*%
X151912500Y-140375000D03*
%TO.P,U9,6*%
%TO.N,Net-(U8-IN-)*%
X151912500Y-139725000D03*
%TO.P,U9,7,V+*%
%TO.N,+3.3V*%
X151912500Y-139075000D03*
%TO.P,U9,8,R1*%
%TO.N,Net-(R1-Pad2)*%
X151912500Y-138425000D03*
%TD*%
D23*
%TO.P,U2,1*%
%TO.N,N/C*%
X132050000Y-133137500D03*
%TO.P,U2,2*%
X133000000Y-133137500D03*
%TO.P,U2,3*%
X133950000Y-133137500D03*
%TO.P,U2,4,K*%
%TO.N,REF*%
X133950000Y-130862500D03*
%TO.P,U2,5,A*%
%TO.N,GND*%
X132050000Y-130862500D03*
%TD*%
D24*
%TO.P,D7,1,K*%
%TO.N,/Analog Front End/Current Source/Iout*%
X118400000Y-119550000D03*
%TO.P,D7,2,A*%
%TO.N,Net-(D7-A)*%
X118400000Y-122850000D03*
%TD*%
D13*
%TO.P,R58,1*%
%TO.N,Net-(U3A--)*%
X145400000Y-115287500D03*
%TO.P,R58,2*%
%TO.N,Net-(Q14-S)*%
X145400000Y-117112500D03*
%TD*%
D25*
%TO.P,H4,1,1*%
%TO.N,GND*%
X169600000Y-141000000D03*
X170302944Y-139302944D03*
X170302944Y-142697056D03*
X172000000Y-138600000D03*
D26*
X172000000Y-141000000D03*
D25*
X172000000Y-143400000D03*
X173697056Y-139302944D03*
X173697056Y-142697056D03*
X174400000Y-141000000D03*
%TD*%
D10*
%TO.P,Q24,1,G*%
%TO.N,Net-(Q24-G)*%
X139087500Y-67600000D03*
%TO.P,Q24,2,S*%
%TO.N,GND*%
X140987500Y-67600000D03*
%TO.P,Q24,3,D*%
%TO.N,Net-(Q13-G)*%
X140037500Y-65725000D03*
%TD*%
D11*
%TO.P,R23,1*%
%TO.N,+5V*%
X155800000Y-72812500D03*
%TO.P,R23,2*%
%TO.N,Net-(Q18-D)*%
X155800000Y-70987500D03*
%TD*%
D27*
%TO.P,C5,1*%
%TO.N,Net-(U10-REFIN+)*%
X160100000Y-119012500D03*
%TO.P,C5,2*%
%TO.N,GND*%
X160100000Y-120912500D03*
%TD*%
D28*
%TO.P,TP1,1,1*%
%TO.N,Net-(U10-CH0)*%
X170600000Y-125600000D03*
%TD*%
D29*
%TO.P,U1,1,GP0*%
%TO.N,/Analog Front End/continuity_detected*%
X111870000Y-97690000D03*
%TO.P,U1,2,GP1*%
%TO.N,/Analog Front End/current_range1*%
X114410000Y-97690000D03*
D30*
%TO.P,U1,3,GND*%
%TO.N,GND*%
X116950000Y-97690000D03*
D29*
%TO.P,U1,4,GP2*%
%TO.N,/Analog Front End/SCK*%
X119490000Y-97690000D03*
%TO.P,U1,5,GP3*%
%TO.N,/Analog Front End/SDI*%
X122030000Y-97690000D03*
%TO.P,U1,6,GP4*%
%TO.N,/Analog Front End/SDO*%
X124570000Y-97690000D03*
%TO.P,U1,7,GP5*%
%TO.N,/Analog Front End/CS*%
X127110000Y-97690000D03*
D30*
%TO.P,U1,8,GND*%
%TO.N,GND*%
X129650000Y-97690000D03*
D29*
%TO.P,U1,9,GP6*%
%TO.N,/Analog Front End/MDAT*%
X132190000Y-97690000D03*
%TO.P,U1,10,GP7*%
%TO.N,/Analog Front End/MODE*%
X134730000Y-97690000D03*
%TO.P,U1,11,GP8*%
%TO.N,/Analog Front End/current_range2*%
X137270000Y-97690000D03*
%TO.P,U1,12,GP9*%
%TO.N,/Analog Front End/current_range3*%
X139810000Y-97690000D03*
D30*
%TO.P,U1,13,GND*%
%TO.N,GND*%
X142350000Y-97690000D03*
D29*
%TO.P,U1,14,GP10*%
%TO.N,/Analog Front End/current_range4*%
X144890000Y-97690000D03*
%TO.P,U1,15,GP11*%
%TO.N,/Display/mega*%
X147430000Y-97690000D03*
%TO.P,U1,16,GP12*%
%TO.N,/Display/low_ohm*%
X149970000Y-97690000D03*
%TO.P,U1,17,GP13*%
%TO.N,/Display/digit1*%
X152510000Y-97690000D03*
D30*
%TO.P,U1,18,GND*%
%TO.N,GND*%
X155050000Y-97690000D03*
D29*
%TO.P,U1,19,GP14*%
%TO.N,/Display/digit2*%
X157590000Y-97690000D03*
%TO.P,U1,20,GP15*%
%TO.N,/Display/digit3*%
X160130000Y-97690000D03*
D31*
%TO.P,U1,21,GP16*%
%TO.N,/Display/digit4*%
X160130000Y-78310000D03*
%TO.P,U1,22,GP17*%
%TO.N,/Display/kilo*%
X157590000Y-78310000D03*
D32*
%TO.P,U1,23,GND*%
%TO.N,GND*%
X155050000Y-78310000D03*
D31*
%TO.P,U1,24,GP18*%
%TO.N,/Display/DP*%
X152510000Y-78310000D03*
%TO.P,U1,25,GP19*%
%TO.N,/Display/G*%
X149970000Y-78310000D03*
%TO.P,U1,26,GP20*%
%TO.N,/Display/F*%
X147430000Y-78310000D03*
%TO.P,U1,27,GP21*%
%TO.N,/Display/E*%
X144890000Y-78310000D03*
D32*
%TO.P,U1,28,GND*%
%TO.N,GND*%
X142350000Y-78310000D03*
D31*
%TO.P,U1,29,GP22*%
%TO.N,/Display/D*%
X139810000Y-78310000D03*
%TO.P,U1,30,~{RUN}*%
%TO.N,unconnected-(U1-~{RUN}-Pad30)*%
X137270000Y-78310000D03*
%TO.P,U1,31,GP26*%
%TO.N,/Display/C*%
X134730000Y-78310000D03*
%TO.P,U1,32,GP27*%
%TO.N,/Display/B*%
X132190000Y-78310000D03*
D32*
%TO.P,U1,33,AGND*%
%TO.N,GND*%
X129650000Y-78310000D03*
D31*
%TO.P,U1,34,GP28*%
%TO.N,/Display/A*%
X127110000Y-78310000D03*
%TO.P,U1,35,ADC_VREF*%
%TO.N,unconnected-(U1-ADC_VREF-Pad35)*%
X124570000Y-78310000D03*
%TO.P,U1,36,3V3_OUT*%
%TO.N,+3.3V*%
X122030000Y-78310000D03*
%TO.P,U1,37,3V3_EN*%
%TO.N,unconnected-(U1-3V3_EN-Pad37)*%
X119490000Y-78310000D03*
D32*
%TO.P,U1,38,GND*%
%TO.N,GND*%
X116950000Y-78310000D03*
D31*
%TO.P,U1,39,VSYS*%
%TO.N,Net-(D6-K)*%
X114410000Y-78310000D03*
%TO.P,U1,40,VBUS*%
%TO.N,+5V*%
X111870000Y-78310000D03*
D33*
%TO.P,U1,A,USB_SHIELD*%
%TO.N,GND*%
X112000000Y-90725000D03*
%TO.P,U1,B,USB_SHIELD*%
X112000000Y-85275000D03*
D34*
%TO.P,U1,C,USB_SHIELD*%
X115030000Y-90425000D03*
%TO.P,U1,D,USB_SHIELD*%
X115030000Y-85575000D03*
D35*
%TO.P,U1,D1,SWCLK*%
%TO.N,unconnected-(U1-SWCLK-PadD1)*%
X160700000Y-90540000D03*
D36*
%TO.P,U1,D2,GND*%
%TO.N,GND*%
X160700000Y-88000000D03*
D35*
%TO.P,U1,D3,SWDIO*%
%TO.N,unconnected-(U1-SWDIO-PadD3)*%
X160700000Y-85460000D03*
D37*
%TO.P,U1,TP1,TP1_GND*%
%TO.N,unconnected-(U1-TP1_GND-PadTP1)*%
X115000000Y-88000000D03*
%TO.P,U1,TP2,TP2_USB_DM*%
%TO.N,unconnected-(U1-TP2_USB_DM-PadTP2)*%
X111700000Y-87000000D03*
%TO.P,U1,TP3,TP3_USB_DP*%
%TO.N,unconnected-(U1-TP3_USB_DP-PadTP3)*%
X111700000Y-89000000D03*
%TO.P,U1,TP4,TP4_GPIO23/SMPS_PS*%
%TO.N,unconnected-(U1-TP4_GPIO23{slash}SMPS_PS-PadTP4)*%
X118500000Y-90500000D03*
%TO.P,U1,TP5,TP5_GPIO25/LED*%
%TO.N,Net-(U1-TP5_GPIO25{slash}LED)*%
X121000000Y-90500000D03*
%TO.P,U1,TP6,TP6_BOOTSEL*%
%TO.N,unconnected-(U1-TP6_BOOTSEL-PadTP6)*%
X123500000Y-90500000D03*
%TD*%
D13*
%TO.P,R1,1*%
%TO.N,Net-(R1-Pad1)*%
X151900000Y-134800000D03*
%TO.P,R1,2*%
%TO.N,Net-(R1-Pad2)*%
X151900000Y-136625000D03*
%TD*%
D38*
%TO.P,D6,1,K*%
%TO.N,Net-(D6-K)*%
X114800000Y-131000000D03*
%TO.P,D6,2,A*%
%TO.N,GND*%
X112000000Y-131000000D03*
%TD*%
D39*
%TO.P,SW3,1*%
%TO.N,Net-(C1-Pad1)*%
X127597400Y-116461000D03*
D40*
%TO.P,SW3,2*%
%TO.N,Net-(D5-K)*%
X123000000Y-116461000D03*
%TO.P,SW3,3*%
%TO.N,/Analog Front End/Current Source/Iout*%
X118402600Y-116461000D03*
%TO.P,SW3,4*%
%TO.N,unconnected-(SW3-Pad4)*%
X127597400Y-109907800D03*
%TO.P,SW3,5*%
%TO.N,Net-(D5-K)*%
X123000000Y-109907800D03*
%TO.P,SW3,6*%
%TO.N,/Analog Front End/Continuity Detector/Vin*%
X118402600Y-109907800D03*
%TO.P,SW3,7*%
%TO.N,Net-(R29-Pad1)*%
X127597400Y-105539000D03*
%TO.P,SW3,8*%
%TO.N,GND*%
X123000000Y-105539000D03*
%TO.P,SW3,9*%
%TO.N,/Analog Front End/MODE*%
X118402600Y-105539000D03*
%TD*%
D10*
%TO.P,Q10,1,G*%
%TO.N,Net-(Q10-G)*%
X147612500Y-62300000D03*
%TO.P,Q10,2,S*%
%TO.N,+5V*%
X149512500Y-62300000D03*
%TO.P,Q10,3,D*%
%TO.N,Net-(Q10-D)*%
X148562500Y-60425000D03*
%TD*%
D15*
%TO.P,R2,1*%
%TO.N,Net-(U9-R2)*%
X153987500Y-143000000D03*
%TO.P,R2,2*%
%TO.N,GND*%
X155812500Y-143000000D03*
%TD*%
D10*
%TO.P,Q23,1,G*%
%TO.N,Net-(Q23-G)*%
X149750000Y-67600000D03*
%TO.P,Q23,2,S*%
%TO.N,GND*%
X151650000Y-67600000D03*
%TO.P,Q23,3,D*%
%TO.N,Net-(Q11-G)*%
X150700000Y-65725000D03*
%TD*%
D15*
%TO.P,R29,1*%
%TO.N,Net-(R29-Pad1)*%
X154487500Y-106700000D03*
%TO.P,R29,2*%
%TO.N,Net-(Q25-G)*%
X156312500Y-106700000D03*
%TD*%
D25*
%TO.P,H3,1,1*%
%TO.N,GND*%
X109600000Y-141000000D03*
X110302944Y-139302944D03*
X110302944Y-142697056D03*
X112000000Y-138600000D03*
D26*
X112000000Y-141000000D03*
D25*
X112000000Y-143400000D03*
X113697056Y-139302944D03*
X113697056Y-142697056D03*
X114400000Y-141000000D03*
%TD*%
D13*
%TO.P,R54,1*%
%TO.N,/Analog Front End/Continuity Detector/Vin*%
X141600000Y-136100000D03*
%TO.P,R54,2*%
%TO.N,Net-(U9-+)*%
X141600000Y-137925000D03*
%TD*%
D10*
%TO.P,Q11,1,G*%
%TO.N,Net-(Q11-G)*%
X151212500Y-62300000D03*
%TO.P,Q11,2,S*%
%TO.N,+5V*%
X153112500Y-62300000D03*
%TO.P,Q11,3,D*%
%TO.N,Net-(Q11-D)*%
X152162500Y-60425000D03*
%TD*%
D41*
%TO.P,C2,1*%
%TO.N,GND*%
X141700000Y-142850000D03*
%TO.P,C2,2*%
%TO.N,+3.3V*%
X141700000Y-140950000D03*
%TD*%
D11*
%TO.P,R41,1*%
%TO.N,Net-(Q25-D)*%
X160100000Y-113612500D03*
%TO.P,R41,2*%
%TO.N,GND*%
X160100000Y-111787500D03*
%TD*%
%TO.P,R12,1*%
%TO.N,/Display/digit4*%
X162100000Y-67500000D03*
%TO.P,R12,2*%
%TO.N,Net-(Q1-G)*%
X162100000Y-65675000D03*
%TD*%
%TO.P,R44,1*%
%TO.N,+5V*%
X139600000Y-72812500D03*
%TO.P,R44,2*%
%TO.N,Net-(Q13-G)*%
X139600000Y-70987500D03*
%TD*%
%TO.P,R18,1*%
%TO.N,Net-(Q10-D)*%
X148600000Y-58300000D03*
%TO.P,R18,2*%
%TO.N,Net-(U4-f)*%
X148600000Y-56475000D03*
%TD*%
D27*
%TO.P,C17,1*%
%TO.N,GND*%
X154300000Y-137150000D03*
%TO.P,C17,2*%
%TO.N,+3.3V*%
X154300000Y-139050000D03*
%TD*%
D42*
%TO.P,R42,1*%
%TO.N,+3.3V*%
X173012500Y-120825000D03*
%TO.P,R42,2*%
%TO.N,/Analog Front End/CS*%
X171187500Y-120825000D03*
%TD*%
D10*
%TO.P,Q20,1,G*%
%TO.N,Net-(Q20-G)*%
X135587500Y-67587500D03*
%TO.P,Q20,2,S*%
%TO.N,GND*%
X137487500Y-67587500D03*
%TO.P,Q20,3,D*%
%TO.N,Net-(Q20-D)*%
X136537500Y-65712500D03*
%TD*%
D27*
%TO.P,C14,1*%
%TO.N,Net-(C14-Pad1)*%
X148100000Y-115250000D03*
%TO.P,C14,2*%
%TO.N,Net-(U3A--)*%
X148100000Y-117150000D03*
%TD*%
D11*
%TO.P,R20,1*%
%TO.N,Net-(Q13-D)*%
X141700000Y-58300000D03*
%TO.P,R20,2*%
%TO.N,Net-(U4-DPX)*%
X141700000Y-56475000D03*
%TD*%
D10*
%TO.P,Q12,1,G*%
%TO.N,Net-(Q12-G)*%
X114300000Y-67762500D03*
%TO.P,Q12,2,S*%
%TO.N,GND*%
X116200000Y-67762500D03*
%TO.P,Q12,3,D*%
%TO.N,Net-(D1-K)*%
X115250000Y-65887500D03*
%TD*%
%TO.P,Q3,1,G*%
%TO.N,Net-(Q3-G)*%
X173150000Y-62225000D03*
%TO.P,Q3,2,S*%
%TO.N,GND*%
X175050000Y-62225000D03*
%TO.P,Q3,3,D*%
%TO.N,Net-(Q3-D)*%
X174100000Y-60350000D03*
%TD*%
D15*
%TO.P,R69,1*%
%TO.N,Net-(Q25-G)*%
X158075000Y-106700000D03*
%TO.P,R69,2*%
%TO.N,+3.3V*%
X159900000Y-106700000D03*
%TD*%
D28*
%TO.P,TP4,1,1*%
%TO.N,Net-(U3C--)*%
X125000000Y-122400000D03*
%TD*%
D15*
%TO.P,R33,1*%
%TO.N,Net-(U3C--)*%
X130475000Y-124500000D03*
%TO.P,R33,2*%
%TO.N,Net-(U5-COM3)*%
X132300000Y-124500000D03*
%TD*%
D28*
%TO.P,TP2,1,1*%
%TO.N,/Analog Front End/Continuity Detector/Vbias*%
X166800000Y-125600000D03*
%TD*%
D13*
%TO.P,R28,1*%
%TO.N,+5V*%
X115200000Y-56725000D03*
%TO.P,R28,2*%
%TO.N,Net-(D1-A)*%
X115200000Y-58550000D03*
%TD*%
D11*
%TO.P,R50,1*%
%TO.N,/Display/F*%
X145700000Y-72812500D03*
%TO.P,R50,2*%
%TO.N,Net-(Q22-G)*%
X145700000Y-70987500D03*
%TD*%
D25*
%TO.P,H1,1,1*%
%TO.N,GND*%
X109600000Y-39000000D03*
X110302944Y-37302944D03*
X110302944Y-40697056D03*
X112000000Y-36600000D03*
D26*
X112000000Y-39000000D03*
D25*
X112000000Y-41400000D03*
X113697056Y-37302944D03*
X113697056Y-40697056D03*
X114400000Y-39000000D03*
%TD*%
D11*
%TO.P,R6,1*%
%TO.N,+5V*%
X159900000Y-72812500D03*
%TO.P,R6,2*%
%TO.N,Net-(Q17-D)*%
X159900000Y-70987500D03*
%TD*%
%TO.P,R34,1*%
%TO.N,/Display/kilo*%
X122500000Y-73037500D03*
%TO.P,R34,2*%
%TO.N,Net-(Q15-G)*%
X122500000Y-71212500D03*
%TD*%
D10*
%TO.P,Q13,1,G*%
%TO.N,Net-(Q13-G)*%
X140550000Y-62287500D03*
%TO.P,Q13,2,S*%
%TO.N,+5V*%
X142450000Y-62287500D03*
%TO.P,Q13,3,D*%
%TO.N,Net-(Q13-D)*%
X141500000Y-60412500D03*
%TD*%
D13*
%TO.P,R30,1*%
%TO.N,+5V*%
X123250000Y-56725000D03*
%TO.P,R30,2*%
%TO.N,Net-(D3-A)*%
X123250000Y-58550000D03*
%TD*%
D28*
%TO.P,TP5,1,1*%
%TO.N,Net-(Q14-S)*%
X136700000Y-126600000D03*
%TD*%
D13*
%TO.P,R36,1*%
%TO.N,Net-(R36-Pad1)*%
X157500000Y-131900000D03*
%TO.P,R36,2*%
%TO.N,Net-(R36-Pad2)*%
X157500000Y-133725000D03*
%TD*%
D15*
%TO.P,R66,1*%
%TO.N,Net-(U3C--)*%
X130487500Y-122400000D03*
%TO.P,R66,2*%
%TO.N,Net-(U5-COM2)*%
X132312500Y-122400000D03*
%TD*%
D11*
%TO.P,R10,1*%
%TO.N,/Display/digit2*%
X173200000Y-67500000D03*
%TO.P,R10,2*%
%TO.N,Net-(Q3-G)*%
X173200000Y-65675000D03*
%TD*%
D10*
%TO.P,Q15,1,G*%
%TO.N,Net-(Q15-G)*%
X122300000Y-67825000D03*
%TO.P,Q15,2,S*%
%TO.N,GND*%
X124200000Y-67825000D03*
%TO.P,Q15,3,D*%
%TO.N,Net-(D3-K)*%
X123250000Y-65950000D03*
%TD*%
%TO.P,Q16,1,G*%
%TO.N,Net-(Q16-G)*%
X126300000Y-67762500D03*
%TO.P,Q16,2,S*%
%TO.N,GND*%
X128200000Y-67762500D03*
%TO.P,Q16,3,D*%
%TO.N,Net-(D4-K)*%
X127250000Y-65887500D03*
%TD*%
D43*
%TO.P,C3,1*%
%TO.N,Net-(U9-+)*%
X147350000Y-142300000D03*
%TO.P,C3,2*%
%TO.N,Net-(U9--)*%
X149250000Y-142300000D03*
%TD*%
D13*
%TO.P,R61,1*%
%TO.N,REF*%
X135200000Y-137287500D03*
%TO.P,R61,2*%
%TO.N,Net-(U8-IN+)*%
X135200000Y-139112500D03*
%TD*%
D10*
%TO.P,Q19,1,G*%
%TO.N,Net-(Q19-G)*%
X142662500Y-67612500D03*
%TO.P,Q19,2,S*%
%TO.N,GND*%
X144562500Y-67612500D03*
%TO.P,Q19,3,D*%
%TO.N,Net-(Q19-D)*%
X143612500Y-65737500D03*
%TD*%
D13*
%TO.P,R31,1*%
%TO.N,+5V*%
X127250000Y-56725000D03*
%TO.P,R31,2*%
%TO.N,Net-(D4-A)*%
X127250000Y-58550000D03*
%TD*%
D15*
%TO.P,R60,1*%
%TO.N,Net-(U8-IN+)*%
X137087500Y-138900000D03*
%TO.P,R60,2*%
%TO.N,/Analog Front End/continuity_detected*%
X138912500Y-138900000D03*
%TD*%
%TO.P,R38,1*%
%TO.N,Net-(R36-Pad2)*%
X157487500Y-136400000D03*
%TO.P,R38,2*%
%TO.N,Net-(R38-Pad2)*%
X159312500Y-136400000D03*
%TD*%
%TO.P,R4,1*%
%TO.N,+3.3V*%
X111684900Y-105561000D03*
%TO.P,R4,2*%
%TO.N,/Analog Front End/MODE*%
X113509900Y-105561000D03*
%TD*%
D11*
%TO.P,R26,1*%
%TO.N,+5V*%
X131600000Y-72812500D03*
%TO.P,R26,2*%
%TO.N,Net-(Q21-D)*%
X131600000Y-70987500D03*
%TD*%
D42*
%TO.P,R8,1*%
%TO.N,+3.3V*%
X137625000Y-130900000D03*
%TO.P,R8,2*%
%TO.N,REF*%
X135800000Y-130900000D03*
%TD*%
D11*
%TO.P,R65,1*%
%TO.N,Net-(R65-Pad1)*%
X149700000Y-136625000D03*
%TO.P,R65,2*%
%TO.N,Net-(R1-Pad1)*%
X149700000Y-134800000D03*
%TD*%
%TO.P,R24,1*%
%TO.N,+5V*%
X143700000Y-72812500D03*
%TO.P,R24,2*%
%TO.N,Net-(Q19-D)*%
X143700000Y-70987500D03*
%TD*%
D10*
%TO.P,Q7,1,G*%
%TO.N,Net-(Q19-D)*%
X144087500Y-62300000D03*
%TO.P,Q7,2,S*%
%TO.N,+5V*%
X145987500Y-62300000D03*
%TO.P,Q7,3,D*%
%TO.N,Net-(Q7-D)*%
X145037500Y-60425000D03*
%TD*%
D44*
%TO.P,SW1,1,1*%
%TO.N,Net-(U1-TP5_GPIO25{slash}LED)*%
X135597400Y-107000000D03*
X142097400Y-107000000D03*
%TO.P,SW1,2,2*%
%TO.N,GND*%
X135597400Y-111500000D03*
X142097400Y-111500000D03*
%TD*%
D13*
%TO.P,R55,1*%
%TO.N,/Analog Front End/Continuity Detector/Vbias*%
X145500000Y-136587500D03*
%TO.P,R55,2*%
%TO.N,Net-(U9--)*%
X145500000Y-138412500D03*
%TD*%
D11*
%TO.P,R16,1*%
%TO.N,Net-(Q8-D)*%
X138200000Y-58300000D03*
%TO.P,R16,2*%
%TO.N,Net-(U4-d)*%
X138200000Y-56475000D03*
%TD*%
D43*
%TO.P,C15,1*%
%TO.N,Net-(U9-R2)*%
X153925000Y-140925000D03*
%TO.P,C15,2*%
%TO.N,GND*%
X155825000Y-140925000D03*
%TD*%
D45*
%TO.P,D2,1,K*%
%TO.N,Net-(D2-K)*%
X121850000Y-131000000D03*
%TO.P,D2,2,A*%
%TO.N,Net-(D2-A)*%
X126150000Y-131000000D03*
%TD*%
D15*
%TO.P,R63,1*%
%TO.N,/Analog Front End/current_range4*%
X165075000Y-100800000D03*
%TO.P,R63,2*%
%TO.N,GND*%
X166900000Y-100800000D03*
%TD*%
D11*
%TO.P,R14,1*%
%TO.N,Net-(Q6-D)*%
X155700000Y-58200000D03*
%TO.P,R14,2*%
%TO.N,Net-(U4-b)*%
X155700000Y-56375000D03*
%TD*%
%TO.P,R13,1*%
%TO.N,Net-(Q5-D)*%
X159400000Y-58200000D03*
%TO.P,R13,2*%
%TO.N,Net-(U4-a)*%
X159400000Y-56375000D03*
%TD*%
%TO.P,R11,1*%
%TO.N,/Display/digit3*%
X165800000Y-67500000D03*
%TO.P,R11,2*%
%TO.N,Net-(Q2-G)*%
X165800000Y-65675000D03*
%TD*%
D19*
%TO.P,D1,1,K*%
%TO.N,Net-(D1-K)*%
X115250000Y-63825000D03*
%TO.P,D1,2,A*%
%TO.N,Net-(D1-A)*%
X115250000Y-61950000D03*
%TD*%
D15*
%TO.P,R53,1*%
%TO.N,Net-(R38-Pad2)*%
X160987500Y-136400000D03*
%TO.P,R53,2*%
%TO.N,GND*%
X162812500Y-136400000D03*
%TD*%
D11*
%TO.P,R47,1*%
%TO.N,/Display/C*%
X141700000Y-72812500D03*
%TO.P,R47,2*%
%TO.N,Net-(Q19-G)*%
X141700000Y-70987500D03*
%TD*%
D10*
%TO.P,Q6,1,G*%
%TO.N,Net-(Q18-D)*%
X154800000Y-62300000D03*
%TO.P,Q6,2,S*%
%TO.N,+5V*%
X156700000Y-62300000D03*
%TO.P,Q6,3,D*%
%TO.N,Net-(Q6-D)*%
X155750000Y-60425000D03*
%TD*%
D25*
%TO.P,H2,1,1*%
%TO.N,GND*%
X169600000Y-39000000D03*
X170302944Y-37302944D03*
X170302944Y-40697056D03*
X172000000Y-36600000D03*
D26*
X172000000Y-39000000D03*
D25*
X172000000Y-41400000D03*
X173697056Y-37302944D03*
X173697056Y-40697056D03*
X174400000Y-39000000D03*
%TD*%
D46*
%TO.P,D5,1,K*%
%TO.N,Net-(D5-K)*%
X152300000Y-112250000D03*
%TO.P,D5,2,A*%
%TO.N,GND*%
X152300000Y-108950000D03*
%TD*%
D11*
%TO.P,R19,1*%
%TO.N,Net-(Q11-D)*%
X152000000Y-58300000D03*
%TO.P,R19,2*%
%TO.N,Net-(U4-g)*%
X152000000Y-56475000D03*
%TD*%
D43*
%TO.P,C1,1*%
%TO.N,Net-(C1-Pad1)*%
X132450000Y-115200000D03*
%TO.P,C1,2*%
%TO.N,/Analog Front End/Continuity Detector/Vbias*%
X134350000Y-115200000D03*
%TD*%
D47*
%TO.P,C4,1*%
%TO.N,+3.3V*%
X148650000Y-119800000D03*
%TO.P,C4,2*%
%TO.N,GND*%
X146750000Y-119800000D03*
%TD*%
D11*
%TO.P,R51,1*%
%TO.N,/Display/G*%
X149700000Y-72812500D03*
%TO.P,R51,2*%
%TO.N,Net-(Q23-G)*%
X149700000Y-70987500D03*
%TD*%
D10*
%TO.P,Q2,1,G*%
%TO.N,Net-(Q2-G)*%
X165850000Y-62262500D03*
%TO.P,Q2,2,S*%
%TO.N,GND*%
X167750000Y-62262500D03*
%TO.P,Q2,3,D*%
%TO.N,Net-(Q2-D)*%
X166800000Y-60387500D03*
%TD*%
D20*
%TO.P,J3,1,Pin_1*%
%TO.N,/Analog Front End/Continuity Detector/Vin*%
X144000000Y-131000000D03*
%TD*%
D10*
%TO.P,Q22,1,G*%
%TO.N,Net-(Q22-G)*%
X146200000Y-67600000D03*
%TO.P,Q22,2,S*%
%TO.N,GND*%
X148100000Y-67600000D03*
%TO.P,Q22,3,D*%
%TO.N,Net-(Q10-G)*%
X147150000Y-65725000D03*
%TD*%
%TO.P,Q1,1,G*%
%TO.N,Net-(Q1-G)*%
X162150000Y-62262500D03*
%TO.P,Q1,2,S*%
%TO.N,GND*%
X164050000Y-62262500D03*
%TO.P,Q1,3,D*%
%TO.N,Net-(Q1-D)*%
X163100000Y-60387500D03*
%TD*%
D41*
%TO.P,C6,1*%
%TO.N,+3.3V*%
X168750000Y-114687500D03*
%TO.P,C6,2*%
%TO.N,GND*%
X168750000Y-112787500D03*
%TD*%
D48*
%TO.P,U5,1,NO1*%
%TO.N,Net-(Q14-S)*%
X135137500Y-119650000D03*
%TO.P,U5,2,COM1*%
%TO.N,Net-(U5-COM1)*%
X135137500Y-120300000D03*
%TO.P,U5,3,NO2*%
%TO.N,Net-(Q14-S)*%
X135137500Y-120950000D03*
%TO.P,U5,4,COM2*%
%TO.N,Net-(U5-COM2)*%
X135137500Y-121600000D03*
%TO.P,U5,5,IN2*%
%TO.N,/Analog Front End/current_range2*%
X135137500Y-122250000D03*
%TO.P,U5,6,IN3*%
%TO.N,/Analog Front End/current_range3*%
X135137500Y-122900000D03*
%TO.P,U5,7,GND*%
%TO.N,GND*%
X135137500Y-123550000D03*
%TO.P,U5,8,NO3*%
%TO.N,Net-(Q14-S)*%
X140862500Y-123550000D03*
%TO.P,U5,9,COM3*%
%TO.N,Net-(U5-COM3)*%
X140862500Y-122900000D03*
%TO.P,U5,10,COM4*%
%TO.N,Net-(U5-COM4)*%
X140862500Y-122250000D03*
%TO.P,U5,11,NO4*%
%TO.N,Net-(Q14-S)*%
X140862500Y-121600000D03*
%TO.P,U5,12,IN4*%
%TO.N,/Analog Front End/current_range4*%
X140862500Y-120950000D03*
%TO.P,U5,13,IN1*%
%TO.N,/Analog Front End/current_range1*%
X140862500Y-120300000D03*
%TO.P,U5,14,VCC*%
%TO.N,+3.3V*%
X140862500Y-119650000D03*
%TD*%
D11*
%TO.P,R46,1*%
%TO.N,/Display/B*%
X153800000Y-72812500D03*
%TO.P,R46,2*%
%TO.N,Net-(Q18-G)*%
X153800000Y-70987500D03*
%TD*%
D19*
%TO.P,D4,1,K*%
%TO.N,Net-(D4-K)*%
X127250000Y-63825000D03*
%TO.P,D4,2,A*%
%TO.N,Net-(D4-A)*%
X127250000Y-61950000D03*
%TD*%
D49*
%TO.P,F1,1*%
%TO.N,Net-(D2-K)*%
X118937500Y-131000000D03*
%TO.P,F1,2*%
%TO.N,Net-(D6-K)*%
X117062500Y-131000000D03*
%TD*%
D11*
%TO.P,R35,1*%
%TO.N,/Display/mega*%
X126500000Y-73037500D03*
%TO.P,R35,2*%
%TO.N,Net-(Q16-G)*%
X126500000Y-71212500D03*
%TD*%
D10*
%TO.P,Q8,1,G*%
%TO.N,Net-(Q20-D)*%
X136950000Y-62300000D03*
%TO.P,Q8,2,S*%
%TO.N,+5V*%
X138850000Y-62300000D03*
%TO.P,Q8,3,D*%
%TO.N,Net-(Q8-D)*%
X137900000Y-60425000D03*
%TD*%
D11*
%TO.P,R40,1*%
%TO.N,Net-(U10-REFIN+)*%
X160100000Y-117175000D03*
%TO.P,R40,2*%
%TO.N,Net-(Q25-D)*%
X160100000Y-115350000D03*
%TD*%
D13*
%TO.P,R59,1*%
%TO.N,/Analog Front End/current_range2*%
X122100000Y-122287500D03*
%TO.P,R59,2*%
%TO.N,GND*%
X122100000Y-124112500D03*
%TD*%
D28*
%TO.P,TP3,1,1*%
%TO.N,Net-(C14-Pad1)*%
X147000000Y-109900000D03*
%TD*%
D13*
%TO.P,R7,1*%
%TO.N,Net-(U3A-+)*%
X157500000Y-128343750D03*
%TO.P,R7,2*%
%TO.N,Net-(R36-Pad1)*%
X157500000Y-130168750D03*
%TD*%
D10*
%TO.P,Q5,1,G*%
%TO.N,Net-(Q17-D)*%
X158450000Y-62275000D03*
%TO.P,Q5,2,S*%
%TO.N,+5V*%
X160350000Y-62275000D03*
%TO.P,Q5,3,D*%
%TO.N,Net-(Q5-D)*%
X159400000Y-60400000D03*
%TD*%
%TO.P,Q21,1,G*%
%TO.N,Net-(Q21-G)*%
X132000000Y-67600000D03*
%TO.P,Q21,2,S*%
%TO.N,GND*%
X133900000Y-67600000D03*
%TO.P,Q21,3,D*%
%TO.N,Net-(Q21-D)*%
X132950000Y-65725000D03*
%TD*%
D27*
%TO.P,C13,1*%
%TO.N,GND*%
X140900000Y-116000000D03*
%TO.P,C13,2*%
%TO.N,+3.3V*%
X140900000Y-117900000D03*
%TD*%
D13*
%TO.P,R57,1*%
%TO.N,Net-(C14-Pad1)*%
X146500000Y-123187500D03*
%TO.P,R57,2*%
%TO.N,Net-(Q14-G)*%
X146500000Y-125012500D03*
%TD*%
D10*
%TO.P,Q9,1,G*%
%TO.N,Net-(Q21-D)*%
X133250000Y-62300000D03*
%TO.P,Q9,2,S*%
%TO.N,+5V*%
X135150000Y-62300000D03*
%TO.P,Q9,3,D*%
%TO.N,Net-(Q9-D)*%
X134200000Y-60425000D03*
%TD*%
D42*
%TO.P,R3,1*%
%TO.N,+3.3V*%
X146412500Y-106400000D03*
%TO.P,R3,2*%
%TO.N,Net-(U1-TP5_GPIO25{slash}LED)*%
X144587500Y-106400000D03*
%TD*%
D11*
%TO.P,R9,1*%
%TO.N,/Display/digit1*%
X169500000Y-67500000D03*
%TO.P,R9,2*%
%TO.N,Net-(Q4-G)*%
X169500000Y-65675000D03*
%TD*%
D42*
%TO.P,R5,1*%
%TO.N,/Analog Front End/current_range1*%
X114212500Y-101700000D03*
%TO.P,R5,2*%
%TO.N,GND*%
X112387500Y-101700000D03*
%TD*%
D11*
%TO.P,R32,1*%
%TO.N,/Display/low_ohm*%
X114500000Y-73037500D03*
%TO.P,R32,2*%
%TO.N,Net-(Q12-G)*%
X114500000Y-71212500D03*
%TD*%
D15*
%TO.P,R62,1*%
%TO.N,/Analog Front End/current_range3*%
X148187500Y-106400000D03*
%TO.P,R62,2*%
%TO.N,GND*%
X150012500Y-106400000D03*
%TD*%
D42*
%TO.P,R68,1*%
%TO.N,GND*%
X159925000Y-108800000D03*
%TO.P,R68,2*%
%TO.N,Net-(Q25-G)*%
X158100000Y-108800000D03*
%TD*%
D50*
%TO.P,U8,1,IN+*%
%TO.N,Net-(U8-IN+)*%
X137262500Y-140950000D03*
%TO.P,U8,2,V-*%
%TO.N,GND*%
X137262500Y-141900000D03*
%TO.P,U8,3,IN-*%
%TO.N,Net-(U8-IN-)*%
X137262500Y-142850000D03*
%TO.P,U8,4,OUT*%
%TO.N,/Analog Front End/continuity_detected*%
X139537500Y-142850000D03*
%TO.P,U8,5,~SD*%
%TO.N,+3.3V*%
X139537500Y-141900000D03*
%TO.P,U8,6,V+*%
X139537500Y-140950000D03*
%TD*%
D13*
%TO.P,R64,1*%
%TO.N,Net-(U8-IN+)*%
X135200000Y-140775000D03*
%TO.P,R64,2*%
%TO.N,GND*%
X135200000Y-142600000D03*
%TD*%
D11*
%TO.P,R37,1*%
%TO.N,/Analog Front End/Continuity Detector/Vin*%
X113400000Y-110612500D03*
%TO.P,R37,2*%
%TO.N,Net-(D5-K)*%
X113400000Y-108787500D03*
%TD*%
D10*
%TO.P,Q17,1,G*%
%TO.N,Net-(Q17-G)*%
X156850000Y-67575000D03*
%TO.P,Q17,2,S*%
%TO.N,GND*%
X158750000Y-67575000D03*
%TO.P,Q17,3,D*%
%TO.N,Net-(Q17-D)*%
X157800000Y-65700000D03*
%TD*%
D28*
%TO.P,U4,1,e*%
%TO.N,Net-(U4-e)*%
X135650000Y-52477500D03*
D51*
%TO.P,U4,2,d*%
%TO.N,Net-(U4-d)*%
X138190000Y-52477500D03*
%TO.P,U4,3,DPX*%
%TO.N,Net-(U4-DPX)*%
X140730000Y-52477500D03*
%TO.P,U4,4,c*%
%TO.N,Net-(U4-c)*%
X143270000Y-52477500D03*
%TO.P,U4,5,g*%
%TO.N,Net-(U4-g)*%
X145810000Y-52477500D03*
%TO.P,U4,6,CC4*%
%TO.N,Net-(Q1-D)*%
X148350000Y-52477500D03*
%TO.P,U4,7,b*%
%TO.N,Net-(U4-b)*%
X148350000Y-37237500D03*
%TO.P,U4,8,CC3*%
%TO.N,Net-(Q2-D)*%
X145810000Y-37237500D03*
%TO.P,U4,9,CC2*%
%TO.N,Net-(Q3-D)*%
X143270000Y-37237500D03*
%TO.P,U4,10,f*%
%TO.N,Net-(U4-f)*%
X140730000Y-37237500D03*
%TO.P,U4,11,a*%
%TO.N,Net-(U4-a)*%
X138190000Y-37237500D03*
%TO.P,U4,12,CC1*%
%TO.N,Net-(Q4-D)*%
X135650000Y-37237500D03*
%TD*%
D52*
%TO.N,+5V*%
X156700000Y-63900000D03*
X135100000Y-63900000D03*
X149400000Y-63900000D03*
X131800000Y-63900000D03*
X142500000Y-63900000D03*
X138500000Y-63900000D03*
X145600000Y-63900000D03*
X153200000Y-63900000D03*
X160400000Y-63900000D03*
%TO.N,GND*%
X152800000Y-106900000D03*
X158000000Y-118625000D03*
X141000000Y-65400000D03*
X159212500Y-143000000D03*
X174100000Y-71000000D03*
X111000000Y-101700000D03*
X116500000Y-85600000D03*
X168400000Y-111200000D03*
X116900000Y-95000000D03*
X125200000Y-64287500D03*
X130600000Y-130800000D03*
X137500000Y-65300000D03*
X117300000Y-64287500D03*
X158800000Y-65400000D03*
X154437500Y-135675000D03*
X172000000Y-63887500D03*
X123900000Y-124400000D03*
X162600000Y-109500000D03*
X148200000Y-65300000D03*
X143200000Y-142800000D03*
X150400000Y-109000000D03*
X143904931Y-140130237D03*
X111900000Y-92200000D03*
X129700000Y-80700000D03*
X140900000Y-114700000D03*
X168287500Y-100800000D03*
X167800000Y-64087500D03*
X169800000Y-117000000D03*
X137600000Y-123600000D03*
X164112500Y-136400000D03*
X160050000Y-122325000D03*
X142300000Y-80700000D03*
X116900000Y-80900000D03*
X151500000Y-105000000D03*
X162100000Y-113800000D03*
X164000000Y-64087500D03*
X144600000Y-65400000D03*
X129600000Y-95100000D03*
X158200000Y-88000000D03*
X155200000Y-65300000D03*
X132500000Y-143300000D03*
X155000000Y-80600000D03*
X142300000Y-95400000D03*
X155100000Y-95300000D03*
X133900000Y-65400000D03*
X110500000Y-131000000D03*
X162200000Y-111700000D03*
X129200000Y-64287500D03*
X146400000Y-121400000D03*
X151700000Y-65400000D03*
%TO.N,+3.3V*%
X167200000Y-97100000D03*
X139000000Y-134000000D03*
X146300000Y-92300000D03*
X167100000Y-113900000D03*
X112400000Y-103300000D03*
X169400000Y-105800000D03*
X162087347Y-106712653D03*
X141700000Y-139500000D03*
X145300000Y-143200000D03*
X153400000Y-92300000D03*
X158200000Y-110700000D03*
X139425153Y-114400153D03*
X149400000Y-108100000D03*
X163500000Y-113600000D03*
X159800000Y-92600000D03*
X162050000Y-94850000D03*
X151200000Y-144200000D03*
X113400000Y-94900000D03*
X169200000Y-109100000D03*
X164200000Y-97000000D03*
X153200000Y-118900000D03*
%TO.N,/Analog Front End/MODE*%
X134600000Y-100300000D03*
X119700000Y-101600000D03*
%TO.N,Net-(Q2-D)*%
X154400000Y-43400000D03*
X156600000Y-43400000D03*
X148800000Y-42000000D03*
X146800000Y-40000000D03*
%TO.N,Net-(Q4-D)*%
X160700000Y-45900000D03*
X139700000Y-42900000D03*
X168300000Y-53200000D03*
X165800000Y-50900000D03*
X141800000Y-42900000D03*
X154300000Y-45900000D03*
%TO.N,/Analog Front End/Continuity Detector/Vbias*%
X156700000Y-126500000D03*
X158900000Y-126500000D03*
X136200000Y-113600000D03*
X148900000Y-122800000D03*
%TO.N,/Display/digit3*%
X165800000Y-81500000D03*
X165800000Y-78500000D03*
%TO.N,Net-(U4-a)*%
X141800000Y-41800000D03*
X159800000Y-51200000D03*
X139700000Y-41700000D03*
X154400000Y-44600000D03*
X159800000Y-53300000D03*
X156600000Y-44600000D03*
%TO.N,Net-(U4-b)*%
X155700000Y-51500000D03*
X155700000Y-53500000D03*
X155800000Y-41900000D03*
X155800000Y-40100000D03*
%TO.N,/Display/low_ohm*%
X120200000Y-74600000D03*
X146800000Y-86100000D03*
X121950000Y-84150000D03*
X144100000Y-86200000D03*
%TO.N,Net-(C14-Pad1)*%
X143800000Y-118300000D03*
X144900000Y-121700000D03*
%TO.N,/Analog Front End/SCK*%
X166700000Y-120000000D03*
X164700000Y-118500000D03*
%TO.N,/Analog Front End/SDI*%
X166600000Y-118800000D03*
X164900000Y-117000000D03*
%TO.N,/Analog Front End/SDO*%
X166900000Y-106600000D03*
X162600000Y-104300000D03*
%TO.N,Net-(D5-K)*%
X139200000Y-110200000D03*
X133600000Y-109500000D03*
X153900000Y-116000000D03*
X142900000Y-109500000D03*
X153500000Y-113700000D03*
X149400000Y-112200000D03*
%TO.N,Net-(U3C--)*%
X153700000Y-123100000D03*
X139800000Y-126500000D03*
%TO.N,Net-(Q14-S)*%
X142400000Y-123300000D03*
X143600000Y-120100000D03*
%TO.N,/Display/E*%
X127900000Y-74400000D03*
X136200000Y-81500000D03*
%TO.N,/Display/DP*%
X140950000Y-82150000D03*
X138600000Y-80275000D03*
%TO.N,Net-(U1-TP5_GPIO25{slash}LED)*%
X135597400Y-105292200D03*
X136000000Y-95100000D03*
%TO.N,REF*%
X152600000Y-123000000D03*
X137200000Y-137000000D03*
X137700000Y-134200000D03*
X143600000Y-125700000D03*
%TO.N,/Display/kilo*%
X122500000Y-74600000D03*
X123800000Y-82700000D03*
%TO.N,/Display/mega*%
X128450000Y-85050000D03*
X126500000Y-74500000D03*
%TO.N,/Analog Front End/current_range2*%
X137400000Y-121675000D03*
X137300000Y-100500000D03*
X137300000Y-109300000D03*
X137400000Y-120100000D03*
%TO.N,/Analog Front End/current_range3*%
X138600000Y-116200000D03*
X140800000Y-104800000D03*
X139800000Y-100500000D03*
X138400000Y-122100000D03*
%TO.N,/Analog Front End/current_range4*%
X145000000Y-100775000D03*
X145000000Y-109200000D03*
%TD*%
D53*
%TO.N,+5V*%
X128900000Y-71900000D02*
X128400000Y-71400000D01*
D54*
X112000000Y-57800000D02*
X113075000Y-56725000D01*
D53*
X156700000Y-62300000D02*
X156700000Y-63900000D01*
X145987500Y-62300000D02*
X145987500Y-63512500D01*
D54*
X111870000Y-78310000D02*
X111870000Y-75630000D01*
D53*
X130800000Y-63900000D02*
X131800000Y-63900000D01*
X130500000Y-67700000D02*
X130500000Y-64200000D01*
X160350000Y-62275000D02*
X160350000Y-63850000D01*
X147700000Y-72812500D02*
X147700000Y-71900000D01*
X151800000Y-71900000D02*
X155700000Y-71900000D01*
X143700000Y-72812500D02*
X143700000Y-71900000D01*
X149512500Y-63787500D02*
X149400000Y-63900000D01*
X143700000Y-71900000D02*
X147700000Y-71900000D01*
X142450000Y-63850000D02*
X142500000Y-63900000D01*
X128400000Y-69800000D02*
X130500000Y-67700000D01*
X145987500Y-63512500D02*
X145600000Y-63900000D01*
X159900000Y-72000000D02*
X159900000Y-72812500D01*
X153112500Y-62300000D02*
X153112500Y-63812500D01*
X155700000Y-71900000D02*
X159800000Y-71900000D01*
D54*
X130725000Y-56725000D02*
X131800000Y-57800000D01*
D53*
X149512500Y-62300000D02*
X149512500Y-63787500D01*
X159800000Y-71900000D02*
X159900000Y-72000000D01*
X131600000Y-71900000D02*
X135600000Y-71900000D01*
D54*
X131800000Y-57800000D02*
X131800000Y-63900000D01*
X111870000Y-75630000D02*
X112000000Y-75500000D01*
D53*
X155800000Y-72812500D02*
X155800000Y-72000000D01*
X130500000Y-64200000D02*
X130800000Y-63900000D01*
D54*
X115200000Y-56725000D02*
X123250000Y-56725000D01*
X113075000Y-56725000D02*
X115200000Y-56725000D01*
D53*
X138850000Y-62300000D02*
X138850000Y-63550000D01*
X155800000Y-72000000D02*
X155700000Y-71900000D01*
X128400000Y-71400000D02*
X128400000Y-69800000D01*
X131600000Y-71900000D02*
X128900000Y-71900000D01*
X151800000Y-72812500D02*
X151800000Y-71900000D01*
X135150000Y-63850000D02*
X135100000Y-63900000D01*
X139600000Y-71900000D02*
X143700000Y-71900000D01*
X139600000Y-72812500D02*
X139600000Y-71900000D01*
X147700000Y-71900000D02*
X151800000Y-71900000D01*
D54*
X123250000Y-56725000D02*
X127250000Y-56725000D01*
D53*
X135600000Y-71900000D02*
X139600000Y-71900000D01*
X131600000Y-72812500D02*
X131600000Y-71900000D01*
X135600000Y-72812500D02*
X135600000Y-71900000D01*
X153112500Y-63812500D02*
X153200000Y-63900000D01*
D54*
X127250000Y-56725000D02*
X130725000Y-56725000D01*
X112000000Y-75500000D02*
X112000000Y-57800000D01*
D53*
X160350000Y-63850000D02*
X160400000Y-63900000D01*
X138850000Y-63550000D02*
X138500000Y-63900000D01*
X135150000Y-62300000D02*
X135150000Y-63850000D01*
X142450000Y-62287500D02*
X142450000Y-63850000D01*
%TO.N,GND*%
X155187500Y-67587500D02*
X155187500Y-65312500D01*
X143150000Y-142850000D02*
X143200000Y-142800000D01*
X171450000Y-63337500D02*
X172000000Y-63887500D01*
X133900000Y-67600000D02*
X133900000Y-65400000D01*
X148100000Y-65400000D02*
X148200000Y-65300000D01*
X175050000Y-70050000D02*
X174100000Y-71000000D01*
X155812500Y-143000000D02*
X159212500Y-143000000D01*
X143904931Y-140130237D02*
X144149694Y-140375000D01*
X154437500Y-137025000D02*
X154437500Y-135675000D01*
X130662500Y-130862500D02*
X130600000Y-130800000D01*
X128200000Y-67762500D02*
X128200000Y-65287500D01*
X123612500Y-124112500D02*
X123900000Y-124400000D01*
X112000000Y-85275000D02*
X114730000Y-85275000D01*
X124200000Y-65287500D02*
X125200000Y-64287500D01*
X116475000Y-85575000D02*
X116500000Y-85600000D01*
X160100000Y-122275000D02*
X160050000Y-122325000D01*
X162100000Y-113800000D02*
X161700000Y-114200000D01*
X152250000Y-109000000D02*
X152300000Y-108950000D01*
X144562500Y-65437500D02*
X144600000Y-65400000D01*
X171450000Y-62225000D02*
X171450000Y-63337500D01*
X137262500Y-141900000D02*
X136600000Y-141900000D01*
X137550000Y-123550000D02*
X135137500Y-123550000D01*
X133200000Y-142600000D02*
X132500000Y-143300000D01*
X137600000Y-123600000D02*
X137550000Y-123550000D01*
X162200000Y-111700000D02*
X160525000Y-111700000D01*
X161925000Y-116925000D02*
X162800000Y-116925000D01*
X129650000Y-97690000D02*
X129650000Y-95150000D01*
X162800000Y-116925000D02*
X162800000Y-117575000D01*
X157370000Y-119255000D02*
X158000000Y-118625000D01*
X153900000Y-107900000D02*
X153200000Y-107900000D01*
X144562500Y-67612500D02*
X144562500Y-65437500D01*
X168600000Y-116925000D02*
X169725000Y-116925000D01*
X136600000Y-141900000D02*
X135900000Y-142600000D01*
X160100000Y-120912500D02*
X160100000Y-122275000D01*
X132050000Y-130862500D02*
X130662500Y-130862500D01*
X167750000Y-62262500D02*
X167750000Y-64037500D01*
X114730000Y-85275000D02*
X115030000Y-85575000D01*
X150012500Y-106400000D02*
X150100000Y-106400000D01*
X155050000Y-95350000D02*
X155100000Y-95300000D01*
X151650000Y-65450000D02*
X151700000Y-65400000D01*
X158750000Y-67575000D02*
X158750000Y-65450000D01*
X135900000Y-142600000D02*
X135200000Y-142600000D01*
X140987500Y-65412500D02*
X141000000Y-65400000D01*
X154500000Y-108500000D02*
X153900000Y-107900000D01*
X142300000Y-80700000D02*
X142300000Y-78360000D01*
X140987500Y-67600000D02*
X140987500Y-65412500D01*
X160125000Y-111812500D02*
X160100000Y-111787500D01*
X153200000Y-107900000D02*
X152800000Y-107500000D01*
X112387500Y-101700000D02*
X111000000Y-101700000D01*
X164050000Y-64037500D02*
X164000000Y-64087500D01*
X155812500Y-143000000D02*
X155812500Y-140937500D01*
X129650000Y-95150000D02*
X129600000Y-95100000D01*
X150100000Y-106400000D02*
X151500000Y-105000000D01*
X115030000Y-85575000D02*
X116475000Y-85575000D01*
X114730000Y-90725000D02*
X115030000Y-90425000D01*
X161900000Y-108800000D02*
X159925000Y-108800000D01*
X116950000Y-95050000D02*
X116900000Y-95000000D01*
X155187500Y-65312500D02*
X155200000Y-65300000D01*
X135200000Y-142600000D02*
X133200000Y-142600000D01*
X111900000Y-90825000D02*
X112000000Y-90725000D01*
X129650000Y-78310000D02*
X129650000Y-80650000D01*
X167750000Y-64037500D02*
X167800000Y-64087500D01*
X140900000Y-116000000D02*
X140900000Y-114700000D01*
X128200000Y-65287500D02*
X129200000Y-64287500D01*
X116950000Y-80850000D02*
X116900000Y-80900000D01*
X168750000Y-112787500D02*
X168750000Y-111550000D01*
X166900000Y-100800000D02*
X168287500Y-100800000D01*
X154500000Y-110100000D02*
X154500000Y-108500000D01*
X168750000Y-111550000D02*
X168400000Y-111200000D01*
X155800000Y-119255000D02*
X157370000Y-119255000D01*
X124200000Y-67825000D02*
X124200000Y-65287500D01*
X150400000Y-109000000D02*
X152250000Y-109000000D01*
X158750000Y-65450000D02*
X158800000Y-65400000D01*
X162812500Y-136400000D02*
X164112500Y-136400000D01*
X129650000Y-80650000D02*
X129700000Y-80700000D01*
X116200000Y-65387500D02*
X117300000Y-64287500D01*
X160700000Y-88000000D02*
X158200000Y-88000000D01*
X112000000Y-90725000D02*
X114730000Y-90725000D01*
X146750000Y-119800000D02*
X146750000Y-121050000D01*
X116950000Y-78310000D02*
X116950000Y-80850000D01*
X146700000Y-119850000D02*
X146750000Y-119800000D01*
X164050000Y-62262500D02*
X164050000Y-64037500D01*
X146750000Y-121050000D02*
X146400000Y-121400000D01*
X162600000Y-109500000D02*
X161900000Y-108800000D01*
X152800000Y-107500000D02*
X152800000Y-106900000D01*
X155812500Y-140937500D02*
X155825000Y-140925000D01*
X161700000Y-116700000D02*
X161925000Y-116925000D01*
X144149694Y-140375000D02*
X147687500Y-140375000D01*
X155000000Y-80600000D02*
X155000000Y-78360000D01*
X137487500Y-65312500D02*
X137500000Y-65300000D01*
X148100000Y-67600000D02*
X148100000Y-65400000D01*
X175050000Y-62225000D02*
X175050000Y-70050000D01*
X112000000Y-131000000D02*
X110500000Y-131000000D01*
X151650000Y-67600000D02*
X151650000Y-65450000D01*
X155000000Y-78360000D02*
X155050000Y-78310000D01*
X116200000Y-67762500D02*
X116200000Y-65387500D01*
X142300000Y-78360000D02*
X142350000Y-78310000D01*
X141700000Y-142850000D02*
X143150000Y-142850000D01*
X155050000Y-97690000D02*
X155050000Y-95350000D01*
X161700000Y-114200000D02*
X161700000Y-116700000D01*
X111900000Y-92200000D02*
X111900000Y-90825000D01*
X122100000Y-124112500D02*
X123612500Y-124112500D01*
X142350000Y-95450000D02*
X142300000Y-95400000D01*
X169725000Y-116925000D02*
X169800000Y-117000000D01*
X142350000Y-97690000D02*
X142350000Y-95450000D01*
X116950000Y-97690000D02*
X116950000Y-95050000D01*
X137487500Y-67587500D02*
X137487500Y-65312500D01*
%TO.N,+3.3V*%
X158300000Y-110600000D02*
X158200000Y-110700000D01*
D54*
X162087347Y-106712653D02*
X159912653Y-106712653D01*
X169200000Y-109100000D02*
X170700000Y-110600000D01*
X116800000Y-89000000D02*
X116800000Y-91600000D01*
X165700000Y-135400000D02*
X165610418Y-135400000D01*
D53*
X163000000Y-110600000D02*
X158300000Y-110600000D01*
X150905000Y-119200000D02*
X150850000Y-119255000D01*
D54*
X160000000Y-144200000D02*
X151200000Y-144200000D01*
X165300000Y-137000000D02*
X163250000Y-139050000D01*
D53*
X139900000Y-117900000D02*
X140900000Y-117900000D01*
D54*
X137000000Y-88900000D02*
X139900000Y-91800000D01*
X167200000Y-97100000D02*
X168900000Y-97100000D01*
D53*
X145200000Y-143200000D02*
X145300000Y-143200000D01*
X139537500Y-140950000D02*
X141700000Y-140950000D01*
D54*
X170300000Y-114700000D02*
X170287500Y-114687500D01*
X159500000Y-92300000D02*
X159800000Y-92600000D01*
X140400000Y-92300000D02*
X146300000Y-92300000D01*
X111684900Y-105561000D02*
X111684900Y-104715100D01*
X122030000Y-81070000D02*
X120200000Y-82900000D01*
X117800000Y-87200000D02*
X117800000Y-88000000D01*
X169400000Y-97600000D02*
X169400000Y-104500000D01*
D53*
X139425153Y-114400153D02*
X139425153Y-117425153D01*
D54*
X173012500Y-106012500D02*
X173012500Y-120825000D01*
D53*
X163500000Y-111100000D02*
X163000000Y-110600000D01*
D54*
X168700000Y-127700000D02*
X168400000Y-128000000D01*
D53*
X153200000Y-118900000D02*
X152900000Y-119200000D01*
D54*
X139900000Y-91800000D02*
X140400000Y-92300000D01*
D53*
X139000000Y-134000000D02*
X139000000Y-131300000D01*
X167887500Y-114687500D02*
X167100000Y-113900000D01*
X140862500Y-119650000D02*
X140862500Y-117937500D01*
X139537500Y-141900000D02*
X139537500Y-140950000D01*
D54*
X112400000Y-104000000D02*
X112400000Y-103300000D01*
D53*
X139000000Y-131300000D02*
X138600000Y-130900000D01*
X168600000Y-114837500D02*
X168750000Y-114687500D01*
X163500000Y-113600000D02*
X163500000Y-111100000D01*
D54*
X117500000Y-88300000D02*
X118100000Y-88900000D01*
X159912653Y-106712653D02*
X159900000Y-106700000D01*
D53*
X144000000Y-142000000D02*
X145200000Y-143200000D01*
D54*
X122030000Y-78310000D02*
X122030000Y-81070000D01*
X165300000Y-135710418D02*
X165300000Y-137000000D01*
D53*
X152900000Y-119200000D02*
X150905000Y-119200000D01*
X149300000Y-119800000D02*
X148650000Y-119800000D01*
D54*
X160300000Y-139050000D02*
X160300000Y-143900000D01*
X170700000Y-114300000D02*
X170300000Y-114700000D01*
X169400000Y-104500000D02*
X171500000Y-104500000D01*
X168400000Y-128000000D02*
X168400000Y-132700000D01*
X173012500Y-127387500D02*
X172700000Y-127700000D01*
X170287500Y-114687500D02*
X168750000Y-114687500D01*
X170700000Y-110600000D02*
X170700000Y-114300000D01*
D53*
X140862500Y-117937500D02*
X140900000Y-117900000D01*
D54*
X114900000Y-93500000D02*
X115050000Y-93350000D01*
X111684900Y-104715100D02*
X112400000Y-104000000D01*
X117500000Y-88300000D02*
X116800000Y-89000000D01*
X117800000Y-88000000D02*
X117500000Y-88300000D01*
D53*
X168600000Y-116275000D02*
X168600000Y-114837500D01*
X162800000Y-116275000D02*
X162800000Y-115100000D01*
D54*
X168900000Y-97100000D02*
X169400000Y-97600000D01*
X163250000Y-139050000D02*
X160300000Y-139050000D01*
X173012500Y-120825000D02*
X173012500Y-127387500D01*
X172700000Y-127700000D02*
X168700000Y-127700000D01*
X116800000Y-91600000D02*
X114900000Y-93500000D01*
X117800000Y-85300000D02*
X117800000Y-87200000D01*
D53*
X138600000Y-130900000D02*
X137625000Y-130900000D01*
D54*
X169400000Y-104500000D02*
X169400000Y-105800000D01*
X168400000Y-132700000D02*
X165700000Y-135400000D01*
X120200000Y-82900000D02*
X118300000Y-84800000D01*
X160300000Y-139050000D02*
X154300000Y-139050000D01*
D53*
X146800000Y-108100000D02*
X146412500Y-107712500D01*
X139425153Y-117425153D02*
X139900000Y-117900000D01*
X143800000Y-142000000D02*
X144000000Y-142000000D01*
X142750000Y-140950000D02*
X143800000Y-142000000D01*
D54*
X160300000Y-143900000D02*
X160000000Y-144200000D01*
X113500000Y-94900000D02*
X113400000Y-94900000D01*
D53*
X163500000Y-114400000D02*
X163500000Y-113600000D01*
X141700000Y-140950000D02*
X142750000Y-140950000D01*
X168750000Y-114687500D02*
X167887500Y-114687500D01*
X162800000Y-115100000D02*
X163500000Y-114400000D01*
D54*
X118800000Y-88900000D02*
X137000000Y-88900000D01*
X118100000Y-88900000D02*
X118800000Y-88900000D01*
X171500000Y-104500000D02*
X173012500Y-106012500D01*
D53*
X141700000Y-140950000D02*
X141700000Y-139500000D01*
X149845000Y-119255000D02*
X149300000Y-119800000D01*
D54*
X115050000Y-93350000D02*
X113500000Y-94900000D01*
D53*
X146412500Y-107712500D02*
X146412500Y-106400000D01*
X151937500Y-139050000D02*
X154300000Y-139050000D01*
X149400000Y-108100000D02*
X146800000Y-108100000D01*
X150850000Y-119255000D02*
X149845000Y-119255000D01*
D54*
X165610418Y-135400000D02*
X165300000Y-135710418D01*
D53*
X151912500Y-139075000D02*
X151937500Y-139050000D01*
D54*
X118300000Y-84800000D02*
X117800000Y-85300000D01*
X153400000Y-92300000D02*
X159500000Y-92300000D01*
X162050000Y-94850000D02*
X164200000Y-97000000D01*
D53*
%TO.N,Net-(U10-REFIN+)*%
X160100000Y-118262500D02*
X160100000Y-119012500D01*
X160100000Y-118100000D02*
X160100000Y-118262500D01*
X161525000Y-118225000D02*
X161400000Y-118100000D01*
X160100000Y-117262500D02*
X160100000Y-118100000D01*
X161400000Y-118100000D02*
X160100000Y-118100000D01*
X162825000Y-118225000D02*
X161525000Y-118225000D01*
%TO.N,Net-(D1-K)*%
X115250000Y-63825000D02*
X115250000Y-65887500D01*
%TO.N,Net-(D1-A)*%
X115200000Y-61900000D02*
X115250000Y-61950000D01*
X115200000Y-58637500D02*
X115200000Y-61900000D01*
D54*
%TO.N,Net-(D2-K)*%
X118937500Y-131000000D02*
X121850000Y-131000000D01*
%TO.N,Net-(D2-A)*%
X126250000Y-136422500D02*
X126250000Y-131100000D01*
X126250000Y-131100000D02*
X126150000Y-131000000D01*
D53*
%TO.N,Net-(D3-K)*%
X123250000Y-63762500D02*
X123250000Y-65950000D01*
%TO.N,Net-(D3-A)*%
X123250000Y-58637500D02*
X123250000Y-61887500D01*
%TO.N,Net-(D4-K)*%
X127250000Y-63825000D02*
X127250000Y-65887500D01*
%TO.N,Net-(D4-A)*%
X127250000Y-58637500D02*
X127250000Y-61950000D01*
%TO.N,/Analog Front End/MODE*%
X134730000Y-100170000D02*
X134600000Y-100300000D01*
X134730000Y-97690000D02*
X134730000Y-100170000D01*
X113509900Y-105561000D02*
X118380600Y-105561000D01*
X118402600Y-102197400D02*
X118402600Y-105539000D01*
X119700000Y-101600000D02*
X119000000Y-101600000D01*
X118380600Y-105561000D02*
X118402600Y-105539000D01*
X119000000Y-101600000D02*
X118402600Y-102197400D01*
%TO.N,Net-(C1-Pad1)*%
X129861000Y-116461000D02*
X130700000Y-117300000D01*
X132487500Y-117300000D02*
X132487500Y-115237500D01*
X130700000Y-117300000D02*
X132487500Y-117300000D01*
X132487500Y-115237500D02*
X132450000Y-115200000D01*
X127597400Y-116461000D02*
X129861000Y-116461000D01*
%TO.N,Net-(Q17-D)*%
X157800000Y-64100000D02*
X157800000Y-65700000D01*
X158450000Y-62275000D02*
X158450000Y-63450000D01*
X159800000Y-69200000D02*
X159900000Y-69300000D01*
X157800000Y-68800000D02*
X158200000Y-69200000D01*
X158450000Y-63450000D02*
X157800000Y-64100000D01*
X159900000Y-69300000D02*
X159900000Y-70900000D01*
X158200000Y-69200000D02*
X159800000Y-69200000D01*
X157800000Y-65700000D02*
X157800000Y-68800000D01*
%TO.N,Net-(Q5-D)*%
X159400000Y-58287500D02*
X159400000Y-60400000D01*
%TO.N,Net-(Q18-D)*%
X154237500Y-69037500D02*
X154500000Y-69300000D01*
X154237500Y-64262500D02*
X154237500Y-65712500D01*
X154800000Y-63500000D02*
X154300000Y-64000000D01*
X154300000Y-64200000D02*
X154237500Y-64262500D01*
X155800000Y-69800000D02*
X155800000Y-70900000D01*
X154500000Y-69300000D02*
X155300000Y-69300000D01*
X154800000Y-62300000D02*
X154800000Y-63500000D01*
X154300000Y-64000000D02*
X154300000Y-64200000D01*
X154237500Y-65712500D02*
X154237500Y-69037500D01*
X155300000Y-69300000D02*
X155800000Y-69800000D01*
%TO.N,Net-(Q1-G)*%
X162150000Y-65537500D02*
X162100000Y-65587500D01*
X162150000Y-62262500D02*
X162150000Y-65537500D01*
%TO.N,Net-(Q1-D)*%
X161177500Y-52477500D02*
X163100000Y-54400000D01*
X163100000Y-54400000D02*
X163100000Y-60387500D01*
X148350000Y-52477500D02*
X161177500Y-52477500D01*
%TO.N,Net-(Q2-G)*%
X165850000Y-65537500D02*
X165800000Y-65587500D01*
X165850000Y-62262500D02*
X165850000Y-65537500D01*
%TO.N,Net-(Q2-D)*%
X163300000Y-43400000D02*
X166800000Y-46900000D01*
X166800000Y-46900000D02*
X166800000Y-60387500D01*
X145810000Y-37237500D02*
X145810000Y-39010000D01*
X150200000Y-43400000D02*
X154400000Y-43400000D01*
X145810000Y-39010000D02*
X146800000Y-40000000D01*
X156600000Y-43400000D02*
X163300000Y-43400000D01*
X148800000Y-42000000D02*
X150200000Y-43400000D01*
%TO.N,Net-(Q3-G)*%
X173150000Y-65537500D02*
X173200000Y-65587500D01*
X173150000Y-62225000D02*
X173150000Y-65537500D01*
%TO.N,Net-(Q3-D)*%
X145300000Y-41000000D02*
X166500000Y-41000000D01*
X143270000Y-37237500D02*
X143270000Y-38970000D01*
X166500000Y-41000000D02*
X174100000Y-48600000D01*
X143270000Y-38970000D02*
X145300000Y-41000000D01*
X174100000Y-48600000D02*
X174100000Y-60350000D01*
%TO.N,Net-(Q4-G)*%
X169500000Y-62275000D02*
X169550000Y-62225000D01*
X169500000Y-65587500D02*
X169500000Y-62275000D01*
%TO.N,Net-(Q4-D)*%
X165700000Y-50900000D02*
X165800000Y-50900000D01*
X168300000Y-53200000D02*
X170500000Y-55400000D01*
X148400000Y-45900000D02*
X154300000Y-45900000D01*
X135650000Y-41550000D02*
X137000000Y-42900000D01*
X160700000Y-45900000D02*
X165700000Y-50900000D01*
X135650000Y-37237500D02*
X135650000Y-41550000D01*
X170500000Y-55400000D02*
X170500000Y-60350000D01*
X137000000Y-42900000D02*
X139700000Y-42900000D01*
X145400000Y-42900000D02*
X148400000Y-45900000D01*
X141800000Y-42900000D02*
X145400000Y-42900000D01*
%TO.N,Net-(Q6-D)*%
X155700000Y-58287500D02*
X155700000Y-60375000D01*
X155700000Y-60375000D02*
X155750000Y-60425000D01*
%TO.N,Net-(Q19-D)*%
X143612500Y-64087500D02*
X143612500Y-65737500D01*
X144087500Y-63612500D02*
X143612500Y-64087500D01*
X143612500Y-65737500D02*
X143612500Y-70812500D01*
X143612500Y-70812500D02*
X143700000Y-70900000D01*
X144087500Y-62300000D02*
X144087500Y-63612500D01*
%TO.N,Net-(Q7-D)*%
X145037500Y-59362500D02*
X145037500Y-60425000D01*
X145200000Y-58387500D02*
X145200000Y-59200000D01*
X145200000Y-59200000D02*
X145037500Y-59362500D01*
%TO.N,Net-(Q20-D)*%
X136537500Y-65712500D02*
X136537500Y-69962500D01*
X136537500Y-69962500D02*
X135600000Y-70900000D01*
X136950000Y-62300000D02*
X136950000Y-63750000D01*
X136950000Y-63750000D02*
X136537500Y-64162500D01*
X136537500Y-64162500D02*
X136537500Y-65712500D01*
%TO.N,Net-(Q8-D)*%
X138200000Y-58387500D02*
X138200000Y-59100000D01*
X138200000Y-59100000D02*
X137900000Y-59400000D01*
X137900000Y-59400000D02*
X137900000Y-60425000D01*
%TO.N,Net-(Q9-D)*%
X134800000Y-58387500D02*
X134800000Y-58700000D01*
X134800000Y-58700000D02*
X134200000Y-59300000D01*
X134200000Y-59300000D02*
X134200000Y-60425000D01*
%TO.N,Net-(Q21-D)*%
X132950000Y-69250000D02*
X131600000Y-70600000D01*
X132950000Y-64050000D02*
X132950000Y-65725000D01*
X131600000Y-70600000D02*
X131600000Y-70900000D01*
X133250000Y-63750000D02*
X132950000Y-64050000D01*
X133250000Y-62300000D02*
X133250000Y-63750000D01*
X132950000Y-65725000D02*
X132950000Y-69250000D01*
%TO.N,Net-(Q10-D)*%
X148600000Y-58387500D02*
X148600000Y-60387500D01*
X148600000Y-60387500D02*
X148562500Y-60425000D01*
%TO.N,Net-(Q10-G)*%
X147150000Y-65725000D02*
X147150000Y-69050000D01*
X147150000Y-64050000D02*
X147150000Y-65725000D01*
X147612500Y-63587500D02*
X147150000Y-64050000D01*
X147612500Y-62300000D02*
X147612500Y-63587500D01*
X147150000Y-69050000D02*
X147700000Y-69600000D01*
X147700000Y-69600000D02*
X147700000Y-70900000D01*
%TO.N,Net-(Q11-D)*%
X152162500Y-59362500D02*
X152162500Y-60425000D01*
X152000000Y-59200000D02*
X152162500Y-59362500D01*
X152000000Y-58387500D02*
X152000000Y-59200000D01*
%TO.N,/Analog Front End/Continuity Detector/Vbias*%
X163100000Y-124225000D02*
X163612500Y-123712500D01*
X151900000Y-133300000D02*
X149100000Y-133300000D01*
X148900000Y-122800000D02*
X149165000Y-123065000D01*
X134312500Y-117300000D02*
X134312500Y-115237500D01*
X161000000Y-124225000D02*
X161000000Y-125700000D01*
X166800000Y-125600000D02*
X165500000Y-125600000D01*
X156700000Y-126500000D02*
X153400000Y-126500000D01*
X161000000Y-125700000D02*
X160300000Y-126400000D01*
X134312500Y-115237500D02*
X134350000Y-115200000D01*
X164000000Y-123325000D02*
X164000000Y-119825000D01*
X163000000Y-131000000D02*
X163000000Y-124225000D01*
X163612500Y-123712500D02*
X164000000Y-123325000D01*
X149100000Y-133300000D02*
X145812500Y-136587500D01*
X165500000Y-125600000D02*
X163612500Y-123712500D01*
X134400000Y-113700000D02*
X134500000Y-113600000D01*
X153400000Y-126500000D02*
X152800000Y-127100000D01*
X163700000Y-119525000D02*
X162800000Y-119525000D01*
X163000000Y-124225000D02*
X163100000Y-124225000D01*
X164000000Y-119825000D02*
X163700000Y-119525000D01*
X151000000Y-124225000D02*
X161000000Y-124225000D01*
X150850000Y-123065000D02*
X150850000Y-121795000D01*
X134350000Y-113750000D02*
X134400000Y-113700000D01*
X150850000Y-124075000D02*
X151000000Y-124225000D01*
X161000000Y-124225000D02*
X163000000Y-124225000D01*
X150850000Y-123065000D02*
X150850000Y-124075000D01*
X134500000Y-113600000D02*
X136200000Y-113600000D01*
X152800000Y-132400000D02*
X151900000Y-133300000D01*
X152800000Y-127100000D02*
X152800000Y-132400000D01*
X149165000Y-123065000D02*
X150850000Y-123065000D01*
X160300000Y-126400000D02*
X160200000Y-126500000D01*
X160200000Y-126500000D02*
X158900000Y-126500000D01*
X145812500Y-136587500D02*
X145500000Y-136587500D01*
X134350000Y-115200000D02*
X134350000Y-113750000D01*
%TO.N,Net-(Q11-G)*%
X151212500Y-63687500D02*
X150700000Y-64200000D01*
X150700000Y-65725000D02*
X150700000Y-69000000D01*
X150700000Y-64200000D02*
X150700000Y-65725000D01*
X151800000Y-69600000D02*
X151800000Y-70900000D01*
X151212500Y-62300000D02*
X151212500Y-63687500D01*
X150900000Y-69200000D02*
X151400000Y-69200000D01*
X150700000Y-69000000D02*
X150900000Y-69200000D01*
X151400000Y-69200000D02*
X151800000Y-69600000D01*
%TO.N,Net-(Q13-G)*%
X139600000Y-69500000D02*
X139600000Y-70900000D01*
X140037500Y-65725000D02*
X140037500Y-69062500D01*
X140550000Y-63550000D02*
X140037500Y-64062500D01*
X140037500Y-69062500D02*
X139600000Y-69500000D01*
X140550000Y-62287500D02*
X140550000Y-63550000D01*
X140037500Y-64062500D02*
X140037500Y-65725000D01*
%TO.N,Net-(Q13-D)*%
X141500000Y-59400000D02*
X141500000Y-60412500D01*
X141700000Y-59200000D02*
X141500000Y-59400000D01*
X141700000Y-58387500D02*
X141700000Y-59200000D01*
%TO.N,Net-(Q12-G)*%
X114300000Y-67762500D02*
X114300000Y-70925000D01*
X114300000Y-70925000D02*
X114500000Y-71125000D01*
%TO.N,Net-(Q17-G)*%
X157000000Y-69600000D02*
X157600000Y-69600000D01*
X156850000Y-67575000D02*
X156850000Y-69450000D01*
X157600000Y-69600000D02*
X157800000Y-69800000D01*
X156850000Y-69450000D02*
X157000000Y-69600000D01*
X157800000Y-69800000D02*
X157800000Y-70900000D01*
%TO.N,Net-(Q14-G)*%
X150000000Y-126100000D02*
X150800000Y-126100000D01*
X146500000Y-125012500D02*
X148912500Y-125012500D01*
X148912500Y-125012500D02*
X150000000Y-126100000D01*
X150800000Y-126100000D02*
X151250000Y-126550000D01*
X151250000Y-126550000D02*
X151250000Y-128025000D01*
%TO.N,Net-(Q15-G)*%
X122300000Y-70925000D02*
X122500000Y-71125000D01*
X122300000Y-67825000D02*
X122300000Y-70925000D01*
%TO.N,Net-(Q16-G)*%
X126300000Y-67762500D02*
X126300000Y-70925000D01*
X126300000Y-70925000D02*
X126500000Y-71125000D01*
%TO.N,Net-(U9-+)*%
X143025000Y-137925000D02*
X143500000Y-138400000D01*
X144400000Y-141000000D02*
X145700000Y-142300000D01*
X141600000Y-137925000D02*
X143025000Y-137925000D01*
X143650000Y-138850000D02*
X144525000Y-139725000D01*
X143500000Y-138700000D02*
X143650000Y-138850000D01*
X143500000Y-138400000D02*
X143500000Y-138700000D01*
X143100000Y-139400000D02*
X143100000Y-140400000D01*
X143650000Y-138850000D02*
X143100000Y-139400000D01*
X143100000Y-140400000D02*
X143700000Y-141000000D01*
X145700000Y-142300000D02*
X147350000Y-142300000D01*
X143700000Y-141000000D02*
X144400000Y-141000000D01*
X144525000Y-139725000D02*
X147687500Y-139725000D01*
%TO.N,/Display/digit1*%
X152510000Y-97690000D02*
X152510000Y-86890000D01*
X169500000Y-76300000D02*
X169500000Y-67500000D01*
X157800000Y-81600000D02*
X164200000Y-81600000D01*
X164200000Y-81600000D02*
X169500000Y-76300000D01*
X152510000Y-86890000D02*
X157800000Y-81600000D01*
%TO.N,/Display/digit2*%
X173200000Y-74200000D02*
X166700000Y-80700000D01*
X173200000Y-67500000D02*
X173200000Y-74200000D01*
X157590000Y-99890000D02*
X157590000Y-97690000D01*
X166700000Y-96200000D02*
X162900000Y-100000000D01*
X166700000Y-80700000D02*
X166700000Y-96200000D01*
X157700000Y-100000000D02*
X157590000Y-99890000D01*
X162900000Y-100000000D02*
X157700000Y-100000000D01*
%TO.N,/Display/digit3*%
X165800000Y-81500000D02*
X165800000Y-90000000D01*
X160130000Y-93570000D02*
X160130000Y-97690000D01*
X160800000Y-92900000D02*
X160130000Y-93570000D01*
X165800000Y-90000000D02*
X162900000Y-92900000D01*
X165800000Y-67500000D02*
X165800000Y-78500000D01*
X162900000Y-92900000D02*
X160800000Y-92900000D01*
%TO.N,/Display/digit4*%
X160130000Y-75070000D02*
X160130000Y-78310000D01*
X162100000Y-73100000D02*
X160130000Y-75070000D01*
X162100000Y-67500000D02*
X162100000Y-73100000D01*
%TO.N,Net-(U4-a)*%
X159800000Y-53300000D02*
X159800000Y-54000000D01*
X138190000Y-37237500D02*
X138190000Y-40190000D01*
X148500000Y-44600000D02*
X154400000Y-44600000D01*
X159800000Y-54000000D02*
X159400000Y-54400000D01*
X141800000Y-41800000D02*
X145700000Y-41800000D01*
X158800000Y-44600000D02*
X159800000Y-45600000D01*
X159400000Y-54400000D02*
X159400000Y-56287500D01*
X138190000Y-40190000D02*
X139700000Y-41700000D01*
X156600000Y-44600000D02*
X158800000Y-44600000D01*
X159800000Y-45600000D02*
X159800000Y-51200000D01*
X145700000Y-41800000D02*
X148500000Y-44600000D01*
%TO.N,Net-(U4-b)*%
X155700000Y-56287500D02*
X155700000Y-53500000D01*
X152937500Y-37237500D02*
X148350000Y-37237500D01*
X155700000Y-51500000D02*
X155700000Y-42000000D01*
X155700000Y-42000000D02*
X155800000Y-41900000D01*
X155800000Y-40100000D02*
X152937500Y-37237500D01*
%TO.N,Net-(U4-c)*%
X145200000Y-55400000D02*
X145200000Y-56387500D01*
X143270000Y-54470000D02*
X143800000Y-55000000D01*
X143800000Y-55000000D02*
X144800000Y-55000000D01*
X144800000Y-55000000D02*
X145200000Y-55400000D01*
X143270000Y-52477500D02*
X143270000Y-54470000D01*
%TO.N,Net-(U4-d)*%
X138190000Y-52477500D02*
X138190000Y-56377500D01*
X138190000Y-56377500D02*
X138200000Y-56387500D01*
%TO.N,Net-(U4-e)*%
X134800000Y-55200000D02*
X135650000Y-54350000D01*
X134800000Y-56387500D02*
X134800000Y-55200000D01*
X135650000Y-54350000D02*
X135650000Y-52477500D01*
%TO.N,Net-(U4-f)*%
X144500000Y-53500000D02*
X145700000Y-54700000D01*
X144500000Y-50800000D02*
X144500000Y-53500000D01*
X148600000Y-55100000D02*
X148600000Y-56387500D01*
X145700000Y-54700000D02*
X148200000Y-54700000D01*
X141700000Y-50300000D02*
X144000000Y-50300000D01*
X144000000Y-50300000D02*
X144500000Y-50800000D01*
X148200000Y-54700000D02*
X148600000Y-55100000D01*
X140730000Y-37237500D02*
X140730000Y-49330000D01*
X140730000Y-49330000D02*
X141700000Y-50300000D01*
%TO.N,Net-(U4-g)*%
X146300000Y-54100000D02*
X151400000Y-54100000D01*
X152000000Y-54700000D02*
X152000000Y-56387500D01*
X151400000Y-54100000D02*
X152000000Y-54700000D01*
X145810000Y-53610000D02*
X146300000Y-54100000D01*
X145810000Y-52477500D02*
X145810000Y-53610000D01*
%TO.N,/Display/low_ohm*%
X149970000Y-88170000D02*
X149970000Y-97690000D01*
X120200000Y-74600000D02*
X120200000Y-74000000D01*
X124000000Y-86200000D02*
X121950000Y-84150000D01*
X119237500Y-73037500D02*
X114500000Y-73037500D01*
X120200000Y-74000000D02*
X119237500Y-73037500D01*
X146800000Y-86100000D02*
X147900000Y-86100000D01*
X147900000Y-86100000D02*
X149970000Y-88170000D01*
X144100000Y-86200000D02*
X124000000Y-86200000D01*
%TO.N,Net-(U9--)*%
X149250000Y-139450000D02*
X148875000Y-139075000D01*
X145600000Y-139075000D02*
X145500000Y-138975000D01*
X148875000Y-139075000D02*
X147687500Y-139075000D01*
X147687500Y-139075000D02*
X145600000Y-139075000D01*
X145500000Y-138975000D02*
X145500000Y-138612500D01*
X149250000Y-142300000D02*
X149250000Y-139450000D01*
%TO.N,Net-(U3A-+)*%
X149615000Y-117985000D02*
X149300000Y-118300000D01*
X147700000Y-124000000D02*
X148262500Y-124562500D01*
X148100000Y-118300000D02*
X147700000Y-118700000D01*
X158200000Y-125100000D02*
X158200000Y-126100000D01*
X149300000Y-118300000D02*
X148100000Y-118300000D01*
X157500000Y-126800000D02*
X157500000Y-128343750D01*
X158200000Y-126100000D02*
X157500000Y-126800000D01*
X149098896Y-124562500D02*
X149636396Y-125100000D01*
X148262500Y-124562500D02*
X149098896Y-124562500D01*
X149636396Y-125100000D02*
X158200000Y-125100000D01*
X158225000Y-125125000D02*
X158200000Y-125100000D01*
X150850000Y-117985000D02*
X149615000Y-117985000D01*
X147700000Y-118700000D02*
X147700000Y-124000000D01*
%TO.N,Net-(C14-Pad1)*%
X148100000Y-115250000D02*
X149050000Y-115250000D01*
X149050000Y-115250000D02*
X149245000Y-115445000D01*
X146500000Y-123187500D02*
X145487500Y-123187500D01*
X147000000Y-111300000D02*
X148100000Y-112400000D01*
X144900000Y-122600000D02*
X144900000Y-121700000D01*
X143800000Y-114700000D02*
X143800000Y-118300000D01*
X148100000Y-112400000D02*
X148100000Y-113500000D01*
X149245000Y-115445000D02*
X150850000Y-115445000D01*
X145000000Y-113500000D02*
X143800000Y-114700000D01*
X145487500Y-123187500D02*
X144900000Y-122600000D01*
X147000000Y-109900000D02*
X147000000Y-111300000D01*
X148100000Y-113500000D02*
X148100000Y-115250000D01*
X148100000Y-113500000D02*
X145000000Y-113500000D01*
%TO.N,Net-(U3A--)*%
X148100000Y-117150000D02*
X148950000Y-117150000D01*
X146950000Y-117150000D02*
X148100000Y-117150000D01*
X146700000Y-116900000D02*
X146950000Y-117150000D01*
X145400000Y-115287500D02*
X146587500Y-115287500D01*
X146700000Y-115400000D02*
X146700000Y-116900000D01*
X149385000Y-116715000D02*
X150850000Y-116715000D01*
X148950000Y-117150000D02*
X149385000Y-116715000D01*
X146587500Y-115287500D02*
X146700000Y-115400000D01*
X148062500Y-117112500D02*
X148100000Y-117150000D01*
%TO.N,/Analog Front End/CS*%
X127110000Y-97690000D02*
X127110000Y-99710000D01*
X168600000Y-120825000D02*
X171187500Y-120825000D01*
X129500000Y-102100000D02*
X162100000Y-102100000D01*
X165700000Y-120300000D02*
X166225000Y-120825000D01*
X127110000Y-99710000D02*
X129500000Y-102100000D01*
X162100000Y-102100000D02*
X165700000Y-105700000D01*
X165700000Y-105700000D02*
X165700000Y-120300000D01*
X166225000Y-120825000D02*
X168600000Y-120825000D01*
%TO.N,Net-(U10-CH0)*%
X162825000Y-118875000D02*
X161625000Y-118875000D01*
X158900000Y-117100000D02*
X158515000Y-116715000D01*
X163875000Y-118875000D02*
X164900000Y-119900000D01*
X170600000Y-124100000D02*
X170600000Y-125600000D01*
X162800000Y-118875000D02*
X163875000Y-118875000D01*
X169700000Y-123200000D02*
X170600000Y-124100000D01*
X161625000Y-118875000D02*
X161400000Y-119100000D01*
X164900000Y-119900000D02*
X164900000Y-121200000D01*
X158515000Y-116715000D02*
X155800000Y-116715000D01*
X159200000Y-119900000D02*
X158900000Y-119600000D01*
X164900000Y-121200000D02*
X166900000Y-123200000D01*
X158900000Y-119600000D02*
X158900000Y-117100000D01*
X155800000Y-116715000D02*
X155800000Y-115445000D01*
X161400000Y-119800000D02*
X161300000Y-119900000D01*
X161400000Y-119100000D02*
X161400000Y-119800000D01*
X161300000Y-119900000D02*
X159200000Y-119900000D01*
X166900000Y-123200000D02*
X169700000Y-123200000D01*
%TO.N,Net-(U9-R2)*%
X151912500Y-140375000D02*
X152675000Y-140375000D01*
X153925000Y-140925000D02*
X153925000Y-142937500D01*
X153225000Y-140925000D02*
X153925000Y-140925000D01*
X153925000Y-142937500D02*
X153987500Y-143000000D01*
X152675000Y-140375000D02*
X153225000Y-140925000D01*
%TO.N,/Analog Front End/SCK*%
X125100000Y-103500000D02*
X159900000Y-103500000D01*
X120300000Y-100000000D02*
X121600000Y-100000000D01*
X121600000Y-100000000D02*
X125100000Y-103500000D01*
X166700000Y-120000000D02*
X166875000Y-120175000D01*
X164300000Y-116574695D02*
X164175000Y-116699695D01*
X119490000Y-97690000D02*
X119490000Y-99190000D01*
X164300000Y-107900000D02*
X164300000Y-116574695D01*
X164175000Y-117975000D02*
X164700000Y-118500000D01*
X164175000Y-116699695D02*
X164175000Y-117975000D01*
X119490000Y-99190000D02*
X120300000Y-100000000D01*
X159900000Y-103500000D02*
X164300000Y-107900000D01*
X166875000Y-120175000D02*
X168600000Y-120175000D01*
%TO.N,/Analog Front End/SDI*%
X164900000Y-117000000D02*
X164900000Y-107700000D01*
X122030000Y-99430000D02*
X122030000Y-97690000D01*
X166600000Y-118800000D02*
X167325000Y-119525000D01*
X125600000Y-103000000D02*
X122030000Y-99430000D01*
X164900000Y-107700000D02*
X160200000Y-103000000D01*
X167325000Y-119525000D02*
X168600000Y-119525000D01*
X160200000Y-103000000D02*
X125600000Y-103000000D01*
%TO.N,/Analog Front End/SDO*%
X160850000Y-102550000D02*
X127350000Y-102550000D01*
X166900000Y-106600000D02*
X166150000Y-107350000D01*
X167775000Y-118875000D02*
X168600000Y-118875000D01*
X162600000Y-104300000D02*
X160850000Y-102550000D01*
X124570000Y-99770000D02*
X124570000Y-97690000D01*
X166150000Y-117250000D02*
X167775000Y-118875000D01*
X127350000Y-102550000D02*
X124570000Y-99770000D01*
X166150000Y-107350000D02*
X166150000Y-117250000D01*
%TO.N,/Analog Front End/MDAT*%
X171600000Y-109900000D02*
X171600000Y-116700000D01*
X171600000Y-116700000D02*
X170075000Y-118225000D01*
X132190000Y-100190000D02*
X133500000Y-101500000D01*
X170075000Y-118225000D02*
X168600000Y-118225000D01*
X163200000Y-101500000D02*
X171600000Y-109900000D01*
X132190000Y-97690000D02*
X132190000Y-100190000D01*
X133500000Y-101500000D02*
X163200000Y-101500000D01*
%TO.N,Net-(D5-K)*%
X117200000Y-107800000D02*
X116212500Y-108787500D01*
X149450000Y-112250000D02*
X152300000Y-112250000D01*
X116212500Y-108787500D02*
X113400000Y-108787500D01*
X152300000Y-113400000D02*
X152600000Y-113700000D01*
X123000000Y-116461000D02*
X123000000Y-112900000D01*
X153900000Y-116000000D02*
X153900000Y-117400000D01*
X120892200Y-107800000D02*
X117200000Y-107800000D01*
X140600000Y-109900000D02*
X141000000Y-109500000D01*
X141000000Y-109500000D02*
X142900000Y-109500000D01*
X123000000Y-112900000D02*
X123000000Y-109907800D01*
X149400000Y-112200000D02*
X149500000Y-112300000D01*
X129300000Y-112900000D02*
X123000000Y-112900000D01*
X152300000Y-112250000D02*
X152300000Y-113400000D01*
X140300000Y-110200000D02*
X140600000Y-109900000D01*
X132700000Y-109500000D02*
X129300000Y-112900000D01*
X123000000Y-109907800D02*
X120892200Y-107800000D01*
X153900000Y-117400000D02*
X154485000Y-117985000D01*
X154485000Y-117985000D02*
X155800000Y-117985000D01*
X139200000Y-110200000D02*
X140300000Y-110200000D01*
X133600000Y-109500000D02*
X132700000Y-109500000D01*
X152600000Y-113700000D02*
X153500000Y-113700000D01*
X149400000Y-112200000D02*
X149450000Y-112250000D01*
X149500000Y-112300000D02*
X149500000Y-112400000D01*
D54*
%TO.N,Net-(D6-K)*%
X114410000Y-81190000D02*
X114410000Y-78310000D01*
X109900000Y-82200000D02*
X113400000Y-82200000D01*
X114400000Y-128700000D02*
X110100000Y-128700000D01*
X110100000Y-128700000D02*
X109400000Y-128000000D01*
X114800000Y-129100000D02*
X114400000Y-128700000D01*
X114800000Y-131000000D02*
X117062500Y-131000000D01*
X114800000Y-131000000D02*
X114800000Y-129100000D01*
X109400000Y-128000000D02*
X109400000Y-82700000D01*
X109400000Y-82700000D02*
X109900000Y-82200000D01*
X113400000Y-82200000D02*
X114410000Y-81190000D01*
D53*
%TO.N,Net-(Q18-G)*%
X153600000Y-69600000D02*
X153600000Y-69800000D01*
X153600000Y-69800000D02*
X153800000Y-70000000D01*
X153287500Y-69287500D02*
X153600000Y-69600000D01*
X153287500Y-67587500D02*
X153287500Y-69287500D01*
X153800000Y-70000000D02*
X153800000Y-70900000D01*
%TO.N,Net-(Q19-G)*%
X141700000Y-69800000D02*
X141700000Y-70900000D01*
X142400000Y-69700000D02*
X141800000Y-69700000D01*
X141800000Y-69700000D02*
X141700000Y-69800000D01*
X142662500Y-69437500D02*
X142400000Y-69700000D01*
X142662500Y-67612500D02*
X142662500Y-69437500D01*
%TO.N,Net-(D7-A)*%
X118400000Y-126200000D02*
X118400000Y-122850000D01*
X129300000Y-134900000D02*
X129300000Y-128718198D01*
X148700000Y-130500000D02*
X148700000Y-132800000D01*
X144600000Y-135600000D02*
X143200000Y-137000000D01*
X140400000Y-137000000D02*
X138775000Y-135375000D01*
X145900000Y-135600000D02*
X144600000Y-135600000D01*
X129600000Y-135200000D02*
X129300000Y-134900000D01*
X137038299Y-135200000D02*
X129600000Y-135200000D01*
X138775000Y-135375000D02*
X137213299Y-135375000D01*
X128481802Y-127900000D02*
X120100000Y-127900000D01*
X120100000Y-127900000D02*
X118400000Y-126200000D01*
X137213299Y-135375000D02*
X137038299Y-135200000D01*
X148700000Y-132800000D02*
X145900000Y-135600000D01*
X149300000Y-129900000D02*
X148700000Y-130500000D01*
X129300000Y-128718198D02*
X128481802Y-127900000D01*
X150300000Y-129900000D02*
X149300000Y-129900000D01*
X143200000Y-137000000D02*
X140400000Y-137000000D01*
%TO.N,Net-(U3C--)*%
X130800000Y-128100000D02*
X138200000Y-128100000D01*
X125000000Y-122400000D02*
X130487500Y-122400000D01*
X154605000Y-121795000D02*
X154200000Y-122200000D01*
X154200000Y-122200000D02*
X153700000Y-122700000D01*
X130475000Y-127775000D02*
X130800000Y-128100000D01*
X130487500Y-122400000D02*
X130487500Y-124487500D01*
X130487500Y-124487500D02*
X130475000Y-124500000D01*
X130475000Y-124500000D02*
X130475000Y-126600000D01*
X155800000Y-121795000D02*
X154605000Y-121795000D01*
X153700000Y-122700000D02*
X153700000Y-123100000D01*
X130487500Y-120300000D02*
X130487500Y-122400000D01*
X138200000Y-128100000D02*
X139800000Y-126500000D01*
X155800000Y-123065000D02*
X155800000Y-121795000D01*
X130475000Y-126600000D02*
X130475000Y-127775000D01*
%TO.N,Net-(U4-DPX)*%
X140730000Y-52477500D02*
X140730000Y-54130000D01*
X141700000Y-55100000D02*
X141700000Y-56387500D01*
X140730000Y-54130000D02*
X141700000Y-55100000D01*
%TO.N,/Analog Front End/Continuity Detector/Vin*%
X130200000Y-134700000D02*
X137174695Y-134700000D01*
X129800000Y-134300000D02*
X130200000Y-134700000D01*
X113400000Y-110612500D02*
X115287500Y-110612500D01*
X120600000Y-110400000D02*
X120600000Y-125400000D01*
X141600000Y-135100000D02*
X140750000Y-134250000D01*
X118402600Y-109907800D02*
X120107800Y-109907800D01*
X140075000Y-134925000D02*
X140750000Y-134250000D01*
X137399695Y-134925000D02*
X140075000Y-134925000D01*
X120107800Y-109907800D02*
X120600000Y-110400000D01*
X115287500Y-110612500D02*
X115992200Y-109907800D01*
X137174695Y-134700000D02*
X137399695Y-134925000D01*
X129800000Y-128500000D02*
X129800000Y-134300000D01*
X128700000Y-127400000D02*
X129800000Y-128500000D01*
X140750000Y-134250000D02*
X144000000Y-131000000D01*
X141600000Y-136100000D02*
X141600000Y-135100000D01*
X118302600Y-110007800D02*
X118402600Y-109907800D01*
X115992200Y-109907800D02*
X118402600Y-109907800D01*
X122600000Y-127400000D02*
X128700000Y-127400000D01*
X120600000Y-125400000D02*
X122600000Y-127400000D01*
%TO.N,Net-(Q14-S)*%
X144000000Y-119700000D02*
X145400000Y-119700000D01*
X145400000Y-119700000D02*
X145400000Y-117112500D01*
X136400000Y-119800000D02*
X136400000Y-120950000D01*
X135137500Y-120950000D02*
X136400000Y-120950000D01*
X140862500Y-123550000D02*
X142150000Y-123550000D01*
X148100000Y-127800000D02*
X148100000Y-127300000D01*
X139100000Y-121600000D02*
X140862500Y-121600000D01*
X136400000Y-120950000D02*
X138450000Y-120950000D01*
X140862500Y-121600000D02*
X144000000Y-121600000D01*
X145400000Y-126300000D02*
X144000000Y-124900000D01*
X145400000Y-120100000D02*
X145400000Y-119700000D01*
X142150000Y-123550000D02*
X142400000Y-123300000D01*
X144000000Y-121600000D02*
X144000000Y-121500000D01*
X149350000Y-128025000D02*
X148325000Y-128025000D01*
X148100000Y-127300000D02*
X147100000Y-126300000D01*
X144000000Y-121500000D02*
X145400000Y-120100000D01*
X143600000Y-120100000D02*
X144000000Y-119700000D01*
X138450000Y-120950000D02*
X139100000Y-121600000D01*
X147100000Y-126300000D02*
X145400000Y-126300000D01*
X136250000Y-119650000D02*
X136400000Y-119800000D01*
X148325000Y-128025000D02*
X148100000Y-127800000D01*
X144000000Y-124900000D02*
X144000000Y-121600000D01*
X135137500Y-119650000D02*
X136250000Y-119650000D01*
%TO.N,Net-(Q20-G)*%
X133700000Y-69700000D02*
X133600000Y-69800000D01*
X135300000Y-69700000D02*
X133700000Y-69700000D01*
X135587500Y-69412500D02*
X135300000Y-69700000D01*
X133600000Y-69800000D02*
X133600000Y-70900000D01*
X135587500Y-67587500D02*
X135587500Y-69412500D01*
%TO.N,Net-(Q21-G)*%
X132000000Y-67600000D02*
X132000000Y-69300000D01*
X129800000Y-69600000D02*
X129600000Y-69800000D01*
X129600000Y-69800000D02*
X129600000Y-70900000D01*
X131700000Y-69600000D02*
X129800000Y-69600000D01*
X132000000Y-69300000D02*
X131700000Y-69600000D01*
%TO.N,Net-(Q22-G)*%
X145700000Y-70100000D02*
X145700000Y-70900000D01*
X146200000Y-69300000D02*
X145800000Y-69700000D01*
X146200000Y-67600000D02*
X146200000Y-69300000D01*
X145800000Y-69700000D02*
X145800000Y-70000000D01*
X145800000Y-70000000D02*
X145700000Y-70100000D01*
%TO.N,Net-(Q23-G)*%
X149750000Y-70850000D02*
X149700000Y-70900000D01*
X149750000Y-67600000D02*
X149750000Y-70850000D01*
%TO.N,Net-(Q24-G)*%
X139087500Y-67600000D02*
X139087500Y-69412500D01*
X138800000Y-69700000D02*
X137800000Y-69700000D01*
X139087500Y-69412500D02*
X138800000Y-69700000D01*
X137800000Y-69700000D02*
X137600000Y-69900000D01*
X137600000Y-69900000D02*
X137600000Y-70900000D01*
%TO.N,/Display/A*%
X127110000Y-80710000D02*
X127110000Y-78310000D01*
X153200000Y-83700000D02*
X130100000Y-83700000D01*
X156300000Y-80600000D02*
X153200000Y-83700000D01*
X157800000Y-72812500D02*
X157800000Y-74400000D01*
X156300000Y-75400000D02*
X156300000Y-80600000D01*
X156900000Y-74800000D02*
X156300000Y-75400000D01*
X157800000Y-74400000D02*
X157400000Y-74800000D01*
X157400000Y-74800000D02*
X156900000Y-74800000D01*
X130100000Y-83700000D02*
X127110000Y-80710000D01*
%TO.N,/Display/B*%
X152300000Y-83200000D02*
X134200000Y-83200000D01*
X134200000Y-83200000D02*
X132190000Y-81190000D01*
X153800000Y-81700000D02*
X152300000Y-83200000D01*
X153800000Y-72812500D02*
X153800000Y-81700000D01*
X132190000Y-81190000D02*
X132190000Y-78310000D01*
%TO.N,/Display/C*%
X136500305Y-80775000D02*
X135575000Y-80775000D01*
X137225305Y-81500000D02*
X136500305Y-80775000D01*
X134730000Y-79930000D02*
X134730000Y-78310000D01*
X141700000Y-72812500D02*
X141700000Y-74800000D01*
X141000000Y-75500000D02*
X141000000Y-80400000D01*
X135575000Y-80775000D02*
X134730000Y-79930000D01*
X140675000Y-80425000D02*
X139600000Y-81500000D01*
X141000000Y-80400000D02*
X140975000Y-80425000D01*
X139600000Y-81500000D02*
X137225305Y-81500000D01*
X141700000Y-74800000D02*
X141000000Y-75500000D01*
X140975000Y-80425000D02*
X140675000Y-80425000D01*
%TO.N,/Display/D*%
X136000000Y-79452827D02*
X137547173Y-81000000D01*
X133600000Y-72812500D02*
X133600000Y-74000000D01*
X134000000Y-74400000D02*
X135400000Y-74400000D01*
X133600000Y-74000000D02*
X134000000Y-74400000D01*
X139810000Y-80090305D02*
X139810000Y-78310000D01*
X135400000Y-74400000D02*
X136000000Y-75000000D01*
X138900305Y-81000000D02*
X139810000Y-80090305D01*
X136000000Y-75000000D02*
X136000000Y-79452827D01*
X137547173Y-81000000D02*
X138900305Y-81000000D01*
%TO.N,/Display/E*%
X140600000Y-81300000D02*
X141125305Y-81300000D01*
X128287500Y-72812500D02*
X127900000Y-73200000D01*
X129600000Y-72812500D02*
X128287500Y-72812500D01*
X144050000Y-81450000D02*
X144890000Y-80610000D01*
X139700000Y-82200000D02*
X140600000Y-81300000D01*
X127900000Y-73200000D02*
X127900000Y-74400000D01*
X136200000Y-81500000D02*
X136900000Y-82200000D01*
X141275305Y-81450000D02*
X144050000Y-81450000D01*
X141125305Y-81300000D02*
X141275305Y-81450000D01*
X144890000Y-80610000D02*
X144890000Y-78310000D01*
X136900000Y-82200000D02*
X139700000Y-82200000D01*
%TO.N,/Display/F*%
X145700000Y-72812500D02*
X145700000Y-73900000D01*
X147430000Y-75630000D02*
X147430000Y-78310000D01*
X145700000Y-73900000D02*
X147430000Y-75630000D01*
%TO.N,/Display/G*%
X149700000Y-78040000D02*
X149970000Y-78310000D01*
X149700000Y-72812500D02*
X149700000Y-78040000D01*
%TO.N,/Display/DP*%
X138600000Y-74675000D02*
X138600000Y-80275000D01*
X151500000Y-82600000D02*
X152510000Y-81590000D01*
X141400000Y-82600000D02*
X151500000Y-82600000D01*
X137600000Y-72812500D02*
X137600000Y-73675000D01*
X137600000Y-73675000D02*
X138600000Y-74675000D01*
X152510000Y-81590000D02*
X152510000Y-78310000D01*
X140950000Y-82150000D02*
X141400000Y-82600000D01*
%TO.N,Net-(Q25-D)*%
X158700000Y-113500000D02*
X158812500Y-113612500D01*
X158812500Y-113612500D02*
X160100000Y-113612500D01*
X153175000Y-117475000D02*
X154100000Y-118400000D01*
X155500000Y-113500000D02*
X158700000Y-113500000D01*
X160050000Y-113662500D02*
X160100000Y-113612500D01*
X153175000Y-117400000D02*
X153175000Y-117475000D01*
X152900000Y-120000000D02*
X152400000Y-120500000D01*
X155000000Y-113500000D02*
X155500000Y-113500000D01*
X154100000Y-118400000D02*
X154100000Y-119400000D01*
X152400000Y-120500000D02*
X150875000Y-120500000D01*
X160100000Y-115350000D02*
X160100000Y-113612500D01*
X155450000Y-113450000D02*
X155500000Y-113500000D01*
X154100000Y-119400000D02*
X153500000Y-120000000D01*
X155450000Y-111975000D02*
X155450000Y-113450000D01*
X153175000Y-117400000D02*
X153175000Y-115325000D01*
X153500000Y-120000000D02*
X152900000Y-120000000D01*
X150875000Y-120500000D02*
X150850000Y-120525000D01*
X153175000Y-115325000D02*
X155000000Y-113500000D01*
%TO.N,Net-(Q25-G)*%
X156400000Y-110100000D02*
X156400000Y-106787500D01*
X156312500Y-106700000D02*
X158075000Y-106700000D01*
X158100000Y-106725000D02*
X158075000Y-106700000D01*
X156400000Y-106787500D02*
X156312500Y-106700000D01*
X158100000Y-108800000D02*
X158100000Y-106725000D01*
%TO.N,Net-(R1-Pad2)*%
X151912500Y-136637500D02*
X151900000Y-136625000D01*
X151912500Y-138425000D02*
X151912500Y-136637500D01*
%TO.N,Net-(R1-Pad1)*%
X149700000Y-134800000D02*
X151900000Y-134800000D01*
%TO.N,Net-(U1-TP5_GPIO25{slash}LED)*%
X143500000Y-107000000D02*
X142097400Y-107000000D01*
X121000000Y-92300000D02*
X121500000Y-92800000D01*
X144587500Y-106400000D02*
X144100000Y-106400000D01*
X144100000Y-106400000D02*
X143500000Y-107000000D01*
X121500000Y-92800000D02*
X135300000Y-92800000D01*
X135300000Y-92800000D02*
X135900000Y-93400000D01*
X136000000Y-93500000D02*
X136000000Y-95100000D01*
X135597400Y-105292200D02*
X135597400Y-107000000D01*
X135597400Y-107000000D02*
X142097400Y-107000000D01*
X135900000Y-93400000D02*
X136000000Y-93500000D01*
X121000000Y-90500000D02*
X121000000Y-92300000D01*
%TO.N,/Analog Front End/current_range1*%
X117900000Y-100600000D02*
X120000000Y-100600000D01*
X117400000Y-101100000D02*
X117900000Y-100600000D01*
X138300000Y-112336396D02*
X137700000Y-112936396D01*
X114212500Y-101700000D02*
X116800000Y-101700000D01*
X137700000Y-118300000D02*
X139700000Y-120300000D01*
X121200000Y-100600000D02*
X125200000Y-104600000D01*
X138000000Y-108100000D02*
X138300000Y-108400000D01*
X137000000Y-108100000D02*
X138000000Y-108100000D01*
X114212500Y-97887500D02*
X114410000Y-97690000D01*
X125200000Y-104600000D02*
X125200000Y-106900000D01*
X139700000Y-120300000D02*
X140862500Y-120300000D01*
X134300000Y-108700000D02*
X136400000Y-108700000D01*
X120000000Y-100600000D02*
X121200000Y-100600000D01*
X138300000Y-108400000D02*
X138300000Y-112336396D01*
X125600000Y-107300000D02*
X132900000Y-107300000D01*
X114212500Y-101700000D02*
X114212500Y-97887500D01*
X137700000Y-112936396D02*
X137700000Y-118300000D01*
X125200000Y-106900000D02*
X125600000Y-107300000D01*
X136400000Y-108700000D02*
X137000000Y-108100000D01*
X116800000Y-101700000D02*
X117400000Y-101100000D01*
X132900000Y-107300000D02*
X134300000Y-108700000D01*
%TO.N,Net-(R36-Pad1)*%
X157500000Y-131900000D02*
X157500000Y-130168750D01*
%TO.N,REF*%
X135200000Y-137287500D02*
X136912500Y-137287500D01*
X137100000Y-132900000D02*
X137700000Y-133500000D01*
X157425000Y-120525000D02*
X158200000Y-121300000D01*
X135762500Y-130862500D02*
X135800000Y-130900000D01*
X141700000Y-125700000D02*
X138400000Y-129000000D01*
X153400000Y-120700000D02*
X153575000Y-120525000D01*
X135800000Y-132500000D02*
X136200000Y-132900000D01*
X135762500Y-129737500D02*
X135762500Y-130862500D01*
X155800000Y-120525000D02*
X157425000Y-120525000D01*
X136500000Y-129000000D02*
X135762500Y-129737500D01*
X133950000Y-130862500D02*
X135762500Y-130862500D01*
X153400000Y-122200000D02*
X153400000Y-120700000D01*
X136200000Y-132900000D02*
X137100000Y-132900000D01*
X158200000Y-121300000D02*
X158200000Y-123275000D01*
X137700000Y-133500000D02*
X137700000Y-134200000D01*
X153575000Y-120525000D02*
X155800000Y-120525000D01*
X143600000Y-125700000D02*
X141700000Y-125700000D01*
X136912500Y-137287500D02*
X137200000Y-137000000D01*
X152600000Y-123000000D02*
X153400000Y-122200000D01*
X135800000Y-130900000D02*
X135800000Y-132500000D01*
X138400000Y-129000000D02*
X136500000Y-129000000D01*
%TO.N,Net-(R29-Pad1)*%
X153700000Y-104000000D02*
X129136400Y-104000000D01*
X154487500Y-106700000D02*
X154487500Y-104787500D01*
X154487500Y-104787500D02*
X153700000Y-104000000D01*
X129136400Y-104000000D02*
X127597400Y-105539000D01*
%TO.N,/Display/kilo*%
X123800000Y-82700000D02*
X125300000Y-84200000D01*
X125300000Y-84200000D02*
X153725305Y-84200000D01*
X157590000Y-80335305D02*
X157590000Y-78310000D01*
X153725305Y-84200000D02*
X157590000Y-80335305D01*
X122500000Y-74600000D02*
X122500000Y-73037500D01*
%TO.N,/Display/mega*%
X128800000Y-85400000D02*
X144800000Y-85400000D01*
X126500000Y-73037500D02*
X126500000Y-74500000D01*
X144800000Y-85400000D02*
X147430000Y-88030000D01*
X147430000Y-88030000D02*
X147430000Y-97690000D01*
X128450000Y-85050000D02*
X128800000Y-85400000D01*
%TO.N,Net-(R36-Pad2)*%
X157487500Y-133737500D02*
X157500000Y-133725000D01*
X157487500Y-136400000D02*
X157487500Y-133737500D01*
%TO.N,Net-(R38-Pad2)*%
X160987500Y-136400000D02*
X159312500Y-136400000D01*
%TO.N,/Analog Front End/current_range2*%
X137400000Y-121675000D02*
X136825000Y-122250000D01*
X137100000Y-112900000D02*
X137100000Y-118600000D01*
X133800000Y-118600000D02*
X137100000Y-118600000D01*
X122100000Y-119900000D02*
X123000000Y-119000000D01*
X137270000Y-100470000D02*
X137300000Y-100500000D01*
X137300000Y-109300000D02*
X137300000Y-112700000D01*
X137300000Y-112700000D02*
X137100000Y-112900000D01*
X137270000Y-97690000D02*
X137270000Y-100470000D01*
X137100000Y-119800000D02*
X137400000Y-120100000D01*
X122100000Y-122287500D02*
X122100000Y-119900000D01*
X123000000Y-119000000D02*
X133400000Y-119000000D01*
X133400000Y-119000000D02*
X133800000Y-118600000D01*
X136825000Y-122250000D02*
X135137500Y-122250000D01*
X137100000Y-118600000D02*
X137100000Y-119800000D01*
%TO.N,Net-(U8-IN+)*%
X135375000Y-140950000D02*
X135200000Y-140775000D01*
X137262500Y-140950000D02*
X135375000Y-140950000D01*
X135200000Y-140775000D02*
X135200000Y-139112500D01*
X135200000Y-139112500D02*
X136875000Y-139112500D01*
X136875000Y-139112500D02*
X137087500Y-138900000D01*
%TO.N,/Analog Front End/continuity_detected*%
X128700000Y-135200000D02*
X129200000Y-135700000D01*
X129200000Y-135700000D02*
X136700000Y-135700000D01*
X137100000Y-136100000D02*
X138300000Y-136100000D01*
X136700000Y-135700000D02*
X137100000Y-136100000D01*
X116200000Y-128500000D02*
X128200000Y-128500000D01*
X110100000Y-98500000D02*
X110100000Y-122400000D01*
X138912500Y-139787500D02*
X138400000Y-140300000D01*
X138400000Y-142600000D02*
X138650000Y-142850000D01*
X128200000Y-128500000D02*
X128700000Y-129000000D01*
X138650000Y-142850000D02*
X139537500Y-142850000D01*
X138400000Y-140300000D02*
X138400000Y-142600000D01*
X111870000Y-97690000D02*
X110910000Y-97690000D01*
X110100000Y-122400000D02*
X116200000Y-128500000D01*
X128700000Y-129000000D02*
X128700000Y-135200000D01*
X138300000Y-136100000D02*
X138912500Y-136712500D01*
X138912500Y-136712500D02*
X138912500Y-138900000D01*
X138912500Y-138900000D02*
X138912500Y-139787500D01*
X110910000Y-97690000D02*
X110100000Y-98500000D01*
%TO.N,/Analog Front End/current_range3*%
X143800000Y-113300000D02*
X144000000Y-113100000D01*
X145000000Y-104800000D02*
X140800000Y-104800000D01*
X145400000Y-104900000D02*
X147800000Y-104900000D01*
X138600000Y-116200000D02*
X138600000Y-114200000D01*
X145200000Y-107900000D02*
X145500000Y-107600000D01*
X144000000Y-113100000D02*
X144000000Y-108000000D01*
X148187500Y-105287500D02*
X148187500Y-106400000D01*
X147800000Y-104900000D02*
X148187500Y-105287500D01*
X138600000Y-114200000D02*
X139500000Y-113300000D01*
X144100000Y-107900000D02*
X145200000Y-107900000D01*
X145250000Y-105050000D02*
X145000000Y-104800000D01*
X138100000Y-122400000D02*
X138400000Y-122100000D01*
X139810000Y-97690000D02*
X139810000Y-100490000D01*
X135137500Y-122900000D02*
X137100000Y-122900000D01*
X137100000Y-122900000D02*
X137600000Y-122400000D01*
X145500000Y-107600000D02*
X145500000Y-105300000D01*
X139810000Y-100490000D02*
X139800000Y-100500000D01*
X145500000Y-105300000D02*
X145250000Y-105050000D01*
X145250000Y-105050000D02*
X145400000Y-104900000D01*
X139500000Y-113300000D02*
X143800000Y-113300000D01*
X144000000Y-108000000D02*
X144100000Y-107900000D01*
X137600000Y-122400000D02*
X138100000Y-122400000D01*
%TO.N,/Analog Front End/current_range4*%
X141599999Y-120950000D02*
X142600000Y-119949999D01*
X145600000Y-112136396D02*
X145600000Y-109800000D01*
X142600000Y-119949999D02*
X142600000Y-115136396D01*
X145000000Y-100775000D02*
X145000000Y-100100000D01*
X145700000Y-100100000D02*
X146400000Y-100800000D01*
X145600000Y-109800000D02*
X145000000Y-109200000D01*
X145000000Y-100100000D02*
X145000000Y-99800000D01*
X145000000Y-99800000D02*
X144890000Y-99690000D01*
X145000000Y-100100000D02*
X145700000Y-100100000D01*
X140862500Y-120950000D02*
X141599999Y-120950000D01*
X142600000Y-115136396D02*
X145600000Y-112136396D01*
X146400000Y-100800000D02*
X165075000Y-100800000D01*
X144890000Y-99690000D02*
X144890000Y-97690000D01*
%TO.N,Net-(R65-Pad1)*%
X149700000Y-136625000D02*
X149700000Y-137900000D01*
X149700000Y-137900000D02*
X149175000Y-138425000D01*
X149175000Y-138425000D02*
X147687500Y-138425000D01*
%TO.N,/Analog Front End/Current Source/Iout*%
X118400000Y-116463600D02*
X118402600Y-116461000D01*
X118400000Y-119550000D02*
X118400000Y-116463600D01*
%TO.N,Net-(U8-IN-)*%
X150300000Y-143600000D02*
X150300000Y-140000000D01*
X137700000Y-144000000D02*
X149900000Y-144000000D01*
X150600000Y-139700000D02*
X151050000Y-139700000D01*
X151075000Y-139725000D02*
X151912500Y-139725000D01*
X137262500Y-142850000D02*
X137262500Y-143562500D01*
X149900000Y-144000000D02*
X150300000Y-143600000D01*
X150300000Y-140000000D02*
X150600000Y-139700000D01*
X151050000Y-139700000D02*
X151075000Y-139725000D01*
X137262500Y-143562500D02*
X137700000Y-144000000D01*
%TO.N,Net-(U5-COM1)*%
X132312500Y-120300000D02*
X135137500Y-120300000D01*
%TO.N,Net-(U5-COM3)*%
X139900000Y-122900000D02*
X140862500Y-122900000D01*
X132300000Y-124500000D02*
X138300000Y-124500000D01*
X138300000Y-124500000D02*
X139900000Y-122900000D01*
%TO.N,Net-(U5-COM4)*%
X143300000Y-124600000D02*
X143300000Y-122500000D01*
X133800000Y-125000000D02*
X142900000Y-125000000D01*
X142900000Y-125000000D02*
X143300000Y-124600000D01*
X143300000Y-122500000D02*
X143050000Y-122250000D01*
X133500000Y-126300000D02*
X133500000Y-125300000D01*
X143050000Y-122250000D02*
X140862500Y-122250000D01*
X132300000Y-126600000D02*
X133200000Y-126600000D01*
X133200000Y-126600000D02*
X133500000Y-126300000D01*
X133500000Y-125300000D02*
X133800000Y-125000000D01*
%TO.N,Net-(U5-COM2)*%
X133300000Y-122300000D02*
X133300000Y-121800000D01*
X133500000Y-121600000D02*
X135137500Y-121600000D01*
X133200000Y-122400000D02*
X133300000Y-122300000D01*
X132312500Y-122400000D02*
X133200000Y-122400000D01*
X133300000Y-121800000D02*
X133500000Y-121600000D01*
%TD*%
M02*
