%TF.GenerationSoftware,KiCad,Pcbnew,8.0.9-8.0.9-0~ubuntu22.04.1*%
%TF.CreationDate,2025-08-30T17:36:57-05:00*%
%TF.ProjectId,Multimeter,4d756c74-696d-4657-9465-722e6b696361,rev?*%
%TF.SameCoordinates,Original*%
%TF.FileFunction,Copper,L2,Bot*%
%TF.FilePolarity,Positive*%
%FSLAX46Y46*%
G04 Gerber Fmt 4.6, Leading zero omitted, Abs format (unit mm)*
G04 Created by KiCad (PCBNEW 8.0.9-8.0.9-0~ubuntu22.04.1) date 2025-08-30 17:36:57*
%MOMM*%
%LPD*%
G01*
G04 APERTURE LIST*
%TA.AperFunction,ComponentPad*%
%ADD10R,1.700000X1.700000*%
%TD*%
%TA.AperFunction,ComponentPad*%
%ADD11C,1.700000*%
%TD*%
%TA.AperFunction,ComponentPad*%
%ADD12C,3.500000*%
%TD*%
%TA.AperFunction,ComponentPad*%
%ADD13C,7.900000*%
%TD*%
%TA.AperFunction,ComponentPad*%
%ADD14C,0.800000*%
%TD*%
%TA.AperFunction,ComponentPad*%
%ADD15C,6.400000*%
%TD*%
%TA.AperFunction,ComponentPad*%
%ADD16R,1.500000X1.500000*%
%TD*%
%TA.AperFunction,ComponentPad*%
%ADD17R,2.628900X2.628900*%
%TD*%
%TA.AperFunction,ComponentPad*%
%ADD18C,2.628900*%
%TD*%
%TA.AperFunction,ComponentPad*%
%ADD19C,2.000000*%
%TD*%
%TA.AperFunction,ComponentPad*%
%ADD20C,1.500000*%
%TD*%
%TA.AperFunction,ViaPad*%
%ADD21C,0.800000*%
%TD*%
%TA.AperFunction,Conductor*%
%ADD22C,0.500000*%
%TD*%
%TA.AperFunction,Conductor*%
%ADD23C,0.250000*%
%TD*%
G04 APERTURE END LIST*
D10*
%TO.P,J1,1,VBUS*%
%TO.N,Net-(D2-A)*%
X126250000Y-136422500D03*
D11*
%TO.P,J1,2,D-*%
%TO.N,unconnected-(J1-D--Pad2)*%
X123750000Y-136422500D03*
%TO.P,J1,3,D+*%
%TO.N,unconnected-(J1-D+-Pad3)*%
X123750000Y-138422500D03*
%TO.P,J1,4,GND*%
%TO.N,GND*%
X126250000Y-138422500D03*
D12*
%TO.P,J1,5,Shield*%
X131020000Y-141132500D03*
X118980000Y-141132500D03*
%TD*%
D13*
%TO.P,J4,1,Pin_1*%
%TO.N,/Analog Front End/Continuity Detector/Vbias*%
X163000000Y-131000000D03*
%TD*%
D14*
%TO.P,H4,1,1*%
%TO.N,GND*%
X169600000Y-141000000D03*
X170302944Y-139302944D03*
X170302944Y-142697056D03*
X172000000Y-138600000D03*
D15*
X172000000Y-141000000D03*
D14*
X172000000Y-143400000D03*
X173697056Y-139302944D03*
X173697056Y-142697056D03*
X174400000Y-141000000D03*
%TD*%
D16*
%TO.P,TP1,1,1*%
%TO.N,Net-(U10-CH0)*%
X170600000Y-125600000D03*
%TD*%
D17*
%TO.P,SW3,1*%
%TO.N,Net-(C1-Pad1)*%
X127597400Y-116461000D03*
D18*
%TO.P,SW3,2*%
%TO.N,Net-(D5-K)*%
X123000000Y-116461000D03*
%TO.P,SW3,3*%
%TO.N,/Analog Front End/Current Source/Iout*%
X118402600Y-116461000D03*
%TO.P,SW3,4*%
%TO.N,unconnected-(SW3-Pad4)*%
X127597400Y-109907800D03*
%TO.P,SW3,5*%
%TO.N,Net-(D5-K)*%
X123000000Y-109907800D03*
%TO.P,SW3,6*%
%TO.N,/Analog Front End/Continuity Detector/Vin*%
X118402600Y-109907800D03*
%TO.P,SW3,7*%
%TO.N,Net-(R29-Pad1)*%
X127597400Y-105539000D03*
%TO.P,SW3,8*%
%TO.N,GND*%
X123000000Y-105539000D03*
%TO.P,SW3,9*%
%TO.N,/Analog Front End/MODE*%
X118402600Y-105539000D03*
%TD*%
D14*
%TO.P,H3,1,1*%
%TO.N,GND*%
X109600000Y-141000000D03*
X110302944Y-139302944D03*
X110302944Y-142697056D03*
X112000000Y-138600000D03*
D15*
X112000000Y-141000000D03*
D14*
X112000000Y-143400000D03*
X113697056Y-139302944D03*
X113697056Y-142697056D03*
X114400000Y-141000000D03*
%TD*%
D16*
%TO.P,TP4,1,1*%
%TO.N,Net-(U3C--)*%
X125000000Y-122400000D03*
%TD*%
%TO.P,TP2,1,1*%
%TO.N,/Analog Front End/Continuity Detector/Vbias*%
X166800000Y-125600000D03*
%TD*%
D14*
%TO.P,H1,1,1*%
%TO.N,GND*%
X109600000Y-39000000D03*
X110302944Y-37302944D03*
X110302944Y-40697056D03*
X112000000Y-36600000D03*
D15*
X112000000Y-39000000D03*
D14*
X112000000Y-41400000D03*
X113697056Y-37302944D03*
X113697056Y-40697056D03*
X114400000Y-39000000D03*
%TD*%
D16*
%TO.P,TP5,1,1*%
%TO.N,Net-(Q14-S)*%
X136700000Y-126600000D03*
%TD*%
D19*
%TO.P,SW1,1,1*%
%TO.N,Net-(U1-TP5_GPIO25{slash}LED)*%
X135597400Y-107000000D03*
X142097400Y-107000000D03*
%TO.P,SW1,2,2*%
%TO.N,GND*%
X135597400Y-111500000D03*
X142097400Y-111500000D03*
%TD*%
D14*
%TO.P,H2,1,1*%
%TO.N,GND*%
X169600000Y-39000000D03*
X170302944Y-37302944D03*
X170302944Y-40697056D03*
X172000000Y-36600000D03*
D15*
X172000000Y-39000000D03*
D14*
X172000000Y-41400000D03*
X173697056Y-37302944D03*
X173697056Y-40697056D03*
X174400000Y-39000000D03*
%TD*%
D13*
%TO.P,J3,1,Pin_1*%
%TO.N,/Analog Front End/Continuity Detector/Vin*%
X144000000Y-131000000D03*
%TD*%
D16*
%TO.P,TP3,1,1*%
%TO.N,Net-(C14-Pad1)*%
X147000000Y-109900000D03*
%TD*%
%TO.P,U4,1,e*%
%TO.N,Net-(U4-e)*%
X135650000Y-52477500D03*
D20*
%TO.P,U4,2,d*%
%TO.N,Net-(U4-d)*%
X138190000Y-52477500D03*
%TO.P,U4,3,DPX*%
%TO.N,Net-(U4-DPX)*%
X140730000Y-52477500D03*
%TO.P,U4,4,c*%
%TO.N,Net-(U4-c)*%
X143270000Y-52477500D03*
%TO.P,U4,5,g*%
%TO.N,Net-(U4-g)*%
X145810000Y-52477500D03*
%TO.P,U4,6,CC4*%
%TO.N,Net-(Q1-D)*%
X148350000Y-52477500D03*
%TO.P,U4,7,b*%
%TO.N,Net-(U4-b)*%
X148350000Y-37237500D03*
%TO.P,U4,8,CC3*%
%TO.N,Net-(Q2-D)*%
X145810000Y-37237500D03*
%TO.P,U4,9,CC2*%
%TO.N,Net-(Q3-D)*%
X143270000Y-37237500D03*
%TO.P,U4,10,f*%
%TO.N,Net-(U4-f)*%
X140730000Y-37237500D03*
%TO.P,U4,11,a*%
%TO.N,Net-(U4-a)*%
X138190000Y-37237500D03*
%TO.P,U4,12,CC1*%
%TO.N,Net-(Q4-D)*%
X135650000Y-37237500D03*
%TD*%
D21*
%TO.N,+5V*%
X156700000Y-63900000D03*
X135100000Y-63900000D03*
X149400000Y-63900000D03*
X131800000Y-63900000D03*
X142500000Y-63900000D03*
X138500000Y-63900000D03*
X145600000Y-63900000D03*
X153200000Y-63900000D03*
X160400000Y-63900000D03*
%TO.N,GND*%
X152800000Y-106900000D03*
X158000000Y-118625000D03*
X141000000Y-65400000D03*
X159212500Y-143000000D03*
X174100000Y-71000000D03*
X111000000Y-101700000D03*
X116500000Y-85600000D03*
X168400000Y-111200000D03*
X116900000Y-95000000D03*
X125200000Y-64287500D03*
X130600000Y-130800000D03*
X137500000Y-65300000D03*
X117300000Y-64287500D03*
X158800000Y-65400000D03*
X154437500Y-135675000D03*
X172000000Y-63887500D03*
X123900000Y-124400000D03*
X162600000Y-109500000D03*
X148200000Y-65300000D03*
X143200000Y-142800000D03*
X150400000Y-109000000D03*
X143904931Y-140130237D03*
X111900000Y-92200000D03*
X129700000Y-80700000D03*
X140900000Y-114700000D03*
X168287500Y-100800000D03*
X167800000Y-64087500D03*
X169800000Y-117000000D03*
X137600000Y-123600000D03*
X164112500Y-136400000D03*
X160050000Y-122325000D03*
X142300000Y-80700000D03*
X116900000Y-80900000D03*
X151500000Y-105000000D03*
X162100000Y-113800000D03*
X164000000Y-64087500D03*
X144600000Y-65400000D03*
X129600000Y-95100000D03*
X158200000Y-88000000D03*
X155200000Y-65300000D03*
X132500000Y-143300000D03*
X155000000Y-80600000D03*
X142300000Y-95400000D03*
X155100000Y-95300000D03*
X133900000Y-65400000D03*
X110500000Y-131000000D03*
X162200000Y-111700000D03*
X129200000Y-64287500D03*
X146400000Y-121400000D03*
X151700000Y-65400000D03*
%TO.N,+3.3V*%
X167200000Y-97100000D03*
X139000000Y-134000000D03*
X146300000Y-92300000D03*
X167100000Y-113900000D03*
X112400000Y-103300000D03*
X169400000Y-105800000D03*
X162087347Y-106712653D03*
X141700000Y-139500000D03*
X145300000Y-143200000D03*
X153400000Y-92300000D03*
X158200000Y-110700000D03*
X139425153Y-114400153D03*
X149400000Y-108100000D03*
X163500000Y-113600000D03*
X159800000Y-92600000D03*
X162050000Y-94850000D03*
X151200000Y-144200000D03*
X113400000Y-94900000D03*
X169200000Y-109100000D03*
X164200000Y-97000000D03*
X153200000Y-118900000D03*
%TO.N,/Analog Front End/MODE*%
X134600000Y-100300000D03*
X119700000Y-101600000D03*
%TO.N,Net-(Q2-D)*%
X154400000Y-43400000D03*
X156600000Y-43400000D03*
X148800000Y-42000000D03*
X146800000Y-40000000D03*
%TO.N,Net-(Q4-D)*%
X160700000Y-45900000D03*
X139700000Y-42900000D03*
X168300000Y-53200000D03*
X165800000Y-50900000D03*
X141800000Y-42900000D03*
X154300000Y-45900000D03*
%TO.N,/Analog Front End/Continuity Detector/Vbias*%
X156700000Y-126500000D03*
X158900000Y-126500000D03*
X136200000Y-113600000D03*
X148900000Y-122800000D03*
%TO.N,/Display/digit3*%
X165800000Y-81500000D03*
X165800000Y-78500000D03*
%TO.N,Net-(U4-a)*%
X141800000Y-41800000D03*
X159800000Y-51200000D03*
X139700000Y-41700000D03*
X154400000Y-44600000D03*
X159800000Y-53300000D03*
X156600000Y-44600000D03*
%TO.N,Net-(U4-b)*%
X155700000Y-51500000D03*
X155700000Y-53500000D03*
X155800000Y-41900000D03*
X155800000Y-40100000D03*
%TO.N,/Display/low_ohm*%
X120200000Y-74600000D03*
X146800000Y-86100000D03*
X121950000Y-84150000D03*
X144100000Y-86200000D03*
%TO.N,Net-(C14-Pad1)*%
X143800000Y-118300000D03*
X144900000Y-121700000D03*
%TO.N,/Analog Front End/SCK*%
X166700000Y-120000000D03*
X164700000Y-118500000D03*
%TO.N,/Analog Front End/SDI*%
X166600000Y-118800000D03*
X164900000Y-117000000D03*
%TO.N,/Analog Front End/SDO*%
X166900000Y-106600000D03*
X162600000Y-104300000D03*
%TO.N,Net-(D5-K)*%
X139200000Y-110200000D03*
X133600000Y-109500000D03*
X153900000Y-116000000D03*
X142900000Y-109500000D03*
X153500000Y-113700000D03*
X149400000Y-112200000D03*
%TO.N,Net-(U3C--)*%
X153700000Y-123100000D03*
X139800000Y-126500000D03*
%TO.N,Net-(Q14-S)*%
X142400000Y-123300000D03*
X143600000Y-120100000D03*
%TO.N,/Display/E*%
X127900000Y-74400000D03*
X136200000Y-81500000D03*
%TO.N,/Display/DP*%
X140950000Y-82150000D03*
X138600000Y-80275000D03*
%TO.N,Net-(U1-TP5_GPIO25{slash}LED)*%
X135597400Y-105292200D03*
X136000000Y-95100000D03*
%TO.N,REF*%
X152600000Y-123000000D03*
X137200000Y-137000000D03*
X137700000Y-134200000D03*
X143600000Y-125700000D03*
%TO.N,/Display/kilo*%
X122500000Y-74600000D03*
X123800000Y-82700000D03*
%TO.N,/Display/mega*%
X128450000Y-85050000D03*
X126500000Y-74500000D03*
%TO.N,/Analog Front End/current_range2*%
X137400000Y-121675000D03*
X137300000Y-100500000D03*
X137300000Y-109300000D03*
X137400000Y-120100000D03*
%TO.N,/Analog Front End/current_range3*%
X138600000Y-116200000D03*
X140800000Y-104800000D03*
X139800000Y-100500000D03*
X138400000Y-122100000D03*
%TO.N,/Analog Front End/current_range4*%
X145000000Y-100775000D03*
X145000000Y-109200000D03*
%TD*%
D22*
%TO.N,+5V*%
X156700000Y-63900000D02*
X160400000Y-63900000D01*
X153200000Y-63900000D02*
X156700000Y-63900000D01*
X131800000Y-63900000D02*
X135100000Y-63900000D01*
X142500000Y-63900000D02*
X145600000Y-63900000D01*
X138500000Y-63900000D02*
X135100000Y-63900000D01*
X149400000Y-63900000D02*
X153200000Y-63900000D01*
X138500000Y-63900000D02*
X142500000Y-63900000D01*
X145600000Y-63900000D02*
X149400000Y-63900000D01*
D23*
%TO.N,+3.3V*%
X157600000Y-111300000D02*
X154400000Y-108100000D01*
D22*
X168200000Y-108100000D02*
X169200000Y-109100000D01*
X168200000Y-108100000D02*
X165300000Y-108100000D01*
X163912653Y-106712653D02*
X162087347Y-106712653D01*
D23*
X153900000Y-118900000D02*
X153900000Y-119900000D01*
D22*
X146300000Y-144200000D02*
X145300000Y-143200000D01*
D23*
X150400000Y-123400000D02*
X149700000Y-124100000D01*
X149700000Y-124100000D02*
X149174695Y-124100000D01*
X153900000Y-119900000D02*
X153200000Y-120600000D01*
X157600000Y-111300000D02*
X155700000Y-113200000D01*
D22*
X164800000Y-107600000D02*
X163912653Y-106712653D01*
D23*
X154400000Y-118900000D02*
X153900000Y-118900000D01*
X141700000Y-139500000D02*
X141700000Y-138700000D01*
X139000000Y-136000000D02*
X139000000Y-134000000D01*
D22*
X113400000Y-94900000D02*
X112400000Y-95900000D01*
D23*
X153900000Y-118900000D02*
X153200000Y-118900000D01*
D22*
X151200000Y-144200000D02*
X146300000Y-144200000D01*
D23*
X141600000Y-113800000D02*
X140025306Y-113800000D01*
D22*
X169400000Y-106900000D02*
X168200000Y-108100000D01*
D23*
X147600000Y-122500000D02*
X147600000Y-119800000D01*
D22*
X165300000Y-108100000D02*
X164800000Y-107600000D01*
D23*
X140025306Y-113800000D02*
X139425153Y-114400153D01*
D22*
X112400000Y-95900000D02*
X112400000Y-103300000D01*
D23*
X155700000Y-117600000D02*
X154500000Y-118800000D01*
D22*
X159800000Y-92600000D02*
X162050000Y-94850000D01*
D23*
X148175000Y-123075000D02*
X147600000Y-122500000D01*
X155700000Y-115500000D02*
X155700000Y-117600000D01*
X141700000Y-138700000D02*
X139900000Y-136900000D01*
X154500000Y-118800000D02*
X154400000Y-118900000D01*
X155700000Y-113200000D02*
X155700000Y-115500000D01*
D22*
X146300000Y-92300000D02*
X153400000Y-92300000D01*
D23*
X158200000Y-110700000D02*
X157600000Y-111300000D01*
X150400000Y-120900000D02*
X150400000Y-123400000D01*
D22*
X164200000Y-97000000D02*
X167100000Y-97000000D01*
D23*
X149174695Y-124100000D02*
X148175000Y-123100305D01*
X154400000Y-108100000D02*
X149400000Y-108100000D01*
X147600000Y-119800000D02*
X141600000Y-113800000D01*
X167100000Y-113900000D02*
X166800000Y-113600000D01*
X139900000Y-136900000D02*
X139000000Y-136000000D01*
X148175000Y-123100305D02*
X148175000Y-123075000D01*
X153200000Y-120600000D02*
X150700000Y-120600000D01*
D22*
X169400000Y-105800000D02*
X169400000Y-106900000D01*
D23*
X166800000Y-113600000D02*
X163500000Y-113600000D01*
D22*
X167100000Y-97000000D02*
X167200000Y-97100000D01*
D23*
X150700000Y-120600000D02*
X150400000Y-120900000D01*
%TO.N,/Analog Front End/MODE*%
X119700000Y-101600000D02*
X133300000Y-101600000D01*
X133300000Y-101600000D02*
X134600000Y-100300000D01*
%TO.N,Net-(Q2-D)*%
X154400000Y-43400000D02*
X156600000Y-43400000D01*
X146800000Y-40000000D02*
X148800000Y-42000000D01*
%TO.N,Net-(Q4-D)*%
X168100000Y-53200000D02*
X168300000Y-53200000D01*
X154300000Y-45900000D02*
X160700000Y-45900000D01*
X139700000Y-42900000D02*
X141800000Y-42900000D01*
X165800000Y-50900000D02*
X168100000Y-53200000D01*
%TO.N,/Analog Front End/Continuity Detector/Vbias*%
X148900000Y-122800000D02*
X148300000Y-122200000D01*
X136500000Y-113300000D02*
X136200000Y-113600000D01*
X142100000Y-113300000D02*
X136500000Y-113300000D01*
X148300000Y-122200000D02*
X148300000Y-119500000D01*
X158900000Y-126500000D02*
X156700000Y-126500000D01*
X148300000Y-119500000D02*
X142100000Y-113300000D01*
%TO.N,/Display/digit3*%
X165800000Y-78500000D02*
X165800000Y-81500000D01*
%TO.N,Net-(U4-a)*%
X154400000Y-44600000D02*
X156600000Y-44600000D01*
X141700000Y-41700000D02*
X141800000Y-41800000D01*
X159800000Y-51200000D02*
X159800000Y-53300000D01*
X139700000Y-41700000D02*
X141700000Y-41700000D01*
%TO.N,Net-(U4-b)*%
X155800000Y-41900000D02*
X155800000Y-40100000D01*
X155700000Y-53500000D02*
X155700000Y-51500000D01*
%TO.N,/Display/low_ohm*%
X120200000Y-82400000D02*
X121950000Y-84150000D01*
X146800000Y-86100000D02*
X146700000Y-86200000D01*
X120200000Y-74600000D02*
X120200000Y-82400000D01*
X146700000Y-86200000D02*
X144100000Y-86200000D01*
%TO.N,Net-(C14-Pad1)*%
X144900000Y-119400000D02*
X144900000Y-121700000D01*
X143800000Y-118300000D02*
X144900000Y-119400000D01*
%TO.N,/Analog Front End/SCK*%
X164700000Y-118500000D02*
X166200000Y-120000000D01*
X166200000Y-120000000D02*
X166700000Y-120000000D01*
%TO.N,/Analog Front End/SDI*%
X164900000Y-117100000D02*
X164900000Y-117000000D01*
X166600000Y-118800000D02*
X164900000Y-117100000D01*
%TO.N,/Analog Front End/SDO*%
X166900000Y-106000000D02*
X166900000Y-106600000D01*
X166000000Y-105100000D02*
X166900000Y-106000000D01*
X163400000Y-105100000D02*
X166000000Y-105100000D01*
X162600000Y-104300000D02*
X163400000Y-105100000D01*
%TO.N,Net-(D5-K)*%
X153900000Y-114100000D02*
X153500000Y-113700000D01*
X145600000Y-112200000D02*
X142900000Y-109500000D01*
X136171233Y-110200000D02*
X139200000Y-110200000D01*
X153900000Y-115300000D02*
X153900000Y-116000000D01*
X135471233Y-109500000D02*
X136171233Y-110200000D01*
X149400000Y-112200000D02*
X145600000Y-112200000D01*
X133600000Y-109500000D02*
X135471233Y-109500000D01*
X153900000Y-115300000D02*
X153900000Y-114100000D01*
%TO.N,Net-(U3C--)*%
X153700000Y-123536396D02*
X150736396Y-126500000D01*
X153700000Y-123100000D02*
X153700000Y-123536396D01*
X150736396Y-126500000D02*
X139800000Y-126500000D01*
%TO.N,Net-(Q14-S)*%
X143200000Y-122500000D02*
X143400000Y-122700000D01*
X143400000Y-124800000D02*
X142500000Y-125700000D01*
X142400000Y-122500000D02*
X143200000Y-122500000D01*
X143600000Y-120100000D02*
X142400000Y-121300000D01*
X142400000Y-121300000D02*
X142400000Y-122500000D01*
X142500000Y-125700000D02*
X139000000Y-125700000D01*
X139000000Y-125700000D02*
X138100000Y-126600000D01*
X138100000Y-126600000D02*
X136700000Y-126600000D01*
X142400000Y-123300000D02*
X142400000Y-122500000D01*
X143400000Y-122700000D02*
X143400000Y-124800000D01*
%TO.N,/Display/E*%
X127900000Y-74400000D02*
X127900000Y-77500000D01*
X127900000Y-77500000D02*
X131900000Y-81500000D01*
X131900000Y-81500000D02*
X136200000Y-81500000D01*
%TO.N,/Display/DP*%
X140950000Y-82150000D02*
X140475000Y-82150000D01*
X140475000Y-82150000D02*
X138600000Y-80275000D01*
%TO.N,Net-(U1-TP5_GPIO25{slash}LED)*%
X135597400Y-105292200D02*
X135597400Y-104394800D01*
X136000000Y-103992200D02*
X136000000Y-95100000D01*
X135597400Y-104394800D02*
X136000000Y-103992200D01*
%TO.N,REF*%
X150900000Y-125700000D02*
X152600000Y-124000000D01*
X137700000Y-136500000D02*
X137700000Y-134200000D01*
X143600000Y-125700000D02*
X150900000Y-125700000D01*
X137200000Y-137000000D02*
X137700000Y-136500000D01*
X152600000Y-124000000D02*
X152600000Y-123000000D01*
%TO.N,/Display/kilo*%
X122400000Y-74700000D02*
X122500000Y-74600000D01*
X123800000Y-82700000D02*
X122400000Y-81300000D01*
X122400000Y-81300000D02*
X122400000Y-74700000D01*
%TO.N,/Display/mega*%
X126500000Y-83100000D02*
X126500000Y-74500000D01*
X128450000Y-85050000D02*
X126500000Y-83100000D01*
%TO.N,/Analog Front End/current_range2*%
X137400000Y-120100000D02*
X137400000Y-121675000D01*
X137300000Y-100500000D02*
X137300000Y-109300000D01*
%TO.N,/Analog Front End/current_range3*%
X138600000Y-116200000D02*
X138600000Y-121900000D01*
X139800000Y-103900000D02*
X139800000Y-100500000D01*
X138600000Y-121900000D02*
X138400000Y-122100000D01*
X140700000Y-104800000D02*
X139800000Y-103900000D01*
X140800000Y-104800000D02*
X140700000Y-104800000D01*
%TO.N,/Analog Front End/current_range4*%
X145000000Y-109200000D02*
X145000000Y-100775000D01*
%TD*%
%TA.AperFunction,Conductor*%
%TO.N,GND*%
G36*
X110779588Y-142042330D02*
G01*
X110957670Y-142220412D01*
X111059301Y-142294251D01*
X109564649Y-143788903D01*
X109565063Y-143796802D01*
X109592915Y-143837121D01*
X109595243Y-143906952D01*
X109559448Y-143966956D01*
X109496894Y-143998082D01*
X109475168Y-144000000D01*
X109124000Y-144000000D01*
X109056961Y-143980315D01*
X109011206Y-143927511D01*
X109000000Y-143876000D01*
X109000000Y-143524832D01*
X109019685Y-143457793D01*
X109072489Y-143412038D01*
X109141647Y-143402094D01*
X109205203Y-143431119D01*
X109209197Y-143435249D01*
X109211095Y-143435349D01*
X110705747Y-141940697D01*
X110779588Y-142042330D01*
G37*
%TD.AperFunction*%
%TA.AperFunction,Conductor*%
G36*
X134910913Y-36019685D02*
G01*
X134956668Y-36072489D01*
X134966612Y-36141647D01*
X134937587Y-36205203D01*
X134914997Y-36225575D01*
X134843121Y-36275902D01*
X134688402Y-36430621D01*
X134562900Y-36609857D01*
X134562898Y-36609861D01*
X134470426Y-36808168D01*
X134470422Y-36808177D01*
X134413793Y-37019520D01*
X134413793Y-37019524D01*
X134394723Y-37237497D01*
X134394723Y-37237502D01*
X134413793Y-37455475D01*
X134413793Y-37455479D01*
X134470422Y-37666822D01*
X134470424Y-37666826D01*
X134470425Y-37666830D01*
X134492382Y-37713916D01*
X134562897Y-37865138D01*
X134562898Y-37865139D01*
X134688402Y-38044377D01*
X134843123Y-38199098D01*
X135022361Y-38324602D01*
X135220670Y-38417075D01*
X135432023Y-38473707D01*
X135614926Y-38489708D01*
X135649998Y-38492777D01*
X135650000Y-38492777D01*
X135650002Y-38492777D01*
X135678254Y-38490305D01*
X135867977Y-38473707D01*
X136079330Y-38417075D01*
X136277639Y-38324602D01*
X136456877Y-38199098D01*
X136611598Y-38044377D01*
X136737102Y-37865139D01*
X136807618Y-37713914D01*
X136853790Y-37661477D01*
X136920984Y-37642325D01*
X136987865Y-37662541D01*
X137032381Y-37713914D01*
X137102898Y-37865139D01*
X137228402Y-38044377D01*
X137383123Y-38199098D01*
X137562361Y-38324602D01*
X137760670Y-38417075D01*
X137972023Y-38473707D01*
X138154926Y-38489708D01*
X138189998Y-38492777D01*
X138190000Y-38492777D01*
X138190002Y-38492777D01*
X138218254Y-38490305D01*
X138407977Y-38473707D01*
X138619330Y-38417075D01*
X138817639Y-38324602D01*
X138996877Y-38199098D01*
X139151598Y-38044377D01*
X139277102Y-37865139D01*
X139347618Y-37713914D01*
X139393790Y-37661477D01*
X139460984Y-37642325D01*
X139527865Y-37662541D01*
X139572381Y-37713914D01*
X139642898Y-37865139D01*
X139768402Y-38044377D01*
X139923123Y-38199098D01*
X140102361Y-38324602D01*
X140300670Y-38417075D01*
X140512023Y-38473707D01*
X140694926Y-38489708D01*
X140729998Y-38492777D01*
X140730000Y-38492777D01*
X140730002Y-38492777D01*
X140758254Y-38490305D01*
X140947977Y-38473707D01*
X141159330Y-38417075D01*
X141357639Y-38324602D01*
X141536877Y-38199098D01*
X141691598Y-38044377D01*
X141817102Y-37865139D01*
X141887618Y-37713914D01*
X141933790Y-37661477D01*
X142000984Y-37642325D01*
X142067865Y-37662541D01*
X142112381Y-37713914D01*
X142182898Y-37865139D01*
X142308402Y-38044377D01*
X142463123Y-38199098D01*
X142642361Y-38324602D01*
X142840670Y-38417075D01*
X143052023Y-38473707D01*
X143234926Y-38489708D01*
X143269998Y-38492777D01*
X143270000Y-38492777D01*
X143270002Y-38492777D01*
X143298254Y-38490305D01*
X143487977Y-38473707D01*
X143699330Y-38417075D01*
X143897639Y-38324602D01*
X144076877Y-38199098D01*
X144231598Y-38044377D01*
X144357102Y-37865139D01*
X144427618Y-37713914D01*
X144473790Y-37661477D01*
X144540984Y-37642325D01*
X144607865Y-37662541D01*
X144652381Y-37713914D01*
X144722898Y-37865139D01*
X144848402Y-38044377D01*
X145003123Y-38199098D01*
X145182361Y-38324602D01*
X145380670Y-38417075D01*
X145592023Y-38473707D01*
X145774926Y-38489708D01*
X145809998Y-38492777D01*
X145810000Y-38492777D01*
X145810002Y-38492777D01*
X145838254Y-38490305D01*
X146027977Y-38473707D01*
X146239330Y-38417075D01*
X146437639Y-38324602D01*
X146616877Y-38199098D01*
X146771598Y-38044377D01*
X146897102Y-37865139D01*
X146967618Y-37713914D01*
X147013790Y-37661477D01*
X147080984Y-37642325D01*
X147147865Y-37662541D01*
X147192381Y-37713914D01*
X147262898Y-37865139D01*
X147388402Y-38044377D01*
X147543123Y-38199098D01*
X147722361Y-38324602D01*
X147920670Y-38417075D01*
X148132023Y-38473707D01*
X148314926Y-38489708D01*
X148349998Y-38492777D01*
X148350000Y-38492777D01*
X148350002Y-38492777D01*
X148378254Y-38490305D01*
X148567977Y-38473707D01*
X148779330Y-38417075D01*
X148977639Y-38324602D01*
X149156877Y-38199098D01*
X149311598Y-38044377D01*
X149437102Y-37865139D01*
X149529575Y-37666830D01*
X149586207Y-37455477D01*
X149605277Y-37237500D01*
X149586207Y-37019523D01*
X149529575Y-36808170D01*
X149437102Y-36609862D01*
X149437100Y-36609859D01*
X149437099Y-36609857D01*
X149311599Y-36430624D01*
X149311596Y-36430621D01*
X149156877Y-36275902D01*
X149084998Y-36225572D01*
X149041377Y-36170998D01*
X149034184Y-36101499D01*
X149065706Y-36039145D01*
X149125936Y-36003731D01*
X149156125Y-36000000D01*
X169475166Y-36000000D01*
X169542205Y-36019685D01*
X169587960Y-36072489D01*
X169597904Y-36141647D01*
X169568879Y-36205203D01*
X169564748Y-36209197D01*
X169564649Y-36211096D01*
X171059301Y-37705748D01*
X170957670Y-37779588D01*
X170779588Y-37957670D01*
X170705748Y-38059301D01*
X169211096Y-36564649D01*
X169211095Y-36564649D01*
X169002531Y-36822206D01*
X168791310Y-37147456D01*
X168615244Y-37493005D01*
X168476262Y-37855063D01*
X168375887Y-38229669D01*
X168375886Y-38229676D01*
X168315219Y-38612712D01*
X168294922Y-38999999D01*
X168294922Y-39000000D01*
X168315219Y-39387287D01*
X168375886Y-39770323D01*
X168375887Y-39770330D01*
X168476262Y-40144936D01*
X168615244Y-40506994D01*
X168791310Y-40852543D01*
X169002523Y-41177783D01*
X169002525Y-41177785D01*
X169211096Y-41435348D01*
X170705747Y-39940697D01*
X170779588Y-40042330D01*
X170957670Y-40220412D01*
X171059301Y-40294251D01*
X169564650Y-41788902D01*
X169822214Y-41997475D01*
X169822216Y-41997476D01*
X170147456Y-42208689D01*
X170493005Y-42384755D01*
X170855063Y-42523737D01*
X171229669Y-42624112D01*
X171229676Y-42624113D01*
X171612712Y-42684780D01*
X171999999Y-42705078D01*
X172000001Y-42705078D01*
X172387287Y-42684780D01*
X172770323Y-42624113D01*
X172770330Y-42624112D01*
X173144936Y-42523737D01*
X173506994Y-42384755D01*
X173852543Y-42208689D01*
X174177771Y-41997484D01*
X174177784Y-41997474D01*
X174435348Y-41788902D01*
X172940698Y-40294252D01*
X173042330Y-40220412D01*
X173220412Y-40042330D01*
X173294252Y-39940698D01*
X174788903Y-41435349D01*
X174796802Y-41434935D01*
X174837121Y-41407084D01*
X174906952Y-41404756D01*
X174966956Y-41440551D01*
X174998082Y-41503105D01*
X175000000Y-41524831D01*
X175000000Y-138475167D01*
X174980315Y-138542206D01*
X174927511Y-138587961D01*
X174858353Y-138597905D01*
X174794797Y-138568880D01*
X174790801Y-138564749D01*
X174788903Y-138564649D01*
X173294251Y-140059301D01*
X173220412Y-139957670D01*
X173042330Y-139779588D01*
X172940698Y-139705748D01*
X174435349Y-138211096D01*
X174177785Y-138002525D01*
X174177783Y-138002523D01*
X173852543Y-137791310D01*
X173506994Y-137615244D01*
X173144936Y-137476262D01*
X172770330Y-137375887D01*
X172770323Y-137375886D01*
X172387287Y-137315219D01*
X172000001Y-137294922D01*
X171999999Y-137294922D01*
X171612712Y-137315219D01*
X171229676Y-137375886D01*
X171229669Y-137375887D01*
X170855063Y-137476262D01*
X170493005Y-137615244D01*
X170147456Y-137791310D01*
X169822206Y-138002531D01*
X169564649Y-138211095D01*
X169564649Y-138211096D01*
X171059301Y-139705748D01*
X170957670Y-139779588D01*
X170779588Y-139957670D01*
X170705748Y-140059301D01*
X169211096Y-138564649D01*
X169211095Y-138564649D01*
X169002531Y-138822206D01*
X168791310Y-139147456D01*
X168615244Y-139493005D01*
X168476262Y-139855063D01*
X168375887Y-140229669D01*
X168375886Y-140229676D01*
X168315219Y-140612712D01*
X168294922Y-140999999D01*
X168294922Y-141000000D01*
X168315219Y-141387287D01*
X168375886Y-141770323D01*
X168375887Y-141770330D01*
X168476262Y-142144936D01*
X168615244Y-142506994D01*
X168791310Y-142852543D01*
X169002523Y-143177783D01*
X169002525Y-143177785D01*
X169211096Y-143435348D01*
X170705747Y-141940697D01*
X170779588Y-142042330D01*
X170957670Y-142220412D01*
X171059301Y-142294251D01*
X169564649Y-143788903D01*
X169565063Y-143796802D01*
X169592915Y-143837121D01*
X169595243Y-143906952D01*
X169559448Y-143966956D01*
X169496894Y-143998082D01*
X169475168Y-144000000D01*
X152171949Y-144000000D01*
X152104910Y-143980315D01*
X152059155Y-143927511D01*
X152054018Y-143914318D01*
X152027181Y-143831721D01*
X152027178Y-143831715D01*
X152007021Y-143796802D01*
X151932533Y-143667784D01*
X151805871Y-143527112D01*
X151802733Y-143524832D01*
X151652734Y-143415851D01*
X151652729Y-143415848D01*
X151479807Y-143338857D01*
X151479802Y-143338855D01*
X151334001Y-143307865D01*
X151294646Y-143299500D01*
X151105354Y-143299500D01*
X151072897Y-143306398D01*
X150920197Y-143338855D01*
X150920192Y-143338857D01*
X150747270Y-143415848D01*
X150747265Y-143415851D01*
X150733548Y-143425818D01*
X150667742Y-143449298D01*
X150660663Y-143449500D01*
X146662229Y-143449500D01*
X146595190Y-143429815D01*
X146574548Y-143413181D01*
X146212770Y-143051402D01*
X146182521Y-143002041D01*
X146127179Y-142831716D01*
X146032533Y-142667784D01*
X145905871Y-142527112D01*
X145878181Y-142506994D01*
X145752734Y-142415851D01*
X145752729Y-142415848D01*
X145579807Y-142338857D01*
X145579802Y-142338855D01*
X145434001Y-142307865D01*
X145394646Y-142299500D01*
X145205354Y-142299500D01*
X145172897Y-142306398D01*
X145020197Y-142338855D01*
X145020192Y-142338857D01*
X144847270Y-142415848D01*
X144847265Y-142415851D01*
X144694129Y-142527111D01*
X144567466Y-142667785D01*
X144472821Y-142831715D01*
X144472818Y-142831722D01*
X144443688Y-142921377D01*
X144414326Y-143011744D01*
X144394540Y-143200000D01*
X144414326Y-143388256D01*
X144414327Y-143388259D01*
X144472818Y-143568277D01*
X144472821Y-143568284D01*
X144567467Y-143732216D01*
X144622224Y-143793030D01*
X144652453Y-143856019D01*
X144643828Y-143925354D01*
X144599087Y-143979020D01*
X144532434Y-143999978D01*
X144530073Y-144000000D01*
X114524831Y-144000000D01*
X114457792Y-143980315D01*
X114412037Y-143927511D01*
X114402093Y-143858353D01*
X114431118Y-143794797D01*
X114435249Y-143790800D01*
X114435349Y-143788903D01*
X112940698Y-142294252D01*
X113042330Y-142220412D01*
X113220412Y-142042330D01*
X113294252Y-141940698D01*
X114788902Y-143435348D01*
X114997474Y-143177784D01*
X114997484Y-143177771D01*
X115208689Y-142852543D01*
X115384755Y-142506994D01*
X115523737Y-142144936D01*
X115624112Y-141770330D01*
X115624113Y-141770323D01*
X115684780Y-141387287D01*
X115698134Y-141132500D01*
X116725172Y-141132500D01*
X116744462Y-141426812D01*
X116744464Y-141426824D01*
X116802001Y-141716084D01*
X116802005Y-141716099D01*
X116896812Y-141995388D01*
X117027258Y-142259906D01*
X117027265Y-142259919D01*
X117191123Y-142505149D01*
X117220405Y-142538540D01*
X117997173Y-141761771D01*
X118091388Y-141891446D01*
X118221054Y-142021112D01*
X118350727Y-142115325D01*
X117573958Y-142892093D01*
X117607350Y-142921376D01*
X117852580Y-143085234D01*
X117852593Y-143085241D01*
X118117111Y-143215687D01*
X118396400Y-143310494D01*
X118396415Y-143310498D01*
X118685675Y-143368035D01*
X118685687Y-143368037D01*
X118980000Y-143387327D01*
X119274312Y-143368037D01*
X119274324Y-143368035D01*
X119563584Y-143310498D01*
X119563599Y-143310494D01*
X119842888Y-143215687D01*
X120107406Y-143085241D01*
X120107419Y-143085234D01*
X120352648Y-142921377D01*
X120386039Y-142892093D01*
X119609271Y-142115325D01*
X119738946Y-142021112D01*
X119868612Y-141891446D01*
X119962825Y-141761771D01*
X120739593Y-142538539D01*
X120768877Y-142505148D01*
X120932734Y-142259919D01*
X120932741Y-142259906D01*
X121063187Y-141995388D01*
X121157994Y-141716099D01*
X121157998Y-141716084D01*
X121215535Y-141426824D01*
X121215537Y-141426812D01*
X121234827Y-141132500D01*
X128765172Y-141132500D01*
X128784462Y-141426812D01*
X128784464Y-141426824D01*
X128842001Y-141716084D01*
X128842005Y-141716099D01*
X128936812Y-141995388D01*
X129067258Y-142259906D01*
X129067265Y-142259919D01*
X129231123Y-142505149D01*
X129260405Y-142538540D01*
X130037173Y-141761771D01*
X130131388Y-141891446D01*
X130261054Y-142021112D01*
X130390727Y-142115325D01*
X129613958Y-142892093D01*
X129647350Y-142921376D01*
X129892580Y-143085234D01*
X129892593Y-143085241D01*
X130157111Y-143215687D01*
X130436400Y-143310494D01*
X130436415Y-143310498D01*
X130725675Y-143368035D01*
X130725687Y-143368037D01*
X131020000Y-143387327D01*
X131314312Y-143368037D01*
X131314324Y-143368035D01*
X131603584Y-143310498D01*
X131603599Y-143310494D01*
X131882888Y-143215687D01*
X132147406Y-143085241D01*
X132147419Y-143085234D01*
X132392648Y-142921377D01*
X132426039Y-142892093D01*
X131649271Y-142115325D01*
X131778946Y-142021112D01*
X131908612Y-141891446D01*
X132002825Y-141761771D01*
X132779593Y-142538539D01*
X132808877Y-142505148D01*
X132972734Y-142259919D01*
X132972741Y-142259906D01*
X133103187Y-141995388D01*
X133197994Y-141716099D01*
X133197998Y-141716084D01*
X133255535Y-141426824D01*
X133255537Y-141426812D01*
X133274827Y-141132500D01*
X133255537Y-140838187D01*
X133255535Y-140838175D01*
X133197998Y-140548915D01*
X133197994Y-140548900D01*
X133103187Y-140269611D01*
X132972741Y-140005093D01*
X132972734Y-140005080D01*
X132808876Y-139759850D01*
X132779593Y-139726458D01*
X132002825Y-140503226D01*
X131908612Y-140373554D01*
X131778946Y-140243888D01*
X131649271Y-140149674D01*
X132426040Y-139372905D01*
X132392649Y-139343623D01*
X132147419Y-139179765D01*
X132147406Y-139179758D01*
X131882888Y-139049312D01*
X131603599Y-138954505D01*
X131603584Y-138954501D01*
X131314324Y-138896964D01*
X131314312Y-138896962D01*
X131020000Y-138877672D01*
X130725687Y-138896962D01*
X130725675Y-138896964D01*
X130436415Y-138954501D01*
X130436400Y-138954505D01*
X130157111Y-139049312D01*
X129892593Y-139179758D01*
X129892580Y-139179765D01*
X129647346Y-139343626D01*
X129647339Y-139343631D01*
X129613959Y-139372903D01*
X129613959Y-139372905D01*
X130390728Y-140149674D01*
X130261054Y-140243888D01*
X130131388Y-140373554D01*
X130037174Y-140503227D01*
X129260405Y-139726459D01*
X129260403Y-139726459D01*
X129231131Y-139759839D01*
X129231126Y-139759846D01*
X129067265Y-140005080D01*
X129067258Y-140005093D01*
X128936812Y-140269611D01*
X128842005Y-140548900D01*
X128842001Y-140548915D01*
X128784464Y-140838175D01*
X128784462Y-140838187D01*
X128765172Y-141132500D01*
X121234827Y-141132500D01*
X121215537Y-140838187D01*
X121215535Y-140838175D01*
X121157998Y-140548915D01*
X121157994Y-140548900D01*
X121063187Y-140269611D01*
X120932741Y-140005093D01*
X120932734Y-140005080D01*
X120768876Y-139759850D01*
X120739593Y-139726458D01*
X119962825Y-140503226D01*
X119868612Y-140373554D01*
X119738946Y-140243888D01*
X119609271Y-140149674D01*
X120386040Y-139372905D01*
X120352649Y-139343623D01*
X120107419Y-139179765D01*
X120107406Y-139179758D01*
X119842888Y-139049312D01*
X119563599Y-138954505D01*
X119563584Y-138954501D01*
X119274324Y-138896964D01*
X119274312Y-138896962D01*
X118980000Y-138877672D01*
X118685687Y-138896962D01*
X118685675Y-138896964D01*
X118396415Y-138954501D01*
X118396400Y-138954505D01*
X118117111Y-139049312D01*
X117852593Y-139179758D01*
X117852580Y-139179765D01*
X117607346Y-139343626D01*
X117607339Y-139343631D01*
X117573959Y-139372903D01*
X117573959Y-139372905D01*
X118350728Y-140149674D01*
X118221054Y-140243888D01*
X118091388Y-140373554D01*
X117997174Y-140503228D01*
X117220405Y-139726459D01*
X117220403Y-139726459D01*
X117191131Y-139759839D01*
X117191126Y-139759846D01*
X117027265Y-140005080D01*
X117027258Y-140005093D01*
X116896812Y-140269611D01*
X116802005Y-140548900D01*
X116802001Y-140548915D01*
X116744464Y-140838175D01*
X116744462Y-140838187D01*
X116725172Y-141132500D01*
X115698134Y-141132500D01*
X115705078Y-141000000D01*
X115705078Y-140999999D01*
X115684780Y-140612712D01*
X115624113Y-140229676D01*
X115624112Y-140229669D01*
X115523737Y-139855063D01*
X115384755Y-139493005D01*
X115208689Y-139147456D01*
X114997476Y-138822216D01*
X114997475Y-138822214D01*
X114788902Y-138564650D01*
X113294251Y-140059301D01*
X113220412Y-139957670D01*
X113042330Y-139779588D01*
X112940698Y-139705748D01*
X114435349Y-138211096D01*
X114177785Y-138002525D01*
X114177783Y-138002523D01*
X113852543Y-137791310D01*
X113506994Y-137615244D01*
X113144936Y-137476262D01*
X112770330Y-137375887D01*
X112770323Y-137375886D01*
X112387287Y-137315219D01*
X112000001Y-137294922D01*
X111999999Y-137294922D01*
X111612712Y-137315219D01*
X111229676Y-137375886D01*
X111229669Y-137375887D01*
X110855063Y-137476262D01*
X110493005Y-137615244D01*
X110147456Y-137791310D01*
X109822206Y-138002531D01*
X109564649Y-138211095D01*
X109564649Y-138211096D01*
X111059301Y-139705748D01*
X110957670Y-139779588D01*
X110779588Y-139957670D01*
X110705748Y-140059301D01*
X109211096Y-138564649D01*
X109203193Y-138565063D01*
X109162878Y-138592913D01*
X109093047Y-138595240D01*
X109033044Y-138559444D01*
X109001918Y-138496890D01*
X109000000Y-138475165D01*
X109000000Y-136422499D01*
X122394341Y-136422499D01*
X122394341Y-136422500D01*
X122414936Y-136657903D01*
X122414938Y-136657913D01*
X122476094Y-136886155D01*
X122476096Y-136886159D01*
X122476097Y-136886163D01*
X122481959Y-136898733D01*
X122575965Y-137100330D01*
X122575967Y-137100334D01*
X122711501Y-137293895D01*
X122711506Y-137293902D01*
X122752422Y-137334818D01*
X122785907Y-137396141D01*
X122780923Y-137465833D01*
X122752423Y-137510179D01*
X122711506Y-137551096D01*
X122575965Y-137744669D01*
X122575964Y-137744671D01*
X122476098Y-137958835D01*
X122476094Y-137958844D01*
X122414938Y-138187086D01*
X122414936Y-138187096D01*
X122394341Y-138422499D01*
X122394341Y-138422500D01*
X122414936Y-138657903D01*
X122414938Y-138657913D01*
X122476094Y-138886155D01*
X122476096Y-138886159D01*
X122476097Y-138886163D01*
X122552175Y-139049312D01*
X122575965Y-139100330D01*
X122575967Y-139100334D01*
X122684281Y-139255021D01*
X122711505Y-139293901D01*
X122878599Y-139460995D01*
X122924314Y-139493005D01*
X123072165Y-139596532D01*
X123072167Y-139596533D01*
X123072170Y-139596535D01*
X123286337Y-139696403D01*
X123514592Y-139757563D01*
X123702918Y-139774039D01*
X123749999Y-139778159D01*
X123750000Y-139778159D01*
X123750001Y-139778159D01*
X123789234Y-139774726D01*
X123985408Y-139757563D01*
X124213663Y-139696403D01*
X124427830Y-139596535D01*
X124621401Y-139460995D01*
X124788495Y-139293901D01*
X124898731Y-139136466D01*
X124953306Y-139092843D01*
X125022805Y-139085649D01*
X125085160Y-139117172D01*
X125101880Y-139136467D01*
X125135073Y-139183872D01*
X125799697Y-138519248D01*
X125821349Y-138600053D01*
X125881909Y-138704946D01*
X125967554Y-138790591D01*
X126072447Y-138851151D01*
X126153250Y-138872802D01*
X125488626Y-139537426D01*
X125572417Y-139596098D01*
X125572421Y-139596100D01*
X125786507Y-139695929D01*
X125786516Y-139695933D01*
X126014673Y-139757067D01*
X126014684Y-139757069D01*
X126249998Y-139777657D01*
X126250002Y-139777657D01*
X126485315Y-139757069D01*
X126485326Y-139757067D01*
X126713483Y-139695933D01*
X126713492Y-139695929D01*
X126927580Y-139596099D01*
X127011371Y-139537425D01*
X126346748Y-138872802D01*
X126427553Y-138851151D01*
X126532446Y-138790591D01*
X126618091Y-138704946D01*
X126678651Y-138600053D01*
X126700302Y-138519248D01*
X127364925Y-139183871D01*
X127423599Y-139100080D01*
X127523429Y-138885992D01*
X127523433Y-138885983D01*
X127584567Y-138657826D01*
X127584569Y-138657815D01*
X127605157Y-138422500D01*
X127605157Y-138422498D01*
X127584569Y-138187184D01*
X127584567Y-138187173D01*
X127523433Y-137959016D01*
X127523430Y-137959007D01*
X127434557Y-137768420D01*
X127424065Y-137699343D01*
X127452585Y-137635559D01*
X127456987Y-137630792D01*
X127457544Y-137630046D01*
X127457546Y-137630046D01*
X127543796Y-137514831D01*
X127594091Y-137379983D01*
X127600500Y-137320373D01*
X127600500Y-137000000D01*
X136294540Y-137000000D01*
X136314326Y-137188256D01*
X136314327Y-137188259D01*
X136372818Y-137368277D01*
X136372821Y-137368284D01*
X136467467Y-137532216D01*
X136560518Y-137635559D01*
X136594129Y-137672888D01*
X136747265Y-137784148D01*
X136747270Y-137784151D01*
X136920192Y-137861142D01*
X136920197Y-137861144D01*
X137105354Y-137900500D01*
X137105355Y-137900500D01*
X137294644Y-137900500D01*
X137294646Y-137900500D01*
X137479803Y-137861144D01*
X137652730Y-137784151D01*
X137805871Y-137672888D01*
X137932533Y-137532216D01*
X138027179Y-137368284D01*
X138085674Y-137188256D01*
X138103321Y-137020346D01*
X138129904Y-136955735D01*
X138138948Y-136945641D01*
X138185858Y-136898733D01*
X138216584Y-136852746D01*
X138237254Y-136821813D01*
X138237256Y-136821810D01*
X138244106Y-136811557D01*
X138254312Y-136796285D01*
X138292656Y-136703714D01*
X138301463Y-136682452D01*
X138313481Y-136622029D01*
X138325500Y-136561607D01*
X138325500Y-136509454D01*
X138345185Y-136442415D01*
X138397989Y-136396660D01*
X138467147Y-136386716D01*
X138530703Y-136415741D01*
X138537181Y-136421773D01*
X138605586Y-136490178D01*
X138605608Y-136490198D01*
X139414143Y-137298733D01*
X140942545Y-138827136D01*
X140976030Y-138888459D01*
X140971046Y-138958151D01*
X140962252Y-138976816D01*
X140872820Y-139131718D01*
X140872818Y-139131722D01*
X140820123Y-139293902D01*
X140814326Y-139311744D01*
X140794540Y-139500000D01*
X140814326Y-139688256D01*
X140814327Y-139688259D01*
X140872818Y-139868277D01*
X140872821Y-139868284D01*
X140967467Y-140032216D01*
X141094129Y-140172888D01*
X141247265Y-140284148D01*
X141247270Y-140284151D01*
X141420192Y-140361142D01*
X141420197Y-140361144D01*
X141605354Y-140400500D01*
X141605355Y-140400500D01*
X141794644Y-140400500D01*
X141794646Y-140400500D01*
X141979803Y-140361144D01*
X142152730Y-140284151D01*
X142305871Y-140172888D01*
X142432533Y-140032216D01*
X142527179Y-139868284D01*
X142585674Y-139688256D01*
X142605460Y-139500000D01*
X142585674Y-139311744D01*
X142527179Y-139131716D01*
X142432533Y-138967784D01*
X142420573Y-138954501D01*
X142357350Y-138884284D01*
X142327120Y-138821292D01*
X142325500Y-138801312D01*
X142325500Y-138638393D01*
X142325499Y-138638389D01*
X142316916Y-138595240D01*
X142301463Y-138517548D01*
X142263020Y-138424739D01*
X142254312Y-138403716D01*
X142254307Y-138403707D01*
X142185859Y-138301268D01*
X142184510Y-138299919D01*
X142098733Y-138214142D01*
X142098732Y-138214141D01*
X140298733Y-136414143D01*
X139661819Y-135777229D01*
X139628334Y-135715906D01*
X139625500Y-135689548D01*
X139625500Y-134698687D01*
X139645185Y-134631648D01*
X139657350Y-134615715D01*
X139675891Y-134595122D01*
X139732533Y-134532216D01*
X139827179Y-134368284D01*
X139885674Y-134188256D01*
X139905460Y-134000000D01*
X139885674Y-133811744D01*
X139827179Y-133631716D01*
X139732533Y-133467784D01*
X139605871Y-133327112D01*
X139605870Y-133327111D01*
X139452734Y-133215851D01*
X139452729Y-133215848D01*
X139279807Y-133138857D01*
X139279802Y-133138855D01*
X139134001Y-133107865D01*
X139094646Y-133099500D01*
X138905354Y-133099500D01*
X138872897Y-133106398D01*
X138720197Y-133138855D01*
X138720192Y-133138857D01*
X138547270Y-133215848D01*
X138547265Y-133215851D01*
X138394129Y-133327111D01*
X138394128Y-133327112D01*
X138325068Y-133403810D01*
X138265581Y-133440458D01*
X138195724Y-133439127D01*
X138160034Y-133421155D01*
X138152734Y-133415851D01*
X138152729Y-133415848D01*
X137979807Y-133338857D01*
X137979802Y-133338855D01*
X137834001Y-133307865D01*
X137794646Y-133299500D01*
X137605354Y-133299500D01*
X137572897Y-133306398D01*
X137420197Y-133338855D01*
X137420192Y-133338857D01*
X137247270Y-133415848D01*
X137247265Y-133415851D01*
X137094129Y-133527111D01*
X136967466Y-133667785D01*
X136872821Y-133831715D01*
X136872818Y-133831722D01*
X136818142Y-134000000D01*
X136814326Y-134011744D01*
X136794540Y-134200000D01*
X136814326Y-134388256D01*
X136814327Y-134388259D01*
X136872818Y-134568277D01*
X136872821Y-134568284D01*
X136967467Y-134732216D01*
X137010772Y-134780310D01*
X137042650Y-134815715D01*
X137072880Y-134878706D01*
X137074500Y-134898687D01*
X137074500Y-136005644D01*
X137054815Y-136072683D01*
X137002011Y-136118438D01*
X136976282Y-136126934D01*
X136920196Y-136138856D01*
X136920192Y-136138857D01*
X136747270Y-136215848D01*
X136747265Y-136215851D01*
X136594129Y-136327111D01*
X136467466Y-136467785D01*
X136372821Y-136631715D01*
X136372818Y-136631722D01*
X136349427Y-136703714D01*
X136314326Y-136811744D01*
X136294540Y-137000000D01*
X127600500Y-137000000D01*
X127600499Y-135524628D01*
X127594091Y-135465017D01*
X127543796Y-135330169D01*
X127543795Y-135330168D01*
X127543793Y-135330164D01*
X127457547Y-135214955D01*
X127457544Y-135214952D01*
X127342335Y-135128706D01*
X127342328Y-135128702D01*
X127207482Y-135078408D01*
X127207483Y-135078408D01*
X127147883Y-135072001D01*
X127147881Y-135072000D01*
X127147873Y-135072000D01*
X127147864Y-135072000D01*
X125352129Y-135072000D01*
X125352123Y-135072001D01*
X125292516Y-135078408D01*
X125157671Y-135128702D01*
X125157664Y-135128706D01*
X125042455Y-135214952D01*
X125042452Y-135214955D01*
X124956206Y-135330164D01*
X124956202Y-135330171D01*
X124918056Y-135432448D01*
X124876185Y-135488382D01*
X124810721Y-135512799D01*
X124742448Y-135497947D01*
X124714193Y-135476797D01*
X124669844Y-135432448D01*
X124621401Y-135384005D01*
X124621397Y-135384002D01*
X124621396Y-135384001D01*
X124427834Y-135248467D01*
X124427830Y-135248465D01*
X124427828Y-135248464D01*
X124213663Y-135148597D01*
X124213659Y-135148596D01*
X124213655Y-135148594D01*
X123985413Y-135087438D01*
X123985403Y-135087436D01*
X123750001Y-135066841D01*
X123749999Y-135066841D01*
X123514596Y-135087436D01*
X123514586Y-135087438D01*
X123286344Y-135148594D01*
X123286335Y-135148598D01*
X123072171Y-135248464D01*
X123072169Y-135248465D01*
X122878597Y-135384005D01*
X122711505Y-135551097D01*
X122575965Y-135744669D01*
X122575964Y-135744671D01*
X122476098Y-135958835D01*
X122476094Y-135958844D01*
X122414938Y-136187086D01*
X122414936Y-136187096D01*
X122394341Y-136422499D01*
X109000000Y-136422499D01*
X109000000Y-121602135D01*
X123749500Y-121602135D01*
X123749500Y-123197870D01*
X123749501Y-123197876D01*
X123755908Y-123257483D01*
X123806202Y-123392328D01*
X123806206Y-123392335D01*
X123892452Y-123507544D01*
X123892455Y-123507547D01*
X124007664Y-123593793D01*
X124007671Y-123593797D01*
X124142517Y-123644091D01*
X124142516Y-123644091D01*
X124149444Y-123644835D01*
X124202127Y-123650500D01*
X125797872Y-123650499D01*
X125857483Y-123644091D01*
X125992331Y-123593796D01*
X126107546Y-123507546D01*
X126193796Y-123392331D01*
X126244091Y-123257483D01*
X126250500Y-123197873D01*
X126250499Y-121602128D01*
X126244091Y-121542517D01*
X126236726Y-121522771D01*
X126193797Y-121407671D01*
X126193793Y-121407664D01*
X126107547Y-121292455D01*
X126107544Y-121292452D01*
X125992335Y-121206206D01*
X125992328Y-121206202D01*
X125857482Y-121155908D01*
X125857483Y-121155908D01*
X125797883Y-121149501D01*
X125797881Y-121149500D01*
X125797873Y-121149500D01*
X125797864Y-121149500D01*
X124202129Y-121149500D01*
X124202123Y-121149501D01*
X124142516Y-121155908D01*
X124007671Y-121206202D01*
X124007664Y-121206206D01*
X123892455Y-121292452D01*
X123892452Y-121292455D01*
X123806206Y-121407664D01*
X123806202Y-121407671D01*
X123755908Y-121542517D01*
X123749501Y-121602116D01*
X123749501Y-121602123D01*
X123749500Y-121602135D01*
X109000000Y-121602135D01*
X109000000Y-116460995D01*
X116582561Y-116460995D01*
X116582561Y-116461004D01*
X116602888Y-116732260D01*
X116636313Y-116878706D01*
X116663420Y-116997466D01*
X116762802Y-117250685D01*
X116898813Y-117486264D01*
X117020557Y-117638926D01*
X117068420Y-117698945D01*
X117158420Y-117782452D01*
X117267824Y-117883964D01*
X117492581Y-118037200D01*
X117737665Y-118155227D01*
X117997603Y-118235407D01*
X117997604Y-118235407D01*
X117997607Y-118235408D01*
X118266580Y-118275949D01*
X118266585Y-118275949D01*
X118266588Y-118275950D01*
X118266589Y-118275950D01*
X118538611Y-118275950D01*
X118538612Y-118275950D01*
X118538619Y-118275949D01*
X118807592Y-118235408D01*
X118807593Y-118235407D01*
X118807597Y-118235407D01*
X119067535Y-118155227D01*
X119312620Y-118037200D01*
X119537376Y-117883964D01*
X119718561Y-117715849D01*
X119736779Y-117698945D01*
X119736779Y-117698943D01*
X119736783Y-117698941D01*
X119906387Y-117486264D01*
X120042398Y-117250685D01*
X120141780Y-116997466D01*
X120202311Y-116732263D01*
X120217302Y-116532216D01*
X120222639Y-116461004D01*
X120222639Y-116460995D01*
X121179961Y-116460995D01*
X121179961Y-116461004D01*
X121200288Y-116732260D01*
X121233713Y-116878706D01*
X121260820Y-116997466D01*
X121360202Y-117250685D01*
X121496213Y-117486264D01*
X121617957Y-117638926D01*
X121665820Y-117698945D01*
X121755820Y-117782452D01*
X121865224Y-117883964D01*
X122089981Y-118037200D01*
X122335065Y-118155227D01*
X122595003Y-118235407D01*
X122595004Y-118235407D01*
X122595007Y-118235408D01*
X122863980Y-118275949D01*
X122863985Y-118275949D01*
X122863988Y-118275950D01*
X122863989Y-118275950D01*
X123136011Y-118275950D01*
X123136012Y-118275950D01*
X123136019Y-118275949D01*
X123404992Y-118235408D01*
X123404993Y-118235407D01*
X123404997Y-118235407D01*
X123664935Y-118155227D01*
X123910020Y-118037200D01*
X124134776Y-117883964D01*
X124315961Y-117715849D01*
X124334179Y-117698945D01*
X124334179Y-117698943D01*
X124334183Y-117698941D01*
X124503787Y-117486264D01*
X124639798Y-117250685D01*
X124739180Y-116997466D01*
X124799711Y-116732263D01*
X124814702Y-116532216D01*
X124820039Y-116461004D01*
X124820039Y-116460995D01*
X124799711Y-116189739D01*
X124799373Y-116188259D01*
X124739180Y-115924534D01*
X124639798Y-115671315D01*
X124503787Y-115435736D01*
X124334183Y-115223059D01*
X124334182Y-115223058D01*
X124334179Y-115223054D01*
X124200140Y-115098685D01*
X125782450Y-115098685D01*
X125782450Y-117823320D01*
X125782451Y-117823326D01*
X125788858Y-117882933D01*
X125839152Y-118017778D01*
X125839156Y-118017785D01*
X125925402Y-118132994D01*
X125925405Y-118132997D01*
X126040614Y-118219243D01*
X126040621Y-118219247D01*
X126175467Y-118269541D01*
X126175466Y-118269541D01*
X126182394Y-118270285D01*
X126235077Y-118275950D01*
X128959722Y-118275949D01*
X129019333Y-118269541D01*
X129154181Y-118219246D01*
X129269396Y-118132996D01*
X129355646Y-118017781D01*
X129405941Y-117882933D01*
X129412350Y-117823323D01*
X129412349Y-115098678D01*
X129405941Y-115039067D01*
X129405556Y-115038036D01*
X129355647Y-114904221D01*
X129355643Y-114904214D01*
X129269397Y-114789005D01*
X129269394Y-114789002D01*
X129154185Y-114702756D01*
X129154178Y-114702752D01*
X129019332Y-114652458D01*
X129019333Y-114652458D01*
X128959733Y-114646051D01*
X128959731Y-114646050D01*
X128959723Y-114646050D01*
X128959714Y-114646050D01*
X126235079Y-114646050D01*
X126235073Y-114646051D01*
X126175466Y-114652458D01*
X126040621Y-114702752D01*
X126040614Y-114702756D01*
X125925405Y-114789002D01*
X125925402Y-114789005D01*
X125839156Y-114904214D01*
X125839152Y-114904221D01*
X125788858Y-115039067D01*
X125785206Y-115073040D01*
X125782451Y-115098673D01*
X125782450Y-115098685D01*
X124200140Y-115098685D01*
X124134776Y-115038036D01*
X123938495Y-114904214D01*
X123910020Y-114884800D01*
X123910016Y-114884798D01*
X123910015Y-114884797D01*
X123664935Y-114766773D01*
X123404998Y-114686593D01*
X123404992Y-114686591D01*
X123136019Y-114646050D01*
X123136012Y-114646050D01*
X122863988Y-114646050D01*
X122863980Y-114646050D01*
X122595007Y-114686591D01*
X122595001Y-114686593D01*
X122434641Y-114736057D01*
X122335065Y-114766773D01*
X122335063Y-114766774D01*
X122335059Y-114766775D01*
X122089984Y-114884798D01*
X122089980Y-114884800D01*
X121865226Y-115038034D01*
X121665820Y-115223054D01*
X121496213Y-115435736D01*
X121360203Y-115671312D01*
X121360201Y-115671316D01*
X121260820Y-115924533D01*
X121260818Y-115924540D01*
X121200288Y-116189739D01*
X121179961Y-116460995D01*
X120222639Y-116460995D01*
X120202311Y-116189739D01*
X120201973Y-116188259D01*
X120141780Y-115924534D01*
X120042398Y-115671315D01*
X119906387Y-115435736D01*
X119736783Y-115223059D01*
X119736782Y-115223058D01*
X119736779Y-115223054D01*
X119537376Y-115038036D01*
X119341095Y-114904214D01*
X119312620Y-114884800D01*
X119312616Y-114884798D01*
X119312615Y-114884797D01*
X119067535Y-114766773D01*
X118807598Y-114686593D01*
X118807592Y-114686591D01*
X118538619Y-114646050D01*
X118538612Y-114646050D01*
X118266588Y-114646050D01*
X118266580Y-114646050D01*
X117997607Y-114686591D01*
X117997601Y-114686593D01*
X117837241Y-114736057D01*
X117737665Y-114766773D01*
X117737663Y-114766774D01*
X117737659Y-114766775D01*
X117492584Y-114884798D01*
X117492580Y-114884800D01*
X117267826Y-115038034D01*
X117068420Y-115223054D01*
X116898813Y-115435736D01*
X116762803Y-115671312D01*
X116762801Y-115671316D01*
X116663420Y-115924533D01*
X116663418Y-115924540D01*
X116602888Y-116189739D01*
X116582561Y-116460995D01*
X109000000Y-116460995D01*
X109000000Y-109907795D01*
X116582561Y-109907795D01*
X116582561Y-109907804D01*
X116602888Y-110179060D01*
X116663418Y-110444259D01*
X116663420Y-110444266D01*
X116758238Y-110685858D01*
X116762802Y-110697485D01*
X116898813Y-110933064D01*
X116961190Y-111011282D01*
X117068420Y-111145745D01*
X117183218Y-111252261D01*
X117267824Y-111330764D01*
X117492581Y-111484000D01*
X117737665Y-111602027D01*
X117997603Y-111682207D01*
X117997604Y-111682207D01*
X117997607Y-111682208D01*
X118266580Y-111722749D01*
X118266585Y-111722749D01*
X118266588Y-111722750D01*
X118266589Y-111722750D01*
X118538611Y-111722750D01*
X118538612Y-111722750D01*
X118538619Y-111722749D01*
X118807592Y-111682208D01*
X118807593Y-111682207D01*
X118807597Y-111682207D01*
X119067535Y-111602027D01*
X119312620Y-111484000D01*
X119537376Y-111330764D01*
X119736783Y-111145741D01*
X119906387Y-110933064D01*
X120042398Y-110697485D01*
X120141780Y-110444266D01*
X120202311Y-110179063D01*
X120213276Y-110032746D01*
X120222639Y-109907804D01*
X120222639Y-109907795D01*
X121179961Y-109907795D01*
X121179961Y-109907804D01*
X121200288Y-110179060D01*
X121260818Y-110444259D01*
X121260820Y-110444266D01*
X121355638Y-110685858D01*
X121360202Y-110697485D01*
X121496213Y-110933064D01*
X121558590Y-111011282D01*
X121665820Y-111145745D01*
X121780618Y-111252261D01*
X121865224Y-111330764D01*
X122089981Y-111484000D01*
X122335065Y-111602027D01*
X122595003Y-111682207D01*
X122595004Y-111682207D01*
X122595007Y-111682208D01*
X122863980Y-111722749D01*
X122863985Y-111722749D01*
X122863988Y-111722750D01*
X122863989Y-111722750D01*
X123136011Y-111722750D01*
X123136012Y-111722750D01*
X123136019Y-111722749D01*
X123404992Y-111682208D01*
X123404993Y-111682207D01*
X123404997Y-111682207D01*
X123664935Y-111602027D01*
X123910020Y-111484000D01*
X124134776Y-111330764D01*
X124334183Y-111145741D01*
X124503787Y-110933064D01*
X124639798Y-110697485D01*
X124739180Y-110444266D01*
X124799711Y-110179063D01*
X124810676Y-110032746D01*
X124820039Y-109907804D01*
X124820039Y-109907795D01*
X125777361Y-109907795D01*
X125777361Y-109907804D01*
X125797688Y-110179060D01*
X125858218Y-110444259D01*
X125858220Y-110444266D01*
X125953038Y-110685858D01*
X125957602Y-110697485D01*
X126093613Y-110933064D01*
X126155990Y-111011282D01*
X126263220Y-111145745D01*
X126378018Y-111252261D01*
X126462624Y-111330764D01*
X126687381Y-111484000D01*
X126932465Y-111602027D01*
X127192403Y-111682207D01*
X127192404Y-111682207D01*
X127192407Y-111682208D01*
X127461380Y-111722749D01*
X127461385Y-111722749D01*
X127461388Y-111722750D01*
X127461389Y-111722750D01*
X127733411Y-111722750D01*
X127733412Y-111722750D01*
X127733419Y-111722749D01*
X128002392Y-111682208D01*
X128002393Y-111682207D01*
X128002397Y-111682207D01*
X128262335Y-111602027D01*
X128507420Y-111484000D01*
X128732176Y-111330764D01*
X128931583Y-111145741D01*
X129101187Y-110933064D01*
X129237198Y-110697485D01*
X129336580Y-110444266D01*
X129397111Y-110179063D01*
X129408076Y-110032746D01*
X129417439Y-109907804D01*
X129417439Y-109907795D01*
X129397111Y-109636539D01*
X129396124Y-109632216D01*
X129336580Y-109371334D01*
X129237198Y-109118115D01*
X129101187Y-108882536D01*
X128931583Y-108669859D01*
X128931582Y-108669858D01*
X128931579Y-108669854D01*
X128732176Y-108484836D01*
X128695119Y-108459571D01*
X128507420Y-108331600D01*
X128507416Y-108331598D01*
X128507415Y-108331597D01*
X128262335Y-108213573D01*
X128002398Y-108133393D01*
X128002392Y-108133391D01*
X127733419Y-108092850D01*
X127733412Y-108092850D01*
X127461388Y-108092850D01*
X127461380Y-108092850D01*
X127192407Y-108133391D01*
X127192401Y-108133393D01*
X127032041Y-108182857D01*
X126932465Y-108213573D01*
X126932463Y-108213574D01*
X126932459Y-108213575D01*
X126687384Y-108331598D01*
X126687380Y-108331600D01*
X126462626Y-108484834D01*
X126263220Y-108669854D01*
X126093613Y-108882536D01*
X125957603Y-109118112D01*
X125957601Y-109118116D01*
X125858220Y-109371333D01*
X125858218Y-109371340D01*
X125797688Y-109636539D01*
X125777361Y-109907795D01*
X124820039Y-109907795D01*
X124799711Y-109636539D01*
X124798724Y-109632216D01*
X124739180Y-109371334D01*
X124639798Y-109118115D01*
X124503787Y-108882536D01*
X124334183Y-108669859D01*
X124334182Y-108669858D01*
X124334179Y-108669854D01*
X124134776Y-108484836D01*
X124097719Y-108459571D01*
X123910020Y-108331600D01*
X123910016Y-108331598D01*
X123910015Y-108331597D01*
X123664935Y-108213573D01*
X123404998Y-108133393D01*
X123404992Y-108133391D01*
X123136019Y-108092850D01*
X123136012Y-108092850D01*
X122863988Y-108092850D01*
X122863980Y-108092850D01*
X122595007Y-108133391D01*
X122595001Y-108133393D01*
X122434641Y-108182857D01*
X122335065Y-108213573D01*
X122335063Y-108213574D01*
X122335059Y-108213575D01*
X122089984Y-108331598D01*
X122089980Y-108331600D01*
X121865226Y-108484834D01*
X121665820Y-108669854D01*
X121496213Y-108882536D01*
X121360203Y-109118112D01*
X121360201Y-109118116D01*
X121260820Y-109371333D01*
X121260818Y-109371340D01*
X121200288Y-109636539D01*
X121179961Y-109907795D01*
X120222639Y-109907795D01*
X120202311Y-109636539D01*
X120201324Y-109632216D01*
X120141780Y-109371334D01*
X120042398Y-109118115D01*
X119906387Y-108882536D01*
X119736783Y-108669859D01*
X119736782Y-108669858D01*
X119736779Y-108669854D01*
X119537376Y-108484836D01*
X119500319Y-108459571D01*
X119312620Y-108331600D01*
X119312616Y-108331598D01*
X119312615Y-108331597D01*
X119067535Y-108213573D01*
X118807598Y-108133393D01*
X118807592Y-108133391D01*
X118538619Y-108092850D01*
X118538612Y-108092850D01*
X118266588Y-108092850D01*
X118266580Y-108092850D01*
X117997607Y-108133391D01*
X117997601Y-108133393D01*
X117837241Y-108182857D01*
X117737665Y-108213573D01*
X117737663Y-108213574D01*
X117737659Y-108213575D01*
X117492584Y-108331598D01*
X117492580Y-108331600D01*
X117267826Y-108484834D01*
X117068420Y-108669854D01*
X116898813Y-108882536D01*
X116762803Y-109118112D01*
X116762801Y-109118116D01*
X116663420Y-109371333D01*
X116663418Y-109371340D01*
X116602888Y-109636539D01*
X116582561Y-109907795D01*
X109000000Y-109907795D01*
X109000000Y-105538995D01*
X116582561Y-105538995D01*
X116582561Y-105539004D01*
X116602888Y-105810260D01*
X116663418Y-106075459D01*
X116663420Y-106075466D01*
X116762801Y-106328683D01*
X116762803Y-106328687D01*
X116791544Y-106378468D01*
X116898813Y-106564264D01*
X117017149Y-106712653D01*
X117068420Y-106776945D01*
X117121379Y-106826083D01*
X117267824Y-106961964D01*
X117492581Y-107115200D01*
X117737665Y-107233227D01*
X117997603Y-107313407D01*
X117997604Y-107313407D01*
X117997607Y-107313408D01*
X118266580Y-107353949D01*
X118266585Y-107353949D01*
X118266588Y-107353950D01*
X118266589Y-107353950D01*
X118538611Y-107353950D01*
X118538612Y-107353950D01*
X118538619Y-107353949D01*
X118807592Y-107313408D01*
X118807593Y-107313407D01*
X118807597Y-107313407D01*
X119067535Y-107233227D01*
X119312620Y-107115200D01*
X119537376Y-106961964D01*
X119724585Y-106788259D01*
X119736779Y-106776945D01*
X119736779Y-106776943D01*
X119736783Y-106776941D01*
X119906387Y-106564264D01*
X120042398Y-106328685D01*
X120141780Y-106075466D01*
X120202311Y-105810263D01*
X120216481Y-105621172D01*
X120222639Y-105539004D01*
X120222639Y-105538995D01*
X121180462Y-105538995D01*
X121180462Y-105539004D01*
X121200784Y-105810185D01*
X121261296Y-106075306D01*
X121261301Y-106075323D01*
X121360653Y-106328468D01*
X121496629Y-106563985D01*
X121552011Y-106633433D01*
X121552012Y-106633433D01*
X122226608Y-105958836D01*
X122319333Y-106097609D01*
X122441391Y-106219667D01*
X122580161Y-106312390D01*
X121904449Y-106988101D01*
X122090237Y-107114769D01*
X122090238Y-107114770D01*
X122335245Y-107232758D01*
X122335243Y-107232758D01*
X122595106Y-107312915D01*
X122595112Y-107312916D01*
X122864020Y-107353449D01*
X122864027Y-107353450D01*
X123135973Y-107353450D01*
X123135979Y-107353449D01*
X123404887Y-107312916D01*
X123404893Y-107312915D01*
X123664755Y-107232758D01*
X123909768Y-107114766D01*
X123909771Y-107114765D01*
X124095549Y-106988101D01*
X123419837Y-106312390D01*
X123558609Y-106219667D01*
X123680667Y-106097609D01*
X123773390Y-105958837D01*
X124447986Y-106633433D01*
X124447987Y-106633432D01*
X124503366Y-106563991D01*
X124503373Y-106563980D01*
X124639346Y-106328468D01*
X124738698Y-106075323D01*
X124738703Y-106075306D01*
X124799215Y-105810185D01*
X124819538Y-105539004D01*
X124819538Y-105538995D01*
X125777361Y-105538995D01*
X125777361Y-105539004D01*
X125797688Y-105810260D01*
X125858218Y-106075459D01*
X125858220Y-106075466D01*
X125957601Y-106328683D01*
X125957603Y-106328687D01*
X125986344Y-106378468D01*
X126093613Y-106564264D01*
X126211949Y-106712653D01*
X126263220Y-106776945D01*
X126316179Y-106826083D01*
X126462624Y-106961964D01*
X126687381Y-107115200D01*
X126932465Y-107233227D01*
X127192403Y-107313407D01*
X127192404Y-107313407D01*
X127192407Y-107313408D01*
X127461380Y-107353949D01*
X127461385Y-107353949D01*
X127461388Y-107353950D01*
X127461389Y-107353950D01*
X127733411Y-107353950D01*
X127733412Y-107353950D01*
X127733419Y-107353949D01*
X128002392Y-107313408D01*
X128002393Y-107313407D01*
X128002397Y-107313407D01*
X128262335Y-107233227D01*
X128507420Y-107115200D01*
X128732176Y-106961964D01*
X128919385Y-106788259D01*
X128931579Y-106776945D01*
X128931579Y-106776943D01*
X128931583Y-106776941D01*
X129101187Y-106564264D01*
X129237198Y-106328685D01*
X129336580Y-106075466D01*
X129397111Y-105810263D01*
X129411281Y-105621172D01*
X129417439Y-105539004D01*
X129417439Y-105538995D01*
X129397117Y-105267814D01*
X129397111Y-105267737D01*
X129336580Y-105002534D01*
X129237198Y-104749315D01*
X129101187Y-104513736D01*
X128931583Y-104301059D01*
X128931582Y-104301058D01*
X128931579Y-104301054D01*
X128732176Y-104116036D01*
X128685405Y-104084148D01*
X128507420Y-103962800D01*
X128507416Y-103962798D01*
X128507415Y-103962797D01*
X128262335Y-103844773D01*
X128002398Y-103764593D01*
X128002392Y-103764591D01*
X127733419Y-103724050D01*
X127733412Y-103724050D01*
X127461388Y-103724050D01*
X127461380Y-103724050D01*
X127192407Y-103764591D01*
X127192401Y-103764593D01*
X127032041Y-103814057D01*
X126932465Y-103844773D01*
X126932463Y-103844774D01*
X126932459Y-103844775D01*
X126687384Y-103962798D01*
X126687380Y-103962800D01*
X126462626Y-104116034D01*
X126263220Y-104301054D01*
X126093613Y-104513736D01*
X125957603Y-104749312D01*
X125957601Y-104749316D01*
X125858220Y-105002533D01*
X125858218Y-105002540D01*
X125797688Y-105267739D01*
X125777361Y-105538995D01*
X124819538Y-105538995D01*
X124799215Y-105267814D01*
X124738703Y-105002693D01*
X124738698Y-105002676D01*
X124639346Y-104749531D01*
X124503370Y-104514014D01*
X124447987Y-104444565D01*
X123773390Y-105119162D01*
X123680667Y-104980391D01*
X123558609Y-104858333D01*
X123419836Y-104765608D01*
X124095549Y-104089897D01*
X123909762Y-103963230D01*
X123909761Y-103963229D01*
X123664754Y-103845241D01*
X123664756Y-103845241D01*
X123404893Y-103765084D01*
X123404887Y-103765083D01*
X123135979Y-103724550D01*
X122864020Y-103724550D01*
X122595112Y-103765083D01*
X122595106Y-103765084D01*
X122335244Y-103845241D01*
X122090238Y-103963229D01*
X122090230Y-103963234D01*
X121904449Y-104089897D01*
X122580162Y-104765609D01*
X122441391Y-104858333D01*
X122319333Y-104980391D01*
X122226608Y-105119162D01*
X121552012Y-104444566D01*
X121552011Y-104444566D01*
X121496626Y-104514018D01*
X121360653Y-104749531D01*
X121261301Y-105002676D01*
X121261296Y-105002693D01*
X121200784Y-105267814D01*
X121180462Y-105538995D01*
X120222639Y-105538995D01*
X120202317Y-105267814D01*
X120202311Y-105267737D01*
X120141780Y-105002534D01*
X120042398Y-104749315D01*
X119906387Y-104513736D01*
X119736783Y-104301059D01*
X119736782Y-104301058D01*
X119736779Y-104301054D01*
X119537376Y-104116036D01*
X119490605Y-104084148D01*
X119312620Y-103962800D01*
X119312616Y-103962798D01*
X119312615Y-103962797D01*
X119067535Y-103844773D01*
X118807598Y-103764593D01*
X118807592Y-103764591D01*
X118538619Y-103724050D01*
X118538612Y-103724050D01*
X118266588Y-103724050D01*
X118266580Y-103724050D01*
X117997607Y-103764591D01*
X117997601Y-103764593D01*
X117837241Y-103814057D01*
X117737665Y-103844773D01*
X117737663Y-103844774D01*
X117737659Y-103844775D01*
X117492584Y-103962798D01*
X117492580Y-103962800D01*
X117267826Y-104116034D01*
X117068420Y-104301054D01*
X116898813Y-104513736D01*
X116762803Y-104749312D01*
X116762801Y-104749316D01*
X116663420Y-105002533D01*
X116663418Y-105002540D01*
X116602888Y-105267739D01*
X116582561Y-105538995D01*
X109000000Y-105538995D01*
X109000000Y-103300000D01*
X111494540Y-103300000D01*
X111514326Y-103488256D01*
X111514327Y-103488259D01*
X111572818Y-103668277D01*
X111572821Y-103668284D01*
X111667467Y-103832216D01*
X111794129Y-103972888D01*
X111947265Y-104084148D01*
X111947270Y-104084151D01*
X112120192Y-104161142D01*
X112120197Y-104161144D01*
X112305354Y-104200500D01*
X112305355Y-104200500D01*
X112494644Y-104200500D01*
X112494646Y-104200500D01*
X112679803Y-104161144D01*
X112852730Y-104084151D01*
X113005871Y-103972888D01*
X113132533Y-103832216D01*
X113227179Y-103668284D01*
X113285674Y-103488256D01*
X113305460Y-103300000D01*
X113285674Y-103111744D01*
X113227179Y-102931716D01*
X113167113Y-102827677D01*
X113150500Y-102765677D01*
X113150500Y-101600000D01*
X118794540Y-101600000D01*
X118814326Y-101788256D01*
X118814327Y-101788259D01*
X118872818Y-101968277D01*
X118872821Y-101968284D01*
X118967467Y-102132216D01*
X119088401Y-102266526D01*
X119094129Y-102272888D01*
X119247265Y-102384148D01*
X119247270Y-102384151D01*
X119420192Y-102461142D01*
X119420197Y-102461144D01*
X119605354Y-102500500D01*
X119605355Y-102500500D01*
X119794644Y-102500500D01*
X119794646Y-102500500D01*
X119979803Y-102461144D01*
X120152730Y-102384151D01*
X120305871Y-102272888D01*
X120308788Y-102269647D01*
X120311600Y-102266526D01*
X120371087Y-102229879D01*
X120403748Y-102225500D01*
X133361607Y-102225500D01*
X133422029Y-102213481D01*
X133482452Y-102201463D01*
X133532496Y-102180734D01*
X133596286Y-102154312D01*
X133647509Y-102120084D01*
X133698733Y-102085858D01*
X133785858Y-101998733D01*
X133785858Y-101998731D01*
X133796066Y-101988524D01*
X133796067Y-101988521D01*
X134547772Y-101236819D01*
X134609095Y-101203334D01*
X134635453Y-101200500D01*
X134694644Y-101200500D01*
X134694646Y-101200500D01*
X134879803Y-101161144D01*
X135052730Y-101084151D01*
X135177616Y-100993416D01*
X135243421Y-100969937D01*
X135311475Y-100985762D01*
X135360170Y-101035868D01*
X135374500Y-101093735D01*
X135374500Y-103681747D01*
X135354815Y-103748786D01*
X135338181Y-103769428D01*
X135198669Y-103908940D01*
X135198667Y-103908942D01*
X135175894Y-103931715D01*
X135111542Y-103996066D01*
X135094442Y-104021659D01*
X135043089Y-104098512D01*
X135043085Y-104098519D01*
X135016709Y-104162199D01*
X134995938Y-104212343D01*
X134995935Y-104212353D01*
X134989304Y-104245687D01*
X134989305Y-104245688D01*
X134989305Y-104245689D01*
X134975690Y-104314142D01*
X134971900Y-104333194D01*
X134971900Y-104593512D01*
X134952215Y-104660551D01*
X134940050Y-104676484D01*
X134864866Y-104759984D01*
X134770221Y-104923915D01*
X134770218Y-104923922D01*
X134718158Y-105084148D01*
X134711726Y-105103944D01*
X134691940Y-105292200D01*
X134711726Y-105480456D01*
X134711727Y-105480459D01*
X134764576Y-105643114D01*
X134766571Y-105712956D01*
X134730490Y-105772788D01*
X134722808Y-105779285D01*
X134577658Y-105892260D01*
X134409233Y-106075217D01*
X134273226Y-106283393D01*
X134173336Y-106511118D01*
X134112292Y-106752175D01*
X134112290Y-106752187D01*
X134091757Y-106999994D01*
X134091757Y-107000005D01*
X134112290Y-107247812D01*
X134112292Y-107247824D01*
X134173336Y-107488881D01*
X134273226Y-107716606D01*
X134409233Y-107924782D01*
X134409236Y-107924785D01*
X134577656Y-108107738D01*
X134773891Y-108260474D01*
X134992590Y-108378828D01*
X135227786Y-108459571D01*
X135473065Y-108500500D01*
X135721735Y-108500500D01*
X135967014Y-108459571D01*
X136202210Y-108378828D01*
X136420909Y-108260474D01*
X136474340Y-108218886D01*
X136539331Y-108193245D01*
X136607871Y-108206811D01*
X136658196Y-108255279D01*
X136674500Y-108316741D01*
X136674500Y-108601312D01*
X136654815Y-108668351D01*
X136642650Y-108684284D01*
X136567466Y-108767784D01*
X136472821Y-108931715D01*
X136472818Y-108931722D01*
X136414327Y-109111740D01*
X136414326Y-109111744D01*
X136405170Y-109198858D01*
X136399010Y-109257466D01*
X136372425Y-109322081D01*
X136315127Y-109362065D01*
X136245308Y-109364725D01*
X136188008Y-109332185D01*
X135964161Y-109108338D01*
X135964158Y-109108334D01*
X135964158Y-109108335D01*
X135957091Y-109101268D01*
X135957091Y-109101267D01*
X135869966Y-109014142D01*
X135869965Y-109014141D01*
X135869964Y-109014140D01*
X135807001Y-108972070D01*
X135767519Y-108945688D01*
X135767517Y-108945687D01*
X135767514Y-108945685D01*
X135675732Y-108907669D01*
X135653688Y-108898538D01*
X135653686Y-108898537D01*
X135653685Y-108898537D01*
X135593262Y-108886518D01*
X135581347Y-108884148D01*
X135532843Y-108874500D01*
X135532840Y-108874500D01*
X135532839Y-108874500D01*
X134303748Y-108874500D01*
X134236709Y-108854815D01*
X134211600Y-108833474D01*
X134205873Y-108827114D01*
X134205869Y-108827110D01*
X134052732Y-108715850D01*
X134052729Y-108715848D01*
X133879807Y-108638857D01*
X133879802Y-108638855D01*
X133734001Y-108607865D01*
X133694646Y-108599500D01*
X133505354Y-108599500D01*
X133472897Y-108606398D01*
X133320197Y-108638855D01*
X133320192Y-108638857D01*
X133147270Y-108715848D01*
X133147268Y-108715850D01*
X132994129Y-108827111D01*
X132867466Y-108967785D01*
X132772821Y-109131715D01*
X132772818Y-109131722D01*
X132718805Y-109297958D01*
X132714326Y-109311744D01*
X132694540Y-109500000D01*
X132714326Y-109688256D01*
X132714327Y-109688259D01*
X132772818Y-109868277D01*
X132772821Y-109868284D01*
X132867467Y-110032216D01*
X132956630Y-110131241D01*
X132994129Y-110172888D01*
X133147265Y-110284148D01*
X133147270Y-110284151D01*
X133320192Y-110361142D01*
X133320197Y-110361144D01*
X133505354Y-110400500D01*
X133505355Y-110400500D01*
X133694644Y-110400500D01*
X133694646Y-110400500D01*
X133879803Y-110361144D01*
X134052730Y-110284151D01*
X134205871Y-110172888D01*
X134211571Y-110166558D01*
X134211600Y-110166526D01*
X134271087Y-110129879D01*
X134303748Y-110125500D01*
X134604774Y-110125500D01*
X134671813Y-110145185D01*
X134717568Y-110197989D01*
X134728536Y-110257184D01*
X134727343Y-110276389D01*
X135427166Y-110976212D01*
X135385108Y-110987482D01*
X135259692Y-111059890D01*
X135157290Y-111162292D01*
X135084882Y-111287708D01*
X135073612Y-111329766D01*
X134373963Y-110630117D01*
X134273667Y-110783633D01*
X134273665Y-110783637D01*
X134173812Y-111011282D01*
X134112787Y-111252261D01*
X134112785Y-111252270D01*
X134092259Y-111499994D01*
X134092259Y-111500005D01*
X134112785Y-111747729D01*
X134112787Y-111747738D01*
X134173812Y-111988717D01*
X134273667Y-112216367D01*
X134373962Y-112369881D01*
X135073612Y-111670233D01*
X135084882Y-111712292D01*
X135157290Y-111837708D01*
X135259692Y-111940110D01*
X135385108Y-112012518D01*
X135427166Y-112023787D01*
X134727343Y-112723609D01*
X134774168Y-112760055D01*
X134774171Y-112760057D01*
X134992785Y-112878364D01*
X134992796Y-112878369D01*
X135227907Y-112959083D01*
X135327264Y-112975663D01*
X135390150Y-113006113D01*
X135426589Y-113065728D01*
X135425014Y-113135580D01*
X135414243Y-113159971D01*
X135372820Y-113231718D01*
X135372818Y-113231722D01*
X135328609Y-113367785D01*
X135314326Y-113411744D01*
X135294540Y-113600000D01*
X135314326Y-113788256D01*
X135314327Y-113788259D01*
X135372818Y-113968277D01*
X135372821Y-113968284D01*
X135467467Y-114132216D01*
X135557506Y-114232214D01*
X135594129Y-114272888D01*
X135747265Y-114384148D01*
X135747270Y-114384151D01*
X135920192Y-114461142D01*
X135920197Y-114461144D01*
X136105354Y-114500500D01*
X136105355Y-114500500D01*
X136294644Y-114500500D01*
X136294646Y-114500500D01*
X136479803Y-114461144D01*
X136652730Y-114384151D01*
X136805871Y-114272888D01*
X136932533Y-114132216D01*
X137011010Y-113996290D01*
X137016085Y-113987500D01*
X137066652Y-113939284D01*
X137123472Y-113925500D01*
X138461864Y-113925500D01*
X138528903Y-113945185D01*
X138574658Y-113997989D01*
X138584602Y-114067147D01*
X138579795Y-114087817D01*
X138539479Y-114211897D01*
X138519693Y-114400153D01*
X138539479Y-114588409D01*
X138539480Y-114588412D01*
X138597971Y-114768430D01*
X138597974Y-114768437D01*
X138692620Y-114932369D01*
X138819282Y-115073041D01*
X138839459Y-115087700D01*
X138882124Y-115143028D01*
X138888105Y-115212641D01*
X138855500Y-115274437D01*
X138794661Y-115308795D01*
X138740795Y-115309309D01*
X138730234Y-115307064D01*
X138694646Y-115299500D01*
X138505354Y-115299500D01*
X138472897Y-115306398D01*
X138320197Y-115338855D01*
X138320192Y-115338857D01*
X138147270Y-115415848D01*
X138147265Y-115415851D01*
X137994129Y-115527111D01*
X137867466Y-115667785D01*
X137772821Y-115831715D01*
X137772818Y-115831722D01*
X137742662Y-115924534D01*
X137714326Y-116011744D01*
X137694540Y-116200000D01*
X137714326Y-116388256D01*
X137714327Y-116388259D01*
X137772818Y-116568277D01*
X137772821Y-116568284D01*
X137867467Y-116732216D01*
X137910772Y-116780310D01*
X137942650Y-116815715D01*
X137972880Y-116878706D01*
X137974500Y-116898687D01*
X137974500Y-119179121D01*
X137954815Y-119246160D01*
X137902011Y-119291915D01*
X137832853Y-119301859D01*
X137800064Y-119292400D01*
X137679807Y-119238857D01*
X137679802Y-119238855D01*
X137514471Y-119203714D01*
X137494646Y-119199500D01*
X137305354Y-119199500D01*
X137285529Y-119203714D01*
X137120197Y-119238855D01*
X137120192Y-119238857D01*
X136947270Y-119315848D01*
X136947265Y-119315851D01*
X136794129Y-119427111D01*
X136667466Y-119567785D01*
X136572821Y-119731715D01*
X136572818Y-119731722D01*
X136514327Y-119911740D01*
X136514326Y-119911744D01*
X136494540Y-120100000D01*
X136514326Y-120288256D01*
X136514327Y-120288259D01*
X136572818Y-120468277D01*
X136572821Y-120468284D01*
X136667467Y-120632216D01*
X136704088Y-120672887D01*
X136742650Y-120715715D01*
X136772880Y-120778706D01*
X136774500Y-120798687D01*
X136774500Y-120976312D01*
X136754815Y-121043351D01*
X136742650Y-121059284D01*
X136667466Y-121142784D01*
X136572821Y-121306715D01*
X136572818Y-121306722D01*
X136514327Y-121486740D01*
X136514326Y-121486744D01*
X136494540Y-121675000D01*
X136514326Y-121863256D01*
X136514327Y-121863259D01*
X136572818Y-122043277D01*
X136572821Y-122043284D01*
X136667467Y-122207216D01*
X136752151Y-122301267D01*
X136794129Y-122347888D01*
X136947265Y-122459148D01*
X136947270Y-122459151D01*
X137120192Y-122536142D01*
X137120197Y-122536144D01*
X137305354Y-122575500D01*
X137305355Y-122575500D01*
X137494645Y-122575500D01*
X137494646Y-122575500D01*
X137531289Y-122567711D01*
X137600954Y-122573026D01*
X137656688Y-122615163D01*
X137664457Y-122627003D01*
X137667465Y-122632214D01*
X137794129Y-122772888D01*
X137947265Y-122884148D01*
X137947270Y-122884151D01*
X138120192Y-122961142D01*
X138120197Y-122961144D01*
X138305354Y-123000500D01*
X138305355Y-123000500D01*
X138494644Y-123000500D01*
X138494646Y-123000500D01*
X138679803Y-122961144D01*
X138852730Y-122884151D01*
X139005871Y-122772888D01*
X139132533Y-122632216D01*
X139227179Y-122468284D01*
X139285674Y-122288256D01*
X139305460Y-122100000D01*
X139285674Y-121911744D01*
X139244294Y-121784389D01*
X139231569Y-121745226D01*
X139225500Y-121706908D01*
X139225500Y-116898687D01*
X139245185Y-116831648D01*
X139257350Y-116815715D01*
X139285770Y-116784151D01*
X139332533Y-116732216D01*
X139427179Y-116568284D01*
X139485674Y-116388256D01*
X139505460Y-116200000D01*
X139485674Y-116011744D01*
X139427179Y-115831716D01*
X139332533Y-115667784D01*
X139205871Y-115527112D01*
X139185691Y-115512450D01*
X139143027Y-115457123D01*
X139137048Y-115387510D01*
X139169653Y-115325715D01*
X139230491Y-115291357D01*
X139284358Y-115290844D01*
X139286772Y-115291357D01*
X139330507Y-115300653D01*
X139330508Y-115300653D01*
X139519797Y-115300653D01*
X139519799Y-115300653D01*
X139704956Y-115261297D01*
X139877883Y-115184304D01*
X140031024Y-115073041D01*
X140157686Y-114932369D01*
X140252332Y-114768437D01*
X140310827Y-114588409D01*
X140316278Y-114536536D01*
X140342862Y-114471924D01*
X140400160Y-114431939D01*
X140439599Y-114425500D01*
X141289548Y-114425500D01*
X141356587Y-114445185D01*
X141377229Y-114461819D01*
X144132346Y-117216936D01*
X144165831Y-117278259D01*
X144160847Y-117347951D01*
X144118975Y-117403884D01*
X144053511Y-117428301D01*
X144018885Y-117425907D01*
X143894647Y-117399500D01*
X143894646Y-117399500D01*
X143705354Y-117399500D01*
X143684729Y-117403884D01*
X143520197Y-117438855D01*
X143520192Y-117438857D01*
X143347270Y-117515848D01*
X143347265Y-117515851D01*
X143194129Y-117627111D01*
X143067466Y-117767785D01*
X142972821Y-117931715D01*
X142972818Y-117931722D01*
X142919075Y-118097128D01*
X142914326Y-118111744D01*
X142894540Y-118300000D01*
X142914326Y-118488256D01*
X142914327Y-118488259D01*
X142972818Y-118668277D01*
X142972821Y-118668284D01*
X143067467Y-118832216D01*
X143141231Y-118914139D01*
X143194129Y-118972888D01*
X143295253Y-119046359D01*
X143337919Y-119101689D01*
X143343898Y-119171302D01*
X143311292Y-119233097D01*
X143272805Y-119259956D01*
X143147267Y-119315850D01*
X143147265Y-119315851D01*
X142994129Y-119427111D01*
X142867466Y-119567785D01*
X142772821Y-119731715D01*
X142772818Y-119731722D01*
X142714327Y-119911740D01*
X142714326Y-119911744D01*
X142709085Y-119961610D01*
X142696678Y-120079651D01*
X142670093Y-120144266D01*
X142661038Y-120154370D01*
X142001270Y-120814139D01*
X141914143Y-120901265D01*
X141914141Y-120901267D01*
X141904402Y-120915845D01*
X141904399Y-120915849D01*
X141845690Y-121003710D01*
X141845685Y-121003719D01*
X141813075Y-121082449D01*
X141798540Y-121117538D01*
X141798535Y-121117556D01*
X141792181Y-121149499D01*
X141792182Y-121149500D01*
X141782876Y-121196286D01*
X141782875Y-121196287D01*
X141774500Y-121238389D01*
X141774500Y-122601312D01*
X141754815Y-122668351D01*
X141742650Y-122684284D01*
X141667466Y-122767784D01*
X141572821Y-122931715D01*
X141572818Y-122931722D01*
X141543276Y-123022645D01*
X141514326Y-123111744D01*
X141494540Y-123300000D01*
X141514326Y-123488256D01*
X141514327Y-123488259D01*
X141572818Y-123668277D01*
X141572821Y-123668284D01*
X141667467Y-123832216D01*
X141760131Y-123935129D01*
X141794129Y-123972888D01*
X141947265Y-124084148D01*
X141947270Y-124084151D01*
X142120192Y-124161142D01*
X142120197Y-124161144D01*
X142305354Y-124200500D01*
X142305355Y-124200500D01*
X142494644Y-124200500D01*
X142494646Y-124200500D01*
X142624720Y-124172852D01*
X142694386Y-124178168D01*
X142750120Y-124220305D01*
X142774225Y-124285885D01*
X142774500Y-124294142D01*
X142774500Y-124489548D01*
X142754815Y-124556587D01*
X142738181Y-124577229D01*
X142277229Y-125038181D01*
X142215906Y-125071666D01*
X142189548Y-125074500D01*
X138938389Y-125074500D01*
X138877971Y-125086518D01*
X138834743Y-125095116D01*
X138817546Y-125098537D01*
X138703716Y-125145687D01*
X138703707Y-125145692D01*
X138601268Y-125214140D01*
X138557705Y-125257703D01*
X138514142Y-125301267D01*
X138514139Y-125301270D01*
X138115515Y-125699893D01*
X138054192Y-125733378D01*
X137984500Y-125728394D01*
X137928567Y-125686522D01*
X137911653Y-125655547D01*
X137893796Y-125607669D01*
X137893793Y-125607664D01*
X137807547Y-125492455D01*
X137807544Y-125492452D01*
X137692335Y-125406206D01*
X137692328Y-125406202D01*
X137557482Y-125355908D01*
X137557483Y-125355908D01*
X137497883Y-125349501D01*
X137497881Y-125349500D01*
X137497873Y-125349500D01*
X137497864Y-125349500D01*
X135902129Y-125349500D01*
X135902123Y-125349501D01*
X135842516Y-125355908D01*
X135707671Y-125406202D01*
X135707664Y-125406206D01*
X135592455Y-125492452D01*
X135592452Y-125492455D01*
X135506206Y-125607664D01*
X135506202Y-125607671D01*
X135455908Y-125742517D01*
X135449501Y-125802116D01*
X135449500Y-125802135D01*
X135449500Y-127397870D01*
X135449501Y-127397876D01*
X135455908Y-127457483D01*
X135506202Y-127592328D01*
X135506206Y-127592335D01*
X135592452Y-127707544D01*
X135592455Y-127707547D01*
X135707664Y-127793793D01*
X135707671Y-127793797D01*
X135842517Y-127844091D01*
X135842516Y-127844091D01*
X135849444Y-127844835D01*
X135902127Y-127850500D01*
X137497872Y-127850499D01*
X137557483Y-127844091D01*
X137692331Y-127793796D01*
X137807546Y-127707546D01*
X137893796Y-127592331D01*
X137944091Y-127457483D01*
X137950500Y-127397873D01*
X137950500Y-127349500D01*
X137970185Y-127282461D01*
X138022989Y-127236706D01*
X138074500Y-127225500D01*
X138161607Y-127225500D01*
X138222029Y-127213481D01*
X138282452Y-127201463D01*
X138282455Y-127201461D01*
X138282458Y-127201461D01*
X138315787Y-127187654D01*
X138315786Y-127187654D01*
X138315792Y-127187652D01*
X138396286Y-127154312D01*
X138447509Y-127120084D01*
X138498733Y-127085858D01*
X138585858Y-126998733D01*
X138585859Y-126998731D01*
X138592925Y-126991665D01*
X138592928Y-126991661D01*
X138766832Y-126817756D01*
X138828153Y-126784273D01*
X138897845Y-126789257D01*
X138953778Y-126831129D01*
X138970004Y-126862416D01*
X138970175Y-126862341D01*
X138971449Y-126865202D01*
X138972438Y-126867109D01*
X138972815Y-126868271D01*
X138972821Y-126868284D01*
X139067467Y-127032216D01*
X139165760Y-127141381D01*
X139194129Y-127172888D01*
X139347265Y-127284148D01*
X139347270Y-127284151D01*
X139520192Y-127361142D01*
X139520197Y-127361144D01*
X139705354Y-127400500D01*
X139705355Y-127400500D01*
X139894644Y-127400500D01*
X139894646Y-127400500D01*
X140079803Y-127361144D01*
X140252730Y-127284151D01*
X140405871Y-127172888D01*
X140410005Y-127168297D01*
X140411600Y-127166526D01*
X140471087Y-127129879D01*
X140503748Y-127125500D01*
X141374636Y-127125500D01*
X141441675Y-127145185D01*
X141487430Y-127197989D01*
X141497374Y-127267147D01*
X141468349Y-127330703D01*
X141441674Y-127353816D01*
X141415538Y-127370611D01*
X141082246Y-127632714D01*
X141082227Y-127632731D01*
X140775366Y-127925323D01*
X140497704Y-128245762D01*
X140497693Y-128245775D01*
X140251764Y-128591134D01*
X140251758Y-128591142D01*
X140039754Y-128958345D01*
X139863617Y-129344030D01*
X139863607Y-129344055D01*
X139724937Y-129744714D01*
X139724934Y-129744725D01*
X139624971Y-130156780D01*
X139564628Y-130576468D01*
X139544453Y-131000000D01*
X139564628Y-131423531D01*
X139624971Y-131843219D01*
X139724934Y-132255274D01*
X139724937Y-132255285D01*
X139863607Y-132655944D01*
X139863617Y-132655969D01*
X140039754Y-133041654D01*
X140251758Y-133408857D01*
X140251764Y-133408865D01*
X140497693Y-133754224D01*
X140497702Y-133754234D01*
X140497703Y-133754236D01*
X140775369Y-134074679D01*
X141082237Y-134367278D01*
X141082246Y-134367285D01*
X141415534Y-134629385D01*
X141523371Y-134698687D01*
X141772227Y-134858617D01*
X142149099Y-135052908D01*
X142149104Y-135052910D01*
X142149106Y-135052911D01*
X142212797Y-135078409D01*
X142542733Y-135210496D01*
X142542741Y-135210498D01*
X142542743Y-135210499D01*
X142557919Y-135214955D01*
X142949565Y-135329952D01*
X143194834Y-135377223D01*
X143229997Y-135384001D01*
X143365910Y-135410196D01*
X143787997Y-135450500D01*
X143788004Y-135450500D01*
X144211996Y-135450500D01*
X144212003Y-135450500D01*
X144634090Y-135410196D01*
X145050435Y-135329952D01*
X145457267Y-135210496D01*
X145850901Y-135052908D01*
X146227774Y-134858617D01*
X146550696Y-134651087D01*
X146584456Y-134629391D01*
X146584459Y-134629389D01*
X146584461Y-134629387D01*
X146584471Y-134629381D01*
X146917763Y-134367278D01*
X147224631Y-134074679D01*
X147502297Y-133754236D01*
X147563860Y-133667784D01*
X147748235Y-133408865D01*
X147748241Y-133408857D01*
X147748242Y-133408854D01*
X147748245Y-133408851D01*
X147960248Y-133041650D01*
X148136387Y-132655960D01*
X148275066Y-132255273D01*
X148375029Y-131843218D01*
X148435372Y-131423527D01*
X148455547Y-131000000D01*
X158544453Y-131000000D01*
X158564628Y-131423531D01*
X158624971Y-131843219D01*
X158724934Y-132255274D01*
X158724937Y-132255285D01*
X158863607Y-132655944D01*
X158863617Y-132655969D01*
X159039754Y-133041654D01*
X159251758Y-133408857D01*
X159251764Y-133408865D01*
X159497693Y-133754224D01*
X159497702Y-133754234D01*
X159497703Y-133754236D01*
X159775369Y-134074679D01*
X160082237Y-134367278D01*
X160082246Y-134367285D01*
X160415534Y-134629385D01*
X160523371Y-134698687D01*
X160772227Y-134858617D01*
X161149099Y-135052908D01*
X161149104Y-135052910D01*
X161149106Y-135052911D01*
X161212797Y-135078409D01*
X161542733Y-135210496D01*
X161542741Y-135210498D01*
X161542743Y-135210499D01*
X161557919Y-135214955D01*
X161949565Y-135329952D01*
X162194834Y-135377223D01*
X162229997Y-135384001D01*
X162365910Y-135410196D01*
X162787997Y-135450500D01*
X162788004Y-135450500D01*
X163211996Y-135450500D01*
X163212003Y-135450500D01*
X163634090Y-135410196D01*
X164050435Y-135329952D01*
X164457267Y-135210496D01*
X164850901Y-135052908D01*
X165227774Y-134858617D01*
X165550696Y-134651087D01*
X165584456Y-134629391D01*
X165584459Y-134629389D01*
X165584461Y-134629387D01*
X165584471Y-134629381D01*
X165917763Y-134367278D01*
X166224631Y-134074679D01*
X166502297Y-133754236D01*
X166563860Y-133667784D01*
X166748235Y-133408865D01*
X166748241Y-133408857D01*
X166748242Y-133408854D01*
X166748245Y-133408851D01*
X166960248Y-133041650D01*
X167136387Y-132655960D01*
X167275066Y-132255273D01*
X167375029Y-131843218D01*
X167435372Y-131423527D01*
X167455547Y-131000000D01*
X167435372Y-130576473D01*
X167375029Y-130156782D01*
X167275066Y-129744727D01*
X167136387Y-129344040D01*
X166960248Y-128958350D01*
X166748245Y-128591149D01*
X166748241Y-128591142D01*
X166748235Y-128591134D01*
X166502306Y-128245775D01*
X166502295Y-128245762D01*
X166224633Y-127925323D01*
X165996236Y-127707546D01*
X165917763Y-127632722D01*
X165584471Y-127370619D01*
X165584467Y-127370617D01*
X165584459Y-127370610D01*
X165584456Y-127370608D01*
X165227781Y-127141387D01*
X165227774Y-127141383D01*
X165186465Y-127120087D01*
X164850901Y-126947092D01*
X164850899Y-126947091D01*
X164850891Y-126947087D01*
X164457268Y-126789504D01*
X164457256Y-126789500D01*
X164050440Y-126670049D01*
X164050423Y-126670045D01*
X163634105Y-126589806D01*
X163634093Y-126589804D01*
X163507463Y-126577712D01*
X163212003Y-126549500D01*
X162787997Y-126549500D01*
X162519396Y-126575148D01*
X162365906Y-126589804D01*
X162365894Y-126589806D01*
X161949576Y-126670045D01*
X161949559Y-126670049D01*
X161542743Y-126789500D01*
X161542731Y-126789504D01*
X161149106Y-126947088D01*
X161149102Y-126947090D01*
X160772230Y-127141381D01*
X160415534Y-127370614D01*
X160082246Y-127632714D01*
X160082227Y-127632731D01*
X159775366Y-127925323D01*
X159497704Y-128245762D01*
X159497693Y-128245775D01*
X159251764Y-128591134D01*
X159251758Y-128591142D01*
X159039754Y-128958345D01*
X158863617Y-129344030D01*
X158863607Y-129344055D01*
X158724937Y-129744714D01*
X158724934Y-129744725D01*
X158624971Y-130156780D01*
X158564628Y-130576468D01*
X158544453Y-131000000D01*
X148455547Y-131000000D01*
X148435372Y-130576473D01*
X148375029Y-130156782D01*
X148275066Y-129744727D01*
X148136387Y-129344040D01*
X147960248Y-128958350D01*
X147748245Y-128591149D01*
X147748241Y-128591142D01*
X147748235Y-128591134D01*
X147502306Y-128245775D01*
X147502295Y-128245762D01*
X147224633Y-127925323D01*
X146996236Y-127707546D01*
X146917763Y-127632722D01*
X146584471Y-127370619D01*
X146584470Y-127370618D01*
X146584462Y-127370612D01*
X146558325Y-127353815D01*
X146512570Y-127301011D01*
X146502627Y-127231852D01*
X146531653Y-127168297D01*
X146590431Y-127130523D01*
X146625365Y-127125500D01*
X150798003Y-127125500D01*
X150858425Y-127113481D01*
X150918848Y-127101463D01*
X150918851Y-127101461D01*
X150918854Y-127101461D01*
X150952183Y-127087654D01*
X150952182Y-127087654D01*
X150952188Y-127087652D01*
X151032682Y-127054312D01*
X151109679Y-127002863D01*
X151135129Y-126985858D01*
X151222254Y-126898733D01*
X151222255Y-126898730D01*
X151229321Y-126891665D01*
X151229324Y-126891661D01*
X151620985Y-126500000D01*
X155794540Y-126500000D01*
X155814326Y-126688256D01*
X155814327Y-126688259D01*
X155872818Y-126868277D01*
X155872821Y-126868284D01*
X155967467Y-127032216D01*
X156065760Y-127141381D01*
X156094129Y-127172888D01*
X156247265Y-127284148D01*
X156247270Y-127284151D01*
X156420192Y-127361142D01*
X156420197Y-127361144D01*
X156605354Y-127400500D01*
X156605355Y-127400500D01*
X156794644Y-127400500D01*
X156794646Y-127400500D01*
X156979803Y-127361144D01*
X157152730Y-127284151D01*
X157305871Y-127172888D01*
X157310005Y-127168297D01*
X157311600Y-127166526D01*
X157371087Y-127129879D01*
X157403748Y-127125500D01*
X158196252Y-127125500D01*
X158263291Y-127145185D01*
X158288400Y-127166526D01*
X158294126Y-127172885D01*
X158294130Y-127172889D01*
X158447265Y-127284148D01*
X158447270Y-127284151D01*
X158620192Y-127361142D01*
X158620197Y-127361144D01*
X158805354Y-127400500D01*
X158805355Y-127400500D01*
X158994644Y-127400500D01*
X158994646Y-127400500D01*
X159179803Y-127361144D01*
X159352730Y-127284151D01*
X159505871Y-127172888D01*
X159632533Y-127032216D01*
X159727179Y-126868284D01*
X159785674Y-126688256D01*
X159805460Y-126500000D01*
X159785674Y-126311744D01*
X159727179Y-126131716D01*
X159632533Y-125967784D01*
X159505871Y-125827112D01*
X159505870Y-125827111D01*
X159352734Y-125715851D01*
X159352729Y-125715848D01*
X159179807Y-125638857D01*
X159179802Y-125638855D01*
X159033055Y-125607664D01*
X158994646Y-125599500D01*
X158805354Y-125599500D01*
X158772897Y-125606398D01*
X158620197Y-125638855D01*
X158620192Y-125638857D01*
X158447270Y-125715848D01*
X158447265Y-125715851D01*
X158294130Y-125827110D01*
X158294126Y-125827114D01*
X158288400Y-125833474D01*
X158228913Y-125870121D01*
X158196252Y-125874500D01*
X157403748Y-125874500D01*
X157336709Y-125854815D01*
X157311600Y-125833474D01*
X157305873Y-125827114D01*
X157305869Y-125827110D01*
X157152734Y-125715851D01*
X157152729Y-125715848D01*
X156979807Y-125638857D01*
X156979802Y-125638855D01*
X156833055Y-125607664D01*
X156794646Y-125599500D01*
X156605354Y-125599500D01*
X156572897Y-125606398D01*
X156420197Y-125638855D01*
X156420192Y-125638857D01*
X156247270Y-125715848D01*
X156247265Y-125715851D01*
X156094129Y-125827111D01*
X155967466Y-125967785D01*
X155872821Y-126131715D01*
X155872818Y-126131722D01*
X155814327Y-126311740D01*
X155814326Y-126311744D01*
X155794540Y-126500000D01*
X151620985Y-126500000D01*
X153318850Y-124802135D01*
X165549500Y-124802135D01*
X165549500Y-126397870D01*
X165549501Y-126397876D01*
X165555908Y-126457483D01*
X165606202Y-126592328D01*
X165606206Y-126592335D01*
X165692452Y-126707544D01*
X165692455Y-126707547D01*
X165807664Y-126793793D01*
X165807671Y-126793797D01*
X165942517Y-126844091D01*
X165942516Y-126844091D01*
X165949444Y-126844835D01*
X166002127Y-126850500D01*
X167597872Y-126850499D01*
X167657483Y-126844091D01*
X167792331Y-126793796D01*
X167907546Y-126707546D01*
X167993796Y-126592331D01*
X168044091Y-126457483D01*
X168050500Y-126397873D01*
X168050499Y-124802135D01*
X169349500Y-124802135D01*
X169349500Y-126397870D01*
X169349501Y-126397876D01*
X169355908Y-126457483D01*
X169406202Y-126592328D01*
X169406206Y-126592335D01*
X169492452Y-126707544D01*
X169492455Y-126707547D01*
X169607664Y-126793793D01*
X169607671Y-126793797D01*
X169742517Y-126844091D01*
X169742516Y-126844091D01*
X169749444Y-126844835D01*
X169802127Y-126850500D01*
X171397872Y-126850499D01*
X171457483Y-126844091D01*
X171592331Y-126793796D01*
X171707546Y-126707546D01*
X171793796Y-126592331D01*
X171844091Y-126457483D01*
X171850500Y-126397873D01*
X171850499Y-124802128D01*
X171844091Y-124742517D01*
X171833261Y-124713481D01*
X171793797Y-124607671D01*
X171793793Y-124607664D01*
X171707547Y-124492455D01*
X171707544Y-124492452D01*
X171592335Y-124406206D01*
X171592328Y-124406202D01*
X171457482Y-124355908D01*
X171457483Y-124355908D01*
X171397883Y-124349501D01*
X171397881Y-124349500D01*
X171397873Y-124349500D01*
X171397864Y-124349500D01*
X169802129Y-124349500D01*
X169802123Y-124349501D01*
X169742516Y-124355908D01*
X169607671Y-124406202D01*
X169607664Y-124406206D01*
X169492455Y-124492452D01*
X169492452Y-124492455D01*
X169406206Y-124607664D01*
X169406202Y-124607671D01*
X169355908Y-124742517D01*
X169349501Y-124802116D01*
X169349501Y-124802123D01*
X169349500Y-124802135D01*
X168050499Y-124802135D01*
X168050499Y-124802128D01*
X168044091Y-124742517D01*
X168033261Y-124713481D01*
X167993797Y-124607671D01*
X167993793Y-124607664D01*
X167907547Y-124492455D01*
X167907544Y-124492452D01*
X167792335Y-124406206D01*
X167792328Y-124406202D01*
X167657482Y-124355908D01*
X167657483Y-124355908D01*
X167597883Y-124349501D01*
X167597881Y-124349500D01*
X167597873Y-124349500D01*
X167597864Y-124349500D01*
X166002129Y-124349500D01*
X166002123Y-124349501D01*
X165942516Y-124355908D01*
X165807671Y-124406202D01*
X165807664Y-124406206D01*
X165692455Y-124492452D01*
X165692452Y-124492455D01*
X165606206Y-124607664D01*
X165606202Y-124607671D01*
X165555908Y-124742517D01*
X165549501Y-124802116D01*
X165549501Y-124802123D01*
X165549500Y-124802135D01*
X153318850Y-124802135D01*
X154098729Y-124022256D01*
X154098733Y-124022254D01*
X154185858Y-123935129D01*
X154254311Y-123832682D01*
X154254312Y-123832681D01*
X154254313Y-123832677D01*
X154261096Y-123822527D01*
X154261985Y-123823121D01*
X154295839Y-123780175D01*
X154305871Y-123772888D01*
X154432533Y-123632216D01*
X154527179Y-123468284D01*
X154585674Y-123288256D01*
X154605460Y-123100000D01*
X154585674Y-122911744D01*
X154527179Y-122731716D01*
X154432533Y-122567784D01*
X154305871Y-122427112D01*
X154273668Y-122403715D01*
X154152734Y-122315851D01*
X154152729Y-122315848D01*
X153979807Y-122238857D01*
X153979802Y-122238855D01*
X153830938Y-122207214D01*
X153794646Y-122199500D01*
X153605354Y-122199500D01*
X153569062Y-122207214D01*
X153420199Y-122238855D01*
X153277391Y-122302438D01*
X153208141Y-122311722D01*
X153154070Y-122289476D01*
X153052734Y-122215851D01*
X153052729Y-122215848D01*
X152879807Y-122138857D01*
X152879802Y-122138855D01*
X152734001Y-122107865D01*
X152694646Y-122099500D01*
X152505354Y-122099500D01*
X152472897Y-122106398D01*
X152320197Y-122138855D01*
X152320192Y-122138857D01*
X152147270Y-122215848D01*
X152147265Y-122215851D01*
X151994129Y-122327111D01*
X151867466Y-122467785D01*
X151772821Y-122631715D01*
X151772818Y-122631722D01*
X151714327Y-122811740D01*
X151714326Y-122811744D01*
X151694540Y-123000000D01*
X151714326Y-123188256D01*
X151714327Y-123188259D01*
X151772818Y-123368277D01*
X151772821Y-123368284D01*
X151867466Y-123532215D01*
X151938319Y-123610906D01*
X151968549Y-123673898D01*
X151959923Y-123743233D01*
X151933850Y-123781559D01*
X150677229Y-125038181D01*
X150615906Y-125071666D01*
X150589548Y-125074500D01*
X144303748Y-125074500D01*
X144236709Y-125054815D01*
X144211600Y-125033474D01*
X144205873Y-125027114D01*
X144205872Y-125027113D01*
X144205871Y-125027112D01*
X144147859Y-124984964D01*
X144076614Y-124933201D01*
X144033949Y-124877871D01*
X144025500Y-124832883D01*
X144025500Y-122638393D01*
X144025499Y-122638389D01*
X144024172Y-122631716D01*
X144001463Y-122517548D01*
X143975269Y-122454311D01*
X143954312Y-122403715D01*
X143954311Y-122403713D01*
X143954310Y-122403711D01*
X143885859Y-122301268D01*
X143852375Y-122267784D01*
X143685859Y-122101269D01*
X143685858Y-122101267D01*
X143598733Y-122014142D01*
X143598732Y-122014141D01*
X143598731Y-122014140D01*
X143534595Y-121971286D01*
X143534594Y-121971285D01*
X143496290Y-121945690D01*
X143496281Y-121945685D01*
X143394951Y-121903714D01*
X143382455Y-121898538D01*
X143382445Y-121898535D01*
X143301594Y-121882452D01*
X143301585Y-121882452D01*
X143261607Y-121874500D01*
X143261606Y-121874500D01*
X143149500Y-121874500D01*
X143082461Y-121854815D01*
X143036706Y-121802011D01*
X143025500Y-121750500D01*
X143025500Y-121610452D01*
X143045185Y-121543413D01*
X143061819Y-121522771D01*
X143547771Y-121036819D01*
X143609094Y-121003334D01*
X143635452Y-121000500D01*
X143694644Y-121000500D01*
X143694646Y-121000500D01*
X143879803Y-120961144D01*
X144052730Y-120884151D01*
X144077614Y-120866071D01*
X144143419Y-120842591D01*
X144211474Y-120858416D01*
X144260169Y-120908521D01*
X144274500Y-120966389D01*
X144274500Y-121001312D01*
X144254815Y-121068351D01*
X144242650Y-121084284D01*
X144167466Y-121167784D01*
X144072821Y-121331715D01*
X144072818Y-121331722D01*
X144022450Y-121486740D01*
X144014326Y-121511744D01*
X143994540Y-121700000D01*
X144014326Y-121888256D01*
X144014327Y-121888259D01*
X144072818Y-122068277D01*
X144072821Y-122068284D01*
X144167467Y-122232216D01*
X144239055Y-122311722D01*
X144294129Y-122372888D01*
X144447265Y-122484148D01*
X144447270Y-122484151D01*
X144620192Y-122561142D01*
X144620197Y-122561144D01*
X144805354Y-122600500D01*
X144805355Y-122600500D01*
X144994644Y-122600500D01*
X144994646Y-122600500D01*
X145179803Y-122561144D01*
X145352730Y-122484151D01*
X145505871Y-122372888D01*
X145632533Y-122232216D01*
X145727179Y-122068284D01*
X145785674Y-121888256D01*
X145805460Y-121700000D01*
X145785674Y-121511744D01*
X145727179Y-121331716D01*
X145632533Y-121167784D01*
X145587330Y-121117581D01*
X145557350Y-121084284D01*
X145527120Y-121021292D01*
X145525500Y-121001312D01*
X145525500Y-119338393D01*
X145525499Y-119338389D01*
X145517611Y-119298731D01*
X145501463Y-119217548D01*
X145481057Y-119168284D01*
X145481054Y-119168277D01*
X145454314Y-119103719D01*
X145454313Y-119103717D01*
X145452673Y-119101263D01*
X145438315Y-119079774D01*
X145406537Y-119032215D01*
X145406537Y-119032216D01*
X145385858Y-119001267D01*
X145385855Y-119001264D01*
X145385853Y-119001261D01*
X145295637Y-118911045D01*
X145295606Y-118911016D01*
X144738960Y-118354370D01*
X144705475Y-118293047D01*
X144703323Y-118279671D01*
X144685674Y-118111744D01*
X144680923Y-118097124D01*
X144678927Y-118027286D01*
X144715006Y-117967453D01*
X144777706Y-117936623D01*
X144847120Y-117944585D01*
X144886535Y-117971125D01*
X146938181Y-120022771D01*
X146971666Y-120084094D01*
X146974500Y-120110452D01*
X146974500Y-122561607D01*
X146979323Y-122585852D01*
X146979323Y-122585857D01*
X146979324Y-122585857D01*
X146998537Y-122682452D01*
X147006412Y-122701463D01*
X147018943Y-122731716D01*
X147045687Y-122796285D01*
X147069600Y-122832071D01*
X147069601Y-122832073D01*
X147114141Y-122898733D01*
X147205586Y-122990178D01*
X147205608Y-122990198D01*
X147629545Y-123414135D01*
X147644966Y-123432925D01*
X147689141Y-123499037D01*
X147689144Y-123499041D01*
X147780586Y-123590483D01*
X147780608Y-123590503D01*
X148685711Y-124495606D01*
X148685740Y-124495637D01*
X148775958Y-124585855D01*
X148775962Y-124585858D01*
X148878402Y-124654307D01*
X148878411Y-124654312D01*
X148899434Y-124663020D01*
X148992243Y-124701463D01*
X149052666Y-124713481D01*
X149113088Y-124725500D01*
X149761607Y-124725500D01*
X149822029Y-124713481D01*
X149882452Y-124701463D01*
X149882455Y-124701461D01*
X149882458Y-124701461D01*
X149915787Y-124687654D01*
X149915786Y-124687654D01*
X149915792Y-124687652D01*
X149996286Y-124654312D01*
X150051304Y-124617549D01*
X150098733Y-124585858D01*
X150185858Y-124498733D01*
X150185858Y-124498731D01*
X150196066Y-124488524D01*
X150196067Y-124488521D01*
X150885857Y-123798734D01*
X150903127Y-123772888D01*
X150906442Y-123767928D01*
X150954310Y-123696287D01*
X150954311Y-123696286D01*
X151001463Y-123582452D01*
X151024172Y-123468284D01*
X151025500Y-123461607D01*
X151025500Y-123338394D01*
X151025500Y-121349500D01*
X151045185Y-121282461D01*
X151097989Y-121236706D01*
X151149500Y-121225500D01*
X153261607Y-121225500D01*
X153322029Y-121213481D01*
X153382452Y-121201463D01*
X153382455Y-121201461D01*
X153382458Y-121201461D01*
X153415787Y-121187654D01*
X153415786Y-121187654D01*
X153415792Y-121187652D01*
X153496286Y-121154312D01*
X153551306Y-121117548D01*
X153598733Y-121085858D01*
X153685858Y-120998733D01*
X153685858Y-120998731D01*
X153696066Y-120988524D01*
X153696067Y-120988521D01*
X154385857Y-120298734D01*
X154387494Y-120296285D01*
X154454311Y-120196286D01*
X154501463Y-120082452D01*
X154525500Y-119961606D01*
X154525500Y-119607907D01*
X154545185Y-119540868D01*
X154597989Y-119495113D01*
X154602019Y-119493357D01*
X154632496Y-119480734D01*
X154696286Y-119454312D01*
X154748734Y-119419266D01*
X154798733Y-119385858D01*
X154885858Y-119298733D01*
X154885858Y-119298732D01*
X154885859Y-119298732D01*
X154938903Y-119245688D01*
X154985857Y-119198734D01*
X154985857Y-119198732D01*
X154992918Y-119191672D01*
X154992924Y-119191665D01*
X155684589Y-118500000D01*
X163794540Y-118500000D01*
X163814326Y-118688256D01*
X163814327Y-118688259D01*
X163872818Y-118868277D01*
X163872821Y-118868284D01*
X163967467Y-119032216D01*
X164083555Y-119161144D01*
X164094129Y-119172888D01*
X164247265Y-119284148D01*
X164247270Y-119284151D01*
X164420192Y-119361142D01*
X164420197Y-119361144D01*
X164605354Y-119400500D01*
X164664548Y-119400500D01*
X164731587Y-119420185D01*
X164752228Y-119436818D01*
X165714141Y-120398732D01*
X165714142Y-120398733D01*
X165783686Y-120468277D01*
X165801268Y-120485859D01*
X165903707Y-120554307D01*
X165903720Y-120554314D01*
X165977452Y-120584854D01*
X166011192Y-120598830D01*
X166055890Y-120630419D01*
X166094128Y-120672887D01*
X166094129Y-120672888D01*
X166247265Y-120784148D01*
X166247270Y-120784151D01*
X166420192Y-120861142D01*
X166420197Y-120861144D01*
X166605354Y-120900500D01*
X166605355Y-120900500D01*
X166794644Y-120900500D01*
X166794646Y-120900500D01*
X166979803Y-120861144D01*
X167152730Y-120784151D01*
X167305871Y-120672888D01*
X167432533Y-120532216D01*
X167527179Y-120368284D01*
X167585674Y-120188256D01*
X167605460Y-120000000D01*
X167585674Y-119811744D01*
X167527179Y-119631716D01*
X167432533Y-119467784D01*
X167395911Y-119427111D01*
X167384194Y-119414098D01*
X167353964Y-119351106D01*
X167362589Y-119281771D01*
X167368950Y-119269138D01*
X167427179Y-119168284D01*
X167485674Y-118988256D01*
X167505460Y-118800000D01*
X167485674Y-118611744D01*
X167427179Y-118431716D01*
X167332533Y-118267784D01*
X167205871Y-118127112D01*
X167190369Y-118115849D01*
X167052734Y-118015851D01*
X167052729Y-118015848D01*
X166879807Y-117938857D01*
X166879802Y-117938855D01*
X166734001Y-117907865D01*
X166694646Y-117899500D01*
X166694645Y-117899500D01*
X166635452Y-117899500D01*
X166568413Y-117879815D01*
X166547771Y-117863181D01*
X165835786Y-117151196D01*
X165802301Y-117089873D01*
X165800146Y-117050556D01*
X165805460Y-117000000D01*
X165785674Y-116811744D01*
X165727179Y-116631716D01*
X165632533Y-116467784D01*
X165505871Y-116327112D01*
X165505870Y-116327111D01*
X165352734Y-116215851D01*
X165352729Y-116215848D01*
X165179807Y-116138857D01*
X165179802Y-116138855D01*
X165034001Y-116107865D01*
X164994646Y-116099500D01*
X164805354Y-116099500D01*
X164772897Y-116106398D01*
X164620197Y-116138855D01*
X164620192Y-116138857D01*
X164447270Y-116215848D01*
X164447265Y-116215851D01*
X164294129Y-116327111D01*
X164167466Y-116467785D01*
X164072821Y-116631715D01*
X164072818Y-116631722D01*
X164014327Y-116811740D01*
X164014326Y-116811744D01*
X163994540Y-117000000D01*
X164014326Y-117188256D01*
X164014327Y-117188259D01*
X164072818Y-117368277D01*
X164072821Y-117368284D01*
X164167467Y-117532216D01*
X164206832Y-117575935D01*
X164237062Y-117638926D01*
X164228437Y-117708261D01*
X164187567Y-117759225D01*
X164094129Y-117827111D01*
X163967466Y-117967785D01*
X163872821Y-118131715D01*
X163872818Y-118131722D01*
X163825956Y-118275950D01*
X163814326Y-118311744D01*
X163794540Y-118500000D01*
X155684589Y-118500000D01*
X156098729Y-118085860D01*
X156098733Y-118085858D01*
X156185858Y-117998733D01*
X156254311Y-117896286D01*
X156301463Y-117782452D01*
X156325500Y-117661606D01*
X156325500Y-115438394D01*
X156325500Y-113600000D01*
X162594540Y-113600000D01*
X162614326Y-113788256D01*
X162614327Y-113788259D01*
X162672818Y-113968277D01*
X162672821Y-113968284D01*
X162767467Y-114132216D01*
X162857506Y-114232214D01*
X162894129Y-114272888D01*
X163047265Y-114384148D01*
X163047270Y-114384151D01*
X163220192Y-114461142D01*
X163220197Y-114461144D01*
X163405354Y-114500500D01*
X163405355Y-114500500D01*
X163594644Y-114500500D01*
X163594646Y-114500500D01*
X163779803Y-114461144D01*
X163952730Y-114384151D01*
X164105871Y-114272888D01*
X164108788Y-114269647D01*
X164111600Y-114266526D01*
X164171087Y-114229879D01*
X164203748Y-114225500D01*
X166176528Y-114225500D01*
X166243567Y-114245185D01*
X166283915Y-114287500D01*
X166367465Y-114432214D01*
X166494129Y-114572888D01*
X166647265Y-114684148D01*
X166647270Y-114684151D01*
X166820192Y-114761142D01*
X166820197Y-114761144D01*
X167005354Y-114800500D01*
X167005355Y-114800500D01*
X167194644Y-114800500D01*
X167194646Y-114800500D01*
X167379803Y-114761144D01*
X167552730Y-114684151D01*
X167705871Y-114572888D01*
X167832533Y-114432216D01*
X167927179Y-114268284D01*
X167985674Y-114088256D01*
X168005460Y-113900000D01*
X167985674Y-113711744D01*
X167927179Y-113531716D01*
X167832533Y-113367784D01*
X167705871Y-113227112D01*
X167705870Y-113227111D01*
X167552734Y-113115851D01*
X167552729Y-113115848D01*
X167379807Y-113038857D01*
X167379802Y-113038855D01*
X167208242Y-113002390D01*
X167194646Y-112999500D01*
X167005354Y-112999500D01*
X166999506Y-112999500D01*
X166975315Y-112997117D01*
X166922029Y-112986518D01*
X166861610Y-112974500D01*
X166861607Y-112974500D01*
X166861606Y-112974500D01*
X164203748Y-112974500D01*
X164136709Y-112954815D01*
X164111600Y-112933474D01*
X164105873Y-112927114D01*
X164105869Y-112927110D01*
X163952734Y-112815851D01*
X163952729Y-112815848D01*
X163779807Y-112738857D01*
X163779802Y-112738855D01*
X163608242Y-112702390D01*
X163594646Y-112699500D01*
X163405354Y-112699500D01*
X163391758Y-112702390D01*
X163220197Y-112738855D01*
X163220192Y-112738857D01*
X163047270Y-112815848D01*
X163047265Y-112815851D01*
X162894129Y-112927111D01*
X162767466Y-113067785D01*
X162672821Y-113231715D01*
X162672818Y-113231722D01*
X162628609Y-113367785D01*
X162614326Y-113411744D01*
X162594540Y-113600000D01*
X156325500Y-113600000D01*
X156325500Y-113510452D01*
X156345185Y-113443413D01*
X156361819Y-113422771D01*
X158147771Y-111636819D01*
X158209094Y-111603334D01*
X158235452Y-111600500D01*
X158294644Y-111600500D01*
X158294646Y-111600500D01*
X158479803Y-111561144D01*
X158652730Y-111484151D01*
X158805871Y-111372888D01*
X158932533Y-111232216D01*
X159027179Y-111068284D01*
X159085674Y-110888256D01*
X159105460Y-110700000D01*
X159085674Y-110511744D01*
X159027179Y-110331716D01*
X158932533Y-110167784D01*
X158805871Y-110027112D01*
X158805867Y-110027109D01*
X158652734Y-109915851D01*
X158652729Y-109915848D01*
X158479807Y-109838857D01*
X158479802Y-109838855D01*
X158334001Y-109807865D01*
X158294646Y-109799500D01*
X158105354Y-109799500D01*
X158072897Y-109806398D01*
X157920197Y-109838855D01*
X157920192Y-109838857D01*
X157747270Y-109915848D01*
X157747265Y-109915851D01*
X157594132Y-110027109D01*
X157594129Y-110027111D01*
X157594129Y-110027112D01*
X157509025Y-110121630D01*
X157500371Y-110131241D01*
X157440884Y-110167889D01*
X157371027Y-110166558D01*
X157320540Y-110135949D01*
X154892928Y-107708338D01*
X154892925Y-107708334D01*
X154892925Y-107708335D01*
X154885858Y-107701268D01*
X154885858Y-107701267D01*
X154798733Y-107614142D01*
X154798732Y-107614141D01*
X154798731Y-107614140D01*
X154738353Y-107573797D01*
X154696287Y-107545689D01*
X154696286Y-107545688D01*
X154696283Y-107545686D01*
X154696280Y-107545685D01*
X154615792Y-107512347D01*
X154582453Y-107498537D01*
X154572427Y-107496543D01*
X154522029Y-107486518D01*
X154461610Y-107474500D01*
X154461607Y-107474500D01*
X154461606Y-107474500D01*
X150103748Y-107474500D01*
X150036709Y-107454815D01*
X150011600Y-107433474D01*
X150005873Y-107427114D01*
X150005869Y-107427110D01*
X149852734Y-107315851D01*
X149852729Y-107315848D01*
X149679807Y-107238857D01*
X149679802Y-107238855D01*
X149522963Y-107205519D01*
X149494646Y-107199500D01*
X149305354Y-107199500D01*
X149277037Y-107205519D01*
X149120197Y-107238855D01*
X149120192Y-107238857D01*
X148947270Y-107315848D01*
X148947265Y-107315851D01*
X148794129Y-107427111D01*
X148667466Y-107567785D01*
X148572821Y-107731715D01*
X148572818Y-107731722D01*
X148514327Y-107911740D01*
X148514326Y-107911744D01*
X148494540Y-108100000D01*
X148514326Y-108288256D01*
X148514327Y-108288259D01*
X148572818Y-108468277D01*
X148572821Y-108468284D01*
X148667467Y-108632216D01*
X148757063Y-108731722D01*
X148794129Y-108772888D01*
X148947265Y-108884148D01*
X148947270Y-108884151D01*
X149120192Y-108961142D01*
X149120197Y-108961144D01*
X149305354Y-109000500D01*
X149305355Y-109000500D01*
X149494644Y-109000500D01*
X149494646Y-109000500D01*
X149679803Y-108961144D01*
X149852730Y-108884151D01*
X150005871Y-108772888D01*
X150010467Y-108767784D01*
X150011600Y-108766526D01*
X150071087Y-108729879D01*
X150103748Y-108725500D01*
X154089548Y-108725500D01*
X154156587Y-108745185D01*
X154177228Y-108761818D01*
X156627729Y-111212320D01*
X156661213Y-111273641D01*
X156656229Y-111343333D01*
X156627728Y-111387680D01*
X155815409Y-112200000D01*
X155301270Y-112714139D01*
X155301267Y-112714142D01*
X155276554Y-112738855D01*
X155214140Y-112801268D01*
X155204397Y-112815851D01*
X155189026Y-112838856D01*
X155160066Y-112882195D01*
X155145687Y-112903715D01*
X155145685Y-112903718D01*
X155116368Y-112974497D01*
X155116368Y-112974500D01*
X155112371Y-112984151D01*
X155098537Y-113017549D01*
X155098535Y-113017556D01*
X155074500Y-113138389D01*
X155074500Y-117289548D01*
X155054815Y-117356587D01*
X155038181Y-117377229D01*
X154177229Y-118238181D01*
X154115906Y-118271666D01*
X154089548Y-118274500D01*
X153903748Y-118274500D01*
X153836709Y-118254815D01*
X153811600Y-118233474D01*
X153805873Y-118227114D01*
X153805869Y-118227110D01*
X153652734Y-118115851D01*
X153652729Y-118115848D01*
X153479807Y-118038857D01*
X153479802Y-118038855D01*
X153334001Y-118007865D01*
X153294646Y-117999500D01*
X153105354Y-117999500D01*
X153072897Y-118006398D01*
X152920197Y-118038855D01*
X152920192Y-118038857D01*
X152747270Y-118115848D01*
X152747265Y-118115851D01*
X152594129Y-118227111D01*
X152467466Y-118367785D01*
X152372821Y-118531715D01*
X152372818Y-118531722D01*
X152314327Y-118711740D01*
X152314326Y-118711744D01*
X152294540Y-118900000D01*
X152314326Y-119088256D01*
X152314327Y-119088259D01*
X152372818Y-119268277D01*
X152372821Y-119268284D01*
X152467467Y-119432216D01*
X152565298Y-119540868D01*
X152594129Y-119572888D01*
X152747265Y-119684148D01*
X152747270Y-119684151D01*
X152866465Y-119737221D01*
X152919702Y-119782471D01*
X152940023Y-119849320D01*
X152920977Y-119916544D01*
X152868611Y-119962799D01*
X152816029Y-119974500D01*
X150761607Y-119974500D01*
X150638393Y-119974500D01*
X150618406Y-119978475D01*
X150598419Y-119982451D01*
X150598418Y-119982450D01*
X150517552Y-119998536D01*
X150517545Y-119998537D01*
X150497543Y-120006823D01*
X150484207Y-120012347D01*
X150403719Y-120045684D01*
X150403705Y-120045692D01*
X150301272Y-120114138D01*
X150301264Y-120114144D01*
X149914144Y-120501264D01*
X149914138Y-120501272D01*
X149845690Y-120603708D01*
X149845689Y-120603710D01*
X149817035Y-120672887D01*
X149817036Y-120672888D01*
X149798536Y-120717549D01*
X149798535Y-120717555D01*
X149774500Y-120838389D01*
X149774500Y-122102423D01*
X149754815Y-122169462D01*
X149702011Y-122215217D01*
X149632853Y-122225161D01*
X149569297Y-122196136D01*
X149558351Y-122185396D01*
X149505871Y-122127112D01*
X149505870Y-122127111D01*
X149352734Y-122015851D01*
X149352729Y-122015848D01*
X149179807Y-121938857D01*
X149179802Y-121938855D01*
X149023719Y-121905679D01*
X148962237Y-121872487D01*
X148928461Y-121811323D01*
X148925500Y-121784389D01*
X148925500Y-119438393D01*
X148925499Y-119438389D01*
X148921695Y-119419266D01*
X148901463Y-119317548D01*
X148871698Y-119245689D01*
X148868868Y-119238857D01*
X148854314Y-119203719D01*
X148854312Y-119203714D01*
X148810974Y-119138856D01*
X148810972Y-119138853D01*
X148785859Y-119101268D01*
X148785855Y-119101263D01*
X148695637Y-119011045D01*
X148695606Y-119011016D01*
X143384590Y-113700000D01*
X152594540Y-113700000D01*
X152614326Y-113888256D01*
X152614327Y-113888259D01*
X152672818Y-114068277D01*
X152672821Y-114068284D01*
X152767467Y-114232216D01*
X152894129Y-114372888D01*
X153047265Y-114484148D01*
X153047266Y-114484148D01*
X153047270Y-114484151D01*
X153200936Y-114552568D01*
X153254173Y-114597818D01*
X153274494Y-114664667D01*
X153274500Y-114665847D01*
X153274500Y-115301312D01*
X153254815Y-115368351D01*
X153242650Y-115384284D01*
X153167466Y-115467784D01*
X153072821Y-115631715D01*
X153072818Y-115631722D01*
X153014327Y-115811740D01*
X153014326Y-115811744D01*
X152994540Y-116000000D01*
X153014326Y-116188256D01*
X153014327Y-116188259D01*
X153072818Y-116368277D01*
X153072821Y-116368284D01*
X153167467Y-116532216D01*
X153257063Y-116631722D01*
X153294129Y-116672888D01*
X153447265Y-116784148D01*
X153447270Y-116784151D01*
X153620192Y-116861142D01*
X153620197Y-116861144D01*
X153805354Y-116900500D01*
X153805355Y-116900500D01*
X153994644Y-116900500D01*
X153994646Y-116900500D01*
X154179803Y-116861144D01*
X154352730Y-116784151D01*
X154505871Y-116672888D01*
X154632533Y-116532216D01*
X154727179Y-116368284D01*
X154785674Y-116188256D01*
X154805460Y-116000000D01*
X154785674Y-115811744D01*
X154727179Y-115631716D01*
X154632533Y-115467784D01*
X154603677Y-115435736D01*
X154557350Y-115384284D01*
X154527120Y-115321292D01*
X154525500Y-115301312D01*
X154525500Y-114038394D01*
X154524202Y-114031869D01*
X154517124Y-113996286D01*
X154501463Y-113917548D01*
X154454311Y-113803714D01*
X154426292Y-113761781D01*
X154406074Y-113705853D01*
X154405459Y-113700005D01*
X154405460Y-113700000D01*
X154385674Y-113511744D01*
X154327179Y-113331716D01*
X154232533Y-113167784D01*
X154105871Y-113027112D01*
X154105870Y-113027111D01*
X153952734Y-112915851D01*
X153952729Y-112915848D01*
X153779807Y-112838857D01*
X153779802Y-112838855D01*
X153622643Y-112805451D01*
X153594646Y-112799500D01*
X153405354Y-112799500D01*
X153396119Y-112801463D01*
X153220197Y-112838855D01*
X153220192Y-112838857D01*
X153047270Y-112915848D01*
X153047265Y-112915851D01*
X152894129Y-113027111D01*
X152767466Y-113167785D01*
X152672821Y-113331715D01*
X152672818Y-113331722D01*
X152614327Y-113511740D01*
X152614326Y-113511744D01*
X152594540Y-113700000D01*
X143384590Y-113700000D01*
X142729373Y-113044783D01*
X142695888Y-112983460D01*
X142700872Y-112913768D01*
X142742744Y-112857835D01*
X142758037Y-112848047D01*
X142920630Y-112760056D01*
X142920636Y-112760051D01*
X142967455Y-112723610D01*
X142967456Y-112723609D01*
X142267633Y-112023787D01*
X142309692Y-112012518D01*
X142435108Y-111940110D01*
X142537510Y-111837708D01*
X142609918Y-111712292D01*
X142621187Y-111670233D01*
X143320835Y-112369882D01*
X143421133Y-112216364D01*
X143520987Y-111988717D01*
X143582012Y-111747738D01*
X143582014Y-111747729D01*
X143602541Y-111500005D01*
X143602541Y-111499994D01*
X143593173Y-111386941D01*
X143607254Y-111318505D01*
X143656099Y-111268546D01*
X143724200Y-111252925D01*
X143789935Y-111276602D01*
X143804427Y-111289017D01*
X144183193Y-111667784D01*
X145201263Y-112685855D01*
X145201267Y-112685858D01*
X145303708Y-112754308D01*
X145303715Y-112754312D01*
X145367504Y-112780734D01*
X145417548Y-112801463D01*
X145437597Y-112805451D01*
X145471196Y-112812134D01*
X145538392Y-112825501D01*
X145538394Y-112825501D01*
X145667721Y-112825501D01*
X145667741Y-112825500D01*
X148696252Y-112825500D01*
X148763291Y-112845185D01*
X148788400Y-112866526D01*
X148794126Y-112872885D01*
X148794130Y-112872889D01*
X148947265Y-112984148D01*
X148947270Y-112984151D01*
X149120192Y-113061142D01*
X149120197Y-113061144D01*
X149305354Y-113100500D01*
X149305355Y-113100500D01*
X149494644Y-113100500D01*
X149494646Y-113100500D01*
X149679803Y-113061144D01*
X149852730Y-112984151D01*
X150005871Y-112872888D01*
X150132533Y-112732216D01*
X150227179Y-112568284D01*
X150285674Y-112388256D01*
X150305460Y-112200000D01*
X150285674Y-112011744D01*
X150227179Y-111831716D01*
X150132533Y-111667784D01*
X150005871Y-111527112D01*
X150005870Y-111527111D01*
X149852734Y-111415851D01*
X149852729Y-111415848D01*
X149679807Y-111338857D01*
X149679802Y-111338855D01*
X149534001Y-111307865D01*
X149494646Y-111299500D01*
X149305354Y-111299500D01*
X149272897Y-111306398D01*
X149120197Y-111338855D01*
X149120192Y-111338857D01*
X148947270Y-111415848D01*
X148947265Y-111415851D01*
X148794130Y-111527110D01*
X148794126Y-111527114D01*
X148788400Y-111533474D01*
X148728913Y-111570121D01*
X148696252Y-111574500D01*
X145910453Y-111574500D01*
X145843414Y-111554815D01*
X145822772Y-111538181D01*
X144518297Y-110233706D01*
X144484812Y-110172383D01*
X144489796Y-110102691D01*
X144531668Y-110046758D01*
X144597132Y-110022341D01*
X144656414Y-110032746D01*
X144720192Y-110061142D01*
X144720197Y-110061144D01*
X144905354Y-110100500D01*
X144905355Y-110100500D01*
X145094644Y-110100500D01*
X145094646Y-110100500D01*
X145279803Y-110061144D01*
X145452730Y-109984151D01*
X145552617Y-109911578D01*
X145618420Y-109888100D01*
X145686474Y-109903925D01*
X145735169Y-109954031D01*
X145749500Y-110011898D01*
X145749500Y-110697870D01*
X145749501Y-110697876D01*
X145755908Y-110757483D01*
X145806202Y-110892328D01*
X145806206Y-110892335D01*
X145892452Y-111007544D01*
X145892455Y-111007547D01*
X146007664Y-111093793D01*
X146007671Y-111093797D01*
X146142517Y-111144091D01*
X146142516Y-111144091D01*
X146149444Y-111144835D01*
X146202127Y-111150500D01*
X147797872Y-111150499D01*
X147857483Y-111144091D01*
X147992331Y-111093796D01*
X148107546Y-111007546D01*
X148193796Y-110892331D01*
X148244091Y-110757483D01*
X148250500Y-110697873D01*
X148250499Y-109102128D01*
X148244091Y-109042517D01*
X148232613Y-109011744D01*
X148193796Y-108907669D01*
X148193793Y-108907664D01*
X148107547Y-108792455D01*
X148107544Y-108792452D01*
X147992335Y-108706206D01*
X147992328Y-108706202D01*
X147857482Y-108655908D01*
X147857483Y-108655908D01*
X147797883Y-108649501D01*
X147797881Y-108649500D01*
X147797873Y-108649500D01*
X147797864Y-108649500D01*
X146202129Y-108649500D01*
X146202123Y-108649501D01*
X146142516Y-108655908D01*
X146007671Y-108706202D01*
X146007668Y-108706204D01*
X145942893Y-108754695D01*
X145877428Y-108779112D01*
X145809155Y-108764260D01*
X145761195Y-108717428D01*
X145732533Y-108667784D01*
X145657350Y-108584284D01*
X145627120Y-108521292D01*
X145625500Y-108501312D01*
X145625500Y-106712653D01*
X161181887Y-106712653D01*
X161201673Y-106900909D01*
X161201674Y-106900912D01*
X161260165Y-107080930D01*
X161260168Y-107080937D01*
X161354814Y-107244869D01*
X161453031Y-107353950D01*
X161481476Y-107385541D01*
X161634612Y-107496801D01*
X161634617Y-107496804D01*
X161807539Y-107573795D01*
X161807544Y-107573797D01*
X161992701Y-107613153D01*
X161992702Y-107613153D01*
X162181991Y-107613153D01*
X162181993Y-107613153D01*
X162367150Y-107573797D01*
X162540077Y-107496804D01*
X162542123Y-107495317D01*
X162553799Y-107486835D01*
X162619605Y-107463355D01*
X162626684Y-107463153D01*
X163550423Y-107463153D01*
X163617462Y-107482838D01*
X163638104Y-107499472D01*
X164212707Y-108074074D01*
X164212728Y-108074097D01*
X164517459Y-108378827D01*
X164821584Y-108682952D01*
X164870819Y-108715849D01*
X164944505Y-108765084D01*
X164944506Y-108765084D01*
X164944507Y-108765085D01*
X165081082Y-108821656D01*
X165081087Y-108821658D01*
X165081091Y-108821658D01*
X165081092Y-108821659D01*
X165226079Y-108850500D01*
X165226082Y-108850500D01*
X165226083Y-108850500D01*
X165373918Y-108850500D01*
X167837770Y-108850500D01*
X167904809Y-108870185D01*
X167925451Y-108886819D01*
X168287228Y-109248595D01*
X168317478Y-109297958D01*
X168372818Y-109468277D01*
X168372821Y-109468284D01*
X168467467Y-109632216D01*
X168557508Y-109732216D01*
X168594129Y-109772888D01*
X168747265Y-109884148D01*
X168747270Y-109884151D01*
X168920192Y-109961142D01*
X168920197Y-109961144D01*
X169105354Y-110000500D01*
X169105355Y-110000500D01*
X169294644Y-110000500D01*
X169294646Y-110000500D01*
X169479803Y-109961144D01*
X169652730Y-109884151D01*
X169805871Y-109772888D01*
X169932533Y-109632216D01*
X170027179Y-109468284D01*
X170085674Y-109288256D01*
X170105460Y-109100000D01*
X170085674Y-108911744D01*
X170027179Y-108731716D01*
X169932533Y-108567784D01*
X169805871Y-108427112D01*
X169805870Y-108427111D01*
X169652734Y-108315851D01*
X169652729Y-108315848D01*
X169479807Y-108238857D01*
X169479802Y-108238855D01*
X169414669Y-108225011D01*
X169353187Y-108191818D01*
X169352769Y-108191402D01*
X169349048Y-108187681D01*
X169315563Y-108126358D01*
X169320547Y-108056666D01*
X169349048Y-108012319D01*
X169982948Y-107378419D01*
X169982951Y-107378416D01*
X170065084Y-107255495D01*
X170068262Y-107247824D01*
X170088278Y-107199500D01*
X170121658Y-107118913D01*
X170150500Y-106973918D01*
X170150500Y-106826083D01*
X170150500Y-106334321D01*
X170167113Y-106272321D01*
X170190553Y-106231722D01*
X170227179Y-106168284D01*
X170285674Y-105988256D01*
X170305460Y-105800000D01*
X170285674Y-105611744D01*
X170227179Y-105431716D01*
X170132533Y-105267784D01*
X170005871Y-105127112D01*
X169973983Y-105103944D01*
X169852734Y-105015851D01*
X169852729Y-105015848D01*
X169679807Y-104938857D01*
X169679802Y-104938855D01*
X169534001Y-104907865D01*
X169494646Y-104899500D01*
X169305354Y-104899500D01*
X169272897Y-104906398D01*
X169120197Y-104938855D01*
X169120192Y-104938857D01*
X168947270Y-105015848D01*
X168947265Y-105015851D01*
X168794129Y-105127111D01*
X168667466Y-105267785D01*
X168572821Y-105431715D01*
X168572818Y-105431722D01*
X168517730Y-105601267D01*
X168514326Y-105611744D01*
X168494540Y-105800000D01*
X168514326Y-105988256D01*
X168514327Y-105988259D01*
X168572818Y-106168277D01*
X168572821Y-106168284D01*
X168609443Y-106231716D01*
X168632887Y-106272321D01*
X168649500Y-106334321D01*
X168649500Y-106537770D01*
X168629815Y-106604809D01*
X168613181Y-106625451D01*
X167925451Y-107313181D01*
X167864128Y-107346666D01*
X167837770Y-107349500D01*
X167715398Y-107349500D01*
X167648359Y-107329815D01*
X167602604Y-107277011D01*
X167592660Y-107207853D01*
X167621685Y-107144297D01*
X167623248Y-107142528D01*
X167632533Y-107132216D01*
X167727179Y-106968284D01*
X167785674Y-106788256D01*
X167805460Y-106600000D01*
X167785674Y-106411744D01*
X167727179Y-106231716D01*
X167632533Y-106067784D01*
X167550999Y-105977232D01*
X167521533Y-105918453D01*
X167501463Y-105817549D01*
X167485105Y-105778058D01*
X167485105Y-105778057D01*
X167454314Y-105703720D01*
X167454307Y-105703707D01*
X167385858Y-105601267D01*
X167385855Y-105601263D01*
X167295637Y-105511045D01*
X167295606Y-105511016D01*
X166490198Y-104705608D01*
X166490178Y-104705586D01*
X166398733Y-104614141D01*
X166343522Y-104577251D01*
X166343521Y-104577250D01*
X166296290Y-104545690D01*
X166296286Y-104545688D01*
X166215792Y-104512347D01*
X166182452Y-104498537D01*
X166182444Y-104498535D01*
X166101589Y-104482451D01*
X166101580Y-104482451D01*
X166061607Y-104474500D01*
X166061606Y-104474500D01*
X163710452Y-104474500D01*
X163643413Y-104454815D01*
X163622771Y-104438181D01*
X163538960Y-104354370D01*
X163505475Y-104293047D01*
X163503323Y-104279671D01*
X163485674Y-104111744D01*
X163427179Y-103931716D01*
X163332533Y-103767784D01*
X163205871Y-103627112D01*
X163205870Y-103627111D01*
X163052734Y-103515851D01*
X163052729Y-103515848D01*
X162879807Y-103438857D01*
X162879802Y-103438855D01*
X162734001Y-103407865D01*
X162694646Y-103399500D01*
X162505354Y-103399500D01*
X162472897Y-103406398D01*
X162320197Y-103438855D01*
X162320192Y-103438857D01*
X162147270Y-103515848D01*
X162147265Y-103515851D01*
X161994129Y-103627111D01*
X161867466Y-103767785D01*
X161772821Y-103931715D01*
X161772818Y-103931722D01*
X161718623Y-104098519D01*
X161714326Y-104111744D01*
X161694540Y-104300000D01*
X161714326Y-104488256D01*
X161714327Y-104488259D01*
X161772818Y-104668277D01*
X161772821Y-104668284D01*
X161867467Y-104832216D01*
X161963487Y-104938857D01*
X161994129Y-104972888D01*
X162147265Y-105084148D01*
X162147270Y-105084151D01*
X162320192Y-105161142D01*
X162320197Y-105161144D01*
X162505354Y-105200500D01*
X162564548Y-105200500D01*
X162631587Y-105220185D01*
X162652229Y-105236819D01*
X162911016Y-105495606D01*
X162911045Y-105495637D01*
X163001266Y-105585858D01*
X163069018Y-105631128D01*
X163069019Y-105631129D01*
X163103710Y-105654309D01*
X163103709Y-105654309D01*
X163103712Y-105654310D01*
X163103715Y-105654312D01*
X163170396Y-105681931D01*
X163170398Y-105681933D01*
X163193884Y-105691661D01*
X163217548Y-105701463D01*
X163277971Y-105713481D01*
X163292622Y-105716395D01*
X163293334Y-105716537D01*
X163355243Y-105748924D01*
X163389815Y-105809642D01*
X163386072Y-105879411D01*
X163345203Y-105936081D01*
X163280184Y-105961660D01*
X163269137Y-105962153D01*
X162626684Y-105962153D01*
X162559645Y-105942468D01*
X162553799Y-105938471D01*
X162540081Y-105928504D01*
X162540076Y-105928501D01*
X162367154Y-105851510D01*
X162367149Y-105851508D01*
X162207379Y-105817549D01*
X162181993Y-105812153D01*
X161992701Y-105812153D01*
X161967315Y-105817549D01*
X161807544Y-105851508D01*
X161807539Y-105851510D01*
X161634617Y-105928501D01*
X161634612Y-105928504D01*
X161481476Y-106039764D01*
X161354813Y-106180438D01*
X161260168Y-106344368D01*
X161260165Y-106344375D01*
X161205987Y-106511119D01*
X161201673Y-106524397D01*
X161181887Y-106712653D01*
X145625500Y-106712653D01*
X145625500Y-101473687D01*
X145645185Y-101406648D01*
X145657350Y-101390715D01*
X145675891Y-101370122D01*
X145732533Y-101307216D01*
X145827179Y-101143284D01*
X145885674Y-100963256D01*
X145905460Y-100775000D01*
X145885674Y-100586744D01*
X145827179Y-100406716D01*
X145732533Y-100242784D01*
X145605871Y-100102112D01*
X145605870Y-100102111D01*
X145452734Y-99990851D01*
X145452729Y-99990848D01*
X145279807Y-99913857D01*
X145279802Y-99913855D01*
X145134001Y-99882865D01*
X145094646Y-99874500D01*
X144905354Y-99874500D01*
X144872897Y-99881398D01*
X144720197Y-99913855D01*
X144720192Y-99913857D01*
X144547270Y-99990848D01*
X144547265Y-99990851D01*
X144394129Y-100102111D01*
X144267466Y-100242785D01*
X144172821Y-100406715D01*
X144172818Y-100406722D01*
X144114327Y-100586740D01*
X144114326Y-100586744D01*
X144094540Y-100775000D01*
X144114326Y-100963256D01*
X144114327Y-100963259D01*
X144172818Y-101143277D01*
X144172821Y-101143284D01*
X144267467Y-101307216D01*
X144310772Y-101355310D01*
X144342650Y-101390715D01*
X144372880Y-101453706D01*
X144374500Y-101473687D01*
X144374500Y-108501312D01*
X144354815Y-108568351D01*
X144342650Y-108584284D01*
X144267466Y-108667784D01*
X144172821Y-108831715D01*
X144172818Y-108831722D01*
X144117979Y-109000500D01*
X144114326Y-109011744D01*
X144094540Y-109200000D01*
X144114326Y-109388256D01*
X144114327Y-109388259D01*
X144167206Y-109551004D01*
X144169201Y-109620845D01*
X144133121Y-109680678D01*
X144070420Y-109711506D01*
X144001005Y-109703541D01*
X143961594Y-109677003D01*
X143838960Y-109554369D01*
X143805475Y-109493046D01*
X143803323Y-109479668D01*
X143785674Y-109311744D01*
X143727179Y-109131716D01*
X143632533Y-108967784D01*
X143505871Y-108827112D01*
X143505870Y-108827111D01*
X143352732Y-108715850D01*
X143352729Y-108715848D01*
X143179807Y-108638857D01*
X143179802Y-108638855D01*
X143034001Y-108607865D01*
X142994646Y-108599500D01*
X142805354Y-108599500D01*
X142804569Y-108599666D01*
X142804104Y-108599631D01*
X142798897Y-108600179D01*
X142798796Y-108599226D01*
X142734904Y-108594347D01*
X142679173Y-108552207D01*
X142655071Y-108486626D01*
X142670251Y-108418425D01*
X142719779Y-108369320D01*
X142920909Y-108260474D01*
X143117144Y-108107738D01*
X143285564Y-107924785D01*
X143421573Y-107716607D01*
X143521463Y-107488881D01*
X143582508Y-107247821D01*
X143583251Y-107238855D01*
X143603043Y-107000005D01*
X143603043Y-106999994D01*
X143582509Y-106752187D01*
X143582507Y-106752175D01*
X143521463Y-106511118D01*
X143421573Y-106283393D01*
X143285566Y-106075217D01*
X143205515Y-105988259D01*
X143117144Y-105892262D01*
X142920909Y-105739526D01*
X142920907Y-105739525D01*
X142920906Y-105739524D01*
X142702211Y-105621172D01*
X142702202Y-105621169D01*
X142467016Y-105540429D01*
X142221735Y-105499500D01*
X141973065Y-105499500D01*
X141727786Y-105540428D01*
X141626456Y-105575215D01*
X141556657Y-105578364D01*
X141496236Y-105543277D01*
X141464376Y-105481094D01*
X141471192Y-105411558D01*
X141494042Y-105374963D01*
X141532533Y-105332216D01*
X141627179Y-105168284D01*
X141685674Y-104988256D01*
X141705460Y-104800000D01*
X141685674Y-104611744D01*
X141627179Y-104431716D01*
X141532533Y-104267784D01*
X141405871Y-104127112D01*
X141405870Y-104127111D01*
X141252734Y-104015851D01*
X141252729Y-104015848D01*
X141079807Y-103938857D01*
X141079802Y-103938855D01*
X140912180Y-103903227D01*
X140894646Y-103899500D01*
X140735452Y-103899500D01*
X140668413Y-103879815D01*
X140647771Y-103863181D01*
X140461819Y-103677229D01*
X140428334Y-103615906D01*
X140425500Y-103589548D01*
X140425500Y-101198687D01*
X140445185Y-101131648D01*
X140457350Y-101115715D01*
X140485770Y-101084151D01*
X140532533Y-101032216D01*
X140627179Y-100868284D01*
X140685674Y-100688256D01*
X140705460Y-100500000D01*
X140685674Y-100311744D01*
X140627179Y-100131716D01*
X140532533Y-99967784D01*
X140405871Y-99827112D01*
X140405870Y-99827111D01*
X140252734Y-99715851D01*
X140252729Y-99715848D01*
X140079807Y-99638857D01*
X140079802Y-99638855D01*
X139927964Y-99606582D01*
X139894646Y-99599500D01*
X139705354Y-99599500D01*
X139672897Y-99606398D01*
X139520197Y-99638855D01*
X139520192Y-99638857D01*
X139347270Y-99715848D01*
X139347265Y-99715851D01*
X139194129Y-99827111D01*
X139067466Y-99967785D01*
X138972821Y-100131715D01*
X138972818Y-100131722D01*
X138936732Y-100242785D01*
X138914326Y-100311744D01*
X138894540Y-100500000D01*
X138914326Y-100688256D01*
X138914327Y-100688259D01*
X138972818Y-100868277D01*
X138972821Y-100868284D01*
X139067467Y-101032216D01*
X139099493Y-101067784D01*
X139142650Y-101115715D01*
X139172880Y-101178706D01*
X139174500Y-101198687D01*
X139174500Y-103961611D01*
X139198535Y-104082444D01*
X139198540Y-104082461D01*
X139245685Y-104196281D01*
X139245688Y-104196286D01*
X139273823Y-104238391D01*
X139273824Y-104238394D01*
X139314138Y-104298728D01*
X139314144Y-104298736D01*
X139405586Y-104390178D01*
X139405608Y-104390198D01*
X139872783Y-104857373D01*
X139906268Y-104918696D01*
X139908422Y-104932086D01*
X139914326Y-104988256D01*
X139914327Y-104988258D01*
X139914327Y-104988260D01*
X139972818Y-105168277D01*
X139972821Y-105168284D01*
X140067467Y-105332216D01*
X140194129Y-105472888D01*
X140347265Y-105584148D01*
X140347270Y-105584151D01*
X140520192Y-105661142D01*
X140520197Y-105661144D01*
X140705354Y-105700500D01*
X140705355Y-105700500D01*
X140894644Y-105700500D01*
X140894646Y-105700500D01*
X140961239Y-105686345D01*
X141030905Y-105691661D01*
X141086639Y-105733798D01*
X141110744Y-105799377D01*
X141095567Y-105867579D01*
X141078249Y-105891618D01*
X140909233Y-106075217D01*
X140773226Y-106283393D01*
X140673336Y-106511118D01*
X140612292Y-106752175D01*
X140612290Y-106752187D01*
X140591757Y-106999994D01*
X140591757Y-107000005D01*
X140612290Y-107247812D01*
X140612292Y-107247824D01*
X140673336Y-107488881D01*
X140773226Y-107716606D01*
X140909233Y-107924782D01*
X140909236Y-107924785D01*
X141077656Y-108107738D01*
X141273891Y-108260474D01*
X141492590Y-108378828D01*
X141727786Y-108459571D01*
X141973065Y-108500500D01*
X142221734Y-108500500D01*
X142221735Y-108500500D01*
X142396447Y-108471346D01*
X142465812Y-108479728D01*
X142519634Y-108524281D01*
X142540824Y-108590860D01*
X142522656Y-108658326D01*
X142470897Y-108705259D01*
X142467294Y-108706933D01*
X142447272Y-108715847D01*
X142447268Y-108715850D01*
X142294129Y-108827111D01*
X142167466Y-108967785D01*
X142072821Y-109131715D01*
X142072818Y-109131722D01*
X142018805Y-109297958D01*
X142014326Y-109311744D01*
X141994540Y-109500000D01*
X142014326Y-109688256D01*
X142014327Y-109688259D01*
X142063797Y-109840512D01*
X142065792Y-109910353D01*
X142029712Y-109970186D01*
X141967011Y-110001014D01*
X141966276Y-110001139D01*
X141727906Y-110040916D01*
X141492796Y-110121630D01*
X141492785Y-110121635D01*
X141274170Y-110239943D01*
X141227343Y-110276389D01*
X141927166Y-110976212D01*
X141885108Y-110987482D01*
X141759692Y-111059890D01*
X141657290Y-111162292D01*
X141584882Y-111287708D01*
X141573612Y-111329766D01*
X140873963Y-110630117D01*
X140773667Y-110783633D01*
X140773665Y-110783637D01*
X140673812Y-111011282D01*
X140612787Y-111252261D01*
X140612785Y-111252270D01*
X140592259Y-111499994D01*
X140592259Y-111500005D01*
X140612785Y-111747729D01*
X140612787Y-111747738D01*
X140673812Y-111988717D01*
X140773667Y-112216367D01*
X140873962Y-112369881D01*
X141573612Y-111670233D01*
X141584882Y-111712292D01*
X141657290Y-111837708D01*
X141759692Y-111940110D01*
X141885108Y-112012518D01*
X141927166Y-112023787D01*
X141312773Y-112638181D01*
X141251450Y-112671666D01*
X141225092Y-112674500D01*
X136469708Y-112674500D01*
X136402669Y-112654815D01*
X136382027Y-112638181D01*
X135767633Y-112023787D01*
X135809692Y-112012518D01*
X135935108Y-111940110D01*
X136037510Y-111837708D01*
X136109918Y-111712292D01*
X136121187Y-111670233D01*
X136820835Y-112369882D01*
X136921133Y-112216364D01*
X137020987Y-111988717D01*
X137082012Y-111747738D01*
X137082014Y-111747729D01*
X137102541Y-111500005D01*
X137102541Y-111499994D01*
X137082014Y-111252270D01*
X137082012Y-111252261D01*
X137020987Y-111011282D01*
X137015737Y-110999312D01*
X137006833Y-110930012D01*
X137036809Y-110866899D01*
X137096148Y-110830012D01*
X137129292Y-110825500D01*
X138496252Y-110825500D01*
X138563291Y-110845185D01*
X138588400Y-110866526D01*
X138594126Y-110872885D01*
X138594130Y-110872889D01*
X138747265Y-110984148D01*
X138747270Y-110984151D01*
X138920192Y-111061142D01*
X138920197Y-111061144D01*
X139105354Y-111100500D01*
X139105355Y-111100500D01*
X139294644Y-111100500D01*
X139294646Y-111100500D01*
X139479803Y-111061144D01*
X139652730Y-110984151D01*
X139805871Y-110872888D01*
X139932533Y-110732216D01*
X140027179Y-110568284D01*
X140085674Y-110388256D01*
X140105460Y-110200000D01*
X140085674Y-110011744D01*
X140027179Y-109831716D01*
X139932533Y-109667784D01*
X139805871Y-109527112D01*
X139805870Y-109527111D01*
X139652734Y-109415851D01*
X139652729Y-109415848D01*
X139479807Y-109338857D01*
X139479802Y-109338855D01*
X139334001Y-109307865D01*
X139294646Y-109299500D01*
X139105354Y-109299500D01*
X139072897Y-109306398D01*
X138920197Y-109338855D01*
X138920192Y-109338857D01*
X138747270Y-109415848D01*
X138747265Y-109415851D01*
X138594130Y-109527110D01*
X138594126Y-109527114D01*
X138588400Y-109533474D01*
X138528913Y-109570121D01*
X138496252Y-109574500D01*
X138314325Y-109574500D01*
X138247286Y-109554815D01*
X138201531Y-109502011D01*
X138191004Y-109437539D01*
X138205460Y-109300000D01*
X138185674Y-109111744D01*
X138127179Y-108931716D01*
X138032533Y-108767784D01*
X138000063Y-108731722D01*
X137957350Y-108684284D01*
X137927120Y-108621292D01*
X137925500Y-108601312D01*
X137925500Y-101198687D01*
X137945185Y-101131648D01*
X137957350Y-101115715D01*
X137985770Y-101084151D01*
X138032533Y-101032216D01*
X138127179Y-100868284D01*
X138185674Y-100688256D01*
X138205460Y-100500000D01*
X138185674Y-100311744D01*
X138127179Y-100131716D01*
X138032533Y-99967784D01*
X137905871Y-99827112D01*
X137905870Y-99827111D01*
X137752734Y-99715851D01*
X137752729Y-99715848D01*
X137579807Y-99638857D01*
X137579802Y-99638855D01*
X137427964Y-99606582D01*
X137394646Y-99599500D01*
X137205354Y-99599500D01*
X137172897Y-99606398D01*
X137020197Y-99638855D01*
X137020192Y-99638857D01*
X136847270Y-99715848D01*
X136847266Y-99715850D01*
X136822384Y-99733929D01*
X136756578Y-99757408D01*
X136688524Y-99741582D01*
X136639830Y-99691476D01*
X136625500Y-99633610D01*
X136625500Y-97000000D01*
X163294540Y-97000000D01*
X163314326Y-97188256D01*
X163314327Y-97188259D01*
X163372818Y-97368277D01*
X163372821Y-97368284D01*
X163467467Y-97532216D01*
X163557506Y-97632214D01*
X163594129Y-97672888D01*
X163747265Y-97784148D01*
X163747270Y-97784151D01*
X163920192Y-97861142D01*
X163920197Y-97861144D01*
X164105354Y-97900500D01*
X164105355Y-97900500D01*
X164294644Y-97900500D01*
X164294646Y-97900500D01*
X164479803Y-97861144D01*
X164652730Y-97784151D01*
X164654776Y-97782664D01*
X164666452Y-97774182D01*
X164732258Y-97750702D01*
X164739337Y-97750500D01*
X166523025Y-97750500D01*
X166590064Y-97770185D01*
X166595910Y-97774182D01*
X166747265Y-97884148D01*
X166747270Y-97884151D01*
X166920192Y-97961142D01*
X166920197Y-97961144D01*
X167105354Y-98000500D01*
X167105355Y-98000500D01*
X167294644Y-98000500D01*
X167294646Y-98000500D01*
X167479803Y-97961144D01*
X167652730Y-97884151D01*
X167805871Y-97772888D01*
X167932533Y-97632216D01*
X168027179Y-97468284D01*
X168085674Y-97288256D01*
X168105460Y-97100000D01*
X168085674Y-96911744D01*
X168027179Y-96731716D01*
X167932533Y-96567784D01*
X167805871Y-96427112D01*
X167805870Y-96427111D01*
X167652734Y-96315851D01*
X167652729Y-96315848D01*
X167479807Y-96238857D01*
X167479802Y-96238855D01*
X167334001Y-96207865D01*
X167294646Y-96199500D01*
X167105354Y-96199500D01*
X167065999Y-96207865D01*
X166920198Y-96238855D01*
X166914014Y-96240865D01*
X166913790Y-96240178D01*
X166869933Y-96249500D01*
X164739337Y-96249500D01*
X164672298Y-96229815D01*
X164666452Y-96225818D01*
X164652734Y-96215851D01*
X164652729Y-96215848D01*
X164479807Y-96138857D01*
X164479802Y-96138855D01*
X164334001Y-96107865D01*
X164294646Y-96099500D01*
X164105354Y-96099500D01*
X164072897Y-96106398D01*
X163920197Y-96138855D01*
X163920192Y-96138857D01*
X163747270Y-96215848D01*
X163747265Y-96215851D01*
X163594129Y-96327111D01*
X163467466Y-96467785D01*
X163372821Y-96631715D01*
X163372818Y-96631722D01*
X163314327Y-96811740D01*
X163314326Y-96811744D01*
X163294540Y-97000000D01*
X136625500Y-97000000D01*
X136625500Y-95798687D01*
X136645185Y-95731648D01*
X136657350Y-95715715D01*
X136685770Y-95684151D01*
X136732533Y-95632216D01*
X136827179Y-95468284D01*
X136885674Y-95288256D01*
X136905460Y-95100000D01*
X136885674Y-94911744D01*
X136827179Y-94731716D01*
X136732533Y-94567784D01*
X136605871Y-94427112D01*
X136605870Y-94427111D01*
X136452734Y-94315851D01*
X136452729Y-94315848D01*
X136279807Y-94238857D01*
X136279802Y-94238855D01*
X136134001Y-94207865D01*
X136094646Y-94199500D01*
X135905354Y-94199500D01*
X135872897Y-94206398D01*
X135720197Y-94238855D01*
X135720192Y-94238857D01*
X135547270Y-94315848D01*
X135547265Y-94315851D01*
X135394129Y-94427111D01*
X135267466Y-94567785D01*
X135172821Y-94731715D01*
X135172818Y-94731722D01*
X135118142Y-94900000D01*
X135114326Y-94911744D01*
X135094540Y-95100000D01*
X135114326Y-95288256D01*
X135114327Y-95288259D01*
X135172818Y-95468277D01*
X135172820Y-95468282D01*
X135172821Y-95468284D01*
X135267467Y-95632216D01*
X135310772Y-95680310D01*
X135342650Y-95715715D01*
X135372880Y-95778706D01*
X135374500Y-95798687D01*
X135374500Y-99506264D01*
X135354815Y-99573303D01*
X135302011Y-99619058D01*
X135232853Y-99629002D01*
X135177615Y-99606582D01*
X135052734Y-99515851D01*
X135052729Y-99515848D01*
X134879807Y-99438857D01*
X134879802Y-99438855D01*
X134734001Y-99407865D01*
X134694646Y-99399500D01*
X134505354Y-99399500D01*
X134472897Y-99406398D01*
X134320197Y-99438855D01*
X134320192Y-99438857D01*
X134147270Y-99515848D01*
X134147265Y-99515851D01*
X133994129Y-99627111D01*
X133867466Y-99767785D01*
X133772821Y-99931715D01*
X133772818Y-99931722D01*
X133714327Y-100111740D01*
X133714326Y-100111744D01*
X133696679Y-100279650D01*
X133670094Y-100344264D01*
X133661039Y-100354369D01*
X133077229Y-100938181D01*
X133015906Y-100971666D01*
X132989548Y-100974500D01*
X120403748Y-100974500D01*
X120336709Y-100954815D01*
X120311600Y-100933474D01*
X120305873Y-100927114D01*
X120305869Y-100927110D01*
X120152734Y-100815851D01*
X120152729Y-100815848D01*
X119979807Y-100738857D01*
X119979802Y-100738855D01*
X119834001Y-100707865D01*
X119794646Y-100699500D01*
X119605354Y-100699500D01*
X119572897Y-100706398D01*
X119420197Y-100738855D01*
X119420192Y-100738857D01*
X119247270Y-100815848D01*
X119247265Y-100815851D01*
X119094129Y-100927111D01*
X118967466Y-101067785D01*
X118872821Y-101231715D01*
X118872818Y-101231722D01*
X118814327Y-101411740D01*
X118814326Y-101411744D01*
X118794540Y-101600000D01*
X113150500Y-101600000D01*
X113150500Y-96262228D01*
X113170185Y-96195189D01*
X113186815Y-96174551D01*
X113552770Y-95808595D01*
X113614091Y-95775112D01*
X113614427Y-95775039D01*
X113679803Y-95761144D01*
X113852730Y-95684151D01*
X114005871Y-95572888D01*
X114132533Y-95432216D01*
X114227179Y-95268284D01*
X114285674Y-95088256D01*
X114305460Y-94900000D01*
X114285674Y-94711744D01*
X114227179Y-94531716D01*
X114132533Y-94367784D01*
X114005871Y-94227112D01*
X114005870Y-94227111D01*
X113852734Y-94115851D01*
X113852729Y-94115848D01*
X113679807Y-94038857D01*
X113679802Y-94038855D01*
X113534001Y-94007865D01*
X113494646Y-93999500D01*
X113305354Y-93999500D01*
X113272897Y-94006398D01*
X113120197Y-94038855D01*
X113120192Y-94038857D01*
X112947270Y-94115848D01*
X112947265Y-94115851D01*
X112794129Y-94227111D01*
X112667466Y-94367785D01*
X112572821Y-94531715D01*
X112572819Y-94531719D01*
X112517478Y-94702041D01*
X112487228Y-94751403D01*
X111817045Y-95421586D01*
X111794743Y-95454965D01*
X111785845Y-95468284D01*
X111760292Y-95506525D01*
X111734914Y-95544507D01*
X111678343Y-95681082D01*
X111678340Y-95681092D01*
X111649500Y-95826079D01*
X111649500Y-102765677D01*
X111632887Y-102827677D01*
X111572821Y-102931714D01*
X111514327Y-103111740D01*
X111514326Y-103111744D01*
X111494540Y-103300000D01*
X109000000Y-103300000D01*
X109000000Y-92300000D01*
X145394540Y-92300000D01*
X145414326Y-92488256D01*
X145414327Y-92488259D01*
X145472818Y-92668277D01*
X145472821Y-92668284D01*
X145567467Y-92832216D01*
X145689977Y-92968277D01*
X145694129Y-92972888D01*
X145847265Y-93084148D01*
X145847270Y-93084151D01*
X146020192Y-93161142D01*
X146020197Y-93161144D01*
X146205354Y-93200500D01*
X146205355Y-93200500D01*
X146394644Y-93200500D01*
X146394646Y-93200500D01*
X146579803Y-93161144D01*
X146752730Y-93084151D01*
X146754776Y-93082664D01*
X146766452Y-93074182D01*
X146832258Y-93050702D01*
X146839337Y-93050500D01*
X152860663Y-93050500D01*
X152927702Y-93070185D01*
X152933548Y-93074182D01*
X152947265Y-93084148D01*
X152947270Y-93084151D01*
X153120192Y-93161142D01*
X153120197Y-93161144D01*
X153305354Y-93200500D01*
X153305355Y-93200500D01*
X153494644Y-93200500D01*
X153494646Y-93200500D01*
X153679803Y-93161144D01*
X153852730Y-93084151D01*
X154005871Y-92972888D01*
X154132533Y-92832216D01*
X154227179Y-92668284D01*
X154249366Y-92600000D01*
X158894540Y-92600000D01*
X158914326Y-92788256D01*
X158914327Y-92788259D01*
X158972818Y-92968277D01*
X158972821Y-92968284D01*
X159067467Y-93132216D01*
X159194129Y-93272888D01*
X159347265Y-93384148D01*
X159347270Y-93384151D01*
X159520191Y-93461142D01*
X159520193Y-93461142D01*
X159520197Y-93461144D01*
X159585329Y-93474987D01*
X159646809Y-93508178D01*
X159647228Y-93508596D01*
X161137228Y-94998595D01*
X161167478Y-95047958D01*
X161222818Y-95218277D01*
X161222821Y-95218284D01*
X161317467Y-95382216D01*
X161394964Y-95468285D01*
X161444129Y-95522888D01*
X161597265Y-95634148D01*
X161597270Y-95634151D01*
X161770192Y-95711142D01*
X161770197Y-95711144D01*
X161955354Y-95750500D01*
X161955355Y-95750500D01*
X162144644Y-95750500D01*
X162144646Y-95750500D01*
X162329803Y-95711144D01*
X162502730Y-95634151D01*
X162655871Y-95522888D01*
X162782533Y-95382216D01*
X162877179Y-95218284D01*
X162935674Y-95038256D01*
X162955460Y-94850000D01*
X162935674Y-94661744D01*
X162877179Y-94481716D01*
X162782533Y-94317784D01*
X162655871Y-94177112D01*
X162655870Y-94177111D01*
X162502734Y-94065851D01*
X162502729Y-94065848D01*
X162329807Y-93988857D01*
X162329802Y-93988855D01*
X162264669Y-93975011D01*
X162203187Y-93941818D01*
X162202769Y-93941402D01*
X160712770Y-92451402D01*
X160682521Y-92402041D01*
X160627179Y-92231716D01*
X160532533Y-92067784D01*
X160405871Y-91927112D01*
X160405870Y-91927111D01*
X160252734Y-91815851D01*
X160252729Y-91815848D01*
X160079807Y-91738857D01*
X160079802Y-91738855D01*
X159934001Y-91707865D01*
X159894646Y-91699500D01*
X159705354Y-91699500D01*
X159672897Y-91706398D01*
X159520197Y-91738855D01*
X159520192Y-91738857D01*
X159347270Y-91815848D01*
X159347265Y-91815851D01*
X159194129Y-91927111D01*
X159067466Y-92067785D01*
X158972821Y-92231715D01*
X158972818Y-92231722D01*
X158917479Y-92402039D01*
X158914326Y-92411744D01*
X158894540Y-92600000D01*
X154249366Y-92600000D01*
X154285674Y-92488256D01*
X154305460Y-92300000D01*
X154285674Y-92111744D01*
X154227179Y-91931716D01*
X154132533Y-91767784D01*
X154005871Y-91627112D01*
X154005870Y-91627111D01*
X153852734Y-91515851D01*
X153852729Y-91515848D01*
X153679807Y-91438857D01*
X153679802Y-91438855D01*
X153534001Y-91407865D01*
X153494646Y-91399500D01*
X153305354Y-91399500D01*
X153272897Y-91406398D01*
X153120197Y-91438855D01*
X153120192Y-91438857D01*
X152947270Y-91515848D01*
X152947265Y-91515851D01*
X152933548Y-91525818D01*
X152867742Y-91549298D01*
X152860663Y-91549500D01*
X146839337Y-91549500D01*
X146772298Y-91529815D01*
X146766452Y-91525818D01*
X146752734Y-91515851D01*
X146752729Y-91515848D01*
X146579807Y-91438857D01*
X146579802Y-91438855D01*
X146434001Y-91407865D01*
X146394646Y-91399500D01*
X146205354Y-91399500D01*
X146172897Y-91406398D01*
X146020197Y-91438855D01*
X146020192Y-91438857D01*
X145847270Y-91515848D01*
X145847265Y-91515851D01*
X145694129Y-91627111D01*
X145567466Y-91767785D01*
X145472821Y-91931715D01*
X145472818Y-91931722D01*
X145428609Y-92067785D01*
X145414326Y-92111744D01*
X145394540Y-92300000D01*
X109000000Y-92300000D01*
X109000000Y-86200000D01*
X143194540Y-86200000D01*
X143214326Y-86388256D01*
X143214327Y-86388259D01*
X143272818Y-86568277D01*
X143272821Y-86568284D01*
X143367467Y-86732216D01*
X143469185Y-86845185D01*
X143494129Y-86872888D01*
X143647265Y-86984148D01*
X143647270Y-86984151D01*
X143820192Y-87061142D01*
X143820197Y-87061144D01*
X144005354Y-87100500D01*
X144005355Y-87100500D01*
X144194644Y-87100500D01*
X144194646Y-87100500D01*
X144379803Y-87061144D01*
X144552730Y-86984151D01*
X144705871Y-86872888D01*
X144708788Y-86869647D01*
X144711600Y-86866526D01*
X144771087Y-86829879D01*
X144803748Y-86825500D01*
X146226253Y-86825500D01*
X146293292Y-86845185D01*
X146299138Y-86849182D01*
X146347265Y-86884148D01*
X146347270Y-86884151D01*
X146520192Y-86961142D01*
X146520197Y-86961144D01*
X146705354Y-87000500D01*
X146705355Y-87000500D01*
X146894644Y-87000500D01*
X146894646Y-87000500D01*
X147079803Y-86961144D01*
X147252730Y-86884151D01*
X147405871Y-86772888D01*
X147532533Y-86632216D01*
X147627179Y-86468284D01*
X147685674Y-86288256D01*
X147705460Y-86100000D01*
X147685674Y-85911744D01*
X147627179Y-85731716D01*
X147532533Y-85567784D01*
X147405871Y-85427112D01*
X147405870Y-85427111D01*
X147252734Y-85315851D01*
X147252729Y-85315848D01*
X147079807Y-85238857D01*
X147079802Y-85238855D01*
X146934001Y-85207865D01*
X146894646Y-85199500D01*
X146705354Y-85199500D01*
X146672897Y-85206398D01*
X146520197Y-85238855D01*
X146520192Y-85238857D01*
X146347270Y-85315848D01*
X146347265Y-85315851D01*
X146194129Y-85427111D01*
X146119047Y-85510498D01*
X146104089Y-85527112D01*
X146098362Y-85533472D01*
X146038875Y-85570121D01*
X146006212Y-85574500D01*
X144803748Y-85574500D01*
X144736709Y-85554815D01*
X144711600Y-85533474D01*
X144705873Y-85527114D01*
X144705869Y-85527110D01*
X144552734Y-85415851D01*
X144552729Y-85415848D01*
X144379807Y-85338857D01*
X144379802Y-85338855D01*
X144234001Y-85307865D01*
X144194646Y-85299500D01*
X144005354Y-85299500D01*
X143972897Y-85306398D01*
X143820197Y-85338855D01*
X143820192Y-85338857D01*
X143647270Y-85415848D01*
X143647265Y-85415851D01*
X143494129Y-85527111D01*
X143367466Y-85667785D01*
X143272821Y-85831715D01*
X143272818Y-85831722D01*
X143214327Y-86011740D01*
X143214326Y-86011744D01*
X143194540Y-86200000D01*
X109000000Y-86200000D01*
X109000000Y-74600000D01*
X119294540Y-74600000D01*
X119314326Y-74788256D01*
X119314327Y-74788259D01*
X119372818Y-74968277D01*
X119372821Y-74968284D01*
X119467467Y-75132216D01*
X119484459Y-75151087D01*
X119542650Y-75215715D01*
X119572880Y-75278706D01*
X119574500Y-75298687D01*
X119574500Y-82461611D01*
X119598535Y-82582444D01*
X119598540Y-82582461D01*
X119645685Y-82696280D01*
X119645687Y-82696283D01*
X119645688Y-82696286D01*
X119661765Y-82720347D01*
X119668705Y-82730732D01*
X119668706Y-82730734D01*
X119714141Y-82798732D01*
X119714144Y-82798736D01*
X119805586Y-82890178D01*
X119805608Y-82890198D01*
X121011038Y-84095628D01*
X121044523Y-84156951D01*
X121046678Y-84170347D01*
X121048624Y-84188857D01*
X121064326Y-84338256D01*
X121064327Y-84338259D01*
X121122818Y-84518277D01*
X121122821Y-84518284D01*
X121217467Y-84682216D01*
X121344129Y-84822888D01*
X121497265Y-84934148D01*
X121497270Y-84934151D01*
X121670192Y-85011142D01*
X121670197Y-85011144D01*
X121855354Y-85050500D01*
X121855355Y-85050500D01*
X122044644Y-85050500D01*
X122044646Y-85050500D01*
X122229803Y-85011144D01*
X122402730Y-84934151D01*
X122555871Y-84822888D01*
X122682533Y-84682216D01*
X122777179Y-84518284D01*
X122835674Y-84338256D01*
X122855460Y-84150000D01*
X122835674Y-83961744D01*
X122777179Y-83781716D01*
X122682533Y-83617784D01*
X122555871Y-83477112D01*
X122515126Y-83447509D01*
X122402734Y-83365851D01*
X122402729Y-83365848D01*
X122229807Y-83288857D01*
X122229802Y-83288855D01*
X122084001Y-83257865D01*
X122044646Y-83249500D01*
X122044645Y-83249500D01*
X121985452Y-83249500D01*
X121918413Y-83229815D01*
X121897771Y-83213181D01*
X120861819Y-82177229D01*
X120828334Y-82115906D01*
X120825500Y-82089548D01*
X120825500Y-75298687D01*
X120845185Y-75231648D01*
X120857350Y-75215715D01*
X120875891Y-75195122D01*
X120932533Y-75132216D01*
X121027179Y-74968284D01*
X121085674Y-74788256D01*
X121105460Y-74600000D01*
X121594540Y-74600000D01*
X121614326Y-74788256D01*
X121614327Y-74788259D01*
X121672818Y-74968277D01*
X121672821Y-74968284D01*
X121757887Y-75115623D01*
X121774500Y-75177622D01*
X121774500Y-81361606D01*
X121792527Y-81452240D01*
X121798537Y-81482453D01*
X121805806Y-81499999D01*
X121805807Y-81500003D01*
X121845685Y-81596280D01*
X121845690Y-81596289D01*
X121879914Y-81647507D01*
X121879915Y-81647509D01*
X121914141Y-81698733D01*
X122005586Y-81790178D01*
X122005608Y-81790198D01*
X122861038Y-82645628D01*
X122894523Y-82706951D01*
X122896678Y-82720347D01*
X122897770Y-82730732D01*
X122914326Y-82888256D01*
X122914957Y-82890198D01*
X122972818Y-83068277D01*
X122972821Y-83068284D01*
X123067467Y-83232216D01*
X123118467Y-83288857D01*
X123194129Y-83372888D01*
X123347265Y-83484148D01*
X123347270Y-83484151D01*
X123520192Y-83561142D01*
X123520197Y-83561144D01*
X123705354Y-83600500D01*
X123705355Y-83600500D01*
X123894644Y-83600500D01*
X123894646Y-83600500D01*
X124079803Y-83561144D01*
X124252730Y-83484151D01*
X124405871Y-83372888D01*
X124532533Y-83232216D01*
X124627179Y-83068284D01*
X124685674Y-82888256D01*
X124705460Y-82700000D01*
X124685674Y-82511744D01*
X124627179Y-82331716D01*
X124532533Y-82167784D01*
X124405871Y-82027112D01*
X124349090Y-81985858D01*
X124252734Y-81915851D01*
X124252729Y-81915848D01*
X124079807Y-81838857D01*
X124079802Y-81838855D01*
X123934001Y-81807865D01*
X123894646Y-81799500D01*
X123894645Y-81799500D01*
X123835452Y-81799500D01*
X123768413Y-81779815D01*
X123747771Y-81763181D01*
X123061819Y-81077229D01*
X123028334Y-81015906D01*
X123025500Y-80989548D01*
X123025500Y-75394462D01*
X123045185Y-75327423D01*
X123076615Y-75294144D01*
X123086665Y-75286841D01*
X123105871Y-75272888D01*
X123232533Y-75132216D01*
X123327179Y-74968284D01*
X123385674Y-74788256D01*
X123405460Y-74600000D01*
X123394950Y-74500000D01*
X125594540Y-74500000D01*
X125614326Y-74688256D01*
X125614327Y-74688259D01*
X125672818Y-74868277D01*
X125672821Y-74868284D01*
X125767467Y-75032216D01*
X125784459Y-75051087D01*
X125842650Y-75115715D01*
X125872880Y-75178706D01*
X125874500Y-75198687D01*
X125874500Y-83161611D01*
X125898535Y-83282444D01*
X125898540Y-83282461D01*
X125945685Y-83396280D01*
X125945690Y-83396289D01*
X125979914Y-83447507D01*
X125979915Y-83447509D01*
X126014140Y-83498731D01*
X126014141Y-83498732D01*
X126014142Y-83498733D01*
X126101267Y-83585858D01*
X126101268Y-83585858D01*
X126108335Y-83592925D01*
X126108334Y-83592925D01*
X126108338Y-83592928D01*
X127511038Y-84995629D01*
X127544523Y-85056952D01*
X127546678Y-85070348D01*
X127554968Y-85149227D01*
X127564326Y-85238256D01*
X127564327Y-85238259D01*
X127622818Y-85418277D01*
X127622821Y-85418284D01*
X127717467Y-85582216D01*
X127794513Y-85667784D01*
X127844129Y-85722888D01*
X127997265Y-85834148D01*
X127997270Y-85834151D01*
X128170192Y-85911142D01*
X128170197Y-85911144D01*
X128355354Y-85950500D01*
X128355355Y-85950500D01*
X128544644Y-85950500D01*
X128544646Y-85950500D01*
X128729803Y-85911144D01*
X128902730Y-85834151D01*
X129055871Y-85722888D01*
X129182533Y-85582216D01*
X129277179Y-85418284D01*
X129335674Y-85238256D01*
X129355460Y-85050000D01*
X129335674Y-84861744D01*
X129281112Y-84693823D01*
X129277181Y-84681722D01*
X129277180Y-84681721D01*
X129277179Y-84681716D01*
X129182533Y-84517784D01*
X129055871Y-84377112D01*
X129055870Y-84377111D01*
X128902734Y-84265851D01*
X128902729Y-84265848D01*
X128729807Y-84188857D01*
X128729802Y-84188855D01*
X128579700Y-84156951D01*
X128544646Y-84149500D01*
X128544645Y-84149500D01*
X128485453Y-84149500D01*
X128418414Y-84129815D01*
X128397772Y-84113181D01*
X127161819Y-82877228D01*
X127128334Y-82815905D01*
X127125500Y-82789547D01*
X127125500Y-77875524D01*
X127145185Y-77808485D01*
X127197989Y-77762730D01*
X127267147Y-77752786D01*
X127330703Y-77781811D01*
X127352599Y-77806629D01*
X127366284Y-77827109D01*
X127366285Y-77827112D01*
X127366286Y-77827112D01*
X127414141Y-77898732D01*
X127414144Y-77898736D01*
X127505586Y-77990178D01*
X127505608Y-77990198D01*
X131411016Y-81895606D01*
X131411045Y-81895637D01*
X131501263Y-81985855D01*
X131501267Y-81985858D01*
X131603707Y-82054307D01*
X131603713Y-82054310D01*
X131603714Y-82054311D01*
X131717548Y-82101463D01*
X131777971Y-82113481D01*
X131838393Y-82125500D01*
X131838394Y-82125500D01*
X135496252Y-82125500D01*
X135563291Y-82145185D01*
X135588400Y-82166526D01*
X135594126Y-82172885D01*
X135594130Y-82172889D01*
X135747265Y-82284148D01*
X135747270Y-82284151D01*
X135920192Y-82361142D01*
X135920197Y-82361144D01*
X136105354Y-82400500D01*
X136105355Y-82400500D01*
X136294644Y-82400500D01*
X136294646Y-82400500D01*
X136479803Y-82361144D01*
X136652730Y-82284151D01*
X136805871Y-82172888D01*
X136932533Y-82032216D01*
X137027179Y-81868284D01*
X137085674Y-81688256D01*
X137105460Y-81500000D01*
X137085674Y-81311744D01*
X137027179Y-81131716D01*
X136932533Y-80967784D01*
X136805871Y-80827112D01*
X136805870Y-80827111D01*
X136652734Y-80715851D01*
X136652729Y-80715848D01*
X136479807Y-80638857D01*
X136479802Y-80638855D01*
X136334001Y-80607865D01*
X136294646Y-80599500D01*
X136105354Y-80599500D01*
X136072897Y-80606398D01*
X135920197Y-80638855D01*
X135920192Y-80638857D01*
X135747270Y-80715848D01*
X135747265Y-80715851D01*
X135594130Y-80827110D01*
X135594126Y-80827114D01*
X135588400Y-80833474D01*
X135528913Y-80870121D01*
X135496252Y-80874500D01*
X132210452Y-80874500D01*
X132143413Y-80854815D01*
X132122771Y-80838181D01*
X131559590Y-80275000D01*
X137694540Y-80275000D01*
X137714326Y-80463256D01*
X137714327Y-80463259D01*
X137772818Y-80643277D01*
X137772821Y-80643284D01*
X137867467Y-80807216D01*
X137928050Y-80874500D01*
X137994129Y-80947888D01*
X138147265Y-81059148D01*
X138147270Y-81059151D01*
X138320192Y-81136142D01*
X138320197Y-81136144D01*
X138505354Y-81175500D01*
X138564548Y-81175500D01*
X138631587Y-81195185D01*
X138652229Y-81211819D01*
X140076262Y-82635854D01*
X140076265Y-82635857D01*
X140143997Y-82681114D01*
X140178714Y-82704311D01*
X140178715Y-82704311D01*
X140178716Y-82704312D01*
X140178718Y-82704313D01*
X140185087Y-82706951D01*
X140246322Y-82732315D01*
X140291018Y-82763902D01*
X140344129Y-82822888D01*
X140497265Y-82934148D01*
X140497270Y-82934151D01*
X140670192Y-83011142D01*
X140670197Y-83011144D01*
X140855354Y-83050500D01*
X140855355Y-83050500D01*
X141044644Y-83050500D01*
X141044646Y-83050500D01*
X141229803Y-83011144D01*
X141402730Y-82934151D01*
X141555871Y-82822888D01*
X141682533Y-82682216D01*
X141777179Y-82518284D01*
X141835674Y-82338256D01*
X141855460Y-82150000D01*
X141835674Y-81961744D01*
X141779935Y-81790198D01*
X141777181Y-81781722D01*
X141777180Y-81781721D01*
X141777179Y-81781716D01*
X141682533Y-81617784D01*
X141555871Y-81477112D01*
X141555870Y-81477111D01*
X141402734Y-81365851D01*
X141402729Y-81365848D01*
X141229807Y-81288857D01*
X141229802Y-81288855D01*
X141084001Y-81257865D01*
X141044646Y-81249500D01*
X140855354Y-81249500D01*
X140822897Y-81256398D01*
X140670197Y-81288855D01*
X140670195Y-81288856D01*
X140629211Y-81307104D01*
X140559961Y-81316388D01*
X140496685Y-81286760D01*
X140491095Y-81281505D01*
X140016806Y-80807216D01*
X139538960Y-80329369D01*
X139505475Y-80268046D01*
X139503323Y-80254668D01*
X139485674Y-80086744D01*
X139427179Y-79906716D01*
X139332533Y-79742784D01*
X139205871Y-79602112D01*
X139205870Y-79602111D01*
X139052734Y-79490851D01*
X139052729Y-79490848D01*
X138879807Y-79413857D01*
X138879802Y-79413855D01*
X138734001Y-79382865D01*
X138694646Y-79374500D01*
X138505354Y-79374500D01*
X138472897Y-79381398D01*
X138320197Y-79413855D01*
X138320192Y-79413857D01*
X138147270Y-79490848D01*
X138147265Y-79490851D01*
X137994129Y-79602111D01*
X137867466Y-79742785D01*
X137772821Y-79906715D01*
X137772818Y-79906722D01*
X137714327Y-80086740D01*
X137714326Y-80086744D01*
X137694540Y-80275000D01*
X131559590Y-80275000D01*
X129784590Y-78500000D01*
X164894540Y-78500000D01*
X164914326Y-78688256D01*
X164914327Y-78688259D01*
X164972818Y-78868277D01*
X164972821Y-78868284D01*
X165067467Y-79032216D01*
X165110772Y-79080310D01*
X165142650Y-79115715D01*
X165172880Y-79178706D01*
X165174500Y-79198687D01*
X165174500Y-80801312D01*
X165154815Y-80868351D01*
X165142650Y-80884284D01*
X165067466Y-80967784D01*
X164972821Y-81131715D01*
X164972818Y-81131722D01*
X164914327Y-81311740D01*
X164914326Y-81311744D01*
X164894540Y-81500000D01*
X164914326Y-81688256D01*
X164914327Y-81688259D01*
X164972818Y-81868277D01*
X164972821Y-81868284D01*
X165067467Y-82032216D01*
X165188401Y-82166526D01*
X165194129Y-82172888D01*
X165347265Y-82284148D01*
X165347270Y-82284151D01*
X165520192Y-82361142D01*
X165520197Y-82361144D01*
X165705354Y-82400500D01*
X165705355Y-82400500D01*
X165894644Y-82400500D01*
X165894646Y-82400500D01*
X166079803Y-82361144D01*
X166252730Y-82284151D01*
X166405871Y-82172888D01*
X166532533Y-82032216D01*
X166627179Y-81868284D01*
X166685674Y-81688256D01*
X166705460Y-81500000D01*
X166685674Y-81311744D01*
X166627179Y-81131716D01*
X166532533Y-80967784D01*
X166514619Y-80947888D01*
X166457350Y-80884284D01*
X166427120Y-80821292D01*
X166425500Y-80801312D01*
X166425500Y-79198687D01*
X166445185Y-79131648D01*
X166457350Y-79115715D01*
X166475891Y-79095122D01*
X166532533Y-79032216D01*
X166627179Y-78868284D01*
X166685674Y-78688256D01*
X166705460Y-78500000D01*
X166685674Y-78311744D01*
X166627179Y-78131716D01*
X166532533Y-77967784D01*
X166405871Y-77827112D01*
X166405870Y-77827111D01*
X166252734Y-77715851D01*
X166252729Y-77715848D01*
X166079807Y-77638857D01*
X166079802Y-77638855D01*
X165934001Y-77607865D01*
X165894646Y-77599500D01*
X165705354Y-77599500D01*
X165672897Y-77606398D01*
X165520197Y-77638855D01*
X165520192Y-77638857D01*
X165347270Y-77715848D01*
X165347265Y-77715851D01*
X165194129Y-77827111D01*
X165067466Y-77967785D01*
X164972821Y-78131715D01*
X164972818Y-78131722D01*
X164914327Y-78311740D01*
X164914326Y-78311744D01*
X164894540Y-78500000D01*
X129784590Y-78500000D01*
X128561819Y-77277229D01*
X128528334Y-77215906D01*
X128525500Y-77189548D01*
X128525500Y-75098687D01*
X128545185Y-75031648D01*
X128557350Y-75015715D01*
X128575891Y-74995122D01*
X128632533Y-74932216D01*
X128727179Y-74768284D01*
X128785674Y-74588256D01*
X128805460Y-74400000D01*
X128785674Y-74211744D01*
X128727179Y-74031716D01*
X128632533Y-73867784D01*
X128505871Y-73727112D01*
X128490369Y-73715849D01*
X128352734Y-73615851D01*
X128352729Y-73615848D01*
X128179807Y-73538857D01*
X128179802Y-73538855D01*
X128034001Y-73507865D01*
X127994646Y-73499500D01*
X127805354Y-73499500D01*
X127772897Y-73506398D01*
X127620197Y-73538855D01*
X127620192Y-73538857D01*
X127447270Y-73615848D01*
X127447265Y-73615851D01*
X127294129Y-73727111D01*
X127294128Y-73727112D01*
X127239953Y-73787279D01*
X127180466Y-73823927D01*
X127110609Y-73822596D01*
X127074919Y-73804624D01*
X126952734Y-73715851D01*
X126952729Y-73715848D01*
X126779807Y-73638857D01*
X126779802Y-73638855D01*
X126634001Y-73607865D01*
X126594646Y-73599500D01*
X126405354Y-73599500D01*
X126372897Y-73606398D01*
X126220197Y-73638855D01*
X126220192Y-73638857D01*
X126047270Y-73715848D01*
X126047265Y-73715851D01*
X125894129Y-73827111D01*
X125767466Y-73967785D01*
X125672821Y-74131715D01*
X125672818Y-74131722D01*
X125614327Y-74311740D01*
X125614326Y-74311744D01*
X125594540Y-74500000D01*
X123394950Y-74500000D01*
X123385674Y-74411744D01*
X123327179Y-74231716D01*
X123232533Y-74067784D01*
X123105871Y-73927112D01*
X123047474Y-73884684D01*
X122952734Y-73815851D01*
X122952729Y-73815848D01*
X122779807Y-73738857D01*
X122779802Y-73738855D01*
X122634001Y-73707865D01*
X122594646Y-73699500D01*
X122405354Y-73699500D01*
X122372897Y-73706398D01*
X122220197Y-73738855D01*
X122220192Y-73738857D01*
X122047270Y-73815848D01*
X122047265Y-73815851D01*
X121894129Y-73927111D01*
X121767466Y-74067785D01*
X121672821Y-74231715D01*
X121672818Y-74231722D01*
X121618142Y-74400000D01*
X121614326Y-74411744D01*
X121594540Y-74600000D01*
X121105460Y-74600000D01*
X121085674Y-74411744D01*
X121027179Y-74231716D01*
X120932533Y-74067784D01*
X120805871Y-73927112D01*
X120747474Y-73884684D01*
X120652734Y-73815851D01*
X120652729Y-73815848D01*
X120479807Y-73738857D01*
X120479802Y-73738855D01*
X120334001Y-73707865D01*
X120294646Y-73699500D01*
X120105354Y-73699500D01*
X120072897Y-73706398D01*
X119920197Y-73738855D01*
X119920192Y-73738857D01*
X119747270Y-73815848D01*
X119747265Y-73815851D01*
X119594129Y-73927111D01*
X119467466Y-74067785D01*
X119372821Y-74231715D01*
X119372818Y-74231722D01*
X119318142Y-74400000D01*
X119314326Y-74411744D01*
X119294540Y-74600000D01*
X109000000Y-74600000D01*
X109000000Y-63900000D01*
X130894540Y-63900000D01*
X130914326Y-64088256D01*
X130914327Y-64088259D01*
X130972818Y-64268277D01*
X130972821Y-64268284D01*
X131067467Y-64432216D01*
X131194129Y-64572888D01*
X131347265Y-64684148D01*
X131347270Y-64684151D01*
X131520192Y-64761142D01*
X131520197Y-64761144D01*
X131705354Y-64800500D01*
X131705355Y-64800500D01*
X131894644Y-64800500D01*
X131894646Y-64800500D01*
X132079803Y-64761144D01*
X132252730Y-64684151D01*
X132254776Y-64682664D01*
X132266452Y-64674182D01*
X132332258Y-64650702D01*
X132339337Y-64650500D01*
X134560663Y-64650500D01*
X134627702Y-64670185D01*
X134633548Y-64674182D01*
X134647265Y-64684148D01*
X134647270Y-64684151D01*
X134820192Y-64761142D01*
X134820197Y-64761144D01*
X135005354Y-64800500D01*
X135005355Y-64800500D01*
X135194644Y-64800500D01*
X135194646Y-64800500D01*
X135379803Y-64761144D01*
X135552730Y-64684151D01*
X135554776Y-64682664D01*
X135566452Y-64674182D01*
X135632258Y-64650702D01*
X135639337Y-64650500D01*
X137960663Y-64650500D01*
X138027702Y-64670185D01*
X138033548Y-64674182D01*
X138047265Y-64684148D01*
X138047270Y-64684151D01*
X138220192Y-64761142D01*
X138220197Y-64761144D01*
X138405354Y-64800500D01*
X138405355Y-64800500D01*
X138594644Y-64800500D01*
X138594646Y-64800500D01*
X138779803Y-64761144D01*
X138952730Y-64684151D01*
X138954776Y-64682664D01*
X138966452Y-64674182D01*
X139032258Y-64650702D01*
X139039337Y-64650500D01*
X141960663Y-64650500D01*
X142027702Y-64670185D01*
X142033548Y-64674182D01*
X142047265Y-64684148D01*
X142047270Y-64684151D01*
X142220192Y-64761142D01*
X142220197Y-64761144D01*
X142405354Y-64800500D01*
X142405355Y-64800500D01*
X142594644Y-64800500D01*
X142594646Y-64800500D01*
X142779803Y-64761144D01*
X142952730Y-64684151D01*
X142954776Y-64682664D01*
X142966452Y-64674182D01*
X143032258Y-64650702D01*
X143039337Y-64650500D01*
X145060663Y-64650500D01*
X145127702Y-64670185D01*
X145133548Y-64674182D01*
X145147265Y-64684148D01*
X145147270Y-64684151D01*
X145320192Y-64761142D01*
X145320197Y-64761144D01*
X145505354Y-64800500D01*
X145505355Y-64800500D01*
X145694644Y-64800500D01*
X145694646Y-64800500D01*
X145879803Y-64761144D01*
X146052730Y-64684151D01*
X146054776Y-64682664D01*
X146066452Y-64674182D01*
X146132258Y-64650702D01*
X146139337Y-64650500D01*
X148860663Y-64650500D01*
X148927702Y-64670185D01*
X148933548Y-64674182D01*
X148947265Y-64684148D01*
X148947270Y-64684151D01*
X149120192Y-64761142D01*
X149120197Y-64761144D01*
X149305354Y-64800500D01*
X149305355Y-64800500D01*
X149494644Y-64800500D01*
X149494646Y-64800500D01*
X149679803Y-64761144D01*
X149852730Y-64684151D01*
X149854776Y-64682664D01*
X149866452Y-64674182D01*
X149932258Y-64650702D01*
X149939337Y-64650500D01*
X152660663Y-64650500D01*
X152727702Y-64670185D01*
X152733548Y-64674182D01*
X152747265Y-64684148D01*
X152747270Y-64684151D01*
X152920192Y-64761142D01*
X152920197Y-64761144D01*
X153105354Y-64800500D01*
X153105355Y-64800500D01*
X153294644Y-64800500D01*
X153294646Y-64800500D01*
X153479803Y-64761144D01*
X153652730Y-64684151D01*
X153654776Y-64682664D01*
X153666452Y-64674182D01*
X153732258Y-64650702D01*
X153739337Y-64650500D01*
X156160663Y-64650500D01*
X156227702Y-64670185D01*
X156233548Y-64674182D01*
X156247265Y-64684148D01*
X156247270Y-64684151D01*
X156420192Y-64761142D01*
X156420197Y-64761144D01*
X156605354Y-64800500D01*
X156605355Y-64800500D01*
X156794644Y-64800500D01*
X156794646Y-64800500D01*
X156979803Y-64761144D01*
X157152730Y-64684151D01*
X157154776Y-64682664D01*
X157166452Y-64674182D01*
X157232258Y-64650702D01*
X157239337Y-64650500D01*
X159860663Y-64650500D01*
X159927702Y-64670185D01*
X159933548Y-64674182D01*
X159947265Y-64684148D01*
X159947270Y-64684151D01*
X160120192Y-64761142D01*
X160120197Y-64761144D01*
X160305354Y-64800500D01*
X160305355Y-64800500D01*
X160494644Y-64800500D01*
X160494646Y-64800500D01*
X160679803Y-64761144D01*
X160852730Y-64684151D01*
X161005871Y-64572888D01*
X161132533Y-64432216D01*
X161227179Y-64268284D01*
X161285674Y-64088256D01*
X161305460Y-63900000D01*
X161285674Y-63711744D01*
X161227179Y-63531716D01*
X161132533Y-63367784D01*
X161005871Y-63227112D01*
X161005870Y-63227111D01*
X160852734Y-63115851D01*
X160852729Y-63115848D01*
X160679807Y-63038857D01*
X160679802Y-63038855D01*
X160534001Y-63007865D01*
X160494646Y-62999500D01*
X160305354Y-62999500D01*
X160272897Y-63006398D01*
X160120197Y-63038855D01*
X160120192Y-63038857D01*
X159947270Y-63115848D01*
X159947265Y-63115851D01*
X159933548Y-63125818D01*
X159867742Y-63149298D01*
X159860663Y-63149500D01*
X157239337Y-63149500D01*
X157172298Y-63129815D01*
X157166452Y-63125818D01*
X157152734Y-63115851D01*
X157152729Y-63115848D01*
X156979807Y-63038857D01*
X156979802Y-63038855D01*
X156834001Y-63007865D01*
X156794646Y-62999500D01*
X156605354Y-62999500D01*
X156572897Y-63006398D01*
X156420197Y-63038855D01*
X156420192Y-63038857D01*
X156247270Y-63115848D01*
X156247265Y-63115851D01*
X156233548Y-63125818D01*
X156167742Y-63149298D01*
X156160663Y-63149500D01*
X153739337Y-63149500D01*
X153672298Y-63129815D01*
X153666452Y-63125818D01*
X153652734Y-63115851D01*
X153652729Y-63115848D01*
X153479807Y-63038857D01*
X153479802Y-63038855D01*
X153334001Y-63007865D01*
X153294646Y-62999500D01*
X153105354Y-62999500D01*
X153072897Y-63006398D01*
X152920197Y-63038855D01*
X152920192Y-63038857D01*
X152747270Y-63115848D01*
X152747265Y-63115851D01*
X152733548Y-63125818D01*
X152667742Y-63149298D01*
X152660663Y-63149500D01*
X149939337Y-63149500D01*
X149872298Y-63129815D01*
X149866452Y-63125818D01*
X149852734Y-63115851D01*
X149852729Y-63115848D01*
X149679807Y-63038857D01*
X149679802Y-63038855D01*
X149534001Y-63007865D01*
X149494646Y-62999500D01*
X149305354Y-62999500D01*
X149272897Y-63006398D01*
X149120197Y-63038855D01*
X149120192Y-63038857D01*
X148947270Y-63115848D01*
X148947265Y-63115851D01*
X148933548Y-63125818D01*
X148867742Y-63149298D01*
X148860663Y-63149500D01*
X146139337Y-63149500D01*
X146072298Y-63129815D01*
X146066452Y-63125818D01*
X146052734Y-63115851D01*
X146052729Y-63115848D01*
X145879807Y-63038857D01*
X145879802Y-63038855D01*
X145734001Y-63007865D01*
X145694646Y-62999500D01*
X145505354Y-62999500D01*
X145472897Y-63006398D01*
X145320197Y-63038855D01*
X145320192Y-63038857D01*
X145147270Y-63115848D01*
X145147265Y-63115851D01*
X145133548Y-63125818D01*
X145067742Y-63149298D01*
X145060663Y-63149500D01*
X143039337Y-63149500D01*
X142972298Y-63129815D01*
X142966452Y-63125818D01*
X142952734Y-63115851D01*
X142952729Y-63115848D01*
X142779807Y-63038857D01*
X142779802Y-63038855D01*
X142634001Y-63007865D01*
X142594646Y-62999500D01*
X142405354Y-62999500D01*
X142372897Y-63006398D01*
X142220197Y-63038855D01*
X142220192Y-63038857D01*
X142047270Y-63115848D01*
X142047265Y-63115851D01*
X142033548Y-63125818D01*
X141967742Y-63149298D01*
X141960663Y-63149500D01*
X139039337Y-63149500D01*
X138972298Y-63129815D01*
X138966452Y-63125818D01*
X138952734Y-63115851D01*
X138952729Y-63115848D01*
X138779807Y-63038857D01*
X138779802Y-63038855D01*
X138634001Y-63007865D01*
X138594646Y-62999500D01*
X138405354Y-62999500D01*
X138372897Y-63006398D01*
X138220197Y-63038855D01*
X138220192Y-63038857D01*
X138047270Y-63115848D01*
X138047265Y-63115851D01*
X138033548Y-63125818D01*
X137967742Y-63149298D01*
X137960663Y-63149500D01*
X135639337Y-63149500D01*
X135572298Y-63129815D01*
X135566452Y-63125818D01*
X135552734Y-63115851D01*
X135552729Y-63115848D01*
X135379807Y-63038857D01*
X135379802Y-63038855D01*
X135234001Y-63007865D01*
X135194646Y-62999500D01*
X135005354Y-62999500D01*
X134972897Y-63006398D01*
X134820197Y-63038855D01*
X134820192Y-63038857D01*
X134647270Y-63115848D01*
X134647265Y-63115851D01*
X134633548Y-63125818D01*
X134567742Y-63149298D01*
X134560663Y-63149500D01*
X132339337Y-63149500D01*
X132272298Y-63129815D01*
X132266452Y-63125818D01*
X132252734Y-63115851D01*
X132252729Y-63115848D01*
X132079807Y-63038857D01*
X132079802Y-63038855D01*
X131934001Y-63007865D01*
X131894646Y-62999500D01*
X131705354Y-62999500D01*
X131672897Y-63006398D01*
X131520197Y-63038855D01*
X131520192Y-63038857D01*
X131347270Y-63115848D01*
X131347265Y-63115851D01*
X131194129Y-63227111D01*
X131067466Y-63367785D01*
X130972821Y-63531715D01*
X130972818Y-63531722D01*
X130914327Y-63711740D01*
X130914326Y-63711744D01*
X130894540Y-63900000D01*
X109000000Y-63900000D01*
X109000000Y-51679635D01*
X134399500Y-51679635D01*
X134399500Y-53275370D01*
X134399501Y-53275376D01*
X134405908Y-53334983D01*
X134456202Y-53469828D01*
X134456206Y-53469835D01*
X134542452Y-53585044D01*
X134542455Y-53585047D01*
X134657664Y-53671293D01*
X134657671Y-53671297D01*
X134792517Y-53721591D01*
X134792516Y-53721591D01*
X134799444Y-53722335D01*
X134852127Y-53728000D01*
X136447872Y-53727999D01*
X136507483Y-53721591D01*
X136642331Y-53671296D01*
X136757546Y-53585046D01*
X136843796Y-53469831D01*
X136894091Y-53334983D01*
X136900500Y-53275373D01*
X136900499Y-53209360D01*
X136920183Y-53142324D01*
X136972986Y-53096568D01*
X137042144Y-53086624D01*
X137105700Y-53115648D01*
X137126073Y-53138238D01*
X137169320Y-53200000D01*
X137228402Y-53284377D01*
X137383123Y-53439098D01*
X137562361Y-53564602D01*
X137760670Y-53657075D01*
X137972023Y-53713707D01*
X138154926Y-53729708D01*
X138189998Y-53732777D01*
X138190000Y-53732777D01*
X138190002Y-53732777D01*
X138218254Y-53730305D01*
X138407977Y-53713707D01*
X138619330Y-53657075D01*
X138817639Y-53564602D01*
X138996877Y-53439098D01*
X139151598Y-53284377D01*
X139277102Y-53105139D01*
X139347618Y-52953914D01*
X139393790Y-52901477D01*
X139460984Y-52882325D01*
X139527865Y-52902541D01*
X139572381Y-52953914D01*
X139642898Y-53105139D01*
X139768402Y-53284377D01*
X139923123Y-53439098D01*
X140102361Y-53564602D01*
X140300670Y-53657075D01*
X140512023Y-53713707D01*
X140694926Y-53729708D01*
X140729998Y-53732777D01*
X140730000Y-53732777D01*
X140730002Y-53732777D01*
X140758254Y-53730305D01*
X140947977Y-53713707D01*
X141159330Y-53657075D01*
X141357639Y-53564602D01*
X141536877Y-53439098D01*
X141691598Y-53284377D01*
X141817102Y-53105139D01*
X141887618Y-52953914D01*
X141933790Y-52901477D01*
X142000984Y-52882325D01*
X142067865Y-52902541D01*
X142112381Y-52953914D01*
X142182898Y-53105139D01*
X142308402Y-53284377D01*
X142463123Y-53439098D01*
X142642361Y-53564602D01*
X142840670Y-53657075D01*
X143052023Y-53713707D01*
X143234926Y-53729708D01*
X143269998Y-53732777D01*
X143270000Y-53732777D01*
X143270002Y-53732777D01*
X143298254Y-53730305D01*
X143487977Y-53713707D01*
X143699330Y-53657075D01*
X143897639Y-53564602D01*
X144076877Y-53439098D01*
X144231598Y-53284377D01*
X144357102Y-53105139D01*
X144427618Y-52953914D01*
X144473790Y-52901477D01*
X144540984Y-52882325D01*
X144607865Y-52902541D01*
X144652381Y-52953914D01*
X144722898Y-53105139D01*
X144848402Y-53284377D01*
X145003123Y-53439098D01*
X145182361Y-53564602D01*
X145380670Y-53657075D01*
X145592023Y-53713707D01*
X145774926Y-53729708D01*
X145809998Y-53732777D01*
X145810000Y-53732777D01*
X145810002Y-53732777D01*
X145838254Y-53730305D01*
X146027977Y-53713707D01*
X146239330Y-53657075D01*
X146437639Y-53564602D01*
X146616877Y-53439098D01*
X146771598Y-53284377D01*
X146897102Y-53105139D01*
X146967618Y-52953914D01*
X147013790Y-52901477D01*
X147080984Y-52882325D01*
X147147865Y-52902541D01*
X147192381Y-52953914D01*
X147262898Y-53105139D01*
X147388402Y-53284377D01*
X147543123Y-53439098D01*
X147722361Y-53564602D01*
X147920670Y-53657075D01*
X148132023Y-53713707D01*
X148314926Y-53729708D01*
X148349998Y-53732777D01*
X148350000Y-53732777D01*
X148350002Y-53732777D01*
X148378254Y-53730305D01*
X148567977Y-53713707D01*
X148779330Y-53657075D01*
X148977639Y-53564602D01*
X149156877Y-53439098D01*
X149311598Y-53284377D01*
X149437102Y-53105139D01*
X149529575Y-52906830D01*
X149586207Y-52695477D01*
X149605277Y-52477500D01*
X149586207Y-52259523D01*
X149529575Y-52048170D01*
X149437102Y-51849862D01*
X149437100Y-51849859D01*
X149437099Y-51849857D01*
X149311599Y-51670624D01*
X149260991Y-51620016D01*
X149156877Y-51515902D01*
X149134167Y-51500000D01*
X154794540Y-51500000D01*
X154814326Y-51688256D01*
X154814327Y-51688259D01*
X154872818Y-51868277D01*
X154872821Y-51868284D01*
X154967467Y-52032216D01*
X155003896Y-52072674D01*
X155042650Y-52115715D01*
X155072880Y-52178706D01*
X155074500Y-52198687D01*
X155074500Y-52801312D01*
X155054815Y-52868351D01*
X155042650Y-52884284D01*
X154967466Y-52967784D01*
X154872821Y-53131715D01*
X154872818Y-53131722D01*
X154818142Y-53300000D01*
X154814326Y-53311744D01*
X154794540Y-53500000D01*
X154814326Y-53688256D01*
X154814327Y-53688259D01*
X154872818Y-53868277D01*
X154872821Y-53868284D01*
X154967467Y-54032216D01*
X155083553Y-54161142D01*
X155094129Y-54172888D01*
X155247265Y-54284148D01*
X155247270Y-54284151D01*
X155420192Y-54361142D01*
X155420197Y-54361144D01*
X155605354Y-54400500D01*
X155605355Y-54400500D01*
X155794644Y-54400500D01*
X155794646Y-54400500D01*
X155979803Y-54361144D01*
X156152730Y-54284151D01*
X156305871Y-54172888D01*
X156432533Y-54032216D01*
X156527179Y-53868284D01*
X156585674Y-53688256D01*
X156605460Y-53500000D01*
X156585674Y-53311744D01*
X156527179Y-53131716D01*
X156432533Y-52967784D01*
X156400063Y-52931722D01*
X156357350Y-52884284D01*
X156327120Y-52821292D01*
X156325500Y-52801312D01*
X156325500Y-52198687D01*
X156345185Y-52131648D01*
X156357350Y-52115715D01*
X156375891Y-52095122D01*
X156432533Y-52032216D01*
X156527179Y-51868284D01*
X156585674Y-51688256D01*
X156605460Y-51500000D01*
X156585674Y-51311744D01*
X156549366Y-51200000D01*
X158894540Y-51200000D01*
X158914326Y-51388256D01*
X158914327Y-51388259D01*
X158972818Y-51568277D01*
X158972821Y-51568284D01*
X159067467Y-51732216D01*
X159093514Y-51761144D01*
X159142650Y-51815715D01*
X159172880Y-51878706D01*
X159174500Y-51898687D01*
X159174500Y-52601312D01*
X159154815Y-52668351D01*
X159142650Y-52684284D01*
X159067466Y-52767784D01*
X158972821Y-52931715D01*
X158972818Y-52931722D01*
X158922488Y-53086624D01*
X158914326Y-53111744D01*
X158894540Y-53300000D01*
X158914326Y-53488256D01*
X158914327Y-53488259D01*
X158972818Y-53668277D01*
X158972821Y-53668284D01*
X159067467Y-53832216D01*
X159194129Y-53972888D01*
X159347265Y-54084148D01*
X159347270Y-54084151D01*
X159520192Y-54161142D01*
X159520197Y-54161144D01*
X159705354Y-54200500D01*
X159705355Y-54200500D01*
X159894644Y-54200500D01*
X159894646Y-54200500D01*
X160079803Y-54161144D01*
X160252730Y-54084151D01*
X160405871Y-53972888D01*
X160532533Y-53832216D01*
X160627179Y-53668284D01*
X160685674Y-53488256D01*
X160705460Y-53300000D01*
X160685674Y-53111744D01*
X160627179Y-52931716D01*
X160532533Y-52767784D01*
X160457350Y-52684284D01*
X160427120Y-52621292D01*
X160425500Y-52601312D01*
X160425500Y-51898687D01*
X160445185Y-51831648D01*
X160457350Y-51815715D01*
X160493264Y-51775828D01*
X160532533Y-51732216D01*
X160627179Y-51568284D01*
X160685674Y-51388256D01*
X160705460Y-51200000D01*
X160685674Y-51011744D01*
X160649366Y-50900000D01*
X164894540Y-50900000D01*
X164914326Y-51088256D01*
X164914327Y-51088259D01*
X164972818Y-51268277D01*
X164972821Y-51268284D01*
X165067467Y-51432216D01*
X165189977Y-51568277D01*
X165194129Y-51572888D01*
X165347265Y-51684148D01*
X165347270Y-51684151D01*
X165520192Y-51761142D01*
X165520197Y-51761144D01*
X165705354Y-51800500D01*
X165764548Y-51800500D01*
X165831587Y-51820185D01*
X165852229Y-51836819D01*
X167398404Y-53382994D01*
X167428654Y-53432356D01*
X167472819Y-53568280D01*
X167472821Y-53568284D01*
X167567467Y-53732216D01*
X167657506Y-53832214D01*
X167694129Y-53872888D01*
X167847265Y-53984148D01*
X167847270Y-53984151D01*
X168020192Y-54061142D01*
X168020197Y-54061144D01*
X168205354Y-54100500D01*
X168205355Y-54100500D01*
X168394644Y-54100500D01*
X168394646Y-54100500D01*
X168579803Y-54061144D01*
X168752730Y-53984151D01*
X168905871Y-53872888D01*
X169032533Y-53732216D01*
X169127179Y-53568284D01*
X169185674Y-53388256D01*
X169205460Y-53200000D01*
X169185674Y-53011744D01*
X169127179Y-52831716D01*
X169032533Y-52667784D01*
X168905871Y-52527112D01*
X168905870Y-52527111D01*
X168752734Y-52415851D01*
X168752729Y-52415848D01*
X168579807Y-52338857D01*
X168579802Y-52338855D01*
X168428797Y-52306759D01*
X168394646Y-52299500D01*
X168205354Y-52299500D01*
X168205353Y-52299500D01*
X168171199Y-52306759D01*
X168101532Y-52301441D01*
X168057739Y-52273149D01*
X166738960Y-50954370D01*
X166705475Y-50893047D01*
X166703323Y-50879671D01*
X166685674Y-50711744D01*
X166627179Y-50531716D01*
X166532533Y-50367784D01*
X166405871Y-50227112D01*
X166405870Y-50227111D01*
X166252734Y-50115851D01*
X166252729Y-50115848D01*
X166079807Y-50038857D01*
X166079802Y-50038855D01*
X165934001Y-50007865D01*
X165894646Y-49999500D01*
X165705354Y-49999500D01*
X165672897Y-50006398D01*
X165520197Y-50038855D01*
X165520192Y-50038857D01*
X165347270Y-50115848D01*
X165347265Y-50115851D01*
X165194129Y-50227111D01*
X165067466Y-50367785D01*
X164972821Y-50531715D01*
X164972818Y-50531722D01*
X164928609Y-50667785D01*
X164914326Y-50711744D01*
X164894540Y-50900000D01*
X160649366Y-50900000D01*
X160627179Y-50831716D01*
X160532533Y-50667784D01*
X160405871Y-50527112D01*
X160405870Y-50527111D01*
X160252734Y-50415851D01*
X160252729Y-50415848D01*
X160079807Y-50338857D01*
X160079802Y-50338855D01*
X159934001Y-50307865D01*
X159894646Y-50299500D01*
X159705354Y-50299500D01*
X159672897Y-50306398D01*
X159520197Y-50338855D01*
X159520192Y-50338857D01*
X159347270Y-50415848D01*
X159347265Y-50415851D01*
X159194129Y-50527111D01*
X159067466Y-50667785D01*
X158972821Y-50831715D01*
X158972818Y-50831722D01*
X158928609Y-50967785D01*
X158914326Y-51011744D01*
X158894540Y-51200000D01*
X156549366Y-51200000D01*
X156527179Y-51131716D01*
X156432533Y-50967784D01*
X156305871Y-50827112D01*
X156305870Y-50827111D01*
X156152734Y-50715851D01*
X156152729Y-50715848D01*
X155979807Y-50638857D01*
X155979802Y-50638855D01*
X155834001Y-50607865D01*
X155794646Y-50599500D01*
X155605354Y-50599500D01*
X155572897Y-50606398D01*
X155420197Y-50638855D01*
X155420192Y-50638857D01*
X155247270Y-50715848D01*
X155247265Y-50715851D01*
X155094129Y-50827111D01*
X154967466Y-50967785D01*
X154872821Y-51131715D01*
X154872818Y-51131722D01*
X154814327Y-51311740D01*
X154814326Y-51311744D01*
X154794540Y-51500000D01*
X149134167Y-51500000D01*
X148977639Y-51390398D01*
X148977640Y-51390398D01*
X148977638Y-51390397D01*
X148878484Y-51344161D01*
X148779330Y-51297925D01*
X148779326Y-51297924D01*
X148779322Y-51297922D01*
X148567977Y-51241293D01*
X148350002Y-51222223D01*
X148349998Y-51222223D01*
X148222151Y-51233408D01*
X148132023Y-51241293D01*
X148132020Y-51241293D01*
X147920677Y-51297922D01*
X147920668Y-51297926D01*
X147722361Y-51390398D01*
X147722357Y-51390400D01*
X147543121Y-51515902D01*
X147388402Y-51670621D01*
X147262900Y-51849857D01*
X147262898Y-51849861D01*
X147192382Y-52001083D01*
X147146209Y-52053522D01*
X147079016Y-52072674D01*
X147012135Y-52052458D01*
X146967618Y-52001083D01*
X146953118Y-51969988D01*
X146897102Y-51849862D01*
X146897100Y-51849859D01*
X146897099Y-51849857D01*
X146771599Y-51670624D01*
X146720991Y-51620016D01*
X146616877Y-51515902D01*
X146437639Y-51390398D01*
X146437640Y-51390398D01*
X146437638Y-51390397D01*
X146338484Y-51344161D01*
X146239330Y-51297925D01*
X146239326Y-51297924D01*
X146239322Y-51297922D01*
X146027977Y-51241293D01*
X145810002Y-51222223D01*
X145809998Y-51222223D01*
X145682151Y-51233408D01*
X145592023Y-51241293D01*
X145592020Y-51241293D01*
X145380677Y-51297922D01*
X145380668Y-51297926D01*
X145182361Y-51390398D01*
X145182357Y-51390400D01*
X145003121Y-51515902D01*
X144848402Y-51670621D01*
X144722900Y-51849857D01*
X144722898Y-51849861D01*
X144652382Y-52001083D01*
X144606209Y-52053522D01*
X144539016Y-52072674D01*
X144472135Y-52052458D01*
X144427618Y-52001083D01*
X144413118Y-51969988D01*
X144357102Y-51849862D01*
X144357100Y-51849859D01*
X144357099Y-51849857D01*
X144231599Y-51670624D01*
X144180991Y-51620016D01*
X144076877Y-51515902D01*
X143897639Y-51390398D01*
X143897640Y-51390398D01*
X143897638Y-51390397D01*
X143798484Y-51344161D01*
X143699330Y-51297925D01*
X143699326Y-51297924D01*
X143699322Y-51297922D01*
X143487977Y-51241293D01*
X143270002Y-51222223D01*
X143269998Y-51222223D01*
X143142151Y-51233408D01*
X143052023Y-51241293D01*
X143052020Y-51241293D01*
X142840677Y-51297922D01*
X142840668Y-51297926D01*
X142642361Y-51390398D01*
X142642357Y-51390400D01*
X142463121Y-51515902D01*
X142308402Y-51670621D01*
X142182900Y-51849857D01*
X142182898Y-51849861D01*
X142112382Y-52001083D01*
X142066209Y-52053522D01*
X141999016Y-52072674D01*
X141932135Y-52052458D01*
X141887618Y-52001083D01*
X141873118Y-51969988D01*
X141817102Y-51849862D01*
X141817100Y-51849859D01*
X141817099Y-51849857D01*
X141691599Y-51670624D01*
X141640991Y-51620016D01*
X141536877Y-51515902D01*
X141357639Y-51390398D01*
X141357640Y-51390398D01*
X141357638Y-51390397D01*
X141258484Y-51344161D01*
X141159330Y-51297925D01*
X141159326Y-51297924D01*
X141159322Y-51297922D01*
X140947977Y-51241293D01*
X140730002Y-51222223D01*
X140729998Y-51222223D01*
X140602151Y-51233408D01*
X140512023Y-51241293D01*
X140512020Y-51241293D01*
X140300677Y-51297922D01*
X140300668Y-51297926D01*
X140102361Y-51390398D01*
X140102357Y-51390400D01*
X139923121Y-51515902D01*
X139768402Y-51670621D01*
X139642900Y-51849857D01*
X139642898Y-51849861D01*
X139572382Y-52001083D01*
X139526209Y-52053522D01*
X139459016Y-52072674D01*
X139392135Y-52052458D01*
X139347618Y-52001083D01*
X139333118Y-51969988D01*
X139277102Y-51849862D01*
X139277100Y-51849859D01*
X139277099Y-51849857D01*
X139151599Y-51670624D01*
X139100991Y-51620016D01*
X138996877Y-51515902D01*
X138817639Y-51390398D01*
X138817640Y-51390398D01*
X138817638Y-51390397D01*
X138718484Y-51344161D01*
X138619330Y-51297925D01*
X138619326Y-51297924D01*
X138619322Y-51297922D01*
X138407977Y-51241293D01*
X138190002Y-51222223D01*
X138189998Y-51222223D01*
X138062151Y-51233408D01*
X137972023Y-51241293D01*
X137972020Y-51241293D01*
X137760677Y-51297922D01*
X137760668Y-51297926D01*
X137562361Y-51390398D01*
X137562357Y-51390400D01*
X137383121Y-51515902D01*
X137228402Y-51670621D01*
X137126074Y-51816762D01*
X137071497Y-51860387D01*
X137001999Y-51867581D01*
X136939644Y-51836058D01*
X136904230Y-51775828D01*
X136900499Y-51745639D01*
X136900499Y-51679629D01*
X136900498Y-51679623D01*
X136900497Y-51679616D01*
X136894091Y-51620017D01*
X136874793Y-51568277D01*
X136843797Y-51485171D01*
X136843793Y-51485164D01*
X136757547Y-51369955D01*
X136757544Y-51369952D01*
X136642335Y-51283706D01*
X136642328Y-51283702D01*
X136507482Y-51233408D01*
X136507483Y-51233408D01*
X136447883Y-51227001D01*
X136447881Y-51227000D01*
X136447873Y-51227000D01*
X136447864Y-51227000D01*
X134852129Y-51227000D01*
X134852123Y-51227001D01*
X134792516Y-51233408D01*
X134657671Y-51283702D01*
X134657664Y-51283706D01*
X134542455Y-51369952D01*
X134542452Y-51369955D01*
X134456206Y-51485164D01*
X134456202Y-51485171D01*
X134405908Y-51620017D01*
X134400468Y-51670621D01*
X134399501Y-51679623D01*
X134399500Y-51679635D01*
X109000000Y-51679635D01*
X109000000Y-45900000D01*
X153394540Y-45900000D01*
X153414326Y-46088256D01*
X153414327Y-46088259D01*
X153472818Y-46268277D01*
X153472821Y-46268284D01*
X153567467Y-46432216D01*
X153669185Y-46545185D01*
X153694129Y-46572888D01*
X153847265Y-46684148D01*
X153847270Y-46684151D01*
X154020192Y-46761142D01*
X154020197Y-46761144D01*
X154205354Y-46800500D01*
X154205355Y-46800500D01*
X154394644Y-46800500D01*
X154394646Y-46800500D01*
X154579803Y-46761144D01*
X154752730Y-46684151D01*
X154905871Y-46572888D01*
X154908788Y-46569647D01*
X154911600Y-46566526D01*
X154971087Y-46529879D01*
X155003748Y-46525500D01*
X159996252Y-46525500D01*
X160063291Y-46545185D01*
X160088400Y-46566526D01*
X160094126Y-46572885D01*
X160094130Y-46572889D01*
X160247265Y-46684148D01*
X160247270Y-46684151D01*
X160420192Y-46761142D01*
X160420197Y-46761144D01*
X160605354Y-46800500D01*
X160605355Y-46800500D01*
X160794644Y-46800500D01*
X160794646Y-46800500D01*
X160979803Y-46761144D01*
X161152730Y-46684151D01*
X161305871Y-46572888D01*
X161432533Y-46432216D01*
X161527179Y-46268284D01*
X161585674Y-46088256D01*
X161605460Y-45900000D01*
X161585674Y-45711744D01*
X161527179Y-45531716D01*
X161432533Y-45367784D01*
X161305871Y-45227112D01*
X161305870Y-45227111D01*
X161152734Y-45115851D01*
X161152729Y-45115848D01*
X160979807Y-45038857D01*
X160979802Y-45038855D01*
X160834001Y-45007865D01*
X160794646Y-44999500D01*
X160605354Y-44999500D01*
X160572897Y-45006398D01*
X160420197Y-45038855D01*
X160420192Y-45038857D01*
X160247270Y-45115848D01*
X160247265Y-45115851D01*
X160094130Y-45227110D01*
X160094126Y-45227114D01*
X160088400Y-45233474D01*
X160028913Y-45270121D01*
X159996252Y-45274500D01*
X157465160Y-45274500D01*
X157398121Y-45254815D01*
X157352366Y-45202011D01*
X157342422Y-45132853D01*
X157357772Y-45088501D01*
X157364376Y-45077061D01*
X157427179Y-44968284D01*
X157485674Y-44788256D01*
X157505460Y-44600000D01*
X157485674Y-44411744D01*
X157427179Y-44231716D01*
X157332533Y-44067784D01*
X157329284Y-44062156D01*
X157331929Y-44060628D01*
X157312779Y-44007421D01*
X157328417Y-43939323D01*
X157329344Y-43937879D01*
X157329284Y-43937844D01*
X157353071Y-43896642D01*
X157427179Y-43768284D01*
X157485674Y-43588256D01*
X157505460Y-43400000D01*
X157485674Y-43211744D01*
X157427179Y-43031716D01*
X157332533Y-42867784D01*
X157205871Y-42727112D01*
X157205870Y-42727111D01*
X157052734Y-42615851D01*
X157052729Y-42615848D01*
X156879807Y-42538857D01*
X156879802Y-42538855D01*
X156728693Y-42506736D01*
X156694646Y-42499500D01*
X156694645Y-42499500D01*
X156688289Y-42498149D01*
X156688561Y-42496865D01*
X156630460Y-42472957D01*
X156590478Y-42415658D01*
X156587822Y-42345839D01*
X156600650Y-42314233D01*
X156627179Y-42268284D01*
X156685674Y-42088256D01*
X156705460Y-41900000D01*
X156685674Y-41711744D01*
X156627179Y-41531716D01*
X156532533Y-41367784D01*
X156500063Y-41331722D01*
X156457350Y-41284284D01*
X156427120Y-41221292D01*
X156425500Y-41201312D01*
X156425500Y-40798687D01*
X156445185Y-40731648D01*
X156457350Y-40715715D01*
X156495911Y-40672888D01*
X156532533Y-40632216D01*
X156627179Y-40468284D01*
X156685674Y-40288256D01*
X156705460Y-40100000D01*
X156685674Y-39911744D01*
X156627179Y-39731716D01*
X156532533Y-39567784D01*
X156405871Y-39427112D01*
X156405870Y-39427111D01*
X156252734Y-39315851D01*
X156252729Y-39315848D01*
X156079807Y-39238857D01*
X156079802Y-39238855D01*
X155934001Y-39207865D01*
X155894646Y-39199500D01*
X155705354Y-39199500D01*
X155672897Y-39206398D01*
X155520197Y-39238855D01*
X155520192Y-39238857D01*
X155347270Y-39315848D01*
X155347265Y-39315851D01*
X155194129Y-39427111D01*
X155067466Y-39567785D01*
X154972821Y-39731715D01*
X154972818Y-39731722D01*
X154914327Y-39911740D01*
X154914326Y-39911744D01*
X154894540Y-40100000D01*
X154914326Y-40288256D01*
X154914327Y-40288259D01*
X154972818Y-40468277D01*
X154972821Y-40468284D01*
X155067467Y-40632216D01*
X155104089Y-40672888D01*
X155142650Y-40715715D01*
X155172880Y-40778706D01*
X155174500Y-40798687D01*
X155174500Y-41201312D01*
X155154815Y-41268351D01*
X155142650Y-41284284D01*
X155067466Y-41367784D01*
X154972821Y-41531715D01*
X154972818Y-41531722D01*
X154918142Y-41700000D01*
X154914326Y-41711744D01*
X154894540Y-41900000D01*
X154914326Y-42088256D01*
X154914327Y-42088259D01*
X154972818Y-42268277D01*
X154972819Y-42268279D01*
X154972821Y-42268284D01*
X155067467Y-42432216D01*
X155157063Y-42531722D01*
X155162380Y-42537627D01*
X155192610Y-42600618D01*
X155183985Y-42669953D01*
X155139244Y-42723619D01*
X155072591Y-42744577D01*
X155005189Y-42726172D01*
X154997345Y-42720917D01*
X154852734Y-42615851D01*
X154852729Y-42615848D01*
X154679807Y-42538857D01*
X154679802Y-42538855D01*
X154534001Y-42507865D01*
X154494646Y-42499500D01*
X154305354Y-42499500D01*
X154272897Y-42506398D01*
X154120197Y-42538855D01*
X154120192Y-42538857D01*
X153947270Y-42615848D01*
X153947265Y-42615851D01*
X153794129Y-42727111D01*
X153667466Y-42867785D01*
X153572821Y-43031715D01*
X153572818Y-43031722D01*
X153514327Y-43211740D01*
X153514326Y-43211744D01*
X153494540Y-43400000D01*
X153514326Y-43588256D01*
X153514327Y-43588259D01*
X153572818Y-43768277D01*
X153572821Y-43768284D01*
X153670716Y-43937844D01*
X153668150Y-43939325D01*
X153687250Y-43993098D01*
X153671327Y-44061129D01*
X153670680Y-44062135D01*
X153670716Y-44062156D01*
X153572821Y-44231715D01*
X153572818Y-44231722D01*
X153514327Y-44411740D01*
X153514326Y-44411744D01*
X153494540Y-44600000D01*
X153514326Y-44788256D01*
X153514327Y-44788259D01*
X153572818Y-44968277D01*
X153572821Y-44968284D01*
X153666220Y-45130057D01*
X153682693Y-45197958D01*
X153659840Y-45263985D01*
X153650983Y-45275029D01*
X153567466Y-45367784D01*
X153472821Y-45531715D01*
X153472818Y-45531722D01*
X153414327Y-45711740D01*
X153414326Y-45711744D01*
X153394540Y-45900000D01*
X109000000Y-45900000D01*
X109000000Y-41524832D01*
X109019685Y-41457793D01*
X109072489Y-41412038D01*
X109141647Y-41402094D01*
X109205203Y-41431119D01*
X109209197Y-41435249D01*
X109211095Y-41435349D01*
X110705747Y-39940697D01*
X110779588Y-40042330D01*
X110957670Y-40220412D01*
X111059301Y-40294251D01*
X109564650Y-41788902D01*
X109822214Y-41997475D01*
X109822216Y-41997476D01*
X110147456Y-42208689D01*
X110493005Y-42384755D01*
X110855063Y-42523737D01*
X111229669Y-42624112D01*
X111229676Y-42624113D01*
X111612712Y-42684780D01*
X111999999Y-42705078D01*
X112000001Y-42705078D01*
X112387287Y-42684780D01*
X112770323Y-42624113D01*
X112770330Y-42624112D01*
X113144936Y-42523737D01*
X113506994Y-42384755D01*
X113852543Y-42208689D01*
X114177771Y-41997484D01*
X114177784Y-41997474D01*
X114435348Y-41788902D01*
X114346446Y-41700000D01*
X138794540Y-41700000D01*
X138814326Y-41888256D01*
X138814327Y-41888259D01*
X138872818Y-42068277D01*
X138872821Y-42068284D01*
X138970716Y-42237844D01*
X138968150Y-42239325D01*
X138987250Y-42293098D01*
X138971327Y-42361129D01*
X138970680Y-42362135D01*
X138970716Y-42362156D01*
X138872821Y-42531715D01*
X138872818Y-42531722D01*
X138823087Y-42684780D01*
X138814326Y-42711744D01*
X138794540Y-42900000D01*
X138814326Y-43088256D01*
X138814327Y-43088259D01*
X138872818Y-43268277D01*
X138872821Y-43268284D01*
X138967467Y-43432216D01*
X139069185Y-43545185D01*
X139094129Y-43572888D01*
X139247265Y-43684148D01*
X139247270Y-43684151D01*
X139420192Y-43761142D01*
X139420197Y-43761144D01*
X139605354Y-43800500D01*
X139605355Y-43800500D01*
X139794644Y-43800500D01*
X139794646Y-43800500D01*
X139979803Y-43761144D01*
X140152730Y-43684151D01*
X140305871Y-43572888D01*
X140308788Y-43569647D01*
X140311600Y-43566526D01*
X140371087Y-43529879D01*
X140403748Y-43525500D01*
X141096252Y-43525500D01*
X141163291Y-43545185D01*
X141188400Y-43566526D01*
X141194126Y-43572885D01*
X141194130Y-43572889D01*
X141347265Y-43684148D01*
X141347270Y-43684151D01*
X141520192Y-43761142D01*
X141520197Y-43761144D01*
X141705354Y-43800500D01*
X141705355Y-43800500D01*
X141894644Y-43800500D01*
X141894646Y-43800500D01*
X142079803Y-43761144D01*
X142252730Y-43684151D01*
X142405871Y-43572888D01*
X142532533Y-43432216D01*
X142627179Y-43268284D01*
X142685674Y-43088256D01*
X142705460Y-42900000D01*
X142685674Y-42711744D01*
X142629100Y-42537627D01*
X142627181Y-42531722D01*
X142627180Y-42531721D01*
X142627179Y-42531716D01*
X142558060Y-42411999D01*
X142541588Y-42344100D01*
X142558061Y-42288000D01*
X142569448Y-42268277D01*
X142627179Y-42168284D01*
X142685674Y-41988256D01*
X142705460Y-41800000D01*
X142685674Y-41611744D01*
X142627179Y-41431716D01*
X142532533Y-41267784D01*
X142405871Y-41127112D01*
X142405870Y-41127111D01*
X142252734Y-41015851D01*
X142252729Y-41015848D01*
X142079807Y-40938857D01*
X142079802Y-40938855D01*
X141934001Y-40907865D01*
X141894646Y-40899500D01*
X141705354Y-40899500D01*
X141672897Y-40906398D01*
X141520197Y-40938855D01*
X141520192Y-40938857D01*
X141347270Y-41015848D01*
X141347265Y-41015851D01*
X141299138Y-41050818D01*
X141233331Y-41074298D01*
X141226253Y-41074500D01*
X140403748Y-41074500D01*
X140336709Y-41054815D01*
X140311600Y-41033474D01*
X140305873Y-41027114D01*
X140305869Y-41027110D01*
X140152734Y-40915851D01*
X140152729Y-40915848D01*
X139979807Y-40838857D01*
X139979802Y-40838855D01*
X139834001Y-40807865D01*
X139794646Y-40799500D01*
X139605354Y-40799500D01*
X139572897Y-40806398D01*
X139420197Y-40838855D01*
X139420192Y-40838857D01*
X139247270Y-40915848D01*
X139247265Y-40915851D01*
X139094129Y-41027111D01*
X138967466Y-41167785D01*
X138872821Y-41331715D01*
X138872818Y-41331722D01*
X138828609Y-41467785D01*
X138814326Y-41511744D01*
X138794540Y-41700000D01*
X114346446Y-41700000D01*
X112940698Y-40294252D01*
X113042330Y-40220412D01*
X113220412Y-40042330D01*
X113294252Y-39940698D01*
X114788902Y-41435348D01*
X114997474Y-41177784D01*
X114997484Y-41177771D01*
X115208689Y-40852543D01*
X115384755Y-40506994D01*
X115523737Y-40144936D01*
X115562572Y-40000000D01*
X145894540Y-40000000D01*
X145914326Y-40188256D01*
X145914327Y-40188259D01*
X145972818Y-40368277D01*
X145972821Y-40368284D01*
X146067467Y-40532216D01*
X146157506Y-40632214D01*
X146194129Y-40672888D01*
X146347265Y-40784148D01*
X146347270Y-40784151D01*
X146520192Y-40861142D01*
X146520197Y-40861144D01*
X146705354Y-40900500D01*
X146764548Y-40900500D01*
X146831587Y-40920185D01*
X146852229Y-40936819D01*
X147861038Y-41945628D01*
X147894523Y-42006951D01*
X147896678Y-42020347D01*
X147901716Y-42068277D01*
X147914326Y-42188256D01*
X147914327Y-42188259D01*
X147972818Y-42368277D01*
X147972821Y-42368284D01*
X148067467Y-42532216D01*
X148129057Y-42600618D01*
X148194129Y-42672888D01*
X148347265Y-42784148D01*
X148347270Y-42784151D01*
X148520192Y-42861142D01*
X148520197Y-42861144D01*
X148705354Y-42900500D01*
X148705355Y-42900500D01*
X148894644Y-42900500D01*
X148894646Y-42900500D01*
X149079803Y-42861144D01*
X149252730Y-42784151D01*
X149405871Y-42672888D01*
X149532533Y-42532216D01*
X149627179Y-42368284D01*
X149685674Y-42188256D01*
X149705460Y-42000000D01*
X149685674Y-41811744D01*
X149627179Y-41631716D01*
X149532533Y-41467784D01*
X149405871Y-41327112D01*
X149405870Y-41327111D01*
X149252734Y-41215851D01*
X149252729Y-41215848D01*
X149079807Y-41138857D01*
X149079802Y-41138855D01*
X148934001Y-41107865D01*
X148894646Y-41099500D01*
X148894645Y-41099500D01*
X148835452Y-41099500D01*
X148768413Y-41079815D01*
X148747771Y-41063181D01*
X147738960Y-40054370D01*
X147705475Y-39993047D01*
X147703323Y-39979671D01*
X147685674Y-39811744D01*
X147627179Y-39631716D01*
X147532533Y-39467784D01*
X147405871Y-39327112D01*
X147390369Y-39315849D01*
X147252734Y-39215851D01*
X147252729Y-39215848D01*
X147079807Y-39138857D01*
X147079802Y-39138855D01*
X146934001Y-39107865D01*
X146894646Y-39099500D01*
X146705354Y-39099500D01*
X146672897Y-39106398D01*
X146520197Y-39138855D01*
X146520192Y-39138857D01*
X146347270Y-39215848D01*
X146347265Y-39215851D01*
X146194129Y-39327111D01*
X146067466Y-39467785D01*
X145972821Y-39631715D01*
X145972818Y-39631722D01*
X145927782Y-39770330D01*
X145914326Y-39811744D01*
X145894540Y-40000000D01*
X115562572Y-40000000D01*
X115624112Y-39770330D01*
X115624113Y-39770323D01*
X115684780Y-39387287D01*
X115705078Y-39000000D01*
X115705078Y-38999999D01*
X115684780Y-38612712D01*
X115624113Y-38229676D01*
X115624112Y-38229669D01*
X115523737Y-37855063D01*
X115384755Y-37493005D01*
X115208689Y-37147456D01*
X114997476Y-36822216D01*
X114997475Y-36822214D01*
X114788902Y-36564650D01*
X113294251Y-38059301D01*
X113220412Y-37957670D01*
X113042330Y-37779588D01*
X112940698Y-37705748D01*
X114435349Y-36211096D01*
X114434934Y-36203194D01*
X114407085Y-36162879D01*
X114404757Y-36093049D01*
X114440552Y-36033045D01*
X114503105Y-36001918D01*
X114524832Y-36000000D01*
X134843874Y-36000000D01*
X134910913Y-36019685D01*
G37*
%TD.AperFunction*%
%TA.AperFunction,Conductor*%
G36*
X174788903Y-143435349D02*
G01*
X174796802Y-143434935D01*
X174837121Y-143407084D01*
X174906952Y-143404756D01*
X174966956Y-143440551D01*
X174998082Y-143503105D01*
X175000000Y-143524831D01*
X175000000Y-143876000D01*
X174980315Y-143943039D01*
X174927511Y-143988794D01*
X174876000Y-144000000D01*
X174524831Y-144000000D01*
X174457792Y-143980315D01*
X174412037Y-143927511D01*
X174402093Y-143858353D01*
X174431118Y-143794797D01*
X174435249Y-143790800D01*
X174435349Y-143788903D01*
X172940698Y-142294252D01*
X173042330Y-142220412D01*
X173220412Y-142042330D01*
X173294252Y-141940698D01*
X174788903Y-143435349D01*
G37*
%TD.AperFunction*%
%TA.AperFunction,Conductor*%
G36*
X109542205Y-36019685D02*
G01*
X109587960Y-36072489D01*
X109597904Y-36141647D01*
X109568879Y-36205203D01*
X109564748Y-36209197D01*
X109564649Y-36211096D01*
X111059301Y-37705748D01*
X110957670Y-37779588D01*
X110779588Y-37957670D01*
X110705748Y-38059301D01*
X109211096Y-36564649D01*
X109203193Y-36565063D01*
X109162878Y-36592913D01*
X109093047Y-36595240D01*
X109033044Y-36559444D01*
X109001918Y-36496890D01*
X109000000Y-36475165D01*
X109000000Y-36124000D01*
X109019685Y-36056961D01*
X109072489Y-36011206D01*
X109124000Y-36000000D01*
X109475166Y-36000000D01*
X109542205Y-36019685D01*
G37*
%TD.AperFunction*%
%TA.AperFunction,Conductor*%
G36*
X174943039Y-36019685D02*
G01*
X174988794Y-36072489D01*
X175000000Y-36124000D01*
X175000000Y-36475167D01*
X174980315Y-36542206D01*
X174927511Y-36587961D01*
X174858353Y-36597905D01*
X174794797Y-36568880D01*
X174790801Y-36564749D01*
X174788903Y-36564649D01*
X173294251Y-38059301D01*
X173220412Y-37957670D01*
X173042330Y-37779588D01*
X172940698Y-37705748D01*
X174435349Y-36211096D01*
X174434934Y-36203194D01*
X174407085Y-36162879D01*
X174404757Y-36093049D01*
X174440552Y-36033045D01*
X174503105Y-36001918D01*
X174524832Y-36000000D01*
X174876000Y-36000000D01*
X174943039Y-36019685D01*
G37*
%TD.AperFunction*%
%TD*%
M02*
