%TF.GenerationSoftware,KiCad,Pcbnew,8.0.9-8.0.9-0~ubuntu22.04.1*%
%TF.CreationDate,2025-08-30T17:36:57-05:00*%
%TF.ProjectId,Multimeter,4d756c74-696d-4657-9465-722e6b696361,rev?*%
%TF.SameCoordinates,Original*%
%TF.FileFunction,Soldermask,Top*%
%TF.FilePolarity,Negative*%
%FSLAX46Y46*%
G04 Gerber Fmt 4.6, Leading zero omitted, Abs format (unit mm)*
G04 Created by KiCad (PCBNEW 8.0.9-8.0.9-0~ubuntu22.04.1) date 2025-08-30 17:36:57*
%MOMM*%
%LPD*%
G01*
G04 APERTURE LIST*
G04 Aperture macros list*
%AMRoundRect*
0 Rectangle with rounded corners*
0 $1 Rounding radius*
0 $2 $3 $4 $5 $6 $7 $8 $9 X,Y pos of 4 corners*
0 Add a 4 corners polygon primitive as box body*
4,1,4,$2,$3,$4,$5,$6,$7,$8,$9,$2,$3,0*
0 Add four circle primitives for the rounded corners*
1,1,$1+$1,$2,$3*
1,1,$1+$1,$4,$5*
1,1,$1+$1,$6,$7*
1,1,$1+$1,$8,$9*
0 Add four rect primitives between the rounded corners*
20,1,$1+$1,$2,$3,$4,$5,0*
20,1,$1+$1,$4,$5,$6,$7,0*
20,1,$1+$1,$6,$7,$8,$9,0*
20,1,$1+$1,$8,$9,$2,$3,0*%
G04 Aperture macros list end*
%ADD10C,0.010000*%
%ADD11RoundRect,0.150000X0.150000X-0.587500X0.150000X0.587500X-0.150000X0.587500X-0.150000X-0.587500X0*%
%ADD12RoundRect,0.250000X0.450000X-0.262500X0.450000X0.262500X-0.450000X0.262500X-0.450000X-0.262500X0*%
%ADD13RoundRect,0.150000X-0.825000X-0.150000X0.825000X-0.150000X0.825000X0.150000X-0.825000X0.150000X0*%
%ADD14RoundRect,0.250000X-0.450000X0.262500X-0.450000X-0.262500X0.450000X-0.262500X0.450000X0.262500X0*%
%ADD15RoundRect,0.150000X-0.150000X0.587500X-0.150000X-0.587500X0.150000X-0.587500X0.150000X0.587500X0*%
%ADD16RoundRect,0.250000X-0.262500X-0.450000X0.262500X-0.450000X0.262500X0.450000X-0.262500X0.450000X0*%
%ADD17R,1.700000X1.700000*%
%ADD18C,1.700000*%
%ADD19C,3.500000*%
%ADD20RoundRect,0.243750X0.456250X-0.243750X0.456250X0.243750X-0.456250X0.243750X-0.456250X-0.243750X0*%
%ADD21C,8.104000*%
%ADD22RoundRect,0.100000X-0.675000X-0.100000X0.675000X-0.100000X0.675000X0.100000X-0.675000X0.100000X0*%
%ADD23RoundRect,0.100000X-0.712500X-0.100000X0.712500X-0.100000X0.712500X0.100000X-0.712500X0.100000X0*%
%ADD24RoundRect,0.150000X0.150000X-0.512500X0.150000X0.512500X-0.150000X0.512500X-0.150000X-0.512500X0*%
%ADD25RoundRect,0.225000X-0.375000X0.225000X-0.375000X-0.225000X0.375000X-0.225000X0.375000X0.225000X0*%
%ADD26C,0.800000*%
%ADD27C,6.400000*%
%ADD28RoundRect,0.250000X-0.475000X0.250000X-0.475000X-0.250000X0.475000X-0.250000X0.475000X0.250000X0*%
%ADD29R,1.500000X1.500000*%
%ADD30O,2.004000X1.304000*%
%ADD31O,1.654000X1.254000*%
%ADD32RoundRect,0.511200X0.340800X-0.340800X0.340800X0.340800X-0.340800X0.340800X-0.340800X-0.340800X0*%
%ADD33RoundRect,0.250000X0.300000X0.300000X-0.300000X0.300000X-0.300000X-0.300000X0.300000X-0.300000X0*%
%ADD34RoundRect,0.102000X-1.314450X-1.314450X1.314450X-1.314450X1.314450X1.314450X-1.314450X1.314450X0*%
%ADD35C,2.832900*%
%ADD36RoundRect,0.250000X0.475000X-0.250000X0.475000X0.250000X-0.475000X0.250000X-0.475000X-0.250000X0*%
%ADD37RoundRect,0.250000X0.262500X0.450000X-0.262500X0.450000X-0.262500X-0.450000X0.262500X-0.450000X0*%
%ADD38RoundRect,0.250000X-0.250000X-0.475000X0.250000X-0.475000X0.250000X0.475000X-0.250000X0.475000X0*%
%ADD39C,2.000000*%
%ADD40RoundRect,0.250000X-1.000000X-0.900000X1.000000X-0.900000X1.000000X0.900000X-1.000000X0.900000X0*%
%ADD41RoundRect,0.225000X0.375000X-0.225000X0.375000X0.225000X-0.375000X0.225000X-0.375000X-0.225000X0*%
%ADD42RoundRect,0.250000X0.250000X0.475000X-0.250000X0.475000X-0.250000X-0.475000X0.250000X-0.475000X0*%
%ADD43RoundRect,0.100000X-0.637500X-0.100000X0.637500X-0.100000X0.637500X0.100000X-0.637500X0.100000X0*%
%ADD44RoundRect,0.243750X0.243750X0.456250X-0.243750X0.456250X-0.243750X-0.456250X0.243750X-0.456250X0*%
%ADD45RoundRect,0.150000X-0.512500X-0.150000X0.512500X-0.150000X0.512500X0.150000X-0.512500X0.150000X0*%
%ADD46C,1.500000*%
G04 APERTURE END LIST*
D10*
%TO.C,U1*%
X112770000Y-79110000D02*
X112769000Y-79157000D01*
X112765000Y-79204000D01*
X112759000Y-79251000D01*
X112750000Y-79297000D01*
X112739000Y-79343000D01*
X112726000Y-79388000D01*
X112710000Y-79433000D01*
X112692000Y-79476000D01*
X112672000Y-79519000D01*
X112649000Y-79560000D01*
X112625000Y-79600000D01*
X112598000Y-79639000D01*
X112569000Y-79676000D01*
X112539000Y-79712000D01*
X112506000Y-79746000D01*
X112472000Y-79779000D01*
X112436000Y-79809000D01*
X112399000Y-79838000D01*
X112360000Y-79865000D01*
X112320000Y-79889000D01*
X112279000Y-79912000D01*
X112236000Y-79932000D01*
X112193000Y-79950000D01*
X112148000Y-79966000D01*
X112103000Y-79979000D01*
X112057000Y-79990000D01*
X112011000Y-79999000D01*
X111964000Y-80005000D01*
X111917000Y-80009000D01*
X111870000Y-80010000D01*
X111823000Y-80009000D01*
X111776000Y-80005000D01*
X111729000Y-79999000D01*
X111683000Y-79990000D01*
X111637000Y-79979000D01*
X111592000Y-79966000D01*
X111547000Y-79950000D01*
X111504000Y-79932000D01*
X111461000Y-79912000D01*
X111420000Y-79889000D01*
X111380000Y-79865000D01*
X111341000Y-79838000D01*
X111304000Y-79809000D01*
X111268000Y-79779000D01*
X111234000Y-79746000D01*
X111201000Y-79712000D01*
X111171000Y-79676000D01*
X111142000Y-79639000D01*
X111115000Y-79600000D01*
X111091000Y-79560000D01*
X111068000Y-79519000D01*
X111048000Y-79476000D01*
X111030000Y-79433000D01*
X111014000Y-79388000D01*
X111001000Y-79343000D01*
X110990000Y-79297000D01*
X110981000Y-79251000D01*
X110975000Y-79204000D01*
X110971000Y-79157000D01*
X110970000Y-79110000D01*
X110970000Y-76610000D01*
X112770000Y-76610000D01*
X112770000Y-79110000D01*
G36*
X112770000Y-79110000D02*
G01*
X112769000Y-79157000D01*
X112765000Y-79204000D01*
X112759000Y-79251000D01*
X112750000Y-79297000D01*
X112739000Y-79343000D01*
X112726000Y-79388000D01*
X112710000Y-79433000D01*
X112692000Y-79476000D01*
X112672000Y-79519000D01*
X112649000Y-79560000D01*
X112625000Y-79600000D01*
X112598000Y-79639000D01*
X112569000Y-79676000D01*
X112539000Y-79712000D01*
X112506000Y-79746000D01*
X112472000Y-79779000D01*
X112436000Y-79809000D01*
X112399000Y-79838000D01*
X112360000Y-79865000D01*
X112320000Y-79889000D01*
X112279000Y-79912000D01*
X112236000Y-79932000D01*
X112193000Y-79950000D01*
X112148000Y-79966000D01*
X112103000Y-79979000D01*
X112057000Y-79990000D01*
X112011000Y-79999000D01*
X111964000Y-80005000D01*
X111917000Y-80009000D01*
X111870000Y-80010000D01*
X111823000Y-80009000D01*
X111776000Y-80005000D01*
X111729000Y-79999000D01*
X111683000Y-79990000D01*
X111637000Y-79979000D01*
X111592000Y-79966000D01*
X111547000Y-79950000D01*
X111504000Y-79932000D01*
X111461000Y-79912000D01*
X111420000Y-79889000D01*
X111380000Y-79865000D01*
X111341000Y-79838000D01*
X111304000Y-79809000D01*
X111268000Y-79779000D01*
X111234000Y-79746000D01*
X111201000Y-79712000D01*
X111171000Y-79676000D01*
X111142000Y-79639000D01*
X111115000Y-79600000D01*
X111091000Y-79560000D01*
X111068000Y-79519000D01*
X111048000Y-79476000D01*
X111030000Y-79433000D01*
X111014000Y-79388000D01*
X111001000Y-79343000D01*
X110990000Y-79297000D01*
X110981000Y-79251000D01*
X110975000Y-79204000D01*
X110971000Y-79157000D01*
X110970000Y-79110000D01*
X110970000Y-76610000D01*
X112770000Y-76610000D01*
X112770000Y-79110000D01*
G37*
X111917000Y-95991000D02*
X111964000Y-95995000D01*
X112011000Y-96001000D01*
X112057000Y-96010000D01*
X112103000Y-96021000D01*
X112148000Y-96034000D01*
X112193000Y-96050000D01*
X112236000Y-96068000D01*
X112279000Y-96088000D01*
X112320000Y-96111000D01*
X112360000Y-96135000D01*
X112399000Y-96162000D01*
X112436000Y-96191000D01*
X112472000Y-96221000D01*
X112506000Y-96254000D01*
X112539000Y-96288000D01*
X112569000Y-96324000D01*
X112598000Y-96361000D01*
X112625000Y-96400000D01*
X112649000Y-96440000D01*
X112672000Y-96481000D01*
X112692000Y-96524000D01*
X112710000Y-96567000D01*
X112726000Y-96612000D01*
X112739000Y-96657000D01*
X112750000Y-96703000D01*
X112759000Y-96749000D01*
X112765000Y-96796000D01*
X112769000Y-96843000D01*
X112770000Y-96890000D01*
X112770000Y-99390000D01*
X110970000Y-99390000D01*
X110970000Y-96890000D01*
X110971000Y-96843000D01*
X110975000Y-96796000D01*
X110981000Y-96749000D01*
X110990000Y-96703000D01*
X111001000Y-96657000D01*
X111014000Y-96612000D01*
X111030000Y-96567000D01*
X111048000Y-96524000D01*
X111068000Y-96481000D01*
X111091000Y-96440000D01*
X111115000Y-96400000D01*
X111142000Y-96361000D01*
X111171000Y-96324000D01*
X111201000Y-96288000D01*
X111234000Y-96254000D01*
X111268000Y-96221000D01*
X111304000Y-96191000D01*
X111341000Y-96162000D01*
X111380000Y-96135000D01*
X111420000Y-96111000D01*
X111461000Y-96088000D01*
X111504000Y-96068000D01*
X111547000Y-96050000D01*
X111592000Y-96034000D01*
X111637000Y-96021000D01*
X111683000Y-96010000D01*
X111729000Y-96001000D01*
X111776000Y-95995000D01*
X111823000Y-95991000D01*
X111870000Y-95990000D01*
X111917000Y-95991000D01*
G36*
X111917000Y-95991000D02*
G01*
X111964000Y-95995000D01*
X112011000Y-96001000D01*
X112057000Y-96010000D01*
X112103000Y-96021000D01*
X112148000Y-96034000D01*
X112193000Y-96050000D01*
X112236000Y-96068000D01*
X112279000Y-96088000D01*
X112320000Y-96111000D01*
X112360000Y-96135000D01*
X112399000Y-96162000D01*
X112436000Y-96191000D01*
X112472000Y-96221000D01*
X112506000Y-96254000D01*
X112539000Y-96288000D01*
X112569000Y-96324000D01*
X112598000Y-96361000D01*
X112625000Y-96400000D01*
X112649000Y-96440000D01*
X112672000Y-96481000D01*
X112692000Y-96524000D01*
X112710000Y-96567000D01*
X112726000Y-96612000D01*
X112739000Y-96657000D01*
X112750000Y-96703000D01*
X112759000Y-96749000D01*
X112765000Y-96796000D01*
X112769000Y-96843000D01*
X112770000Y-96890000D01*
X112770000Y-99390000D01*
X110970000Y-99390000D01*
X110970000Y-96890000D01*
X110971000Y-96843000D01*
X110975000Y-96796000D01*
X110981000Y-96749000D01*
X110990000Y-96703000D01*
X111001000Y-96657000D01*
X111014000Y-96612000D01*
X111030000Y-96567000D01*
X111048000Y-96524000D01*
X111068000Y-96481000D01*
X111091000Y-96440000D01*
X111115000Y-96400000D01*
X111142000Y-96361000D01*
X111171000Y-96324000D01*
X111201000Y-96288000D01*
X111234000Y-96254000D01*
X111268000Y-96221000D01*
X111304000Y-96191000D01*
X111341000Y-96162000D01*
X111380000Y-96135000D01*
X111420000Y-96111000D01*
X111461000Y-96088000D01*
X111504000Y-96068000D01*
X111547000Y-96050000D01*
X111592000Y-96034000D01*
X111637000Y-96021000D01*
X111683000Y-96010000D01*
X111729000Y-96001000D01*
X111776000Y-95995000D01*
X111823000Y-95991000D01*
X111870000Y-95990000D01*
X111917000Y-95991000D01*
G37*
X115310000Y-79110000D02*
X115309000Y-79157000D01*
X115305000Y-79204000D01*
X115299000Y-79251000D01*
X115290000Y-79297000D01*
X115279000Y-79343000D01*
X115266000Y-79388000D01*
X115250000Y-79433000D01*
X115232000Y-79476000D01*
X115212000Y-79519000D01*
X115189000Y-79560000D01*
X115165000Y-79600000D01*
X115138000Y-79639000D01*
X115109000Y-79676000D01*
X115079000Y-79712000D01*
X115046000Y-79746000D01*
X115012000Y-79779000D01*
X114976000Y-79809000D01*
X114939000Y-79838000D01*
X114900000Y-79865000D01*
X114860000Y-79889000D01*
X114819000Y-79912000D01*
X114776000Y-79932000D01*
X114733000Y-79950000D01*
X114688000Y-79966000D01*
X114643000Y-79979000D01*
X114597000Y-79990000D01*
X114551000Y-79999000D01*
X114504000Y-80005000D01*
X114457000Y-80009000D01*
X114410000Y-80010000D01*
X114363000Y-80009000D01*
X114316000Y-80005000D01*
X114269000Y-79999000D01*
X114223000Y-79990000D01*
X114177000Y-79979000D01*
X114132000Y-79966000D01*
X114087000Y-79950000D01*
X114044000Y-79932000D01*
X114001000Y-79912000D01*
X113960000Y-79889000D01*
X113920000Y-79865000D01*
X113881000Y-79838000D01*
X113844000Y-79809000D01*
X113808000Y-79779000D01*
X113774000Y-79746000D01*
X113741000Y-79712000D01*
X113711000Y-79676000D01*
X113682000Y-79639000D01*
X113655000Y-79600000D01*
X113631000Y-79560000D01*
X113608000Y-79519000D01*
X113588000Y-79476000D01*
X113570000Y-79433000D01*
X113554000Y-79388000D01*
X113541000Y-79343000D01*
X113530000Y-79297000D01*
X113521000Y-79251000D01*
X113515000Y-79204000D01*
X113511000Y-79157000D01*
X113510000Y-79110000D01*
X113510000Y-76610000D01*
X115310000Y-76610000D01*
X115310000Y-79110000D01*
G36*
X115310000Y-79110000D02*
G01*
X115309000Y-79157000D01*
X115305000Y-79204000D01*
X115299000Y-79251000D01*
X115290000Y-79297000D01*
X115279000Y-79343000D01*
X115266000Y-79388000D01*
X115250000Y-79433000D01*
X115232000Y-79476000D01*
X115212000Y-79519000D01*
X115189000Y-79560000D01*
X115165000Y-79600000D01*
X115138000Y-79639000D01*
X115109000Y-79676000D01*
X115079000Y-79712000D01*
X115046000Y-79746000D01*
X115012000Y-79779000D01*
X114976000Y-79809000D01*
X114939000Y-79838000D01*
X114900000Y-79865000D01*
X114860000Y-79889000D01*
X114819000Y-79912000D01*
X114776000Y-79932000D01*
X114733000Y-79950000D01*
X114688000Y-79966000D01*
X114643000Y-79979000D01*
X114597000Y-79990000D01*
X114551000Y-79999000D01*
X114504000Y-80005000D01*
X114457000Y-80009000D01*
X114410000Y-80010000D01*
X114363000Y-80009000D01*
X114316000Y-80005000D01*
X114269000Y-79999000D01*
X114223000Y-79990000D01*
X114177000Y-79979000D01*
X114132000Y-79966000D01*
X114087000Y-79950000D01*
X114044000Y-79932000D01*
X114001000Y-79912000D01*
X113960000Y-79889000D01*
X113920000Y-79865000D01*
X113881000Y-79838000D01*
X113844000Y-79809000D01*
X113808000Y-79779000D01*
X113774000Y-79746000D01*
X113741000Y-79712000D01*
X113711000Y-79676000D01*
X113682000Y-79639000D01*
X113655000Y-79600000D01*
X113631000Y-79560000D01*
X113608000Y-79519000D01*
X113588000Y-79476000D01*
X113570000Y-79433000D01*
X113554000Y-79388000D01*
X113541000Y-79343000D01*
X113530000Y-79297000D01*
X113521000Y-79251000D01*
X113515000Y-79204000D01*
X113511000Y-79157000D01*
X113510000Y-79110000D01*
X113510000Y-76610000D01*
X115310000Y-76610000D01*
X115310000Y-79110000D01*
G37*
X114457000Y-95991000D02*
X114504000Y-95995000D01*
X114551000Y-96001000D01*
X114597000Y-96010000D01*
X114643000Y-96021000D01*
X114688000Y-96034000D01*
X114733000Y-96050000D01*
X114776000Y-96068000D01*
X114819000Y-96088000D01*
X114860000Y-96111000D01*
X114900000Y-96135000D01*
X114939000Y-96162000D01*
X114976000Y-96191000D01*
X115012000Y-96221000D01*
X115046000Y-96254000D01*
X115079000Y-96288000D01*
X115109000Y-96324000D01*
X115138000Y-96361000D01*
X115165000Y-96400000D01*
X115189000Y-96440000D01*
X115212000Y-96481000D01*
X115232000Y-96524000D01*
X115250000Y-96567000D01*
X115266000Y-96612000D01*
X115279000Y-96657000D01*
X115290000Y-96703000D01*
X115299000Y-96749000D01*
X115305000Y-96796000D01*
X115309000Y-96843000D01*
X115310000Y-96890000D01*
X115310000Y-99390000D01*
X113510000Y-99390000D01*
X113510000Y-96890000D01*
X113511000Y-96843000D01*
X113515000Y-96796000D01*
X113521000Y-96749000D01*
X113530000Y-96703000D01*
X113541000Y-96657000D01*
X113554000Y-96612000D01*
X113570000Y-96567000D01*
X113588000Y-96524000D01*
X113608000Y-96481000D01*
X113631000Y-96440000D01*
X113655000Y-96400000D01*
X113682000Y-96361000D01*
X113711000Y-96324000D01*
X113741000Y-96288000D01*
X113774000Y-96254000D01*
X113808000Y-96221000D01*
X113844000Y-96191000D01*
X113881000Y-96162000D01*
X113920000Y-96135000D01*
X113960000Y-96111000D01*
X114001000Y-96088000D01*
X114044000Y-96068000D01*
X114087000Y-96050000D01*
X114132000Y-96034000D01*
X114177000Y-96021000D01*
X114223000Y-96010000D01*
X114269000Y-96001000D01*
X114316000Y-95995000D01*
X114363000Y-95991000D01*
X114410000Y-95990000D01*
X114457000Y-95991000D01*
G36*
X114457000Y-95991000D02*
G01*
X114504000Y-95995000D01*
X114551000Y-96001000D01*
X114597000Y-96010000D01*
X114643000Y-96021000D01*
X114688000Y-96034000D01*
X114733000Y-96050000D01*
X114776000Y-96068000D01*
X114819000Y-96088000D01*
X114860000Y-96111000D01*
X114900000Y-96135000D01*
X114939000Y-96162000D01*
X114976000Y-96191000D01*
X115012000Y-96221000D01*
X115046000Y-96254000D01*
X115079000Y-96288000D01*
X115109000Y-96324000D01*
X115138000Y-96361000D01*
X115165000Y-96400000D01*
X115189000Y-96440000D01*
X115212000Y-96481000D01*
X115232000Y-96524000D01*
X115250000Y-96567000D01*
X115266000Y-96612000D01*
X115279000Y-96657000D01*
X115290000Y-96703000D01*
X115299000Y-96749000D01*
X115305000Y-96796000D01*
X115309000Y-96843000D01*
X115310000Y-96890000D01*
X115310000Y-99390000D01*
X113510000Y-99390000D01*
X113510000Y-96890000D01*
X113511000Y-96843000D01*
X113515000Y-96796000D01*
X113521000Y-96749000D01*
X113530000Y-96703000D01*
X113541000Y-96657000D01*
X113554000Y-96612000D01*
X113570000Y-96567000D01*
X113588000Y-96524000D01*
X113608000Y-96481000D01*
X113631000Y-96440000D01*
X113655000Y-96400000D01*
X113682000Y-96361000D01*
X113711000Y-96324000D01*
X113741000Y-96288000D01*
X113774000Y-96254000D01*
X113808000Y-96221000D01*
X113844000Y-96191000D01*
X113881000Y-96162000D01*
X113920000Y-96135000D01*
X113960000Y-96111000D01*
X114001000Y-96088000D01*
X114044000Y-96068000D01*
X114087000Y-96050000D01*
X114132000Y-96034000D01*
X114177000Y-96021000D01*
X114223000Y-96010000D01*
X114269000Y-96001000D01*
X114316000Y-95995000D01*
X114363000Y-95991000D01*
X114410000Y-95990000D01*
X114457000Y-95991000D01*
G37*
X120390000Y-79110000D02*
X120389000Y-79157000D01*
X120385000Y-79204000D01*
X120379000Y-79251000D01*
X120370000Y-79297000D01*
X120359000Y-79343000D01*
X120346000Y-79388000D01*
X120330000Y-79433000D01*
X120312000Y-79476000D01*
X120292000Y-79519000D01*
X120269000Y-79560000D01*
X120245000Y-79600000D01*
X120218000Y-79639000D01*
X120189000Y-79676000D01*
X120159000Y-79712000D01*
X120126000Y-79746000D01*
X120092000Y-79779000D01*
X120056000Y-79809000D01*
X120019000Y-79838000D01*
X119980000Y-79865000D01*
X119940000Y-79889000D01*
X119899000Y-79912000D01*
X119856000Y-79932000D01*
X119813000Y-79950000D01*
X119768000Y-79966000D01*
X119723000Y-79979000D01*
X119677000Y-79990000D01*
X119631000Y-79999000D01*
X119584000Y-80005000D01*
X119537000Y-80009000D01*
X119490000Y-80010000D01*
X119443000Y-80009000D01*
X119396000Y-80005000D01*
X119349000Y-79999000D01*
X119303000Y-79990000D01*
X119257000Y-79979000D01*
X119212000Y-79966000D01*
X119167000Y-79950000D01*
X119124000Y-79932000D01*
X119081000Y-79912000D01*
X119040000Y-79889000D01*
X119000000Y-79865000D01*
X118961000Y-79838000D01*
X118924000Y-79809000D01*
X118888000Y-79779000D01*
X118854000Y-79746000D01*
X118821000Y-79712000D01*
X118791000Y-79676000D01*
X118762000Y-79639000D01*
X118735000Y-79600000D01*
X118711000Y-79560000D01*
X118688000Y-79519000D01*
X118668000Y-79476000D01*
X118650000Y-79433000D01*
X118634000Y-79388000D01*
X118621000Y-79343000D01*
X118610000Y-79297000D01*
X118601000Y-79251000D01*
X118595000Y-79204000D01*
X118591000Y-79157000D01*
X118590000Y-79110000D01*
X118590000Y-76610000D01*
X120390000Y-76610000D01*
X120390000Y-79110000D01*
G36*
X120390000Y-79110000D02*
G01*
X120389000Y-79157000D01*
X120385000Y-79204000D01*
X120379000Y-79251000D01*
X120370000Y-79297000D01*
X120359000Y-79343000D01*
X120346000Y-79388000D01*
X120330000Y-79433000D01*
X120312000Y-79476000D01*
X120292000Y-79519000D01*
X120269000Y-79560000D01*
X120245000Y-79600000D01*
X120218000Y-79639000D01*
X120189000Y-79676000D01*
X120159000Y-79712000D01*
X120126000Y-79746000D01*
X120092000Y-79779000D01*
X120056000Y-79809000D01*
X120019000Y-79838000D01*
X119980000Y-79865000D01*
X119940000Y-79889000D01*
X119899000Y-79912000D01*
X119856000Y-79932000D01*
X119813000Y-79950000D01*
X119768000Y-79966000D01*
X119723000Y-79979000D01*
X119677000Y-79990000D01*
X119631000Y-79999000D01*
X119584000Y-80005000D01*
X119537000Y-80009000D01*
X119490000Y-80010000D01*
X119443000Y-80009000D01*
X119396000Y-80005000D01*
X119349000Y-79999000D01*
X119303000Y-79990000D01*
X119257000Y-79979000D01*
X119212000Y-79966000D01*
X119167000Y-79950000D01*
X119124000Y-79932000D01*
X119081000Y-79912000D01*
X119040000Y-79889000D01*
X119000000Y-79865000D01*
X118961000Y-79838000D01*
X118924000Y-79809000D01*
X118888000Y-79779000D01*
X118854000Y-79746000D01*
X118821000Y-79712000D01*
X118791000Y-79676000D01*
X118762000Y-79639000D01*
X118735000Y-79600000D01*
X118711000Y-79560000D01*
X118688000Y-79519000D01*
X118668000Y-79476000D01*
X118650000Y-79433000D01*
X118634000Y-79388000D01*
X118621000Y-79343000D01*
X118610000Y-79297000D01*
X118601000Y-79251000D01*
X118595000Y-79204000D01*
X118591000Y-79157000D01*
X118590000Y-79110000D01*
X118590000Y-76610000D01*
X120390000Y-76610000D01*
X120390000Y-79110000D01*
G37*
X119537000Y-95991000D02*
X119584000Y-95995000D01*
X119631000Y-96001000D01*
X119677000Y-96010000D01*
X119723000Y-96021000D01*
X119768000Y-96034000D01*
X119813000Y-96050000D01*
X119856000Y-96068000D01*
X119899000Y-96088000D01*
X119940000Y-96111000D01*
X119980000Y-96135000D01*
X120019000Y-96162000D01*
X120056000Y-96191000D01*
X120092000Y-96221000D01*
X120126000Y-96254000D01*
X120159000Y-96288000D01*
X120189000Y-96324000D01*
X120218000Y-96361000D01*
X120245000Y-96400000D01*
X120269000Y-96440000D01*
X120292000Y-96481000D01*
X120312000Y-96524000D01*
X120330000Y-96567000D01*
X120346000Y-96612000D01*
X120359000Y-96657000D01*
X120370000Y-96703000D01*
X120379000Y-96749000D01*
X120385000Y-96796000D01*
X120389000Y-96843000D01*
X120390000Y-96890000D01*
X120390000Y-99390000D01*
X118590000Y-99390000D01*
X118590000Y-96890000D01*
X118591000Y-96843000D01*
X118595000Y-96796000D01*
X118601000Y-96749000D01*
X118610000Y-96703000D01*
X118621000Y-96657000D01*
X118634000Y-96612000D01*
X118650000Y-96567000D01*
X118668000Y-96524000D01*
X118688000Y-96481000D01*
X118711000Y-96440000D01*
X118735000Y-96400000D01*
X118762000Y-96361000D01*
X118791000Y-96324000D01*
X118821000Y-96288000D01*
X118854000Y-96254000D01*
X118888000Y-96221000D01*
X118924000Y-96191000D01*
X118961000Y-96162000D01*
X119000000Y-96135000D01*
X119040000Y-96111000D01*
X119081000Y-96088000D01*
X119124000Y-96068000D01*
X119167000Y-96050000D01*
X119212000Y-96034000D01*
X119257000Y-96021000D01*
X119303000Y-96010000D01*
X119349000Y-96001000D01*
X119396000Y-95995000D01*
X119443000Y-95991000D01*
X119490000Y-95990000D01*
X119537000Y-95991000D01*
G36*
X119537000Y-95991000D02*
G01*
X119584000Y-95995000D01*
X119631000Y-96001000D01*
X119677000Y-96010000D01*
X119723000Y-96021000D01*
X119768000Y-96034000D01*
X119813000Y-96050000D01*
X119856000Y-96068000D01*
X119899000Y-96088000D01*
X119940000Y-96111000D01*
X119980000Y-96135000D01*
X120019000Y-96162000D01*
X120056000Y-96191000D01*
X120092000Y-96221000D01*
X120126000Y-96254000D01*
X120159000Y-96288000D01*
X120189000Y-96324000D01*
X120218000Y-96361000D01*
X120245000Y-96400000D01*
X120269000Y-96440000D01*
X120292000Y-96481000D01*
X120312000Y-96524000D01*
X120330000Y-96567000D01*
X120346000Y-96612000D01*
X120359000Y-96657000D01*
X120370000Y-96703000D01*
X120379000Y-96749000D01*
X120385000Y-96796000D01*
X120389000Y-96843000D01*
X120390000Y-96890000D01*
X120390000Y-99390000D01*
X118590000Y-99390000D01*
X118590000Y-96890000D01*
X118591000Y-96843000D01*
X118595000Y-96796000D01*
X118601000Y-96749000D01*
X118610000Y-96703000D01*
X118621000Y-96657000D01*
X118634000Y-96612000D01*
X118650000Y-96567000D01*
X118668000Y-96524000D01*
X118688000Y-96481000D01*
X118711000Y-96440000D01*
X118735000Y-96400000D01*
X118762000Y-96361000D01*
X118791000Y-96324000D01*
X118821000Y-96288000D01*
X118854000Y-96254000D01*
X118888000Y-96221000D01*
X118924000Y-96191000D01*
X118961000Y-96162000D01*
X119000000Y-96135000D01*
X119040000Y-96111000D01*
X119081000Y-96088000D01*
X119124000Y-96068000D01*
X119167000Y-96050000D01*
X119212000Y-96034000D01*
X119257000Y-96021000D01*
X119303000Y-96010000D01*
X119349000Y-96001000D01*
X119396000Y-95995000D01*
X119443000Y-95991000D01*
X119490000Y-95990000D01*
X119537000Y-95991000D01*
G37*
X122930000Y-79110000D02*
X122929000Y-79157000D01*
X122925000Y-79204000D01*
X122919000Y-79251000D01*
X122910000Y-79297000D01*
X122899000Y-79343000D01*
X122886000Y-79388000D01*
X122870000Y-79433000D01*
X122852000Y-79476000D01*
X122832000Y-79519000D01*
X122809000Y-79560000D01*
X122785000Y-79600000D01*
X122758000Y-79639000D01*
X122729000Y-79676000D01*
X122699000Y-79712000D01*
X122666000Y-79746000D01*
X122632000Y-79779000D01*
X122596000Y-79809000D01*
X122559000Y-79838000D01*
X122520000Y-79865000D01*
X122480000Y-79889000D01*
X122439000Y-79912000D01*
X122396000Y-79932000D01*
X122353000Y-79950000D01*
X122308000Y-79966000D01*
X122263000Y-79979000D01*
X122217000Y-79990000D01*
X122171000Y-79999000D01*
X122124000Y-80005000D01*
X122077000Y-80009000D01*
X122030000Y-80010000D01*
X121983000Y-80009000D01*
X121936000Y-80005000D01*
X121889000Y-79999000D01*
X121843000Y-79990000D01*
X121797000Y-79979000D01*
X121752000Y-79966000D01*
X121707000Y-79950000D01*
X121664000Y-79932000D01*
X121621000Y-79912000D01*
X121580000Y-79889000D01*
X121540000Y-79865000D01*
X121501000Y-79838000D01*
X121464000Y-79809000D01*
X121428000Y-79779000D01*
X121394000Y-79746000D01*
X121361000Y-79712000D01*
X121331000Y-79676000D01*
X121302000Y-79639000D01*
X121275000Y-79600000D01*
X121251000Y-79560000D01*
X121228000Y-79519000D01*
X121208000Y-79476000D01*
X121190000Y-79433000D01*
X121174000Y-79388000D01*
X121161000Y-79343000D01*
X121150000Y-79297000D01*
X121141000Y-79251000D01*
X121135000Y-79204000D01*
X121131000Y-79157000D01*
X121130000Y-79110000D01*
X121130000Y-76610000D01*
X122930000Y-76610000D01*
X122930000Y-79110000D01*
G36*
X122930000Y-79110000D02*
G01*
X122929000Y-79157000D01*
X122925000Y-79204000D01*
X122919000Y-79251000D01*
X122910000Y-79297000D01*
X122899000Y-79343000D01*
X122886000Y-79388000D01*
X122870000Y-79433000D01*
X122852000Y-79476000D01*
X122832000Y-79519000D01*
X122809000Y-79560000D01*
X122785000Y-79600000D01*
X122758000Y-79639000D01*
X122729000Y-79676000D01*
X122699000Y-79712000D01*
X122666000Y-79746000D01*
X122632000Y-79779000D01*
X122596000Y-79809000D01*
X122559000Y-79838000D01*
X122520000Y-79865000D01*
X122480000Y-79889000D01*
X122439000Y-79912000D01*
X122396000Y-79932000D01*
X122353000Y-79950000D01*
X122308000Y-79966000D01*
X122263000Y-79979000D01*
X122217000Y-79990000D01*
X122171000Y-79999000D01*
X122124000Y-80005000D01*
X122077000Y-80009000D01*
X122030000Y-80010000D01*
X121983000Y-80009000D01*
X121936000Y-80005000D01*
X121889000Y-79999000D01*
X121843000Y-79990000D01*
X121797000Y-79979000D01*
X121752000Y-79966000D01*
X121707000Y-79950000D01*
X121664000Y-79932000D01*
X121621000Y-79912000D01*
X121580000Y-79889000D01*
X121540000Y-79865000D01*
X121501000Y-79838000D01*
X121464000Y-79809000D01*
X121428000Y-79779000D01*
X121394000Y-79746000D01*
X121361000Y-79712000D01*
X121331000Y-79676000D01*
X121302000Y-79639000D01*
X121275000Y-79600000D01*
X121251000Y-79560000D01*
X121228000Y-79519000D01*
X121208000Y-79476000D01*
X121190000Y-79433000D01*
X121174000Y-79388000D01*
X121161000Y-79343000D01*
X121150000Y-79297000D01*
X121141000Y-79251000D01*
X121135000Y-79204000D01*
X121131000Y-79157000D01*
X121130000Y-79110000D01*
X121130000Y-76610000D01*
X122930000Y-76610000D01*
X122930000Y-79110000D01*
G37*
X122077000Y-95991000D02*
X122124000Y-95995000D01*
X122171000Y-96001000D01*
X122217000Y-96010000D01*
X122263000Y-96021000D01*
X122308000Y-96034000D01*
X122353000Y-96050000D01*
X122396000Y-96068000D01*
X122439000Y-96088000D01*
X122480000Y-96111000D01*
X122520000Y-96135000D01*
X122559000Y-96162000D01*
X122596000Y-96191000D01*
X122632000Y-96221000D01*
X122666000Y-96254000D01*
X122699000Y-96288000D01*
X122729000Y-96324000D01*
X122758000Y-96361000D01*
X122785000Y-96400000D01*
X122809000Y-96440000D01*
X122832000Y-96481000D01*
X122852000Y-96524000D01*
X122870000Y-96567000D01*
X122886000Y-96612000D01*
X122899000Y-96657000D01*
X122910000Y-96703000D01*
X122919000Y-96749000D01*
X122925000Y-96796000D01*
X122929000Y-96843000D01*
X122930000Y-96890000D01*
X122930000Y-99390000D01*
X121130000Y-99390000D01*
X121130000Y-96890000D01*
X121131000Y-96843000D01*
X121135000Y-96796000D01*
X121141000Y-96749000D01*
X121150000Y-96703000D01*
X121161000Y-96657000D01*
X121174000Y-96612000D01*
X121190000Y-96567000D01*
X121208000Y-96524000D01*
X121228000Y-96481000D01*
X121251000Y-96440000D01*
X121275000Y-96400000D01*
X121302000Y-96361000D01*
X121331000Y-96324000D01*
X121361000Y-96288000D01*
X121394000Y-96254000D01*
X121428000Y-96221000D01*
X121464000Y-96191000D01*
X121501000Y-96162000D01*
X121540000Y-96135000D01*
X121580000Y-96111000D01*
X121621000Y-96088000D01*
X121664000Y-96068000D01*
X121707000Y-96050000D01*
X121752000Y-96034000D01*
X121797000Y-96021000D01*
X121843000Y-96010000D01*
X121889000Y-96001000D01*
X121936000Y-95995000D01*
X121983000Y-95991000D01*
X122030000Y-95990000D01*
X122077000Y-95991000D01*
G36*
X122077000Y-95991000D02*
G01*
X122124000Y-95995000D01*
X122171000Y-96001000D01*
X122217000Y-96010000D01*
X122263000Y-96021000D01*
X122308000Y-96034000D01*
X122353000Y-96050000D01*
X122396000Y-96068000D01*
X122439000Y-96088000D01*
X122480000Y-96111000D01*
X122520000Y-96135000D01*
X122559000Y-96162000D01*
X122596000Y-96191000D01*
X122632000Y-96221000D01*
X122666000Y-96254000D01*
X122699000Y-96288000D01*
X122729000Y-96324000D01*
X122758000Y-96361000D01*
X122785000Y-96400000D01*
X122809000Y-96440000D01*
X122832000Y-96481000D01*
X122852000Y-96524000D01*
X122870000Y-96567000D01*
X122886000Y-96612000D01*
X122899000Y-96657000D01*
X122910000Y-96703000D01*
X122919000Y-96749000D01*
X122925000Y-96796000D01*
X122929000Y-96843000D01*
X122930000Y-96890000D01*
X122930000Y-99390000D01*
X121130000Y-99390000D01*
X121130000Y-96890000D01*
X121131000Y-96843000D01*
X121135000Y-96796000D01*
X121141000Y-96749000D01*
X121150000Y-96703000D01*
X121161000Y-96657000D01*
X121174000Y-96612000D01*
X121190000Y-96567000D01*
X121208000Y-96524000D01*
X121228000Y-96481000D01*
X121251000Y-96440000D01*
X121275000Y-96400000D01*
X121302000Y-96361000D01*
X121331000Y-96324000D01*
X121361000Y-96288000D01*
X121394000Y-96254000D01*
X121428000Y-96221000D01*
X121464000Y-96191000D01*
X121501000Y-96162000D01*
X121540000Y-96135000D01*
X121580000Y-96111000D01*
X121621000Y-96088000D01*
X121664000Y-96068000D01*
X121707000Y-96050000D01*
X121752000Y-96034000D01*
X121797000Y-96021000D01*
X121843000Y-96010000D01*
X121889000Y-96001000D01*
X121936000Y-95995000D01*
X121983000Y-95991000D01*
X122030000Y-95990000D01*
X122077000Y-95991000D01*
G37*
X125470000Y-79110000D02*
X125469000Y-79157000D01*
X125465000Y-79204000D01*
X125459000Y-79251000D01*
X125450000Y-79297000D01*
X125439000Y-79343000D01*
X125426000Y-79388000D01*
X125410000Y-79433000D01*
X125392000Y-79476000D01*
X125372000Y-79519000D01*
X125349000Y-79560000D01*
X125325000Y-79600000D01*
X125298000Y-79639000D01*
X125269000Y-79676000D01*
X125239000Y-79712000D01*
X125206000Y-79746000D01*
X125172000Y-79779000D01*
X125136000Y-79809000D01*
X125099000Y-79838000D01*
X125060000Y-79865000D01*
X125020000Y-79889000D01*
X124979000Y-79912000D01*
X124936000Y-79932000D01*
X124893000Y-79950000D01*
X124848000Y-79966000D01*
X124803000Y-79979000D01*
X124757000Y-79990000D01*
X124711000Y-79999000D01*
X124664000Y-80005000D01*
X124617000Y-80009000D01*
X124570000Y-80010000D01*
X124523000Y-80009000D01*
X124476000Y-80005000D01*
X124429000Y-79999000D01*
X124383000Y-79990000D01*
X124337000Y-79979000D01*
X124292000Y-79966000D01*
X124247000Y-79950000D01*
X124204000Y-79932000D01*
X124161000Y-79912000D01*
X124120000Y-79889000D01*
X124080000Y-79865000D01*
X124041000Y-79838000D01*
X124004000Y-79809000D01*
X123968000Y-79779000D01*
X123934000Y-79746000D01*
X123901000Y-79712000D01*
X123871000Y-79676000D01*
X123842000Y-79639000D01*
X123815000Y-79600000D01*
X123791000Y-79560000D01*
X123768000Y-79519000D01*
X123748000Y-79476000D01*
X123730000Y-79433000D01*
X123714000Y-79388000D01*
X123701000Y-79343000D01*
X123690000Y-79297000D01*
X123681000Y-79251000D01*
X123675000Y-79204000D01*
X123671000Y-79157000D01*
X123670000Y-79110000D01*
X123670000Y-76610000D01*
X125470000Y-76610000D01*
X125470000Y-79110000D01*
G36*
X125470000Y-79110000D02*
G01*
X125469000Y-79157000D01*
X125465000Y-79204000D01*
X125459000Y-79251000D01*
X125450000Y-79297000D01*
X125439000Y-79343000D01*
X125426000Y-79388000D01*
X125410000Y-79433000D01*
X125392000Y-79476000D01*
X125372000Y-79519000D01*
X125349000Y-79560000D01*
X125325000Y-79600000D01*
X125298000Y-79639000D01*
X125269000Y-79676000D01*
X125239000Y-79712000D01*
X125206000Y-79746000D01*
X125172000Y-79779000D01*
X125136000Y-79809000D01*
X125099000Y-79838000D01*
X125060000Y-79865000D01*
X125020000Y-79889000D01*
X124979000Y-79912000D01*
X124936000Y-79932000D01*
X124893000Y-79950000D01*
X124848000Y-79966000D01*
X124803000Y-79979000D01*
X124757000Y-79990000D01*
X124711000Y-79999000D01*
X124664000Y-80005000D01*
X124617000Y-80009000D01*
X124570000Y-80010000D01*
X124523000Y-80009000D01*
X124476000Y-80005000D01*
X124429000Y-79999000D01*
X124383000Y-79990000D01*
X124337000Y-79979000D01*
X124292000Y-79966000D01*
X124247000Y-79950000D01*
X124204000Y-79932000D01*
X124161000Y-79912000D01*
X124120000Y-79889000D01*
X124080000Y-79865000D01*
X124041000Y-79838000D01*
X124004000Y-79809000D01*
X123968000Y-79779000D01*
X123934000Y-79746000D01*
X123901000Y-79712000D01*
X123871000Y-79676000D01*
X123842000Y-79639000D01*
X123815000Y-79600000D01*
X123791000Y-79560000D01*
X123768000Y-79519000D01*
X123748000Y-79476000D01*
X123730000Y-79433000D01*
X123714000Y-79388000D01*
X123701000Y-79343000D01*
X123690000Y-79297000D01*
X123681000Y-79251000D01*
X123675000Y-79204000D01*
X123671000Y-79157000D01*
X123670000Y-79110000D01*
X123670000Y-76610000D01*
X125470000Y-76610000D01*
X125470000Y-79110000D01*
G37*
X124617000Y-95991000D02*
X124664000Y-95995000D01*
X124711000Y-96001000D01*
X124757000Y-96010000D01*
X124803000Y-96021000D01*
X124848000Y-96034000D01*
X124893000Y-96050000D01*
X124936000Y-96068000D01*
X124979000Y-96088000D01*
X125020000Y-96111000D01*
X125060000Y-96135000D01*
X125099000Y-96162000D01*
X125136000Y-96191000D01*
X125172000Y-96221000D01*
X125206000Y-96254000D01*
X125239000Y-96288000D01*
X125269000Y-96324000D01*
X125298000Y-96361000D01*
X125325000Y-96400000D01*
X125349000Y-96440000D01*
X125372000Y-96481000D01*
X125392000Y-96524000D01*
X125410000Y-96567000D01*
X125426000Y-96612000D01*
X125439000Y-96657000D01*
X125450000Y-96703000D01*
X125459000Y-96749000D01*
X125465000Y-96796000D01*
X125469000Y-96843000D01*
X125470000Y-96890000D01*
X125470000Y-99390000D01*
X123670000Y-99390000D01*
X123670000Y-96890000D01*
X123671000Y-96843000D01*
X123675000Y-96796000D01*
X123681000Y-96749000D01*
X123690000Y-96703000D01*
X123701000Y-96657000D01*
X123714000Y-96612000D01*
X123730000Y-96567000D01*
X123748000Y-96524000D01*
X123768000Y-96481000D01*
X123791000Y-96440000D01*
X123815000Y-96400000D01*
X123842000Y-96361000D01*
X123871000Y-96324000D01*
X123901000Y-96288000D01*
X123934000Y-96254000D01*
X123968000Y-96221000D01*
X124004000Y-96191000D01*
X124041000Y-96162000D01*
X124080000Y-96135000D01*
X124120000Y-96111000D01*
X124161000Y-96088000D01*
X124204000Y-96068000D01*
X124247000Y-96050000D01*
X124292000Y-96034000D01*
X124337000Y-96021000D01*
X124383000Y-96010000D01*
X124429000Y-96001000D01*
X124476000Y-95995000D01*
X124523000Y-95991000D01*
X124570000Y-95990000D01*
X124617000Y-95991000D01*
G36*
X124617000Y-95991000D02*
G01*
X124664000Y-95995000D01*
X124711000Y-96001000D01*
X124757000Y-96010000D01*
X124803000Y-96021000D01*
X124848000Y-96034000D01*
X124893000Y-96050000D01*
X124936000Y-96068000D01*
X124979000Y-96088000D01*
X125020000Y-96111000D01*
X125060000Y-96135000D01*
X125099000Y-96162000D01*
X125136000Y-96191000D01*
X125172000Y-96221000D01*
X125206000Y-96254000D01*
X125239000Y-96288000D01*
X125269000Y-96324000D01*
X125298000Y-96361000D01*
X125325000Y-96400000D01*
X125349000Y-96440000D01*
X125372000Y-96481000D01*
X125392000Y-96524000D01*
X125410000Y-96567000D01*
X125426000Y-96612000D01*
X125439000Y-96657000D01*
X125450000Y-96703000D01*
X125459000Y-96749000D01*
X125465000Y-96796000D01*
X125469000Y-96843000D01*
X125470000Y-96890000D01*
X125470000Y-99390000D01*
X123670000Y-99390000D01*
X123670000Y-96890000D01*
X123671000Y-96843000D01*
X123675000Y-96796000D01*
X123681000Y-96749000D01*
X123690000Y-96703000D01*
X123701000Y-96657000D01*
X123714000Y-96612000D01*
X123730000Y-96567000D01*
X123748000Y-96524000D01*
X123768000Y-96481000D01*
X123791000Y-96440000D01*
X123815000Y-96400000D01*
X123842000Y-96361000D01*
X123871000Y-96324000D01*
X123901000Y-96288000D01*
X123934000Y-96254000D01*
X123968000Y-96221000D01*
X124004000Y-96191000D01*
X124041000Y-96162000D01*
X124080000Y-96135000D01*
X124120000Y-96111000D01*
X124161000Y-96088000D01*
X124204000Y-96068000D01*
X124247000Y-96050000D01*
X124292000Y-96034000D01*
X124337000Y-96021000D01*
X124383000Y-96010000D01*
X124429000Y-96001000D01*
X124476000Y-95995000D01*
X124523000Y-95991000D01*
X124570000Y-95990000D01*
X124617000Y-95991000D01*
G37*
X128010000Y-79110000D02*
X128009000Y-79157000D01*
X128005000Y-79204000D01*
X127999000Y-79251000D01*
X127990000Y-79297000D01*
X127979000Y-79343000D01*
X127966000Y-79388000D01*
X127950000Y-79433000D01*
X127932000Y-79476000D01*
X127912000Y-79519000D01*
X127889000Y-79560000D01*
X127865000Y-79600000D01*
X127838000Y-79639000D01*
X127809000Y-79676000D01*
X127779000Y-79712000D01*
X127746000Y-79746000D01*
X127712000Y-79779000D01*
X127676000Y-79809000D01*
X127639000Y-79838000D01*
X127600000Y-79865000D01*
X127560000Y-79889000D01*
X127519000Y-79912000D01*
X127476000Y-79932000D01*
X127433000Y-79950000D01*
X127388000Y-79966000D01*
X127343000Y-79979000D01*
X127297000Y-79990000D01*
X127251000Y-79999000D01*
X127204000Y-80005000D01*
X127157000Y-80009000D01*
X127110000Y-80010000D01*
X127063000Y-80009000D01*
X127016000Y-80005000D01*
X126969000Y-79999000D01*
X126923000Y-79990000D01*
X126877000Y-79979000D01*
X126832000Y-79966000D01*
X126787000Y-79950000D01*
X126744000Y-79932000D01*
X126701000Y-79912000D01*
X126660000Y-79889000D01*
X126620000Y-79865000D01*
X126581000Y-79838000D01*
X126544000Y-79809000D01*
X126508000Y-79779000D01*
X126474000Y-79746000D01*
X126441000Y-79712000D01*
X126411000Y-79676000D01*
X126382000Y-79639000D01*
X126355000Y-79600000D01*
X126331000Y-79560000D01*
X126308000Y-79519000D01*
X126288000Y-79476000D01*
X126270000Y-79433000D01*
X126254000Y-79388000D01*
X126241000Y-79343000D01*
X126230000Y-79297000D01*
X126221000Y-79251000D01*
X126215000Y-79204000D01*
X126211000Y-79157000D01*
X126210000Y-79110000D01*
X126210000Y-76610000D01*
X128010000Y-76610000D01*
X128010000Y-79110000D01*
G36*
X128010000Y-79110000D02*
G01*
X128009000Y-79157000D01*
X128005000Y-79204000D01*
X127999000Y-79251000D01*
X127990000Y-79297000D01*
X127979000Y-79343000D01*
X127966000Y-79388000D01*
X127950000Y-79433000D01*
X127932000Y-79476000D01*
X127912000Y-79519000D01*
X127889000Y-79560000D01*
X127865000Y-79600000D01*
X127838000Y-79639000D01*
X127809000Y-79676000D01*
X127779000Y-79712000D01*
X127746000Y-79746000D01*
X127712000Y-79779000D01*
X127676000Y-79809000D01*
X127639000Y-79838000D01*
X127600000Y-79865000D01*
X127560000Y-79889000D01*
X127519000Y-79912000D01*
X127476000Y-79932000D01*
X127433000Y-79950000D01*
X127388000Y-79966000D01*
X127343000Y-79979000D01*
X127297000Y-79990000D01*
X127251000Y-79999000D01*
X127204000Y-80005000D01*
X127157000Y-80009000D01*
X127110000Y-80010000D01*
X127063000Y-80009000D01*
X127016000Y-80005000D01*
X126969000Y-79999000D01*
X126923000Y-79990000D01*
X126877000Y-79979000D01*
X126832000Y-79966000D01*
X126787000Y-79950000D01*
X126744000Y-79932000D01*
X126701000Y-79912000D01*
X126660000Y-79889000D01*
X126620000Y-79865000D01*
X126581000Y-79838000D01*
X126544000Y-79809000D01*
X126508000Y-79779000D01*
X126474000Y-79746000D01*
X126441000Y-79712000D01*
X126411000Y-79676000D01*
X126382000Y-79639000D01*
X126355000Y-79600000D01*
X126331000Y-79560000D01*
X126308000Y-79519000D01*
X126288000Y-79476000D01*
X126270000Y-79433000D01*
X126254000Y-79388000D01*
X126241000Y-79343000D01*
X126230000Y-79297000D01*
X126221000Y-79251000D01*
X126215000Y-79204000D01*
X126211000Y-79157000D01*
X126210000Y-79110000D01*
X126210000Y-76610000D01*
X128010000Y-76610000D01*
X128010000Y-79110000D01*
G37*
X127157000Y-95991000D02*
X127204000Y-95995000D01*
X127251000Y-96001000D01*
X127297000Y-96010000D01*
X127343000Y-96021000D01*
X127388000Y-96034000D01*
X127433000Y-96050000D01*
X127476000Y-96068000D01*
X127519000Y-96088000D01*
X127560000Y-96111000D01*
X127600000Y-96135000D01*
X127639000Y-96162000D01*
X127676000Y-96191000D01*
X127712000Y-96221000D01*
X127746000Y-96254000D01*
X127779000Y-96288000D01*
X127809000Y-96324000D01*
X127838000Y-96361000D01*
X127865000Y-96400000D01*
X127889000Y-96440000D01*
X127912000Y-96481000D01*
X127932000Y-96524000D01*
X127950000Y-96567000D01*
X127966000Y-96612000D01*
X127979000Y-96657000D01*
X127990000Y-96703000D01*
X127999000Y-96749000D01*
X128005000Y-96796000D01*
X128009000Y-96843000D01*
X128010000Y-96890000D01*
X128010000Y-99390000D01*
X126210000Y-99390000D01*
X126210000Y-96890000D01*
X126211000Y-96843000D01*
X126215000Y-96796000D01*
X126221000Y-96749000D01*
X126230000Y-96703000D01*
X126241000Y-96657000D01*
X126254000Y-96612000D01*
X126270000Y-96567000D01*
X126288000Y-96524000D01*
X126308000Y-96481000D01*
X126331000Y-96440000D01*
X126355000Y-96400000D01*
X126382000Y-96361000D01*
X126411000Y-96324000D01*
X126441000Y-96288000D01*
X126474000Y-96254000D01*
X126508000Y-96221000D01*
X126544000Y-96191000D01*
X126581000Y-96162000D01*
X126620000Y-96135000D01*
X126660000Y-96111000D01*
X126701000Y-96088000D01*
X126744000Y-96068000D01*
X126787000Y-96050000D01*
X126832000Y-96034000D01*
X126877000Y-96021000D01*
X126923000Y-96010000D01*
X126969000Y-96001000D01*
X127016000Y-95995000D01*
X127063000Y-95991000D01*
X127110000Y-95990000D01*
X127157000Y-95991000D01*
G36*
X127157000Y-95991000D02*
G01*
X127204000Y-95995000D01*
X127251000Y-96001000D01*
X127297000Y-96010000D01*
X127343000Y-96021000D01*
X127388000Y-96034000D01*
X127433000Y-96050000D01*
X127476000Y-96068000D01*
X127519000Y-96088000D01*
X127560000Y-96111000D01*
X127600000Y-96135000D01*
X127639000Y-96162000D01*
X127676000Y-96191000D01*
X127712000Y-96221000D01*
X127746000Y-96254000D01*
X127779000Y-96288000D01*
X127809000Y-96324000D01*
X127838000Y-96361000D01*
X127865000Y-96400000D01*
X127889000Y-96440000D01*
X127912000Y-96481000D01*
X127932000Y-96524000D01*
X127950000Y-96567000D01*
X127966000Y-96612000D01*
X127979000Y-96657000D01*
X127990000Y-96703000D01*
X127999000Y-96749000D01*
X128005000Y-96796000D01*
X128009000Y-96843000D01*
X128010000Y-96890000D01*
X128010000Y-99390000D01*
X126210000Y-99390000D01*
X126210000Y-96890000D01*
X126211000Y-96843000D01*
X126215000Y-96796000D01*
X126221000Y-96749000D01*
X126230000Y-96703000D01*
X126241000Y-96657000D01*
X126254000Y-96612000D01*
X126270000Y-96567000D01*
X126288000Y-96524000D01*
X126308000Y-96481000D01*
X126331000Y-96440000D01*
X126355000Y-96400000D01*
X126382000Y-96361000D01*
X126411000Y-96324000D01*
X126441000Y-96288000D01*
X126474000Y-96254000D01*
X126508000Y-96221000D01*
X126544000Y-96191000D01*
X126581000Y-96162000D01*
X126620000Y-96135000D01*
X126660000Y-96111000D01*
X126701000Y-96088000D01*
X126744000Y-96068000D01*
X126787000Y-96050000D01*
X126832000Y-96034000D01*
X126877000Y-96021000D01*
X126923000Y-96010000D01*
X126969000Y-96001000D01*
X127016000Y-95995000D01*
X127063000Y-95991000D01*
X127110000Y-95990000D01*
X127157000Y-95991000D01*
G37*
X133090000Y-79110000D02*
X133089000Y-79157000D01*
X133085000Y-79204000D01*
X133079000Y-79251000D01*
X133070000Y-79297000D01*
X133059000Y-79343000D01*
X133046000Y-79388000D01*
X133030000Y-79433000D01*
X133012000Y-79476000D01*
X132992000Y-79519000D01*
X132969000Y-79560000D01*
X132945000Y-79600000D01*
X132918000Y-79639000D01*
X132889000Y-79676000D01*
X132859000Y-79712000D01*
X132826000Y-79746000D01*
X132792000Y-79779000D01*
X132756000Y-79809000D01*
X132719000Y-79838000D01*
X132680000Y-79865000D01*
X132640000Y-79889000D01*
X132599000Y-79912000D01*
X132556000Y-79932000D01*
X132513000Y-79950000D01*
X132468000Y-79966000D01*
X132423000Y-79979000D01*
X132377000Y-79990000D01*
X132331000Y-79999000D01*
X132284000Y-80005000D01*
X132237000Y-80009000D01*
X132190000Y-80010000D01*
X132143000Y-80009000D01*
X132096000Y-80005000D01*
X132049000Y-79999000D01*
X132003000Y-79990000D01*
X131957000Y-79979000D01*
X131912000Y-79966000D01*
X131867000Y-79950000D01*
X131824000Y-79932000D01*
X131781000Y-79912000D01*
X131740000Y-79889000D01*
X131700000Y-79865000D01*
X131661000Y-79838000D01*
X131624000Y-79809000D01*
X131588000Y-79779000D01*
X131554000Y-79746000D01*
X131521000Y-79712000D01*
X131491000Y-79676000D01*
X131462000Y-79639000D01*
X131435000Y-79600000D01*
X131411000Y-79560000D01*
X131388000Y-79519000D01*
X131368000Y-79476000D01*
X131350000Y-79433000D01*
X131334000Y-79388000D01*
X131321000Y-79343000D01*
X131310000Y-79297000D01*
X131301000Y-79251000D01*
X131295000Y-79204000D01*
X131291000Y-79157000D01*
X131290000Y-79110000D01*
X131290000Y-76610000D01*
X133090000Y-76610000D01*
X133090000Y-79110000D01*
G36*
X133090000Y-79110000D02*
G01*
X133089000Y-79157000D01*
X133085000Y-79204000D01*
X133079000Y-79251000D01*
X133070000Y-79297000D01*
X133059000Y-79343000D01*
X133046000Y-79388000D01*
X133030000Y-79433000D01*
X133012000Y-79476000D01*
X132992000Y-79519000D01*
X132969000Y-79560000D01*
X132945000Y-79600000D01*
X132918000Y-79639000D01*
X132889000Y-79676000D01*
X132859000Y-79712000D01*
X132826000Y-79746000D01*
X132792000Y-79779000D01*
X132756000Y-79809000D01*
X132719000Y-79838000D01*
X132680000Y-79865000D01*
X132640000Y-79889000D01*
X132599000Y-79912000D01*
X132556000Y-79932000D01*
X132513000Y-79950000D01*
X132468000Y-79966000D01*
X132423000Y-79979000D01*
X132377000Y-79990000D01*
X132331000Y-79999000D01*
X132284000Y-80005000D01*
X132237000Y-80009000D01*
X132190000Y-80010000D01*
X132143000Y-80009000D01*
X132096000Y-80005000D01*
X132049000Y-79999000D01*
X132003000Y-79990000D01*
X131957000Y-79979000D01*
X131912000Y-79966000D01*
X131867000Y-79950000D01*
X131824000Y-79932000D01*
X131781000Y-79912000D01*
X131740000Y-79889000D01*
X131700000Y-79865000D01*
X131661000Y-79838000D01*
X131624000Y-79809000D01*
X131588000Y-79779000D01*
X131554000Y-79746000D01*
X131521000Y-79712000D01*
X131491000Y-79676000D01*
X131462000Y-79639000D01*
X131435000Y-79600000D01*
X131411000Y-79560000D01*
X131388000Y-79519000D01*
X131368000Y-79476000D01*
X131350000Y-79433000D01*
X131334000Y-79388000D01*
X131321000Y-79343000D01*
X131310000Y-79297000D01*
X131301000Y-79251000D01*
X131295000Y-79204000D01*
X131291000Y-79157000D01*
X131290000Y-79110000D01*
X131290000Y-76610000D01*
X133090000Y-76610000D01*
X133090000Y-79110000D01*
G37*
X132237000Y-95991000D02*
X132284000Y-95995000D01*
X132331000Y-96001000D01*
X132377000Y-96010000D01*
X132423000Y-96021000D01*
X132468000Y-96034000D01*
X132513000Y-96050000D01*
X132556000Y-96068000D01*
X132599000Y-96088000D01*
X132640000Y-96111000D01*
X132680000Y-96135000D01*
X132719000Y-96162000D01*
X132756000Y-96191000D01*
X132792000Y-96221000D01*
X132826000Y-96254000D01*
X132859000Y-96288000D01*
X132889000Y-96324000D01*
X132918000Y-96361000D01*
X132945000Y-96400000D01*
X132969000Y-96440000D01*
X132992000Y-96481000D01*
X133012000Y-96524000D01*
X133030000Y-96567000D01*
X133046000Y-96612000D01*
X133059000Y-96657000D01*
X133070000Y-96703000D01*
X133079000Y-96749000D01*
X133085000Y-96796000D01*
X133089000Y-96843000D01*
X133090000Y-96890000D01*
X133090000Y-99390000D01*
X131290000Y-99390000D01*
X131290000Y-96890000D01*
X131291000Y-96843000D01*
X131295000Y-96796000D01*
X131301000Y-96749000D01*
X131310000Y-96703000D01*
X131321000Y-96657000D01*
X131334000Y-96612000D01*
X131350000Y-96567000D01*
X131368000Y-96524000D01*
X131388000Y-96481000D01*
X131411000Y-96440000D01*
X131435000Y-96400000D01*
X131462000Y-96361000D01*
X131491000Y-96324000D01*
X131521000Y-96288000D01*
X131554000Y-96254000D01*
X131588000Y-96221000D01*
X131624000Y-96191000D01*
X131661000Y-96162000D01*
X131700000Y-96135000D01*
X131740000Y-96111000D01*
X131781000Y-96088000D01*
X131824000Y-96068000D01*
X131867000Y-96050000D01*
X131912000Y-96034000D01*
X131957000Y-96021000D01*
X132003000Y-96010000D01*
X132049000Y-96001000D01*
X132096000Y-95995000D01*
X132143000Y-95991000D01*
X132190000Y-95990000D01*
X132237000Y-95991000D01*
G36*
X132237000Y-95991000D02*
G01*
X132284000Y-95995000D01*
X132331000Y-96001000D01*
X132377000Y-96010000D01*
X132423000Y-96021000D01*
X132468000Y-96034000D01*
X132513000Y-96050000D01*
X132556000Y-96068000D01*
X132599000Y-96088000D01*
X132640000Y-96111000D01*
X132680000Y-96135000D01*
X132719000Y-96162000D01*
X132756000Y-96191000D01*
X132792000Y-96221000D01*
X132826000Y-96254000D01*
X132859000Y-96288000D01*
X132889000Y-96324000D01*
X132918000Y-96361000D01*
X132945000Y-96400000D01*
X132969000Y-96440000D01*
X132992000Y-96481000D01*
X133012000Y-96524000D01*
X133030000Y-96567000D01*
X133046000Y-96612000D01*
X133059000Y-96657000D01*
X133070000Y-96703000D01*
X133079000Y-96749000D01*
X133085000Y-96796000D01*
X133089000Y-96843000D01*
X133090000Y-96890000D01*
X133090000Y-99390000D01*
X131290000Y-99390000D01*
X131290000Y-96890000D01*
X131291000Y-96843000D01*
X131295000Y-96796000D01*
X131301000Y-96749000D01*
X131310000Y-96703000D01*
X131321000Y-96657000D01*
X131334000Y-96612000D01*
X131350000Y-96567000D01*
X131368000Y-96524000D01*
X131388000Y-96481000D01*
X131411000Y-96440000D01*
X131435000Y-96400000D01*
X131462000Y-96361000D01*
X131491000Y-96324000D01*
X131521000Y-96288000D01*
X131554000Y-96254000D01*
X131588000Y-96221000D01*
X131624000Y-96191000D01*
X131661000Y-96162000D01*
X131700000Y-96135000D01*
X131740000Y-96111000D01*
X131781000Y-96088000D01*
X131824000Y-96068000D01*
X131867000Y-96050000D01*
X131912000Y-96034000D01*
X131957000Y-96021000D01*
X132003000Y-96010000D01*
X132049000Y-96001000D01*
X132096000Y-95995000D01*
X132143000Y-95991000D01*
X132190000Y-95990000D01*
X132237000Y-95991000D01*
G37*
X135630000Y-79110000D02*
X135629000Y-79157000D01*
X135625000Y-79204000D01*
X135619000Y-79251000D01*
X135610000Y-79297000D01*
X135599000Y-79343000D01*
X135586000Y-79388000D01*
X135570000Y-79433000D01*
X135552000Y-79476000D01*
X135532000Y-79519000D01*
X135509000Y-79560000D01*
X135485000Y-79600000D01*
X135458000Y-79639000D01*
X135429000Y-79676000D01*
X135399000Y-79712000D01*
X135366000Y-79746000D01*
X135332000Y-79779000D01*
X135296000Y-79809000D01*
X135259000Y-79838000D01*
X135220000Y-79865000D01*
X135180000Y-79889000D01*
X135139000Y-79912000D01*
X135096000Y-79932000D01*
X135053000Y-79950000D01*
X135008000Y-79966000D01*
X134963000Y-79979000D01*
X134917000Y-79990000D01*
X134871000Y-79999000D01*
X134824000Y-80005000D01*
X134777000Y-80009000D01*
X134730000Y-80010000D01*
X134683000Y-80009000D01*
X134636000Y-80005000D01*
X134589000Y-79999000D01*
X134543000Y-79990000D01*
X134497000Y-79979000D01*
X134452000Y-79966000D01*
X134407000Y-79950000D01*
X134364000Y-79932000D01*
X134321000Y-79912000D01*
X134280000Y-79889000D01*
X134240000Y-79865000D01*
X134201000Y-79838000D01*
X134164000Y-79809000D01*
X134128000Y-79779000D01*
X134094000Y-79746000D01*
X134061000Y-79712000D01*
X134031000Y-79676000D01*
X134002000Y-79639000D01*
X133975000Y-79600000D01*
X133951000Y-79560000D01*
X133928000Y-79519000D01*
X133908000Y-79476000D01*
X133890000Y-79433000D01*
X133874000Y-79388000D01*
X133861000Y-79343000D01*
X133850000Y-79297000D01*
X133841000Y-79251000D01*
X133835000Y-79204000D01*
X133831000Y-79157000D01*
X133830000Y-79110000D01*
X133830000Y-76610000D01*
X135630000Y-76610000D01*
X135630000Y-79110000D01*
G36*
X135630000Y-79110000D02*
G01*
X135629000Y-79157000D01*
X135625000Y-79204000D01*
X135619000Y-79251000D01*
X135610000Y-79297000D01*
X135599000Y-79343000D01*
X135586000Y-79388000D01*
X135570000Y-79433000D01*
X135552000Y-79476000D01*
X135532000Y-79519000D01*
X135509000Y-79560000D01*
X135485000Y-79600000D01*
X135458000Y-79639000D01*
X135429000Y-79676000D01*
X135399000Y-79712000D01*
X135366000Y-79746000D01*
X135332000Y-79779000D01*
X135296000Y-79809000D01*
X135259000Y-79838000D01*
X135220000Y-79865000D01*
X135180000Y-79889000D01*
X135139000Y-79912000D01*
X135096000Y-79932000D01*
X135053000Y-79950000D01*
X135008000Y-79966000D01*
X134963000Y-79979000D01*
X134917000Y-79990000D01*
X134871000Y-79999000D01*
X134824000Y-80005000D01*
X134777000Y-80009000D01*
X134730000Y-80010000D01*
X134683000Y-80009000D01*
X134636000Y-80005000D01*
X134589000Y-79999000D01*
X134543000Y-79990000D01*
X134497000Y-79979000D01*
X134452000Y-79966000D01*
X134407000Y-79950000D01*
X134364000Y-79932000D01*
X134321000Y-79912000D01*
X134280000Y-79889000D01*
X134240000Y-79865000D01*
X134201000Y-79838000D01*
X134164000Y-79809000D01*
X134128000Y-79779000D01*
X134094000Y-79746000D01*
X134061000Y-79712000D01*
X134031000Y-79676000D01*
X134002000Y-79639000D01*
X133975000Y-79600000D01*
X133951000Y-79560000D01*
X133928000Y-79519000D01*
X133908000Y-79476000D01*
X133890000Y-79433000D01*
X133874000Y-79388000D01*
X133861000Y-79343000D01*
X133850000Y-79297000D01*
X133841000Y-79251000D01*
X133835000Y-79204000D01*
X133831000Y-79157000D01*
X133830000Y-79110000D01*
X133830000Y-76610000D01*
X135630000Y-76610000D01*
X135630000Y-79110000D01*
G37*
X134777000Y-95991000D02*
X134824000Y-95995000D01*
X134871000Y-96001000D01*
X134917000Y-96010000D01*
X134963000Y-96021000D01*
X135008000Y-96034000D01*
X135053000Y-96050000D01*
X135096000Y-96068000D01*
X135139000Y-96088000D01*
X135180000Y-96111000D01*
X135220000Y-96135000D01*
X135259000Y-96162000D01*
X135296000Y-96191000D01*
X135332000Y-96221000D01*
X135366000Y-96254000D01*
X135399000Y-96288000D01*
X135429000Y-96324000D01*
X135458000Y-96361000D01*
X135485000Y-96400000D01*
X135509000Y-96440000D01*
X135532000Y-96481000D01*
X135552000Y-96524000D01*
X135570000Y-96567000D01*
X135586000Y-96612000D01*
X135599000Y-96657000D01*
X135610000Y-96703000D01*
X135619000Y-96749000D01*
X135625000Y-96796000D01*
X135629000Y-96843000D01*
X135630000Y-96890000D01*
X135630000Y-99390000D01*
X133830000Y-99390000D01*
X133830000Y-96890000D01*
X133831000Y-96843000D01*
X133835000Y-96796000D01*
X133841000Y-96749000D01*
X133850000Y-96703000D01*
X133861000Y-96657000D01*
X133874000Y-96612000D01*
X133890000Y-96567000D01*
X133908000Y-96524000D01*
X133928000Y-96481000D01*
X133951000Y-96440000D01*
X133975000Y-96400000D01*
X134002000Y-96361000D01*
X134031000Y-96324000D01*
X134061000Y-96288000D01*
X134094000Y-96254000D01*
X134128000Y-96221000D01*
X134164000Y-96191000D01*
X134201000Y-96162000D01*
X134240000Y-96135000D01*
X134280000Y-96111000D01*
X134321000Y-96088000D01*
X134364000Y-96068000D01*
X134407000Y-96050000D01*
X134452000Y-96034000D01*
X134497000Y-96021000D01*
X134543000Y-96010000D01*
X134589000Y-96001000D01*
X134636000Y-95995000D01*
X134683000Y-95991000D01*
X134730000Y-95990000D01*
X134777000Y-95991000D01*
G36*
X134777000Y-95991000D02*
G01*
X134824000Y-95995000D01*
X134871000Y-96001000D01*
X134917000Y-96010000D01*
X134963000Y-96021000D01*
X135008000Y-96034000D01*
X135053000Y-96050000D01*
X135096000Y-96068000D01*
X135139000Y-96088000D01*
X135180000Y-96111000D01*
X135220000Y-96135000D01*
X135259000Y-96162000D01*
X135296000Y-96191000D01*
X135332000Y-96221000D01*
X135366000Y-96254000D01*
X135399000Y-96288000D01*
X135429000Y-96324000D01*
X135458000Y-96361000D01*
X135485000Y-96400000D01*
X135509000Y-96440000D01*
X135532000Y-96481000D01*
X135552000Y-96524000D01*
X135570000Y-96567000D01*
X135586000Y-96612000D01*
X135599000Y-96657000D01*
X135610000Y-96703000D01*
X135619000Y-96749000D01*
X135625000Y-96796000D01*
X135629000Y-96843000D01*
X135630000Y-96890000D01*
X135630000Y-99390000D01*
X133830000Y-99390000D01*
X133830000Y-96890000D01*
X133831000Y-96843000D01*
X133835000Y-96796000D01*
X133841000Y-96749000D01*
X133850000Y-96703000D01*
X133861000Y-96657000D01*
X133874000Y-96612000D01*
X133890000Y-96567000D01*
X133908000Y-96524000D01*
X133928000Y-96481000D01*
X133951000Y-96440000D01*
X133975000Y-96400000D01*
X134002000Y-96361000D01*
X134031000Y-96324000D01*
X134061000Y-96288000D01*
X134094000Y-96254000D01*
X134128000Y-96221000D01*
X134164000Y-96191000D01*
X134201000Y-96162000D01*
X134240000Y-96135000D01*
X134280000Y-96111000D01*
X134321000Y-96088000D01*
X134364000Y-96068000D01*
X134407000Y-96050000D01*
X134452000Y-96034000D01*
X134497000Y-96021000D01*
X134543000Y-96010000D01*
X134589000Y-96001000D01*
X134636000Y-95995000D01*
X134683000Y-95991000D01*
X134730000Y-95990000D01*
X134777000Y-95991000D01*
G37*
X138170000Y-79110000D02*
X138169000Y-79157000D01*
X138165000Y-79204000D01*
X138159000Y-79251000D01*
X138150000Y-79297000D01*
X138139000Y-79343000D01*
X138126000Y-79388000D01*
X138110000Y-79433000D01*
X138092000Y-79476000D01*
X138072000Y-79519000D01*
X138049000Y-79560000D01*
X138025000Y-79600000D01*
X137998000Y-79639000D01*
X137969000Y-79676000D01*
X137939000Y-79712000D01*
X137906000Y-79746000D01*
X137872000Y-79779000D01*
X137836000Y-79809000D01*
X137799000Y-79838000D01*
X137760000Y-79865000D01*
X137720000Y-79889000D01*
X137679000Y-79912000D01*
X137636000Y-79932000D01*
X137593000Y-79950000D01*
X137548000Y-79966000D01*
X137503000Y-79979000D01*
X137457000Y-79990000D01*
X137411000Y-79999000D01*
X137364000Y-80005000D01*
X137317000Y-80009000D01*
X137270000Y-80010000D01*
X137223000Y-80009000D01*
X137176000Y-80005000D01*
X137129000Y-79999000D01*
X137083000Y-79990000D01*
X137037000Y-79979000D01*
X136992000Y-79966000D01*
X136947000Y-79950000D01*
X136904000Y-79932000D01*
X136861000Y-79912000D01*
X136820000Y-79889000D01*
X136780000Y-79865000D01*
X136741000Y-79838000D01*
X136704000Y-79809000D01*
X136668000Y-79779000D01*
X136634000Y-79746000D01*
X136601000Y-79712000D01*
X136571000Y-79676000D01*
X136542000Y-79639000D01*
X136515000Y-79600000D01*
X136491000Y-79560000D01*
X136468000Y-79519000D01*
X136448000Y-79476000D01*
X136430000Y-79433000D01*
X136414000Y-79388000D01*
X136401000Y-79343000D01*
X136390000Y-79297000D01*
X136381000Y-79251000D01*
X136375000Y-79204000D01*
X136371000Y-79157000D01*
X136370000Y-79110000D01*
X136370000Y-76610000D01*
X138170000Y-76610000D01*
X138170000Y-79110000D01*
G36*
X138170000Y-79110000D02*
G01*
X138169000Y-79157000D01*
X138165000Y-79204000D01*
X138159000Y-79251000D01*
X138150000Y-79297000D01*
X138139000Y-79343000D01*
X138126000Y-79388000D01*
X138110000Y-79433000D01*
X138092000Y-79476000D01*
X138072000Y-79519000D01*
X138049000Y-79560000D01*
X138025000Y-79600000D01*
X137998000Y-79639000D01*
X137969000Y-79676000D01*
X137939000Y-79712000D01*
X137906000Y-79746000D01*
X137872000Y-79779000D01*
X137836000Y-79809000D01*
X137799000Y-79838000D01*
X137760000Y-79865000D01*
X137720000Y-79889000D01*
X137679000Y-79912000D01*
X137636000Y-79932000D01*
X137593000Y-79950000D01*
X137548000Y-79966000D01*
X137503000Y-79979000D01*
X137457000Y-79990000D01*
X137411000Y-79999000D01*
X137364000Y-80005000D01*
X137317000Y-80009000D01*
X137270000Y-80010000D01*
X137223000Y-80009000D01*
X137176000Y-80005000D01*
X137129000Y-79999000D01*
X137083000Y-79990000D01*
X137037000Y-79979000D01*
X136992000Y-79966000D01*
X136947000Y-79950000D01*
X136904000Y-79932000D01*
X136861000Y-79912000D01*
X136820000Y-79889000D01*
X136780000Y-79865000D01*
X136741000Y-79838000D01*
X136704000Y-79809000D01*
X136668000Y-79779000D01*
X136634000Y-79746000D01*
X136601000Y-79712000D01*
X136571000Y-79676000D01*
X136542000Y-79639000D01*
X136515000Y-79600000D01*
X136491000Y-79560000D01*
X136468000Y-79519000D01*
X136448000Y-79476000D01*
X136430000Y-79433000D01*
X136414000Y-79388000D01*
X136401000Y-79343000D01*
X136390000Y-79297000D01*
X136381000Y-79251000D01*
X136375000Y-79204000D01*
X136371000Y-79157000D01*
X136370000Y-79110000D01*
X136370000Y-76610000D01*
X138170000Y-76610000D01*
X138170000Y-79110000D01*
G37*
X137317000Y-95991000D02*
X137364000Y-95995000D01*
X137411000Y-96001000D01*
X137457000Y-96010000D01*
X137503000Y-96021000D01*
X137548000Y-96034000D01*
X137593000Y-96050000D01*
X137636000Y-96068000D01*
X137679000Y-96088000D01*
X137720000Y-96111000D01*
X137760000Y-96135000D01*
X137799000Y-96162000D01*
X137836000Y-96191000D01*
X137872000Y-96221000D01*
X137906000Y-96254000D01*
X137939000Y-96288000D01*
X137969000Y-96324000D01*
X137998000Y-96361000D01*
X138025000Y-96400000D01*
X138049000Y-96440000D01*
X138072000Y-96481000D01*
X138092000Y-96524000D01*
X138110000Y-96567000D01*
X138126000Y-96612000D01*
X138139000Y-96657000D01*
X138150000Y-96703000D01*
X138159000Y-96749000D01*
X138165000Y-96796000D01*
X138169000Y-96843000D01*
X138170000Y-96890000D01*
X138170000Y-99390000D01*
X136370000Y-99390000D01*
X136370000Y-96890000D01*
X136371000Y-96843000D01*
X136375000Y-96796000D01*
X136381000Y-96749000D01*
X136390000Y-96703000D01*
X136401000Y-96657000D01*
X136414000Y-96612000D01*
X136430000Y-96567000D01*
X136448000Y-96524000D01*
X136468000Y-96481000D01*
X136491000Y-96440000D01*
X136515000Y-96400000D01*
X136542000Y-96361000D01*
X136571000Y-96324000D01*
X136601000Y-96288000D01*
X136634000Y-96254000D01*
X136668000Y-96221000D01*
X136704000Y-96191000D01*
X136741000Y-96162000D01*
X136780000Y-96135000D01*
X136820000Y-96111000D01*
X136861000Y-96088000D01*
X136904000Y-96068000D01*
X136947000Y-96050000D01*
X136992000Y-96034000D01*
X137037000Y-96021000D01*
X137083000Y-96010000D01*
X137129000Y-96001000D01*
X137176000Y-95995000D01*
X137223000Y-95991000D01*
X137270000Y-95990000D01*
X137317000Y-95991000D01*
G36*
X137317000Y-95991000D02*
G01*
X137364000Y-95995000D01*
X137411000Y-96001000D01*
X137457000Y-96010000D01*
X137503000Y-96021000D01*
X137548000Y-96034000D01*
X137593000Y-96050000D01*
X137636000Y-96068000D01*
X137679000Y-96088000D01*
X137720000Y-96111000D01*
X137760000Y-96135000D01*
X137799000Y-96162000D01*
X137836000Y-96191000D01*
X137872000Y-96221000D01*
X137906000Y-96254000D01*
X137939000Y-96288000D01*
X137969000Y-96324000D01*
X137998000Y-96361000D01*
X138025000Y-96400000D01*
X138049000Y-96440000D01*
X138072000Y-96481000D01*
X138092000Y-96524000D01*
X138110000Y-96567000D01*
X138126000Y-96612000D01*
X138139000Y-96657000D01*
X138150000Y-96703000D01*
X138159000Y-96749000D01*
X138165000Y-96796000D01*
X138169000Y-96843000D01*
X138170000Y-96890000D01*
X138170000Y-99390000D01*
X136370000Y-99390000D01*
X136370000Y-96890000D01*
X136371000Y-96843000D01*
X136375000Y-96796000D01*
X136381000Y-96749000D01*
X136390000Y-96703000D01*
X136401000Y-96657000D01*
X136414000Y-96612000D01*
X136430000Y-96567000D01*
X136448000Y-96524000D01*
X136468000Y-96481000D01*
X136491000Y-96440000D01*
X136515000Y-96400000D01*
X136542000Y-96361000D01*
X136571000Y-96324000D01*
X136601000Y-96288000D01*
X136634000Y-96254000D01*
X136668000Y-96221000D01*
X136704000Y-96191000D01*
X136741000Y-96162000D01*
X136780000Y-96135000D01*
X136820000Y-96111000D01*
X136861000Y-96088000D01*
X136904000Y-96068000D01*
X136947000Y-96050000D01*
X136992000Y-96034000D01*
X137037000Y-96021000D01*
X137083000Y-96010000D01*
X137129000Y-96001000D01*
X137176000Y-95995000D01*
X137223000Y-95991000D01*
X137270000Y-95990000D01*
X137317000Y-95991000D01*
G37*
X140710000Y-79110000D02*
X140709000Y-79157000D01*
X140705000Y-79204000D01*
X140699000Y-79251000D01*
X140690000Y-79297000D01*
X140679000Y-79343000D01*
X140666000Y-79388000D01*
X140650000Y-79433000D01*
X140632000Y-79476000D01*
X140612000Y-79519000D01*
X140589000Y-79560000D01*
X140565000Y-79600000D01*
X140538000Y-79639000D01*
X140509000Y-79676000D01*
X140479000Y-79712000D01*
X140446000Y-79746000D01*
X140412000Y-79779000D01*
X140376000Y-79809000D01*
X140339000Y-79838000D01*
X140300000Y-79865000D01*
X140260000Y-79889000D01*
X140219000Y-79912000D01*
X140176000Y-79932000D01*
X140133000Y-79950000D01*
X140088000Y-79966000D01*
X140043000Y-79979000D01*
X139997000Y-79990000D01*
X139951000Y-79999000D01*
X139904000Y-80005000D01*
X139857000Y-80009000D01*
X139810000Y-80010000D01*
X139763000Y-80009000D01*
X139716000Y-80005000D01*
X139669000Y-79999000D01*
X139623000Y-79990000D01*
X139577000Y-79979000D01*
X139532000Y-79966000D01*
X139487000Y-79950000D01*
X139444000Y-79932000D01*
X139401000Y-79912000D01*
X139360000Y-79889000D01*
X139320000Y-79865000D01*
X139281000Y-79838000D01*
X139244000Y-79809000D01*
X139208000Y-79779000D01*
X139174000Y-79746000D01*
X139141000Y-79712000D01*
X139111000Y-79676000D01*
X139082000Y-79639000D01*
X139055000Y-79600000D01*
X139031000Y-79560000D01*
X139008000Y-79519000D01*
X138988000Y-79476000D01*
X138970000Y-79433000D01*
X138954000Y-79388000D01*
X138941000Y-79343000D01*
X138930000Y-79297000D01*
X138921000Y-79251000D01*
X138915000Y-79204000D01*
X138911000Y-79157000D01*
X138910000Y-79110000D01*
X138910000Y-76610000D01*
X140710000Y-76610000D01*
X140710000Y-79110000D01*
G36*
X140710000Y-79110000D02*
G01*
X140709000Y-79157000D01*
X140705000Y-79204000D01*
X140699000Y-79251000D01*
X140690000Y-79297000D01*
X140679000Y-79343000D01*
X140666000Y-79388000D01*
X140650000Y-79433000D01*
X140632000Y-79476000D01*
X140612000Y-79519000D01*
X140589000Y-79560000D01*
X140565000Y-79600000D01*
X140538000Y-79639000D01*
X140509000Y-79676000D01*
X140479000Y-79712000D01*
X140446000Y-79746000D01*
X140412000Y-79779000D01*
X140376000Y-79809000D01*
X140339000Y-79838000D01*
X140300000Y-79865000D01*
X140260000Y-79889000D01*
X140219000Y-79912000D01*
X140176000Y-79932000D01*
X140133000Y-79950000D01*
X140088000Y-79966000D01*
X140043000Y-79979000D01*
X139997000Y-79990000D01*
X139951000Y-79999000D01*
X139904000Y-80005000D01*
X139857000Y-80009000D01*
X139810000Y-80010000D01*
X139763000Y-80009000D01*
X139716000Y-80005000D01*
X139669000Y-79999000D01*
X139623000Y-79990000D01*
X139577000Y-79979000D01*
X139532000Y-79966000D01*
X139487000Y-79950000D01*
X139444000Y-79932000D01*
X139401000Y-79912000D01*
X139360000Y-79889000D01*
X139320000Y-79865000D01*
X139281000Y-79838000D01*
X139244000Y-79809000D01*
X139208000Y-79779000D01*
X139174000Y-79746000D01*
X139141000Y-79712000D01*
X139111000Y-79676000D01*
X139082000Y-79639000D01*
X139055000Y-79600000D01*
X139031000Y-79560000D01*
X139008000Y-79519000D01*
X138988000Y-79476000D01*
X138970000Y-79433000D01*
X138954000Y-79388000D01*
X138941000Y-79343000D01*
X138930000Y-79297000D01*
X138921000Y-79251000D01*
X138915000Y-79204000D01*
X138911000Y-79157000D01*
X138910000Y-79110000D01*
X138910000Y-76610000D01*
X140710000Y-76610000D01*
X140710000Y-79110000D01*
G37*
X139857000Y-95991000D02*
X139904000Y-95995000D01*
X139951000Y-96001000D01*
X139997000Y-96010000D01*
X140043000Y-96021000D01*
X140088000Y-96034000D01*
X140133000Y-96050000D01*
X140176000Y-96068000D01*
X140219000Y-96088000D01*
X140260000Y-96111000D01*
X140300000Y-96135000D01*
X140339000Y-96162000D01*
X140376000Y-96191000D01*
X140412000Y-96221000D01*
X140446000Y-96254000D01*
X140479000Y-96288000D01*
X140509000Y-96324000D01*
X140538000Y-96361000D01*
X140565000Y-96400000D01*
X140589000Y-96440000D01*
X140612000Y-96481000D01*
X140632000Y-96524000D01*
X140650000Y-96567000D01*
X140666000Y-96612000D01*
X140679000Y-96657000D01*
X140690000Y-96703000D01*
X140699000Y-96749000D01*
X140705000Y-96796000D01*
X140709000Y-96843000D01*
X140710000Y-96890000D01*
X140710000Y-99390000D01*
X138910000Y-99390000D01*
X138910000Y-96890000D01*
X138911000Y-96843000D01*
X138915000Y-96796000D01*
X138921000Y-96749000D01*
X138930000Y-96703000D01*
X138941000Y-96657000D01*
X138954000Y-96612000D01*
X138970000Y-96567000D01*
X138988000Y-96524000D01*
X139008000Y-96481000D01*
X139031000Y-96440000D01*
X139055000Y-96400000D01*
X139082000Y-96361000D01*
X139111000Y-96324000D01*
X139141000Y-96288000D01*
X139174000Y-96254000D01*
X139208000Y-96221000D01*
X139244000Y-96191000D01*
X139281000Y-96162000D01*
X139320000Y-96135000D01*
X139360000Y-96111000D01*
X139401000Y-96088000D01*
X139444000Y-96068000D01*
X139487000Y-96050000D01*
X139532000Y-96034000D01*
X139577000Y-96021000D01*
X139623000Y-96010000D01*
X139669000Y-96001000D01*
X139716000Y-95995000D01*
X139763000Y-95991000D01*
X139810000Y-95990000D01*
X139857000Y-95991000D01*
G36*
X139857000Y-95991000D02*
G01*
X139904000Y-95995000D01*
X139951000Y-96001000D01*
X139997000Y-96010000D01*
X140043000Y-96021000D01*
X140088000Y-96034000D01*
X140133000Y-96050000D01*
X140176000Y-96068000D01*
X140219000Y-96088000D01*
X140260000Y-96111000D01*
X140300000Y-96135000D01*
X140339000Y-96162000D01*
X140376000Y-96191000D01*
X140412000Y-96221000D01*
X140446000Y-96254000D01*
X140479000Y-96288000D01*
X140509000Y-96324000D01*
X140538000Y-96361000D01*
X140565000Y-96400000D01*
X140589000Y-96440000D01*
X140612000Y-96481000D01*
X140632000Y-96524000D01*
X140650000Y-96567000D01*
X140666000Y-96612000D01*
X140679000Y-96657000D01*
X140690000Y-96703000D01*
X140699000Y-96749000D01*
X140705000Y-96796000D01*
X140709000Y-96843000D01*
X140710000Y-96890000D01*
X140710000Y-99390000D01*
X138910000Y-99390000D01*
X138910000Y-96890000D01*
X138911000Y-96843000D01*
X138915000Y-96796000D01*
X138921000Y-96749000D01*
X138930000Y-96703000D01*
X138941000Y-96657000D01*
X138954000Y-96612000D01*
X138970000Y-96567000D01*
X138988000Y-96524000D01*
X139008000Y-96481000D01*
X139031000Y-96440000D01*
X139055000Y-96400000D01*
X139082000Y-96361000D01*
X139111000Y-96324000D01*
X139141000Y-96288000D01*
X139174000Y-96254000D01*
X139208000Y-96221000D01*
X139244000Y-96191000D01*
X139281000Y-96162000D01*
X139320000Y-96135000D01*
X139360000Y-96111000D01*
X139401000Y-96088000D01*
X139444000Y-96068000D01*
X139487000Y-96050000D01*
X139532000Y-96034000D01*
X139577000Y-96021000D01*
X139623000Y-96010000D01*
X139669000Y-96001000D01*
X139716000Y-95995000D01*
X139763000Y-95991000D01*
X139810000Y-95990000D01*
X139857000Y-95991000D01*
G37*
X145790000Y-79110000D02*
X145789000Y-79157000D01*
X145785000Y-79204000D01*
X145779000Y-79251000D01*
X145770000Y-79297000D01*
X145759000Y-79343000D01*
X145746000Y-79388000D01*
X145730000Y-79433000D01*
X145712000Y-79476000D01*
X145692000Y-79519000D01*
X145669000Y-79560000D01*
X145645000Y-79600000D01*
X145618000Y-79639000D01*
X145589000Y-79676000D01*
X145559000Y-79712000D01*
X145526000Y-79746000D01*
X145492000Y-79779000D01*
X145456000Y-79809000D01*
X145419000Y-79838000D01*
X145380000Y-79865000D01*
X145340000Y-79889000D01*
X145299000Y-79912000D01*
X145256000Y-79932000D01*
X145213000Y-79950000D01*
X145168000Y-79966000D01*
X145123000Y-79979000D01*
X145077000Y-79990000D01*
X145031000Y-79999000D01*
X144984000Y-80005000D01*
X144937000Y-80009000D01*
X144890000Y-80010000D01*
X144843000Y-80009000D01*
X144796000Y-80005000D01*
X144749000Y-79999000D01*
X144703000Y-79990000D01*
X144657000Y-79979000D01*
X144612000Y-79966000D01*
X144567000Y-79950000D01*
X144524000Y-79932000D01*
X144481000Y-79912000D01*
X144440000Y-79889000D01*
X144400000Y-79865000D01*
X144361000Y-79838000D01*
X144324000Y-79809000D01*
X144288000Y-79779000D01*
X144254000Y-79746000D01*
X144221000Y-79712000D01*
X144191000Y-79676000D01*
X144162000Y-79639000D01*
X144135000Y-79600000D01*
X144111000Y-79560000D01*
X144088000Y-79519000D01*
X144068000Y-79476000D01*
X144050000Y-79433000D01*
X144034000Y-79388000D01*
X144021000Y-79343000D01*
X144010000Y-79297000D01*
X144001000Y-79251000D01*
X143995000Y-79204000D01*
X143991000Y-79157000D01*
X143990000Y-79110000D01*
X143990000Y-76610000D01*
X145790000Y-76610000D01*
X145790000Y-79110000D01*
G36*
X145790000Y-79110000D02*
G01*
X145789000Y-79157000D01*
X145785000Y-79204000D01*
X145779000Y-79251000D01*
X145770000Y-79297000D01*
X145759000Y-79343000D01*
X145746000Y-79388000D01*
X145730000Y-79433000D01*
X145712000Y-79476000D01*
X145692000Y-79519000D01*
X145669000Y-79560000D01*
X145645000Y-79600000D01*
X145618000Y-79639000D01*
X145589000Y-79676000D01*
X145559000Y-79712000D01*
X145526000Y-79746000D01*
X145492000Y-79779000D01*
X145456000Y-79809000D01*
X145419000Y-79838000D01*
X145380000Y-79865000D01*
X145340000Y-79889000D01*
X145299000Y-79912000D01*
X145256000Y-79932000D01*
X145213000Y-79950000D01*
X145168000Y-79966000D01*
X145123000Y-79979000D01*
X145077000Y-79990000D01*
X145031000Y-79999000D01*
X144984000Y-80005000D01*
X144937000Y-80009000D01*
X144890000Y-80010000D01*
X144843000Y-80009000D01*
X144796000Y-80005000D01*
X144749000Y-79999000D01*
X144703000Y-79990000D01*
X144657000Y-79979000D01*
X144612000Y-79966000D01*
X144567000Y-79950000D01*
X144524000Y-79932000D01*
X144481000Y-79912000D01*
X144440000Y-79889000D01*
X144400000Y-79865000D01*
X144361000Y-79838000D01*
X144324000Y-79809000D01*
X144288000Y-79779000D01*
X144254000Y-79746000D01*
X144221000Y-79712000D01*
X144191000Y-79676000D01*
X144162000Y-79639000D01*
X144135000Y-79600000D01*
X144111000Y-79560000D01*
X144088000Y-79519000D01*
X144068000Y-79476000D01*
X144050000Y-79433000D01*
X144034000Y-79388000D01*
X144021000Y-79343000D01*
X144010000Y-79297000D01*
X144001000Y-79251000D01*
X143995000Y-79204000D01*
X143991000Y-79157000D01*
X143990000Y-79110000D01*
X143990000Y-76610000D01*
X145790000Y-76610000D01*
X145790000Y-79110000D01*
G37*
X144937000Y-95991000D02*
X144984000Y-95995000D01*
X145031000Y-96001000D01*
X145077000Y-96010000D01*
X145123000Y-96021000D01*
X145168000Y-96034000D01*
X145213000Y-96050000D01*
X145256000Y-96068000D01*
X145299000Y-96088000D01*
X145340000Y-96111000D01*
X145380000Y-96135000D01*
X145419000Y-96162000D01*
X145456000Y-96191000D01*
X145492000Y-96221000D01*
X145526000Y-96254000D01*
X145559000Y-96288000D01*
X145589000Y-96324000D01*
X145618000Y-96361000D01*
X145645000Y-96400000D01*
X145669000Y-96440000D01*
X145692000Y-96481000D01*
X145712000Y-96524000D01*
X145730000Y-96567000D01*
X145746000Y-96612000D01*
X145759000Y-96657000D01*
X145770000Y-96703000D01*
X145779000Y-96749000D01*
X145785000Y-96796000D01*
X145789000Y-96843000D01*
X145790000Y-96890000D01*
X145790000Y-99390000D01*
X143990000Y-99390000D01*
X143990000Y-96890000D01*
X143991000Y-96843000D01*
X143995000Y-96796000D01*
X144001000Y-96749000D01*
X144010000Y-96703000D01*
X144021000Y-96657000D01*
X144034000Y-96612000D01*
X144050000Y-96567000D01*
X144068000Y-96524000D01*
X144088000Y-96481000D01*
X144111000Y-96440000D01*
X144135000Y-96400000D01*
X144162000Y-96361000D01*
X144191000Y-96324000D01*
X144221000Y-96288000D01*
X144254000Y-96254000D01*
X144288000Y-96221000D01*
X144324000Y-96191000D01*
X144361000Y-96162000D01*
X144400000Y-96135000D01*
X144440000Y-96111000D01*
X144481000Y-96088000D01*
X144524000Y-96068000D01*
X144567000Y-96050000D01*
X144612000Y-96034000D01*
X144657000Y-96021000D01*
X144703000Y-96010000D01*
X144749000Y-96001000D01*
X144796000Y-95995000D01*
X144843000Y-95991000D01*
X144890000Y-95990000D01*
X144937000Y-95991000D01*
G36*
X144937000Y-95991000D02*
G01*
X144984000Y-95995000D01*
X145031000Y-96001000D01*
X145077000Y-96010000D01*
X145123000Y-96021000D01*
X145168000Y-96034000D01*
X145213000Y-96050000D01*
X145256000Y-96068000D01*
X145299000Y-96088000D01*
X145340000Y-96111000D01*
X145380000Y-96135000D01*
X145419000Y-96162000D01*
X145456000Y-96191000D01*
X145492000Y-96221000D01*
X145526000Y-96254000D01*
X145559000Y-96288000D01*
X145589000Y-96324000D01*
X145618000Y-96361000D01*
X145645000Y-96400000D01*
X145669000Y-96440000D01*
X145692000Y-96481000D01*
X145712000Y-96524000D01*
X145730000Y-96567000D01*
X145746000Y-96612000D01*
X145759000Y-96657000D01*
X145770000Y-96703000D01*
X145779000Y-96749000D01*
X145785000Y-96796000D01*
X145789000Y-96843000D01*
X145790000Y-96890000D01*
X145790000Y-99390000D01*
X143990000Y-99390000D01*
X143990000Y-96890000D01*
X143991000Y-96843000D01*
X143995000Y-96796000D01*
X144001000Y-96749000D01*
X144010000Y-96703000D01*
X144021000Y-96657000D01*
X144034000Y-96612000D01*
X144050000Y-96567000D01*
X144068000Y-96524000D01*
X144088000Y-96481000D01*
X144111000Y-96440000D01*
X144135000Y-96400000D01*
X144162000Y-96361000D01*
X144191000Y-96324000D01*
X144221000Y-96288000D01*
X144254000Y-96254000D01*
X144288000Y-96221000D01*
X144324000Y-96191000D01*
X144361000Y-96162000D01*
X144400000Y-96135000D01*
X144440000Y-96111000D01*
X144481000Y-96088000D01*
X144524000Y-96068000D01*
X144567000Y-96050000D01*
X144612000Y-96034000D01*
X144657000Y-96021000D01*
X144703000Y-96010000D01*
X144749000Y-96001000D01*
X144796000Y-95995000D01*
X144843000Y-95991000D01*
X144890000Y-95990000D01*
X144937000Y-95991000D01*
G37*
X148330000Y-79110000D02*
X148329000Y-79157000D01*
X148325000Y-79204000D01*
X148319000Y-79251000D01*
X148310000Y-79297000D01*
X148299000Y-79343000D01*
X148286000Y-79388000D01*
X148270000Y-79433000D01*
X148252000Y-79476000D01*
X148232000Y-79519000D01*
X148209000Y-79560000D01*
X148185000Y-79600000D01*
X148158000Y-79639000D01*
X148129000Y-79676000D01*
X148099000Y-79712000D01*
X148066000Y-79746000D01*
X148032000Y-79779000D01*
X147996000Y-79809000D01*
X147959000Y-79838000D01*
X147920000Y-79865000D01*
X147880000Y-79889000D01*
X147839000Y-79912000D01*
X147796000Y-79932000D01*
X147753000Y-79950000D01*
X147708000Y-79966000D01*
X147663000Y-79979000D01*
X147617000Y-79990000D01*
X147571000Y-79999000D01*
X147524000Y-80005000D01*
X147477000Y-80009000D01*
X147430000Y-80010000D01*
X147383000Y-80009000D01*
X147336000Y-80005000D01*
X147289000Y-79999000D01*
X147243000Y-79990000D01*
X147197000Y-79979000D01*
X147152000Y-79966000D01*
X147107000Y-79950000D01*
X147064000Y-79932000D01*
X147021000Y-79912000D01*
X146980000Y-79889000D01*
X146940000Y-79865000D01*
X146901000Y-79838000D01*
X146864000Y-79809000D01*
X146828000Y-79779000D01*
X146794000Y-79746000D01*
X146761000Y-79712000D01*
X146731000Y-79676000D01*
X146702000Y-79639000D01*
X146675000Y-79600000D01*
X146651000Y-79560000D01*
X146628000Y-79519000D01*
X146608000Y-79476000D01*
X146590000Y-79433000D01*
X146574000Y-79388000D01*
X146561000Y-79343000D01*
X146550000Y-79297000D01*
X146541000Y-79251000D01*
X146535000Y-79204000D01*
X146531000Y-79157000D01*
X146530000Y-79110000D01*
X146530000Y-76610000D01*
X148330000Y-76610000D01*
X148330000Y-79110000D01*
G36*
X148330000Y-79110000D02*
G01*
X148329000Y-79157000D01*
X148325000Y-79204000D01*
X148319000Y-79251000D01*
X148310000Y-79297000D01*
X148299000Y-79343000D01*
X148286000Y-79388000D01*
X148270000Y-79433000D01*
X148252000Y-79476000D01*
X148232000Y-79519000D01*
X148209000Y-79560000D01*
X148185000Y-79600000D01*
X148158000Y-79639000D01*
X148129000Y-79676000D01*
X148099000Y-79712000D01*
X148066000Y-79746000D01*
X148032000Y-79779000D01*
X147996000Y-79809000D01*
X147959000Y-79838000D01*
X147920000Y-79865000D01*
X147880000Y-79889000D01*
X147839000Y-79912000D01*
X147796000Y-79932000D01*
X147753000Y-79950000D01*
X147708000Y-79966000D01*
X147663000Y-79979000D01*
X147617000Y-79990000D01*
X147571000Y-79999000D01*
X147524000Y-80005000D01*
X147477000Y-80009000D01*
X147430000Y-80010000D01*
X147383000Y-80009000D01*
X147336000Y-80005000D01*
X147289000Y-79999000D01*
X147243000Y-79990000D01*
X147197000Y-79979000D01*
X147152000Y-79966000D01*
X147107000Y-79950000D01*
X147064000Y-79932000D01*
X147021000Y-79912000D01*
X146980000Y-79889000D01*
X146940000Y-79865000D01*
X146901000Y-79838000D01*
X146864000Y-79809000D01*
X146828000Y-79779000D01*
X146794000Y-79746000D01*
X146761000Y-79712000D01*
X146731000Y-79676000D01*
X146702000Y-79639000D01*
X146675000Y-79600000D01*
X146651000Y-79560000D01*
X146628000Y-79519000D01*
X146608000Y-79476000D01*
X146590000Y-79433000D01*
X146574000Y-79388000D01*
X146561000Y-79343000D01*
X146550000Y-79297000D01*
X146541000Y-79251000D01*
X146535000Y-79204000D01*
X146531000Y-79157000D01*
X146530000Y-79110000D01*
X146530000Y-76610000D01*
X148330000Y-76610000D01*
X148330000Y-79110000D01*
G37*
X147477000Y-95991000D02*
X147524000Y-95995000D01*
X147571000Y-96001000D01*
X147617000Y-96010000D01*
X147663000Y-96021000D01*
X147708000Y-96034000D01*
X147753000Y-96050000D01*
X147796000Y-96068000D01*
X147839000Y-96088000D01*
X147880000Y-96111000D01*
X147920000Y-96135000D01*
X147959000Y-96162000D01*
X147996000Y-96191000D01*
X148032000Y-96221000D01*
X148066000Y-96254000D01*
X148099000Y-96288000D01*
X148129000Y-96324000D01*
X148158000Y-96361000D01*
X148185000Y-96400000D01*
X148209000Y-96440000D01*
X148232000Y-96481000D01*
X148252000Y-96524000D01*
X148270000Y-96567000D01*
X148286000Y-96612000D01*
X148299000Y-96657000D01*
X148310000Y-96703000D01*
X148319000Y-96749000D01*
X148325000Y-96796000D01*
X148329000Y-96843000D01*
X148330000Y-96890000D01*
X148330000Y-99390000D01*
X146530000Y-99390000D01*
X146530000Y-96890000D01*
X146531000Y-96843000D01*
X146535000Y-96796000D01*
X146541000Y-96749000D01*
X146550000Y-96703000D01*
X146561000Y-96657000D01*
X146574000Y-96612000D01*
X146590000Y-96567000D01*
X146608000Y-96524000D01*
X146628000Y-96481000D01*
X146651000Y-96440000D01*
X146675000Y-96400000D01*
X146702000Y-96361000D01*
X146731000Y-96324000D01*
X146761000Y-96288000D01*
X146794000Y-96254000D01*
X146828000Y-96221000D01*
X146864000Y-96191000D01*
X146901000Y-96162000D01*
X146940000Y-96135000D01*
X146980000Y-96111000D01*
X147021000Y-96088000D01*
X147064000Y-96068000D01*
X147107000Y-96050000D01*
X147152000Y-96034000D01*
X147197000Y-96021000D01*
X147243000Y-96010000D01*
X147289000Y-96001000D01*
X147336000Y-95995000D01*
X147383000Y-95991000D01*
X147430000Y-95990000D01*
X147477000Y-95991000D01*
G36*
X147477000Y-95991000D02*
G01*
X147524000Y-95995000D01*
X147571000Y-96001000D01*
X147617000Y-96010000D01*
X147663000Y-96021000D01*
X147708000Y-96034000D01*
X147753000Y-96050000D01*
X147796000Y-96068000D01*
X147839000Y-96088000D01*
X147880000Y-96111000D01*
X147920000Y-96135000D01*
X147959000Y-96162000D01*
X147996000Y-96191000D01*
X148032000Y-96221000D01*
X148066000Y-96254000D01*
X148099000Y-96288000D01*
X148129000Y-96324000D01*
X148158000Y-96361000D01*
X148185000Y-96400000D01*
X148209000Y-96440000D01*
X148232000Y-96481000D01*
X148252000Y-96524000D01*
X148270000Y-96567000D01*
X148286000Y-96612000D01*
X148299000Y-96657000D01*
X148310000Y-96703000D01*
X148319000Y-96749000D01*
X148325000Y-96796000D01*
X148329000Y-96843000D01*
X148330000Y-96890000D01*
X148330000Y-99390000D01*
X146530000Y-99390000D01*
X146530000Y-96890000D01*
X146531000Y-96843000D01*
X146535000Y-96796000D01*
X146541000Y-96749000D01*
X146550000Y-96703000D01*
X146561000Y-96657000D01*
X146574000Y-96612000D01*
X146590000Y-96567000D01*
X146608000Y-96524000D01*
X146628000Y-96481000D01*
X146651000Y-96440000D01*
X146675000Y-96400000D01*
X146702000Y-96361000D01*
X146731000Y-96324000D01*
X146761000Y-96288000D01*
X146794000Y-96254000D01*
X146828000Y-96221000D01*
X146864000Y-96191000D01*
X146901000Y-96162000D01*
X146940000Y-96135000D01*
X146980000Y-96111000D01*
X147021000Y-96088000D01*
X147064000Y-96068000D01*
X147107000Y-96050000D01*
X147152000Y-96034000D01*
X147197000Y-96021000D01*
X147243000Y-96010000D01*
X147289000Y-96001000D01*
X147336000Y-95995000D01*
X147383000Y-95991000D01*
X147430000Y-95990000D01*
X147477000Y-95991000D01*
G37*
X150870000Y-79110000D02*
X150869000Y-79157000D01*
X150865000Y-79204000D01*
X150859000Y-79251000D01*
X150850000Y-79297000D01*
X150839000Y-79343000D01*
X150826000Y-79388000D01*
X150810000Y-79433000D01*
X150792000Y-79476000D01*
X150772000Y-79519000D01*
X150749000Y-79560000D01*
X150725000Y-79600000D01*
X150698000Y-79639000D01*
X150669000Y-79676000D01*
X150639000Y-79712000D01*
X150606000Y-79746000D01*
X150572000Y-79779000D01*
X150536000Y-79809000D01*
X150499000Y-79838000D01*
X150460000Y-79865000D01*
X150420000Y-79889000D01*
X150379000Y-79912000D01*
X150336000Y-79932000D01*
X150293000Y-79950000D01*
X150248000Y-79966000D01*
X150203000Y-79979000D01*
X150157000Y-79990000D01*
X150111000Y-79999000D01*
X150064000Y-80005000D01*
X150017000Y-80009000D01*
X149970000Y-80010000D01*
X149923000Y-80009000D01*
X149876000Y-80005000D01*
X149829000Y-79999000D01*
X149783000Y-79990000D01*
X149737000Y-79979000D01*
X149692000Y-79966000D01*
X149647000Y-79950000D01*
X149604000Y-79932000D01*
X149561000Y-79912000D01*
X149520000Y-79889000D01*
X149480000Y-79865000D01*
X149441000Y-79838000D01*
X149404000Y-79809000D01*
X149368000Y-79779000D01*
X149334000Y-79746000D01*
X149301000Y-79712000D01*
X149271000Y-79676000D01*
X149242000Y-79639000D01*
X149215000Y-79600000D01*
X149191000Y-79560000D01*
X149168000Y-79519000D01*
X149148000Y-79476000D01*
X149130000Y-79433000D01*
X149114000Y-79388000D01*
X149101000Y-79343000D01*
X149090000Y-79297000D01*
X149081000Y-79251000D01*
X149075000Y-79204000D01*
X149071000Y-79157000D01*
X149070000Y-79110000D01*
X149070000Y-76610000D01*
X150870000Y-76610000D01*
X150870000Y-79110000D01*
G36*
X150870000Y-79110000D02*
G01*
X150869000Y-79157000D01*
X150865000Y-79204000D01*
X150859000Y-79251000D01*
X150850000Y-79297000D01*
X150839000Y-79343000D01*
X150826000Y-79388000D01*
X150810000Y-79433000D01*
X150792000Y-79476000D01*
X150772000Y-79519000D01*
X150749000Y-79560000D01*
X150725000Y-79600000D01*
X150698000Y-79639000D01*
X150669000Y-79676000D01*
X150639000Y-79712000D01*
X150606000Y-79746000D01*
X150572000Y-79779000D01*
X150536000Y-79809000D01*
X150499000Y-79838000D01*
X150460000Y-79865000D01*
X150420000Y-79889000D01*
X150379000Y-79912000D01*
X150336000Y-79932000D01*
X150293000Y-79950000D01*
X150248000Y-79966000D01*
X150203000Y-79979000D01*
X150157000Y-79990000D01*
X150111000Y-79999000D01*
X150064000Y-80005000D01*
X150017000Y-80009000D01*
X149970000Y-80010000D01*
X149923000Y-80009000D01*
X149876000Y-80005000D01*
X149829000Y-79999000D01*
X149783000Y-79990000D01*
X149737000Y-79979000D01*
X149692000Y-79966000D01*
X149647000Y-79950000D01*
X149604000Y-79932000D01*
X149561000Y-79912000D01*
X149520000Y-79889000D01*
X149480000Y-79865000D01*
X149441000Y-79838000D01*
X149404000Y-79809000D01*
X149368000Y-79779000D01*
X149334000Y-79746000D01*
X149301000Y-79712000D01*
X149271000Y-79676000D01*
X149242000Y-79639000D01*
X149215000Y-79600000D01*
X149191000Y-79560000D01*
X149168000Y-79519000D01*
X149148000Y-79476000D01*
X149130000Y-79433000D01*
X149114000Y-79388000D01*
X149101000Y-79343000D01*
X149090000Y-79297000D01*
X149081000Y-79251000D01*
X149075000Y-79204000D01*
X149071000Y-79157000D01*
X149070000Y-79110000D01*
X149070000Y-76610000D01*
X150870000Y-76610000D01*
X150870000Y-79110000D01*
G37*
X150017000Y-95991000D02*
X150064000Y-95995000D01*
X150111000Y-96001000D01*
X150157000Y-96010000D01*
X150203000Y-96021000D01*
X150248000Y-96034000D01*
X150293000Y-96050000D01*
X150336000Y-96068000D01*
X150379000Y-96088000D01*
X150420000Y-96111000D01*
X150460000Y-96135000D01*
X150499000Y-96162000D01*
X150536000Y-96191000D01*
X150572000Y-96221000D01*
X150606000Y-96254000D01*
X150639000Y-96288000D01*
X150669000Y-96324000D01*
X150698000Y-96361000D01*
X150725000Y-96400000D01*
X150749000Y-96440000D01*
X150772000Y-96481000D01*
X150792000Y-96524000D01*
X150810000Y-96567000D01*
X150826000Y-96612000D01*
X150839000Y-96657000D01*
X150850000Y-96703000D01*
X150859000Y-96749000D01*
X150865000Y-96796000D01*
X150869000Y-96843000D01*
X150870000Y-96890000D01*
X150870000Y-99390000D01*
X149070000Y-99390000D01*
X149070000Y-96890000D01*
X149071000Y-96843000D01*
X149075000Y-96796000D01*
X149081000Y-96749000D01*
X149090000Y-96703000D01*
X149101000Y-96657000D01*
X149114000Y-96612000D01*
X149130000Y-96567000D01*
X149148000Y-96524000D01*
X149168000Y-96481000D01*
X149191000Y-96440000D01*
X149215000Y-96400000D01*
X149242000Y-96361000D01*
X149271000Y-96324000D01*
X149301000Y-96288000D01*
X149334000Y-96254000D01*
X149368000Y-96221000D01*
X149404000Y-96191000D01*
X149441000Y-96162000D01*
X149480000Y-96135000D01*
X149520000Y-96111000D01*
X149561000Y-96088000D01*
X149604000Y-96068000D01*
X149647000Y-96050000D01*
X149692000Y-96034000D01*
X149737000Y-96021000D01*
X149783000Y-96010000D01*
X149829000Y-96001000D01*
X149876000Y-95995000D01*
X149923000Y-95991000D01*
X149970000Y-95990000D01*
X150017000Y-95991000D01*
G36*
X150017000Y-95991000D02*
G01*
X150064000Y-95995000D01*
X150111000Y-96001000D01*
X150157000Y-96010000D01*
X150203000Y-96021000D01*
X150248000Y-96034000D01*
X150293000Y-96050000D01*
X150336000Y-96068000D01*
X150379000Y-96088000D01*
X150420000Y-96111000D01*
X150460000Y-96135000D01*
X150499000Y-96162000D01*
X150536000Y-96191000D01*
X150572000Y-96221000D01*
X150606000Y-96254000D01*
X150639000Y-96288000D01*
X150669000Y-96324000D01*
X150698000Y-96361000D01*
X150725000Y-96400000D01*
X150749000Y-96440000D01*
X150772000Y-96481000D01*
X150792000Y-96524000D01*
X150810000Y-96567000D01*
X150826000Y-96612000D01*
X150839000Y-96657000D01*
X150850000Y-96703000D01*
X150859000Y-96749000D01*
X150865000Y-96796000D01*
X150869000Y-96843000D01*
X150870000Y-96890000D01*
X150870000Y-99390000D01*
X149070000Y-99390000D01*
X149070000Y-96890000D01*
X149071000Y-96843000D01*
X149075000Y-96796000D01*
X149081000Y-96749000D01*
X149090000Y-96703000D01*
X149101000Y-96657000D01*
X149114000Y-96612000D01*
X149130000Y-96567000D01*
X149148000Y-96524000D01*
X149168000Y-96481000D01*
X149191000Y-96440000D01*
X149215000Y-96400000D01*
X149242000Y-96361000D01*
X149271000Y-96324000D01*
X149301000Y-96288000D01*
X149334000Y-96254000D01*
X149368000Y-96221000D01*
X149404000Y-96191000D01*
X149441000Y-96162000D01*
X149480000Y-96135000D01*
X149520000Y-96111000D01*
X149561000Y-96088000D01*
X149604000Y-96068000D01*
X149647000Y-96050000D01*
X149692000Y-96034000D01*
X149737000Y-96021000D01*
X149783000Y-96010000D01*
X149829000Y-96001000D01*
X149876000Y-95995000D01*
X149923000Y-95991000D01*
X149970000Y-95990000D01*
X150017000Y-95991000D01*
G37*
X153410000Y-79110000D02*
X153409000Y-79157000D01*
X153405000Y-79204000D01*
X153399000Y-79251000D01*
X153390000Y-79297000D01*
X153379000Y-79343000D01*
X153366000Y-79388000D01*
X153350000Y-79433000D01*
X153332000Y-79476000D01*
X153312000Y-79519000D01*
X153289000Y-79560000D01*
X153265000Y-79600000D01*
X153238000Y-79639000D01*
X153209000Y-79676000D01*
X153179000Y-79712000D01*
X153146000Y-79746000D01*
X153112000Y-79779000D01*
X153076000Y-79809000D01*
X153039000Y-79838000D01*
X153000000Y-79865000D01*
X152960000Y-79889000D01*
X152919000Y-79912000D01*
X152876000Y-79932000D01*
X152833000Y-79950000D01*
X152788000Y-79966000D01*
X152743000Y-79979000D01*
X152697000Y-79990000D01*
X152651000Y-79999000D01*
X152604000Y-80005000D01*
X152557000Y-80009000D01*
X152510000Y-80010000D01*
X152463000Y-80009000D01*
X152416000Y-80005000D01*
X152369000Y-79999000D01*
X152323000Y-79990000D01*
X152277000Y-79979000D01*
X152232000Y-79966000D01*
X152187000Y-79950000D01*
X152144000Y-79932000D01*
X152101000Y-79912000D01*
X152060000Y-79889000D01*
X152020000Y-79865000D01*
X151981000Y-79838000D01*
X151944000Y-79809000D01*
X151908000Y-79779000D01*
X151874000Y-79746000D01*
X151841000Y-79712000D01*
X151811000Y-79676000D01*
X151782000Y-79639000D01*
X151755000Y-79600000D01*
X151731000Y-79560000D01*
X151708000Y-79519000D01*
X151688000Y-79476000D01*
X151670000Y-79433000D01*
X151654000Y-79388000D01*
X151641000Y-79343000D01*
X151630000Y-79297000D01*
X151621000Y-79251000D01*
X151615000Y-79204000D01*
X151611000Y-79157000D01*
X151610000Y-79110000D01*
X151610000Y-76610000D01*
X153410000Y-76610000D01*
X153410000Y-79110000D01*
G36*
X153410000Y-79110000D02*
G01*
X153409000Y-79157000D01*
X153405000Y-79204000D01*
X153399000Y-79251000D01*
X153390000Y-79297000D01*
X153379000Y-79343000D01*
X153366000Y-79388000D01*
X153350000Y-79433000D01*
X153332000Y-79476000D01*
X153312000Y-79519000D01*
X153289000Y-79560000D01*
X153265000Y-79600000D01*
X153238000Y-79639000D01*
X153209000Y-79676000D01*
X153179000Y-79712000D01*
X153146000Y-79746000D01*
X153112000Y-79779000D01*
X153076000Y-79809000D01*
X153039000Y-79838000D01*
X153000000Y-79865000D01*
X152960000Y-79889000D01*
X152919000Y-79912000D01*
X152876000Y-79932000D01*
X152833000Y-79950000D01*
X152788000Y-79966000D01*
X152743000Y-79979000D01*
X152697000Y-79990000D01*
X152651000Y-79999000D01*
X152604000Y-80005000D01*
X152557000Y-80009000D01*
X152510000Y-80010000D01*
X152463000Y-80009000D01*
X152416000Y-80005000D01*
X152369000Y-79999000D01*
X152323000Y-79990000D01*
X152277000Y-79979000D01*
X152232000Y-79966000D01*
X152187000Y-79950000D01*
X152144000Y-79932000D01*
X152101000Y-79912000D01*
X152060000Y-79889000D01*
X152020000Y-79865000D01*
X151981000Y-79838000D01*
X151944000Y-79809000D01*
X151908000Y-79779000D01*
X151874000Y-79746000D01*
X151841000Y-79712000D01*
X151811000Y-79676000D01*
X151782000Y-79639000D01*
X151755000Y-79600000D01*
X151731000Y-79560000D01*
X151708000Y-79519000D01*
X151688000Y-79476000D01*
X151670000Y-79433000D01*
X151654000Y-79388000D01*
X151641000Y-79343000D01*
X151630000Y-79297000D01*
X151621000Y-79251000D01*
X151615000Y-79204000D01*
X151611000Y-79157000D01*
X151610000Y-79110000D01*
X151610000Y-76610000D01*
X153410000Y-76610000D01*
X153410000Y-79110000D01*
G37*
X152557000Y-95991000D02*
X152604000Y-95995000D01*
X152651000Y-96001000D01*
X152697000Y-96010000D01*
X152743000Y-96021000D01*
X152788000Y-96034000D01*
X152833000Y-96050000D01*
X152876000Y-96068000D01*
X152919000Y-96088000D01*
X152960000Y-96111000D01*
X153000000Y-96135000D01*
X153039000Y-96162000D01*
X153076000Y-96191000D01*
X153112000Y-96221000D01*
X153146000Y-96254000D01*
X153179000Y-96288000D01*
X153209000Y-96324000D01*
X153238000Y-96361000D01*
X153265000Y-96400000D01*
X153289000Y-96440000D01*
X153312000Y-96481000D01*
X153332000Y-96524000D01*
X153350000Y-96567000D01*
X153366000Y-96612000D01*
X153379000Y-96657000D01*
X153390000Y-96703000D01*
X153399000Y-96749000D01*
X153405000Y-96796000D01*
X153409000Y-96843000D01*
X153410000Y-96890000D01*
X153410000Y-99390000D01*
X151610000Y-99390000D01*
X151610000Y-96890000D01*
X151611000Y-96843000D01*
X151615000Y-96796000D01*
X151621000Y-96749000D01*
X151630000Y-96703000D01*
X151641000Y-96657000D01*
X151654000Y-96612000D01*
X151670000Y-96567000D01*
X151688000Y-96524000D01*
X151708000Y-96481000D01*
X151731000Y-96440000D01*
X151755000Y-96400000D01*
X151782000Y-96361000D01*
X151811000Y-96324000D01*
X151841000Y-96288000D01*
X151874000Y-96254000D01*
X151908000Y-96221000D01*
X151944000Y-96191000D01*
X151981000Y-96162000D01*
X152020000Y-96135000D01*
X152060000Y-96111000D01*
X152101000Y-96088000D01*
X152144000Y-96068000D01*
X152187000Y-96050000D01*
X152232000Y-96034000D01*
X152277000Y-96021000D01*
X152323000Y-96010000D01*
X152369000Y-96001000D01*
X152416000Y-95995000D01*
X152463000Y-95991000D01*
X152510000Y-95990000D01*
X152557000Y-95991000D01*
G36*
X152557000Y-95991000D02*
G01*
X152604000Y-95995000D01*
X152651000Y-96001000D01*
X152697000Y-96010000D01*
X152743000Y-96021000D01*
X152788000Y-96034000D01*
X152833000Y-96050000D01*
X152876000Y-96068000D01*
X152919000Y-96088000D01*
X152960000Y-96111000D01*
X153000000Y-96135000D01*
X153039000Y-96162000D01*
X153076000Y-96191000D01*
X153112000Y-96221000D01*
X153146000Y-96254000D01*
X153179000Y-96288000D01*
X153209000Y-96324000D01*
X153238000Y-96361000D01*
X153265000Y-96400000D01*
X153289000Y-96440000D01*
X153312000Y-96481000D01*
X153332000Y-96524000D01*
X153350000Y-96567000D01*
X153366000Y-96612000D01*
X153379000Y-96657000D01*
X153390000Y-96703000D01*
X153399000Y-96749000D01*
X153405000Y-96796000D01*
X153409000Y-96843000D01*
X153410000Y-96890000D01*
X153410000Y-99390000D01*
X151610000Y-99390000D01*
X151610000Y-96890000D01*
X151611000Y-96843000D01*
X151615000Y-96796000D01*
X151621000Y-96749000D01*
X151630000Y-96703000D01*
X151641000Y-96657000D01*
X151654000Y-96612000D01*
X151670000Y-96567000D01*
X151688000Y-96524000D01*
X151708000Y-96481000D01*
X151731000Y-96440000D01*
X151755000Y-96400000D01*
X151782000Y-96361000D01*
X151811000Y-96324000D01*
X151841000Y-96288000D01*
X151874000Y-96254000D01*
X151908000Y-96221000D01*
X151944000Y-96191000D01*
X151981000Y-96162000D01*
X152020000Y-96135000D01*
X152060000Y-96111000D01*
X152101000Y-96088000D01*
X152144000Y-96068000D01*
X152187000Y-96050000D01*
X152232000Y-96034000D01*
X152277000Y-96021000D01*
X152323000Y-96010000D01*
X152369000Y-96001000D01*
X152416000Y-95995000D01*
X152463000Y-95991000D01*
X152510000Y-95990000D01*
X152557000Y-95991000D01*
G37*
X158490000Y-79110000D02*
X158489000Y-79157000D01*
X158485000Y-79204000D01*
X158479000Y-79251000D01*
X158470000Y-79297000D01*
X158459000Y-79343000D01*
X158446000Y-79388000D01*
X158430000Y-79433000D01*
X158412000Y-79476000D01*
X158392000Y-79519000D01*
X158369000Y-79560000D01*
X158345000Y-79600000D01*
X158318000Y-79639000D01*
X158289000Y-79676000D01*
X158259000Y-79712000D01*
X158226000Y-79746000D01*
X158192000Y-79779000D01*
X158156000Y-79809000D01*
X158119000Y-79838000D01*
X158080000Y-79865000D01*
X158040000Y-79889000D01*
X157999000Y-79912000D01*
X157956000Y-79932000D01*
X157913000Y-79950000D01*
X157868000Y-79966000D01*
X157823000Y-79979000D01*
X157777000Y-79990000D01*
X157731000Y-79999000D01*
X157684000Y-80005000D01*
X157637000Y-80009000D01*
X157590000Y-80010000D01*
X157543000Y-80009000D01*
X157496000Y-80005000D01*
X157449000Y-79999000D01*
X157403000Y-79990000D01*
X157357000Y-79979000D01*
X157312000Y-79966000D01*
X157267000Y-79950000D01*
X157224000Y-79932000D01*
X157181000Y-79912000D01*
X157140000Y-79889000D01*
X157100000Y-79865000D01*
X157061000Y-79838000D01*
X157024000Y-79809000D01*
X156988000Y-79779000D01*
X156954000Y-79746000D01*
X156921000Y-79712000D01*
X156891000Y-79676000D01*
X156862000Y-79639000D01*
X156835000Y-79600000D01*
X156811000Y-79560000D01*
X156788000Y-79519000D01*
X156768000Y-79476000D01*
X156750000Y-79433000D01*
X156734000Y-79388000D01*
X156721000Y-79343000D01*
X156710000Y-79297000D01*
X156701000Y-79251000D01*
X156695000Y-79204000D01*
X156691000Y-79157000D01*
X156690000Y-79110000D01*
X156690000Y-76610000D01*
X158490000Y-76610000D01*
X158490000Y-79110000D01*
G36*
X158490000Y-79110000D02*
G01*
X158489000Y-79157000D01*
X158485000Y-79204000D01*
X158479000Y-79251000D01*
X158470000Y-79297000D01*
X158459000Y-79343000D01*
X158446000Y-79388000D01*
X158430000Y-79433000D01*
X158412000Y-79476000D01*
X158392000Y-79519000D01*
X158369000Y-79560000D01*
X158345000Y-79600000D01*
X158318000Y-79639000D01*
X158289000Y-79676000D01*
X158259000Y-79712000D01*
X158226000Y-79746000D01*
X158192000Y-79779000D01*
X158156000Y-79809000D01*
X158119000Y-79838000D01*
X158080000Y-79865000D01*
X158040000Y-79889000D01*
X157999000Y-79912000D01*
X157956000Y-79932000D01*
X157913000Y-79950000D01*
X157868000Y-79966000D01*
X157823000Y-79979000D01*
X157777000Y-79990000D01*
X157731000Y-79999000D01*
X157684000Y-80005000D01*
X157637000Y-80009000D01*
X157590000Y-80010000D01*
X157543000Y-80009000D01*
X157496000Y-80005000D01*
X157449000Y-79999000D01*
X157403000Y-79990000D01*
X157357000Y-79979000D01*
X157312000Y-79966000D01*
X157267000Y-79950000D01*
X157224000Y-79932000D01*
X157181000Y-79912000D01*
X157140000Y-79889000D01*
X157100000Y-79865000D01*
X157061000Y-79838000D01*
X157024000Y-79809000D01*
X156988000Y-79779000D01*
X156954000Y-79746000D01*
X156921000Y-79712000D01*
X156891000Y-79676000D01*
X156862000Y-79639000D01*
X156835000Y-79600000D01*
X156811000Y-79560000D01*
X156788000Y-79519000D01*
X156768000Y-79476000D01*
X156750000Y-79433000D01*
X156734000Y-79388000D01*
X156721000Y-79343000D01*
X156710000Y-79297000D01*
X156701000Y-79251000D01*
X156695000Y-79204000D01*
X156691000Y-79157000D01*
X156690000Y-79110000D01*
X156690000Y-76610000D01*
X158490000Y-76610000D01*
X158490000Y-79110000D01*
G37*
X157637000Y-95991000D02*
X157684000Y-95995000D01*
X157731000Y-96001000D01*
X157777000Y-96010000D01*
X157823000Y-96021000D01*
X157868000Y-96034000D01*
X157913000Y-96050000D01*
X157956000Y-96068000D01*
X157999000Y-96088000D01*
X158040000Y-96111000D01*
X158080000Y-96135000D01*
X158119000Y-96162000D01*
X158156000Y-96191000D01*
X158192000Y-96221000D01*
X158226000Y-96254000D01*
X158259000Y-96288000D01*
X158289000Y-96324000D01*
X158318000Y-96361000D01*
X158345000Y-96400000D01*
X158369000Y-96440000D01*
X158392000Y-96481000D01*
X158412000Y-96524000D01*
X158430000Y-96567000D01*
X158446000Y-96612000D01*
X158459000Y-96657000D01*
X158470000Y-96703000D01*
X158479000Y-96749000D01*
X158485000Y-96796000D01*
X158489000Y-96843000D01*
X158490000Y-96890000D01*
X158490000Y-99390000D01*
X156690000Y-99390000D01*
X156690000Y-96890000D01*
X156691000Y-96843000D01*
X156695000Y-96796000D01*
X156701000Y-96749000D01*
X156710000Y-96703000D01*
X156721000Y-96657000D01*
X156734000Y-96612000D01*
X156750000Y-96567000D01*
X156768000Y-96524000D01*
X156788000Y-96481000D01*
X156811000Y-96440000D01*
X156835000Y-96400000D01*
X156862000Y-96361000D01*
X156891000Y-96324000D01*
X156921000Y-96288000D01*
X156954000Y-96254000D01*
X156988000Y-96221000D01*
X157024000Y-96191000D01*
X157061000Y-96162000D01*
X157100000Y-96135000D01*
X157140000Y-96111000D01*
X157181000Y-96088000D01*
X157224000Y-96068000D01*
X157267000Y-96050000D01*
X157312000Y-96034000D01*
X157357000Y-96021000D01*
X157403000Y-96010000D01*
X157449000Y-96001000D01*
X157496000Y-95995000D01*
X157543000Y-95991000D01*
X157590000Y-95990000D01*
X157637000Y-95991000D01*
G36*
X157637000Y-95991000D02*
G01*
X157684000Y-95995000D01*
X157731000Y-96001000D01*
X157777000Y-96010000D01*
X157823000Y-96021000D01*
X157868000Y-96034000D01*
X157913000Y-96050000D01*
X157956000Y-96068000D01*
X157999000Y-96088000D01*
X158040000Y-96111000D01*
X158080000Y-96135000D01*
X158119000Y-96162000D01*
X158156000Y-96191000D01*
X158192000Y-96221000D01*
X158226000Y-96254000D01*
X158259000Y-96288000D01*
X158289000Y-96324000D01*
X158318000Y-96361000D01*
X158345000Y-96400000D01*
X158369000Y-96440000D01*
X158392000Y-96481000D01*
X158412000Y-96524000D01*
X158430000Y-96567000D01*
X158446000Y-96612000D01*
X158459000Y-96657000D01*
X158470000Y-96703000D01*
X158479000Y-96749000D01*
X158485000Y-96796000D01*
X158489000Y-96843000D01*
X158490000Y-96890000D01*
X158490000Y-99390000D01*
X156690000Y-99390000D01*
X156690000Y-96890000D01*
X156691000Y-96843000D01*
X156695000Y-96796000D01*
X156701000Y-96749000D01*
X156710000Y-96703000D01*
X156721000Y-96657000D01*
X156734000Y-96612000D01*
X156750000Y-96567000D01*
X156768000Y-96524000D01*
X156788000Y-96481000D01*
X156811000Y-96440000D01*
X156835000Y-96400000D01*
X156862000Y-96361000D01*
X156891000Y-96324000D01*
X156921000Y-96288000D01*
X156954000Y-96254000D01*
X156988000Y-96221000D01*
X157024000Y-96191000D01*
X157061000Y-96162000D01*
X157100000Y-96135000D01*
X157140000Y-96111000D01*
X157181000Y-96088000D01*
X157224000Y-96068000D01*
X157267000Y-96050000D01*
X157312000Y-96034000D01*
X157357000Y-96021000D01*
X157403000Y-96010000D01*
X157449000Y-96001000D01*
X157496000Y-95995000D01*
X157543000Y-95991000D01*
X157590000Y-95990000D01*
X157637000Y-95991000D01*
G37*
X161030000Y-79110000D02*
X161029000Y-79157000D01*
X161025000Y-79204000D01*
X161019000Y-79251000D01*
X161010000Y-79297000D01*
X160999000Y-79343000D01*
X160986000Y-79388000D01*
X160970000Y-79433000D01*
X160952000Y-79476000D01*
X160932000Y-79519000D01*
X160909000Y-79560000D01*
X160885000Y-79600000D01*
X160858000Y-79639000D01*
X160829000Y-79676000D01*
X160799000Y-79712000D01*
X160766000Y-79746000D01*
X160732000Y-79779000D01*
X160696000Y-79809000D01*
X160659000Y-79838000D01*
X160620000Y-79865000D01*
X160580000Y-79889000D01*
X160539000Y-79912000D01*
X160496000Y-79932000D01*
X160453000Y-79950000D01*
X160408000Y-79966000D01*
X160363000Y-79979000D01*
X160317000Y-79990000D01*
X160271000Y-79999000D01*
X160224000Y-80005000D01*
X160177000Y-80009000D01*
X160130000Y-80010000D01*
X160083000Y-80009000D01*
X160036000Y-80005000D01*
X159989000Y-79999000D01*
X159943000Y-79990000D01*
X159897000Y-79979000D01*
X159852000Y-79966000D01*
X159807000Y-79950000D01*
X159764000Y-79932000D01*
X159721000Y-79912000D01*
X159680000Y-79889000D01*
X159640000Y-79865000D01*
X159601000Y-79838000D01*
X159564000Y-79809000D01*
X159528000Y-79779000D01*
X159494000Y-79746000D01*
X159461000Y-79712000D01*
X159431000Y-79676000D01*
X159402000Y-79639000D01*
X159375000Y-79600000D01*
X159351000Y-79560000D01*
X159328000Y-79519000D01*
X159308000Y-79476000D01*
X159290000Y-79433000D01*
X159274000Y-79388000D01*
X159261000Y-79343000D01*
X159250000Y-79297000D01*
X159241000Y-79251000D01*
X159235000Y-79204000D01*
X159231000Y-79157000D01*
X159230000Y-79110000D01*
X159230000Y-76610000D01*
X161030000Y-76610000D01*
X161030000Y-79110000D01*
G36*
X161030000Y-79110000D02*
G01*
X161029000Y-79157000D01*
X161025000Y-79204000D01*
X161019000Y-79251000D01*
X161010000Y-79297000D01*
X160999000Y-79343000D01*
X160986000Y-79388000D01*
X160970000Y-79433000D01*
X160952000Y-79476000D01*
X160932000Y-79519000D01*
X160909000Y-79560000D01*
X160885000Y-79600000D01*
X160858000Y-79639000D01*
X160829000Y-79676000D01*
X160799000Y-79712000D01*
X160766000Y-79746000D01*
X160732000Y-79779000D01*
X160696000Y-79809000D01*
X160659000Y-79838000D01*
X160620000Y-79865000D01*
X160580000Y-79889000D01*
X160539000Y-79912000D01*
X160496000Y-79932000D01*
X160453000Y-79950000D01*
X160408000Y-79966000D01*
X160363000Y-79979000D01*
X160317000Y-79990000D01*
X160271000Y-79999000D01*
X160224000Y-80005000D01*
X160177000Y-80009000D01*
X160130000Y-80010000D01*
X160083000Y-80009000D01*
X160036000Y-80005000D01*
X159989000Y-79999000D01*
X159943000Y-79990000D01*
X159897000Y-79979000D01*
X159852000Y-79966000D01*
X159807000Y-79950000D01*
X159764000Y-79932000D01*
X159721000Y-79912000D01*
X159680000Y-79889000D01*
X159640000Y-79865000D01*
X159601000Y-79838000D01*
X159564000Y-79809000D01*
X159528000Y-79779000D01*
X159494000Y-79746000D01*
X159461000Y-79712000D01*
X159431000Y-79676000D01*
X159402000Y-79639000D01*
X159375000Y-79600000D01*
X159351000Y-79560000D01*
X159328000Y-79519000D01*
X159308000Y-79476000D01*
X159290000Y-79433000D01*
X159274000Y-79388000D01*
X159261000Y-79343000D01*
X159250000Y-79297000D01*
X159241000Y-79251000D01*
X159235000Y-79204000D01*
X159231000Y-79157000D01*
X159230000Y-79110000D01*
X159230000Y-76610000D01*
X161030000Y-76610000D01*
X161030000Y-79110000D01*
G37*
X160177000Y-95991000D02*
X160224000Y-95995000D01*
X160271000Y-96001000D01*
X160317000Y-96010000D01*
X160363000Y-96021000D01*
X160408000Y-96034000D01*
X160453000Y-96050000D01*
X160496000Y-96068000D01*
X160539000Y-96088000D01*
X160580000Y-96111000D01*
X160620000Y-96135000D01*
X160659000Y-96162000D01*
X160696000Y-96191000D01*
X160732000Y-96221000D01*
X160766000Y-96254000D01*
X160799000Y-96288000D01*
X160829000Y-96324000D01*
X160858000Y-96361000D01*
X160885000Y-96400000D01*
X160909000Y-96440000D01*
X160932000Y-96481000D01*
X160952000Y-96524000D01*
X160970000Y-96567000D01*
X160986000Y-96612000D01*
X160999000Y-96657000D01*
X161010000Y-96703000D01*
X161019000Y-96749000D01*
X161025000Y-96796000D01*
X161029000Y-96843000D01*
X161030000Y-96890000D01*
X161030000Y-99390000D01*
X159230000Y-99390000D01*
X159230000Y-96890000D01*
X159231000Y-96843000D01*
X159235000Y-96796000D01*
X159241000Y-96749000D01*
X159250000Y-96703000D01*
X159261000Y-96657000D01*
X159274000Y-96612000D01*
X159290000Y-96567000D01*
X159308000Y-96524000D01*
X159328000Y-96481000D01*
X159351000Y-96440000D01*
X159375000Y-96400000D01*
X159402000Y-96361000D01*
X159431000Y-96324000D01*
X159461000Y-96288000D01*
X159494000Y-96254000D01*
X159528000Y-96221000D01*
X159564000Y-96191000D01*
X159601000Y-96162000D01*
X159640000Y-96135000D01*
X159680000Y-96111000D01*
X159721000Y-96088000D01*
X159764000Y-96068000D01*
X159807000Y-96050000D01*
X159852000Y-96034000D01*
X159897000Y-96021000D01*
X159943000Y-96010000D01*
X159989000Y-96001000D01*
X160036000Y-95995000D01*
X160083000Y-95991000D01*
X160130000Y-95990000D01*
X160177000Y-95991000D01*
G36*
X160177000Y-95991000D02*
G01*
X160224000Y-95995000D01*
X160271000Y-96001000D01*
X160317000Y-96010000D01*
X160363000Y-96021000D01*
X160408000Y-96034000D01*
X160453000Y-96050000D01*
X160496000Y-96068000D01*
X160539000Y-96088000D01*
X160580000Y-96111000D01*
X160620000Y-96135000D01*
X160659000Y-96162000D01*
X160696000Y-96191000D01*
X160732000Y-96221000D01*
X160766000Y-96254000D01*
X160799000Y-96288000D01*
X160829000Y-96324000D01*
X160858000Y-96361000D01*
X160885000Y-96400000D01*
X160909000Y-96440000D01*
X160932000Y-96481000D01*
X160952000Y-96524000D01*
X160970000Y-96567000D01*
X160986000Y-96612000D01*
X160999000Y-96657000D01*
X161010000Y-96703000D01*
X161019000Y-96749000D01*
X161025000Y-96796000D01*
X161029000Y-96843000D01*
X161030000Y-96890000D01*
X161030000Y-99390000D01*
X159230000Y-99390000D01*
X159230000Y-96890000D01*
X159231000Y-96843000D01*
X159235000Y-96796000D01*
X159241000Y-96749000D01*
X159250000Y-96703000D01*
X159261000Y-96657000D01*
X159274000Y-96612000D01*
X159290000Y-96567000D01*
X159308000Y-96524000D01*
X159328000Y-96481000D01*
X159351000Y-96440000D01*
X159375000Y-96400000D01*
X159402000Y-96361000D01*
X159431000Y-96324000D01*
X159461000Y-96288000D01*
X159494000Y-96254000D01*
X159528000Y-96221000D01*
X159564000Y-96191000D01*
X159601000Y-96162000D01*
X159640000Y-96135000D01*
X159680000Y-96111000D01*
X159721000Y-96088000D01*
X159764000Y-96068000D01*
X159807000Y-96050000D01*
X159852000Y-96034000D01*
X159897000Y-96021000D01*
X159943000Y-96010000D01*
X159989000Y-96001000D01*
X160036000Y-95995000D01*
X160083000Y-95991000D01*
X160130000Y-95990000D01*
X160177000Y-95991000D01*
G37*
X162400000Y-86360000D02*
X159900000Y-86360000D01*
X159853000Y-86359000D01*
X159806000Y-86355000D01*
X159759000Y-86349000D01*
X159713000Y-86340000D01*
X159667000Y-86329000D01*
X159622000Y-86316000D01*
X159577000Y-86300000D01*
X159534000Y-86282000D01*
X159491000Y-86262000D01*
X159450000Y-86239000D01*
X159410000Y-86215000D01*
X159371000Y-86188000D01*
X159334000Y-86159000D01*
X159298000Y-86129000D01*
X159264000Y-86096000D01*
X159231000Y-86062000D01*
X159201000Y-86026000D01*
X159172000Y-85989000D01*
X159145000Y-85950000D01*
X159121000Y-85910000D01*
X159098000Y-85869000D01*
X159078000Y-85826000D01*
X159060000Y-85783000D01*
X159044000Y-85738000D01*
X159031000Y-85693000D01*
X159020000Y-85647000D01*
X159011000Y-85601000D01*
X159005000Y-85554000D01*
X159001000Y-85507000D01*
X159000000Y-85460000D01*
X159001000Y-85413000D01*
X159005000Y-85366000D01*
X159011000Y-85319000D01*
X159020000Y-85273000D01*
X159031000Y-85227000D01*
X159044000Y-85182000D01*
X159060000Y-85137000D01*
X159078000Y-85094000D01*
X159098000Y-85051000D01*
X159121000Y-85010000D01*
X159145000Y-84970000D01*
X159172000Y-84931000D01*
X159201000Y-84894000D01*
X159231000Y-84858000D01*
X159264000Y-84824000D01*
X159298000Y-84791000D01*
X159334000Y-84761000D01*
X159371000Y-84732000D01*
X159410000Y-84705000D01*
X159450000Y-84681000D01*
X159491000Y-84658000D01*
X159534000Y-84638000D01*
X159577000Y-84620000D01*
X159622000Y-84604000D01*
X159667000Y-84591000D01*
X159713000Y-84580000D01*
X159759000Y-84571000D01*
X159806000Y-84565000D01*
X159853000Y-84561000D01*
X159900000Y-84560000D01*
X162400000Y-84560000D01*
X162400000Y-86360000D01*
G36*
X162400000Y-86360000D02*
G01*
X159900000Y-86360000D01*
X159853000Y-86359000D01*
X159806000Y-86355000D01*
X159759000Y-86349000D01*
X159713000Y-86340000D01*
X159667000Y-86329000D01*
X159622000Y-86316000D01*
X159577000Y-86300000D01*
X159534000Y-86282000D01*
X159491000Y-86262000D01*
X159450000Y-86239000D01*
X159410000Y-86215000D01*
X159371000Y-86188000D01*
X159334000Y-86159000D01*
X159298000Y-86129000D01*
X159264000Y-86096000D01*
X159231000Y-86062000D01*
X159201000Y-86026000D01*
X159172000Y-85989000D01*
X159145000Y-85950000D01*
X159121000Y-85910000D01*
X159098000Y-85869000D01*
X159078000Y-85826000D01*
X159060000Y-85783000D01*
X159044000Y-85738000D01*
X159031000Y-85693000D01*
X159020000Y-85647000D01*
X159011000Y-85601000D01*
X159005000Y-85554000D01*
X159001000Y-85507000D01*
X159000000Y-85460000D01*
X159001000Y-85413000D01*
X159005000Y-85366000D01*
X159011000Y-85319000D01*
X159020000Y-85273000D01*
X159031000Y-85227000D01*
X159044000Y-85182000D01*
X159060000Y-85137000D01*
X159078000Y-85094000D01*
X159098000Y-85051000D01*
X159121000Y-85010000D01*
X159145000Y-84970000D01*
X159172000Y-84931000D01*
X159201000Y-84894000D01*
X159231000Y-84858000D01*
X159264000Y-84824000D01*
X159298000Y-84791000D01*
X159334000Y-84761000D01*
X159371000Y-84732000D01*
X159410000Y-84705000D01*
X159450000Y-84681000D01*
X159491000Y-84658000D01*
X159534000Y-84638000D01*
X159577000Y-84620000D01*
X159622000Y-84604000D01*
X159667000Y-84591000D01*
X159713000Y-84580000D01*
X159759000Y-84571000D01*
X159806000Y-84565000D01*
X159853000Y-84561000D01*
X159900000Y-84560000D01*
X162400000Y-84560000D01*
X162400000Y-86360000D01*
G37*
X162400000Y-91440000D02*
X159900000Y-91440000D01*
X159853000Y-91439000D01*
X159806000Y-91435000D01*
X159759000Y-91429000D01*
X159713000Y-91420000D01*
X159667000Y-91409000D01*
X159622000Y-91396000D01*
X159577000Y-91380000D01*
X159534000Y-91362000D01*
X159491000Y-91342000D01*
X159450000Y-91319000D01*
X159410000Y-91295000D01*
X159371000Y-91268000D01*
X159334000Y-91239000D01*
X159298000Y-91209000D01*
X159264000Y-91176000D01*
X159231000Y-91142000D01*
X159201000Y-91106000D01*
X159172000Y-91069000D01*
X159145000Y-91030000D01*
X159121000Y-90990000D01*
X159098000Y-90949000D01*
X159078000Y-90906000D01*
X159060000Y-90863000D01*
X159044000Y-90818000D01*
X159031000Y-90773000D01*
X159020000Y-90727000D01*
X159011000Y-90681000D01*
X159005000Y-90634000D01*
X159001000Y-90587000D01*
X159000000Y-90540000D01*
X159001000Y-90493000D01*
X159005000Y-90446000D01*
X159011000Y-90399000D01*
X159020000Y-90353000D01*
X159031000Y-90307000D01*
X159044000Y-90262000D01*
X159060000Y-90217000D01*
X159078000Y-90174000D01*
X159098000Y-90131000D01*
X159121000Y-90090000D01*
X159145000Y-90050000D01*
X159172000Y-90011000D01*
X159201000Y-89974000D01*
X159231000Y-89938000D01*
X159264000Y-89904000D01*
X159298000Y-89871000D01*
X159334000Y-89841000D01*
X159371000Y-89812000D01*
X159410000Y-89785000D01*
X159450000Y-89761000D01*
X159491000Y-89738000D01*
X159534000Y-89718000D01*
X159577000Y-89700000D01*
X159622000Y-89684000D01*
X159667000Y-89671000D01*
X159713000Y-89660000D01*
X159759000Y-89651000D01*
X159806000Y-89645000D01*
X159853000Y-89641000D01*
X159900000Y-89640000D01*
X162400000Y-89640000D01*
X162400000Y-91440000D01*
G36*
X162400000Y-91440000D02*
G01*
X159900000Y-91440000D01*
X159853000Y-91439000D01*
X159806000Y-91435000D01*
X159759000Y-91429000D01*
X159713000Y-91420000D01*
X159667000Y-91409000D01*
X159622000Y-91396000D01*
X159577000Y-91380000D01*
X159534000Y-91362000D01*
X159491000Y-91342000D01*
X159450000Y-91319000D01*
X159410000Y-91295000D01*
X159371000Y-91268000D01*
X159334000Y-91239000D01*
X159298000Y-91209000D01*
X159264000Y-91176000D01*
X159231000Y-91142000D01*
X159201000Y-91106000D01*
X159172000Y-91069000D01*
X159145000Y-91030000D01*
X159121000Y-90990000D01*
X159098000Y-90949000D01*
X159078000Y-90906000D01*
X159060000Y-90863000D01*
X159044000Y-90818000D01*
X159031000Y-90773000D01*
X159020000Y-90727000D01*
X159011000Y-90681000D01*
X159005000Y-90634000D01*
X159001000Y-90587000D01*
X159000000Y-90540000D01*
X159001000Y-90493000D01*
X159005000Y-90446000D01*
X159011000Y-90399000D01*
X159020000Y-90353000D01*
X159031000Y-90307000D01*
X159044000Y-90262000D01*
X159060000Y-90217000D01*
X159078000Y-90174000D01*
X159098000Y-90131000D01*
X159121000Y-90090000D01*
X159145000Y-90050000D01*
X159172000Y-90011000D01*
X159201000Y-89974000D01*
X159231000Y-89938000D01*
X159264000Y-89904000D01*
X159298000Y-89871000D01*
X159334000Y-89841000D01*
X159371000Y-89812000D01*
X159410000Y-89785000D01*
X159450000Y-89761000D01*
X159491000Y-89738000D01*
X159534000Y-89718000D01*
X159577000Y-89700000D01*
X159622000Y-89684000D01*
X159667000Y-89671000D01*
X159713000Y-89660000D01*
X159759000Y-89651000D01*
X159806000Y-89645000D01*
X159853000Y-89641000D01*
X159900000Y-89640000D01*
X162400000Y-89640000D01*
X162400000Y-91440000D01*
G37*
X117850000Y-79710000D02*
X117850000Y-79726000D01*
X117848000Y-79741000D01*
X117846000Y-79757000D01*
X117843000Y-79772000D01*
X117840000Y-79788000D01*
X117835000Y-79803000D01*
X117830000Y-79818000D01*
X117824000Y-79832000D01*
X117817000Y-79846000D01*
X117810000Y-79860000D01*
X117802000Y-79873000D01*
X117793000Y-79886000D01*
X117783000Y-79899000D01*
X117773000Y-79911000D01*
X117762000Y-79922000D01*
X117751000Y-79933000D01*
X117739000Y-79943000D01*
X117726000Y-79953000D01*
X117713000Y-79962000D01*
X117700000Y-79970000D01*
X117686000Y-79977000D01*
X117672000Y-79984000D01*
X117658000Y-79990000D01*
X117643000Y-79995000D01*
X117628000Y-80000000D01*
X117612000Y-80003000D01*
X117597000Y-80006000D01*
X117581000Y-80008000D01*
X117566000Y-80010000D01*
X117550000Y-80010000D01*
X116350000Y-80010000D01*
X116334000Y-80010000D01*
X116319000Y-80008000D01*
X116303000Y-80006000D01*
X116288000Y-80003000D01*
X116272000Y-80000000D01*
X116257000Y-79995000D01*
X116242000Y-79990000D01*
X116228000Y-79984000D01*
X116214000Y-79977000D01*
X116200000Y-79970000D01*
X116187000Y-79962000D01*
X116174000Y-79953000D01*
X116161000Y-79943000D01*
X116149000Y-79933000D01*
X116138000Y-79922000D01*
X116127000Y-79911000D01*
X116117000Y-79899000D01*
X116107000Y-79886000D01*
X116098000Y-79873000D01*
X116090000Y-79860000D01*
X116083000Y-79846000D01*
X116076000Y-79832000D01*
X116070000Y-79818000D01*
X116065000Y-79803000D01*
X116060000Y-79788000D01*
X116057000Y-79772000D01*
X116054000Y-79757000D01*
X116052000Y-79741000D01*
X116050000Y-79726000D01*
X116050000Y-79710000D01*
X116050000Y-76610000D01*
X117850000Y-76610000D01*
X117850000Y-79710000D01*
G36*
X117850000Y-79710000D02*
G01*
X117850000Y-79726000D01*
X117848000Y-79741000D01*
X117846000Y-79757000D01*
X117843000Y-79772000D01*
X117840000Y-79788000D01*
X117835000Y-79803000D01*
X117830000Y-79818000D01*
X117824000Y-79832000D01*
X117817000Y-79846000D01*
X117810000Y-79860000D01*
X117802000Y-79873000D01*
X117793000Y-79886000D01*
X117783000Y-79899000D01*
X117773000Y-79911000D01*
X117762000Y-79922000D01*
X117751000Y-79933000D01*
X117739000Y-79943000D01*
X117726000Y-79953000D01*
X117713000Y-79962000D01*
X117700000Y-79970000D01*
X117686000Y-79977000D01*
X117672000Y-79984000D01*
X117658000Y-79990000D01*
X117643000Y-79995000D01*
X117628000Y-80000000D01*
X117612000Y-80003000D01*
X117597000Y-80006000D01*
X117581000Y-80008000D01*
X117566000Y-80010000D01*
X117550000Y-80010000D01*
X116350000Y-80010000D01*
X116334000Y-80010000D01*
X116319000Y-80008000D01*
X116303000Y-80006000D01*
X116288000Y-80003000D01*
X116272000Y-80000000D01*
X116257000Y-79995000D01*
X116242000Y-79990000D01*
X116228000Y-79984000D01*
X116214000Y-79977000D01*
X116200000Y-79970000D01*
X116187000Y-79962000D01*
X116174000Y-79953000D01*
X116161000Y-79943000D01*
X116149000Y-79933000D01*
X116138000Y-79922000D01*
X116127000Y-79911000D01*
X116117000Y-79899000D01*
X116107000Y-79886000D01*
X116098000Y-79873000D01*
X116090000Y-79860000D01*
X116083000Y-79846000D01*
X116076000Y-79832000D01*
X116070000Y-79818000D01*
X116065000Y-79803000D01*
X116060000Y-79788000D01*
X116057000Y-79772000D01*
X116054000Y-79757000D01*
X116052000Y-79741000D01*
X116050000Y-79726000D01*
X116050000Y-79710000D01*
X116050000Y-76610000D01*
X117850000Y-76610000D01*
X117850000Y-79710000D01*
G37*
X117581000Y-95992000D02*
X117597000Y-95994000D01*
X117612000Y-95997000D01*
X117628000Y-96000000D01*
X117643000Y-96005000D01*
X117658000Y-96010000D01*
X117672000Y-96016000D01*
X117686000Y-96023000D01*
X117700000Y-96030000D01*
X117713000Y-96038000D01*
X117726000Y-96047000D01*
X117739000Y-96057000D01*
X117751000Y-96067000D01*
X117762000Y-96078000D01*
X117773000Y-96089000D01*
X117783000Y-96101000D01*
X117793000Y-96114000D01*
X117802000Y-96127000D01*
X117810000Y-96140000D01*
X117817000Y-96154000D01*
X117824000Y-96168000D01*
X117830000Y-96182000D01*
X117835000Y-96197000D01*
X117840000Y-96212000D01*
X117843000Y-96228000D01*
X117846000Y-96243000D01*
X117848000Y-96259000D01*
X117850000Y-96274000D01*
X117850000Y-96290000D01*
X117850000Y-99390000D01*
X116050000Y-99390000D01*
X116050000Y-96290000D01*
X116050000Y-96274000D01*
X116052000Y-96259000D01*
X116054000Y-96243000D01*
X116057000Y-96228000D01*
X116060000Y-96212000D01*
X116065000Y-96197000D01*
X116070000Y-96182000D01*
X116076000Y-96168000D01*
X116083000Y-96154000D01*
X116090000Y-96140000D01*
X116098000Y-96127000D01*
X116107000Y-96114000D01*
X116117000Y-96101000D01*
X116127000Y-96089000D01*
X116138000Y-96078000D01*
X116149000Y-96067000D01*
X116161000Y-96057000D01*
X116174000Y-96047000D01*
X116187000Y-96038000D01*
X116200000Y-96030000D01*
X116214000Y-96023000D01*
X116228000Y-96016000D01*
X116242000Y-96010000D01*
X116257000Y-96005000D01*
X116272000Y-96000000D01*
X116288000Y-95997000D01*
X116303000Y-95994000D01*
X116319000Y-95992000D01*
X116334000Y-95990000D01*
X116350000Y-95990000D01*
X117550000Y-95990000D01*
X117566000Y-95990000D01*
X117581000Y-95992000D01*
G36*
X117581000Y-95992000D02*
G01*
X117597000Y-95994000D01*
X117612000Y-95997000D01*
X117628000Y-96000000D01*
X117643000Y-96005000D01*
X117658000Y-96010000D01*
X117672000Y-96016000D01*
X117686000Y-96023000D01*
X117700000Y-96030000D01*
X117713000Y-96038000D01*
X117726000Y-96047000D01*
X117739000Y-96057000D01*
X117751000Y-96067000D01*
X117762000Y-96078000D01*
X117773000Y-96089000D01*
X117783000Y-96101000D01*
X117793000Y-96114000D01*
X117802000Y-96127000D01*
X117810000Y-96140000D01*
X117817000Y-96154000D01*
X117824000Y-96168000D01*
X117830000Y-96182000D01*
X117835000Y-96197000D01*
X117840000Y-96212000D01*
X117843000Y-96228000D01*
X117846000Y-96243000D01*
X117848000Y-96259000D01*
X117850000Y-96274000D01*
X117850000Y-96290000D01*
X117850000Y-99390000D01*
X116050000Y-99390000D01*
X116050000Y-96290000D01*
X116050000Y-96274000D01*
X116052000Y-96259000D01*
X116054000Y-96243000D01*
X116057000Y-96228000D01*
X116060000Y-96212000D01*
X116065000Y-96197000D01*
X116070000Y-96182000D01*
X116076000Y-96168000D01*
X116083000Y-96154000D01*
X116090000Y-96140000D01*
X116098000Y-96127000D01*
X116107000Y-96114000D01*
X116117000Y-96101000D01*
X116127000Y-96089000D01*
X116138000Y-96078000D01*
X116149000Y-96067000D01*
X116161000Y-96057000D01*
X116174000Y-96047000D01*
X116187000Y-96038000D01*
X116200000Y-96030000D01*
X116214000Y-96023000D01*
X116228000Y-96016000D01*
X116242000Y-96010000D01*
X116257000Y-96005000D01*
X116272000Y-96000000D01*
X116288000Y-95997000D01*
X116303000Y-95994000D01*
X116319000Y-95992000D01*
X116334000Y-95990000D01*
X116350000Y-95990000D01*
X117550000Y-95990000D01*
X117566000Y-95990000D01*
X117581000Y-95992000D01*
G37*
X130550000Y-79710000D02*
X130550000Y-79726000D01*
X130548000Y-79741000D01*
X130546000Y-79757000D01*
X130543000Y-79772000D01*
X130540000Y-79788000D01*
X130535000Y-79803000D01*
X130530000Y-79818000D01*
X130524000Y-79832000D01*
X130517000Y-79846000D01*
X130510000Y-79860000D01*
X130502000Y-79873000D01*
X130493000Y-79886000D01*
X130483000Y-79899000D01*
X130473000Y-79911000D01*
X130462000Y-79922000D01*
X130451000Y-79933000D01*
X130439000Y-79943000D01*
X130426000Y-79953000D01*
X130413000Y-79962000D01*
X130400000Y-79970000D01*
X130386000Y-79977000D01*
X130372000Y-79984000D01*
X130358000Y-79990000D01*
X130343000Y-79995000D01*
X130328000Y-80000000D01*
X130312000Y-80003000D01*
X130297000Y-80006000D01*
X130281000Y-80008000D01*
X130266000Y-80010000D01*
X130250000Y-80010000D01*
X129050000Y-80010000D01*
X129034000Y-80010000D01*
X129019000Y-80008000D01*
X129003000Y-80006000D01*
X128988000Y-80003000D01*
X128972000Y-80000000D01*
X128957000Y-79995000D01*
X128942000Y-79990000D01*
X128928000Y-79984000D01*
X128914000Y-79977000D01*
X128900000Y-79970000D01*
X128887000Y-79962000D01*
X128874000Y-79953000D01*
X128861000Y-79943000D01*
X128849000Y-79933000D01*
X128838000Y-79922000D01*
X128827000Y-79911000D01*
X128817000Y-79899000D01*
X128807000Y-79886000D01*
X128798000Y-79873000D01*
X128790000Y-79860000D01*
X128783000Y-79846000D01*
X128776000Y-79832000D01*
X128770000Y-79818000D01*
X128765000Y-79803000D01*
X128760000Y-79788000D01*
X128757000Y-79772000D01*
X128754000Y-79757000D01*
X128752000Y-79741000D01*
X128750000Y-79726000D01*
X128750000Y-79710000D01*
X128750000Y-76610000D01*
X130550000Y-76610000D01*
X130550000Y-79710000D01*
G36*
X130550000Y-79710000D02*
G01*
X130550000Y-79726000D01*
X130548000Y-79741000D01*
X130546000Y-79757000D01*
X130543000Y-79772000D01*
X130540000Y-79788000D01*
X130535000Y-79803000D01*
X130530000Y-79818000D01*
X130524000Y-79832000D01*
X130517000Y-79846000D01*
X130510000Y-79860000D01*
X130502000Y-79873000D01*
X130493000Y-79886000D01*
X130483000Y-79899000D01*
X130473000Y-79911000D01*
X130462000Y-79922000D01*
X130451000Y-79933000D01*
X130439000Y-79943000D01*
X130426000Y-79953000D01*
X130413000Y-79962000D01*
X130400000Y-79970000D01*
X130386000Y-79977000D01*
X130372000Y-79984000D01*
X130358000Y-79990000D01*
X130343000Y-79995000D01*
X130328000Y-80000000D01*
X130312000Y-80003000D01*
X130297000Y-80006000D01*
X130281000Y-80008000D01*
X130266000Y-80010000D01*
X130250000Y-80010000D01*
X129050000Y-80010000D01*
X129034000Y-80010000D01*
X129019000Y-80008000D01*
X129003000Y-80006000D01*
X128988000Y-80003000D01*
X128972000Y-80000000D01*
X128957000Y-79995000D01*
X128942000Y-79990000D01*
X128928000Y-79984000D01*
X128914000Y-79977000D01*
X128900000Y-79970000D01*
X128887000Y-79962000D01*
X128874000Y-79953000D01*
X128861000Y-79943000D01*
X128849000Y-79933000D01*
X128838000Y-79922000D01*
X128827000Y-79911000D01*
X128817000Y-79899000D01*
X128807000Y-79886000D01*
X128798000Y-79873000D01*
X128790000Y-79860000D01*
X128783000Y-79846000D01*
X128776000Y-79832000D01*
X128770000Y-79818000D01*
X128765000Y-79803000D01*
X128760000Y-79788000D01*
X128757000Y-79772000D01*
X128754000Y-79757000D01*
X128752000Y-79741000D01*
X128750000Y-79726000D01*
X128750000Y-79710000D01*
X128750000Y-76610000D01*
X130550000Y-76610000D01*
X130550000Y-79710000D01*
G37*
X130281000Y-95992000D02*
X130297000Y-95994000D01*
X130312000Y-95997000D01*
X130328000Y-96000000D01*
X130343000Y-96005000D01*
X130358000Y-96010000D01*
X130372000Y-96016000D01*
X130386000Y-96023000D01*
X130400000Y-96030000D01*
X130413000Y-96038000D01*
X130426000Y-96047000D01*
X130439000Y-96057000D01*
X130451000Y-96067000D01*
X130462000Y-96078000D01*
X130473000Y-96089000D01*
X130483000Y-96101000D01*
X130493000Y-96114000D01*
X130502000Y-96127000D01*
X130510000Y-96140000D01*
X130517000Y-96154000D01*
X130524000Y-96168000D01*
X130530000Y-96182000D01*
X130535000Y-96197000D01*
X130540000Y-96212000D01*
X130543000Y-96228000D01*
X130546000Y-96243000D01*
X130548000Y-96259000D01*
X130550000Y-96274000D01*
X130550000Y-96290000D01*
X130550000Y-99390000D01*
X128750000Y-99390000D01*
X128750000Y-96290000D01*
X128750000Y-96274000D01*
X128752000Y-96259000D01*
X128754000Y-96243000D01*
X128757000Y-96228000D01*
X128760000Y-96212000D01*
X128765000Y-96197000D01*
X128770000Y-96182000D01*
X128776000Y-96168000D01*
X128783000Y-96154000D01*
X128790000Y-96140000D01*
X128798000Y-96127000D01*
X128807000Y-96114000D01*
X128817000Y-96101000D01*
X128827000Y-96089000D01*
X128838000Y-96078000D01*
X128849000Y-96067000D01*
X128861000Y-96057000D01*
X128874000Y-96047000D01*
X128887000Y-96038000D01*
X128900000Y-96030000D01*
X128914000Y-96023000D01*
X128928000Y-96016000D01*
X128942000Y-96010000D01*
X128957000Y-96005000D01*
X128972000Y-96000000D01*
X128988000Y-95997000D01*
X129003000Y-95994000D01*
X129019000Y-95992000D01*
X129034000Y-95990000D01*
X129050000Y-95990000D01*
X130250000Y-95990000D01*
X130266000Y-95990000D01*
X130281000Y-95992000D01*
G36*
X130281000Y-95992000D02*
G01*
X130297000Y-95994000D01*
X130312000Y-95997000D01*
X130328000Y-96000000D01*
X130343000Y-96005000D01*
X130358000Y-96010000D01*
X130372000Y-96016000D01*
X130386000Y-96023000D01*
X130400000Y-96030000D01*
X130413000Y-96038000D01*
X130426000Y-96047000D01*
X130439000Y-96057000D01*
X130451000Y-96067000D01*
X130462000Y-96078000D01*
X130473000Y-96089000D01*
X130483000Y-96101000D01*
X130493000Y-96114000D01*
X130502000Y-96127000D01*
X130510000Y-96140000D01*
X130517000Y-96154000D01*
X130524000Y-96168000D01*
X130530000Y-96182000D01*
X130535000Y-96197000D01*
X130540000Y-96212000D01*
X130543000Y-96228000D01*
X130546000Y-96243000D01*
X130548000Y-96259000D01*
X130550000Y-96274000D01*
X130550000Y-96290000D01*
X130550000Y-99390000D01*
X128750000Y-99390000D01*
X128750000Y-96290000D01*
X128750000Y-96274000D01*
X128752000Y-96259000D01*
X128754000Y-96243000D01*
X128757000Y-96228000D01*
X128760000Y-96212000D01*
X128765000Y-96197000D01*
X128770000Y-96182000D01*
X128776000Y-96168000D01*
X128783000Y-96154000D01*
X128790000Y-96140000D01*
X128798000Y-96127000D01*
X128807000Y-96114000D01*
X128817000Y-96101000D01*
X128827000Y-96089000D01*
X128838000Y-96078000D01*
X128849000Y-96067000D01*
X128861000Y-96057000D01*
X128874000Y-96047000D01*
X128887000Y-96038000D01*
X128900000Y-96030000D01*
X128914000Y-96023000D01*
X128928000Y-96016000D01*
X128942000Y-96010000D01*
X128957000Y-96005000D01*
X128972000Y-96000000D01*
X128988000Y-95997000D01*
X129003000Y-95994000D01*
X129019000Y-95992000D01*
X129034000Y-95990000D01*
X129050000Y-95990000D01*
X130250000Y-95990000D01*
X130266000Y-95990000D01*
X130281000Y-95992000D01*
G37*
X143250000Y-79710000D02*
X143250000Y-79726000D01*
X143248000Y-79741000D01*
X143246000Y-79757000D01*
X143243000Y-79772000D01*
X143240000Y-79788000D01*
X143235000Y-79803000D01*
X143230000Y-79818000D01*
X143224000Y-79832000D01*
X143217000Y-79846000D01*
X143210000Y-79860000D01*
X143202000Y-79873000D01*
X143193000Y-79886000D01*
X143183000Y-79899000D01*
X143173000Y-79911000D01*
X143162000Y-79922000D01*
X143151000Y-79933000D01*
X143139000Y-79943000D01*
X143126000Y-79953000D01*
X143113000Y-79962000D01*
X143100000Y-79970000D01*
X143086000Y-79977000D01*
X143072000Y-79984000D01*
X143058000Y-79990000D01*
X143043000Y-79995000D01*
X143028000Y-80000000D01*
X143012000Y-80003000D01*
X142997000Y-80006000D01*
X142981000Y-80008000D01*
X142966000Y-80010000D01*
X142950000Y-80010000D01*
X141750000Y-80010000D01*
X141734000Y-80010000D01*
X141719000Y-80008000D01*
X141703000Y-80006000D01*
X141688000Y-80003000D01*
X141672000Y-80000000D01*
X141657000Y-79995000D01*
X141642000Y-79990000D01*
X141628000Y-79984000D01*
X141614000Y-79977000D01*
X141600000Y-79970000D01*
X141587000Y-79962000D01*
X141574000Y-79953000D01*
X141561000Y-79943000D01*
X141549000Y-79933000D01*
X141538000Y-79922000D01*
X141527000Y-79911000D01*
X141517000Y-79899000D01*
X141507000Y-79886000D01*
X141498000Y-79873000D01*
X141490000Y-79860000D01*
X141483000Y-79846000D01*
X141476000Y-79832000D01*
X141470000Y-79818000D01*
X141465000Y-79803000D01*
X141460000Y-79788000D01*
X141457000Y-79772000D01*
X141454000Y-79757000D01*
X141452000Y-79741000D01*
X141450000Y-79726000D01*
X141450000Y-79710000D01*
X141450000Y-76610000D01*
X143250000Y-76610000D01*
X143250000Y-79710000D01*
G36*
X143250000Y-79710000D02*
G01*
X143250000Y-79726000D01*
X143248000Y-79741000D01*
X143246000Y-79757000D01*
X143243000Y-79772000D01*
X143240000Y-79788000D01*
X143235000Y-79803000D01*
X143230000Y-79818000D01*
X143224000Y-79832000D01*
X143217000Y-79846000D01*
X143210000Y-79860000D01*
X143202000Y-79873000D01*
X143193000Y-79886000D01*
X143183000Y-79899000D01*
X143173000Y-79911000D01*
X143162000Y-79922000D01*
X143151000Y-79933000D01*
X143139000Y-79943000D01*
X143126000Y-79953000D01*
X143113000Y-79962000D01*
X143100000Y-79970000D01*
X143086000Y-79977000D01*
X143072000Y-79984000D01*
X143058000Y-79990000D01*
X143043000Y-79995000D01*
X143028000Y-80000000D01*
X143012000Y-80003000D01*
X142997000Y-80006000D01*
X142981000Y-80008000D01*
X142966000Y-80010000D01*
X142950000Y-80010000D01*
X141750000Y-80010000D01*
X141734000Y-80010000D01*
X141719000Y-80008000D01*
X141703000Y-80006000D01*
X141688000Y-80003000D01*
X141672000Y-80000000D01*
X141657000Y-79995000D01*
X141642000Y-79990000D01*
X141628000Y-79984000D01*
X141614000Y-79977000D01*
X141600000Y-79970000D01*
X141587000Y-79962000D01*
X141574000Y-79953000D01*
X141561000Y-79943000D01*
X141549000Y-79933000D01*
X141538000Y-79922000D01*
X141527000Y-79911000D01*
X141517000Y-79899000D01*
X141507000Y-79886000D01*
X141498000Y-79873000D01*
X141490000Y-79860000D01*
X141483000Y-79846000D01*
X141476000Y-79832000D01*
X141470000Y-79818000D01*
X141465000Y-79803000D01*
X141460000Y-79788000D01*
X141457000Y-79772000D01*
X141454000Y-79757000D01*
X141452000Y-79741000D01*
X141450000Y-79726000D01*
X141450000Y-79710000D01*
X141450000Y-76610000D01*
X143250000Y-76610000D01*
X143250000Y-79710000D01*
G37*
X142981000Y-95992000D02*
X142997000Y-95994000D01*
X143012000Y-95997000D01*
X143028000Y-96000000D01*
X143043000Y-96005000D01*
X143058000Y-96010000D01*
X143072000Y-96016000D01*
X143086000Y-96023000D01*
X143100000Y-96030000D01*
X143113000Y-96038000D01*
X143126000Y-96047000D01*
X143139000Y-96057000D01*
X143151000Y-96067000D01*
X143162000Y-96078000D01*
X143173000Y-96089000D01*
X143183000Y-96101000D01*
X143193000Y-96114000D01*
X143202000Y-96127000D01*
X143210000Y-96140000D01*
X143217000Y-96154000D01*
X143224000Y-96168000D01*
X143230000Y-96182000D01*
X143235000Y-96197000D01*
X143240000Y-96212000D01*
X143243000Y-96228000D01*
X143246000Y-96243000D01*
X143248000Y-96259000D01*
X143250000Y-96274000D01*
X143250000Y-96290000D01*
X143250000Y-99390000D01*
X141450000Y-99390000D01*
X141450000Y-96290000D01*
X141450000Y-96274000D01*
X141452000Y-96259000D01*
X141454000Y-96243000D01*
X141457000Y-96228000D01*
X141460000Y-96212000D01*
X141465000Y-96197000D01*
X141470000Y-96182000D01*
X141476000Y-96168000D01*
X141483000Y-96154000D01*
X141490000Y-96140000D01*
X141498000Y-96127000D01*
X141507000Y-96114000D01*
X141517000Y-96101000D01*
X141527000Y-96089000D01*
X141538000Y-96078000D01*
X141549000Y-96067000D01*
X141561000Y-96057000D01*
X141574000Y-96047000D01*
X141587000Y-96038000D01*
X141600000Y-96030000D01*
X141614000Y-96023000D01*
X141628000Y-96016000D01*
X141642000Y-96010000D01*
X141657000Y-96005000D01*
X141672000Y-96000000D01*
X141688000Y-95997000D01*
X141703000Y-95994000D01*
X141719000Y-95992000D01*
X141734000Y-95990000D01*
X141750000Y-95990000D01*
X142950000Y-95990000D01*
X142966000Y-95990000D01*
X142981000Y-95992000D01*
G36*
X142981000Y-95992000D02*
G01*
X142997000Y-95994000D01*
X143012000Y-95997000D01*
X143028000Y-96000000D01*
X143043000Y-96005000D01*
X143058000Y-96010000D01*
X143072000Y-96016000D01*
X143086000Y-96023000D01*
X143100000Y-96030000D01*
X143113000Y-96038000D01*
X143126000Y-96047000D01*
X143139000Y-96057000D01*
X143151000Y-96067000D01*
X143162000Y-96078000D01*
X143173000Y-96089000D01*
X143183000Y-96101000D01*
X143193000Y-96114000D01*
X143202000Y-96127000D01*
X143210000Y-96140000D01*
X143217000Y-96154000D01*
X143224000Y-96168000D01*
X143230000Y-96182000D01*
X143235000Y-96197000D01*
X143240000Y-96212000D01*
X143243000Y-96228000D01*
X143246000Y-96243000D01*
X143248000Y-96259000D01*
X143250000Y-96274000D01*
X143250000Y-96290000D01*
X143250000Y-99390000D01*
X141450000Y-99390000D01*
X141450000Y-96290000D01*
X141450000Y-96274000D01*
X141452000Y-96259000D01*
X141454000Y-96243000D01*
X141457000Y-96228000D01*
X141460000Y-96212000D01*
X141465000Y-96197000D01*
X141470000Y-96182000D01*
X141476000Y-96168000D01*
X141483000Y-96154000D01*
X141490000Y-96140000D01*
X141498000Y-96127000D01*
X141507000Y-96114000D01*
X141517000Y-96101000D01*
X141527000Y-96089000D01*
X141538000Y-96078000D01*
X141549000Y-96067000D01*
X141561000Y-96057000D01*
X141574000Y-96047000D01*
X141587000Y-96038000D01*
X141600000Y-96030000D01*
X141614000Y-96023000D01*
X141628000Y-96016000D01*
X141642000Y-96010000D01*
X141657000Y-96005000D01*
X141672000Y-96000000D01*
X141688000Y-95997000D01*
X141703000Y-95994000D01*
X141719000Y-95992000D01*
X141734000Y-95990000D01*
X141750000Y-95990000D01*
X142950000Y-95990000D01*
X142966000Y-95990000D01*
X142981000Y-95992000D01*
G37*
X155950000Y-79710000D02*
X155950000Y-79726000D01*
X155948000Y-79741000D01*
X155946000Y-79757000D01*
X155943000Y-79772000D01*
X155940000Y-79788000D01*
X155935000Y-79803000D01*
X155930000Y-79818000D01*
X155924000Y-79832000D01*
X155917000Y-79846000D01*
X155910000Y-79860000D01*
X155902000Y-79873000D01*
X155893000Y-79886000D01*
X155883000Y-79899000D01*
X155873000Y-79911000D01*
X155862000Y-79922000D01*
X155851000Y-79933000D01*
X155839000Y-79943000D01*
X155826000Y-79953000D01*
X155813000Y-79962000D01*
X155800000Y-79970000D01*
X155786000Y-79977000D01*
X155772000Y-79984000D01*
X155758000Y-79990000D01*
X155743000Y-79995000D01*
X155728000Y-80000000D01*
X155712000Y-80003000D01*
X155697000Y-80006000D01*
X155681000Y-80008000D01*
X155666000Y-80010000D01*
X155650000Y-80010000D01*
X154450000Y-80010000D01*
X154434000Y-80010000D01*
X154419000Y-80008000D01*
X154403000Y-80006000D01*
X154388000Y-80003000D01*
X154372000Y-80000000D01*
X154357000Y-79995000D01*
X154342000Y-79990000D01*
X154328000Y-79984000D01*
X154314000Y-79977000D01*
X154300000Y-79970000D01*
X154287000Y-79962000D01*
X154274000Y-79953000D01*
X154261000Y-79943000D01*
X154249000Y-79933000D01*
X154238000Y-79922000D01*
X154227000Y-79911000D01*
X154217000Y-79899000D01*
X154207000Y-79886000D01*
X154198000Y-79873000D01*
X154190000Y-79860000D01*
X154183000Y-79846000D01*
X154176000Y-79832000D01*
X154170000Y-79818000D01*
X154165000Y-79803000D01*
X154160000Y-79788000D01*
X154157000Y-79772000D01*
X154154000Y-79757000D01*
X154152000Y-79741000D01*
X154150000Y-79726000D01*
X154150000Y-79710000D01*
X154150000Y-76610000D01*
X155950000Y-76610000D01*
X155950000Y-79710000D01*
G36*
X155950000Y-79710000D02*
G01*
X155950000Y-79726000D01*
X155948000Y-79741000D01*
X155946000Y-79757000D01*
X155943000Y-79772000D01*
X155940000Y-79788000D01*
X155935000Y-79803000D01*
X155930000Y-79818000D01*
X155924000Y-79832000D01*
X155917000Y-79846000D01*
X155910000Y-79860000D01*
X155902000Y-79873000D01*
X155893000Y-79886000D01*
X155883000Y-79899000D01*
X155873000Y-79911000D01*
X155862000Y-79922000D01*
X155851000Y-79933000D01*
X155839000Y-79943000D01*
X155826000Y-79953000D01*
X155813000Y-79962000D01*
X155800000Y-79970000D01*
X155786000Y-79977000D01*
X155772000Y-79984000D01*
X155758000Y-79990000D01*
X155743000Y-79995000D01*
X155728000Y-80000000D01*
X155712000Y-80003000D01*
X155697000Y-80006000D01*
X155681000Y-80008000D01*
X155666000Y-80010000D01*
X155650000Y-80010000D01*
X154450000Y-80010000D01*
X154434000Y-80010000D01*
X154419000Y-80008000D01*
X154403000Y-80006000D01*
X154388000Y-80003000D01*
X154372000Y-80000000D01*
X154357000Y-79995000D01*
X154342000Y-79990000D01*
X154328000Y-79984000D01*
X154314000Y-79977000D01*
X154300000Y-79970000D01*
X154287000Y-79962000D01*
X154274000Y-79953000D01*
X154261000Y-79943000D01*
X154249000Y-79933000D01*
X154238000Y-79922000D01*
X154227000Y-79911000D01*
X154217000Y-79899000D01*
X154207000Y-79886000D01*
X154198000Y-79873000D01*
X154190000Y-79860000D01*
X154183000Y-79846000D01*
X154176000Y-79832000D01*
X154170000Y-79818000D01*
X154165000Y-79803000D01*
X154160000Y-79788000D01*
X154157000Y-79772000D01*
X154154000Y-79757000D01*
X154152000Y-79741000D01*
X154150000Y-79726000D01*
X154150000Y-79710000D01*
X154150000Y-76610000D01*
X155950000Y-76610000D01*
X155950000Y-79710000D01*
G37*
X155681000Y-95992000D02*
X155697000Y-95994000D01*
X155712000Y-95997000D01*
X155728000Y-96000000D01*
X155743000Y-96005000D01*
X155758000Y-96010000D01*
X155772000Y-96016000D01*
X155786000Y-96023000D01*
X155800000Y-96030000D01*
X155813000Y-96038000D01*
X155826000Y-96047000D01*
X155839000Y-96057000D01*
X155851000Y-96067000D01*
X155862000Y-96078000D01*
X155873000Y-96089000D01*
X155883000Y-96101000D01*
X155893000Y-96114000D01*
X155902000Y-96127000D01*
X155910000Y-96140000D01*
X155917000Y-96154000D01*
X155924000Y-96168000D01*
X155930000Y-96182000D01*
X155935000Y-96197000D01*
X155940000Y-96212000D01*
X155943000Y-96228000D01*
X155946000Y-96243000D01*
X155948000Y-96259000D01*
X155950000Y-96274000D01*
X155950000Y-96290000D01*
X155950000Y-99390000D01*
X154150000Y-99390000D01*
X154150000Y-96290000D01*
X154150000Y-96274000D01*
X154152000Y-96259000D01*
X154154000Y-96243000D01*
X154157000Y-96228000D01*
X154160000Y-96212000D01*
X154165000Y-96197000D01*
X154170000Y-96182000D01*
X154176000Y-96168000D01*
X154183000Y-96154000D01*
X154190000Y-96140000D01*
X154198000Y-96127000D01*
X154207000Y-96114000D01*
X154217000Y-96101000D01*
X154227000Y-96089000D01*
X154238000Y-96078000D01*
X154249000Y-96067000D01*
X154261000Y-96057000D01*
X154274000Y-96047000D01*
X154287000Y-96038000D01*
X154300000Y-96030000D01*
X154314000Y-96023000D01*
X154328000Y-96016000D01*
X154342000Y-96010000D01*
X154357000Y-96005000D01*
X154372000Y-96000000D01*
X154388000Y-95997000D01*
X154403000Y-95994000D01*
X154419000Y-95992000D01*
X154434000Y-95990000D01*
X154450000Y-95990000D01*
X155650000Y-95990000D01*
X155666000Y-95990000D01*
X155681000Y-95992000D01*
G36*
X155681000Y-95992000D02*
G01*
X155697000Y-95994000D01*
X155712000Y-95997000D01*
X155728000Y-96000000D01*
X155743000Y-96005000D01*
X155758000Y-96010000D01*
X155772000Y-96016000D01*
X155786000Y-96023000D01*
X155800000Y-96030000D01*
X155813000Y-96038000D01*
X155826000Y-96047000D01*
X155839000Y-96057000D01*
X155851000Y-96067000D01*
X155862000Y-96078000D01*
X155873000Y-96089000D01*
X155883000Y-96101000D01*
X155893000Y-96114000D01*
X155902000Y-96127000D01*
X155910000Y-96140000D01*
X155917000Y-96154000D01*
X155924000Y-96168000D01*
X155930000Y-96182000D01*
X155935000Y-96197000D01*
X155940000Y-96212000D01*
X155943000Y-96228000D01*
X155946000Y-96243000D01*
X155948000Y-96259000D01*
X155950000Y-96274000D01*
X155950000Y-96290000D01*
X155950000Y-99390000D01*
X154150000Y-99390000D01*
X154150000Y-96290000D01*
X154150000Y-96274000D01*
X154152000Y-96259000D01*
X154154000Y-96243000D01*
X154157000Y-96228000D01*
X154160000Y-96212000D01*
X154165000Y-96197000D01*
X154170000Y-96182000D01*
X154176000Y-96168000D01*
X154183000Y-96154000D01*
X154190000Y-96140000D01*
X154198000Y-96127000D01*
X154207000Y-96114000D01*
X154217000Y-96101000D01*
X154227000Y-96089000D01*
X154238000Y-96078000D01*
X154249000Y-96067000D01*
X154261000Y-96057000D01*
X154274000Y-96047000D01*
X154287000Y-96038000D01*
X154300000Y-96030000D01*
X154314000Y-96023000D01*
X154328000Y-96016000D01*
X154342000Y-96010000D01*
X154357000Y-96005000D01*
X154372000Y-96000000D01*
X154388000Y-95997000D01*
X154403000Y-95994000D01*
X154419000Y-95992000D01*
X154434000Y-95990000D01*
X154450000Y-95990000D01*
X155650000Y-95990000D01*
X155666000Y-95990000D01*
X155681000Y-95992000D01*
G37*
X162400000Y-88900000D02*
X159300000Y-88900000D01*
X159284000Y-88900000D01*
X159269000Y-88898000D01*
X159253000Y-88896000D01*
X159238000Y-88893000D01*
X159222000Y-88890000D01*
X159207000Y-88885000D01*
X159192000Y-88880000D01*
X159178000Y-88874000D01*
X159164000Y-88867000D01*
X159150000Y-88860000D01*
X159137000Y-88852000D01*
X159124000Y-88843000D01*
X159111000Y-88833000D01*
X159099000Y-88823000D01*
X159088000Y-88812000D01*
X159077000Y-88801000D01*
X159067000Y-88789000D01*
X159057000Y-88776000D01*
X159048000Y-88763000D01*
X159040000Y-88750000D01*
X159033000Y-88736000D01*
X159026000Y-88722000D01*
X159020000Y-88708000D01*
X159015000Y-88693000D01*
X159010000Y-88678000D01*
X159007000Y-88662000D01*
X159004000Y-88647000D01*
X159002000Y-88631000D01*
X159000000Y-88616000D01*
X159000000Y-88600000D01*
X159000000Y-87400000D01*
X159000000Y-87384000D01*
X159002000Y-87369000D01*
X159004000Y-87353000D01*
X159007000Y-87338000D01*
X159010000Y-87322000D01*
X159015000Y-87307000D01*
X159020000Y-87292000D01*
X159026000Y-87278000D01*
X159033000Y-87264000D01*
X159040000Y-87250000D01*
X159048000Y-87237000D01*
X159057000Y-87224000D01*
X159067000Y-87211000D01*
X159077000Y-87199000D01*
X159088000Y-87188000D01*
X159099000Y-87177000D01*
X159111000Y-87167000D01*
X159124000Y-87157000D01*
X159137000Y-87148000D01*
X159150000Y-87140000D01*
X159164000Y-87133000D01*
X159178000Y-87126000D01*
X159192000Y-87120000D01*
X159207000Y-87115000D01*
X159222000Y-87110000D01*
X159238000Y-87107000D01*
X159253000Y-87104000D01*
X159269000Y-87102000D01*
X159284000Y-87100000D01*
X159300000Y-87100000D01*
X162400000Y-87100000D01*
X162400000Y-88900000D01*
G36*
X162400000Y-88900000D02*
G01*
X159300000Y-88900000D01*
X159284000Y-88900000D01*
X159269000Y-88898000D01*
X159253000Y-88896000D01*
X159238000Y-88893000D01*
X159222000Y-88890000D01*
X159207000Y-88885000D01*
X159192000Y-88880000D01*
X159178000Y-88874000D01*
X159164000Y-88867000D01*
X159150000Y-88860000D01*
X159137000Y-88852000D01*
X159124000Y-88843000D01*
X159111000Y-88833000D01*
X159099000Y-88823000D01*
X159088000Y-88812000D01*
X159077000Y-88801000D01*
X159067000Y-88789000D01*
X159057000Y-88776000D01*
X159048000Y-88763000D01*
X159040000Y-88750000D01*
X159033000Y-88736000D01*
X159026000Y-88722000D01*
X159020000Y-88708000D01*
X159015000Y-88693000D01*
X159010000Y-88678000D01*
X159007000Y-88662000D01*
X159004000Y-88647000D01*
X159002000Y-88631000D01*
X159000000Y-88616000D01*
X159000000Y-88600000D01*
X159000000Y-87400000D01*
X159000000Y-87384000D01*
X159002000Y-87369000D01*
X159004000Y-87353000D01*
X159007000Y-87338000D01*
X159010000Y-87322000D01*
X159015000Y-87307000D01*
X159020000Y-87292000D01*
X159026000Y-87278000D01*
X159033000Y-87264000D01*
X159040000Y-87250000D01*
X159048000Y-87237000D01*
X159057000Y-87224000D01*
X159067000Y-87211000D01*
X159077000Y-87199000D01*
X159088000Y-87188000D01*
X159099000Y-87177000D01*
X159111000Y-87167000D01*
X159124000Y-87157000D01*
X159137000Y-87148000D01*
X159150000Y-87140000D01*
X159164000Y-87133000D01*
X159178000Y-87126000D01*
X159192000Y-87120000D01*
X159207000Y-87115000D01*
X159222000Y-87110000D01*
X159238000Y-87107000D01*
X159253000Y-87104000D01*
X159269000Y-87102000D01*
X159284000Y-87100000D01*
X159300000Y-87100000D01*
X162400000Y-87100000D01*
X162400000Y-88900000D01*
G37*
%TD*%
D11*
%TO.C,Q4*%
X169550000Y-62225000D03*
X171450000Y-62225000D03*
X170500000Y-60350000D03*
%TD*%
D12*
%TO.C,R48*%
X133600000Y-72812500D03*
X133600000Y-70987500D03*
%TD*%
D13*
%TO.C,U3*%
X150850000Y-115445000D03*
X150850000Y-116715000D03*
X150850000Y-117985000D03*
X150850000Y-119255000D03*
X150850000Y-120525000D03*
X150850000Y-121795000D03*
X150850000Y-123065000D03*
X155800000Y-123065000D03*
X155800000Y-121795000D03*
X155800000Y-120525000D03*
X155800000Y-119255000D03*
X155800000Y-117985000D03*
X155800000Y-116715000D03*
X155800000Y-115445000D03*
%TD*%
D12*
%TO.C,R45*%
X157800000Y-72812500D03*
X157800000Y-70987500D03*
%TD*%
D14*
%TO.C,R21*%
X158200000Y-123275000D03*
X158200000Y-125100000D03*
%TD*%
D12*
%TO.C,R15*%
X145200000Y-58300000D03*
X145200000Y-56475000D03*
%TD*%
D15*
%TO.C,Q14*%
X151250000Y-128025000D03*
X149350000Y-128025000D03*
X150300000Y-129900000D03*
%TD*%
D12*
%TO.C,R25*%
X135600000Y-72812500D03*
X135600000Y-70987500D03*
%TD*%
%TO.C,R43*%
X151800000Y-72812500D03*
X151800000Y-70987500D03*
%TD*%
D16*
%TO.C,R22*%
X130487500Y-120300000D03*
X132312500Y-120300000D03*
%TD*%
D17*
%TO.C,J1*%
X126250000Y-136422500D03*
D18*
X123750000Y-136422500D03*
X123750000Y-138422500D03*
X126250000Y-138422500D03*
D19*
X131020000Y-141132500D03*
X118980000Y-141132500D03*
%TD*%
D12*
%TO.C,R52*%
X137600000Y-72812500D03*
X137600000Y-70987500D03*
%TD*%
D20*
%TO.C,D3*%
X123250000Y-63762500D03*
X123250000Y-61887500D03*
%TD*%
D12*
%TO.C,R27*%
X147700000Y-72812500D03*
X147700000Y-70987500D03*
%TD*%
%TO.C,R49*%
X129600000Y-72812500D03*
X129600000Y-70987500D03*
%TD*%
D21*
%TO.C,J4*%
X163000000Y-131000000D03*
%TD*%
D16*
%TO.C,R39*%
X132487500Y-117300000D03*
X134312500Y-117300000D03*
%TD*%
D12*
%TO.C,R17*%
X134800000Y-58300000D03*
X134800000Y-56475000D03*
%TD*%
D15*
%TO.C,Q25*%
X156400000Y-110100000D03*
X154500000Y-110100000D03*
X155450000Y-111975000D03*
%TD*%
D16*
%TO.C,R56*%
X130475000Y-126600000D03*
X132300000Y-126600000D03*
%TD*%
D22*
%TO.C,U10*%
X162825000Y-116275000D03*
X162825000Y-116925000D03*
X162825000Y-117575000D03*
X162825000Y-118225000D03*
X162825000Y-118875000D03*
X162825000Y-119525000D03*
X162825000Y-120175000D03*
X162825000Y-120825000D03*
X162825000Y-121475000D03*
X162825000Y-122125000D03*
X168575000Y-122125000D03*
X168575000Y-121475000D03*
X168575000Y-120825000D03*
X168575000Y-120175000D03*
X168575000Y-119525000D03*
X168575000Y-118875000D03*
X168575000Y-118225000D03*
X168575000Y-117575000D03*
X168575000Y-116925000D03*
X168575000Y-116275000D03*
%TD*%
D11*
%TO.C,Q18*%
X153287500Y-67587500D03*
X155187500Y-67587500D03*
X154237500Y-65712500D03*
%TD*%
D23*
%TO.C,U9*%
X147687500Y-138425000D03*
X147687500Y-139075000D03*
X147687500Y-139725000D03*
X147687500Y-140375000D03*
X151912500Y-140375000D03*
X151912500Y-139725000D03*
X151912500Y-139075000D03*
X151912500Y-138425000D03*
%TD*%
D24*
%TO.C,U2*%
X132050000Y-133137500D03*
X133000000Y-133137500D03*
X133950000Y-133137500D03*
X133950000Y-130862500D03*
X132050000Y-130862500D03*
%TD*%
D25*
%TO.C,D7*%
X118400000Y-119550000D03*
X118400000Y-122850000D03*
%TD*%
D14*
%TO.C,R58*%
X145400000Y-115287500D03*
X145400000Y-117112500D03*
%TD*%
D26*
%TO.C,H4*%
X169600000Y-141000000D03*
X170302944Y-139302944D03*
X170302944Y-142697056D03*
X172000000Y-138600000D03*
D27*
X172000000Y-141000000D03*
D26*
X172000000Y-143400000D03*
X173697056Y-139302944D03*
X173697056Y-142697056D03*
X174400000Y-141000000D03*
%TD*%
D11*
%TO.C,Q24*%
X139087500Y-67600000D03*
X140987500Y-67600000D03*
X140037500Y-65725000D03*
%TD*%
D12*
%TO.C,R23*%
X155800000Y-72812500D03*
X155800000Y-70987500D03*
%TD*%
D28*
%TO.C,C5*%
X160100000Y-119012500D03*
X160100000Y-120912500D03*
%TD*%
D29*
%TO.C,TP1*%
X170600000Y-125600000D03*
%TD*%
D30*
%TO.C,U1*%
X112000000Y-90725000D03*
X112000000Y-85275000D03*
D31*
X115030000Y-90425000D03*
X115030000Y-85575000D03*
D32*
X115000000Y-88000000D03*
X111700000Y-87000000D03*
X111700000Y-89000000D03*
X118500000Y-90500000D03*
X121000000Y-90500000D03*
X123500000Y-90500000D03*
%TD*%
D14*
%TO.C,R1*%
X151900000Y-134800000D03*
X151900000Y-136625000D03*
%TD*%
D33*
%TO.C,D6*%
X114800000Y-131000000D03*
X112000000Y-131000000D03*
%TD*%
D34*
%TO.C,SW3*%
X127597400Y-116461000D03*
D35*
X123000000Y-116461000D03*
X118402600Y-116461000D03*
X127597400Y-109907800D03*
X123000000Y-109907800D03*
X118402600Y-109907800D03*
X127597400Y-105539000D03*
X123000000Y-105539000D03*
X118402600Y-105539000D03*
%TD*%
D11*
%TO.C,Q10*%
X147612500Y-62300000D03*
X149512500Y-62300000D03*
X148562500Y-60425000D03*
%TD*%
D16*
%TO.C,R2*%
X153987500Y-143000000D03*
X155812500Y-143000000D03*
%TD*%
D11*
%TO.C,Q23*%
X149750000Y-67600000D03*
X151650000Y-67600000D03*
X150700000Y-65725000D03*
%TD*%
D16*
%TO.C,R29*%
X154487500Y-106700000D03*
X156312500Y-106700000D03*
%TD*%
D26*
%TO.C,H3*%
X109600000Y-141000000D03*
X110302944Y-139302944D03*
X110302944Y-142697056D03*
X112000000Y-138600000D03*
D27*
X112000000Y-141000000D03*
D26*
X112000000Y-143400000D03*
X113697056Y-139302944D03*
X113697056Y-142697056D03*
X114400000Y-141000000D03*
%TD*%
D14*
%TO.C,R54*%
X141600000Y-136100000D03*
X141600000Y-137925000D03*
%TD*%
D11*
%TO.C,Q11*%
X151212500Y-62300000D03*
X153112500Y-62300000D03*
X152162500Y-60425000D03*
%TD*%
D36*
%TO.C,C2*%
X141700000Y-142850000D03*
X141700000Y-140950000D03*
%TD*%
D12*
%TO.C,R41*%
X160100000Y-113612500D03*
X160100000Y-111787500D03*
%TD*%
%TO.C,R12*%
X162100000Y-67500000D03*
X162100000Y-65675000D03*
%TD*%
%TO.C,R44*%
X139600000Y-72812500D03*
X139600000Y-70987500D03*
%TD*%
%TO.C,R18*%
X148600000Y-58300000D03*
X148600000Y-56475000D03*
%TD*%
D28*
%TO.C,C17*%
X154300000Y-137150000D03*
X154300000Y-139050000D03*
%TD*%
D37*
%TO.C,R42*%
X173012500Y-120825000D03*
X171187500Y-120825000D03*
%TD*%
D11*
%TO.C,Q20*%
X135587500Y-67587500D03*
X137487500Y-67587500D03*
X136537500Y-65712500D03*
%TD*%
D28*
%TO.C,C14*%
X148100000Y-115250000D03*
X148100000Y-117150000D03*
%TD*%
D12*
%TO.C,R20*%
X141700000Y-58300000D03*
X141700000Y-56475000D03*
%TD*%
D11*
%TO.C,Q12*%
X114300000Y-67762500D03*
X116200000Y-67762500D03*
X115250000Y-65887500D03*
%TD*%
%TO.C,Q3*%
X173150000Y-62225000D03*
X175050000Y-62225000D03*
X174100000Y-60350000D03*
%TD*%
D16*
%TO.C,R69*%
X158075000Y-106700000D03*
X159900000Y-106700000D03*
%TD*%
D29*
%TO.C,TP4*%
X125000000Y-122400000D03*
%TD*%
D16*
%TO.C,R33*%
X130475000Y-124500000D03*
X132300000Y-124500000D03*
%TD*%
D29*
%TO.C,TP2*%
X166800000Y-125600000D03*
%TD*%
D14*
%TO.C,R28*%
X115200000Y-56725000D03*
X115200000Y-58550000D03*
%TD*%
D12*
%TO.C,R50*%
X145700000Y-72812500D03*
X145700000Y-70987500D03*
%TD*%
D26*
%TO.C,H1*%
X109600000Y-39000000D03*
X110302944Y-37302944D03*
X110302944Y-40697056D03*
X112000000Y-36600000D03*
D27*
X112000000Y-39000000D03*
D26*
X112000000Y-41400000D03*
X113697056Y-37302944D03*
X113697056Y-40697056D03*
X114400000Y-39000000D03*
%TD*%
D12*
%TO.C,R6*%
X159900000Y-72812500D03*
X159900000Y-70987500D03*
%TD*%
%TO.C,R34*%
X122500000Y-73037500D03*
X122500000Y-71212500D03*
%TD*%
D11*
%TO.C,Q13*%
X140550000Y-62287500D03*
X142450000Y-62287500D03*
X141500000Y-60412500D03*
%TD*%
D14*
%TO.C,R30*%
X123250000Y-56725000D03*
X123250000Y-58550000D03*
%TD*%
D29*
%TO.C,TP5*%
X136700000Y-126600000D03*
%TD*%
D14*
%TO.C,R36*%
X157500000Y-131900000D03*
X157500000Y-133725000D03*
%TD*%
D16*
%TO.C,R66*%
X130487500Y-122400000D03*
X132312500Y-122400000D03*
%TD*%
D12*
%TO.C,R10*%
X173200000Y-67500000D03*
X173200000Y-65675000D03*
%TD*%
D11*
%TO.C,Q15*%
X122300000Y-67825000D03*
X124200000Y-67825000D03*
X123250000Y-65950000D03*
%TD*%
%TO.C,Q16*%
X126300000Y-67762500D03*
X128200000Y-67762500D03*
X127250000Y-65887500D03*
%TD*%
D38*
%TO.C,C3*%
X147350000Y-142300000D03*
X149250000Y-142300000D03*
%TD*%
D14*
%TO.C,R61*%
X135200000Y-137287500D03*
X135200000Y-139112500D03*
%TD*%
D11*
%TO.C,Q19*%
X142662500Y-67612500D03*
X144562500Y-67612500D03*
X143612500Y-65737500D03*
%TD*%
D14*
%TO.C,R31*%
X127250000Y-56725000D03*
X127250000Y-58550000D03*
%TD*%
D16*
%TO.C,R60*%
X137087500Y-138900000D03*
X138912500Y-138900000D03*
%TD*%
%TO.C,R38*%
X157487500Y-136400000D03*
X159312500Y-136400000D03*
%TD*%
%TO.C,R4*%
X111684900Y-105561000D03*
X113509900Y-105561000D03*
%TD*%
D12*
%TO.C,R26*%
X131600000Y-72812500D03*
X131600000Y-70987500D03*
%TD*%
D37*
%TO.C,R8*%
X137625000Y-130900000D03*
X135800000Y-130900000D03*
%TD*%
D12*
%TO.C,R65*%
X149700000Y-136625000D03*
X149700000Y-134800000D03*
%TD*%
%TO.C,R24*%
X143700000Y-72812500D03*
X143700000Y-70987500D03*
%TD*%
D11*
%TO.C,Q7*%
X144087500Y-62300000D03*
X145987500Y-62300000D03*
X145037500Y-60425000D03*
%TD*%
D39*
%TO.C,SW1*%
X135597400Y-107000000D03*
X142097400Y-107000000D03*
X135597400Y-111500000D03*
X142097400Y-111500000D03*
%TD*%
D14*
%TO.C,R55*%
X145500000Y-136587500D03*
X145500000Y-138412500D03*
%TD*%
D12*
%TO.C,R16*%
X138200000Y-58300000D03*
X138200000Y-56475000D03*
%TD*%
D38*
%TO.C,C15*%
X153925000Y-140925000D03*
X155825000Y-140925000D03*
%TD*%
D40*
%TO.C,D2*%
X121850000Y-131000000D03*
X126150000Y-131000000D03*
%TD*%
D16*
%TO.C,R63*%
X165075000Y-100800000D03*
X166900000Y-100800000D03*
%TD*%
D12*
%TO.C,R14*%
X155700000Y-58200000D03*
X155700000Y-56375000D03*
%TD*%
%TO.C,R13*%
X159400000Y-58200000D03*
X159400000Y-56375000D03*
%TD*%
%TO.C,R11*%
X165800000Y-67500000D03*
X165800000Y-65675000D03*
%TD*%
D20*
%TO.C,D1*%
X115250000Y-63825000D03*
X115250000Y-61950000D03*
%TD*%
D16*
%TO.C,R53*%
X160987500Y-136400000D03*
X162812500Y-136400000D03*
%TD*%
D12*
%TO.C,R47*%
X141700000Y-72812500D03*
X141700000Y-70987500D03*
%TD*%
D11*
%TO.C,Q6*%
X154800000Y-62300000D03*
X156700000Y-62300000D03*
X155750000Y-60425000D03*
%TD*%
D26*
%TO.C,H2*%
X169600000Y-39000000D03*
X170302944Y-37302944D03*
X170302944Y-40697056D03*
X172000000Y-36600000D03*
D27*
X172000000Y-39000000D03*
D26*
X172000000Y-41400000D03*
X173697056Y-37302944D03*
X173697056Y-40697056D03*
X174400000Y-39000000D03*
%TD*%
D41*
%TO.C,D5*%
X152300000Y-112250000D03*
X152300000Y-108950000D03*
%TD*%
D12*
%TO.C,R19*%
X152000000Y-58300000D03*
X152000000Y-56475000D03*
%TD*%
D38*
%TO.C,C1*%
X132450000Y-115200000D03*
X134350000Y-115200000D03*
%TD*%
D42*
%TO.C,C4*%
X148650000Y-119800000D03*
X146750000Y-119800000D03*
%TD*%
D12*
%TO.C,R51*%
X149700000Y-72812500D03*
X149700000Y-70987500D03*
%TD*%
D11*
%TO.C,Q2*%
X165850000Y-62262500D03*
X167750000Y-62262500D03*
X166800000Y-60387500D03*
%TD*%
D21*
%TO.C,J3*%
X144000000Y-131000000D03*
%TD*%
D11*
%TO.C,Q22*%
X146200000Y-67600000D03*
X148100000Y-67600000D03*
X147150000Y-65725000D03*
%TD*%
%TO.C,Q1*%
X162150000Y-62262500D03*
X164050000Y-62262500D03*
X163100000Y-60387500D03*
%TD*%
D36*
%TO.C,C6*%
X168750000Y-114687500D03*
X168750000Y-112787500D03*
%TD*%
D43*
%TO.C,U5*%
X135137500Y-119650000D03*
X135137500Y-120300000D03*
X135137500Y-120950000D03*
X135137500Y-121600000D03*
X135137500Y-122250000D03*
X135137500Y-122900000D03*
X135137500Y-123550000D03*
X140862500Y-123550000D03*
X140862500Y-122900000D03*
X140862500Y-122250000D03*
X140862500Y-121600000D03*
X140862500Y-120950000D03*
X140862500Y-120300000D03*
X140862500Y-119650000D03*
%TD*%
D12*
%TO.C,R46*%
X153800000Y-72812500D03*
X153800000Y-70987500D03*
%TD*%
D20*
%TO.C,D4*%
X127250000Y-63825000D03*
X127250000Y-61950000D03*
%TD*%
D44*
%TO.C,F1*%
X118937500Y-131000000D03*
X117062500Y-131000000D03*
%TD*%
D12*
%TO.C,R35*%
X126500000Y-73037500D03*
X126500000Y-71212500D03*
%TD*%
D11*
%TO.C,Q8*%
X136950000Y-62300000D03*
X138850000Y-62300000D03*
X137900000Y-60425000D03*
%TD*%
D12*
%TO.C,R40*%
X160100000Y-117175000D03*
X160100000Y-115350000D03*
%TD*%
D14*
%TO.C,R59*%
X122100000Y-122287500D03*
X122100000Y-124112500D03*
%TD*%
D29*
%TO.C,TP3*%
X147000000Y-109900000D03*
%TD*%
D14*
%TO.C,R7*%
X157500000Y-128343750D03*
X157500000Y-130168750D03*
%TD*%
D11*
%TO.C,Q5*%
X158450000Y-62275000D03*
X160350000Y-62275000D03*
X159400000Y-60400000D03*
%TD*%
%TO.C,Q21*%
X132000000Y-67600000D03*
X133900000Y-67600000D03*
X132950000Y-65725000D03*
%TD*%
D28*
%TO.C,C13*%
X140900000Y-116000000D03*
X140900000Y-117900000D03*
%TD*%
D14*
%TO.C,R57*%
X146500000Y-123187500D03*
X146500000Y-125012500D03*
%TD*%
D11*
%TO.C,Q9*%
X133250000Y-62300000D03*
X135150000Y-62300000D03*
X134200000Y-60425000D03*
%TD*%
D37*
%TO.C,R3*%
X146412500Y-106400000D03*
X144587500Y-106400000D03*
%TD*%
D12*
%TO.C,R9*%
X169500000Y-67500000D03*
X169500000Y-65675000D03*
%TD*%
D37*
%TO.C,R5*%
X114212500Y-101700000D03*
X112387500Y-101700000D03*
%TD*%
D12*
%TO.C,R32*%
X114500000Y-73037500D03*
X114500000Y-71212500D03*
%TD*%
D16*
%TO.C,R62*%
X148187500Y-106400000D03*
X150012500Y-106400000D03*
%TD*%
D37*
%TO.C,R68*%
X159925000Y-108800000D03*
X158100000Y-108800000D03*
%TD*%
D45*
%TO.C,U8*%
X137262500Y-140950000D03*
X137262500Y-141900000D03*
X137262500Y-142850000D03*
X139537500Y-142850000D03*
X139537500Y-141900000D03*
X139537500Y-140950000D03*
%TD*%
D14*
%TO.C,R64*%
X135200000Y-140775000D03*
X135200000Y-142600000D03*
%TD*%
D12*
%TO.C,R37*%
X113400000Y-110612500D03*
X113400000Y-108787500D03*
%TD*%
D11*
%TO.C,Q17*%
X156850000Y-67575000D03*
X158750000Y-67575000D03*
X157800000Y-65700000D03*
%TD*%
D29*
%TO.C,U4*%
X135650000Y-52477500D03*
D46*
X138190000Y-52477500D03*
X140730000Y-52477500D03*
X143270000Y-52477500D03*
X145810000Y-52477500D03*
X148350000Y-52477500D03*
X148350000Y-37237500D03*
X145810000Y-37237500D03*
X143270000Y-37237500D03*
X140730000Y-37237500D03*
X138190000Y-37237500D03*
X135650000Y-37237500D03*
%TD*%
M02*
