M48
; DRILL file {KiCad 8.0.9-8.0.9-0~ubuntu22.04.1} date 2025-08-30T17:36:57-0500
; FORMAT={-:-/ absolute / metric / decimal}
; #@! TF.CreationDate,2025-08-30T17:36:57-05:00
; #@! TF.GenerationSoftware,Kicad,Pcbnew,8.0.9-8.0.9-0~ubuntu22.04.1
; #@! TF.FileFunction,MixedPlating,1,2
FMAT,2
METRIC
; #@! TA.AperFunction,Plated,PTH,ViaDrill
T1C0.400
; #@! TA.AperFunction,Plated,PTH,ComponentDrill
T2C0.500
; #@! TA.AperFunction,Plated,PTH,ComponentDrill
T3C0.700
; #@! TA.AperFunction,Plated,PTH,ComponentDrill
T4C0.920
; #@! TA.AperFunction,Plated,PTH,ComponentDrill
T5C1.000
; #@! TA.AperFunction,Plated,PTH,ComponentDrill
T6C1.100
; #@! TA.AperFunction,Plated,PTH,ComponentDrill
T7C1.753
; #@! TA.AperFunction,Plated,PTH,ComponentDrill
T8C2.330
; #@! TA.AperFunction,Plated,PTH,ComponentDrill
T9C3.200
; #@! TA.AperFunction,Plated,PTH,ComponentDrill
T10C5.400
%
G90
G05
T1
X110.5Y-131.0
X111.0Y-101.7
X111.9Y-92.2
X112.4Y-103.3
X113.4Y-94.9
X116.5Y-85.6
X116.9Y-80.9
X116.9Y-95.0
X117.3Y-64.287
X119.7Y-101.6
X120.2Y-74.6
X121.95Y-84.15
X122.5Y-74.6
X123.8Y-82.7
X123.9Y-124.4
X125.2Y-64.287
X126.5Y-74.5
X127.9Y-74.4
X128.45Y-85.05
X129.2Y-64.287
X129.6Y-95.1
X129.7Y-80.7
X130.6Y-130.8
X131.8Y-63.9
X132.5Y-143.3
X133.6Y-109.5
X133.9Y-65.4
X134.6Y-100.3
X135.1Y-63.9
X135.597Y-105.292
X136.0Y-95.1
X136.2Y-81.5
X136.2Y-113.6
X137.2Y-137.0
X137.3Y-100.5
X137.3Y-109.3
X137.4Y-120.1
X137.4Y-121.675
X137.5Y-65.3
X137.6Y-123.6
X137.7Y-134.2
X138.4Y-122.1
X138.5Y-63.9
X138.6Y-80.275
X138.6Y-116.2
X139.0Y-134.0
X139.2Y-110.2
X139.425Y-114.4
X139.7Y-41.7
X139.7Y-42.9
X139.8Y-100.5
X139.8Y-126.5
X140.8Y-104.8
X140.9Y-114.7
X140.95Y-82.15
X141.0Y-65.4
X141.7Y-139.5
X141.8Y-41.8
X141.8Y-42.9
X142.3Y-80.7
X142.3Y-95.4
X142.4Y-123.3
X142.5Y-63.9
X142.9Y-109.5
X143.2Y-142.8
X143.6Y-120.1
X143.6Y-125.7
X143.8Y-118.3
X143.905Y-140.13
X144.1Y-86.2
X144.6Y-65.4
X144.9Y-121.7
X145.0Y-100.775
X145.0Y-109.2
X145.3Y-143.2
X145.6Y-63.9
X146.3Y-92.3
X146.4Y-121.4
X146.8Y-40.0
X146.8Y-86.1
X148.2Y-65.3
X148.8Y-42.0
X148.9Y-122.8
X149.4Y-63.9
X149.4Y-108.1
X149.4Y-112.2
X150.4Y-109.0
X151.2Y-144.2
X151.5Y-105.0
X151.7Y-65.4
X152.6Y-123.0
X152.8Y-106.9
X153.2Y-63.9
X153.2Y-118.9
X153.4Y-92.3
X153.5Y-113.7
X153.7Y-123.1
X153.9Y-116.0
X154.3Y-45.9
X154.4Y-43.4
X154.4Y-44.6
X154.438Y-135.675
X155.0Y-80.6
X155.1Y-95.3
X155.2Y-65.3
X155.7Y-51.5
X155.7Y-53.5
X155.8Y-40.1
X155.8Y-41.9
X156.6Y-43.4
X156.6Y-44.6
X156.7Y-63.9
X156.7Y-126.5
X158.0Y-118.625
X158.2Y-88.0
X158.2Y-110.7
X158.8Y-65.4
X158.9Y-126.5
X159.213Y-143.0
X159.8Y-51.2
X159.8Y-53.3
X159.8Y-92.6
X160.05Y-122.325
X160.4Y-63.9
X160.7Y-45.9
X162.05Y-94.85
X162.087Y-106.713
X162.1Y-113.8
X162.2Y-111.7
X162.6Y-104.3
X162.6Y-109.5
X163.5Y-113.6
X164.0Y-64.087
X164.112Y-136.4
X164.2Y-97.0
X164.7Y-118.5
X164.9Y-117.0
X165.8Y-50.9
X165.8Y-78.5
X165.8Y-81.5
X166.6Y-118.8
X166.7Y-120.0
X166.9Y-106.6
X167.1Y-113.9
X167.2Y-97.1
X167.8Y-64.087
X168.287Y-100.8
X168.3Y-53.2
X168.4Y-111.2
X169.2Y-109.1
X169.4Y-105.8
X169.8Y-117.0
X172.0Y-63.887
X174.1Y-71.0
T2
X109.6Y-39.0
X109.6Y-141.0
X110.303Y-37.303
X110.303Y-40.697
X110.303Y-139.303
X110.303Y-142.697
X112.0Y-36.6
X112.0Y-41.4
X112.0Y-138.6
X112.0Y-143.4
X113.697Y-37.303
X113.697Y-40.697
X113.697Y-139.303
X113.697Y-142.697
X114.4Y-39.0
X114.4Y-141.0
X169.6Y-39.0
X169.6Y-141.0
X170.303Y-37.303
X170.303Y-40.697
X170.303Y-139.303
X170.303Y-142.697
X172.0Y-36.6
X172.0Y-41.4
X172.0Y-138.6
X172.0Y-143.4
X173.697Y-37.303
X173.697Y-40.697
X173.697Y-139.303
X173.697Y-142.697
X174.4Y-39.0
X174.4Y-141.0
T3
X125.0Y-122.4
X136.7Y-126.6
X147.0Y-109.9
X166.8Y-125.6
X170.6Y-125.6
T4
X123.75Y-136.422
X123.75Y-138.422
X126.25Y-136.422
X126.25Y-138.422
T5
X135.65Y-37.237
X135.65Y-52.477
X138.19Y-37.237
X138.19Y-52.477
X140.73Y-37.237
X140.73Y-52.477
X143.27Y-37.237
X143.27Y-52.477
X145.81Y-37.237
X145.81Y-52.477
X148.35Y-37.237
X148.35Y-52.477
T6
X135.597Y-107.0
X135.597Y-111.5
X142.097Y-107.0
X142.097Y-111.5
T7
X118.403Y-105.539
X118.403Y-109.908
X118.403Y-116.461
X123.0Y-105.539
X123.0Y-109.908
X123.0Y-116.461
X127.597Y-105.539
X127.597Y-109.908
X127.597Y-116.461
T8
X118.98Y-141.132
X131.02Y-141.132
T9
X112.0Y-39.0
X112.0Y-141.0
X172.0Y-39.0
X172.0Y-141.0
T10
X144.0Y-131.0
X163.0Y-131.0
M30
