%TF.GenerationSoftware,KiCad,Pcbnew,7.0.9-7.0.9~ubuntu22.04.1*%
%TF.CreationDate,2024-01-21T01:01:47-07:00*%
%TF.ProjectId,Multimeter,4d756c74-696d-4657-9465-722e6b696361,rev?*%
%TF.SameCoordinates,Original*%
%TF.FileFunction,Soldermask,Top*%
%TF.FilePolarity,Negative*%
%FSLAX46Y46*%
G04 Gerber Fmt 4.6, Leading zero omitted, Abs format (unit mm)*
G04 Created by KiCad (PCBNEW 7.0.9-7.0.9~ubuntu22.04.1) date 2024-01-21 01:01:47*
%MOMM*%
%LPD*%
G01*
G04 APERTURE LIST*
G04 Aperture macros list*
%AMRoundRect*
0 Rectangle with rounded corners*
0 $1 Rounding radius*
0 $2 $3 $4 $5 $6 $7 $8 $9 X,Y pos of 4 corners*
0 Add a 4 corners polygon primitive as box body*
4,1,4,$2,$3,$4,$5,$6,$7,$8,$9,$2,$3,0*
0 Add four circle primitives for the rounded corners*
1,1,$1+$1,$2,$3*
1,1,$1+$1,$4,$5*
1,1,$1+$1,$6,$7*
1,1,$1+$1,$8,$9*
0 Add four rect primitives between the rounded corners*
20,1,$1+$1,$2,$3,$4,$5,0*
20,1,$1+$1,$4,$5,$6,$7,0*
20,1,$1+$1,$6,$7,$8,$9,0*
20,1,$1+$1,$8,$9,$2,$3,0*%
G04 Aperture macros list end*
%ADD10C,0.010000*%
%ADD11R,1.000000X0.400000*%
%ADD12RoundRect,0.150000X0.150000X-0.587500X0.150000X0.587500X-0.150000X0.587500X-0.150000X-0.587500X0*%
%ADD13RoundRect,0.250000X0.450000X-0.350000X0.450000X0.350000X-0.450000X0.350000X-0.450000X-0.350000X0*%
%ADD14RoundRect,0.150000X-0.825000X-0.150000X0.825000X-0.150000X0.825000X0.150000X-0.825000X0.150000X0*%
%ADD15R,1.500000X1.500000*%
%ADD16RoundRect,0.243750X0.243750X0.456250X-0.243750X0.456250X-0.243750X-0.456250X0.243750X-0.456250X0*%
%ADD17RoundRect,0.243750X-0.456250X0.243750X-0.456250X-0.243750X0.456250X-0.243750X0.456250X0.243750X0*%
%ADD18RoundRect,0.243750X0.456250X-0.243750X0.456250X0.243750X-0.456250X0.243750X-0.456250X-0.243750X0*%
%ADD19C,8.104000*%
%ADD20RoundRect,0.250000X-0.350000X-0.450000X0.350000X-0.450000X0.350000X0.450000X-0.350000X0.450000X0*%
%ADD21O,2.004000X1.304000*%
%ADD22O,1.654000X1.254000*%
%ADD23RoundRect,0.552000X-0.300000X0.300000X-0.300000X-0.300000X0.300000X-0.300000X0.300000X0.300000X0*%
%ADD24RoundRect,0.250000X-0.450000X0.350000X-0.450000X-0.350000X0.450000X-0.350000X0.450000X0.350000X0*%
%ADD25RoundRect,0.250000X0.350000X0.450000X-0.350000X0.450000X-0.350000X-0.450000X0.350000X-0.450000X0*%
%ADD26C,0.800000*%
%ADD27C,5.400000*%
%ADD28RoundRect,0.250000X-0.475000X0.250000X-0.475000X-0.250000X0.475000X-0.250000X0.475000X0.250000X0*%
%ADD29R,0.400000X1.350000*%
%ADD30O,1.000000X1.900000*%
%ADD31R,0.875000X1.900000*%
%ADD32O,1.050000X1.250000*%
%ADD33R,2.900000X1.900000*%
%ADD34R,1.000000X1.500000*%
%ADD35RoundRect,0.150000X0.150000X-0.825000X0.150000X0.825000X-0.150000X0.825000X-0.150000X-0.825000X0*%
%ADD36RoundRect,0.250000X0.300000X0.300000X-0.300000X0.300000X-0.300000X-0.300000X0.300000X-0.300000X0*%
%ADD37RoundRect,0.102000X-1.312500X-1.312500X1.312500X-1.312500X1.312500X1.312500X-1.312500X1.312500X0*%
%ADD38C,2.829000*%
%ADD39RoundRect,0.250000X0.250000X0.475000X-0.250000X0.475000X-0.250000X-0.475000X0.250000X-0.475000X0*%
%ADD40RoundRect,0.250000X0.475000X-0.250000X0.475000X0.250000X-0.475000X0.250000X-0.475000X-0.250000X0*%
%ADD41RoundRect,0.150000X0.150000X-0.512500X0.150000X0.512500X-0.150000X0.512500X-0.150000X-0.512500X0*%
%ADD42RoundRect,0.250000X0.337500X0.475000X-0.337500X0.475000X-0.337500X-0.475000X0.337500X-0.475000X0*%
%ADD43C,1.500000*%
G04 APERTURE END LIST*
%TO.C,U1*%
D10*
X173480000Y-80997500D02*
X173479000Y-81044500D01*
X173475000Y-81091500D01*
X173469000Y-81138500D01*
X173460000Y-81184500D01*
X173449000Y-81230500D01*
X173436000Y-81275500D01*
X173420000Y-81320500D01*
X173402000Y-81363500D01*
X173382000Y-81406500D01*
X173359000Y-81447500D01*
X173335000Y-81487500D01*
X173308000Y-81526500D01*
X173279000Y-81563500D01*
X173249000Y-81599500D01*
X173216000Y-81633500D01*
X173182000Y-81666500D01*
X173146000Y-81696500D01*
X173109000Y-81725500D01*
X173070000Y-81752500D01*
X173030000Y-81776500D01*
X172989000Y-81799500D01*
X172946000Y-81819500D01*
X172903000Y-81837500D01*
X172858000Y-81853500D01*
X172813000Y-81866500D01*
X172767000Y-81877500D01*
X172721000Y-81886500D01*
X172674000Y-81892500D01*
X172627000Y-81896500D01*
X172580000Y-81897500D01*
X172533000Y-81896500D01*
X172486000Y-81892500D01*
X172439000Y-81886500D01*
X172393000Y-81877500D01*
X172347000Y-81866500D01*
X172302000Y-81853500D01*
X172257000Y-81837500D01*
X172214000Y-81819500D01*
X172171000Y-81799500D01*
X172130000Y-81776500D01*
X172090000Y-81752500D01*
X172051000Y-81725500D01*
X172014000Y-81696500D01*
X171978000Y-81666500D01*
X171944000Y-81633500D01*
X171911000Y-81599500D01*
X171881000Y-81563500D01*
X171852000Y-81526500D01*
X171825000Y-81487500D01*
X171801000Y-81447500D01*
X171778000Y-81406500D01*
X171758000Y-81363500D01*
X171740000Y-81320500D01*
X171724000Y-81275500D01*
X171711000Y-81230500D01*
X171700000Y-81184500D01*
X171691000Y-81138500D01*
X171685000Y-81091500D01*
X171681000Y-81044500D01*
X171680000Y-80997500D01*
X171680000Y-78497500D01*
X173480000Y-78497500D01*
X173480000Y-80997500D01*
G36*
X173480000Y-80997500D02*
G01*
X173479000Y-81044500D01*
X173475000Y-81091500D01*
X173469000Y-81138500D01*
X173460000Y-81184500D01*
X173449000Y-81230500D01*
X173436000Y-81275500D01*
X173420000Y-81320500D01*
X173402000Y-81363500D01*
X173382000Y-81406500D01*
X173359000Y-81447500D01*
X173335000Y-81487500D01*
X173308000Y-81526500D01*
X173279000Y-81563500D01*
X173249000Y-81599500D01*
X173216000Y-81633500D01*
X173182000Y-81666500D01*
X173146000Y-81696500D01*
X173109000Y-81725500D01*
X173070000Y-81752500D01*
X173030000Y-81776500D01*
X172989000Y-81799500D01*
X172946000Y-81819500D01*
X172903000Y-81837500D01*
X172858000Y-81853500D01*
X172813000Y-81866500D01*
X172767000Y-81877500D01*
X172721000Y-81886500D01*
X172674000Y-81892500D01*
X172627000Y-81896500D01*
X172580000Y-81897500D01*
X172533000Y-81896500D01*
X172486000Y-81892500D01*
X172439000Y-81886500D01*
X172393000Y-81877500D01*
X172347000Y-81866500D01*
X172302000Y-81853500D01*
X172257000Y-81837500D01*
X172214000Y-81819500D01*
X172171000Y-81799500D01*
X172130000Y-81776500D01*
X172090000Y-81752500D01*
X172051000Y-81725500D01*
X172014000Y-81696500D01*
X171978000Y-81666500D01*
X171944000Y-81633500D01*
X171911000Y-81599500D01*
X171881000Y-81563500D01*
X171852000Y-81526500D01*
X171825000Y-81487500D01*
X171801000Y-81447500D01*
X171778000Y-81406500D01*
X171758000Y-81363500D01*
X171740000Y-81320500D01*
X171724000Y-81275500D01*
X171711000Y-81230500D01*
X171700000Y-81184500D01*
X171691000Y-81138500D01*
X171685000Y-81091500D01*
X171681000Y-81044500D01*
X171680000Y-80997500D01*
X171680000Y-78497500D01*
X173480000Y-78497500D01*
X173480000Y-80997500D01*
G37*
X170940000Y-80997500D02*
X170939000Y-81044500D01*
X170935000Y-81091500D01*
X170929000Y-81138500D01*
X170920000Y-81184500D01*
X170909000Y-81230500D01*
X170896000Y-81275500D01*
X170880000Y-81320500D01*
X170862000Y-81363500D01*
X170842000Y-81406500D01*
X170819000Y-81447500D01*
X170795000Y-81487500D01*
X170768000Y-81526500D01*
X170739000Y-81563500D01*
X170709000Y-81599500D01*
X170676000Y-81633500D01*
X170642000Y-81666500D01*
X170606000Y-81696500D01*
X170569000Y-81725500D01*
X170530000Y-81752500D01*
X170490000Y-81776500D01*
X170449000Y-81799500D01*
X170406000Y-81819500D01*
X170363000Y-81837500D01*
X170318000Y-81853500D01*
X170273000Y-81866500D01*
X170227000Y-81877500D01*
X170181000Y-81886500D01*
X170134000Y-81892500D01*
X170087000Y-81896500D01*
X170040000Y-81897500D01*
X169993000Y-81896500D01*
X169946000Y-81892500D01*
X169899000Y-81886500D01*
X169853000Y-81877500D01*
X169807000Y-81866500D01*
X169762000Y-81853500D01*
X169717000Y-81837500D01*
X169674000Y-81819500D01*
X169631000Y-81799500D01*
X169590000Y-81776500D01*
X169550000Y-81752500D01*
X169511000Y-81725500D01*
X169474000Y-81696500D01*
X169438000Y-81666500D01*
X169404000Y-81633500D01*
X169371000Y-81599500D01*
X169341000Y-81563500D01*
X169312000Y-81526500D01*
X169285000Y-81487500D01*
X169261000Y-81447500D01*
X169238000Y-81406500D01*
X169218000Y-81363500D01*
X169200000Y-81320500D01*
X169184000Y-81275500D01*
X169171000Y-81230500D01*
X169160000Y-81184500D01*
X169151000Y-81138500D01*
X169145000Y-81091500D01*
X169141000Y-81044500D01*
X169140000Y-80997500D01*
X169140000Y-78497500D01*
X170940000Y-78497500D01*
X170940000Y-80997500D01*
G36*
X170940000Y-80997500D02*
G01*
X170939000Y-81044500D01*
X170935000Y-81091500D01*
X170929000Y-81138500D01*
X170920000Y-81184500D01*
X170909000Y-81230500D01*
X170896000Y-81275500D01*
X170880000Y-81320500D01*
X170862000Y-81363500D01*
X170842000Y-81406500D01*
X170819000Y-81447500D01*
X170795000Y-81487500D01*
X170768000Y-81526500D01*
X170739000Y-81563500D01*
X170709000Y-81599500D01*
X170676000Y-81633500D01*
X170642000Y-81666500D01*
X170606000Y-81696500D01*
X170569000Y-81725500D01*
X170530000Y-81752500D01*
X170490000Y-81776500D01*
X170449000Y-81799500D01*
X170406000Y-81819500D01*
X170363000Y-81837500D01*
X170318000Y-81853500D01*
X170273000Y-81866500D01*
X170227000Y-81877500D01*
X170181000Y-81886500D01*
X170134000Y-81892500D01*
X170087000Y-81896500D01*
X170040000Y-81897500D01*
X169993000Y-81896500D01*
X169946000Y-81892500D01*
X169899000Y-81886500D01*
X169853000Y-81877500D01*
X169807000Y-81866500D01*
X169762000Y-81853500D01*
X169717000Y-81837500D01*
X169674000Y-81819500D01*
X169631000Y-81799500D01*
X169590000Y-81776500D01*
X169550000Y-81752500D01*
X169511000Y-81725500D01*
X169474000Y-81696500D01*
X169438000Y-81666500D01*
X169404000Y-81633500D01*
X169371000Y-81599500D01*
X169341000Y-81563500D01*
X169312000Y-81526500D01*
X169285000Y-81487500D01*
X169261000Y-81447500D01*
X169238000Y-81406500D01*
X169218000Y-81363500D01*
X169200000Y-81320500D01*
X169184000Y-81275500D01*
X169171000Y-81230500D01*
X169160000Y-81184500D01*
X169151000Y-81138500D01*
X169145000Y-81091500D01*
X169141000Y-81044500D01*
X169140000Y-80997500D01*
X169140000Y-78497500D01*
X170940000Y-78497500D01*
X170940000Y-80997500D01*
G37*
X165860000Y-80997500D02*
X165859000Y-81044500D01*
X165855000Y-81091500D01*
X165849000Y-81138500D01*
X165840000Y-81184500D01*
X165829000Y-81230500D01*
X165816000Y-81275500D01*
X165800000Y-81320500D01*
X165782000Y-81363500D01*
X165762000Y-81406500D01*
X165739000Y-81447500D01*
X165715000Y-81487500D01*
X165688000Y-81526500D01*
X165659000Y-81563500D01*
X165629000Y-81599500D01*
X165596000Y-81633500D01*
X165562000Y-81666500D01*
X165526000Y-81696500D01*
X165489000Y-81725500D01*
X165450000Y-81752500D01*
X165410000Y-81776500D01*
X165369000Y-81799500D01*
X165326000Y-81819500D01*
X165283000Y-81837500D01*
X165238000Y-81853500D01*
X165193000Y-81866500D01*
X165147000Y-81877500D01*
X165101000Y-81886500D01*
X165054000Y-81892500D01*
X165007000Y-81896500D01*
X164960000Y-81897500D01*
X164913000Y-81896500D01*
X164866000Y-81892500D01*
X164819000Y-81886500D01*
X164773000Y-81877500D01*
X164727000Y-81866500D01*
X164682000Y-81853500D01*
X164637000Y-81837500D01*
X164594000Y-81819500D01*
X164551000Y-81799500D01*
X164510000Y-81776500D01*
X164470000Y-81752500D01*
X164431000Y-81725500D01*
X164394000Y-81696500D01*
X164358000Y-81666500D01*
X164324000Y-81633500D01*
X164291000Y-81599500D01*
X164261000Y-81563500D01*
X164232000Y-81526500D01*
X164205000Y-81487500D01*
X164181000Y-81447500D01*
X164158000Y-81406500D01*
X164138000Y-81363500D01*
X164120000Y-81320500D01*
X164104000Y-81275500D01*
X164091000Y-81230500D01*
X164080000Y-81184500D01*
X164071000Y-81138500D01*
X164065000Y-81091500D01*
X164061000Y-81044500D01*
X164060000Y-80997500D01*
X164060000Y-78497500D01*
X165860000Y-78497500D01*
X165860000Y-80997500D01*
G36*
X165860000Y-80997500D02*
G01*
X165859000Y-81044500D01*
X165855000Y-81091500D01*
X165849000Y-81138500D01*
X165840000Y-81184500D01*
X165829000Y-81230500D01*
X165816000Y-81275500D01*
X165800000Y-81320500D01*
X165782000Y-81363500D01*
X165762000Y-81406500D01*
X165739000Y-81447500D01*
X165715000Y-81487500D01*
X165688000Y-81526500D01*
X165659000Y-81563500D01*
X165629000Y-81599500D01*
X165596000Y-81633500D01*
X165562000Y-81666500D01*
X165526000Y-81696500D01*
X165489000Y-81725500D01*
X165450000Y-81752500D01*
X165410000Y-81776500D01*
X165369000Y-81799500D01*
X165326000Y-81819500D01*
X165283000Y-81837500D01*
X165238000Y-81853500D01*
X165193000Y-81866500D01*
X165147000Y-81877500D01*
X165101000Y-81886500D01*
X165054000Y-81892500D01*
X165007000Y-81896500D01*
X164960000Y-81897500D01*
X164913000Y-81896500D01*
X164866000Y-81892500D01*
X164819000Y-81886500D01*
X164773000Y-81877500D01*
X164727000Y-81866500D01*
X164682000Y-81853500D01*
X164637000Y-81837500D01*
X164594000Y-81819500D01*
X164551000Y-81799500D01*
X164510000Y-81776500D01*
X164470000Y-81752500D01*
X164431000Y-81725500D01*
X164394000Y-81696500D01*
X164358000Y-81666500D01*
X164324000Y-81633500D01*
X164291000Y-81599500D01*
X164261000Y-81563500D01*
X164232000Y-81526500D01*
X164205000Y-81487500D01*
X164181000Y-81447500D01*
X164158000Y-81406500D01*
X164138000Y-81363500D01*
X164120000Y-81320500D01*
X164104000Y-81275500D01*
X164091000Y-81230500D01*
X164080000Y-81184500D01*
X164071000Y-81138500D01*
X164065000Y-81091500D01*
X164061000Y-81044500D01*
X164060000Y-80997500D01*
X164060000Y-78497500D01*
X165860000Y-78497500D01*
X165860000Y-80997500D01*
G37*
X163320000Y-80997500D02*
X163319000Y-81044500D01*
X163315000Y-81091500D01*
X163309000Y-81138500D01*
X163300000Y-81184500D01*
X163289000Y-81230500D01*
X163276000Y-81275500D01*
X163260000Y-81320500D01*
X163242000Y-81363500D01*
X163222000Y-81406500D01*
X163199000Y-81447500D01*
X163175000Y-81487500D01*
X163148000Y-81526500D01*
X163119000Y-81563500D01*
X163089000Y-81599500D01*
X163056000Y-81633500D01*
X163022000Y-81666500D01*
X162986000Y-81696500D01*
X162949000Y-81725500D01*
X162910000Y-81752500D01*
X162870000Y-81776500D01*
X162829000Y-81799500D01*
X162786000Y-81819500D01*
X162743000Y-81837500D01*
X162698000Y-81853500D01*
X162653000Y-81866500D01*
X162607000Y-81877500D01*
X162561000Y-81886500D01*
X162514000Y-81892500D01*
X162467000Y-81896500D01*
X162420000Y-81897500D01*
X162373000Y-81896500D01*
X162326000Y-81892500D01*
X162279000Y-81886500D01*
X162233000Y-81877500D01*
X162187000Y-81866500D01*
X162142000Y-81853500D01*
X162097000Y-81837500D01*
X162054000Y-81819500D01*
X162011000Y-81799500D01*
X161970000Y-81776500D01*
X161930000Y-81752500D01*
X161891000Y-81725500D01*
X161854000Y-81696500D01*
X161818000Y-81666500D01*
X161784000Y-81633500D01*
X161751000Y-81599500D01*
X161721000Y-81563500D01*
X161692000Y-81526500D01*
X161665000Y-81487500D01*
X161641000Y-81447500D01*
X161618000Y-81406500D01*
X161598000Y-81363500D01*
X161580000Y-81320500D01*
X161564000Y-81275500D01*
X161551000Y-81230500D01*
X161540000Y-81184500D01*
X161531000Y-81138500D01*
X161525000Y-81091500D01*
X161521000Y-81044500D01*
X161520000Y-80997500D01*
X161520000Y-78497500D01*
X163320000Y-78497500D01*
X163320000Y-80997500D01*
G36*
X163320000Y-80997500D02*
G01*
X163319000Y-81044500D01*
X163315000Y-81091500D01*
X163309000Y-81138500D01*
X163300000Y-81184500D01*
X163289000Y-81230500D01*
X163276000Y-81275500D01*
X163260000Y-81320500D01*
X163242000Y-81363500D01*
X163222000Y-81406500D01*
X163199000Y-81447500D01*
X163175000Y-81487500D01*
X163148000Y-81526500D01*
X163119000Y-81563500D01*
X163089000Y-81599500D01*
X163056000Y-81633500D01*
X163022000Y-81666500D01*
X162986000Y-81696500D01*
X162949000Y-81725500D01*
X162910000Y-81752500D01*
X162870000Y-81776500D01*
X162829000Y-81799500D01*
X162786000Y-81819500D01*
X162743000Y-81837500D01*
X162698000Y-81853500D01*
X162653000Y-81866500D01*
X162607000Y-81877500D01*
X162561000Y-81886500D01*
X162514000Y-81892500D01*
X162467000Y-81896500D01*
X162420000Y-81897500D01*
X162373000Y-81896500D01*
X162326000Y-81892500D01*
X162279000Y-81886500D01*
X162233000Y-81877500D01*
X162187000Y-81866500D01*
X162142000Y-81853500D01*
X162097000Y-81837500D01*
X162054000Y-81819500D01*
X162011000Y-81799500D01*
X161970000Y-81776500D01*
X161930000Y-81752500D01*
X161891000Y-81725500D01*
X161854000Y-81696500D01*
X161818000Y-81666500D01*
X161784000Y-81633500D01*
X161751000Y-81599500D01*
X161721000Y-81563500D01*
X161692000Y-81526500D01*
X161665000Y-81487500D01*
X161641000Y-81447500D01*
X161618000Y-81406500D01*
X161598000Y-81363500D01*
X161580000Y-81320500D01*
X161564000Y-81275500D01*
X161551000Y-81230500D01*
X161540000Y-81184500D01*
X161531000Y-81138500D01*
X161525000Y-81091500D01*
X161521000Y-81044500D01*
X161520000Y-80997500D01*
X161520000Y-78497500D01*
X163320000Y-78497500D01*
X163320000Y-80997500D01*
G37*
X160780000Y-80997500D02*
X160779000Y-81044500D01*
X160775000Y-81091500D01*
X160769000Y-81138500D01*
X160760000Y-81184500D01*
X160749000Y-81230500D01*
X160736000Y-81275500D01*
X160720000Y-81320500D01*
X160702000Y-81363500D01*
X160682000Y-81406500D01*
X160659000Y-81447500D01*
X160635000Y-81487500D01*
X160608000Y-81526500D01*
X160579000Y-81563500D01*
X160549000Y-81599500D01*
X160516000Y-81633500D01*
X160482000Y-81666500D01*
X160446000Y-81696500D01*
X160409000Y-81725500D01*
X160370000Y-81752500D01*
X160330000Y-81776500D01*
X160289000Y-81799500D01*
X160246000Y-81819500D01*
X160203000Y-81837500D01*
X160158000Y-81853500D01*
X160113000Y-81866500D01*
X160067000Y-81877500D01*
X160021000Y-81886500D01*
X159974000Y-81892500D01*
X159927000Y-81896500D01*
X159880000Y-81897500D01*
X159833000Y-81896500D01*
X159786000Y-81892500D01*
X159739000Y-81886500D01*
X159693000Y-81877500D01*
X159647000Y-81866500D01*
X159602000Y-81853500D01*
X159557000Y-81837500D01*
X159514000Y-81819500D01*
X159471000Y-81799500D01*
X159430000Y-81776500D01*
X159390000Y-81752500D01*
X159351000Y-81725500D01*
X159314000Y-81696500D01*
X159278000Y-81666500D01*
X159244000Y-81633500D01*
X159211000Y-81599500D01*
X159181000Y-81563500D01*
X159152000Y-81526500D01*
X159125000Y-81487500D01*
X159101000Y-81447500D01*
X159078000Y-81406500D01*
X159058000Y-81363500D01*
X159040000Y-81320500D01*
X159024000Y-81275500D01*
X159011000Y-81230500D01*
X159000000Y-81184500D01*
X158991000Y-81138500D01*
X158985000Y-81091500D01*
X158981000Y-81044500D01*
X158980000Y-80997500D01*
X158980000Y-78497500D01*
X160780000Y-78497500D01*
X160780000Y-80997500D01*
G36*
X160780000Y-80997500D02*
G01*
X160779000Y-81044500D01*
X160775000Y-81091500D01*
X160769000Y-81138500D01*
X160760000Y-81184500D01*
X160749000Y-81230500D01*
X160736000Y-81275500D01*
X160720000Y-81320500D01*
X160702000Y-81363500D01*
X160682000Y-81406500D01*
X160659000Y-81447500D01*
X160635000Y-81487500D01*
X160608000Y-81526500D01*
X160579000Y-81563500D01*
X160549000Y-81599500D01*
X160516000Y-81633500D01*
X160482000Y-81666500D01*
X160446000Y-81696500D01*
X160409000Y-81725500D01*
X160370000Y-81752500D01*
X160330000Y-81776500D01*
X160289000Y-81799500D01*
X160246000Y-81819500D01*
X160203000Y-81837500D01*
X160158000Y-81853500D01*
X160113000Y-81866500D01*
X160067000Y-81877500D01*
X160021000Y-81886500D01*
X159974000Y-81892500D01*
X159927000Y-81896500D01*
X159880000Y-81897500D01*
X159833000Y-81896500D01*
X159786000Y-81892500D01*
X159739000Y-81886500D01*
X159693000Y-81877500D01*
X159647000Y-81866500D01*
X159602000Y-81853500D01*
X159557000Y-81837500D01*
X159514000Y-81819500D01*
X159471000Y-81799500D01*
X159430000Y-81776500D01*
X159390000Y-81752500D01*
X159351000Y-81725500D01*
X159314000Y-81696500D01*
X159278000Y-81666500D01*
X159244000Y-81633500D01*
X159211000Y-81599500D01*
X159181000Y-81563500D01*
X159152000Y-81526500D01*
X159125000Y-81487500D01*
X159101000Y-81447500D01*
X159078000Y-81406500D01*
X159058000Y-81363500D01*
X159040000Y-81320500D01*
X159024000Y-81275500D01*
X159011000Y-81230500D01*
X159000000Y-81184500D01*
X158991000Y-81138500D01*
X158985000Y-81091500D01*
X158981000Y-81044500D01*
X158980000Y-80997500D01*
X158980000Y-78497500D01*
X160780000Y-78497500D01*
X160780000Y-80997500D01*
G37*
X158240000Y-80997500D02*
X158239000Y-81044500D01*
X158235000Y-81091500D01*
X158229000Y-81138500D01*
X158220000Y-81184500D01*
X158209000Y-81230500D01*
X158196000Y-81275500D01*
X158180000Y-81320500D01*
X158162000Y-81363500D01*
X158142000Y-81406500D01*
X158119000Y-81447500D01*
X158095000Y-81487500D01*
X158068000Y-81526500D01*
X158039000Y-81563500D01*
X158009000Y-81599500D01*
X157976000Y-81633500D01*
X157942000Y-81666500D01*
X157906000Y-81696500D01*
X157869000Y-81725500D01*
X157830000Y-81752500D01*
X157790000Y-81776500D01*
X157749000Y-81799500D01*
X157706000Y-81819500D01*
X157663000Y-81837500D01*
X157618000Y-81853500D01*
X157573000Y-81866500D01*
X157527000Y-81877500D01*
X157481000Y-81886500D01*
X157434000Y-81892500D01*
X157387000Y-81896500D01*
X157340000Y-81897500D01*
X157293000Y-81896500D01*
X157246000Y-81892500D01*
X157199000Y-81886500D01*
X157153000Y-81877500D01*
X157107000Y-81866500D01*
X157062000Y-81853500D01*
X157017000Y-81837500D01*
X156974000Y-81819500D01*
X156931000Y-81799500D01*
X156890000Y-81776500D01*
X156850000Y-81752500D01*
X156811000Y-81725500D01*
X156774000Y-81696500D01*
X156738000Y-81666500D01*
X156704000Y-81633500D01*
X156671000Y-81599500D01*
X156641000Y-81563500D01*
X156612000Y-81526500D01*
X156585000Y-81487500D01*
X156561000Y-81447500D01*
X156538000Y-81406500D01*
X156518000Y-81363500D01*
X156500000Y-81320500D01*
X156484000Y-81275500D01*
X156471000Y-81230500D01*
X156460000Y-81184500D01*
X156451000Y-81138500D01*
X156445000Y-81091500D01*
X156441000Y-81044500D01*
X156440000Y-80997500D01*
X156440000Y-78497500D01*
X158240000Y-78497500D01*
X158240000Y-80997500D01*
G36*
X158240000Y-80997500D02*
G01*
X158239000Y-81044500D01*
X158235000Y-81091500D01*
X158229000Y-81138500D01*
X158220000Y-81184500D01*
X158209000Y-81230500D01*
X158196000Y-81275500D01*
X158180000Y-81320500D01*
X158162000Y-81363500D01*
X158142000Y-81406500D01*
X158119000Y-81447500D01*
X158095000Y-81487500D01*
X158068000Y-81526500D01*
X158039000Y-81563500D01*
X158009000Y-81599500D01*
X157976000Y-81633500D01*
X157942000Y-81666500D01*
X157906000Y-81696500D01*
X157869000Y-81725500D01*
X157830000Y-81752500D01*
X157790000Y-81776500D01*
X157749000Y-81799500D01*
X157706000Y-81819500D01*
X157663000Y-81837500D01*
X157618000Y-81853500D01*
X157573000Y-81866500D01*
X157527000Y-81877500D01*
X157481000Y-81886500D01*
X157434000Y-81892500D01*
X157387000Y-81896500D01*
X157340000Y-81897500D01*
X157293000Y-81896500D01*
X157246000Y-81892500D01*
X157199000Y-81886500D01*
X157153000Y-81877500D01*
X157107000Y-81866500D01*
X157062000Y-81853500D01*
X157017000Y-81837500D01*
X156974000Y-81819500D01*
X156931000Y-81799500D01*
X156890000Y-81776500D01*
X156850000Y-81752500D01*
X156811000Y-81725500D01*
X156774000Y-81696500D01*
X156738000Y-81666500D01*
X156704000Y-81633500D01*
X156671000Y-81599500D01*
X156641000Y-81563500D01*
X156612000Y-81526500D01*
X156585000Y-81487500D01*
X156561000Y-81447500D01*
X156538000Y-81406500D01*
X156518000Y-81363500D01*
X156500000Y-81320500D01*
X156484000Y-81275500D01*
X156471000Y-81230500D01*
X156460000Y-81184500D01*
X156451000Y-81138500D01*
X156445000Y-81091500D01*
X156441000Y-81044500D01*
X156440000Y-80997500D01*
X156440000Y-78497500D01*
X158240000Y-78497500D01*
X158240000Y-80997500D01*
G37*
X153160000Y-80997500D02*
X153159000Y-81044500D01*
X153155000Y-81091500D01*
X153149000Y-81138500D01*
X153140000Y-81184500D01*
X153129000Y-81230500D01*
X153116000Y-81275500D01*
X153100000Y-81320500D01*
X153082000Y-81363500D01*
X153062000Y-81406500D01*
X153039000Y-81447500D01*
X153015000Y-81487500D01*
X152988000Y-81526500D01*
X152959000Y-81563500D01*
X152929000Y-81599500D01*
X152896000Y-81633500D01*
X152862000Y-81666500D01*
X152826000Y-81696500D01*
X152789000Y-81725500D01*
X152750000Y-81752500D01*
X152710000Y-81776500D01*
X152669000Y-81799500D01*
X152626000Y-81819500D01*
X152583000Y-81837500D01*
X152538000Y-81853500D01*
X152493000Y-81866500D01*
X152447000Y-81877500D01*
X152401000Y-81886500D01*
X152354000Y-81892500D01*
X152307000Y-81896500D01*
X152260000Y-81897500D01*
X152213000Y-81896500D01*
X152166000Y-81892500D01*
X152119000Y-81886500D01*
X152073000Y-81877500D01*
X152027000Y-81866500D01*
X151982000Y-81853500D01*
X151937000Y-81837500D01*
X151894000Y-81819500D01*
X151851000Y-81799500D01*
X151810000Y-81776500D01*
X151770000Y-81752500D01*
X151731000Y-81725500D01*
X151694000Y-81696500D01*
X151658000Y-81666500D01*
X151624000Y-81633500D01*
X151591000Y-81599500D01*
X151561000Y-81563500D01*
X151532000Y-81526500D01*
X151505000Y-81487500D01*
X151481000Y-81447500D01*
X151458000Y-81406500D01*
X151438000Y-81363500D01*
X151420000Y-81320500D01*
X151404000Y-81275500D01*
X151391000Y-81230500D01*
X151380000Y-81184500D01*
X151371000Y-81138500D01*
X151365000Y-81091500D01*
X151361000Y-81044500D01*
X151360000Y-80997500D01*
X151360000Y-78497500D01*
X153160000Y-78497500D01*
X153160000Y-80997500D01*
G36*
X153160000Y-80997500D02*
G01*
X153159000Y-81044500D01*
X153155000Y-81091500D01*
X153149000Y-81138500D01*
X153140000Y-81184500D01*
X153129000Y-81230500D01*
X153116000Y-81275500D01*
X153100000Y-81320500D01*
X153082000Y-81363500D01*
X153062000Y-81406500D01*
X153039000Y-81447500D01*
X153015000Y-81487500D01*
X152988000Y-81526500D01*
X152959000Y-81563500D01*
X152929000Y-81599500D01*
X152896000Y-81633500D01*
X152862000Y-81666500D01*
X152826000Y-81696500D01*
X152789000Y-81725500D01*
X152750000Y-81752500D01*
X152710000Y-81776500D01*
X152669000Y-81799500D01*
X152626000Y-81819500D01*
X152583000Y-81837500D01*
X152538000Y-81853500D01*
X152493000Y-81866500D01*
X152447000Y-81877500D01*
X152401000Y-81886500D01*
X152354000Y-81892500D01*
X152307000Y-81896500D01*
X152260000Y-81897500D01*
X152213000Y-81896500D01*
X152166000Y-81892500D01*
X152119000Y-81886500D01*
X152073000Y-81877500D01*
X152027000Y-81866500D01*
X151982000Y-81853500D01*
X151937000Y-81837500D01*
X151894000Y-81819500D01*
X151851000Y-81799500D01*
X151810000Y-81776500D01*
X151770000Y-81752500D01*
X151731000Y-81725500D01*
X151694000Y-81696500D01*
X151658000Y-81666500D01*
X151624000Y-81633500D01*
X151591000Y-81599500D01*
X151561000Y-81563500D01*
X151532000Y-81526500D01*
X151505000Y-81487500D01*
X151481000Y-81447500D01*
X151458000Y-81406500D01*
X151438000Y-81363500D01*
X151420000Y-81320500D01*
X151404000Y-81275500D01*
X151391000Y-81230500D01*
X151380000Y-81184500D01*
X151371000Y-81138500D01*
X151365000Y-81091500D01*
X151361000Y-81044500D01*
X151360000Y-80997500D01*
X151360000Y-78497500D01*
X153160000Y-78497500D01*
X153160000Y-80997500D01*
G37*
X150620000Y-80997500D02*
X150619000Y-81044500D01*
X150615000Y-81091500D01*
X150609000Y-81138500D01*
X150600000Y-81184500D01*
X150589000Y-81230500D01*
X150576000Y-81275500D01*
X150560000Y-81320500D01*
X150542000Y-81363500D01*
X150522000Y-81406500D01*
X150499000Y-81447500D01*
X150475000Y-81487500D01*
X150448000Y-81526500D01*
X150419000Y-81563500D01*
X150389000Y-81599500D01*
X150356000Y-81633500D01*
X150322000Y-81666500D01*
X150286000Y-81696500D01*
X150249000Y-81725500D01*
X150210000Y-81752500D01*
X150170000Y-81776500D01*
X150129000Y-81799500D01*
X150086000Y-81819500D01*
X150043000Y-81837500D01*
X149998000Y-81853500D01*
X149953000Y-81866500D01*
X149907000Y-81877500D01*
X149861000Y-81886500D01*
X149814000Y-81892500D01*
X149767000Y-81896500D01*
X149720000Y-81897500D01*
X149673000Y-81896500D01*
X149626000Y-81892500D01*
X149579000Y-81886500D01*
X149533000Y-81877500D01*
X149487000Y-81866500D01*
X149442000Y-81853500D01*
X149397000Y-81837500D01*
X149354000Y-81819500D01*
X149311000Y-81799500D01*
X149270000Y-81776500D01*
X149230000Y-81752500D01*
X149191000Y-81725500D01*
X149154000Y-81696500D01*
X149118000Y-81666500D01*
X149084000Y-81633500D01*
X149051000Y-81599500D01*
X149021000Y-81563500D01*
X148992000Y-81526500D01*
X148965000Y-81487500D01*
X148941000Y-81447500D01*
X148918000Y-81406500D01*
X148898000Y-81363500D01*
X148880000Y-81320500D01*
X148864000Y-81275500D01*
X148851000Y-81230500D01*
X148840000Y-81184500D01*
X148831000Y-81138500D01*
X148825000Y-81091500D01*
X148821000Y-81044500D01*
X148820000Y-80997500D01*
X148820000Y-78497500D01*
X150620000Y-78497500D01*
X150620000Y-80997500D01*
G36*
X150620000Y-80997500D02*
G01*
X150619000Y-81044500D01*
X150615000Y-81091500D01*
X150609000Y-81138500D01*
X150600000Y-81184500D01*
X150589000Y-81230500D01*
X150576000Y-81275500D01*
X150560000Y-81320500D01*
X150542000Y-81363500D01*
X150522000Y-81406500D01*
X150499000Y-81447500D01*
X150475000Y-81487500D01*
X150448000Y-81526500D01*
X150419000Y-81563500D01*
X150389000Y-81599500D01*
X150356000Y-81633500D01*
X150322000Y-81666500D01*
X150286000Y-81696500D01*
X150249000Y-81725500D01*
X150210000Y-81752500D01*
X150170000Y-81776500D01*
X150129000Y-81799500D01*
X150086000Y-81819500D01*
X150043000Y-81837500D01*
X149998000Y-81853500D01*
X149953000Y-81866500D01*
X149907000Y-81877500D01*
X149861000Y-81886500D01*
X149814000Y-81892500D01*
X149767000Y-81896500D01*
X149720000Y-81897500D01*
X149673000Y-81896500D01*
X149626000Y-81892500D01*
X149579000Y-81886500D01*
X149533000Y-81877500D01*
X149487000Y-81866500D01*
X149442000Y-81853500D01*
X149397000Y-81837500D01*
X149354000Y-81819500D01*
X149311000Y-81799500D01*
X149270000Y-81776500D01*
X149230000Y-81752500D01*
X149191000Y-81725500D01*
X149154000Y-81696500D01*
X149118000Y-81666500D01*
X149084000Y-81633500D01*
X149051000Y-81599500D01*
X149021000Y-81563500D01*
X148992000Y-81526500D01*
X148965000Y-81487500D01*
X148941000Y-81447500D01*
X148918000Y-81406500D01*
X148898000Y-81363500D01*
X148880000Y-81320500D01*
X148864000Y-81275500D01*
X148851000Y-81230500D01*
X148840000Y-81184500D01*
X148831000Y-81138500D01*
X148825000Y-81091500D01*
X148821000Y-81044500D01*
X148820000Y-80997500D01*
X148820000Y-78497500D01*
X150620000Y-78497500D01*
X150620000Y-80997500D01*
G37*
X148080000Y-80997500D02*
X148079000Y-81044500D01*
X148075000Y-81091500D01*
X148069000Y-81138500D01*
X148060000Y-81184500D01*
X148049000Y-81230500D01*
X148036000Y-81275500D01*
X148020000Y-81320500D01*
X148002000Y-81363500D01*
X147982000Y-81406500D01*
X147959000Y-81447500D01*
X147935000Y-81487500D01*
X147908000Y-81526500D01*
X147879000Y-81563500D01*
X147849000Y-81599500D01*
X147816000Y-81633500D01*
X147782000Y-81666500D01*
X147746000Y-81696500D01*
X147709000Y-81725500D01*
X147670000Y-81752500D01*
X147630000Y-81776500D01*
X147589000Y-81799500D01*
X147546000Y-81819500D01*
X147503000Y-81837500D01*
X147458000Y-81853500D01*
X147413000Y-81866500D01*
X147367000Y-81877500D01*
X147321000Y-81886500D01*
X147274000Y-81892500D01*
X147227000Y-81896500D01*
X147180000Y-81897500D01*
X147133000Y-81896500D01*
X147086000Y-81892500D01*
X147039000Y-81886500D01*
X146993000Y-81877500D01*
X146947000Y-81866500D01*
X146902000Y-81853500D01*
X146857000Y-81837500D01*
X146814000Y-81819500D01*
X146771000Y-81799500D01*
X146730000Y-81776500D01*
X146690000Y-81752500D01*
X146651000Y-81725500D01*
X146614000Y-81696500D01*
X146578000Y-81666500D01*
X146544000Y-81633500D01*
X146511000Y-81599500D01*
X146481000Y-81563500D01*
X146452000Y-81526500D01*
X146425000Y-81487500D01*
X146401000Y-81447500D01*
X146378000Y-81406500D01*
X146358000Y-81363500D01*
X146340000Y-81320500D01*
X146324000Y-81275500D01*
X146311000Y-81230500D01*
X146300000Y-81184500D01*
X146291000Y-81138500D01*
X146285000Y-81091500D01*
X146281000Y-81044500D01*
X146280000Y-80997500D01*
X146280000Y-78497500D01*
X148080000Y-78497500D01*
X148080000Y-80997500D01*
G36*
X148080000Y-80997500D02*
G01*
X148079000Y-81044500D01*
X148075000Y-81091500D01*
X148069000Y-81138500D01*
X148060000Y-81184500D01*
X148049000Y-81230500D01*
X148036000Y-81275500D01*
X148020000Y-81320500D01*
X148002000Y-81363500D01*
X147982000Y-81406500D01*
X147959000Y-81447500D01*
X147935000Y-81487500D01*
X147908000Y-81526500D01*
X147879000Y-81563500D01*
X147849000Y-81599500D01*
X147816000Y-81633500D01*
X147782000Y-81666500D01*
X147746000Y-81696500D01*
X147709000Y-81725500D01*
X147670000Y-81752500D01*
X147630000Y-81776500D01*
X147589000Y-81799500D01*
X147546000Y-81819500D01*
X147503000Y-81837500D01*
X147458000Y-81853500D01*
X147413000Y-81866500D01*
X147367000Y-81877500D01*
X147321000Y-81886500D01*
X147274000Y-81892500D01*
X147227000Y-81896500D01*
X147180000Y-81897500D01*
X147133000Y-81896500D01*
X147086000Y-81892500D01*
X147039000Y-81886500D01*
X146993000Y-81877500D01*
X146947000Y-81866500D01*
X146902000Y-81853500D01*
X146857000Y-81837500D01*
X146814000Y-81819500D01*
X146771000Y-81799500D01*
X146730000Y-81776500D01*
X146690000Y-81752500D01*
X146651000Y-81725500D01*
X146614000Y-81696500D01*
X146578000Y-81666500D01*
X146544000Y-81633500D01*
X146511000Y-81599500D01*
X146481000Y-81563500D01*
X146452000Y-81526500D01*
X146425000Y-81487500D01*
X146401000Y-81447500D01*
X146378000Y-81406500D01*
X146358000Y-81363500D01*
X146340000Y-81320500D01*
X146324000Y-81275500D01*
X146311000Y-81230500D01*
X146300000Y-81184500D01*
X146291000Y-81138500D01*
X146285000Y-81091500D01*
X146281000Y-81044500D01*
X146280000Y-80997500D01*
X146280000Y-78497500D01*
X148080000Y-78497500D01*
X148080000Y-80997500D01*
G37*
X145540000Y-80997500D02*
X145539000Y-81044500D01*
X145535000Y-81091500D01*
X145529000Y-81138500D01*
X145520000Y-81184500D01*
X145509000Y-81230500D01*
X145496000Y-81275500D01*
X145480000Y-81320500D01*
X145462000Y-81363500D01*
X145442000Y-81406500D01*
X145419000Y-81447500D01*
X145395000Y-81487500D01*
X145368000Y-81526500D01*
X145339000Y-81563500D01*
X145309000Y-81599500D01*
X145276000Y-81633500D01*
X145242000Y-81666500D01*
X145206000Y-81696500D01*
X145169000Y-81725500D01*
X145130000Y-81752500D01*
X145090000Y-81776500D01*
X145049000Y-81799500D01*
X145006000Y-81819500D01*
X144963000Y-81837500D01*
X144918000Y-81853500D01*
X144873000Y-81866500D01*
X144827000Y-81877500D01*
X144781000Y-81886500D01*
X144734000Y-81892500D01*
X144687000Y-81896500D01*
X144640000Y-81897500D01*
X144593000Y-81896500D01*
X144546000Y-81892500D01*
X144499000Y-81886500D01*
X144453000Y-81877500D01*
X144407000Y-81866500D01*
X144362000Y-81853500D01*
X144317000Y-81837500D01*
X144274000Y-81819500D01*
X144231000Y-81799500D01*
X144190000Y-81776500D01*
X144150000Y-81752500D01*
X144111000Y-81725500D01*
X144074000Y-81696500D01*
X144038000Y-81666500D01*
X144004000Y-81633500D01*
X143971000Y-81599500D01*
X143941000Y-81563500D01*
X143912000Y-81526500D01*
X143885000Y-81487500D01*
X143861000Y-81447500D01*
X143838000Y-81406500D01*
X143818000Y-81363500D01*
X143800000Y-81320500D01*
X143784000Y-81275500D01*
X143771000Y-81230500D01*
X143760000Y-81184500D01*
X143751000Y-81138500D01*
X143745000Y-81091500D01*
X143741000Y-81044500D01*
X143740000Y-80997500D01*
X143740000Y-78497500D01*
X145540000Y-78497500D01*
X145540000Y-80997500D01*
G36*
X145540000Y-80997500D02*
G01*
X145539000Y-81044500D01*
X145535000Y-81091500D01*
X145529000Y-81138500D01*
X145520000Y-81184500D01*
X145509000Y-81230500D01*
X145496000Y-81275500D01*
X145480000Y-81320500D01*
X145462000Y-81363500D01*
X145442000Y-81406500D01*
X145419000Y-81447500D01*
X145395000Y-81487500D01*
X145368000Y-81526500D01*
X145339000Y-81563500D01*
X145309000Y-81599500D01*
X145276000Y-81633500D01*
X145242000Y-81666500D01*
X145206000Y-81696500D01*
X145169000Y-81725500D01*
X145130000Y-81752500D01*
X145090000Y-81776500D01*
X145049000Y-81799500D01*
X145006000Y-81819500D01*
X144963000Y-81837500D01*
X144918000Y-81853500D01*
X144873000Y-81866500D01*
X144827000Y-81877500D01*
X144781000Y-81886500D01*
X144734000Y-81892500D01*
X144687000Y-81896500D01*
X144640000Y-81897500D01*
X144593000Y-81896500D01*
X144546000Y-81892500D01*
X144499000Y-81886500D01*
X144453000Y-81877500D01*
X144407000Y-81866500D01*
X144362000Y-81853500D01*
X144317000Y-81837500D01*
X144274000Y-81819500D01*
X144231000Y-81799500D01*
X144190000Y-81776500D01*
X144150000Y-81752500D01*
X144111000Y-81725500D01*
X144074000Y-81696500D01*
X144038000Y-81666500D01*
X144004000Y-81633500D01*
X143971000Y-81599500D01*
X143941000Y-81563500D01*
X143912000Y-81526500D01*
X143885000Y-81487500D01*
X143861000Y-81447500D01*
X143838000Y-81406500D01*
X143818000Y-81363500D01*
X143800000Y-81320500D01*
X143784000Y-81275500D01*
X143771000Y-81230500D01*
X143760000Y-81184500D01*
X143751000Y-81138500D01*
X143745000Y-81091500D01*
X143741000Y-81044500D01*
X143740000Y-80997500D01*
X143740000Y-78497500D01*
X145540000Y-78497500D01*
X145540000Y-80997500D01*
G37*
X140460000Y-80997500D02*
X140459000Y-81044500D01*
X140455000Y-81091500D01*
X140449000Y-81138500D01*
X140440000Y-81184500D01*
X140429000Y-81230500D01*
X140416000Y-81275500D01*
X140400000Y-81320500D01*
X140382000Y-81363500D01*
X140362000Y-81406500D01*
X140339000Y-81447500D01*
X140315000Y-81487500D01*
X140288000Y-81526500D01*
X140259000Y-81563500D01*
X140229000Y-81599500D01*
X140196000Y-81633500D01*
X140162000Y-81666500D01*
X140126000Y-81696500D01*
X140089000Y-81725500D01*
X140050000Y-81752500D01*
X140010000Y-81776500D01*
X139969000Y-81799500D01*
X139926000Y-81819500D01*
X139883000Y-81837500D01*
X139838000Y-81853500D01*
X139793000Y-81866500D01*
X139747000Y-81877500D01*
X139701000Y-81886500D01*
X139654000Y-81892500D01*
X139607000Y-81896500D01*
X139560000Y-81897500D01*
X139513000Y-81896500D01*
X139466000Y-81892500D01*
X139419000Y-81886500D01*
X139373000Y-81877500D01*
X139327000Y-81866500D01*
X139282000Y-81853500D01*
X139237000Y-81837500D01*
X139194000Y-81819500D01*
X139151000Y-81799500D01*
X139110000Y-81776500D01*
X139070000Y-81752500D01*
X139031000Y-81725500D01*
X138994000Y-81696500D01*
X138958000Y-81666500D01*
X138924000Y-81633500D01*
X138891000Y-81599500D01*
X138861000Y-81563500D01*
X138832000Y-81526500D01*
X138805000Y-81487500D01*
X138781000Y-81447500D01*
X138758000Y-81406500D01*
X138738000Y-81363500D01*
X138720000Y-81320500D01*
X138704000Y-81275500D01*
X138691000Y-81230500D01*
X138680000Y-81184500D01*
X138671000Y-81138500D01*
X138665000Y-81091500D01*
X138661000Y-81044500D01*
X138660000Y-80997500D01*
X138660000Y-78497500D01*
X140460000Y-78497500D01*
X140460000Y-80997500D01*
G36*
X140460000Y-80997500D02*
G01*
X140459000Y-81044500D01*
X140455000Y-81091500D01*
X140449000Y-81138500D01*
X140440000Y-81184500D01*
X140429000Y-81230500D01*
X140416000Y-81275500D01*
X140400000Y-81320500D01*
X140382000Y-81363500D01*
X140362000Y-81406500D01*
X140339000Y-81447500D01*
X140315000Y-81487500D01*
X140288000Y-81526500D01*
X140259000Y-81563500D01*
X140229000Y-81599500D01*
X140196000Y-81633500D01*
X140162000Y-81666500D01*
X140126000Y-81696500D01*
X140089000Y-81725500D01*
X140050000Y-81752500D01*
X140010000Y-81776500D01*
X139969000Y-81799500D01*
X139926000Y-81819500D01*
X139883000Y-81837500D01*
X139838000Y-81853500D01*
X139793000Y-81866500D01*
X139747000Y-81877500D01*
X139701000Y-81886500D01*
X139654000Y-81892500D01*
X139607000Y-81896500D01*
X139560000Y-81897500D01*
X139513000Y-81896500D01*
X139466000Y-81892500D01*
X139419000Y-81886500D01*
X139373000Y-81877500D01*
X139327000Y-81866500D01*
X139282000Y-81853500D01*
X139237000Y-81837500D01*
X139194000Y-81819500D01*
X139151000Y-81799500D01*
X139110000Y-81776500D01*
X139070000Y-81752500D01*
X139031000Y-81725500D01*
X138994000Y-81696500D01*
X138958000Y-81666500D01*
X138924000Y-81633500D01*
X138891000Y-81599500D01*
X138861000Y-81563500D01*
X138832000Y-81526500D01*
X138805000Y-81487500D01*
X138781000Y-81447500D01*
X138758000Y-81406500D01*
X138738000Y-81363500D01*
X138720000Y-81320500D01*
X138704000Y-81275500D01*
X138691000Y-81230500D01*
X138680000Y-81184500D01*
X138671000Y-81138500D01*
X138665000Y-81091500D01*
X138661000Y-81044500D01*
X138660000Y-80997500D01*
X138660000Y-78497500D01*
X140460000Y-78497500D01*
X140460000Y-80997500D01*
G37*
X137920000Y-80997500D02*
X137919000Y-81044500D01*
X137915000Y-81091500D01*
X137909000Y-81138500D01*
X137900000Y-81184500D01*
X137889000Y-81230500D01*
X137876000Y-81275500D01*
X137860000Y-81320500D01*
X137842000Y-81363500D01*
X137822000Y-81406500D01*
X137799000Y-81447500D01*
X137775000Y-81487500D01*
X137748000Y-81526500D01*
X137719000Y-81563500D01*
X137689000Y-81599500D01*
X137656000Y-81633500D01*
X137622000Y-81666500D01*
X137586000Y-81696500D01*
X137549000Y-81725500D01*
X137510000Y-81752500D01*
X137470000Y-81776500D01*
X137429000Y-81799500D01*
X137386000Y-81819500D01*
X137343000Y-81837500D01*
X137298000Y-81853500D01*
X137253000Y-81866500D01*
X137207000Y-81877500D01*
X137161000Y-81886500D01*
X137114000Y-81892500D01*
X137067000Y-81896500D01*
X137020000Y-81897500D01*
X136973000Y-81896500D01*
X136926000Y-81892500D01*
X136879000Y-81886500D01*
X136833000Y-81877500D01*
X136787000Y-81866500D01*
X136742000Y-81853500D01*
X136697000Y-81837500D01*
X136654000Y-81819500D01*
X136611000Y-81799500D01*
X136570000Y-81776500D01*
X136530000Y-81752500D01*
X136491000Y-81725500D01*
X136454000Y-81696500D01*
X136418000Y-81666500D01*
X136384000Y-81633500D01*
X136351000Y-81599500D01*
X136321000Y-81563500D01*
X136292000Y-81526500D01*
X136265000Y-81487500D01*
X136241000Y-81447500D01*
X136218000Y-81406500D01*
X136198000Y-81363500D01*
X136180000Y-81320500D01*
X136164000Y-81275500D01*
X136151000Y-81230500D01*
X136140000Y-81184500D01*
X136131000Y-81138500D01*
X136125000Y-81091500D01*
X136121000Y-81044500D01*
X136120000Y-80997500D01*
X136120000Y-78497500D01*
X137920000Y-78497500D01*
X137920000Y-80997500D01*
G36*
X137920000Y-80997500D02*
G01*
X137919000Y-81044500D01*
X137915000Y-81091500D01*
X137909000Y-81138500D01*
X137900000Y-81184500D01*
X137889000Y-81230500D01*
X137876000Y-81275500D01*
X137860000Y-81320500D01*
X137842000Y-81363500D01*
X137822000Y-81406500D01*
X137799000Y-81447500D01*
X137775000Y-81487500D01*
X137748000Y-81526500D01*
X137719000Y-81563500D01*
X137689000Y-81599500D01*
X137656000Y-81633500D01*
X137622000Y-81666500D01*
X137586000Y-81696500D01*
X137549000Y-81725500D01*
X137510000Y-81752500D01*
X137470000Y-81776500D01*
X137429000Y-81799500D01*
X137386000Y-81819500D01*
X137343000Y-81837500D01*
X137298000Y-81853500D01*
X137253000Y-81866500D01*
X137207000Y-81877500D01*
X137161000Y-81886500D01*
X137114000Y-81892500D01*
X137067000Y-81896500D01*
X137020000Y-81897500D01*
X136973000Y-81896500D01*
X136926000Y-81892500D01*
X136879000Y-81886500D01*
X136833000Y-81877500D01*
X136787000Y-81866500D01*
X136742000Y-81853500D01*
X136697000Y-81837500D01*
X136654000Y-81819500D01*
X136611000Y-81799500D01*
X136570000Y-81776500D01*
X136530000Y-81752500D01*
X136491000Y-81725500D01*
X136454000Y-81696500D01*
X136418000Y-81666500D01*
X136384000Y-81633500D01*
X136351000Y-81599500D01*
X136321000Y-81563500D01*
X136292000Y-81526500D01*
X136265000Y-81487500D01*
X136241000Y-81447500D01*
X136218000Y-81406500D01*
X136198000Y-81363500D01*
X136180000Y-81320500D01*
X136164000Y-81275500D01*
X136151000Y-81230500D01*
X136140000Y-81184500D01*
X136131000Y-81138500D01*
X136125000Y-81091500D01*
X136121000Y-81044500D01*
X136120000Y-80997500D01*
X136120000Y-78497500D01*
X137920000Y-78497500D01*
X137920000Y-80997500D01*
G37*
X135380000Y-80997500D02*
X135379000Y-81044500D01*
X135375000Y-81091500D01*
X135369000Y-81138500D01*
X135360000Y-81184500D01*
X135349000Y-81230500D01*
X135336000Y-81275500D01*
X135320000Y-81320500D01*
X135302000Y-81363500D01*
X135282000Y-81406500D01*
X135259000Y-81447500D01*
X135235000Y-81487500D01*
X135208000Y-81526500D01*
X135179000Y-81563500D01*
X135149000Y-81599500D01*
X135116000Y-81633500D01*
X135082000Y-81666500D01*
X135046000Y-81696500D01*
X135009000Y-81725500D01*
X134970000Y-81752500D01*
X134930000Y-81776500D01*
X134889000Y-81799500D01*
X134846000Y-81819500D01*
X134803000Y-81837500D01*
X134758000Y-81853500D01*
X134713000Y-81866500D01*
X134667000Y-81877500D01*
X134621000Y-81886500D01*
X134574000Y-81892500D01*
X134527000Y-81896500D01*
X134480000Y-81897500D01*
X134433000Y-81896500D01*
X134386000Y-81892500D01*
X134339000Y-81886500D01*
X134293000Y-81877500D01*
X134247000Y-81866500D01*
X134202000Y-81853500D01*
X134157000Y-81837500D01*
X134114000Y-81819500D01*
X134071000Y-81799500D01*
X134030000Y-81776500D01*
X133990000Y-81752500D01*
X133951000Y-81725500D01*
X133914000Y-81696500D01*
X133878000Y-81666500D01*
X133844000Y-81633500D01*
X133811000Y-81599500D01*
X133781000Y-81563500D01*
X133752000Y-81526500D01*
X133725000Y-81487500D01*
X133701000Y-81447500D01*
X133678000Y-81406500D01*
X133658000Y-81363500D01*
X133640000Y-81320500D01*
X133624000Y-81275500D01*
X133611000Y-81230500D01*
X133600000Y-81184500D01*
X133591000Y-81138500D01*
X133585000Y-81091500D01*
X133581000Y-81044500D01*
X133580000Y-80997500D01*
X133580000Y-78497500D01*
X135380000Y-78497500D01*
X135380000Y-80997500D01*
G36*
X135380000Y-80997500D02*
G01*
X135379000Y-81044500D01*
X135375000Y-81091500D01*
X135369000Y-81138500D01*
X135360000Y-81184500D01*
X135349000Y-81230500D01*
X135336000Y-81275500D01*
X135320000Y-81320500D01*
X135302000Y-81363500D01*
X135282000Y-81406500D01*
X135259000Y-81447500D01*
X135235000Y-81487500D01*
X135208000Y-81526500D01*
X135179000Y-81563500D01*
X135149000Y-81599500D01*
X135116000Y-81633500D01*
X135082000Y-81666500D01*
X135046000Y-81696500D01*
X135009000Y-81725500D01*
X134970000Y-81752500D01*
X134930000Y-81776500D01*
X134889000Y-81799500D01*
X134846000Y-81819500D01*
X134803000Y-81837500D01*
X134758000Y-81853500D01*
X134713000Y-81866500D01*
X134667000Y-81877500D01*
X134621000Y-81886500D01*
X134574000Y-81892500D01*
X134527000Y-81896500D01*
X134480000Y-81897500D01*
X134433000Y-81896500D01*
X134386000Y-81892500D01*
X134339000Y-81886500D01*
X134293000Y-81877500D01*
X134247000Y-81866500D01*
X134202000Y-81853500D01*
X134157000Y-81837500D01*
X134114000Y-81819500D01*
X134071000Y-81799500D01*
X134030000Y-81776500D01*
X133990000Y-81752500D01*
X133951000Y-81725500D01*
X133914000Y-81696500D01*
X133878000Y-81666500D01*
X133844000Y-81633500D01*
X133811000Y-81599500D01*
X133781000Y-81563500D01*
X133752000Y-81526500D01*
X133725000Y-81487500D01*
X133701000Y-81447500D01*
X133678000Y-81406500D01*
X133658000Y-81363500D01*
X133640000Y-81320500D01*
X133624000Y-81275500D01*
X133611000Y-81230500D01*
X133600000Y-81184500D01*
X133591000Y-81138500D01*
X133585000Y-81091500D01*
X133581000Y-81044500D01*
X133580000Y-80997500D01*
X133580000Y-78497500D01*
X135380000Y-78497500D01*
X135380000Y-80997500D01*
G37*
X132840000Y-80997500D02*
X132839000Y-81044500D01*
X132835000Y-81091500D01*
X132829000Y-81138500D01*
X132820000Y-81184500D01*
X132809000Y-81230500D01*
X132796000Y-81275500D01*
X132780000Y-81320500D01*
X132762000Y-81363500D01*
X132742000Y-81406500D01*
X132719000Y-81447500D01*
X132695000Y-81487500D01*
X132668000Y-81526500D01*
X132639000Y-81563500D01*
X132609000Y-81599500D01*
X132576000Y-81633500D01*
X132542000Y-81666500D01*
X132506000Y-81696500D01*
X132469000Y-81725500D01*
X132430000Y-81752500D01*
X132390000Y-81776500D01*
X132349000Y-81799500D01*
X132306000Y-81819500D01*
X132263000Y-81837500D01*
X132218000Y-81853500D01*
X132173000Y-81866500D01*
X132127000Y-81877500D01*
X132081000Y-81886500D01*
X132034000Y-81892500D01*
X131987000Y-81896500D01*
X131940000Y-81897500D01*
X131893000Y-81896500D01*
X131846000Y-81892500D01*
X131799000Y-81886500D01*
X131753000Y-81877500D01*
X131707000Y-81866500D01*
X131662000Y-81853500D01*
X131617000Y-81837500D01*
X131574000Y-81819500D01*
X131531000Y-81799500D01*
X131490000Y-81776500D01*
X131450000Y-81752500D01*
X131411000Y-81725500D01*
X131374000Y-81696500D01*
X131338000Y-81666500D01*
X131304000Y-81633500D01*
X131271000Y-81599500D01*
X131241000Y-81563500D01*
X131212000Y-81526500D01*
X131185000Y-81487500D01*
X131161000Y-81447500D01*
X131138000Y-81406500D01*
X131118000Y-81363500D01*
X131100000Y-81320500D01*
X131084000Y-81275500D01*
X131071000Y-81230500D01*
X131060000Y-81184500D01*
X131051000Y-81138500D01*
X131045000Y-81091500D01*
X131041000Y-81044500D01*
X131040000Y-80997500D01*
X131040000Y-78497500D01*
X132840000Y-78497500D01*
X132840000Y-80997500D01*
G36*
X132840000Y-80997500D02*
G01*
X132839000Y-81044500D01*
X132835000Y-81091500D01*
X132829000Y-81138500D01*
X132820000Y-81184500D01*
X132809000Y-81230500D01*
X132796000Y-81275500D01*
X132780000Y-81320500D01*
X132762000Y-81363500D01*
X132742000Y-81406500D01*
X132719000Y-81447500D01*
X132695000Y-81487500D01*
X132668000Y-81526500D01*
X132639000Y-81563500D01*
X132609000Y-81599500D01*
X132576000Y-81633500D01*
X132542000Y-81666500D01*
X132506000Y-81696500D01*
X132469000Y-81725500D01*
X132430000Y-81752500D01*
X132390000Y-81776500D01*
X132349000Y-81799500D01*
X132306000Y-81819500D01*
X132263000Y-81837500D01*
X132218000Y-81853500D01*
X132173000Y-81866500D01*
X132127000Y-81877500D01*
X132081000Y-81886500D01*
X132034000Y-81892500D01*
X131987000Y-81896500D01*
X131940000Y-81897500D01*
X131893000Y-81896500D01*
X131846000Y-81892500D01*
X131799000Y-81886500D01*
X131753000Y-81877500D01*
X131707000Y-81866500D01*
X131662000Y-81853500D01*
X131617000Y-81837500D01*
X131574000Y-81819500D01*
X131531000Y-81799500D01*
X131490000Y-81776500D01*
X131450000Y-81752500D01*
X131411000Y-81725500D01*
X131374000Y-81696500D01*
X131338000Y-81666500D01*
X131304000Y-81633500D01*
X131271000Y-81599500D01*
X131241000Y-81563500D01*
X131212000Y-81526500D01*
X131185000Y-81487500D01*
X131161000Y-81447500D01*
X131138000Y-81406500D01*
X131118000Y-81363500D01*
X131100000Y-81320500D01*
X131084000Y-81275500D01*
X131071000Y-81230500D01*
X131060000Y-81184500D01*
X131051000Y-81138500D01*
X131045000Y-81091500D01*
X131041000Y-81044500D01*
X131040000Y-80997500D01*
X131040000Y-78497500D01*
X132840000Y-78497500D01*
X132840000Y-80997500D01*
G37*
X127760000Y-80997500D02*
X127759000Y-81044500D01*
X127755000Y-81091500D01*
X127749000Y-81138500D01*
X127740000Y-81184500D01*
X127729000Y-81230500D01*
X127716000Y-81275500D01*
X127700000Y-81320500D01*
X127682000Y-81363500D01*
X127662000Y-81406500D01*
X127639000Y-81447500D01*
X127615000Y-81487500D01*
X127588000Y-81526500D01*
X127559000Y-81563500D01*
X127529000Y-81599500D01*
X127496000Y-81633500D01*
X127462000Y-81666500D01*
X127426000Y-81696500D01*
X127389000Y-81725500D01*
X127350000Y-81752500D01*
X127310000Y-81776500D01*
X127269000Y-81799500D01*
X127226000Y-81819500D01*
X127183000Y-81837500D01*
X127138000Y-81853500D01*
X127093000Y-81866500D01*
X127047000Y-81877500D01*
X127001000Y-81886500D01*
X126954000Y-81892500D01*
X126907000Y-81896500D01*
X126860000Y-81897500D01*
X126813000Y-81896500D01*
X126766000Y-81892500D01*
X126719000Y-81886500D01*
X126673000Y-81877500D01*
X126627000Y-81866500D01*
X126582000Y-81853500D01*
X126537000Y-81837500D01*
X126494000Y-81819500D01*
X126451000Y-81799500D01*
X126410000Y-81776500D01*
X126370000Y-81752500D01*
X126331000Y-81725500D01*
X126294000Y-81696500D01*
X126258000Y-81666500D01*
X126224000Y-81633500D01*
X126191000Y-81599500D01*
X126161000Y-81563500D01*
X126132000Y-81526500D01*
X126105000Y-81487500D01*
X126081000Y-81447500D01*
X126058000Y-81406500D01*
X126038000Y-81363500D01*
X126020000Y-81320500D01*
X126004000Y-81275500D01*
X125991000Y-81230500D01*
X125980000Y-81184500D01*
X125971000Y-81138500D01*
X125965000Y-81091500D01*
X125961000Y-81044500D01*
X125960000Y-80997500D01*
X125960000Y-78497500D01*
X127760000Y-78497500D01*
X127760000Y-80997500D01*
G36*
X127760000Y-80997500D02*
G01*
X127759000Y-81044500D01*
X127755000Y-81091500D01*
X127749000Y-81138500D01*
X127740000Y-81184500D01*
X127729000Y-81230500D01*
X127716000Y-81275500D01*
X127700000Y-81320500D01*
X127682000Y-81363500D01*
X127662000Y-81406500D01*
X127639000Y-81447500D01*
X127615000Y-81487500D01*
X127588000Y-81526500D01*
X127559000Y-81563500D01*
X127529000Y-81599500D01*
X127496000Y-81633500D01*
X127462000Y-81666500D01*
X127426000Y-81696500D01*
X127389000Y-81725500D01*
X127350000Y-81752500D01*
X127310000Y-81776500D01*
X127269000Y-81799500D01*
X127226000Y-81819500D01*
X127183000Y-81837500D01*
X127138000Y-81853500D01*
X127093000Y-81866500D01*
X127047000Y-81877500D01*
X127001000Y-81886500D01*
X126954000Y-81892500D01*
X126907000Y-81896500D01*
X126860000Y-81897500D01*
X126813000Y-81896500D01*
X126766000Y-81892500D01*
X126719000Y-81886500D01*
X126673000Y-81877500D01*
X126627000Y-81866500D01*
X126582000Y-81853500D01*
X126537000Y-81837500D01*
X126494000Y-81819500D01*
X126451000Y-81799500D01*
X126410000Y-81776500D01*
X126370000Y-81752500D01*
X126331000Y-81725500D01*
X126294000Y-81696500D01*
X126258000Y-81666500D01*
X126224000Y-81633500D01*
X126191000Y-81599500D01*
X126161000Y-81563500D01*
X126132000Y-81526500D01*
X126105000Y-81487500D01*
X126081000Y-81447500D01*
X126058000Y-81406500D01*
X126038000Y-81363500D01*
X126020000Y-81320500D01*
X126004000Y-81275500D01*
X125991000Y-81230500D01*
X125980000Y-81184500D01*
X125971000Y-81138500D01*
X125965000Y-81091500D01*
X125961000Y-81044500D01*
X125960000Y-80997500D01*
X125960000Y-78497500D01*
X127760000Y-78497500D01*
X127760000Y-80997500D01*
G37*
X125220000Y-80997500D02*
X125219000Y-81044500D01*
X125215000Y-81091500D01*
X125209000Y-81138500D01*
X125200000Y-81184500D01*
X125189000Y-81230500D01*
X125176000Y-81275500D01*
X125160000Y-81320500D01*
X125142000Y-81363500D01*
X125122000Y-81406500D01*
X125099000Y-81447500D01*
X125075000Y-81487500D01*
X125048000Y-81526500D01*
X125019000Y-81563500D01*
X124989000Y-81599500D01*
X124956000Y-81633500D01*
X124922000Y-81666500D01*
X124886000Y-81696500D01*
X124849000Y-81725500D01*
X124810000Y-81752500D01*
X124770000Y-81776500D01*
X124729000Y-81799500D01*
X124686000Y-81819500D01*
X124643000Y-81837500D01*
X124598000Y-81853500D01*
X124553000Y-81866500D01*
X124507000Y-81877500D01*
X124461000Y-81886500D01*
X124414000Y-81892500D01*
X124367000Y-81896500D01*
X124320000Y-81897500D01*
X124273000Y-81896500D01*
X124226000Y-81892500D01*
X124179000Y-81886500D01*
X124133000Y-81877500D01*
X124087000Y-81866500D01*
X124042000Y-81853500D01*
X123997000Y-81837500D01*
X123954000Y-81819500D01*
X123911000Y-81799500D01*
X123870000Y-81776500D01*
X123830000Y-81752500D01*
X123791000Y-81725500D01*
X123754000Y-81696500D01*
X123718000Y-81666500D01*
X123684000Y-81633500D01*
X123651000Y-81599500D01*
X123621000Y-81563500D01*
X123592000Y-81526500D01*
X123565000Y-81487500D01*
X123541000Y-81447500D01*
X123518000Y-81406500D01*
X123498000Y-81363500D01*
X123480000Y-81320500D01*
X123464000Y-81275500D01*
X123451000Y-81230500D01*
X123440000Y-81184500D01*
X123431000Y-81138500D01*
X123425000Y-81091500D01*
X123421000Y-81044500D01*
X123420000Y-80997500D01*
X123420000Y-78497500D01*
X125220000Y-78497500D01*
X125220000Y-80997500D01*
G36*
X125220000Y-80997500D02*
G01*
X125219000Y-81044500D01*
X125215000Y-81091500D01*
X125209000Y-81138500D01*
X125200000Y-81184500D01*
X125189000Y-81230500D01*
X125176000Y-81275500D01*
X125160000Y-81320500D01*
X125142000Y-81363500D01*
X125122000Y-81406500D01*
X125099000Y-81447500D01*
X125075000Y-81487500D01*
X125048000Y-81526500D01*
X125019000Y-81563500D01*
X124989000Y-81599500D01*
X124956000Y-81633500D01*
X124922000Y-81666500D01*
X124886000Y-81696500D01*
X124849000Y-81725500D01*
X124810000Y-81752500D01*
X124770000Y-81776500D01*
X124729000Y-81799500D01*
X124686000Y-81819500D01*
X124643000Y-81837500D01*
X124598000Y-81853500D01*
X124553000Y-81866500D01*
X124507000Y-81877500D01*
X124461000Y-81886500D01*
X124414000Y-81892500D01*
X124367000Y-81896500D01*
X124320000Y-81897500D01*
X124273000Y-81896500D01*
X124226000Y-81892500D01*
X124179000Y-81886500D01*
X124133000Y-81877500D01*
X124087000Y-81866500D01*
X124042000Y-81853500D01*
X123997000Y-81837500D01*
X123954000Y-81819500D01*
X123911000Y-81799500D01*
X123870000Y-81776500D01*
X123830000Y-81752500D01*
X123791000Y-81725500D01*
X123754000Y-81696500D01*
X123718000Y-81666500D01*
X123684000Y-81633500D01*
X123651000Y-81599500D01*
X123621000Y-81563500D01*
X123592000Y-81526500D01*
X123565000Y-81487500D01*
X123541000Y-81447500D01*
X123518000Y-81406500D01*
X123498000Y-81363500D01*
X123480000Y-81320500D01*
X123464000Y-81275500D01*
X123451000Y-81230500D01*
X123440000Y-81184500D01*
X123431000Y-81138500D01*
X123425000Y-81091500D01*
X123421000Y-81044500D01*
X123420000Y-80997500D01*
X123420000Y-78497500D01*
X125220000Y-78497500D01*
X125220000Y-80997500D01*
G37*
X124597000Y-86448500D02*
X124644000Y-86452500D01*
X124691000Y-86458500D01*
X124737000Y-86467500D01*
X124783000Y-86478500D01*
X124828000Y-86491500D01*
X124873000Y-86507500D01*
X124916000Y-86525500D01*
X124959000Y-86545500D01*
X125000000Y-86568500D01*
X125040000Y-86592500D01*
X125079000Y-86619500D01*
X125116000Y-86648500D01*
X125152000Y-86678500D01*
X125186000Y-86711500D01*
X125219000Y-86745500D01*
X125249000Y-86781500D01*
X125278000Y-86818500D01*
X125305000Y-86857500D01*
X125329000Y-86897500D01*
X125352000Y-86938500D01*
X125372000Y-86981500D01*
X125390000Y-87024500D01*
X125406000Y-87069500D01*
X125419000Y-87114500D01*
X125430000Y-87160500D01*
X125439000Y-87206500D01*
X125445000Y-87253500D01*
X125449000Y-87300500D01*
X125450000Y-87347500D01*
X125449000Y-87394500D01*
X125445000Y-87441500D01*
X125439000Y-87488500D01*
X125430000Y-87534500D01*
X125419000Y-87580500D01*
X125406000Y-87625500D01*
X125390000Y-87670500D01*
X125372000Y-87713500D01*
X125352000Y-87756500D01*
X125329000Y-87797500D01*
X125305000Y-87837500D01*
X125278000Y-87876500D01*
X125249000Y-87913500D01*
X125219000Y-87949500D01*
X125186000Y-87983500D01*
X125152000Y-88016500D01*
X125116000Y-88046500D01*
X125079000Y-88075500D01*
X125040000Y-88102500D01*
X125000000Y-88126500D01*
X124959000Y-88149500D01*
X124916000Y-88169500D01*
X124873000Y-88187500D01*
X124828000Y-88203500D01*
X124783000Y-88216500D01*
X124737000Y-88227500D01*
X124691000Y-88236500D01*
X124644000Y-88242500D01*
X124597000Y-88246500D01*
X124550000Y-88247500D01*
X122050000Y-88247500D01*
X122050000Y-86447500D01*
X124550000Y-86447500D01*
X124597000Y-86448500D01*
G36*
X124597000Y-86448500D02*
G01*
X124644000Y-86452500D01*
X124691000Y-86458500D01*
X124737000Y-86467500D01*
X124783000Y-86478500D01*
X124828000Y-86491500D01*
X124873000Y-86507500D01*
X124916000Y-86525500D01*
X124959000Y-86545500D01*
X125000000Y-86568500D01*
X125040000Y-86592500D01*
X125079000Y-86619500D01*
X125116000Y-86648500D01*
X125152000Y-86678500D01*
X125186000Y-86711500D01*
X125219000Y-86745500D01*
X125249000Y-86781500D01*
X125278000Y-86818500D01*
X125305000Y-86857500D01*
X125329000Y-86897500D01*
X125352000Y-86938500D01*
X125372000Y-86981500D01*
X125390000Y-87024500D01*
X125406000Y-87069500D01*
X125419000Y-87114500D01*
X125430000Y-87160500D01*
X125439000Y-87206500D01*
X125445000Y-87253500D01*
X125449000Y-87300500D01*
X125450000Y-87347500D01*
X125449000Y-87394500D01*
X125445000Y-87441500D01*
X125439000Y-87488500D01*
X125430000Y-87534500D01*
X125419000Y-87580500D01*
X125406000Y-87625500D01*
X125390000Y-87670500D01*
X125372000Y-87713500D01*
X125352000Y-87756500D01*
X125329000Y-87797500D01*
X125305000Y-87837500D01*
X125278000Y-87876500D01*
X125249000Y-87913500D01*
X125219000Y-87949500D01*
X125186000Y-87983500D01*
X125152000Y-88016500D01*
X125116000Y-88046500D01*
X125079000Y-88075500D01*
X125040000Y-88102500D01*
X125000000Y-88126500D01*
X124959000Y-88149500D01*
X124916000Y-88169500D01*
X124873000Y-88187500D01*
X124828000Y-88203500D01*
X124783000Y-88216500D01*
X124737000Y-88227500D01*
X124691000Y-88236500D01*
X124644000Y-88242500D01*
X124597000Y-88246500D01*
X124550000Y-88247500D01*
X122050000Y-88247500D01*
X122050000Y-86447500D01*
X124550000Y-86447500D01*
X124597000Y-86448500D01*
G37*
X124597000Y-91528500D02*
X124644000Y-91532500D01*
X124691000Y-91538500D01*
X124737000Y-91547500D01*
X124783000Y-91558500D01*
X124828000Y-91571500D01*
X124873000Y-91587500D01*
X124916000Y-91605500D01*
X124959000Y-91625500D01*
X125000000Y-91648500D01*
X125040000Y-91672500D01*
X125079000Y-91699500D01*
X125116000Y-91728500D01*
X125152000Y-91758500D01*
X125186000Y-91791500D01*
X125219000Y-91825500D01*
X125249000Y-91861500D01*
X125278000Y-91898500D01*
X125305000Y-91937500D01*
X125329000Y-91977500D01*
X125352000Y-92018500D01*
X125372000Y-92061500D01*
X125390000Y-92104500D01*
X125406000Y-92149500D01*
X125419000Y-92194500D01*
X125430000Y-92240500D01*
X125439000Y-92286500D01*
X125445000Y-92333500D01*
X125449000Y-92380500D01*
X125450000Y-92427500D01*
X125449000Y-92474500D01*
X125445000Y-92521500D01*
X125439000Y-92568500D01*
X125430000Y-92614500D01*
X125419000Y-92660500D01*
X125406000Y-92705500D01*
X125390000Y-92750500D01*
X125372000Y-92793500D01*
X125352000Y-92836500D01*
X125329000Y-92877500D01*
X125305000Y-92917500D01*
X125278000Y-92956500D01*
X125249000Y-92993500D01*
X125219000Y-93029500D01*
X125186000Y-93063500D01*
X125152000Y-93096500D01*
X125116000Y-93126500D01*
X125079000Y-93155500D01*
X125040000Y-93182500D01*
X125000000Y-93206500D01*
X124959000Y-93229500D01*
X124916000Y-93249500D01*
X124873000Y-93267500D01*
X124828000Y-93283500D01*
X124783000Y-93296500D01*
X124737000Y-93307500D01*
X124691000Y-93316500D01*
X124644000Y-93322500D01*
X124597000Y-93326500D01*
X124550000Y-93327500D01*
X122050000Y-93327500D01*
X122050000Y-91527500D01*
X124550000Y-91527500D01*
X124597000Y-91528500D01*
G36*
X124597000Y-91528500D02*
G01*
X124644000Y-91532500D01*
X124691000Y-91538500D01*
X124737000Y-91547500D01*
X124783000Y-91558500D01*
X124828000Y-91571500D01*
X124873000Y-91587500D01*
X124916000Y-91605500D01*
X124959000Y-91625500D01*
X125000000Y-91648500D01*
X125040000Y-91672500D01*
X125079000Y-91699500D01*
X125116000Y-91728500D01*
X125152000Y-91758500D01*
X125186000Y-91791500D01*
X125219000Y-91825500D01*
X125249000Y-91861500D01*
X125278000Y-91898500D01*
X125305000Y-91937500D01*
X125329000Y-91977500D01*
X125352000Y-92018500D01*
X125372000Y-92061500D01*
X125390000Y-92104500D01*
X125406000Y-92149500D01*
X125419000Y-92194500D01*
X125430000Y-92240500D01*
X125439000Y-92286500D01*
X125445000Y-92333500D01*
X125449000Y-92380500D01*
X125450000Y-92427500D01*
X125449000Y-92474500D01*
X125445000Y-92521500D01*
X125439000Y-92568500D01*
X125430000Y-92614500D01*
X125419000Y-92660500D01*
X125406000Y-92705500D01*
X125390000Y-92750500D01*
X125372000Y-92793500D01*
X125352000Y-92836500D01*
X125329000Y-92877500D01*
X125305000Y-92917500D01*
X125278000Y-92956500D01*
X125249000Y-92993500D01*
X125219000Y-93029500D01*
X125186000Y-93063500D01*
X125152000Y-93096500D01*
X125116000Y-93126500D01*
X125079000Y-93155500D01*
X125040000Y-93182500D01*
X125000000Y-93206500D01*
X124959000Y-93229500D01*
X124916000Y-93249500D01*
X124873000Y-93267500D01*
X124828000Y-93283500D01*
X124783000Y-93296500D01*
X124737000Y-93307500D01*
X124691000Y-93316500D01*
X124644000Y-93322500D01*
X124597000Y-93326500D01*
X124550000Y-93327500D01*
X122050000Y-93327500D01*
X122050000Y-91527500D01*
X124550000Y-91527500D01*
X124597000Y-91528500D01*
G37*
X172627000Y-97878500D02*
X172674000Y-97882500D01*
X172721000Y-97888500D01*
X172767000Y-97897500D01*
X172813000Y-97908500D01*
X172858000Y-97921500D01*
X172903000Y-97937500D01*
X172946000Y-97955500D01*
X172989000Y-97975500D01*
X173030000Y-97998500D01*
X173070000Y-98022500D01*
X173109000Y-98049500D01*
X173146000Y-98078500D01*
X173182000Y-98108500D01*
X173216000Y-98141500D01*
X173249000Y-98175500D01*
X173279000Y-98211500D01*
X173308000Y-98248500D01*
X173335000Y-98287500D01*
X173359000Y-98327500D01*
X173382000Y-98368500D01*
X173402000Y-98411500D01*
X173420000Y-98454500D01*
X173436000Y-98499500D01*
X173449000Y-98544500D01*
X173460000Y-98590500D01*
X173469000Y-98636500D01*
X173475000Y-98683500D01*
X173479000Y-98730500D01*
X173480000Y-98777500D01*
X173480000Y-101277500D01*
X171680000Y-101277500D01*
X171680000Y-98777500D01*
X171681000Y-98730500D01*
X171685000Y-98683500D01*
X171691000Y-98636500D01*
X171700000Y-98590500D01*
X171711000Y-98544500D01*
X171724000Y-98499500D01*
X171740000Y-98454500D01*
X171758000Y-98411500D01*
X171778000Y-98368500D01*
X171801000Y-98327500D01*
X171825000Y-98287500D01*
X171852000Y-98248500D01*
X171881000Y-98211500D01*
X171911000Y-98175500D01*
X171944000Y-98141500D01*
X171978000Y-98108500D01*
X172014000Y-98078500D01*
X172051000Y-98049500D01*
X172090000Y-98022500D01*
X172130000Y-97998500D01*
X172171000Y-97975500D01*
X172214000Y-97955500D01*
X172257000Y-97937500D01*
X172302000Y-97921500D01*
X172347000Y-97908500D01*
X172393000Y-97897500D01*
X172439000Y-97888500D01*
X172486000Y-97882500D01*
X172533000Y-97878500D01*
X172580000Y-97877500D01*
X172627000Y-97878500D01*
G36*
X172627000Y-97878500D02*
G01*
X172674000Y-97882500D01*
X172721000Y-97888500D01*
X172767000Y-97897500D01*
X172813000Y-97908500D01*
X172858000Y-97921500D01*
X172903000Y-97937500D01*
X172946000Y-97955500D01*
X172989000Y-97975500D01*
X173030000Y-97998500D01*
X173070000Y-98022500D01*
X173109000Y-98049500D01*
X173146000Y-98078500D01*
X173182000Y-98108500D01*
X173216000Y-98141500D01*
X173249000Y-98175500D01*
X173279000Y-98211500D01*
X173308000Y-98248500D01*
X173335000Y-98287500D01*
X173359000Y-98327500D01*
X173382000Y-98368500D01*
X173402000Y-98411500D01*
X173420000Y-98454500D01*
X173436000Y-98499500D01*
X173449000Y-98544500D01*
X173460000Y-98590500D01*
X173469000Y-98636500D01*
X173475000Y-98683500D01*
X173479000Y-98730500D01*
X173480000Y-98777500D01*
X173480000Y-101277500D01*
X171680000Y-101277500D01*
X171680000Y-98777500D01*
X171681000Y-98730500D01*
X171685000Y-98683500D01*
X171691000Y-98636500D01*
X171700000Y-98590500D01*
X171711000Y-98544500D01*
X171724000Y-98499500D01*
X171740000Y-98454500D01*
X171758000Y-98411500D01*
X171778000Y-98368500D01*
X171801000Y-98327500D01*
X171825000Y-98287500D01*
X171852000Y-98248500D01*
X171881000Y-98211500D01*
X171911000Y-98175500D01*
X171944000Y-98141500D01*
X171978000Y-98108500D01*
X172014000Y-98078500D01*
X172051000Y-98049500D01*
X172090000Y-98022500D01*
X172130000Y-97998500D01*
X172171000Y-97975500D01*
X172214000Y-97955500D01*
X172257000Y-97937500D01*
X172302000Y-97921500D01*
X172347000Y-97908500D01*
X172393000Y-97897500D01*
X172439000Y-97888500D01*
X172486000Y-97882500D01*
X172533000Y-97878500D01*
X172580000Y-97877500D01*
X172627000Y-97878500D01*
G37*
X170087000Y-97878500D02*
X170134000Y-97882500D01*
X170181000Y-97888500D01*
X170227000Y-97897500D01*
X170273000Y-97908500D01*
X170318000Y-97921500D01*
X170363000Y-97937500D01*
X170406000Y-97955500D01*
X170449000Y-97975500D01*
X170490000Y-97998500D01*
X170530000Y-98022500D01*
X170569000Y-98049500D01*
X170606000Y-98078500D01*
X170642000Y-98108500D01*
X170676000Y-98141500D01*
X170709000Y-98175500D01*
X170739000Y-98211500D01*
X170768000Y-98248500D01*
X170795000Y-98287500D01*
X170819000Y-98327500D01*
X170842000Y-98368500D01*
X170862000Y-98411500D01*
X170880000Y-98454500D01*
X170896000Y-98499500D01*
X170909000Y-98544500D01*
X170920000Y-98590500D01*
X170929000Y-98636500D01*
X170935000Y-98683500D01*
X170939000Y-98730500D01*
X170940000Y-98777500D01*
X170940000Y-101277500D01*
X169140000Y-101277500D01*
X169140000Y-98777500D01*
X169141000Y-98730500D01*
X169145000Y-98683500D01*
X169151000Y-98636500D01*
X169160000Y-98590500D01*
X169171000Y-98544500D01*
X169184000Y-98499500D01*
X169200000Y-98454500D01*
X169218000Y-98411500D01*
X169238000Y-98368500D01*
X169261000Y-98327500D01*
X169285000Y-98287500D01*
X169312000Y-98248500D01*
X169341000Y-98211500D01*
X169371000Y-98175500D01*
X169404000Y-98141500D01*
X169438000Y-98108500D01*
X169474000Y-98078500D01*
X169511000Y-98049500D01*
X169550000Y-98022500D01*
X169590000Y-97998500D01*
X169631000Y-97975500D01*
X169674000Y-97955500D01*
X169717000Y-97937500D01*
X169762000Y-97921500D01*
X169807000Y-97908500D01*
X169853000Y-97897500D01*
X169899000Y-97888500D01*
X169946000Y-97882500D01*
X169993000Y-97878500D01*
X170040000Y-97877500D01*
X170087000Y-97878500D01*
G36*
X170087000Y-97878500D02*
G01*
X170134000Y-97882500D01*
X170181000Y-97888500D01*
X170227000Y-97897500D01*
X170273000Y-97908500D01*
X170318000Y-97921500D01*
X170363000Y-97937500D01*
X170406000Y-97955500D01*
X170449000Y-97975500D01*
X170490000Y-97998500D01*
X170530000Y-98022500D01*
X170569000Y-98049500D01*
X170606000Y-98078500D01*
X170642000Y-98108500D01*
X170676000Y-98141500D01*
X170709000Y-98175500D01*
X170739000Y-98211500D01*
X170768000Y-98248500D01*
X170795000Y-98287500D01*
X170819000Y-98327500D01*
X170842000Y-98368500D01*
X170862000Y-98411500D01*
X170880000Y-98454500D01*
X170896000Y-98499500D01*
X170909000Y-98544500D01*
X170920000Y-98590500D01*
X170929000Y-98636500D01*
X170935000Y-98683500D01*
X170939000Y-98730500D01*
X170940000Y-98777500D01*
X170940000Y-101277500D01*
X169140000Y-101277500D01*
X169140000Y-98777500D01*
X169141000Y-98730500D01*
X169145000Y-98683500D01*
X169151000Y-98636500D01*
X169160000Y-98590500D01*
X169171000Y-98544500D01*
X169184000Y-98499500D01*
X169200000Y-98454500D01*
X169218000Y-98411500D01*
X169238000Y-98368500D01*
X169261000Y-98327500D01*
X169285000Y-98287500D01*
X169312000Y-98248500D01*
X169341000Y-98211500D01*
X169371000Y-98175500D01*
X169404000Y-98141500D01*
X169438000Y-98108500D01*
X169474000Y-98078500D01*
X169511000Y-98049500D01*
X169550000Y-98022500D01*
X169590000Y-97998500D01*
X169631000Y-97975500D01*
X169674000Y-97955500D01*
X169717000Y-97937500D01*
X169762000Y-97921500D01*
X169807000Y-97908500D01*
X169853000Y-97897500D01*
X169899000Y-97888500D01*
X169946000Y-97882500D01*
X169993000Y-97878500D01*
X170040000Y-97877500D01*
X170087000Y-97878500D01*
G37*
X165007000Y-97878500D02*
X165054000Y-97882500D01*
X165101000Y-97888500D01*
X165147000Y-97897500D01*
X165193000Y-97908500D01*
X165238000Y-97921500D01*
X165283000Y-97937500D01*
X165326000Y-97955500D01*
X165369000Y-97975500D01*
X165410000Y-97998500D01*
X165450000Y-98022500D01*
X165489000Y-98049500D01*
X165526000Y-98078500D01*
X165562000Y-98108500D01*
X165596000Y-98141500D01*
X165629000Y-98175500D01*
X165659000Y-98211500D01*
X165688000Y-98248500D01*
X165715000Y-98287500D01*
X165739000Y-98327500D01*
X165762000Y-98368500D01*
X165782000Y-98411500D01*
X165800000Y-98454500D01*
X165816000Y-98499500D01*
X165829000Y-98544500D01*
X165840000Y-98590500D01*
X165849000Y-98636500D01*
X165855000Y-98683500D01*
X165859000Y-98730500D01*
X165860000Y-98777500D01*
X165860000Y-101277500D01*
X164060000Y-101277500D01*
X164060000Y-98777500D01*
X164061000Y-98730500D01*
X164065000Y-98683500D01*
X164071000Y-98636500D01*
X164080000Y-98590500D01*
X164091000Y-98544500D01*
X164104000Y-98499500D01*
X164120000Y-98454500D01*
X164138000Y-98411500D01*
X164158000Y-98368500D01*
X164181000Y-98327500D01*
X164205000Y-98287500D01*
X164232000Y-98248500D01*
X164261000Y-98211500D01*
X164291000Y-98175500D01*
X164324000Y-98141500D01*
X164358000Y-98108500D01*
X164394000Y-98078500D01*
X164431000Y-98049500D01*
X164470000Y-98022500D01*
X164510000Y-97998500D01*
X164551000Y-97975500D01*
X164594000Y-97955500D01*
X164637000Y-97937500D01*
X164682000Y-97921500D01*
X164727000Y-97908500D01*
X164773000Y-97897500D01*
X164819000Y-97888500D01*
X164866000Y-97882500D01*
X164913000Y-97878500D01*
X164960000Y-97877500D01*
X165007000Y-97878500D01*
G36*
X165007000Y-97878500D02*
G01*
X165054000Y-97882500D01*
X165101000Y-97888500D01*
X165147000Y-97897500D01*
X165193000Y-97908500D01*
X165238000Y-97921500D01*
X165283000Y-97937500D01*
X165326000Y-97955500D01*
X165369000Y-97975500D01*
X165410000Y-97998500D01*
X165450000Y-98022500D01*
X165489000Y-98049500D01*
X165526000Y-98078500D01*
X165562000Y-98108500D01*
X165596000Y-98141500D01*
X165629000Y-98175500D01*
X165659000Y-98211500D01*
X165688000Y-98248500D01*
X165715000Y-98287500D01*
X165739000Y-98327500D01*
X165762000Y-98368500D01*
X165782000Y-98411500D01*
X165800000Y-98454500D01*
X165816000Y-98499500D01*
X165829000Y-98544500D01*
X165840000Y-98590500D01*
X165849000Y-98636500D01*
X165855000Y-98683500D01*
X165859000Y-98730500D01*
X165860000Y-98777500D01*
X165860000Y-101277500D01*
X164060000Y-101277500D01*
X164060000Y-98777500D01*
X164061000Y-98730500D01*
X164065000Y-98683500D01*
X164071000Y-98636500D01*
X164080000Y-98590500D01*
X164091000Y-98544500D01*
X164104000Y-98499500D01*
X164120000Y-98454500D01*
X164138000Y-98411500D01*
X164158000Y-98368500D01*
X164181000Y-98327500D01*
X164205000Y-98287500D01*
X164232000Y-98248500D01*
X164261000Y-98211500D01*
X164291000Y-98175500D01*
X164324000Y-98141500D01*
X164358000Y-98108500D01*
X164394000Y-98078500D01*
X164431000Y-98049500D01*
X164470000Y-98022500D01*
X164510000Y-97998500D01*
X164551000Y-97975500D01*
X164594000Y-97955500D01*
X164637000Y-97937500D01*
X164682000Y-97921500D01*
X164727000Y-97908500D01*
X164773000Y-97897500D01*
X164819000Y-97888500D01*
X164866000Y-97882500D01*
X164913000Y-97878500D01*
X164960000Y-97877500D01*
X165007000Y-97878500D01*
G37*
X162467000Y-97878500D02*
X162514000Y-97882500D01*
X162561000Y-97888500D01*
X162607000Y-97897500D01*
X162653000Y-97908500D01*
X162698000Y-97921500D01*
X162743000Y-97937500D01*
X162786000Y-97955500D01*
X162829000Y-97975500D01*
X162870000Y-97998500D01*
X162910000Y-98022500D01*
X162949000Y-98049500D01*
X162986000Y-98078500D01*
X163022000Y-98108500D01*
X163056000Y-98141500D01*
X163089000Y-98175500D01*
X163119000Y-98211500D01*
X163148000Y-98248500D01*
X163175000Y-98287500D01*
X163199000Y-98327500D01*
X163222000Y-98368500D01*
X163242000Y-98411500D01*
X163260000Y-98454500D01*
X163276000Y-98499500D01*
X163289000Y-98544500D01*
X163300000Y-98590500D01*
X163309000Y-98636500D01*
X163315000Y-98683500D01*
X163319000Y-98730500D01*
X163320000Y-98777500D01*
X163320000Y-101277500D01*
X161520000Y-101277500D01*
X161520000Y-98777500D01*
X161521000Y-98730500D01*
X161525000Y-98683500D01*
X161531000Y-98636500D01*
X161540000Y-98590500D01*
X161551000Y-98544500D01*
X161564000Y-98499500D01*
X161580000Y-98454500D01*
X161598000Y-98411500D01*
X161618000Y-98368500D01*
X161641000Y-98327500D01*
X161665000Y-98287500D01*
X161692000Y-98248500D01*
X161721000Y-98211500D01*
X161751000Y-98175500D01*
X161784000Y-98141500D01*
X161818000Y-98108500D01*
X161854000Y-98078500D01*
X161891000Y-98049500D01*
X161930000Y-98022500D01*
X161970000Y-97998500D01*
X162011000Y-97975500D01*
X162054000Y-97955500D01*
X162097000Y-97937500D01*
X162142000Y-97921500D01*
X162187000Y-97908500D01*
X162233000Y-97897500D01*
X162279000Y-97888500D01*
X162326000Y-97882500D01*
X162373000Y-97878500D01*
X162420000Y-97877500D01*
X162467000Y-97878500D01*
G36*
X162467000Y-97878500D02*
G01*
X162514000Y-97882500D01*
X162561000Y-97888500D01*
X162607000Y-97897500D01*
X162653000Y-97908500D01*
X162698000Y-97921500D01*
X162743000Y-97937500D01*
X162786000Y-97955500D01*
X162829000Y-97975500D01*
X162870000Y-97998500D01*
X162910000Y-98022500D01*
X162949000Y-98049500D01*
X162986000Y-98078500D01*
X163022000Y-98108500D01*
X163056000Y-98141500D01*
X163089000Y-98175500D01*
X163119000Y-98211500D01*
X163148000Y-98248500D01*
X163175000Y-98287500D01*
X163199000Y-98327500D01*
X163222000Y-98368500D01*
X163242000Y-98411500D01*
X163260000Y-98454500D01*
X163276000Y-98499500D01*
X163289000Y-98544500D01*
X163300000Y-98590500D01*
X163309000Y-98636500D01*
X163315000Y-98683500D01*
X163319000Y-98730500D01*
X163320000Y-98777500D01*
X163320000Y-101277500D01*
X161520000Y-101277500D01*
X161520000Y-98777500D01*
X161521000Y-98730500D01*
X161525000Y-98683500D01*
X161531000Y-98636500D01*
X161540000Y-98590500D01*
X161551000Y-98544500D01*
X161564000Y-98499500D01*
X161580000Y-98454500D01*
X161598000Y-98411500D01*
X161618000Y-98368500D01*
X161641000Y-98327500D01*
X161665000Y-98287500D01*
X161692000Y-98248500D01*
X161721000Y-98211500D01*
X161751000Y-98175500D01*
X161784000Y-98141500D01*
X161818000Y-98108500D01*
X161854000Y-98078500D01*
X161891000Y-98049500D01*
X161930000Y-98022500D01*
X161970000Y-97998500D01*
X162011000Y-97975500D01*
X162054000Y-97955500D01*
X162097000Y-97937500D01*
X162142000Y-97921500D01*
X162187000Y-97908500D01*
X162233000Y-97897500D01*
X162279000Y-97888500D01*
X162326000Y-97882500D01*
X162373000Y-97878500D01*
X162420000Y-97877500D01*
X162467000Y-97878500D01*
G37*
X159927000Y-97878500D02*
X159974000Y-97882500D01*
X160021000Y-97888500D01*
X160067000Y-97897500D01*
X160113000Y-97908500D01*
X160158000Y-97921500D01*
X160203000Y-97937500D01*
X160246000Y-97955500D01*
X160289000Y-97975500D01*
X160330000Y-97998500D01*
X160370000Y-98022500D01*
X160409000Y-98049500D01*
X160446000Y-98078500D01*
X160482000Y-98108500D01*
X160516000Y-98141500D01*
X160549000Y-98175500D01*
X160579000Y-98211500D01*
X160608000Y-98248500D01*
X160635000Y-98287500D01*
X160659000Y-98327500D01*
X160682000Y-98368500D01*
X160702000Y-98411500D01*
X160720000Y-98454500D01*
X160736000Y-98499500D01*
X160749000Y-98544500D01*
X160760000Y-98590500D01*
X160769000Y-98636500D01*
X160775000Y-98683500D01*
X160779000Y-98730500D01*
X160780000Y-98777500D01*
X160780000Y-101277500D01*
X158980000Y-101277500D01*
X158980000Y-98777500D01*
X158981000Y-98730500D01*
X158985000Y-98683500D01*
X158991000Y-98636500D01*
X159000000Y-98590500D01*
X159011000Y-98544500D01*
X159024000Y-98499500D01*
X159040000Y-98454500D01*
X159058000Y-98411500D01*
X159078000Y-98368500D01*
X159101000Y-98327500D01*
X159125000Y-98287500D01*
X159152000Y-98248500D01*
X159181000Y-98211500D01*
X159211000Y-98175500D01*
X159244000Y-98141500D01*
X159278000Y-98108500D01*
X159314000Y-98078500D01*
X159351000Y-98049500D01*
X159390000Y-98022500D01*
X159430000Y-97998500D01*
X159471000Y-97975500D01*
X159514000Y-97955500D01*
X159557000Y-97937500D01*
X159602000Y-97921500D01*
X159647000Y-97908500D01*
X159693000Y-97897500D01*
X159739000Y-97888500D01*
X159786000Y-97882500D01*
X159833000Y-97878500D01*
X159880000Y-97877500D01*
X159927000Y-97878500D01*
G36*
X159927000Y-97878500D02*
G01*
X159974000Y-97882500D01*
X160021000Y-97888500D01*
X160067000Y-97897500D01*
X160113000Y-97908500D01*
X160158000Y-97921500D01*
X160203000Y-97937500D01*
X160246000Y-97955500D01*
X160289000Y-97975500D01*
X160330000Y-97998500D01*
X160370000Y-98022500D01*
X160409000Y-98049500D01*
X160446000Y-98078500D01*
X160482000Y-98108500D01*
X160516000Y-98141500D01*
X160549000Y-98175500D01*
X160579000Y-98211500D01*
X160608000Y-98248500D01*
X160635000Y-98287500D01*
X160659000Y-98327500D01*
X160682000Y-98368500D01*
X160702000Y-98411500D01*
X160720000Y-98454500D01*
X160736000Y-98499500D01*
X160749000Y-98544500D01*
X160760000Y-98590500D01*
X160769000Y-98636500D01*
X160775000Y-98683500D01*
X160779000Y-98730500D01*
X160780000Y-98777500D01*
X160780000Y-101277500D01*
X158980000Y-101277500D01*
X158980000Y-98777500D01*
X158981000Y-98730500D01*
X158985000Y-98683500D01*
X158991000Y-98636500D01*
X159000000Y-98590500D01*
X159011000Y-98544500D01*
X159024000Y-98499500D01*
X159040000Y-98454500D01*
X159058000Y-98411500D01*
X159078000Y-98368500D01*
X159101000Y-98327500D01*
X159125000Y-98287500D01*
X159152000Y-98248500D01*
X159181000Y-98211500D01*
X159211000Y-98175500D01*
X159244000Y-98141500D01*
X159278000Y-98108500D01*
X159314000Y-98078500D01*
X159351000Y-98049500D01*
X159390000Y-98022500D01*
X159430000Y-97998500D01*
X159471000Y-97975500D01*
X159514000Y-97955500D01*
X159557000Y-97937500D01*
X159602000Y-97921500D01*
X159647000Y-97908500D01*
X159693000Y-97897500D01*
X159739000Y-97888500D01*
X159786000Y-97882500D01*
X159833000Y-97878500D01*
X159880000Y-97877500D01*
X159927000Y-97878500D01*
G37*
X157387000Y-97878500D02*
X157434000Y-97882500D01*
X157481000Y-97888500D01*
X157527000Y-97897500D01*
X157573000Y-97908500D01*
X157618000Y-97921500D01*
X157663000Y-97937500D01*
X157706000Y-97955500D01*
X157749000Y-97975500D01*
X157790000Y-97998500D01*
X157830000Y-98022500D01*
X157869000Y-98049500D01*
X157906000Y-98078500D01*
X157942000Y-98108500D01*
X157976000Y-98141500D01*
X158009000Y-98175500D01*
X158039000Y-98211500D01*
X158068000Y-98248500D01*
X158095000Y-98287500D01*
X158119000Y-98327500D01*
X158142000Y-98368500D01*
X158162000Y-98411500D01*
X158180000Y-98454500D01*
X158196000Y-98499500D01*
X158209000Y-98544500D01*
X158220000Y-98590500D01*
X158229000Y-98636500D01*
X158235000Y-98683500D01*
X158239000Y-98730500D01*
X158240000Y-98777500D01*
X158240000Y-101277500D01*
X156440000Y-101277500D01*
X156440000Y-98777500D01*
X156441000Y-98730500D01*
X156445000Y-98683500D01*
X156451000Y-98636500D01*
X156460000Y-98590500D01*
X156471000Y-98544500D01*
X156484000Y-98499500D01*
X156500000Y-98454500D01*
X156518000Y-98411500D01*
X156538000Y-98368500D01*
X156561000Y-98327500D01*
X156585000Y-98287500D01*
X156612000Y-98248500D01*
X156641000Y-98211500D01*
X156671000Y-98175500D01*
X156704000Y-98141500D01*
X156738000Y-98108500D01*
X156774000Y-98078500D01*
X156811000Y-98049500D01*
X156850000Y-98022500D01*
X156890000Y-97998500D01*
X156931000Y-97975500D01*
X156974000Y-97955500D01*
X157017000Y-97937500D01*
X157062000Y-97921500D01*
X157107000Y-97908500D01*
X157153000Y-97897500D01*
X157199000Y-97888500D01*
X157246000Y-97882500D01*
X157293000Y-97878500D01*
X157340000Y-97877500D01*
X157387000Y-97878500D01*
G36*
X157387000Y-97878500D02*
G01*
X157434000Y-97882500D01*
X157481000Y-97888500D01*
X157527000Y-97897500D01*
X157573000Y-97908500D01*
X157618000Y-97921500D01*
X157663000Y-97937500D01*
X157706000Y-97955500D01*
X157749000Y-97975500D01*
X157790000Y-97998500D01*
X157830000Y-98022500D01*
X157869000Y-98049500D01*
X157906000Y-98078500D01*
X157942000Y-98108500D01*
X157976000Y-98141500D01*
X158009000Y-98175500D01*
X158039000Y-98211500D01*
X158068000Y-98248500D01*
X158095000Y-98287500D01*
X158119000Y-98327500D01*
X158142000Y-98368500D01*
X158162000Y-98411500D01*
X158180000Y-98454500D01*
X158196000Y-98499500D01*
X158209000Y-98544500D01*
X158220000Y-98590500D01*
X158229000Y-98636500D01*
X158235000Y-98683500D01*
X158239000Y-98730500D01*
X158240000Y-98777500D01*
X158240000Y-101277500D01*
X156440000Y-101277500D01*
X156440000Y-98777500D01*
X156441000Y-98730500D01*
X156445000Y-98683500D01*
X156451000Y-98636500D01*
X156460000Y-98590500D01*
X156471000Y-98544500D01*
X156484000Y-98499500D01*
X156500000Y-98454500D01*
X156518000Y-98411500D01*
X156538000Y-98368500D01*
X156561000Y-98327500D01*
X156585000Y-98287500D01*
X156612000Y-98248500D01*
X156641000Y-98211500D01*
X156671000Y-98175500D01*
X156704000Y-98141500D01*
X156738000Y-98108500D01*
X156774000Y-98078500D01*
X156811000Y-98049500D01*
X156850000Y-98022500D01*
X156890000Y-97998500D01*
X156931000Y-97975500D01*
X156974000Y-97955500D01*
X157017000Y-97937500D01*
X157062000Y-97921500D01*
X157107000Y-97908500D01*
X157153000Y-97897500D01*
X157199000Y-97888500D01*
X157246000Y-97882500D01*
X157293000Y-97878500D01*
X157340000Y-97877500D01*
X157387000Y-97878500D01*
G37*
X152307000Y-97878500D02*
X152354000Y-97882500D01*
X152401000Y-97888500D01*
X152447000Y-97897500D01*
X152493000Y-97908500D01*
X152538000Y-97921500D01*
X152583000Y-97937500D01*
X152626000Y-97955500D01*
X152669000Y-97975500D01*
X152710000Y-97998500D01*
X152750000Y-98022500D01*
X152789000Y-98049500D01*
X152826000Y-98078500D01*
X152862000Y-98108500D01*
X152896000Y-98141500D01*
X152929000Y-98175500D01*
X152959000Y-98211500D01*
X152988000Y-98248500D01*
X153015000Y-98287500D01*
X153039000Y-98327500D01*
X153062000Y-98368500D01*
X153082000Y-98411500D01*
X153100000Y-98454500D01*
X153116000Y-98499500D01*
X153129000Y-98544500D01*
X153140000Y-98590500D01*
X153149000Y-98636500D01*
X153155000Y-98683500D01*
X153159000Y-98730500D01*
X153160000Y-98777500D01*
X153160000Y-101277500D01*
X151360000Y-101277500D01*
X151360000Y-98777500D01*
X151361000Y-98730500D01*
X151365000Y-98683500D01*
X151371000Y-98636500D01*
X151380000Y-98590500D01*
X151391000Y-98544500D01*
X151404000Y-98499500D01*
X151420000Y-98454500D01*
X151438000Y-98411500D01*
X151458000Y-98368500D01*
X151481000Y-98327500D01*
X151505000Y-98287500D01*
X151532000Y-98248500D01*
X151561000Y-98211500D01*
X151591000Y-98175500D01*
X151624000Y-98141500D01*
X151658000Y-98108500D01*
X151694000Y-98078500D01*
X151731000Y-98049500D01*
X151770000Y-98022500D01*
X151810000Y-97998500D01*
X151851000Y-97975500D01*
X151894000Y-97955500D01*
X151937000Y-97937500D01*
X151982000Y-97921500D01*
X152027000Y-97908500D01*
X152073000Y-97897500D01*
X152119000Y-97888500D01*
X152166000Y-97882500D01*
X152213000Y-97878500D01*
X152260000Y-97877500D01*
X152307000Y-97878500D01*
G36*
X152307000Y-97878500D02*
G01*
X152354000Y-97882500D01*
X152401000Y-97888500D01*
X152447000Y-97897500D01*
X152493000Y-97908500D01*
X152538000Y-97921500D01*
X152583000Y-97937500D01*
X152626000Y-97955500D01*
X152669000Y-97975500D01*
X152710000Y-97998500D01*
X152750000Y-98022500D01*
X152789000Y-98049500D01*
X152826000Y-98078500D01*
X152862000Y-98108500D01*
X152896000Y-98141500D01*
X152929000Y-98175500D01*
X152959000Y-98211500D01*
X152988000Y-98248500D01*
X153015000Y-98287500D01*
X153039000Y-98327500D01*
X153062000Y-98368500D01*
X153082000Y-98411500D01*
X153100000Y-98454500D01*
X153116000Y-98499500D01*
X153129000Y-98544500D01*
X153140000Y-98590500D01*
X153149000Y-98636500D01*
X153155000Y-98683500D01*
X153159000Y-98730500D01*
X153160000Y-98777500D01*
X153160000Y-101277500D01*
X151360000Y-101277500D01*
X151360000Y-98777500D01*
X151361000Y-98730500D01*
X151365000Y-98683500D01*
X151371000Y-98636500D01*
X151380000Y-98590500D01*
X151391000Y-98544500D01*
X151404000Y-98499500D01*
X151420000Y-98454500D01*
X151438000Y-98411500D01*
X151458000Y-98368500D01*
X151481000Y-98327500D01*
X151505000Y-98287500D01*
X151532000Y-98248500D01*
X151561000Y-98211500D01*
X151591000Y-98175500D01*
X151624000Y-98141500D01*
X151658000Y-98108500D01*
X151694000Y-98078500D01*
X151731000Y-98049500D01*
X151770000Y-98022500D01*
X151810000Y-97998500D01*
X151851000Y-97975500D01*
X151894000Y-97955500D01*
X151937000Y-97937500D01*
X151982000Y-97921500D01*
X152027000Y-97908500D01*
X152073000Y-97897500D01*
X152119000Y-97888500D01*
X152166000Y-97882500D01*
X152213000Y-97878500D01*
X152260000Y-97877500D01*
X152307000Y-97878500D01*
G37*
X149767000Y-97878500D02*
X149814000Y-97882500D01*
X149861000Y-97888500D01*
X149907000Y-97897500D01*
X149953000Y-97908500D01*
X149998000Y-97921500D01*
X150043000Y-97937500D01*
X150086000Y-97955500D01*
X150129000Y-97975500D01*
X150170000Y-97998500D01*
X150210000Y-98022500D01*
X150249000Y-98049500D01*
X150286000Y-98078500D01*
X150322000Y-98108500D01*
X150356000Y-98141500D01*
X150389000Y-98175500D01*
X150419000Y-98211500D01*
X150448000Y-98248500D01*
X150475000Y-98287500D01*
X150499000Y-98327500D01*
X150522000Y-98368500D01*
X150542000Y-98411500D01*
X150560000Y-98454500D01*
X150576000Y-98499500D01*
X150589000Y-98544500D01*
X150600000Y-98590500D01*
X150609000Y-98636500D01*
X150615000Y-98683500D01*
X150619000Y-98730500D01*
X150620000Y-98777500D01*
X150620000Y-101277500D01*
X148820000Y-101277500D01*
X148820000Y-98777500D01*
X148821000Y-98730500D01*
X148825000Y-98683500D01*
X148831000Y-98636500D01*
X148840000Y-98590500D01*
X148851000Y-98544500D01*
X148864000Y-98499500D01*
X148880000Y-98454500D01*
X148898000Y-98411500D01*
X148918000Y-98368500D01*
X148941000Y-98327500D01*
X148965000Y-98287500D01*
X148992000Y-98248500D01*
X149021000Y-98211500D01*
X149051000Y-98175500D01*
X149084000Y-98141500D01*
X149118000Y-98108500D01*
X149154000Y-98078500D01*
X149191000Y-98049500D01*
X149230000Y-98022500D01*
X149270000Y-97998500D01*
X149311000Y-97975500D01*
X149354000Y-97955500D01*
X149397000Y-97937500D01*
X149442000Y-97921500D01*
X149487000Y-97908500D01*
X149533000Y-97897500D01*
X149579000Y-97888500D01*
X149626000Y-97882500D01*
X149673000Y-97878500D01*
X149720000Y-97877500D01*
X149767000Y-97878500D01*
G36*
X149767000Y-97878500D02*
G01*
X149814000Y-97882500D01*
X149861000Y-97888500D01*
X149907000Y-97897500D01*
X149953000Y-97908500D01*
X149998000Y-97921500D01*
X150043000Y-97937500D01*
X150086000Y-97955500D01*
X150129000Y-97975500D01*
X150170000Y-97998500D01*
X150210000Y-98022500D01*
X150249000Y-98049500D01*
X150286000Y-98078500D01*
X150322000Y-98108500D01*
X150356000Y-98141500D01*
X150389000Y-98175500D01*
X150419000Y-98211500D01*
X150448000Y-98248500D01*
X150475000Y-98287500D01*
X150499000Y-98327500D01*
X150522000Y-98368500D01*
X150542000Y-98411500D01*
X150560000Y-98454500D01*
X150576000Y-98499500D01*
X150589000Y-98544500D01*
X150600000Y-98590500D01*
X150609000Y-98636500D01*
X150615000Y-98683500D01*
X150619000Y-98730500D01*
X150620000Y-98777500D01*
X150620000Y-101277500D01*
X148820000Y-101277500D01*
X148820000Y-98777500D01*
X148821000Y-98730500D01*
X148825000Y-98683500D01*
X148831000Y-98636500D01*
X148840000Y-98590500D01*
X148851000Y-98544500D01*
X148864000Y-98499500D01*
X148880000Y-98454500D01*
X148898000Y-98411500D01*
X148918000Y-98368500D01*
X148941000Y-98327500D01*
X148965000Y-98287500D01*
X148992000Y-98248500D01*
X149021000Y-98211500D01*
X149051000Y-98175500D01*
X149084000Y-98141500D01*
X149118000Y-98108500D01*
X149154000Y-98078500D01*
X149191000Y-98049500D01*
X149230000Y-98022500D01*
X149270000Y-97998500D01*
X149311000Y-97975500D01*
X149354000Y-97955500D01*
X149397000Y-97937500D01*
X149442000Y-97921500D01*
X149487000Y-97908500D01*
X149533000Y-97897500D01*
X149579000Y-97888500D01*
X149626000Y-97882500D01*
X149673000Y-97878500D01*
X149720000Y-97877500D01*
X149767000Y-97878500D01*
G37*
X147227000Y-97878500D02*
X147274000Y-97882500D01*
X147321000Y-97888500D01*
X147367000Y-97897500D01*
X147413000Y-97908500D01*
X147458000Y-97921500D01*
X147503000Y-97937500D01*
X147546000Y-97955500D01*
X147589000Y-97975500D01*
X147630000Y-97998500D01*
X147670000Y-98022500D01*
X147709000Y-98049500D01*
X147746000Y-98078500D01*
X147782000Y-98108500D01*
X147816000Y-98141500D01*
X147849000Y-98175500D01*
X147879000Y-98211500D01*
X147908000Y-98248500D01*
X147935000Y-98287500D01*
X147959000Y-98327500D01*
X147982000Y-98368500D01*
X148002000Y-98411500D01*
X148020000Y-98454500D01*
X148036000Y-98499500D01*
X148049000Y-98544500D01*
X148060000Y-98590500D01*
X148069000Y-98636500D01*
X148075000Y-98683500D01*
X148079000Y-98730500D01*
X148080000Y-98777500D01*
X148080000Y-101277500D01*
X146280000Y-101277500D01*
X146280000Y-98777500D01*
X146281000Y-98730500D01*
X146285000Y-98683500D01*
X146291000Y-98636500D01*
X146300000Y-98590500D01*
X146311000Y-98544500D01*
X146324000Y-98499500D01*
X146340000Y-98454500D01*
X146358000Y-98411500D01*
X146378000Y-98368500D01*
X146401000Y-98327500D01*
X146425000Y-98287500D01*
X146452000Y-98248500D01*
X146481000Y-98211500D01*
X146511000Y-98175500D01*
X146544000Y-98141500D01*
X146578000Y-98108500D01*
X146614000Y-98078500D01*
X146651000Y-98049500D01*
X146690000Y-98022500D01*
X146730000Y-97998500D01*
X146771000Y-97975500D01*
X146814000Y-97955500D01*
X146857000Y-97937500D01*
X146902000Y-97921500D01*
X146947000Y-97908500D01*
X146993000Y-97897500D01*
X147039000Y-97888500D01*
X147086000Y-97882500D01*
X147133000Y-97878500D01*
X147180000Y-97877500D01*
X147227000Y-97878500D01*
G36*
X147227000Y-97878500D02*
G01*
X147274000Y-97882500D01*
X147321000Y-97888500D01*
X147367000Y-97897500D01*
X147413000Y-97908500D01*
X147458000Y-97921500D01*
X147503000Y-97937500D01*
X147546000Y-97955500D01*
X147589000Y-97975500D01*
X147630000Y-97998500D01*
X147670000Y-98022500D01*
X147709000Y-98049500D01*
X147746000Y-98078500D01*
X147782000Y-98108500D01*
X147816000Y-98141500D01*
X147849000Y-98175500D01*
X147879000Y-98211500D01*
X147908000Y-98248500D01*
X147935000Y-98287500D01*
X147959000Y-98327500D01*
X147982000Y-98368500D01*
X148002000Y-98411500D01*
X148020000Y-98454500D01*
X148036000Y-98499500D01*
X148049000Y-98544500D01*
X148060000Y-98590500D01*
X148069000Y-98636500D01*
X148075000Y-98683500D01*
X148079000Y-98730500D01*
X148080000Y-98777500D01*
X148080000Y-101277500D01*
X146280000Y-101277500D01*
X146280000Y-98777500D01*
X146281000Y-98730500D01*
X146285000Y-98683500D01*
X146291000Y-98636500D01*
X146300000Y-98590500D01*
X146311000Y-98544500D01*
X146324000Y-98499500D01*
X146340000Y-98454500D01*
X146358000Y-98411500D01*
X146378000Y-98368500D01*
X146401000Y-98327500D01*
X146425000Y-98287500D01*
X146452000Y-98248500D01*
X146481000Y-98211500D01*
X146511000Y-98175500D01*
X146544000Y-98141500D01*
X146578000Y-98108500D01*
X146614000Y-98078500D01*
X146651000Y-98049500D01*
X146690000Y-98022500D01*
X146730000Y-97998500D01*
X146771000Y-97975500D01*
X146814000Y-97955500D01*
X146857000Y-97937500D01*
X146902000Y-97921500D01*
X146947000Y-97908500D01*
X146993000Y-97897500D01*
X147039000Y-97888500D01*
X147086000Y-97882500D01*
X147133000Y-97878500D01*
X147180000Y-97877500D01*
X147227000Y-97878500D01*
G37*
X144687000Y-97878500D02*
X144734000Y-97882500D01*
X144781000Y-97888500D01*
X144827000Y-97897500D01*
X144873000Y-97908500D01*
X144918000Y-97921500D01*
X144963000Y-97937500D01*
X145006000Y-97955500D01*
X145049000Y-97975500D01*
X145090000Y-97998500D01*
X145130000Y-98022500D01*
X145169000Y-98049500D01*
X145206000Y-98078500D01*
X145242000Y-98108500D01*
X145276000Y-98141500D01*
X145309000Y-98175500D01*
X145339000Y-98211500D01*
X145368000Y-98248500D01*
X145395000Y-98287500D01*
X145419000Y-98327500D01*
X145442000Y-98368500D01*
X145462000Y-98411500D01*
X145480000Y-98454500D01*
X145496000Y-98499500D01*
X145509000Y-98544500D01*
X145520000Y-98590500D01*
X145529000Y-98636500D01*
X145535000Y-98683500D01*
X145539000Y-98730500D01*
X145540000Y-98777500D01*
X145540000Y-101277500D01*
X143740000Y-101277500D01*
X143740000Y-98777500D01*
X143741000Y-98730500D01*
X143745000Y-98683500D01*
X143751000Y-98636500D01*
X143760000Y-98590500D01*
X143771000Y-98544500D01*
X143784000Y-98499500D01*
X143800000Y-98454500D01*
X143818000Y-98411500D01*
X143838000Y-98368500D01*
X143861000Y-98327500D01*
X143885000Y-98287500D01*
X143912000Y-98248500D01*
X143941000Y-98211500D01*
X143971000Y-98175500D01*
X144004000Y-98141500D01*
X144038000Y-98108500D01*
X144074000Y-98078500D01*
X144111000Y-98049500D01*
X144150000Y-98022500D01*
X144190000Y-97998500D01*
X144231000Y-97975500D01*
X144274000Y-97955500D01*
X144317000Y-97937500D01*
X144362000Y-97921500D01*
X144407000Y-97908500D01*
X144453000Y-97897500D01*
X144499000Y-97888500D01*
X144546000Y-97882500D01*
X144593000Y-97878500D01*
X144640000Y-97877500D01*
X144687000Y-97878500D01*
G36*
X144687000Y-97878500D02*
G01*
X144734000Y-97882500D01*
X144781000Y-97888500D01*
X144827000Y-97897500D01*
X144873000Y-97908500D01*
X144918000Y-97921500D01*
X144963000Y-97937500D01*
X145006000Y-97955500D01*
X145049000Y-97975500D01*
X145090000Y-97998500D01*
X145130000Y-98022500D01*
X145169000Y-98049500D01*
X145206000Y-98078500D01*
X145242000Y-98108500D01*
X145276000Y-98141500D01*
X145309000Y-98175500D01*
X145339000Y-98211500D01*
X145368000Y-98248500D01*
X145395000Y-98287500D01*
X145419000Y-98327500D01*
X145442000Y-98368500D01*
X145462000Y-98411500D01*
X145480000Y-98454500D01*
X145496000Y-98499500D01*
X145509000Y-98544500D01*
X145520000Y-98590500D01*
X145529000Y-98636500D01*
X145535000Y-98683500D01*
X145539000Y-98730500D01*
X145540000Y-98777500D01*
X145540000Y-101277500D01*
X143740000Y-101277500D01*
X143740000Y-98777500D01*
X143741000Y-98730500D01*
X143745000Y-98683500D01*
X143751000Y-98636500D01*
X143760000Y-98590500D01*
X143771000Y-98544500D01*
X143784000Y-98499500D01*
X143800000Y-98454500D01*
X143818000Y-98411500D01*
X143838000Y-98368500D01*
X143861000Y-98327500D01*
X143885000Y-98287500D01*
X143912000Y-98248500D01*
X143941000Y-98211500D01*
X143971000Y-98175500D01*
X144004000Y-98141500D01*
X144038000Y-98108500D01*
X144074000Y-98078500D01*
X144111000Y-98049500D01*
X144150000Y-98022500D01*
X144190000Y-97998500D01*
X144231000Y-97975500D01*
X144274000Y-97955500D01*
X144317000Y-97937500D01*
X144362000Y-97921500D01*
X144407000Y-97908500D01*
X144453000Y-97897500D01*
X144499000Y-97888500D01*
X144546000Y-97882500D01*
X144593000Y-97878500D01*
X144640000Y-97877500D01*
X144687000Y-97878500D01*
G37*
X139607000Y-97878500D02*
X139654000Y-97882500D01*
X139701000Y-97888500D01*
X139747000Y-97897500D01*
X139793000Y-97908500D01*
X139838000Y-97921500D01*
X139883000Y-97937500D01*
X139926000Y-97955500D01*
X139969000Y-97975500D01*
X140010000Y-97998500D01*
X140050000Y-98022500D01*
X140089000Y-98049500D01*
X140126000Y-98078500D01*
X140162000Y-98108500D01*
X140196000Y-98141500D01*
X140229000Y-98175500D01*
X140259000Y-98211500D01*
X140288000Y-98248500D01*
X140315000Y-98287500D01*
X140339000Y-98327500D01*
X140362000Y-98368500D01*
X140382000Y-98411500D01*
X140400000Y-98454500D01*
X140416000Y-98499500D01*
X140429000Y-98544500D01*
X140440000Y-98590500D01*
X140449000Y-98636500D01*
X140455000Y-98683500D01*
X140459000Y-98730500D01*
X140460000Y-98777500D01*
X140460000Y-101277500D01*
X138660000Y-101277500D01*
X138660000Y-98777500D01*
X138661000Y-98730500D01*
X138665000Y-98683500D01*
X138671000Y-98636500D01*
X138680000Y-98590500D01*
X138691000Y-98544500D01*
X138704000Y-98499500D01*
X138720000Y-98454500D01*
X138738000Y-98411500D01*
X138758000Y-98368500D01*
X138781000Y-98327500D01*
X138805000Y-98287500D01*
X138832000Y-98248500D01*
X138861000Y-98211500D01*
X138891000Y-98175500D01*
X138924000Y-98141500D01*
X138958000Y-98108500D01*
X138994000Y-98078500D01*
X139031000Y-98049500D01*
X139070000Y-98022500D01*
X139110000Y-97998500D01*
X139151000Y-97975500D01*
X139194000Y-97955500D01*
X139237000Y-97937500D01*
X139282000Y-97921500D01*
X139327000Y-97908500D01*
X139373000Y-97897500D01*
X139419000Y-97888500D01*
X139466000Y-97882500D01*
X139513000Y-97878500D01*
X139560000Y-97877500D01*
X139607000Y-97878500D01*
G36*
X139607000Y-97878500D02*
G01*
X139654000Y-97882500D01*
X139701000Y-97888500D01*
X139747000Y-97897500D01*
X139793000Y-97908500D01*
X139838000Y-97921500D01*
X139883000Y-97937500D01*
X139926000Y-97955500D01*
X139969000Y-97975500D01*
X140010000Y-97998500D01*
X140050000Y-98022500D01*
X140089000Y-98049500D01*
X140126000Y-98078500D01*
X140162000Y-98108500D01*
X140196000Y-98141500D01*
X140229000Y-98175500D01*
X140259000Y-98211500D01*
X140288000Y-98248500D01*
X140315000Y-98287500D01*
X140339000Y-98327500D01*
X140362000Y-98368500D01*
X140382000Y-98411500D01*
X140400000Y-98454500D01*
X140416000Y-98499500D01*
X140429000Y-98544500D01*
X140440000Y-98590500D01*
X140449000Y-98636500D01*
X140455000Y-98683500D01*
X140459000Y-98730500D01*
X140460000Y-98777500D01*
X140460000Y-101277500D01*
X138660000Y-101277500D01*
X138660000Y-98777500D01*
X138661000Y-98730500D01*
X138665000Y-98683500D01*
X138671000Y-98636500D01*
X138680000Y-98590500D01*
X138691000Y-98544500D01*
X138704000Y-98499500D01*
X138720000Y-98454500D01*
X138738000Y-98411500D01*
X138758000Y-98368500D01*
X138781000Y-98327500D01*
X138805000Y-98287500D01*
X138832000Y-98248500D01*
X138861000Y-98211500D01*
X138891000Y-98175500D01*
X138924000Y-98141500D01*
X138958000Y-98108500D01*
X138994000Y-98078500D01*
X139031000Y-98049500D01*
X139070000Y-98022500D01*
X139110000Y-97998500D01*
X139151000Y-97975500D01*
X139194000Y-97955500D01*
X139237000Y-97937500D01*
X139282000Y-97921500D01*
X139327000Y-97908500D01*
X139373000Y-97897500D01*
X139419000Y-97888500D01*
X139466000Y-97882500D01*
X139513000Y-97878500D01*
X139560000Y-97877500D01*
X139607000Y-97878500D01*
G37*
X137067000Y-97878500D02*
X137114000Y-97882500D01*
X137161000Y-97888500D01*
X137207000Y-97897500D01*
X137253000Y-97908500D01*
X137298000Y-97921500D01*
X137343000Y-97937500D01*
X137386000Y-97955500D01*
X137429000Y-97975500D01*
X137470000Y-97998500D01*
X137510000Y-98022500D01*
X137549000Y-98049500D01*
X137586000Y-98078500D01*
X137622000Y-98108500D01*
X137656000Y-98141500D01*
X137689000Y-98175500D01*
X137719000Y-98211500D01*
X137748000Y-98248500D01*
X137775000Y-98287500D01*
X137799000Y-98327500D01*
X137822000Y-98368500D01*
X137842000Y-98411500D01*
X137860000Y-98454500D01*
X137876000Y-98499500D01*
X137889000Y-98544500D01*
X137900000Y-98590500D01*
X137909000Y-98636500D01*
X137915000Y-98683500D01*
X137919000Y-98730500D01*
X137920000Y-98777500D01*
X137920000Y-101277500D01*
X136120000Y-101277500D01*
X136120000Y-98777500D01*
X136121000Y-98730500D01*
X136125000Y-98683500D01*
X136131000Y-98636500D01*
X136140000Y-98590500D01*
X136151000Y-98544500D01*
X136164000Y-98499500D01*
X136180000Y-98454500D01*
X136198000Y-98411500D01*
X136218000Y-98368500D01*
X136241000Y-98327500D01*
X136265000Y-98287500D01*
X136292000Y-98248500D01*
X136321000Y-98211500D01*
X136351000Y-98175500D01*
X136384000Y-98141500D01*
X136418000Y-98108500D01*
X136454000Y-98078500D01*
X136491000Y-98049500D01*
X136530000Y-98022500D01*
X136570000Y-97998500D01*
X136611000Y-97975500D01*
X136654000Y-97955500D01*
X136697000Y-97937500D01*
X136742000Y-97921500D01*
X136787000Y-97908500D01*
X136833000Y-97897500D01*
X136879000Y-97888500D01*
X136926000Y-97882500D01*
X136973000Y-97878500D01*
X137020000Y-97877500D01*
X137067000Y-97878500D01*
G36*
X137067000Y-97878500D02*
G01*
X137114000Y-97882500D01*
X137161000Y-97888500D01*
X137207000Y-97897500D01*
X137253000Y-97908500D01*
X137298000Y-97921500D01*
X137343000Y-97937500D01*
X137386000Y-97955500D01*
X137429000Y-97975500D01*
X137470000Y-97998500D01*
X137510000Y-98022500D01*
X137549000Y-98049500D01*
X137586000Y-98078500D01*
X137622000Y-98108500D01*
X137656000Y-98141500D01*
X137689000Y-98175500D01*
X137719000Y-98211500D01*
X137748000Y-98248500D01*
X137775000Y-98287500D01*
X137799000Y-98327500D01*
X137822000Y-98368500D01*
X137842000Y-98411500D01*
X137860000Y-98454500D01*
X137876000Y-98499500D01*
X137889000Y-98544500D01*
X137900000Y-98590500D01*
X137909000Y-98636500D01*
X137915000Y-98683500D01*
X137919000Y-98730500D01*
X137920000Y-98777500D01*
X137920000Y-101277500D01*
X136120000Y-101277500D01*
X136120000Y-98777500D01*
X136121000Y-98730500D01*
X136125000Y-98683500D01*
X136131000Y-98636500D01*
X136140000Y-98590500D01*
X136151000Y-98544500D01*
X136164000Y-98499500D01*
X136180000Y-98454500D01*
X136198000Y-98411500D01*
X136218000Y-98368500D01*
X136241000Y-98327500D01*
X136265000Y-98287500D01*
X136292000Y-98248500D01*
X136321000Y-98211500D01*
X136351000Y-98175500D01*
X136384000Y-98141500D01*
X136418000Y-98108500D01*
X136454000Y-98078500D01*
X136491000Y-98049500D01*
X136530000Y-98022500D01*
X136570000Y-97998500D01*
X136611000Y-97975500D01*
X136654000Y-97955500D01*
X136697000Y-97937500D01*
X136742000Y-97921500D01*
X136787000Y-97908500D01*
X136833000Y-97897500D01*
X136879000Y-97888500D01*
X136926000Y-97882500D01*
X136973000Y-97878500D01*
X137020000Y-97877500D01*
X137067000Y-97878500D01*
G37*
X134527000Y-97878500D02*
X134574000Y-97882500D01*
X134621000Y-97888500D01*
X134667000Y-97897500D01*
X134713000Y-97908500D01*
X134758000Y-97921500D01*
X134803000Y-97937500D01*
X134846000Y-97955500D01*
X134889000Y-97975500D01*
X134930000Y-97998500D01*
X134970000Y-98022500D01*
X135009000Y-98049500D01*
X135046000Y-98078500D01*
X135082000Y-98108500D01*
X135116000Y-98141500D01*
X135149000Y-98175500D01*
X135179000Y-98211500D01*
X135208000Y-98248500D01*
X135235000Y-98287500D01*
X135259000Y-98327500D01*
X135282000Y-98368500D01*
X135302000Y-98411500D01*
X135320000Y-98454500D01*
X135336000Y-98499500D01*
X135349000Y-98544500D01*
X135360000Y-98590500D01*
X135369000Y-98636500D01*
X135375000Y-98683500D01*
X135379000Y-98730500D01*
X135380000Y-98777500D01*
X135380000Y-101277500D01*
X133580000Y-101277500D01*
X133580000Y-98777500D01*
X133581000Y-98730500D01*
X133585000Y-98683500D01*
X133591000Y-98636500D01*
X133600000Y-98590500D01*
X133611000Y-98544500D01*
X133624000Y-98499500D01*
X133640000Y-98454500D01*
X133658000Y-98411500D01*
X133678000Y-98368500D01*
X133701000Y-98327500D01*
X133725000Y-98287500D01*
X133752000Y-98248500D01*
X133781000Y-98211500D01*
X133811000Y-98175500D01*
X133844000Y-98141500D01*
X133878000Y-98108500D01*
X133914000Y-98078500D01*
X133951000Y-98049500D01*
X133990000Y-98022500D01*
X134030000Y-97998500D01*
X134071000Y-97975500D01*
X134114000Y-97955500D01*
X134157000Y-97937500D01*
X134202000Y-97921500D01*
X134247000Y-97908500D01*
X134293000Y-97897500D01*
X134339000Y-97888500D01*
X134386000Y-97882500D01*
X134433000Y-97878500D01*
X134480000Y-97877500D01*
X134527000Y-97878500D01*
G36*
X134527000Y-97878500D02*
G01*
X134574000Y-97882500D01*
X134621000Y-97888500D01*
X134667000Y-97897500D01*
X134713000Y-97908500D01*
X134758000Y-97921500D01*
X134803000Y-97937500D01*
X134846000Y-97955500D01*
X134889000Y-97975500D01*
X134930000Y-97998500D01*
X134970000Y-98022500D01*
X135009000Y-98049500D01*
X135046000Y-98078500D01*
X135082000Y-98108500D01*
X135116000Y-98141500D01*
X135149000Y-98175500D01*
X135179000Y-98211500D01*
X135208000Y-98248500D01*
X135235000Y-98287500D01*
X135259000Y-98327500D01*
X135282000Y-98368500D01*
X135302000Y-98411500D01*
X135320000Y-98454500D01*
X135336000Y-98499500D01*
X135349000Y-98544500D01*
X135360000Y-98590500D01*
X135369000Y-98636500D01*
X135375000Y-98683500D01*
X135379000Y-98730500D01*
X135380000Y-98777500D01*
X135380000Y-101277500D01*
X133580000Y-101277500D01*
X133580000Y-98777500D01*
X133581000Y-98730500D01*
X133585000Y-98683500D01*
X133591000Y-98636500D01*
X133600000Y-98590500D01*
X133611000Y-98544500D01*
X133624000Y-98499500D01*
X133640000Y-98454500D01*
X133658000Y-98411500D01*
X133678000Y-98368500D01*
X133701000Y-98327500D01*
X133725000Y-98287500D01*
X133752000Y-98248500D01*
X133781000Y-98211500D01*
X133811000Y-98175500D01*
X133844000Y-98141500D01*
X133878000Y-98108500D01*
X133914000Y-98078500D01*
X133951000Y-98049500D01*
X133990000Y-98022500D01*
X134030000Y-97998500D01*
X134071000Y-97975500D01*
X134114000Y-97955500D01*
X134157000Y-97937500D01*
X134202000Y-97921500D01*
X134247000Y-97908500D01*
X134293000Y-97897500D01*
X134339000Y-97888500D01*
X134386000Y-97882500D01*
X134433000Y-97878500D01*
X134480000Y-97877500D01*
X134527000Y-97878500D01*
G37*
X131987000Y-97878500D02*
X132034000Y-97882500D01*
X132081000Y-97888500D01*
X132127000Y-97897500D01*
X132173000Y-97908500D01*
X132218000Y-97921500D01*
X132263000Y-97937500D01*
X132306000Y-97955500D01*
X132349000Y-97975500D01*
X132390000Y-97998500D01*
X132430000Y-98022500D01*
X132469000Y-98049500D01*
X132506000Y-98078500D01*
X132542000Y-98108500D01*
X132576000Y-98141500D01*
X132609000Y-98175500D01*
X132639000Y-98211500D01*
X132668000Y-98248500D01*
X132695000Y-98287500D01*
X132719000Y-98327500D01*
X132742000Y-98368500D01*
X132762000Y-98411500D01*
X132780000Y-98454500D01*
X132796000Y-98499500D01*
X132809000Y-98544500D01*
X132820000Y-98590500D01*
X132829000Y-98636500D01*
X132835000Y-98683500D01*
X132839000Y-98730500D01*
X132840000Y-98777500D01*
X132840000Y-101277500D01*
X131040000Y-101277500D01*
X131040000Y-98777500D01*
X131041000Y-98730500D01*
X131045000Y-98683500D01*
X131051000Y-98636500D01*
X131060000Y-98590500D01*
X131071000Y-98544500D01*
X131084000Y-98499500D01*
X131100000Y-98454500D01*
X131118000Y-98411500D01*
X131138000Y-98368500D01*
X131161000Y-98327500D01*
X131185000Y-98287500D01*
X131212000Y-98248500D01*
X131241000Y-98211500D01*
X131271000Y-98175500D01*
X131304000Y-98141500D01*
X131338000Y-98108500D01*
X131374000Y-98078500D01*
X131411000Y-98049500D01*
X131450000Y-98022500D01*
X131490000Y-97998500D01*
X131531000Y-97975500D01*
X131574000Y-97955500D01*
X131617000Y-97937500D01*
X131662000Y-97921500D01*
X131707000Y-97908500D01*
X131753000Y-97897500D01*
X131799000Y-97888500D01*
X131846000Y-97882500D01*
X131893000Y-97878500D01*
X131940000Y-97877500D01*
X131987000Y-97878500D01*
G36*
X131987000Y-97878500D02*
G01*
X132034000Y-97882500D01*
X132081000Y-97888500D01*
X132127000Y-97897500D01*
X132173000Y-97908500D01*
X132218000Y-97921500D01*
X132263000Y-97937500D01*
X132306000Y-97955500D01*
X132349000Y-97975500D01*
X132390000Y-97998500D01*
X132430000Y-98022500D01*
X132469000Y-98049500D01*
X132506000Y-98078500D01*
X132542000Y-98108500D01*
X132576000Y-98141500D01*
X132609000Y-98175500D01*
X132639000Y-98211500D01*
X132668000Y-98248500D01*
X132695000Y-98287500D01*
X132719000Y-98327500D01*
X132742000Y-98368500D01*
X132762000Y-98411500D01*
X132780000Y-98454500D01*
X132796000Y-98499500D01*
X132809000Y-98544500D01*
X132820000Y-98590500D01*
X132829000Y-98636500D01*
X132835000Y-98683500D01*
X132839000Y-98730500D01*
X132840000Y-98777500D01*
X132840000Y-101277500D01*
X131040000Y-101277500D01*
X131040000Y-98777500D01*
X131041000Y-98730500D01*
X131045000Y-98683500D01*
X131051000Y-98636500D01*
X131060000Y-98590500D01*
X131071000Y-98544500D01*
X131084000Y-98499500D01*
X131100000Y-98454500D01*
X131118000Y-98411500D01*
X131138000Y-98368500D01*
X131161000Y-98327500D01*
X131185000Y-98287500D01*
X131212000Y-98248500D01*
X131241000Y-98211500D01*
X131271000Y-98175500D01*
X131304000Y-98141500D01*
X131338000Y-98108500D01*
X131374000Y-98078500D01*
X131411000Y-98049500D01*
X131450000Y-98022500D01*
X131490000Y-97998500D01*
X131531000Y-97975500D01*
X131574000Y-97955500D01*
X131617000Y-97937500D01*
X131662000Y-97921500D01*
X131707000Y-97908500D01*
X131753000Y-97897500D01*
X131799000Y-97888500D01*
X131846000Y-97882500D01*
X131893000Y-97878500D01*
X131940000Y-97877500D01*
X131987000Y-97878500D01*
G37*
X126907000Y-97878500D02*
X126954000Y-97882500D01*
X127001000Y-97888500D01*
X127047000Y-97897500D01*
X127093000Y-97908500D01*
X127138000Y-97921500D01*
X127183000Y-97937500D01*
X127226000Y-97955500D01*
X127269000Y-97975500D01*
X127310000Y-97998500D01*
X127350000Y-98022500D01*
X127389000Y-98049500D01*
X127426000Y-98078500D01*
X127462000Y-98108500D01*
X127496000Y-98141500D01*
X127529000Y-98175500D01*
X127559000Y-98211500D01*
X127588000Y-98248500D01*
X127615000Y-98287500D01*
X127639000Y-98327500D01*
X127662000Y-98368500D01*
X127682000Y-98411500D01*
X127700000Y-98454500D01*
X127716000Y-98499500D01*
X127729000Y-98544500D01*
X127740000Y-98590500D01*
X127749000Y-98636500D01*
X127755000Y-98683500D01*
X127759000Y-98730500D01*
X127760000Y-98777500D01*
X127760000Y-101277500D01*
X125960000Y-101277500D01*
X125960000Y-98777500D01*
X125961000Y-98730500D01*
X125965000Y-98683500D01*
X125971000Y-98636500D01*
X125980000Y-98590500D01*
X125991000Y-98544500D01*
X126004000Y-98499500D01*
X126020000Y-98454500D01*
X126038000Y-98411500D01*
X126058000Y-98368500D01*
X126081000Y-98327500D01*
X126105000Y-98287500D01*
X126132000Y-98248500D01*
X126161000Y-98211500D01*
X126191000Y-98175500D01*
X126224000Y-98141500D01*
X126258000Y-98108500D01*
X126294000Y-98078500D01*
X126331000Y-98049500D01*
X126370000Y-98022500D01*
X126410000Y-97998500D01*
X126451000Y-97975500D01*
X126494000Y-97955500D01*
X126537000Y-97937500D01*
X126582000Y-97921500D01*
X126627000Y-97908500D01*
X126673000Y-97897500D01*
X126719000Y-97888500D01*
X126766000Y-97882500D01*
X126813000Y-97878500D01*
X126860000Y-97877500D01*
X126907000Y-97878500D01*
G36*
X126907000Y-97878500D02*
G01*
X126954000Y-97882500D01*
X127001000Y-97888500D01*
X127047000Y-97897500D01*
X127093000Y-97908500D01*
X127138000Y-97921500D01*
X127183000Y-97937500D01*
X127226000Y-97955500D01*
X127269000Y-97975500D01*
X127310000Y-97998500D01*
X127350000Y-98022500D01*
X127389000Y-98049500D01*
X127426000Y-98078500D01*
X127462000Y-98108500D01*
X127496000Y-98141500D01*
X127529000Y-98175500D01*
X127559000Y-98211500D01*
X127588000Y-98248500D01*
X127615000Y-98287500D01*
X127639000Y-98327500D01*
X127662000Y-98368500D01*
X127682000Y-98411500D01*
X127700000Y-98454500D01*
X127716000Y-98499500D01*
X127729000Y-98544500D01*
X127740000Y-98590500D01*
X127749000Y-98636500D01*
X127755000Y-98683500D01*
X127759000Y-98730500D01*
X127760000Y-98777500D01*
X127760000Y-101277500D01*
X125960000Y-101277500D01*
X125960000Y-98777500D01*
X125961000Y-98730500D01*
X125965000Y-98683500D01*
X125971000Y-98636500D01*
X125980000Y-98590500D01*
X125991000Y-98544500D01*
X126004000Y-98499500D01*
X126020000Y-98454500D01*
X126038000Y-98411500D01*
X126058000Y-98368500D01*
X126081000Y-98327500D01*
X126105000Y-98287500D01*
X126132000Y-98248500D01*
X126161000Y-98211500D01*
X126191000Y-98175500D01*
X126224000Y-98141500D01*
X126258000Y-98108500D01*
X126294000Y-98078500D01*
X126331000Y-98049500D01*
X126370000Y-98022500D01*
X126410000Y-97998500D01*
X126451000Y-97975500D01*
X126494000Y-97955500D01*
X126537000Y-97937500D01*
X126582000Y-97921500D01*
X126627000Y-97908500D01*
X126673000Y-97897500D01*
X126719000Y-97888500D01*
X126766000Y-97882500D01*
X126813000Y-97878500D01*
X126860000Y-97877500D01*
X126907000Y-97878500D01*
G37*
X124367000Y-97878500D02*
X124414000Y-97882500D01*
X124461000Y-97888500D01*
X124507000Y-97897500D01*
X124553000Y-97908500D01*
X124598000Y-97921500D01*
X124643000Y-97937500D01*
X124686000Y-97955500D01*
X124729000Y-97975500D01*
X124770000Y-97998500D01*
X124810000Y-98022500D01*
X124849000Y-98049500D01*
X124886000Y-98078500D01*
X124922000Y-98108500D01*
X124956000Y-98141500D01*
X124989000Y-98175500D01*
X125019000Y-98211500D01*
X125048000Y-98248500D01*
X125075000Y-98287500D01*
X125099000Y-98327500D01*
X125122000Y-98368500D01*
X125142000Y-98411500D01*
X125160000Y-98454500D01*
X125176000Y-98499500D01*
X125189000Y-98544500D01*
X125200000Y-98590500D01*
X125209000Y-98636500D01*
X125215000Y-98683500D01*
X125219000Y-98730500D01*
X125220000Y-98777500D01*
X125220000Y-101277500D01*
X123420000Y-101277500D01*
X123420000Y-98777500D01*
X123421000Y-98730500D01*
X123425000Y-98683500D01*
X123431000Y-98636500D01*
X123440000Y-98590500D01*
X123451000Y-98544500D01*
X123464000Y-98499500D01*
X123480000Y-98454500D01*
X123498000Y-98411500D01*
X123518000Y-98368500D01*
X123541000Y-98327500D01*
X123565000Y-98287500D01*
X123592000Y-98248500D01*
X123621000Y-98211500D01*
X123651000Y-98175500D01*
X123684000Y-98141500D01*
X123718000Y-98108500D01*
X123754000Y-98078500D01*
X123791000Y-98049500D01*
X123830000Y-98022500D01*
X123870000Y-97998500D01*
X123911000Y-97975500D01*
X123954000Y-97955500D01*
X123997000Y-97937500D01*
X124042000Y-97921500D01*
X124087000Y-97908500D01*
X124133000Y-97897500D01*
X124179000Y-97888500D01*
X124226000Y-97882500D01*
X124273000Y-97878500D01*
X124320000Y-97877500D01*
X124367000Y-97878500D01*
G36*
X124367000Y-97878500D02*
G01*
X124414000Y-97882500D01*
X124461000Y-97888500D01*
X124507000Y-97897500D01*
X124553000Y-97908500D01*
X124598000Y-97921500D01*
X124643000Y-97937500D01*
X124686000Y-97955500D01*
X124729000Y-97975500D01*
X124770000Y-97998500D01*
X124810000Y-98022500D01*
X124849000Y-98049500D01*
X124886000Y-98078500D01*
X124922000Y-98108500D01*
X124956000Y-98141500D01*
X124989000Y-98175500D01*
X125019000Y-98211500D01*
X125048000Y-98248500D01*
X125075000Y-98287500D01*
X125099000Y-98327500D01*
X125122000Y-98368500D01*
X125142000Y-98411500D01*
X125160000Y-98454500D01*
X125176000Y-98499500D01*
X125189000Y-98544500D01*
X125200000Y-98590500D01*
X125209000Y-98636500D01*
X125215000Y-98683500D01*
X125219000Y-98730500D01*
X125220000Y-98777500D01*
X125220000Y-101277500D01*
X123420000Y-101277500D01*
X123420000Y-98777500D01*
X123421000Y-98730500D01*
X123425000Y-98683500D01*
X123431000Y-98636500D01*
X123440000Y-98590500D01*
X123451000Y-98544500D01*
X123464000Y-98499500D01*
X123480000Y-98454500D01*
X123498000Y-98411500D01*
X123518000Y-98368500D01*
X123541000Y-98327500D01*
X123565000Y-98287500D01*
X123592000Y-98248500D01*
X123621000Y-98211500D01*
X123651000Y-98175500D01*
X123684000Y-98141500D01*
X123718000Y-98108500D01*
X123754000Y-98078500D01*
X123791000Y-98049500D01*
X123830000Y-98022500D01*
X123870000Y-97998500D01*
X123911000Y-97975500D01*
X123954000Y-97955500D01*
X123997000Y-97937500D01*
X124042000Y-97921500D01*
X124087000Y-97908500D01*
X124133000Y-97897500D01*
X124179000Y-97888500D01*
X124226000Y-97882500D01*
X124273000Y-97878500D01*
X124320000Y-97877500D01*
X124367000Y-97878500D01*
G37*
X168400000Y-81597500D02*
X168400000Y-81613500D01*
X168398000Y-81628500D01*
X168396000Y-81644500D01*
X168393000Y-81659500D01*
X168390000Y-81675500D01*
X168385000Y-81690500D01*
X168380000Y-81705500D01*
X168374000Y-81719500D01*
X168367000Y-81733500D01*
X168360000Y-81747500D01*
X168352000Y-81760500D01*
X168343000Y-81773500D01*
X168333000Y-81786500D01*
X168323000Y-81798500D01*
X168312000Y-81809500D01*
X168301000Y-81820500D01*
X168289000Y-81830500D01*
X168276000Y-81840500D01*
X168263000Y-81849500D01*
X168250000Y-81857500D01*
X168236000Y-81864500D01*
X168222000Y-81871500D01*
X168208000Y-81877500D01*
X168193000Y-81882500D01*
X168178000Y-81887500D01*
X168162000Y-81890500D01*
X168147000Y-81893500D01*
X168131000Y-81895500D01*
X168116000Y-81897500D01*
X168100000Y-81897500D01*
X166900000Y-81897500D01*
X166884000Y-81897500D01*
X166869000Y-81895500D01*
X166853000Y-81893500D01*
X166838000Y-81890500D01*
X166822000Y-81887500D01*
X166807000Y-81882500D01*
X166792000Y-81877500D01*
X166778000Y-81871500D01*
X166764000Y-81864500D01*
X166750000Y-81857500D01*
X166737000Y-81849500D01*
X166724000Y-81840500D01*
X166711000Y-81830500D01*
X166699000Y-81820500D01*
X166688000Y-81809500D01*
X166677000Y-81798500D01*
X166667000Y-81786500D01*
X166657000Y-81773500D01*
X166648000Y-81760500D01*
X166640000Y-81747500D01*
X166633000Y-81733500D01*
X166626000Y-81719500D01*
X166620000Y-81705500D01*
X166615000Y-81690500D01*
X166610000Y-81675500D01*
X166607000Y-81659500D01*
X166604000Y-81644500D01*
X166602000Y-81628500D01*
X166600000Y-81613500D01*
X166600000Y-81597500D01*
X166600000Y-78497500D01*
X168400000Y-78497500D01*
X168400000Y-81597500D01*
G36*
X168400000Y-81597500D02*
G01*
X168400000Y-81613500D01*
X168398000Y-81628500D01*
X168396000Y-81644500D01*
X168393000Y-81659500D01*
X168390000Y-81675500D01*
X168385000Y-81690500D01*
X168380000Y-81705500D01*
X168374000Y-81719500D01*
X168367000Y-81733500D01*
X168360000Y-81747500D01*
X168352000Y-81760500D01*
X168343000Y-81773500D01*
X168333000Y-81786500D01*
X168323000Y-81798500D01*
X168312000Y-81809500D01*
X168301000Y-81820500D01*
X168289000Y-81830500D01*
X168276000Y-81840500D01*
X168263000Y-81849500D01*
X168250000Y-81857500D01*
X168236000Y-81864500D01*
X168222000Y-81871500D01*
X168208000Y-81877500D01*
X168193000Y-81882500D01*
X168178000Y-81887500D01*
X168162000Y-81890500D01*
X168147000Y-81893500D01*
X168131000Y-81895500D01*
X168116000Y-81897500D01*
X168100000Y-81897500D01*
X166900000Y-81897500D01*
X166884000Y-81897500D01*
X166869000Y-81895500D01*
X166853000Y-81893500D01*
X166838000Y-81890500D01*
X166822000Y-81887500D01*
X166807000Y-81882500D01*
X166792000Y-81877500D01*
X166778000Y-81871500D01*
X166764000Y-81864500D01*
X166750000Y-81857500D01*
X166737000Y-81849500D01*
X166724000Y-81840500D01*
X166711000Y-81830500D01*
X166699000Y-81820500D01*
X166688000Y-81809500D01*
X166677000Y-81798500D01*
X166667000Y-81786500D01*
X166657000Y-81773500D01*
X166648000Y-81760500D01*
X166640000Y-81747500D01*
X166633000Y-81733500D01*
X166626000Y-81719500D01*
X166620000Y-81705500D01*
X166615000Y-81690500D01*
X166610000Y-81675500D01*
X166607000Y-81659500D01*
X166604000Y-81644500D01*
X166602000Y-81628500D01*
X166600000Y-81613500D01*
X166600000Y-81597500D01*
X166600000Y-78497500D01*
X168400000Y-78497500D01*
X168400000Y-81597500D01*
G37*
X155700000Y-81597500D02*
X155700000Y-81613500D01*
X155698000Y-81628500D01*
X155696000Y-81644500D01*
X155693000Y-81659500D01*
X155690000Y-81675500D01*
X155685000Y-81690500D01*
X155680000Y-81705500D01*
X155674000Y-81719500D01*
X155667000Y-81733500D01*
X155660000Y-81747500D01*
X155652000Y-81760500D01*
X155643000Y-81773500D01*
X155633000Y-81786500D01*
X155623000Y-81798500D01*
X155612000Y-81809500D01*
X155601000Y-81820500D01*
X155589000Y-81830500D01*
X155576000Y-81840500D01*
X155563000Y-81849500D01*
X155550000Y-81857500D01*
X155536000Y-81864500D01*
X155522000Y-81871500D01*
X155508000Y-81877500D01*
X155493000Y-81882500D01*
X155478000Y-81887500D01*
X155462000Y-81890500D01*
X155447000Y-81893500D01*
X155431000Y-81895500D01*
X155416000Y-81897500D01*
X155400000Y-81897500D01*
X154200000Y-81897500D01*
X154184000Y-81897500D01*
X154169000Y-81895500D01*
X154153000Y-81893500D01*
X154138000Y-81890500D01*
X154122000Y-81887500D01*
X154107000Y-81882500D01*
X154092000Y-81877500D01*
X154078000Y-81871500D01*
X154064000Y-81864500D01*
X154050000Y-81857500D01*
X154037000Y-81849500D01*
X154024000Y-81840500D01*
X154011000Y-81830500D01*
X153999000Y-81820500D01*
X153988000Y-81809500D01*
X153977000Y-81798500D01*
X153967000Y-81786500D01*
X153957000Y-81773500D01*
X153948000Y-81760500D01*
X153940000Y-81747500D01*
X153933000Y-81733500D01*
X153926000Y-81719500D01*
X153920000Y-81705500D01*
X153915000Y-81690500D01*
X153910000Y-81675500D01*
X153907000Y-81659500D01*
X153904000Y-81644500D01*
X153902000Y-81628500D01*
X153900000Y-81613500D01*
X153900000Y-81597500D01*
X153900000Y-78497500D01*
X155700000Y-78497500D01*
X155700000Y-81597500D01*
G36*
X155700000Y-81597500D02*
G01*
X155700000Y-81613500D01*
X155698000Y-81628500D01*
X155696000Y-81644500D01*
X155693000Y-81659500D01*
X155690000Y-81675500D01*
X155685000Y-81690500D01*
X155680000Y-81705500D01*
X155674000Y-81719500D01*
X155667000Y-81733500D01*
X155660000Y-81747500D01*
X155652000Y-81760500D01*
X155643000Y-81773500D01*
X155633000Y-81786500D01*
X155623000Y-81798500D01*
X155612000Y-81809500D01*
X155601000Y-81820500D01*
X155589000Y-81830500D01*
X155576000Y-81840500D01*
X155563000Y-81849500D01*
X155550000Y-81857500D01*
X155536000Y-81864500D01*
X155522000Y-81871500D01*
X155508000Y-81877500D01*
X155493000Y-81882500D01*
X155478000Y-81887500D01*
X155462000Y-81890500D01*
X155447000Y-81893500D01*
X155431000Y-81895500D01*
X155416000Y-81897500D01*
X155400000Y-81897500D01*
X154200000Y-81897500D01*
X154184000Y-81897500D01*
X154169000Y-81895500D01*
X154153000Y-81893500D01*
X154138000Y-81890500D01*
X154122000Y-81887500D01*
X154107000Y-81882500D01*
X154092000Y-81877500D01*
X154078000Y-81871500D01*
X154064000Y-81864500D01*
X154050000Y-81857500D01*
X154037000Y-81849500D01*
X154024000Y-81840500D01*
X154011000Y-81830500D01*
X153999000Y-81820500D01*
X153988000Y-81809500D01*
X153977000Y-81798500D01*
X153967000Y-81786500D01*
X153957000Y-81773500D01*
X153948000Y-81760500D01*
X153940000Y-81747500D01*
X153933000Y-81733500D01*
X153926000Y-81719500D01*
X153920000Y-81705500D01*
X153915000Y-81690500D01*
X153910000Y-81675500D01*
X153907000Y-81659500D01*
X153904000Y-81644500D01*
X153902000Y-81628500D01*
X153900000Y-81613500D01*
X153900000Y-81597500D01*
X153900000Y-78497500D01*
X155700000Y-78497500D01*
X155700000Y-81597500D01*
G37*
X143000000Y-81597500D02*
X143000000Y-81613500D01*
X142998000Y-81628500D01*
X142996000Y-81644500D01*
X142993000Y-81659500D01*
X142990000Y-81675500D01*
X142985000Y-81690500D01*
X142980000Y-81705500D01*
X142974000Y-81719500D01*
X142967000Y-81733500D01*
X142960000Y-81747500D01*
X142952000Y-81760500D01*
X142943000Y-81773500D01*
X142933000Y-81786500D01*
X142923000Y-81798500D01*
X142912000Y-81809500D01*
X142901000Y-81820500D01*
X142889000Y-81830500D01*
X142876000Y-81840500D01*
X142863000Y-81849500D01*
X142850000Y-81857500D01*
X142836000Y-81864500D01*
X142822000Y-81871500D01*
X142808000Y-81877500D01*
X142793000Y-81882500D01*
X142778000Y-81887500D01*
X142762000Y-81890500D01*
X142747000Y-81893500D01*
X142731000Y-81895500D01*
X142716000Y-81897500D01*
X142700000Y-81897500D01*
X141500000Y-81897500D01*
X141484000Y-81897500D01*
X141469000Y-81895500D01*
X141453000Y-81893500D01*
X141438000Y-81890500D01*
X141422000Y-81887500D01*
X141407000Y-81882500D01*
X141392000Y-81877500D01*
X141378000Y-81871500D01*
X141364000Y-81864500D01*
X141350000Y-81857500D01*
X141337000Y-81849500D01*
X141324000Y-81840500D01*
X141311000Y-81830500D01*
X141299000Y-81820500D01*
X141288000Y-81809500D01*
X141277000Y-81798500D01*
X141267000Y-81786500D01*
X141257000Y-81773500D01*
X141248000Y-81760500D01*
X141240000Y-81747500D01*
X141233000Y-81733500D01*
X141226000Y-81719500D01*
X141220000Y-81705500D01*
X141215000Y-81690500D01*
X141210000Y-81675500D01*
X141207000Y-81659500D01*
X141204000Y-81644500D01*
X141202000Y-81628500D01*
X141200000Y-81613500D01*
X141200000Y-81597500D01*
X141200000Y-78497500D01*
X143000000Y-78497500D01*
X143000000Y-81597500D01*
G36*
X143000000Y-81597500D02*
G01*
X143000000Y-81613500D01*
X142998000Y-81628500D01*
X142996000Y-81644500D01*
X142993000Y-81659500D01*
X142990000Y-81675500D01*
X142985000Y-81690500D01*
X142980000Y-81705500D01*
X142974000Y-81719500D01*
X142967000Y-81733500D01*
X142960000Y-81747500D01*
X142952000Y-81760500D01*
X142943000Y-81773500D01*
X142933000Y-81786500D01*
X142923000Y-81798500D01*
X142912000Y-81809500D01*
X142901000Y-81820500D01*
X142889000Y-81830500D01*
X142876000Y-81840500D01*
X142863000Y-81849500D01*
X142850000Y-81857500D01*
X142836000Y-81864500D01*
X142822000Y-81871500D01*
X142808000Y-81877500D01*
X142793000Y-81882500D01*
X142778000Y-81887500D01*
X142762000Y-81890500D01*
X142747000Y-81893500D01*
X142731000Y-81895500D01*
X142716000Y-81897500D01*
X142700000Y-81897500D01*
X141500000Y-81897500D01*
X141484000Y-81897500D01*
X141469000Y-81895500D01*
X141453000Y-81893500D01*
X141438000Y-81890500D01*
X141422000Y-81887500D01*
X141407000Y-81882500D01*
X141392000Y-81877500D01*
X141378000Y-81871500D01*
X141364000Y-81864500D01*
X141350000Y-81857500D01*
X141337000Y-81849500D01*
X141324000Y-81840500D01*
X141311000Y-81830500D01*
X141299000Y-81820500D01*
X141288000Y-81809500D01*
X141277000Y-81798500D01*
X141267000Y-81786500D01*
X141257000Y-81773500D01*
X141248000Y-81760500D01*
X141240000Y-81747500D01*
X141233000Y-81733500D01*
X141226000Y-81719500D01*
X141220000Y-81705500D01*
X141215000Y-81690500D01*
X141210000Y-81675500D01*
X141207000Y-81659500D01*
X141204000Y-81644500D01*
X141202000Y-81628500D01*
X141200000Y-81613500D01*
X141200000Y-81597500D01*
X141200000Y-78497500D01*
X143000000Y-78497500D01*
X143000000Y-81597500D01*
G37*
X130300000Y-81597500D02*
X130300000Y-81613500D01*
X130298000Y-81628500D01*
X130296000Y-81644500D01*
X130293000Y-81659500D01*
X130290000Y-81675500D01*
X130285000Y-81690500D01*
X130280000Y-81705500D01*
X130274000Y-81719500D01*
X130267000Y-81733500D01*
X130260000Y-81747500D01*
X130252000Y-81760500D01*
X130243000Y-81773500D01*
X130233000Y-81786500D01*
X130223000Y-81798500D01*
X130212000Y-81809500D01*
X130201000Y-81820500D01*
X130189000Y-81830500D01*
X130176000Y-81840500D01*
X130163000Y-81849500D01*
X130150000Y-81857500D01*
X130136000Y-81864500D01*
X130122000Y-81871500D01*
X130108000Y-81877500D01*
X130093000Y-81882500D01*
X130078000Y-81887500D01*
X130062000Y-81890500D01*
X130047000Y-81893500D01*
X130031000Y-81895500D01*
X130016000Y-81897500D01*
X130000000Y-81897500D01*
X128800000Y-81897500D01*
X128784000Y-81897500D01*
X128769000Y-81895500D01*
X128753000Y-81893500D01*
X128738000Y-81890500D01*
X128722000Y-81887500D01*
X128707000Y-81882500D01*
X128692000Y-81877500D01*
X128678000Y-81871500D01*
X128664000Y-81864500D01*
X128650000Y-81857500D01*
X128637000Y-81849500D01*
X128624000Y-81840500D01*
X128611000Y-81830500D01*
X128599000Y-81820500D01*
X128588000Y-81809500D01*
X128577000Y-81798500D01*
X128567000Y-81786500D01*
X128557000Y-81773500D01*
X128548000Y-81760500D01*
X128540000Y-81747500D01*
X128533000Y-81733500D01*
X128526000Y-81719500D01*
X128520000Y-81705500D01*
X128515000Y-81690500D01*
X128510000Y-81675500D01*
X128507000Y-81659500D01*
X128504000Y-81644500D01*
X128502000Y-81628500D01*
X128500000Y-81613500D01*
X128500000Y-81597500D01*
X128500000Y-78497500D01*
X130300000Y-78497500D01*
X130300000Y-81597500D01*
G36*
X130300000Y-81597500D02*
G01*
X130300000Y-81613500D01*
X130298000Y-81628500D01*
X130296000Y-81644500D01*
X130293000Y-81659500D01*
X130290000Y-81675500D01*
X130285000Y-81690500D01*
X130280000Y-81705500D01*
X130274000Y-81719500D01*
X130267000Y-81733500D01*
X130260000Y-81747500D01*
X130252000Y-81760500D01*
X130243000Y-81773500D01*
X130233000Y-81786500D01*
X130223000Y-81798500D01*
X130212000Y-81809500D01*
X130201000Y-81820500D01*
X130189000Y-81830500D01*
X130176000Y-81840500D01*
X130163000Y-81849500D01*
X130150000Y-81857500D01*
X130136000Y-81864500D01*
X130122000Y-81871500D01*
X130108000Y-81877500D01*
X130093000Y-81882500D01*
X130078000Y-81887500D01*
X130062000Y-81890500D01*
X130047000Y-81893500D01*
X130031000Y-81895500D01*
X130016000Y-81897500D01*
X130000000Y-81897500D01*
X128800000Y-81897500D01*
X128784000Y-81897500D01*
X128769000Y-81895500D01*
X128753000Y-81893500D01*
X128738000Y-81890500D01*
X128722000Y-81887500D01*
X128707000Y-81882500D01*
X128692000Y-81877500D01*
X128678000Y-81871500D01*
X128664000Y-81864500D01*
X128650000Y-81857500D01*
X128637000Y-81849500D01*
X128624000Y-81840500D01*
X128611000Y-81830500D01*
X128599000Y-81820500D01*
X128588000Y-81809500D01*
X128577000Y-81798500D01*
X128567000Y-81786500D01*
X128557000Y-81773500D01*
X128548000Y-81760500D01*
X128540000Y-81747500D01*
X128533000Y-81733500D01*
X128526000Y-81719500D01*
X128520000Y-81705500D01*
X128515000Y-81690500D01*
X128510000Y-81675500D01*
X128507000Y-81659500D01*
X128504000Y-81644500D01*
X128502000Y-81628500D01*
X128500000Y-81613500D01*
X128500000Y-81597500D01*
X128500000Y-78497500D01*
X130300000Y-78497500D01*
X130300000Y-81597500D01*
G37*
X125181000Y-88989500D02*
X125197000Y-88991500D01*
X125212000Y-88994500D01*
X125228000Y-88997500D01*
X125243000Y-89002500D01*
X125258000Y-89007500D01*
X125272000Y-89013500D01*
X125286000Y-89020500D01*
X125300000Y-89027500D01*
X125313000Y-89035500D01*
X125326000Y-89044500D01*
X125339000Y-89054500D01*
X125351000Y-89064500D01*
X125362000Y-89075500D01*
X125373000Y-89086500D01*
X125383000Y-89098500D01*
X125393000Y-89111500D01*
X125402000Y-89124500D01*
X125410000Y-89137500D01*
X125417000Y-89151500D01*
X125424000Y-89165500D01*
X125430000Y-89179500D01*
X125435000Y-89194500D01*
X125440000Y-89209500D01*
X125443000Y-89225500D01*
X125446000Y-89240500D01*
X125448000Y-89256500D01*
X125450000Y-89271500D01*
X125450000Y-89287500D01*
X125450000Y-90487500D01*
X125450000Y-90503500D01*
X125448000Y-90518500D01*
X125446000Y-90534500D01*
X125443000Y-90549500D01*
X125440000Y-90565500D01*
X125435000Y-90580500D01*
X125430000Y-90595500D01*
X125424000Y-90609500D01*
X125417000Y-90623500D01*
X125410000Y-90637500D01*
X125402000Y-90650500D01*
X125393000Y-90663500D01*
X125383000Y-90676500D01*
X125373000Y-90688500D01*
X125362000Y-90699500D01*
X125351000Y-90710500D01*
X125339000Y-90720500D01*
X125326000Y-90730500D01*
X125313000Y-90739500D01*
X125300000Y-90747500D01*
X125286000Y-90754500D01*
X125272000Y-90761500D01*
X125258000Y-90767500D01*
X125243000Y-90772500D01*
X125228000Y-90777500D01*
X125212000Y-90780500D01*
X125197000Y-90783500D01*
X125181000Y-90785500D01*
X125166000Y-90787500D01*
X125150000Y-90787500D01*
X122050000Y-90787500D01*
X122050000Y-88987500D01*
X125150000Y-88987500D01*
X125166000Y-88987500D01*
X125181000Y-88989500D01*
G36*
X125181000Y-88989500D02*
G01*
X125197000Y-88991500D01*
X125212000Y-88994500D01*
X125228000Y-88997500D01*
X125243000Y-89002500D01*
X125258000Y-89007500D01*
X125272000Y-89013500D01*
X125286000Y-89020500D01*
X125300000Y-89027500D01*
X125313000Y-89035500D01*
X125326000Y-89044500D01*
X125339000Y-89054500D01*
X125351000Y-89064500D01*
X125362000Y-89075500D01*
X125373000Y-89086500D01*
X125383000Y-89098500D01*
X125393000Y-89111500D01*
X125402000Y-89124500D01*
X125410000Y-89137500D01*
X125417000Y-89151500D01*
X125424000Y-89165500D01*
X125430000Y-89179500D01*
X125435000Y-89194500D01*
X125440000Y-89209500D01*
X125443000Y-89225500D01*
X125446000Y-89240500D01*
X125448000Y-89256500D01*
X125450000Y-89271500D01*
X125450000Y-89287500D01*
X125450000Y-90487500D01*
X125450000Y-90503500D01*
X125448000Y-90518500D01*
X125446000Y-90534500D01*
X125443000Y-90549500D01*
X125440000Y-90565500D01*
X125435000Y-90580500D01*
X125430000Y-90595500D01*
X125424000Y-90609500D01*
X125417000Y-90623500D01*
X125410000Y-90637500D01*
X125402000Y-90650500D01*
X125393000Y-90663500D01*
X125383000Y-90676500D01*
X125373000Y-90688500D01*
X125362000Y-90699500D01*
X125351000Y-90710500D01*
X125339000Y-90720500D01*
X125326000Y-90730500D01*
X125313000Y-90739500D01*
X125300000Y-90747500D01*
X125286000Y-90754500D01*
X125272000Y-90761500D01*
X125258000Y-90767500D01*
X125243000Y-90772500D01*
X125228000Y-90777500D01*
X125212000Y-90780500D01*
X125197000Y-90783500D01*
X125181000Y-90785500D01*
X125166000Y-90787500D01*
X125150000Y-90787500D01*
X122050000Y-90787500D01*
X122050000Y-88987500D01*
X125150000Y-88987500D01*
X125166000Y-88987500D01*
X125181000Y-88989500D01*
G37*
X168131000Y-97879500D02*
X168147000Y-97881500D01*
X168162000Y-97884500D01*
X168178000Y-97887500D01*
X168193000Y-97892500D01*
X168208000Y-97897500D01*
X168222000Y-97903500D01*
X168236000Y-97910500D01*
X168250000Y-97917500D01*
X168263000Y-97925500D01*
X168276000Y-97934500D01*
X168289000Y-97944500D01*
X168301000Y-97954500D01*
X168312000Y-97965500D01*
X168323000Y-97976500D01*
X168333000Y-97988500D01*
X168343000Y-98001500D01*
X168352000Y-98014500D01*
X168360000Y-98027500D01*
X168367000Y-98041500D01*
X168374000Y-98055500D01*
X168380000Y-98069500D01*
X168385000Y-98084500D01*
X168390000Y-98099500D01*
X168393000Y-98115500D01*
X168396000Y-98130500D01*
X168398000Y-98146500D01*
X168400000Y-98161500D01*
X168400000Y-98177500D01*
X168400000Y-101277500D01*
X166600000Y-101277500D01*
X166600000Y-98177500D01*
X166600000Y-98161500D01*
X166602000Y-98146500D01*
X166604000Y-98130500D01*
X166607000Y-98115500D01*
X166610000Y-98099500D01*
X166615000Y-98084500D01*
X166620000Y-98069500D01*
X166626000Y-98055500D01*
X166633000Y-98041500D01*
X166640000Y-98027500D01*
X166648000Y-98014500D01*
X166657000Y-98001500D01*
X166667000Y-97988500D01*
X166677000Y-97976500D01*
X166688000Y-97965500D01*
X166699000Y-97954500D01*
X166711000Y-97944500D01*
X166724000Y-97934500D01*
X166737000Y-97925500D01*
X166750000Y-97917500D01*
X166764000Y-97910500D01*
X166778000Y-97903500D01*
X166792000Y-97897500D01*
X166807000Y-97892500D01*
X166822000Y-97887500D01*
X166838000Y-97884500D01*
X166853000Y-97881500D01*
X166869000Y-97879500D01*
X166884000Y-97877500D01*
X166900000Y-97877500D01*
X168100000Y-97877500D01*
X168116000Y-97877500D01*
X168131000Y-97879500D01*
G36*
X168131000Y-97879500D02*
G01*
X168147000Y-97881500D01*
X168162000Y-97884500D01*
X168178000Y-97887500D01*
X168193000Y-97892500D01*
X168208000Y-97897500D01*
X168222000Y-97903500D01*
X168236000Y-97910500D01*
X168250000Y-97917500D01*
X168263000Y-97925500D01*
X168276000Y-97934500D01*
X168289000Y-97944500D01*
X168301000Y-97954500D01*
X168312000Y-97965500D01*
X168323000Y-97976500D01*
X168333000Y-97988500D01*
X168343000Y-98001500D01*
X168352000Y-98014500D01*
X168360000Y-98027500D01*
X168367000Y-98041500D01*
X168374000Y-98055500D01*
X168380000Y-98069500D01*
X168385000Y-98084500D01*
X168390000Y-98099500D01*
X168393000Y-98115500D01*
X168396000Y-98130500D01*
X168398000Y-98146500D01*
X168400000Y-98161500D01*
X168400000Y-98177500D01*
X168400000Y-101277500D01*
X166600000Y-101277500D01*
X166600000Y-98177500D01*
X166600000Y-98161500D01*
X166602000Y-98146500D01*
X166604000Y-98130500D01*
X166607000Y-98115500D01*
X166610000Y-98099500D01*
X166615000Y-98084500D01*
X166620000Y-98069500D01*
X166626000Y-98055500D01*
X166633000Y-98041500D01*
X166640000Y-98027500D01*
X166648000Y-98014500D01*
X166657000Y-98001500D01*
X166667000Y-97988500D01*
X166677000Y-97976500D01*
X166688000Y-97965500D01*
X166699000Y-97954500D01*
X166711000Y-97944500D01*
X166724000Y-97934500D01*
X166737000Y-97925500D01*
X166750000Y-97917500D01*
X166764000Y-97910500D01*
X166778000Y-97903500D01*
X166792000Y-97897500D01*
X166807000Y-97892500D01*
X166822000Y-97887500D01*
X166838000Y-97884500D01*
X166853000Y-97881500D01*
X166869000Y-97879500D01*
X166884000Y-97877500D01*
X166900000Y-97877500D01*
X168100000Y-97877500D01*
X168116000Y-97877500D01*
X168131000Y-97879500D01*
G37*
X155431000Y-97879500D02*
X155447000Y-97881500D01*
X155462000Y-97884500D01*
X155478000Y-97887500D01*
X155493000Y-97892500D01*
X155508000Y-97897500D01*
X155522000Y-97903500D01*
X155536000Y-97910500D01*
X155550000Y-97917500D01*
X155563000Y-97925500D01*
X155576000Y-97934500D01*
X155589000Y-97944500D01*
X155601000Y-97954500D01*
X155612000Y-97965500D01*
X155623000Y-97976500D01*
X155633000Y-97988500D01*
X155643000Y-98001500D01*
X155652000Y-98014500D01*
X155660000Y-98027500D01*
X155667000Y-98041500D01*
X155674000Y-98055500D01*
X155680000Y-98069500D01*
X155685000Y-98084500D01*
X155690000Y-98099500D01*
X155693000Y-98115500D01*
X155696000Y-98130500D01*
X155698000Y-98146500D01*
X155700000Y-98161500D01*
X155700000Y-98177500D01*
X155700000Y-101277500D01*
X153900000Y-101277500D01*
X153900000Y-98177500D01*
X153900000Y-98161500D01*
X153902000Y-98146500D01*
X153904000Y-98130500D01*
X153907000Y-98115500D01*
X153910000Y-98099500D01*
X153915000Y-98084500D01*
X153920000Y-98069500D01*
X153926000Y-98055500D01*
X153933000Y-98041500D01*
X153940000Y-98027500D01*
X153948000Y-98014500D01*
X153957000Y-98001500D01*
X153967000Y-97988500D01*
X153977000Y-97976500D01*
X153988000Y-97965500D01*
X153999000Y-97954500D01*
X154011000Y-97944500D01*
X154024000Y-97934500D01*
X154037000Y-97925500D01*
X154050000Y-97917500D01*
X154064000Y-97910500D01*
X154078000Y-97903500D01*
X154092000Y-97897500D01*
X154107000Y-97892500D01*
X154122000Y-97887500D01*
X154138000Y-97884500D01*
X154153000Y-97881500D01*
X154169000Y-97879500D01*
X154184000Y-97877500D01*
X154200000Y-97877500D01*
X155400000Y-97877500D01*
X155416000Y-97877500D01*
X155431000Y-97879500D01*
G36*
X155431000Y-97879500D02*
G01*
X155447000Y-97881500D01*
X155462000Y-97884500D01*
X155478000Y-97887500D01*
X155493000Y-97892500D01*
X155508000Y-97897500D01*
X155522000Y-97903500D01*
X155536000Y-97910500D01*
X155550000Y-97917500D01*
X155563000Y-97925500D01*
X155576000Y-97934500D01*
X155589000Y-97944500D01*
X155601000Y-97954500D01*
X155612000Y-97965500D01*
X155623000Y-97976500D01*
X155633000Y-97988500D01*
X155643000Y-98001500D01*
X155652000Y-98014500D01*
X155660000Y-98027500D01*
X155667000Y-98041500D01*
X155674000Y-98055500D01*
X155680000Y-98069500D01*
X155685000Y-98084500D01*
X155690000Y-98099500D01*
X155693000Y-98115500D01*
X155696000Y-98130500D01*
X155698000Y-98146500D01*
X155700000Y-98161500D01*
X155700000Y-98177500D01*
X155700000Y-101277500D01*
X153900000Y-101277500D01*
X153900000Y-98177500D01*
X153900000Y-98161500D01*
X153902000Y-98146500D01*
X153904000Y-98130500D01*
X153907000Y-98115500D01*
X153910000Y-98099500D01*
X153915000Y-98084500D01*
X153920000Y-98069500D01*
X153926000Y-98055500D01*
X153933000Y-98041500D01*
X153940000Y-98027500D01*
X153948000Y-98014500D01*
X153957000Y-98001500D01*
X153967000Y-97988500D01*
X153977000Y-97976500D01*
X153988000Y-97965500D01*
X153999000Y-97954500D01*
X154011000Y-97944500D01*
X154024000Y-97934500D01*
X154037000Y-97925500D01*
X154050000Y-97917500D01*
X154064000Y-97910500D01*
X154078000Y-97903500D01*
X154092000Y-97897500D01*
X154107000Y-97892500D01*
X154122000Y-97887500D01*
X154138000Y-97884500D01*
X154153000Y-97881500D01*
X154169000Y-97879500D01*
X154184000Y-97877500D01*
X154200000Y-97877500D01*
X155400000Y-97877500D01*
X155416000Y-97877500D01*
X155431000Y-97879500D01*
G37*
X142731000Y-97879500D02*
X142747000Y-97881500D01*
X142762000Y-97884500D01*
X142778000Y-97887500D01*
X142793000Y-97892500D01*
X142808000Y-97897500D01*
X142822000Y-97903500D01*
X142836000Y-97910500D01*
X142850000Y-97917500D01*
X142863000Y-97925500D01*
X142876000Y-97934500D01*
X142889000Y-97944500D01*
X142901000Y-97954500D01*
X142912000Y-97965500D01*
X142923000Y-97976500D01*
X142933000Y-97988500D01*
X142943000Y-98001500D01*
X142952000Y-98014500D01*
X142960000Y-98027500D01*
X142967000Y-98041500D01*
X142974000Y-98055500D01*
X142980000Y-98069500D01*
X142985000Y-98084500D01*
X142990000Y-98099500D01*
X142993000Y-98115500D01*
X142996000Y-98130500D01*
X142998000Y-98146500D01*
X143000000Y-98161500D01*
X143000000Y-98177500D01*
X143000000Y-101277500D01*
X141200000Y-101277500D01*
X141200000Y-98177500D01*
X141200000Y-98161500D01*
X141202000Y-98146500D01*
X141204000Y-98130500D01*
X141207000Y-98115500D01*
X141210000Y-98099500D01*
X141215000Y-98084500D01*
X141220000Y-98069500D01*
X141226000Y-98055500D01*
X141233000Y-98041500D01*
X141240000Y-98027500D01*
X141248000Y-98014500D01*
X141257000Y-98001500D01*
X141267000Y-97988500D01*
X141277000Y-97976500D01*
X141288000Y-97965500D01*
X141299000Y-97954500D01*
X141311000Y-97944500D01*
X141324000Y-97934500D01*
X141337000Y-97925500D01*
X141350000Y-97917500D01*
X141364000Y-97910500D01*
X141378000Y-97903500D01*
X141392000Y-97897500D01*
X141407000Y-97892500D01*
X141422000Y-97887500D01*
X141438000Y-97884500D01*
X141453000Y-97881500D01*
X141469000Y-97879500D01*
X141484000Y-97877500D01*
X141500000Y-97877500D01*
X142700000Y-97877500D01*
X142716000Y-97877500D01*
X142731000Y-97879500D01*
G36*
X142731000Y-97879500D02*
G01*
X142747000Y-97881500D01*
X142762000Y-97884500D01*
X142778000Y-97887500D01*
X142793000Y-97892500D01*
X142808000Y-97897500D01*
X142822000Y-97903500D01*
X142836000Y-97910500D01*
X142850000Y-97917500D01*
X142863000Y-97925500D01*
X142876000Y-97934500D01*
X142889000Y-97944500D01*
X142901000Y-97954500D01*
X142912000Y-97965500D01*
X142923000Y-97976500D01*
X142933000Y-97988500D01*
X142943000Y-98001500D01*
X142952000Y-98014500D01*
X142960000Y-98027500D01*
X142967000Y-98041500D01*
X142974000Y-98055500D01*
X142980000Y-98069500D01*
X142985000Y-98084500D01*
X142990000Y-98099500D01*
X142993000Y-98115500D01*
X142996000Y-98130500D01*
X142998000Y-98146500D01*
X143000000Y-98161500D01*
X143000000Y-98177500D01*
X143000000Y-101277500D01*
X141200000Y-101277500D01*
X141200000Y-98177500D01*
X141200000Y-98161500D01*
X141202000Y-98146500D01*
X141204000Y-98130500D01*
X141207000Y-98115500D01*
X141210000Y-98099500D01*
X141215000Y-98084500D01*
X141220000Y-98069500D01*
X141226000Y-98055500D01*
X141233000Y-98041500D01*
X141240000Y-98027500D01*
X141248000Y-98014500D01*
X141257000Y-98001500D01*
X141267000Y-97988500D01*
X141277000Y-97976500D01*
X141288000Y-97965500D01*
X141299000Y-97954500D01*
X141311000Y-97944500D01*
X141324000Y-97934500D01*
X141337000Y-97925500D01*
X141350000Y-97917500D01*
X141364000Y-97910500D01*
X141378000Y-97903500D01*
X141392000Y-97897500D01*
X141407000Y-97892500D01*
X141422000Y-97887500D01*
X141438000Y-97884500D01*
X141453000Y-97881500D01*
X141469000Y-97879500D01*
X141484000Y-97877500D01*
X141500000Y-97877500D01*
X142700000Y-97877500D01*
X142716000Y-97877500D01*
X142731000Y-97879500D01*
G37*
X130031000Y-97879500D02*
X130047000Y-97881500D01*
X130062000Y-97884500D01*
X130078000Y-97887500D01*
X130093000Y-97892500D01*
X130108000Y-97897500D01*
X130122000Y-97903500D01*
X130136000Y-97910500D01*
X130150000Y-97917500D01*
X130163000Y-97925500D01*
X130176000Y-97934500D01*
X130189000Y-97944500D01*
X130201000Y-97954500D01*
X130212000Y-97965500D01*
X130223000Y-97976500D01*
X130233000Y-97988500D01*
X130243000Y-98001500D01*
X130252000Y-98014500D01*
X130260000Y-98027500D01*
X130267000Y-98041500D01*
X130274000Y-98055500D01*
X130280000Y-98069500D01*
X130285000Y-98084500D01*
X130290000Y-98099500D01*
X130293000Y-98115500D01*
X130296000Y-98130500D01*
X130298000Y-98146500D01*
X130300000Y-98161500D01*
X130300000Y-98177500D01*
X130300000Y-101277500D01*
X128500000Y-101277500D01*
X128500000Y-98177500D01*
X128500000Y-98161500D01*
X128502000Y-98146500D01*
X128504000Y-98130500D01*
X128507000Y-98115500D01*
X128510000Y-98099500D01*
X128515000Y-98084500D01*
X128520000Y-98069500D01*
X128526000Y-98055500D01*
X128533000Y-98041500D01*
X128540000Y-98027500D01*
X128548000Y-98014500D01*
X128557000Y-98001500D01*
X128567000Y-97988500D01*
X128577000Y-97976500D01*
X128588000Y-97965500D01*
X128599000Y-97954500D01*
X128611000Y-97944500D01*
X128624000Y-97934500D01*
X128637000Y-97925500D01*
X128650000Y-97917500D01*
X128664000Y-97910500D01*
X128678000Y-97903500D01*
X128692000Y-97897500D01*
X128707000Y-97892500D01*
X128722000Y-97887500D01*
X128738000Y-97884500D01*
X128753000Y-97881500D01*
X128769000Y-97879500D01*
X128784000Y-97877500D01*
X128800000Y-97877500D01*
X130000000Y-97877500D01*
X130016000Y-97877500D01*
X130031000Y-97879500D01*
G36*
X130031000Y-97879500D02*
G01*
X130047000Y-97881500D01*
X130062000Y-97884500D01*
X130078000Y-97887500D01*
X130093000Y-97892500D01*
X130108000Y-97897500D01*
X130122000Y-97903500D01*
X130136000Y-97910500D01*
X130150000Y-97917500D01*
X130163000Y-97925500D01*
X130176000Y-97934500D01*
X130189000Y-97944500D01*
X130201000Y-97954500D01*
X130212000Y-97965500D01*
X130223000Y-97976500D01*
X130233000Y-97988500D01*
X130243000Y-98001500D01*
X130252000Y-98014500D01*
X130260000Y-98027500D01*
X130267000Y-98041500D01*
X130274000Y-98055500D01*
X130280000Y-98069500D01*
X130285000Y-98084500D01*
X130290000Y-98099500D01*
X130293000Y-98115500D01*
X130296000Y-98130500D01*
X130298000Y-98146500D01*
X130300000Y-98161500D01*
X130300000Y-98177500D01*
X130300000Y-101277500D01*
X128500000Y-101277500D01*
X128500000Y-98177500D01*
X128500000Y-98161500D01*
X128502000Y-98146500D01*
X128504000Y-98130500D01*
X128507000Y-98115500D01*
X128510000Y-98099500D01*
X128515000Y-98084500D01*
X128520000Y-98069500D01*
X128526000Y-98055500D01*
X128533000Y-98041500D01*
X128540000Y-98027500D01*
X128548000Y-98014500D01*
X128557000Y-98001500D01*
X128567000Y-97988500D01*
X128577000Y-97976500D01*
X128588000Y-97965500D01*
X128599000Y-97954500D01*
X128611000Y-97944500D01*
X128624000Y-97934500D01*
X128637000Y-97925500D01*
X128650000Y-97917500D01*
X128664000Y-97910500D01*
X128678000Y-97903500D01*
X128692000Y-97897500D01*
X128707000Y-97892500D01*
X128722000Y-97887500D01*
X128738000Y-97884500D01*
X128753000Y-97881500D01*
X128769000Y-97879500D01*
X128784000Y-97877500D01*
X128800000Y-97877500D01*
X130000000Y-97877500D01*
X130016000Y-97877500D01*
X130031000Y-97879500D01*
G37*
%TD*%
D11*
%TO.C,U10*%
X142050000Y-114200000D03*
X142050000Y-114850000D03*
X142050000Y-115500000D03*
X142050000Y-116150000D03*
X142050000Y-116800000D03*
X142050000Y-117450000D03*
X142050000Y-118100000D03*
X142050000Y-118750000D03*
X142050000Y-119400000D03*
X142050000Y-120050000D03*
X147850000Y-120050000D03*
X147850000Y-119400000D03*
X147850000Y-118750000D03*
X147850000Y-118100000D03*
X147850000Y-117450000D03*
X147850000Y-116800000D03*
X147850000Y-116150000D03*
X147850000Y-115500000D03*
X147850000Y-114850000D03*
X147850000Y-114200000D03*
%TD*%
D12*
%TO.C,Q4*%
X169550000Y-62225000D03*
X171450000Y-62225000D03*
X170500000Y-60350000D03*
%TD*%
D13*
%TO.C,R36*%
X160700000Y-123000000D03*
X160700000Y-121000000D03*
%TD*%
D14*
%TO.C,U3*%
X163550000Y-113607500D03*
X163550000Y-114877500D03*
X163550000Y-116147500D03*
X163550000Y-117417500D03*
X163550000Y-118687500D03*
X163550000Y-119957500D03*
X163550000Y-121227500D03*
X168500000Y-121227500D03*
X168500000Y-119957500D03*
X168500000Y-118687500D03*
X168500000Y-117417500D03*
X168500000Y-116147500D03*
X168500000Y-114877500D03*
X168500000Y-113607500D03*
%TD*%
D15*
%TO.C,TP5*%
X152000000Y-139400000D03*
%TD*%
D16*
%TO.C,F1*%
X155837500Y-141900000D03*
X153962500Y-141900000D03*
%TD*%
D13*
%TO.C,R15*%
X145200000Y-58387500D03*
X145200000Y-56387500D03*
%TD*%
D17*
%TO.C,D5*%
X170100000Y-102562500D03*
X170100000Y-104437500D03*
%TD*%
D12*
%TO.C,Q7*%
X136850000Y-62262500D03*
X138750000Y-62262500D03*
X137800000Y-60387500D03*
%TD*%
%TO.C,Q8*%
X133300000Y-62287500D03*
X135200000Y-62287500D03*
X134250000Y-60412500D03*
%TD*%
D18*
%TO.C,D3*%
X123250000Y-63762500D03*
X123250000Y-61887500D03*
%TD*%
D19*
%TO.C,J4*%
X157200000Y-107887500D03*
%TD*%
D13*
%TO.C,R24*%
X133300000Y-67687500D03*
X133300000Y-65687500D03*
%TD*%
D12*
%TO.C,Q5*%
X154750000Y-62225000D03*
X156650000Y-62225000D03*
X155700000Y-60350000D03*
%TD*%
D20*
%TO.C,R39*%
X158200000Y-126600000D03*
X160200000Y-126600000D03*
%TD*%
D13*
%TO.C,R17*%
X134800000Y-58387500D03*
X134800000Y-56387500D03*
%TD*%
D21*
%TO.C,U1*%
X172450000Y-87162500D03*
X172450000Y-92612500D03*
D22*
X169420000Y-87462500D03*
X169420000Y-92312500D03*
D23*
X169450000Y-89887500D03*
X172750000Y-90887500D03*
X172750000Y-88887500D03*
X165950000Y-87387500D03*
X163450000Y-87387500D03*
X160950000Y-87387500D03*
%TD*%
D24*
%TO.C,R2*%
X167000000Y-123000000D03*
X167000000Y-125000000D03*
%TD*%
D25*
%TO.C,R38*%
X150800000Y-123100000D03*
X148800000Y-123100000D03*
%TD*%
D26*
%TO.C,H4*%
X169975000Y-141000000D03*
X170568109Y-139568109D03*
X170568109Y-142431891D03*
X172000000Y-138975000D03*
D27*
X172000000Y-141000000D03*
D26*
X172000000Y-143025000D03*
X173431891Y-139568109D03*
X173431891Y-142431891D03*
X174025000Y-141000000D03*
%TD*%
D28*
%TO.C,C5*%
X139700000Y-116937500D03*
X139700000Y-118837500D03*
%TD*%
D15*
%TO.C,TP1*%
X168900000Y-110000000D03*
%TD*%
D26*
%TO.C,H3*%
X109975000Y-141000000D03*
X110568109Y-139568109D03*
X110568109Y-142431891D03*
X112000000Y-138975000D03*
D27*
X112000000Y-141000000D03*
D26*
X112000000Y-143025000D03*
X113431891Y-139568109D03*
X113431891Y-142431891D03*
X114025000Y-141000000D03*
%TD*%
D13*
%TO.C,R27*%
X140500000Y-67687500D03*
X140500000Y-65687500D03*
%TD*%
%TO.C,R1*%
X170400000Y-125000000D03*
X170400000Y-123000000D03*
%TD*%
D29*
%TO.C,J1*%
X143100000Y-140725000D03*
X142450000Y-140725000D03*
X141800000Y-140725000D03*
X141150000Y-140725000D03*
X140500000Y-140725000D03*
D30*
X137625000Y-143400000D03*
D31*
X138062500Y-143400000D03*
D32*
X139575000Y-140400000D03*
D33*
X141800000Y-143400000D03*
D32*
X144025000Y-140400000D03*
D31*
X145537500Y-143400000D03*
D30*
X145975000Y-143400000D03*
%TD*%
D12*
%TO.C,Q10*%
X151200000Y-62262500D03*
X153100000Y-62262500D03*
X152150000Y-60387500D03*
%TD*%
D13*
%TO.C,R41*%
X157500000Y-118287500D03*
X157500000Y-116287500D03*
%TD*%
%TO.C,R12*%
X162100000Y-67587500D03*
X162100000Y-65587500D03*
%TD*%
%TO.C,R18*%
X148600000Y-58387500D03*
X148600000Y-56387500D03*
%TD*%
%TO.C,R22*%
X144000000Y-67687500D03*
X144000000Y-65687500D03*
%TD*%
D25*
%TO.C,R42*%
X152200000Y-119700000D03*
X150200000Y-119700000D03*
%TD*%
D18*
%TO.C,D2*%
X119250000Y-63825000D03*
X119250000Y-61950000D03*
%TD*%
D34*
%TO.C,JP1*%
X147400000Y-106200000D03*
X146100000Y-106200000D03*
%TD*%
D13*
%TO.C,R20*%
X141700000Y-58387500D03*
X141700000Y-56387500D03*
%TD*%
D35*
%TO.C,U2*%
X141080000Y-75437500D03*
X142350000Y-75437500D03*
X143620000Y-75437500D03*
X144890000Y-75437500D03*
X146160000Y-75437500D03*
X147430000Y-75437500D03*
X148700000Y-75437500D03*
X149970000Y-75437500D03*
X149970000Y-70487500D03*
X148700000Y-70487500D03*
X147430000Y-70487500D03*
X146160000Y-70487500D03*
X144890000Y-70487500D03*
X143620000Y-70487500D03*
X142350000Y-70487500D03*
X141080000Y-70487500D03*
%TD*%
D12*
%TO.C,Q12*%
X114300000Y-67762500D03*
X116200000Y-67762500D03*
X115250000Y-65887500D03*
%TD*%
%TO.C,Q3*%
X173150000Y-62225000D03*
X175050000Y-62225000D03*
X174100000Y-60350000D03*
%TD*%
%TO.C,Q6*%
X144050000Y-62262500D03*
X145950000Y-62262500D03*
X145000000Y-60387500D03*
%TD*%
%TO.C,Q11*%
X140450000Y-62262500D03*
X142350000Y-62262500D03*
X141400000Y-60387500D03*
%TD*%
D15*
%TO.C,TP2*%
X160200000Y-132300000D03*
%TD*%
%TO.C,TP3*%
X164300000Y-109000000D03*
%TD*%
D24*
%TO.C,R28*%
X115200000Y-56637500D03*
X115200000Y-58637500D03*
%TD*%
D12*
%TO.C,Q14*%
X118300000Y-67825000D03*
X120200000Y-67825000D03*
X119250000Y-65950000D03*
%TD*%
D26*
%TO.C,H1*%
X109975000Y-39000000D03*
X110568109Y-37568109D03*
X110568109Y-40431891D03*
X112000000Y-36975000D03*
D27*
X112000000Y-39000000D03*
D26*
X112000000Y-41025000D03*
X113431891Y-37568109D03*
X113431891Y-40431891D03*
X114025000Y-39000000D03*
%TD*%
D13*
%TO.C,R21*%
X154800000Y-67687500D03*
X154800000Y-65687500D03*
%TD*%
%TO.C,R34*%
X122500000Y-73125000D03*
X122500000Y-71125000D03*
%TD*%
D24*
%TO.C,R30*%
X123250000Y-56637500D03*
X123250000Y-58637500D03*
%TD*%
D13*
%TO.C,R10*%
X173200000Y-67587500D03*
X173200000Y-65587500D03*
%TD*%
D12*
%TO.C,Q15*%
X122300000Y-67825000D03*
X124200000Y-67825000D03*
X123250000Y-65950000D03*
%TD*%
%TO.C,Q16*%
X126300000Y-67762500D03*
X128200000Y-67762500D03*
X127250000Y-65887500D03*
%TD*%
D24*
%TO.C,R31*%
X127250000Y-56637500D03*
X127250000Y-58637500D03*
%TD*%
%TO.C,R29*%
X119250000Y-56637500D03*
X119250000Y-58637500D03*
%TD*%
D13*
%TO.C,R33*%
X118600000Y-73125000D03*
X118600000Y-71125000D03*
%TD*%
D15*
%TO.C,TP4*%
X119250000Y-141500000D03*
%TD*%
D12*
%TO.C,Q13*%
X158450000Y-62262500D03*
X160350000Y-62262500D03*
X159400000Y-60387500D03*
%TD*%
D13*
%TO.C,R8*%
X158300000Y-67687500D03*
X158300000Y-65687500D03*
%TD*%
%TO.C,R16*%
X138200000Y-58387500D03*
X138200000Y-56387500D03*
%TD*%
%TO.C,R26*%
X151100000Y-67687500D03*
X151100000Y-65687500D03*
%TD*%
D36*
%TO.C,D6*%
X152000000Y-141887500D03*
X149200000Y-141887500D03*
%TD*%
D13*
%TO.C,R14*%
X155700000Y-58287500D03*
X155700000Y-56287500D03*
%TD*%
%TO.C,R13*%
X159400000Y-58287500D03*
X159400000Y-56287500D03*
%TD*%
%TO.C,R11*%
X165800000Y-67587500D03*
X165800000Y-65587500D03*
%TD*%
D18*
%TO.C,D1*%
X115250000Y-63825000D03*
X115250000Y-61950000D03*
%TD*%
D37*
%TO.C,SW1*%
X120400000Y-128910000D03*
D38*
X125000000Y-128910000D03*
%TD*%
D26*
%TO.C,H2*%
X169975000Y-39000000D03*
X170568109Y-37568109D03*
X170568109Y-40431891D03*
X172000000Y-36975000D03*
D27*
X172000000Y-39000000D03*
D26*
X172000000Y-41025000D03*
X173431891Y-37568109D03*
X173431891Y-40431891D03*
X174025000Y-39000000D03*
%TD*%
D13*
%TO.C,R19*%
X152000000Y-58387500D03*
X152000000Y-56387500D03*
%TD*%
D39*
%TO.C,C4*%
X161400000Y-117377500D03*
X159500000Y-117377500D03*
%TD*%
D12*
%TO.C,Q2*%
X165850000Y-62262500D03*
X167750000Y-62262500D03*
X166800000Y-60387500D03*
%TD*%
D19*
%TO.C,J3*%
X128200000Y-107887500D03*
%TD*%
D12*
%TO.C,Q1*%
X162150000Y-62262500D03*
X164050000Y-62262500D03*
X163100000Y-60387500D03*
%TD*%
D40*
%TO.C,C6*%
X148000000Y-112612500D03*
X148000000Y-110712500D03*
%TD*%
D12*
%TO.C,Q9*%
X147650000Y-62262500D03*
X149550000Y-62262500D03*
X148600000Y-60387500D03*
%TD*%
D18*
%TO.C,D4*%
X127250000Y-63825000D03*
X127250000Y-61950000D03*
%TD*%
D39*
%TO.C,C1*%
X139450000Y-70700000D03*
X137550000Y-70700000D03*
%TD*%
D13*
%TO.C,R35*%
X126500000Y-73125000D03*
X126500000Y-71125000D03*
%TD*%
%TO.C,R40*%
X139700000Y-115187500D03*
X139700000Y-113187500D03*
%TD*%
%TO.C,R25*%
X147700000Y-67687500D03*
X147700000Y-65687500D03*
%TD*%
D41*
%TO.C,U7*%
X156950000Y-123637500D03*
X157900000Y-123637500D03*
X158850000Y-123637500D03*
X158850000Y-121362500D03*
X156950000Y-121362500D03*
%TD*%
D42*
%TO.C,R3*%
X127075000Y-136600000D03*
X125000000Y-136600000D03*
%TD*%
D13*
%TO.C,R9*%
X169500000Y-67587500D03*
X169500000Y-65587500D03*
%TD*%
%TO.C,R32*%
X114500000Y-73125000D03*
X114500000Y-71125000D03*
%TD*%
%TO.C,R23*%
X136800000Y-67687500D03*
X136800000Y-65687500D03*
%TD*%
D24*
%TO.C,R37*%
X126900000Y-120000000D03*
X126900000Y-122000000D03*
%TD*%
D15*
%TO.C,U4*%
X135650000Y-52477500D03*
D43*
X138190000Y-52477500D03*
X140730000Y-52477500D03*
X143270000Y-52477500D03*
X145810000Y-52477500D03*
X148350000Y-52477500D03*
X148350000Y-37237500D03*
X145810000Y-37237500D03*
X143270000Y-37237500D03*
X140730000Y-37237500D03*
X138190000Y-37237500D03*
X135650000Y-37237500D03*
%TD*%
D37*
%TO.C,SW3*%
X138400000Y-126545000D03*
D38*
X143000000Y-126545000D03*
X147600000Y-126545000D03*
X138400000Y-133455000D03*
X143000000Y-133455000D03*
X147600000Y-133455000D03*
%TD*%
M02*
