%TF.GenerationSoftware,KiCad,Pcbnew,7.0.9-7.0.9~ubuntu22.04.1*%
%TF.CreationDate,2024-01-21T01:01:47-07:00*%
%TF.ProjectId,Multimeter,4d756c74-696d-4657-9465-722e6b696361,rev?*%
%TF.SameCoordinates,Original*%
%TF.FileFunction,Legend,Top*%
%TF.FilePolarity,Positive*%
%FSLAX46Y46*%
G04 Gerber Fmt 4.6, Leading zero omitted, Abs format (unit mm)*
G04 Created by KiCad (PCBNEW 7.0.9-7.0.9~ubuntu22.04.1) date 2024-01-21 01:01:47*
%MOMM*%
%LPD*%
G01*
G04 APERTURE LIST*
%ADD10C,0.150000*%
%ADD11C,0.120000*%
%ADD12C,0.127000*%
%ADD13C,0.200000*%
G04 APERTURE END LIST*
D10*
X126536779Y-60757319D02*
X126536779Y-60090652D01*
X126536779Y-60185890D02*
X126584398Y-60138271D01*
X126584398Y-60138271D02*
X126679636Y-60090652D01*
X126679636Y-60090652D02*
X126822493Y-60090652D01*
X126822493Y-60090652D02*
X126917731Y-60138271D01*
X126917731Y-60138271D02*
X126965350Y-60233509D01*
X126965350Y-60233509D02*
X126965350Y-60757319D01*
X126965350Y-60233509D02*
X127012969Y-60138271D01*
X127012969Y-60138271D02*
X127108207Y-60090652D01*
X127108207Y-60090652D02*
X127251064Y-60090652D01*
X127251064Y-60090652D02*
X127346303Y-60138271D01*
X127346303Y-60138271D02*
X127393922Y-60233509D01*
X127393922Y-60233509D02*
X127393922Y-60757319D01*
X127870112Y-60757319D02*
X127870112Y-60090652D01*
X127870112Y-59757319D02*
X127822493Y-59804938D01*
X127822493Y-59804938D02*
X127870112Y-59852557D01*
X127870112Y-59852557D02*
X127917731Y-59804938D01*
X127917731Y-59804938D02*
X127870112Y-59757319D01*
X127870112Y-59757319D02*
X127870112Y-59852557D01*
X128774873Y-60709700D02*
X128679635Y-60757319D01*
X128679635Y-60757319D02*
X128489159Y-60757319D01*
X128489159Y-60757319D02*
X128393921Y-60709700D01*
X128393921Y-60709700D02*
X128346302Y-60662080D01*
X128346302Y-60662080D02*
X128298683Y-60566842D01*
X128298683Y-60566842D02*
X128298683Y-60281128D01*
X128298683Y-60281128D02*
X128346302Y-60185890D01*
X128346302Y-60185890D02*
X128393921Y-60138271D01*
X128393921Y-60138271D02*
X128489159Y-60090652D01*
X128489159Y-60090652D02*
X128679635Y-60090652D01*
X128679635Y-60090652D02*
X128774873Y-60138271D01*
X129203445Y-60757319D02*
X129203445Y-60090652D01*
X129203445Y-60281128D02*
X129251064Y-60185890D01*
X129251064Y-60185890D02*
X129298683Y-60138271D01*
X129298683Y-60138271D02*
X129393921Y-60090652D01*
X129393921Y-60090652D02*
X129489159Y-60090652D01*
X129965350Y-60757319D02*
X129870112Y-60709700D01*
X129870112Y-60709700D02*
X129822493Y-60662080D01*
X129822493Y-60662080D02*
X129774874Y-60566842D01*
X129774874Y-60566842D02*
X129774874Y-60281128D01*
X129774874Y-60281128D02*
X129822493Y-60185890D01*
X129822493Y-60185890D02*
X129870112Y-60138271D01*
X129870112Y-60138271D02*
X129965350Y-60090652D01*
X129965350Y-60090652D02*
X130108207Y-60090652D01*
X130108207Y-60090652D02*
X130203445Y-60138271D01*
X130203445Y-60138271D02*
X130251064Y-60185890D01*
X130251064Y-60185890D02*
X130298683Y-60281128D01*
X130298683Y-60281128D02*
X130298683Y-60566842D01*
X130298683Y-60566842D02*
X130251064Y-60662080D01*
X130251064Y-60662080D02*
X130203445Y-60709700D01*
X130203445Y-60709700D02*
X130108207Y-60757319D01*
X130108207Y-60757319D02*
X129965350Y-60757319D01*
X113679636Y-60757319D02*
X113584398Y-60709700D01*
X113584398Y-60709700D02*
X113536779Y-60614461D01*
X113536779Y-60614461D02*
X113536779Y-59757319D01*
X114203446Y-60757319D02*
X114108208Y-60709700D01*
X114108208Y-60709700D02*
X114060589Y-60662080D01*
X114060589Y-60662080D02*
X114012970Y-60566842D01*
X114012970Y-60566842D02*
X114012970Y-60281128D01*
X114012970Y-60281128D02*
X114060589Y-60185890D01*
X114060589Y-60185890D02*
X114108208Y-60138271D01*
X114108208Y-60138271D02*
X114203446Y-60090652D01*
X114203446Y-60090652D02*
X114346303Y-60090652D01*
X114346303Y-60090652D02*
X114441541Y-60138271D01*
X114441541Y-60138271D02*
X114489160Y-60185890D01*
X114489160Y-60185890D02*
X114536779Y-60281128D01*
X114536779Y-60281128D02*
X114536779Y-60566842D01*
X114536779Y-60566842D02*
X114489160Y-60662080D01*
X114489160Y-60662080D02*
X114441541Y-60709700D01*
X114441541Y-60709700D02*
X114346303Y-60757319D01*
X114346303Y-60757319D02*
X114203446Y-60757319D01*
X114870113Y-60090652D02*
X115060589Y-60757319D01*
X115060589Y-60757319D02*
X115251065Y-60281128D01*
X115251065Y-60281128D02*
X115441541Y-60757319D01*
X115441541Y-60757319D02*
X115632017Y-60090652D01*
X116727256Y-60757319D02*
X116965351Y-60757319D01*
X116965351Y-60757319D02*
X116965351Y-60566842D01*
X116965351Y-60566842D02*
X116870113Y-60519223D01*
X116870113Y-60519223D02*
X116774875Y-60423985D01*
X116774875Y-60423985D02*
X116727256Y-60281128D01*
X116727256Y-60281128D02*
X116727256Y-60043033D01*
X116727256Y-60043033D02*
X116774875Y-59900176D01*
X116774875Y-59900176D02*
X116870113Y-59804938D01*
X116870113Y-59804938D02*
X117012970Y-59757319D01*
X117012970Y-59757319D02*
X117203446Y-59757319D01*
X117203446Y-59757319D02*
X117346303Y-59804938D01*
X117346303Y-59804938D02*
X117441541Y-59900176D01*
X117441541Y-59900176D02*
X117489160Y-60043033D01*
X117489160Y-60043033D02*
X117489160Y-60281128D01*
X117489160Y-60281128D02*
X117441541Y-60423985D01*
X117441541Y-60423985D02*
X117346303Y-60519223D01*
X117346303Y-60519223D02*
X117251065Y-60566842D01*
X117251065Y-60566842D02*
X117251065Y-60757319D01*
X117251065Y-60757319D02*
X117489160Y-60757319D01*
X118536779Y-60090652D02*
X118536779Y-61090652D01*
X118536779Y-60138271D02*
X118632017Y-60090652D01*
X118632017Y-60090652D02*
X118822493Y-60090652D01*
X118822493Y-60090652D02*
X118917731Y-60138271D01*
X118917731Y-60138271D02*
X118965350Y-60185890D01*
X118965350Y-60185890D02*
X119012969Y-60281128D01*
X119012969Y-60281128D02*
X119012969Y-60566842D01*
X119012969Y-60566842D02*
X118965350Y-60662080D01*
X118965350Y-60662080D02*
X118917731Y-60709700D01*
X118917731Y-60709700D02*
X118822493Y-60757319D01*
X118822493Y-60757319D02*
X118632017Y-60757319D01*
X118632017Y-60757319D02*
X118536779Y-60709700D01*
X119441541Y-60757319D02*
X119441541Y-60090652D01*
X119441541Y-59757319D02*
X119393922Y-59804938D01*
X119393922Y-59804938D02*
X119441541Y-59852557D01*
X119441541Y-59852557D02*
X119489160Y-59804938D01*
X119489160Y-59804938D02*
X119441541Y-59757319D01*
X119441541Y-59757319D02*
X119441541Y-59852557D01*
X120346302Y-60709700D02*
X120251064Y-60757319D01*
X120251064Y-60757319D02*
X120060588Y-60757319D01*
X120060588Y-60757319D02*
X119965350Y-60709700D01*
X119965350Y-60709700D02*
X119917731Y-60662080D01*
X119917731Y-60662080D02*
X119870112Y-60566842D01*
X119870112Y-60566842D02*
X119870112Y-60281128D01*
X119870112Y-60281128D02*
X119917731Y-60185890D01*
X119917731Y-60185890D02*
X119965350Y-60138271D01*
X119965350Y-60138271D02*
X120060588Y-60090652D01*
X120060588Y-60090652D02*
X120251064Y-60090652D01*
X120251064Y-60090652D02*
X120346302Y-60138271D01*
X120917731Y-60757319D02*
X120822493Y-60709700D01*
X120822493Y-60709700D02*
X120774874Y-60662080D01*
X120774874Y-60662080D02*
X120727255Y-60566842D01*
X120727255Y-60566842D02*
X120727255Y-60281128D01*
X120727255Y-60281128D02*
X120774874Y-60185890D01*
X120774874Y-60185890D02*
X120822493Y-60138271D01*
X120822493Y-60138271D02*
X120917731Y-60090652D01*
X120917731Y-60090652D02*
X121060588Y-60090652D01*
X121060588Y-60090652D02*
X121155826Y-60138271D01*
X121155826Y-60138271D02*
X121203445Y-60185890D01*
X121203445Y-60185890D02*
X121251064Y-60281128D01*
X121251064Y-60281128D02*
X121251064Y-60566842D01*
X121251064Y-60566842D02*
X121203445Y-60662080D01*
X121203445Y-60662080D02*
X121155826Y-60709700D01*
X121155826Y-60709700D02*
X121060588Y-60757319D01*
X121060588Y-60757319D02*
X120917731Y-60757319D01*
X122536779Y-60090652D02*
X122536779Y-60757319D01*
X122536779Y-60185890D02*
X122584398Y-60138271D01*
X122584398Y-60138271D02*
X122679636Y-60090652D01*
X122679636Y-60090652D02*
X122822493Y-60090652D01*
X122822493Y-60090652D02*
X122917731Y-60138271D01*
X122917731Y-60138271D02*
X122965350Y-60233509D01*
X122965350Y-60233509D02*
X122965350Y-60757319D01*
X123870112Y-60757319D02*
X123870112Y-60233509D01*
X123870112Y-60233509D02*
X123822493Y-60138271D01*
X123822493Y-60138271D02*
X123727255Y-60090652D01*
X123727255Y-60090652D02*
X123536779Y-60090652D01*
X123536779Y-60090652D02*
X123441541Y-60138271D01*
X123870112Y-60709700D02*
X123774874Y-60757319D01*
X123774874Y-60757319D02*
X123536779Y-60757319D01*
X123536779Y-60757319D02*
X123441541Y-60709700D01*
X123441541Y-60709700D02*
X123393922Y-60614461D01*
X123393922Y-60614461D02*
X123393922Y-60519223D01*
X123393922Y-60519223D02*
X123441541Y-60423985D01*
X123441541Y-60423985D02*
X123536779Y-60376366D01*
X123536779Y-60376366D02*
X123774874Y-60376366D01*
X123774874Y-60376366D02*
X123870112Y-60328747D01*
X124346303Y-60090652D02*
X124346303Y-60757319D01*
X124346303Y-60185890D02*
X124393922Y-60138271D01*
X124393922Y-60138271D02*
X124489160Y-60090652D01*
X124489160Y-60090652D02*
X124632017Y-60090652D01*
X124632017Y-60090652D02*
X124727255Y-60138271D01*
X124727255Y-60138271D02*
X124774874Y-60233509D01*
X124774874Y-60233509D02*
X124774874Y-60757319D01*
X125393922Y-60757319D02*
X125298684Y-60709700D01*
X125298684Y-60709700D02*
X125251065Y-60662080D01*
X125251065Y-60662080D02*
X125203446Y-60566842D01*
X125203446Y-60566842D02*
X125203446Y-60281128D01*
X125203446Y-60281128D02*
X125251065Y-60185890D01*
X125251065Y-60185890D02*
X125298684Y-60138271D01*
X125298684Y-60138271D02*
X125393922Y-60090652D01*
X125393922Y-60090652D02*
X125536779Y-60090652D01*
X125536779Y-60090652D02*
X125632017Y-60138271D01*
X125632017Y-60138271D02*
X125679636Y-60185890D01*
X125679636Y-60185890D02*
X125727255Y-60281128D01*
X125727255Y-60281128D02*
X125727255Y-60566842D01*
X125727255Y-60566842D02*
X125679636Y-60662080D01*
X125679636Y-60662080D02*
X125632017Y-60709700D01*
X125632017Y-60709700D02*
X125536779Y-60757319D01*
X125536779Y-60757319D02*
X125393922Y-60757319D01*
X141711905Y-112404819D02*
X141711905Y-113214342D01*
X141711905Y-113214342D02*
X141759524Y-113309580D01*
X141759524Y-113309580D02*
X141807143Y-113357200D01*
X141807143Y-113357200D02*
X141902381Y-113404819D01*
X141902381Y-113404819D02*
X142092857Y-113404819D01*
X142092857Y-113404819D02*
X142188095Y-113357200D01*
X142188095Y-113357200D02*
X142235714Y-113309580D01*
X142235714Y-113309580D02*
X142283333Y-113214342D01*
X142283333Y-113214342D02*
X142283333Y-112404819D01*
X143283333Y-113404819D02*
X142711905Y-113404819D01*
X142997619Y-113404819D02*
X142997619Y-112404819D01*
X142997619Y-112404819D02*
X142902381Y-112547676D01*
X142902381Y-112547676D02*
X142807143Y-112642914D01*
X142807143Y-112642914D02*
X142711905Y-112690533D01*
X143902381Y-112404819D02*
X143997619Y-112404819D01*
X143997619Y-112404819D02*
X144092857Y-112452438D01*
X144092857Y-112452438D02*
X144140476Y-112500057D01*
X144140476Y-112500057D02*
X144188095Y-112595295D01*
X144188095Y-112595295D02*
X144235714Y-112785771D01*
X144235714Y-112785771D02*
X144235714Y-113023866D01*
X144235714Y-113023866D02*
X144188095Y-113214342D01*
X144188095Y-113214342D02*
X144140476Y-113309580D01*
X144140476Y-113309580D02*
X144092857Y-113357200D01*
X144092857Y-113357200D02*
X143997619Y-113404819D01*
X143997619Y-113404819D02*
X143902381Y-113404819D01*
X143902381Y-113404819D02*
X143807143Y-113357200D01*
X143807143Y-113357200D02*
X143759524Y-113309580D01*
X143759524Y-113309580D02*
X143711905Y-113214342D01*
X143711905Y-113214342D02*
X143664286Y-113023866D01*
X143664286Y-113023866D02*
X143664286Y-112785771D01*
X143664286Y-112785771D02*
X143711905Y-112595295D01*
X143711905Y-112595295D02*
X143759524Y-112500057D01*
X143759524Y-112500057D02*
X143807143Y-112452438D01*
X143807143Y-112452438D02*
X143902381Y-112404819D01*
X170604761Y-64437557D02*
X170509523Y-64389938D01*
X170509523Y-64389938D02*
X170414285Y-64294700D01*
X170414285Y-64294700D02*
X170271428Y-64151842D01*
X170271428Y-64151842D02*
X170176190Y-64104223D01*
X170176190Y-64104223D02*
X170080952Y-64104223D01*
X170128571Y-64342319D02*
X170033333Y-64294700D01*
X170033333Y-64294700D02*
X169938095Y-64199461D01*
X169938095Y-64199461D02*
X169890476Y-64008985D01*
X169890476Y-64008985D02*
X169890476Y-63675652D01*
X169890476Y-63675652D02*
X169938095Y-63485176D01*
X169938095Y-63485176D02*
X170033333Y-63389938D01*
X170033333Y-63389938D02*
X170128571Y-63342319D01*
X170128571Y-63342319D02*
X170319047Y-63342319D01*
X170319047Y-63342319D02*
X170414285Y-63389938D01*
X170414285Y-63389938D02*
X170509523Y-63485176D01*
X170509523Y-63485176D02*
X170557142Y-63675652D01*
X170557142Y-63675652D02*
X170557142Y-64008985D01*
X170557142Y-64008985D02*
X170509523Y-64199461D01*
X170509523Y-64199461D02*
X170414285Y-64294700D01*
X170414285Y-64294700D02*
X170319047Y-64342319D01*
X170319047Y-64342319D02*
X170128571Y-64342319D01*
X171414285Y-63675652D02*
X171414285Y-64342319D01*
X171176190Y-63294700D02*
X170938095Y-64008985D01*
X170938095Y-64008985D02*
X171557142Y-64008985D01*
X162457142Y-123254819D02*
X162123809Y-122778628D01*
X161885714Y-123254819D02*
X161885714Y-122254819D01*
X161885714Y-122254819D02*
X162266666Y-122254819D01*
X162266666Y-122254819D02*
X162361904Y-122302438D01*
X162361904Y-122302438D02*
X162409523Y-122350057D01*
X162409523Y-122350057D02*
X162457142Y-122445295D01*
X162457142Y-122445295D02*
X162457142Y-122588152D01*
X162457142Y-122588152D02*
X162409523Y-122683390D01*
X162409523Y-122683390D02*
X162361904Y-122731009D01*
X162361904Y-122731009D02*
X162266666Y-122778628D01*
X162266666Y-122778628D02*
X161885714Y-122778628D01*
X162790476Y-122254819D02*
X163409523Y-122254819D01*
X163409523Y-122254819D02*
X163076190Y-122635771D01*
X163076190Y-122635771D02*
X163219047Y-122635771D01*
X163219047Y-122635771D02*
X163314285Y-122683390D01*
X163314285Y-122683390D02*
X163361904Y-122731009D01*
X163361904Y-122731009D02*
X163409523Y-122826247D01*
X163409523Y-122826247D02*
X163409523Y-123064342D01*
X163409523Y-123064342D02*
X163361904Y-123159580D01*
X163361904Y-123159580D02*
X163314285Y-123207200D01*
X163314285Y-123207200D02*
X163219047Y-123254819D01*
X163219047Y-123254819D02*
X162933333Y-123254819D01*
X162933333Y-123254819D02*
X162838095Y-123207200D01*
X162838095Y-123207200D02*
X162790476Y-123159580D01*
X164266666Y-122254819D02*
X164076190Y-122254819D01*
X164076190Y-122254819D02*
X163980952Y-122302438D01*
X163980952Y-122302438D02*
X163933333Y-122350057D01*
X163933333Y-122350057D02*
X163838095Y-122492914D01*
X163838095Y-122492914D02*
X163790476Y-122683390D01*
X163790476Y-122683390D02*
X163790476Y-123064342D01*
X163790476Y-123064342D02*
X163838095Y-123159580D01*
X163838095Y-123159580D02*
X163885714Y-123207200D01*
X163885714Y-123207200D02*
X163980952Y-123254819D01*
X163980952Y-123254819D02*
X164171428Y-123254819D01*
X164171428Y-123254819D02*
X164266666Y-123207200D01*
X164266666Y-123207200D02*
X164314285Y-123159580D01*
X164314285Y-123159580D02*
X164361904Y-123064342D01*
X164361904Y-123064342D02*
X164361904Y-122826247D01*
X164361904Y-122826247D02*
X164314285Y-122731009D01*
X164314285Y-122731009D02*
X164266666Y-122683390D01*
X164266666Y-122683390D02*
X164171428Y-122635771D01*
X164171428Y-122635771D02*
X163980952Y-122635771D01*
X163980952Y-122635771D02*
X163885714Y-122683390D01*
X163885714Y-122683390D02*
X163838095Y-122731009D01*
X163838095Y-122731009D02*
X163790476Y-122826247D01*
X165263095Y-111592319D02*
X165263095Y-112401842D01*
X165263095Y-112401842D02*
X165310714Y-112497080D01*
X165310714Y-112497080D02*
X165358333Y-112544700D01*
X165358333Y-112544700D02*
X165453571Y-112592319D01*
X165453571Y-112592319D02*
X165644047Y-112592319D01*
X165644047Y-112592319D02*
X165739285Y-112544700D01*
X165739285Y-112544700D02*
X165786904Y-112497080D01*
X165786904Y-112497080D02*
X165834523Y-112401842D01*
X165834523Y-112401842D02*
X165834523Y-111592319D01*
X166215476Y-111592319D02*
X166834523Y-111592319D01*
X166834523Y-111592319D02*
X166501190Y-111973271D01*
X166501190Y-111973271D02*
X166644047Y-111973271D01*
X166644047Y-111973271D02*
X166739285Y-112020890D01*
X166739285Y-112020890D02*
X166786904Y-112068509D01*
X166786904Y-112068509D02*
X166834523Y-112163747D01*
X166834523Y-112163747D02*
X166834523Y-112401842D01*
X166834523Y-112401842D02*
X166786904Y-112497080D01*
X166786904Y-112497080D02*
X166739285Y-112544700D01*
X166739285Y-112544700D02*
X166644047Y-112592319D01*
X166644047Y-112592319D02*
X166358333Y-112592319D01*
X166358333Y-112592319D02*
X166263095Y-112544700D01*
X166263095Y-112544700D02*
X166215476Y-112497080D01*
X153438095Y-138904819D02*
X154009523Y-138904819D01*
X153723809Y-139904819D02*
X153723809Y-138904819D01*
X154342857Y-139904819D02*
X154342857Y-138904819D01*
X154342857Y-138904819D02*
X154723809Y-138904819D01*
X154723809Y-138904819D02*
X154819047Y-138952438D01*
X154819047Y-138952438D02*
X154866666Y-139000057D01*
X154866666Y-139000057D02*
X154914285Y-139095295D01*
X154914285Y-139095295D02*
X154914285Y-139238152D01*
X154914285Y-139238152D02*
X154866666Y-139333390D01*
X154866666Y-139333390D02*
X154819047Y-139381009D01*
X154819047Y-139381009D02*
X154723809Y-139428628D01*
X154723809Y-139428628D02*
X154342857Y-139428628D01*
X155819047Y-138904819D02*
X155342857Y-138904819D01*
X155342857Y-138904819D02*
X155295238Y-139381009D01*
X155295238Y-139381009D02*
X155342857Y-139333390D01*
X155342857Y-139333390D02*
X155438095Y-139285771D01*
X155438095Y-139285771D02*
X155676190Y-139285771D01*
X155676190Y-139285771D02*
X155771428Y-139333390D01*
X155771428Y-139333390D02*
X155819047Y-139381009D01*
X155819047Y-139381009D02*
X155866666Y-139476247D01*
X155866666Y-139476247D02*
X155866666Y-139714342D01*
X155866666Y-139714342D02*
X155819047Y-139809580D01*
X155819047Y-139809580D02*
X155771428Y-139857200D01*
X155771428Y-139857200D02*
X155676190Y-139904819D01*
X155676190Y-139904819D02*
X155438095Y-139904819D01*
X155438095Y-139904819D02*
X155342857Y-139857200D01*
X155342857Y-139857200D02*
X155295238Y-139809580D01*
X154566666Y-143481009D02*
X154233333Y-143481009D01*
X154233333Y-144004819D02*
X154233333Y-143004819D01*
X154233333Y-143004819D02*
X154709523Y-143004819D01*
X155614285Y-144004819D02*
X155042857Y-144004819D01*
X155328571Y-144004819D02*
X155328571Y-143004819D01*
X155328571Y-143004819D02*
X155233333Y-143147676D01*
X155233333Y-143147676D02*
X155138095Y-143242914D01*
X155138095Y-143242914D02*
X155042857Y-143290533D01*
X144004819Y-58030357D02*
X143528628Y-58363690D01*
X144004819Y-58601785D02*
X143004819Y-58601785D01*
X143004819Y-58601785D02*
X143004819Y-58220833D01*
X143004819Y-58220833D02*
X143052438Y-58125595D01*
X143052438Y-58125595D02*
X143100057Y-58077976D01*
X143100057Y-58077976D02*
X143195295Y-58030357D01*
X143195295Y-58030357D02*
X143338152Y-58030357D01*
X143338152Y-58030357D02*
X143433390Y-58077976D01*
X143433390Y-58077976D02*
X143481009Y-58125595D01*
X143481009Y-58125595D02*
X143528628Y-58220833D01*
X143528628Y-58220833D02*
X143528628Y-58601785D01*
X144004819Y-57077976D02*
X144004819Y-57649404D01*
X144004819Y-57363690D02*
X143004819Y-57363690D01*
X143004819Y-57363690D02*
X143147676Y-57458928D01*
X143147676Y-57458928D02*
X143242914Y-57554166D01*
X143242914Y-57554166D02*
X143290533Y-57649404D01*
X143004819Y-56173214D02*
X143004819Y-56649404D01*
X143004819Y-56649404D02*
X143481009Y-56697023D01*
X143481009Y-56697023D02*
X143433390Y-56649404D01*
X143433390Y-56649404D02*
X143385771Y-56554166D01*
X143385771Y-56554166D02*
X143385771Y-56316071D01*
X143385771Y-56316071D02*
X143433390Y-56220833D01*
X143433390Y-56220833D02*
X143481009Y-56173214D01*
X143481009Y-56173214D02*
X143576247Y-56125595D01*
X143576247Y-56125595D02*
X143814342Y-56125595D01*
X143814342Y-56125595D02*
X143909580Y-56173214D01*
X143909580Y-56173214D02*
X143957200Y-56220833D01*
X143957200Y-56220833D02*
X144004819Y-56316071D01*
X144004819Y-56316071D02*
X144004819Y-56554166D01*
X144004819Y-56554166D02*
X143957200Y-56649404D01*
X143957200Y-56649404D02*
X143909580Y-56697023D01*
X169361905Y-106392319D02*
X169361905Y-105392319D01*
X169361905Y-105392319D02*
X169600000Y-105392319D01*
X169600000Y-105392319D02*
X169742857Y-105439938D01*
X169742857Y-105439938D02*
X169838095Y-105535176D01*
X169838095Y-105535176D02*
X169885714Y-105630414D01*
X169885714Y-105630414D02*
X169933333Y-105820890D01*
X169933333Y-105820890D02*
X169933333Y-105963747D01*
X169933333Y-105963747D02*
X169885714Y-106154223D01*
X169885714Y-106154223D02*
X169838095Y-106249461D01*
X169838095Y-106249461D02*
X169742857Y-106344700D01*
X169742857Y-106344700D02*
X169600000Y-106392319D01*
X169600000Y-106392319D02*
X169361905Y-106392319D01*
X170838095Y-105392319D02*
X170361905Y-105392319D01*
X170361905Y-105392319D02*
X170314286Y-105868509D01*
X170314286Y-105868509D02*
X170361905Y-105820890D01*
X170361905Y-105820890D02*
X170457143Y-105773271D01*
X170457143Y-105773271D02*
X170695238Y-105773271D01*
X170695238Y-105773271D02*
X170790476Y-105820890D01*
X170790476Y-105820890D02*
X170838095Y-105868509D01*
X170838095Y-105868509D02*
X170885714Y-105963747D01*
X170885714Y-105963747D02*
X170885714Y-106201842D01*
X170885714Y-106201842D02*
X170838095Y-106297080D01*
X170838095Y-106297080D02*
X170790476Y-106344700D01*
X170790476Y-106344700D02*
X170695238Y-106392319D01*
X170695238Y-106392319D02*
X170457143Y-106392319D01*
X170457143Y-106392319D02*
X170361905Y-106344700D01*
X170361905Y-106344700D02*
X170314286Y-106297080D01*
X136804761Y-64537557D02*
X136709523Y-64489938D01*
X136709523Y-64489938D02*
X136614285Y-64394700D01*
X136614285Y-64394700D02*
X136471428Y-64251842D01*
X136471428Y-64251842D02*
X136376190Y-64204223D01*
X136376190Y-64204223D02*
X136280952Y-64204223D01*
X136328571Y-64442319D02*
X136233333Y-64394700D01*
X136233333Y-64394700D02*
X136138095Y-64299461D01*
X136138095Y-64299461D02*
X136090476Y-64108985D01*
X136090476Y-64108985D02*
X136090476Y-63775652D01*
X136090476Y-63775652D02*
X136138095Y-63585176D01*
X136138095Y-63585176D02*
X136233333Y-63489938D01*
X136233333Y-63489938D02*
X136328571Y-63442319D01*
X136328571Y-63442319D02*
X136519047Y-63442319D01*
X136519047Y-63442319D02*
X136614285Y-63489938D01*
X136614285Y-63489938D02*
X136709523Y-63585176D01*
X136709523Y-63585176D02*
X136757142Y-63775652D01*
X136757142Y-63775652D02*
X136757142Y-64108985D01*
X136757142Y-64108985D02*
X136709523Y-64299461D01*
X136709523Y-64299461D02*
X136614285Y-64394700D01*
X136614285Y-64394700D02*
X136519047Y-64442319D01*
X136519047Y-64442319D02*
X136328571Y-64442319D01*
X137090476Y-63442319D02*
X137757142Y-63442319D01*
X137757142Y-63442319D02*
X137328571Y-64442319D01*
X133254761Y-64600057D02*
X133159523Y-64552438D01*
X133159523Y-64552438D02*
X133064285Y-64457200D01*
X133064285Y-64457200D02*
X132921428Y-64314342D01*
X132921428Y-64314342D02*
X132826190Y-64266723D01*
X132826190Y-64266723D02*
X132730952Y-64266723D01*
X132778571Y-64504819D02*
X132683333Y-64457200D01*
X132683333Y-64457200D02*
X132588095Y-64361961D01*
X132588095Y-64361961D02*
X132540476Y-64171485D01*
X132540476Y-64171485D02*
X132540476Y-63838152D01*
X132540476Y-63838152D02*
X132588095Y-63647676D01*
X132588095Y-63647676D02*
X132683333Y-63552438D01*
X132683333Y-63552438D02*
X132778571Y-63504819D01*
X132778571Y-63504819D02*
X132969047Y-63504819D01*
X132969047Y-63504819D02*
X133064285Y-63552438D01*
X133064285Y-63552438D02*
X133159523Y-63647676D01*
X133159523Y-63647676D02*
X133207142Y-63838152D01*
X133207142Y-63838152D02*
X133207142Y-64171485D01*
X133207142Y-64171485D02*
X133159523Y-64361961D01*
X133159523Y-64361961D02*
X133064285Y-64457200D01*
X133064285Y-64457200D02*
X132969047Y-64504819D01*
X132969047Y-64504819D02*
X132778571Y-64504819D01*
X133778571Y-63933390D02*
X133683333Y-63885771D01*
X133683333Y-63885771D02*
X133635714Y-63838152D01*
X133635714Y-63838152D02*
X133588095Y-63742914D01*
X133588095Y-63742914D02*
X133588095Y-63695295D01*
X133588095Y-63695295D02*
X133635714Y-63600057D01*
X133635714Y-63600057D02*
X133683333Y-63552438D01*
X133683333Y-63552438D02*
X133778571Y-63504819D01*
X133778571Y-63504819D02*
X133969047Y-63504819D01*
X133969047Y-63504819D02*
X134064285Y-63552438D01*
X134064285Y-63552438D02*
X134111904Y-63600057D01*
X134111904Y-63600057D02*
X134159523Y-63695295D01*
X134159523Y-63695295D02*
X134159523Y-63742914D01*
X134159523Y-63742914D02*
X134111904Y-63838152D01*
X134111904Y-63838152D02*
X134064285Y-63885771D01*
X134064285Y-63885771D02*
X133969047Y-63933390D01*
X133969047Y-63933390D02*
X133778571Y-63933390D01*
X133778571Y-63933390D02*
X133683333Y-63981009D01*
X133683333Y-63981009D02*
X133635714Y-64028628D01*
X133635714Y-64028628D02*
X133588095Y-64123866D01*
X133588095Y-64123866D02*
X133588095Y-64314342D01*
X133588095Y-64314342D02*
X133635714Y-64409580D01*
X133635714Y-64409580D02*
X133683333Y-64457200D01*
X133683333Y-64457200D02*
X133778571Y-64504819D01*
X133778571Y-64504819D02*
X133969047Y-64504819D01*
X133969047Y-64504819D02*
X134064285Y-64457200D01*
X134064285Y-64457200D02*
X134111904Y-64409580D01*
X134111904Y-64409580D02*
X134159523Y-64314342D01*
X134159523Y-64314342D02*
X134159523Y-64123866D01*
X134159523Y-64123866D02*
X134111904Y-64028628D01*
X134111904Y-64028628D02*
X134064285Y-63981009D01*
X134064285Y-63981009D02*
X133969047Y-63933390D01*
X122054819Y-63563094D02*
X121054819Y-63563094D01*
X121054819Y-63563094D02*
X121054819Y-63324999D01*
X121054819Y-63324999D02*
X121102438Y-63182142D01*
X121102438Y-63182142D02*
X121197676Y-63086904D01*
X121197676Y-63086904D02*
X121292914Y-63039285D01*
X121292914Y-63039285D02*
X121483390Y-62991666D01*
X121483390Y-62991666D02*
X121626247Y-62991666D01*
X121626247Y-62991666D02*
X121816723Y-63039285D01*
X121816723Y-63039285D02*
X121911961Y-63086904D01*
X121911961Y-63086904D02*
X122007200Y-63182142D01*
X122007200Y-63182142D02*
X122054819Y-63324999D01*
X122054819Y-63324999D02*
X122054819Y-63563094D01*
X121054819Y-62658332D02*
X121054819Y-62039285D01*
X121054819Y-62039285D02*
X121435771Y-62372618D01*
X121435771Y-62372618D02*
X121435771Y-62229761D01*
X121435771Y-62229761D02*
X121483390Y-62134523D01*
X121483390Y-62134523D02*
X121531009Y-62086904D01*
X121531009Y-62086904D02*
X121626247Y-62039285D01*
X121626247Y-62039285D02*
X121864342Y-62039285D01*
X121864342Y-62039285D02*
X121959580Y-62086904D01*
X121959580Y-62086904D02*
X122007200Y-62134523D01*
X122007200Y-62134523D02*
X122054819Y-62229761D01*
X122054819Y-62229761D02*
X122054819Y-62515475D01*
X122054819Y-62515475D02*
X122007200Y-62610713D01*
X122007200Y-62610713D02*
X121959580Y-62658332D01*
X156816123Y-102103943D02*
X156816123Y-102819393D01*
X156816123Y-102819393D02*
X156768426Y-102962483D01*
X156768426Y-102962483D02*
X156673033Y-103057877D01*
X156673033Y-103057877D02*
X156529943Y-103105573D01*
X156529943Y-103105573D02*
X156434550Y-103105573D01*
X157722360Y-102437820D02*
X157722360Y-103105573D01*
X157483877Y-102056247D02*
X157245393Y-102771697D01*
X157245393Y-102771697D02*
X157865450Y-102771697D01*
X132054819Y-67330357D02*
X131578628Y-67663690D01*
X132054819Y-67901785D02*
X131054819Y-67901785D01*
X131054819Y-67901785D02*
X131054819Y-67520833D01*
X131054819Y-67520833D02*
X131102438Y-67425595D01*
X131102438Y-67425595D02*
X131150057Y-67377976D01*
X131150057Y-67377976D02*
X131245295Y-67330357D01*
X131245295Y-67330357D02*
X131388152Y-67330357D01*
X131388152Y-67330357D02*
X131483390Y-67377976D01*
X131483390Y-67377976D02*
X131531009Y-67425595D01*
X131531009Y-67425595D02*
X131578628Y-67520833D01*
X131578628Y-67520833D02*
X131578628Y-67901785D01*
X131150057Y-66949404D02*
X131102438Y-66901785D01*
X131102438Y-66901785D02*
X131054819Y-66806547D01*
X131054819Y-66806547D02*
X131054819Y-66568452D01*
X131054819Y-66568452D02*
X131102438Y-66473214D01*
X131102438Y-66473214D02*
X131150057Y-66425595D01*
X131150057Y-66425595D02*
X131245295Y-66377976D01*
X131245295Y-66377976D02*
X131340533Y-66377976D01*
X131340533Y-66377976D02*
X131483390Y-66425595D01*
X131483390Y-66425595D02*
X132054819Y-66997023D01*
X132054819Y-66997023D02*
X132054819Y-66377976D01*
X131388152Y-65520833D02*
X132054819Y-65520833D01*
X131007200Y-65758928D02*
X131721485Y-65997023D01*
X131721485Y-65997023D02*
X131721485Y-65377976D01*
X154704761Y-64537557D02*
X154609523Y-64489938D01*
X154609523Y-64489938D02*
X154514285Y-64394700D01*
X154514285Y-64394700D02*
X154371428Y-64251842D01*
X154371428Y-64251842D02*
X154276190Y-64204223D01*
X154276190Y-64204223D02*
X154180952Y-64204223D01*
X154228571Y-64442319D02*
X154133333Y-64394700D01*
X154133333Y-64394700D02*
X154038095Y-64299461D01*
X154038095Y-64299461D02*
X153990476Y-64108985D01*
X153990476Y-64108985D02*
X153990476Y-63775652D01*
X153990476Y-63775652D02*
X154038095Y-63585176D01*
X154038095Y-63585176D02*
X154133333Y-63489938D01*
X154133333Y-63489938D02*
X154228571Y-63442319D01*
X154228571Y-63442319D02*
X154419047Y-63442319D01*
X154419047Y-63442319D02*
X154514285Y-63489938D01*
X154514285Y-63489938D02*
X154609523Y-63585176D01*
X154609523Y-63585176D02*
X154657142Y-63775652D01*
X154657142Y-63775652D02*
X154657142Y-64108985D01*
X154657142Y-64108985D02*
X154609523Y-64299461D01*
X154609523Y-64299461D02*
X154514285Y-64394700D01*
X154514285Y-64394700D02*
X154419047Y-64442319D01*
X154419047Y-64442319D02*
X154228571Y-64442319D01*
X155561904Y-63442319D02*
X155085714Y-63442319D01*
X155085714Y-63442319D02*
X155038095Y-63918509D01*
X155038095Y-63918509D02*
X155085714Y-63870890D01*
X155085714Y-63870890D02*
X155180952Y-63823271D01*
X155180952Y-63823271D02*
X155419047Y-63823271D01*
X155419047Y-63823271D02*
X155514285Y-63870890D01*
X155514285Y-63870890D02*
X155561904Y-63918509D01*
X155561904Y-63918509D02*
X155609523Y-64013747D01*
X155609523Y-64013747D02*
X155609523Y-64251842D01*
X155609523Y-64251842D02*
X155561904Y-64347080D01*
X155561904Y-64347080D02*
X155514285Y-64394700D01*
X155514285Y-64394700D02*
X155419047Y-64442319D01*
X155419047Y-64442319D02*
X155180952Y-64442319D01*
X155180952Y-64442319D02*
X155085714Y-64394700D01*
X155085714Y-64394700D02*
X155038095Y-64347080D01*
X158457142Y-128754819D02*
X158123809Y-128278628D01*
X157885714Y-128754819D02*
X157885714Y-127754819D01*
X157885714Y-127754819D02*
X158266666Y-127754819D01*
X158266666Y-127754819D02*
X158361904Y-127802438D01*
X158361904Y-127802438D02*
X158409523Y-127850057D01*
X158409523Y-127850057D02*
X158457142Y-127945295D01*
X158457142Y-127945295D02*
X158457142Y-128088152D01*
X158457142Y-128088152D02*
X158409523Y-128183390D01*
X158409523Y-128183390D02*
X158361904Y-128231009D01*
X158361904Y-128231009D02*
X158266666Y-128278628D01*
X158266666Y-128278628D02*
X157885714Y-128278628D01*
X158790476Y-127754819D02*
X159409523Y-127754819D01*
X159409523Y-127754819D02*
X159076190Y-128135771D01*
X159076190Y-128135771D02*
X159219047Y-128135771D01*
X159219047Y-128135771D02*
X159314285Y-128183390D01*
X159314285Y-128183390D02*
X159361904Y-128231009D01*
X159361904Y-128231009D02*
X159409523Y-128326247D01*
X159409523Y-128326247D02*
X159409523Y-128564342D01*
X159409523Y-128564342D02*
X159361904Y-128659580D01*
X159361904Y-128659580D02*
X159314285Y-128707200D01*
X159314285Y-128707200D02*
X159219047Y-128754819D01*
X159219047Y-128754819D02*
X158933333Y-128754819D01*
X158933333Y-128754819D02*
X158838095Y-128707200D01*
X158838095Y-128707200D02*
X158790476Y-128659580D01*
X159885714Y-128754819D02*
X160076190Y-128754819D01*
X160076190Y-128754819D02*
X160171428Y-128707200D01*
X160171428Y-128707200D02*
X160219047Y-128659580D01*
X160219047Y-128659580D02*
X160314285Y-128516723D01*
X160314285Y-128516723D02*
X160361904Y-128326247D01*
X160361904Y-128326247D02*
X160361904Y-127945295D01*
X160361904Y-127945295D02*
X160314285Y-127850057D01*
X160314285Y-127850057D02*
X160266666Y-127802438D01*
X160266666Y-127802438D02*
X160171428Y-127754819D01*
X160171428Y-127754819D02*
X159980952Y-127754819D01*
X159980952Y-127754819D02*
X159885714Y-127802438D01*
X159885714Y-127802438D02*
X159838095Y-127850057D01*
X159838095Y-127850057D02*
X159790476Y-127945295D01*
X159790476Y-127945295D02*
X159790476Y-128183390D01*
X159790476Y-128183390D02*
X159838095Y-128278628D01*
X159838095Y-128278628D02*
X159885714Y-128326247D01*
X159885714Y-128326247D02*
X159980952Y-128373866D01*
X159980952Y-128373866D02*
X160171428Y-128373866D01*
X160171428Y-128373866D02*
X160266666Y-128326247D01*
X160266666Y-128326247D02*
X160314285Y-128278628D01*
X160314285Y-128278628D02*
X160361904Y-128183390D01*
X133604819Y-58030357D02*
X133128628Y-58363690D01*
X133604819Y-58601785D02*
X132604819Y-58601785D01*
X132604819Y-58601785D02*
X132604819Y-58220833D01*
X132604819Y-58220833D02*
X132652438Y-58125595D01*
X132652438Y-58125595D02*
X132700057Y-58077976D01*
X132700057Y-58077976D02*
X132795295Y-58030357D01*
X132795295Y-58030357D02*
X132938152Y-58030357D01*
X132938152Y-58030357D02*
X133033390Y-58077976D01*
X133033390Y-58077976D02*
X133081009Y-58125595D01*
X133081009Y-58125595D02*
X133128628Y-58220833D01*
X133128628Y-58220833D02*
X133128628Y-58601785D01*
X133604819Y-57077976D02*
X133604819Y-57649404D01*
X133604819Y-57363690D02*
X132604819Y-57363690D01*
X132604819Y-57363690D02*
X132747676Y-57458928D01*
X132747676Y-57458928D02*
X132842914Y-57554166D01*
X132842914Y-57554166D02*
X132890533Y-57649404D01*
X132604819Y-56744642D02*
X132604819Y-56077976D01*
X132604819Y-56077976D02*
X133604819Y-56506547D01*
X120254819Y-100959404D02*
X121064342Y-100959404D01*
X121064342Y-100959404D02*
X121159580Y-100911785D01*
X121159580Y-100911785D02*
X121207200Y-100864166D01*
X121207200Y-100864166D02*
X121254819Y-100768928D01*
X121254819Y-100768928D02*
X121254819Y-100578452D01*
X121254819Y-100578452D02*
X121207200Y-100483214D01*
X121207200Y-100483214D02*
X121159580Y-100435595D01*
X121159580Y-100435595D02*
X121064342Y-100387976D01*
X121064342Y-100387976D02*
X120254819Y-100387976D01*
X121254819Y-99387976D02*
X121254819Y-99959404D01*
X121254819Y-99673690D02*
X120254819Y-99673690D01*
X120254819Y-99673690D02*
X120397676Y-99768928D01*
X120397676Y-99768928D02*
X120492914Y-99864166D01*
X120492914Y-99864166D02*
X120540533Y-99959404D01*
X169104819Y-124166666D02*
X168628628Y-124499999D01*
X169104819Y-124738094D02*
X168104819Y-124738094D01*
X168104819Y-124738094D02*
X168104819Y-124357142D01*
X168104819Y-124357142D02*
X168152438Y-124261904D01*
X168152438Y-124261904D02*
X168200057Y-124214285D01*
X168200057Y-124214285D02*
X168295295Y-124166666D01*
X168295295Y-124166666D02*
X168438152Y-124166666D01*
X168438152Y-124166666D02*
X168533390Y-124214285D01*
X168533390Y-124214285D02*
X168581009Y-124261904D01*
X168581009Y-124261904D02*
X168628628Y-124357142D01*
X168628628Y-124357142D02*
X168628628Y-124738094D01*
X168200057Y-123785713D02*
X168152438Y-123738094D01*
X168152438Y-123738094D02*
X168104819Y-123642856D01*
X168104819Y-123642856D02*
X168104819Y-123404761D01*
X168104819Y-123404761D02*
X168152438Y-123309523D01*
X168152438Y-123309523D02*
X168200057Y-123261904D01*
X168200057Y-123261904D02*
X168295295Y-123214285D01*
X168295295Y-123214285D02*
X168390533Y-123214285D01*
X168390533Y-123214285D02*
X168533390Y-123261904D01*
X168533390Y-123261904D02*
X169104819Y-123833332D01*
X169104819Y-123833332D02*
X169104819Y-123214285D01*
X149157142Y-121954819D02*
X148823809Y-121478628D01*
X148585714Y-121954819D02*
X148585714Y-120954819D01*
X148585714Y-120954819D02*
X148966666Y-120954819D01*
X148966666Y-120954819D02*
X149061904Y-121002438D01*
X149061904Y-121002438D02*
X149109523Y-121050057D01*
X149109523Y-121050057D02*
X149157142Y-121145295D01*
X149157142Y-121145295D02*
X149157142Y-121288152D01*
X149157142Y-121288152D02*
X149109523Y-121383390D01*
X149109523Y-121383390D02*
X149061904Y-121431009D01*
X149061904Y-121431009D02*
X148966666Y-121478628D01*
X148966666Y-121478628D02*
X148585714Y-121478628D01*
X149490476Y-120954819D02*
X150109523Y-120954819D01*
X150109523Y-120954819D02*
X149776190Y-121335771D01*
X149776190Y-121335771D02*
X149919047Y-121335771D01*
X149919047Y-121335771D02*
X150014285Y-121383390D01*
X150014285Y-121383390D02*
X150061904Y-121431009D01*
X150061904Y-121431009D02*
X150109523Y-121526247D01*
X150109523Y-121526247D02*
X150109523Y-121764342D01*
X150109523Y-121764342D02*
X150061904Y-121859580D01*
X150061904Y-121859580D02*
X150014285Y-121907200D01*
X150014285Y-121907200D02*
X149919047Y-121954819D01*
X149919047Y-121954819D02*
X149633333Y-121954819D01*
X149633333Y-121954819D02*
X149538095Y-121907200D01*
X149538095Y-121907200D02*
X149490476Y-121859580D01*
X150680952Y-121383390D02*
X150585714Y-121335771D01*
X150585714Y-121335771D02*
X150538095Y-121288152D01*
X150538095Y-121288152D02*
X150490476Y-121192914D01*
X150490476Y-121192914D02*
X150490476Y-121145295D01*
X150490476Y-121145295D02*
X150538095Y-121050057D01*
X150538095Y-121050057D02*
X150585714Y-121002438D01*
X150585714Y-121002438D02*
X150680952Y-120954819D01*
X150680952Y-120954819D02*
X150871428Y-120954819D01*
X150871428Y-120954819D02*
X150966666Y-121002438D01*
X150966666Y-121002438D02*
X151014285Y-121050057D01*
X151014285Y-121050057D02*
X151061904Y-121145295D01*
X151061904Y-121145295D02*
X151061904Y-121192914D01*
X151061904Y-121192914D02*
X151014285Y-121288152D01*
X151014285Y-121288152D02*
X150966666Y-121335771D01*
X150966666Y-121335771D02*
X150871428Y-121383390D01*
X150871428Y-121383390D02*
X150680952Y-121383390D01*
X150680952Y-121383390D02*
X150585714Y-121431009D01*
X150585714Y-121431009D02*
X150538095Y-121478628D01*
X150538095Y-121478628D02*
X150490476Y-121573866D01*
X150490476Y-121573866D02*
X150490476Y-121764342D01*
X150490476Y-121764342D02*
X150538095Y-121859580D01*
X150538095Y-121859580D02*
X150585714Y-121907200D01*
X150585714Y-121907200D02*
X150680952Y-121954819D01*
X150680952Y-121954819D02*
X150871428Y-121954819D01*
X150871428Y-121954819D02*
X150966666Y-121907200D01*
X150966666Y-121907200D02*
X151014285Y-121859580D01*
X151014285Y-121859580D02*
X151061904Y-121764342D01*
X151061904Y-121764342D02*
X151061904Y-121573866D01*
X151061904Y-121573866D02*
X151014285Y-121478628D01*
X151014285Y-121478628D02*
X150966666Y-121431009D01*
X150966666Y-121431009D02*
X150871428Y-121383390D01*
X171238095Y-137754819D02*
X171238095Y-136754819D01*
X171238095Y-137231009D02*
X171809523Y-137231009D01*
X171809523Y-137754819D02*
X171809523Y-136754819D01*
X172714285Y-137088152D02*
X172714285Y-137754819D01*
X172476190Y-136707200D02*
X172238095Y-137421485D01*
X172238095Y-137421485D02*
X172857142Y-137421485D01*
X137533333Y-118247080D02*
X137485714Y-118294700D01*
X137485714Y-118294700D02*
X137342857Y-118342319D01*
X137342857Y-118342319D02*
X137247619Y-118342319D01*
X137247619Y-118342319D02*
X137104762Y-118294700D01*
X137104762Y-118294700D02*
X137009524Y-118199461D01*
X137009524Y-118199461D02*
X136961905Y-118104223D01*
X136961905Y-118104223D02*
X136914286Y-117913747D01*
X136914286Y-117913747D02*
X136914286Y-117770890D01*
X136914286Y-117770890D02*
X136961905Y-117580414D01*
X136961905Y-117580414D02*
X137009524Y-117485176D01*
X137009524Y-117485176D02*
X137104762Y-117389938D01*
X137104762Y-117389938D02*
X137247619Y-117342319D01*
X137247619Y-117342319D02*
X137342857Y-117342319D01*
X137342857Y-117342319D02*
X137485714Y-117389938D01*
X137485714Y-117389938D02*
X137533333Y-117437557D01*
X138438095Y-117342319D02*
X137961905Y-117342319D01*
X137961905Y-117342319D02*
X137914286Y-117818509D01*
X137914286Y-117818509D02*
X137961905Y-117770890D01*
X137961905Y-117770890D02*
X138057143Y-117723271D01*
X138057143Y-117723271D02*
X138295238Y-117723271D01*
X138295238Y-117723271D02*
X138390476Y-117770890D01*
X138390476Y-117770890D02*
X138438095Y-117818509D01*
X138438095Y-117818509D02*
X138485714Y-117913747D01*
X138485714Y-117913747D02*
X138485714Y-118151842D01*
X138485714Y-118151842D02*
X138438095Y-118247080D01*
X138438095Y-118247080D02*
X138390476Y-118294700D01*
X138390476Y-118294700D02*
X138295238Y-118342319D01*
X138295238Y-118342319D02*
X138057143Y-118342319D01*
X138057143Y-118342319D02*
X137961905Y-118294700D01*
X137961905Y-118294700D02*
X137914286Y-118247080D01*
X167638095Y-107806819D02*
X168209523Y-107806819D01*
X167923809Y-108806819D02*
X167923809Y-107806819D01*
X168542857Y-108806819D02*
X168542857Y-107806819D01*
X168542857Y-107806819D02*
X168923809Y-107806819D01*
X168923809Y-107806819D02*
X169019047Y-107854438D01*
X169019047Y-107854438D02*
X169066666Y-107902057D01*
X169066666Y-107902057D02*
X169114285Y-107997295D01*
X169114285Y-107997295D02*
X169114285Y-108140152D01*
X169114285Y-108140152D02*
X169066666Y-108235390D01*
X169066666Y-108235390D02*
X169019047Y-108283009D01*
X169019047Y-108283009D02*
X168923809Y-108330628D01*
X168923809Y-108330628D02*
X168542857Y-108330628D01*
X170066666Y-108806819D02*
X169495238Y-108806819D01*
X169780952Y-108806819D02*
X169780952Y-107806819D01*
X169780952Y-107806819D02*
X169685714Y-107949676D01*
X169685714Y-107949676D02*
X169590476Y-108044914D01*
X169590476Y-108044914D02*
X169495238Y-108092533D01*
X111590595Y-138004819D02*
X111590595Y-137004819D01*
X111590595Y-137481009D02*
X112162023Y-137481009D01*
X112162023Y-138004819D02*
X112162023Y-137004819D01*
X112542976Y-137004819D02*
X113162023Y-137004819D01*
X113162023Y-137004819D02*
X112828690Y-137385771D01*
X112828690Y-137385771D02*
X112971547Y-137385771D01*
X112971547Y-137385771D02*
X113066785Y-137433390D01*
X113066785Y-137433390D02*
X113114404Y-137481009D01*
X113114404Y-137481009D02*
X113162023Y-137576247D01*
X113162023Y-137576247D02*
X113162023Y-137814342D01*
X113162023Y-137814342D02*
X113114404Y-137909580D01*
X113114404Y-137909580D02*
X113066785Y-137957200D01*
X113066785Y-137957200D02*
X112971547Y-138004819D01*
X112971547Y-138004819D02*
X112685833Y-138004819D01*
X112685833Y-138004819D02*
X112590595Y-137957200D01*
X112590595Y-137957200D02*
X112542976Y-137909580D01*
X139304819Y-67330357D02*
X138828628Y-67663690D01*
X139304819Y-67901785D02*
X138304819Y-67901785D01*
X138304819Y-67901785D02*
X138304819Y-67520833D01*
X138304819Y-67520833D02*
X138352438Y-67425595D01*
X138352438Y-67425595D02*
X138400057Y-67377976D01*
X138400057Y-67377976D02*
X138495295Y-67330357D01*
X138495295Y-67330357D02*
X138638152Y-67330357D01*
X138638152Y-67330357D02*
X138733390Y-67377976D01*
X138733390Y-67377976D02*
X138781009Y-67425595D01*
X138781009Y-67425595D02*
X138828628Y-67520833D01*
X138828628Y-67520833D02*
X138828628Y-67901785D01*
X138400057Y-66949404D02*
X138352438Y-66901785D01*
X138352438Y-66901785D02*
X138304819Y-66806547D01*
X138304819Y-66806547D02*
X138304819Y-66568452D01*
X138304819Y-66568452D02*
X138352438Y-66473214D01*
X138352438Y-66473214D02*
X138400057Y-66425595D01*
X138400057Y-66425595D02*
X138495295Y-66377976D01*
X138495295Y-66377976D02*
X138590533Y-66377976D01*
X138590533Y-66377976D02*
X138733390Y-66425595D01*
X138733390Y-66425595D02*
X139304819Y-66997023D01*
X139304819Y-66997023D02*
X139304819Y-66377976D01*
X138304819Y-66044642D02*
X138304819Y-65377976D01*
X138304819Y-65377976D02*
X139304819Y-65806547D01*
X172554819Y-123966666D02*
X172078628Y-124299999D01*
X172554819Y-124538094D02*
X171554819Y-124538094D01*
X171554819Y-124538094D02*
X171554819Y-124157142D01*
X171554819Y-124157142D02*
X171602438Y-124061904D01*
X171602438Y-124061904D02*
X171650057Y-124014285D01*
X171650057Y-124014285D02*
X171745295Y-123966666D01*
X171745295Y-123966666D02*
X171888152Y-123966666D01*
X171888152Y-123966666D02*
X171983390Y-124014285D01*
X171983390Y-124014285D02*
X172031009Y-124061904D01*
X172031009Y-124061904D02*
X172078628Y-124157142D01*
X172078628Y-124157142D02*
X172078628Y-124538094D01*
X172554819Y-123014285D02*
X172554819Y-123585713D01*
X172554819Y-123299999D02*
X171554819Y-123299999D01*
X171554819Y-123299999D02*
X171697676Y-123395237D01*
X171697676Y-123395237D02*
X171792914Y-123490475D01*
X171792914Y-123490475D02*
X171840533Y-123585713D01*
X141466666Y-138054819D02*
X141466666Y-138769104D01*
X141466666Y-138769104D02*
X141419047Y-138911961D01*
X141419047Y-138911961D02*
X141323809Y-139007200D01*
X141323809Y-139007200D02*
X141180952Y-139054819D01*
X141180952Y-139054819D02*
X141085714Y-139054819D01*
X142466666Y-139054819D02*
X141895238Y-139054819D01*
X142180952Y-139054819D02*
X142180952Y-138054819D01*
X142180952Y-138054819D02*
X142085714Y-138197676D01*
X142085714Y-138197676D02*
X141990476Y-138292914D01*
X141990476Y-138292914D02*
X141895238Y-138340533D01*
X151178571Y-64537557D02*
X151083333Y-64489938D01*
X151083333Y-64489938D02*
X150988095Y-64394700D01*
X150988095Y-64394700D02*
X150845238Y-64251842D01*
X150845238Y-64251842D02*
X150750000Y-64204223D01*
X150750000Y-64204223D02*
X150654762Y-64204223D01*
X150702381Y-64442319D02*
X150607143Y-64394700D01*
X150607143Y-64394700D02*
X150511905Y-64299461D01*
X150511905Y-64299461D02*
X150464286Y-64108985D01*
X150464286Y-64108985D02*
X150464286Y-63775652D01*
X150464286Y-63775652D02*
X150511905Y-63585176D01*
X150511905Y-63585176D02*
X150607143Y-63489938D01*
X150607143Y-63489938D02*
X150702381Y-63442319D01*
X150702381Y-63442319D02*
X150892857Y-63442319D01*
X150892857Y-63442319D02*
X150988095Y-63489938D01*
X150988095Y-63489938D02*
X151083333Y-63585176D01*
X151083333Y-63585176D02*
X151130952Y-63775652D01*
X151130952Y-63775652D02*
X151130952Y-64108985D01*
X151130952Y-64108985D02*
X151083333Y-64299461D01*
X151083333Y-64299461D02*
X150988095Y-64394700D01*
X150988095Y-64394700D02*
X150892857Y-64442319D01*
X150892857Y-64442319D02*
X150702381Y-64442319D01*
X152083333Y-64442319D02*
X151511905Y-64442319D01*
X151797619Y-64442319D02*
X151797619Y-63442319D01*
X151797619Y-63442319D02*
X151702381Y-63585176D01*
X151702381Y-63585176D02*
X151607143Y-63680414D01*
X151607143Y-63680414D02*
X151511905Y-63728033D01*
X152702381Y-63442319D02*
X152797619Y-63442319D01*
X152797619Y-63442319D02*
X152892857Y-63489938D01*
X152892857Y-63489938D02*
X152940476Y-63537557D01*
X152940476Y-63537557D02*
X152988095Y-63632795D01*
X152988095Y-63632795D02*
X153035714Y-63823271D01*
X153035714Y-63823271D02*
X153035714Y-64061366D01*
X153035714Y-64061366D02*
X152988095Y-64251842D01*
X152988095Y-64251842D02*
X152940476Y-64347080D01*
X152940476Y-64347080D02*
X152892857Y-64394700D01*
X152892857Y-64394700D02*
X152797619Y-64442319D01*
X152797619Y-64442319D02*
X152702381Y-64442319D01*
X152702381Y-64442319D02*
X152607143Y-64394700D01*
X152607143Y-64394700D02*
X152559524Y-64347080D01*
X152559524Y-64347080D02*
X152511905Y-64251842D01*
X152511905Y-64251842D02*
X152464286Y-64061366D01*
X152464286Y-64061366D02*
X152464286Y-63823271D01*
X152464286Y-63823271D02*
X152511905Y-63632795D01*
X152511905Y-63632795D02*
X152559524Y-63537557D01*
X152559524Y-63537557D02*
X152607143Y-63489938D01*
X152607143Y-63489938D02*
X152702381Y-63442319D01*
X156304819Y-117930357D02*
X155828628Y-118263690D01*
X156304819Y-118501785D02*
X155304819Y-118501785D01*
X155304819Y-118501785D02*
X155304819Y-118120833D01*
X155304819Y-118120833D02*
X155352438Y-118025595D01*
X155352438Y-118025595D02*
X155400057Y-117977976D01*
X155400057Y-117977976D02*
X155495295Y-117930357D01*
X155495295Y-117930357D02*
X155638152Y-117930357D01*
X155638152Y-117930357D02*
X155733390Y-117977976D01*
X155733390Y-117977976D02*
X155781009Y-118025595D01*
X155781009Y-118025595D02*
X155828628Y-118120833D01*
X155828628Y-118120833D02*
X155828628Y-118501785D01*
X155638152Y-117073214D02*
X156304819Y-117073214D01*
X155257200Y-117311309D02*
X155971485Y-117549404D01*
X155971485Y-117549404D02*
X155971485Y-116930357D01*
X156304819Y-116025595D02*
X156304819Y-116597023D01*
X156304819Y-116311309D02*
X155304819Y-116311309D01*
X155304819Y-116311309D02*
X155447676Y-116406547D01*
X155447676Y-116406547D02*
X155542914Y-116501785D01*
X155542914Y-116501785D02*
X155590533Y-116597023D01*
X160904819Y-67230357D02*
X160428628Y-67563690D01*
X160904819Y-67801785D02*
X159904819Y-67801785D01*
X159904819Y-67801785D02*
X159904819Y-67420833D01*
X159904819Y-67420833D02*
X159952438Y-67325595D01*
X159952438Y-67325595D02*
X160000057Y-67277976D01*
X160000057Y-67277976D02*
X160095295Y-67230357D01*
X160095295Y-67230357D02*
X160238152Y-67230357D01*
X160238152Y-67230357D02*
X160333390Y-67277976D01*
X160333390Y-67277976D02*
X160381009Y-67325595D01*
X160381009Y-67325595D02*
X160428628Y-67420833D01*
X160428628Y-67420833D02*
X160428628Y-67801785D01*
X160904819Y-66277976D02*
X160904819Y-66849404D01*
X160904819Y-66563690D02*
X159904819Y-66563690D01*
X159904819Y-66563690D02*
X160047676Y-66658928D01*
X160047676Y-66658928D02*
X160142914Y-66754166D01*
X160142914Y-66754166D02*
X160190533Y-66849404D01*
X160000057Y-65897023D02*
X159952438Y-65849404D01*
X159952438Y-65849404D02*
X159904819Y-65754166D01*
X159904819Y-65754166D02*
X159904819Y-65516071D01*
X159904819Y-65516071D02*
X159952438Y-65420833D01*
X159952438Y-65420833D02*
X160000057Y-65373214D01*
X160000057Y-65373214D02*
X160095295Y-65325595D01*
X160095295Y-65325595D02*
X160190533Y-65325595D01*
X160190533Y-65325595D02*
X160333390Y-65373214D01*
X160333390Y-65373214D02*
X160904819Y-65944642D01*
X160904819Y-65944642D02*
X160904819Y-65325595D01*
X147404819Y-58030357D02*
X146928628Y-58363690D01*
X147404819Y-58601785D02*
X146404819Y-58601785D01*
X146404819Y-58601785D02*
X146404819Y-58220833D01*
X146404819Y-58220833D02*
X146452438Y-58125595D01*
X146452438Y-58125595D02*
X146500057Y-58077976D01*
X146500057Y-58077976D02*
X146595295Y-58030357D01*
X146595295Y-58030357D02*
X146738152Y-58030357D01*
X146738152Y-58030357D02*
X146833390Y-58077976D01*
X146833390Y-58077976D02*
X146881009Y-58125595D01*
X146881009Y-58125595D02*
X146928628Y-58220833D01*
X146928628Y-58220833D02*
X146928628Y-58601785D01*
X147404819Y-57077976D02*
X147404819Y-57649404D01*
X147404819Y-57363690D02*
X146404819Y-57363690D01*
X146404819Y-57363690D02*
X146547676Y-57458928D01*
X146547676Y-57458928D02*
X146642914Y-57554166D01*
X146642914Y-57554166D02*
X146690533Y-57649404D01*
X146833390Y-56506547D02*
X146785771Y-56601785D01*
X146785771Y-56601785D02*
X146738152Y-56649404D01*
X146738152Y-56649404D02*
X146642914Y-56697023D01*
X146642914Y-56697023D02*
X146595295Y-56697023D01*
X146595295Y-56697023D02*
X146500057Y-56649404D01*
X146500057Y-56649404D02*
X146452438Y-56601785D01*
X146452438Y-56601785D02*
X146404819Y-56506547D01*
X146404819Y-56506547D02*
X146404819Y-56316071D01*
X146404819Y-56316071D02*
X146452438Y-56220833D01*
X146452438Y-56220833D02*
X146500057Y-56173214D01*
X146500057Y-56173214D02*
X146595295Y-56125595D01*
X146595295Y-56125595D02*
X146642914Y-56125595D01*
X146642914Y-56125595D02*
X146738152Y-56173214D01*
X146738152Y-56173214D02*
X146785771Y-56220833D01*
X146785771Y-56220833D02*
X146833390Y-56316071D01*
X146833390Y-56316071D02*
X146833390Y-56506547D01*
X146833390Y-56506547D02*
X146881009Y-56601785D01*
X146881009Y-56601785D02*
X146928628Y-56649404D01*
X146928628Y-56649404D02*
X147023866Y-56697023D01*
X147023866Y-56697023D02*
X147214342Y-56697023D01*
X147214342Y-56697023D02*
X147309580Y-56649404D01*
X147309580Y-56649404D02*
X147357200Y-56601785D01*
X147357200Y-56601785D02*
X147404819Y-56506547D01*
X147404819Y-56506547D02*
X147404819Y-56316071D01*
X147404819Y-56316071D02*
X147357200Y-56220833D01*
X147357200Y-56220833D02*
X147309580Y-56173214D01*
X147309580Y-56173214D02*
X147214342Y-56125595D01*
X147214342Y-56125595D02*
X147023866Y-56125595D01*
X147023866Y-56125595D02*
X146928628Y-56173214D01*
X146928628Y-56173214D02*
X146881009Y-56220833D01*
X146881009Y-56220833D02*
X146833390Y-56316071D01*
X142804819Y-67330357D02*
X142328628Y-67663690D01*
X142804819Y-67901785D02*
X141804819Y-67901785D01*
X141804819Y-67901785D02*
X141804819Y-67520833D01*
X141804819Y-67520833D02*
X141852438Y-67425595D01*
X141852438Y-67425595D02*
X141900057Y-67377976D01*
X141900057Y-67377976D02*
X141995295Y-67330357D01*
X141995295Y-67330357D02*
X142138152Y-67330357D01*
X142138152Y-67330357D02*
X142233390Y-67377976D01*
X142233390Y-67377976D02*
X142281009Y-67425595D01*
X142281009Y-67425595D02*
X142328628Y-67520833D01*
X142328628Y-67520833D02*
X142328628Y-67901785D01*
X141900057Y-66949404D02*
X141852438Y-66901785D01*
X141852438Y-66901785D02*
X141804819Y-66806547D01*
X141804819Y-66806547D02*
X141804819Y-66568452D01*
X141804819Y-66568452D02*
X141852438Y-66473214D01*
X141852438Y-66473214D02*
X141900057Y-66425595D01*
X141900057Y-66425595D02*
X141995295Y-66377976D01*
X141995295Y-66377976D02*
X142090533Y-66377976D01*
X142090533Y-66377976D02*
X142233390Y-66425595D01*
X142233390Y-66425595D02*
X142804819Y-66997023D01*
X142804819Y-66997023D02*
X142804819Y-66377976D01*
X141900057Y-65997023D02*
X141852438Y-65949404D01*
X141852438Y-65949404D02*
X141804819Y-65854166D01*
X141804819Y-65854166D02*
X141804819Y-65616071D01*
X141804819Y-65616071D02*
X141852438Y-65520833D01*
X141852438Y-65520833D02*
X141900057Y-65473214D01*
X141900057Y-65473214D02*
X141995295Y-65425595D01*
X141995295Y-65425595D02*
X142090533Y-65425595D01*
X142090533Y-65425595D02*
X142233390Y-65473214D01*
X142233390Y-65473214D02*
X142804819Y-66044642D01*
X142804819Y-66044642D02*
X142804819Y-65425595D01*
X150557142Y-118567319D02*
X150223809Y-118091128D01*
X149985714Y-118567319D02*
X149985714Y-117567319D01*
X149985714Y-117567319D02*
X150366666Y-117567319D01*
X150366666Y-117567319D02*
X150461904Y-117614938D01*
X150461904Y-117614938D02*
X150509523Y-117662557D01*
X150509523Y-117662557D02*
X150557142Y-117757795D01*
X150557142Y-117757795D02*
X150557142Y-117900652D01*
X150557142Y-117900652D02*
X150509523Y-117995890D01*
X150509523Y-117995890D02*
X150461904Y-118043509D01*
X150461904Y-118043509D02*
X150366666Y-118091128D01*
X150366666Y-118091128D02*
X149985714Y-118091128D01*
X151414285Y-117900652D02*
X151414285Y-118567319D01*
X151176190Y-117519700D02*
X150938095Y-118233985D01*
X150938095Y-118233985D02*
X151557142Y-118233985D01*
X151890476Y-117662557D02*
X151938095Y-117614938D01*
X151938095Y-117614938D02*
X152033333Y-117567319D01*
X152033333Y-117567319D02*
X152271428Y-117567319D01*
X152271428Y-117567319D02*
X152366666Y-117614938D01*
X152366666Y-117614938D02*
X152414285Y-117662557D01*
X152414285Y-117662557D02*
X152461904Y-117757795D01*
X152461904Y-117757795D02*
X152461904Y-117853033D01*
X152461904Y-117853033D02*
X152414285Y-117995890D01*
X152414285Y-117995890D02*
X151842857Y-118567319D01*
X151842857Y-118567319D02*
X152461904Y-118567319D01*
X118054819Y-63625594D02*
X117054819Y-63625594D01*
X117054819Y-63625594D02*
X117054819Y-63387499D01*
X117054819Y-63387499D02*
X117102438Y-63244642D01*
X117102438Y-63244642D02*
X117197676Y-63149404D01*
X117197676Y-63149404D02*
X117292914Y-63101785D01*
X117292914Y-63101785D02*
X117483390Y-63054166D01*
X117483390Y-63054166D02*
X117626247Y-63054166D01*
X117626247Y-63054166D02*
X117816723Y-63101785D01*
X117816723Y-63101785D02*
X117911961Y-63149404D01*
X117911961Y-63149404D02*
X118007200Y-63244642D01*
X118007200Y-63244642D02*
X118054819Y-63387499D01*
X118054819Y-63387499D02*
X118054819Y-63625594D01*
X117150057Y-62673213D02*
X117102438Y-62625594D01*
X117102438Y-62625594D02*
X117054819Y-62530356D01*
X117054819Y-62530356D02*
X117054819Y-62292261D01*
X117054819Y-62292261D02*
X117102438Y-62197023D01*
X117102438Y-62197023D02*
X117150057Y-62149404D01*
X117150057Y-62149404D02*
X117245295Y-62101785D01*
X117245295Y-62101785D02*
X117340533Y-62101785D01*
X117340533Y-62101785D02*
X117483390Y-62149404D01*
X117483390Y-62149404D02*
X118054819Y-62720832D01*
X118054819Y-62720832D02*
X118054819Y-62101785D01*
X145916666Y-107454819D02*
X145916666Y-108169104D01*
X145916666Y-108169104D02*
X145869047Y-108311961D01*
X145869047Y-108311961D02*
X145773809Y-108407200D01*
X145773809Y-108407200D02*
X145630952Y-108454819D01*
X145630952Y-108454819D02*
X145535714Y-108454819D01*
X146392857Y-108454819D02*
X146392857Y-107454819D01*
X146392857Y-107454819D02*
X146773809Y-107454819D01*
X146773809Y-107454819D02*
X146869047Y-107502438D01*
X146869047Y-107502438D02*
X146916666Y-107550057D01*
X146916666Y-107550057D02*
X146964285Y-107645295D01*
X146964285Y-107645295D02*
X146964285Y-107788152D01*
X146964285Y-107788152D02*
X146916666Y-107883390D01*
X146916666Y-107883390D02*
X146869047Y-107931009D01*
X146869047Y-107931009D02*
X146773809Y-107978628D01*
X146773809Y-107978628D02*
X146392857Y-107978628D01*
X147916666Y-108454819D02*
X147345238Y-108454819D01*
X147630952Y-108454819D02*
X147630952Y-107454819D01*
X147630952Y-107454819D02*
X147535714Y-107597676D01*
X147535714Y-107597676D02*
X147440476Y-107692914D01*
X147440476Y-107692914D02*
X147345238Y-107740533D01*
X140504819Y-58030357D02*
X140028628Y-58363690D01*
X140504819Y-58601785D02*
X139504819Y-58601785D01*
X139504819Y-58601785D02*
X139504819Y-58220833D01*
X139504819Y-58220833D02*
X139552438Y-58125595D01*
X139552438Y-58125595D02*
X139600057Y-58077976D01*
X139600057Y-58077976D02*
X139695295Y-58030357D01*
X139695295Y-58030357D02*
X139838152Y-58030357D01*
X139838152Y-58030357D02*
X139933390Y-58077976D01*
X139933390Y-58077976D02*
X139981009Y-58125595D01*
X139981009Y-58125595D02*
X140028628Y-58220833D01*
X140028628Y-58220833D02*
X140028628Y-58601785D01*
X139600057Y-57649404D02*
X139552438Y-57601785D01*
X139552438Y-57601785D02*
X139504819Y-57506547D01*
X139504819Y-57506547D02*
X139504819Y-57268452D01*
X139504819Y-57268452D02*
X139552438Y-57173214D01*
X139552438Y-57173214D02*
X139600057Y-57125595D01*
X139600057Y-57125595D02*
X139695295Y-57077976D01*
X139695295Y-57077976D02*
X139790533Y-57077976D01*
X139790533Y-57077976D02*
X139933390Y-57125595D01*
X139933390Y-57125595D02*
X140504819Y-57697023D01*
X140504819Y-57697023D02*
X140504819Y-57077976D01*
X139504819Y-56458928D02*
X139504819Y-56363690D01*
X139504819Y-56363690D02*
X139552438Y-56268452D01*
X139552438Y-56268452D02*
X139600057Y-56220833D01*
X139600057Y-56220833D02*
X139695295Y-56173214D01*
X139695295Y-56173214D02*
X139885771Y-56125595D01*
X139885771Y-56125595D02*
X140123866Y-56125595D01*
X140123866Y-56125595D02*
X140314342Y-56173214D01*
X140314342Y-56173214D02*
X140409580Y-56220833D01*
X140409580Y-56220833D02*
X140457200Y-56268452D01*
X140457200Y-56268452D02*
X140504819Y-56363690D01*
X140504819Y-56363690D02*
X140504819Y-56458928D01*
X140504819Y-56458928D02*
X140457200Y-56554166D01*
X140457200Y-56554166D02*
X140409580Y-56601785D01*
X140409580Y-56601785D02*
X140314342Y-56649404D01*
X140314342Y-56649404D02*
X140123866Y-56697023D01*
X140123866Y-56697023D02*
X139885771Y-56697023D01*
X139885771Y-56697023D02*
X139695295Y-56649404D01*
X139695295Y-56649404D02*
X139600057Y-56601785D01*
X139600057Y-56601785D02*
X139552438Y-56554166D01*
X139552438Y-56554166D02*
X139504819Y-56458928D01*
X139079819Y-73724404D02*
X139889342Y-73724404D01*
X139889342Y-73724404D02*
X139984580Y-73676785D01*
X139984580Y-73676785D02*
X140032200Y-73629166D01*
X140032200Y-73629166D02*
X140079819Y-73533928D01*
X140079819Y-73533928D02*
X140079819Y-73343452D01*
X140079819Y-73343452D02*
X140032200Y-73248214D01*
X140032200Y-73248214D02*
X139984580Y-73200595D01*
X139984580Y-73200595D02*
X139889342Y-73152976D01*
X139889342Y-73152976D02*
X139079819Y-73152976D01*
X139175057Y-72724404D02*
X139127438Y-72676785D01*
X139127438Y-72676785D02*
X139079819Y-72581547D01*
X139079819Y-72581547D02*
X139079819Y-72343452D01*
X139079819Y-72343452D02*
X139127438Y-72248214D01*
X139127438Y-72248214D02*
X139175057Y-72200595D01*
X139175057Y-72200595D02*
X139270295Y-72152976D01*
X139270295Y-72152976D02*
X139365533Y-72152976D01*
X139365533Y-72152976D02*
X139508390Y-72200595D01*
X139508390Y-72200595D02*
X140079819Y-72772023D01*
X140079819Y-72772023D02*
X140079819Y-72152976D01*
X114678571Y-70037557D02*
X114583333Y-69989938D01*
X114583333Y-69989938D02*
X114488095Y-69894700D01*
X114488095Y-69894700D02*
X114345238Y-69751842D01*
X114345238Y-69751842D02*
X114250000Y-69704223D01*
X114250000Y-69704223D02*
X114154762Y-69704223D01*
X114202381Y-69942319D02*
X114107143Y-69894700D01*
X114107143Y-69894700D02*
X114011905Y-69799461D01*
X114011905Y-69799461D02*
X113964286Y-69608985D01*
X113964286Y-69608985D02*
X113964286Y-69275652D01*
X113964286Y-69275652D02*
X114011905Y-69085176D01*
X114011905Y-69085176D02*
X114107143Y-68989938D01*
X114107143Y-68989938D02*
X114202381Y-68942319D01*
X114202381Y-68942319D02*
X114392857Y-68942319D01*
X114392857Y-68942319D02*
X114488095Y-68989938D01*
X114488095Y-68989938D02*
X114583333Y-69085176D01*
X114583333Y-69085176D02*
X114630952Y-69275652D01*
X114630952Y-69275652D02*
X114630952Y-69608985D01*
X114630952Y-69608985D02*
X114583333Y-69799461D01*
X114583333Y-69799461D02*
X114488095Y-69894700D01*
X114488095Y-69894700D02*
X114392857Y-69942319D01*
X114392857Y-69942319D02*
X114202381Y-69942319D01*
X115583333Y-69942319D02*
X115011905Y-69942319D01*
X115297619Y-69942319D02*
X115297619Y-68942319D01*
X115297619Y-68942319D02*
X115202381Y-69085176D01*
X115202381Y-69085176D02*
X115107143Y-69180414D01*
X115107143Y-69180414D02*
X115011905Y-69228033D01*
X115964286Y-69037557D02*
X116011905Y-68989938D01*
X116011905Y-68989938D02*
X116107143Y-68942319D01*
X116107143Y-68942319D02*
X116345238Y-68942319D01*
X116345238Y-68942319D02*
X116440476Y-68989938D01*
X116440476Y-68989938D02*
X116488095Y-69037557D01*
X116488095Y-69037557D02*
X116535714Y-69132795D01*
X116535714Y-69132795D02*
X116535714Y-69228033D01*
X116535714Y-69228033D02*
X116488095Y-69370890D01*
X116488095Y-69370890D02*
X115916667Y-69942319D01*
X115916667Y-69942319D02*
X116535714Y-69942319D01*
X174004761Y-64537557D02*
X173909523Y-64489938D01*
X173909523Y-64489938D02*
X173814285Y-64394700D01*
X173814285Y-64394700D02*
X173671428Y-64251842D01*
X173671428Y-64251842D02*
X173576190Y-64204223D01*
X173576190Y-64204223D02*
X173480952Y-64204223D01*
X173528571Y-64442319D02*
X173433333Y-64394700D01*
X173433333Y-64394700D02*
X173338095Y-64299461D01*
X173338095Y-64299461D02*
X173290476Y-64108985D01*
X173290476Y-64108985D02*
X173290476Y-63775652D01*
X173290476Y-63775652D02*
X173338095Y-63585176D01*
X173338095Y-63585176D02*
X173433333Y-63489938D01*
X173433333Y-63489938D02*
X173528571Y-63442319D01*
X173528571Y-63442319D02*
X173719047Y-63442319D01*
X173719047Y-63442319D02*
X173814285Y-63489938D01*
X173814285Y-63489938D02*
X173909523Y-63585176D01*
X173909523Y-63585176D02*
X173957142Y-63775652D01*
X173957142Y-63775652D02*
X173957142Y-64108985D01*
X173957142Y-64108985D02*
X173909523Y-64299461D01*
X173909523Y-64299461D02*
X173814285Y-64394700D01*
X173814285Y-64394700D02*
X173719047Y-64442319D01*
X173719047Y-64442319D02*
X173528571Y-64442319D01*
X174290476Y-63442319D02*
X174909523Y-63442319D01*
X174909523Y-63442319D02*
X174576190Y-63823271D01*
X174576190Y-63823271D02*
X174719047Y-63823271D01*
X174719047Y-63823271D02*
X174814285Y-63870890D01*
X174814285Y-63870890D02*
X174861904Y-63918509D01*
X174861904Y-63918509D02*
X174909523Y-64013747D01*
X174909523Y-64013747D02*
X174909523Y-64251842D01*
X174909523Y-64251842D02*
X174861904Y-64347080D01*
X174861904Y-64347080D02*
X174814285Y-64394700D01*
X174814285Y-64394700D02*
X174719047Y-64442319D01*
X174719047Y-64442319D02*
X174433333Y-64442319D01*
X174433333Y-64442319D02*
X174338095Y-64394700D01*
X174338095Y-64394700D02*
X174290476Y-64347080D01*
X144104761Y-64537557D02*
X144009523Y-64489938D01*
X144009523Y-64489938D02*
X143914285Y-64394700D01*
X143914285Y-64394700D02*
X143771428Y-64251842D01*
X143771428Y-64251842D02*
X143676190Y-64204223D01*
X143676190Y-64204223D02*
X143580952Y-64204223D01*
X143628571Y-64442319D02*
X143533333Y-64394700D01*
X143533333Y-64394700D02*
X143438095Y-64299461D01*
X143438095Y-64299461D02*
X143390476Y-64108985D01*
X143390476Y-64108985D02*
X143390476Y-63775652D01*
X143390476Y-63775652D02*
X143438095Y-63585176D01*
X143438095Y-63585176D02*
X143533333Y-63489938D01*
X143533333Y-63489938D02*
X143628571Y-63442319D01*
X143628571Y-63442319D02*
X143819047Y-63442319D01*
X143819047Y-63442319D02*
X143914285Y-63489938D01*
X143914285Y-63489938D02*
X144009523Y-63585176D01*
X144009523Y-63585176D02*
X144057142Y-63775652D01*
X144057142Y-63775652D02*
X144057142Y-64108985D01*
X144057142Y-64108985D02*
X144009523Y-64299461D01*
X144009523Y-64299461D02*
X143914285Y-64394700D01*
X143914285Y-64394700D02*
X143819047Y-64442319D01*
X143819047Y-64442319D02*
X143628571Y-64442319D01*
X144914285Y-63442319D02*
X144723809Y-63442319D01*
X144723809Y-63442319D02*
X144628571Y-63489938D01*
X144628571Y-63489938D02*
X144580952Y-63537557D01*
X144580952Y-63537557D02*
X144485714Y-63680414D01*
X144485714Y-63680414D02*
X144438095Y-63870890D01*
X144438095Y-63870890D02*
X144438095Y-64251842D01*
X144438095Y-64251842D02*
X144485714Y-64347080D01*
X144485714Y-64347080D02*
X144533333Y-64394700D01*
X144533333Y-64394700D02*
X144628571Y-64442319D01*
X144628571Y-64442319D02*
X144819047Y-64442319D01*
X144819047Y-64442319D02*
X144914285Y-64394700D01*
X144914285Y-64394700D02*
X144961904Y-64347080D01*
X144961904Y-64347080D02*
X145009523Y-64251842D01*
X145009523Y-64251842D02*
X145009523Y-64013747D01*
X145009523Y-64013747D02*
X144961904Y-63918509D01*
X144961904Y-63918509D02*
X144914285Y-63870890D01*
X144914285Y-63870890D02*
X144819047Y-63823271D01*
X144819047Y-63823271D02*
X144628571Y-63823271D01*
X144628571Y-63823271D02*
X144533333Y-63870890D01*
X144533333Y-63870890D02*
X144485714Y-63918509D01*
X144485714Y-63918509D02*
X144438095Y-64013747D01*
X140428571Y-64537557D02*
X140333333Y-64489938D01*
X140333333Y-64489938D02*
X140238095Y-64394700D01*
X140238095Y-64394700D02*
X140095238Y-64251842D01*
X140095238Y-64251842D02*
X140000000Y-64204223D01*
X140000000Y-64204223D02*
X139904762Y-64204223D01*
X139952381Y-64442319D02*
X139857143Y-64394700D01*
X139857143Y-64394700D02*
X139761905Y-64299461D01*
X139761905Y-64299461D02*
X139714286Y-64108985D01*
X139714286Y-64108985D02*
X139714286Y-63775652D01*
X139714286Y-63775652D02*
X139761905Y-63585176D01*
X139761905Y-63585176D02*
X139857143Y-63489938D01*
X139857143Y-63489938D02*
X139952381Y-63442319D01*
X139952381Y-63442319D02*
X140142857Y-63442319D01*
X140142857Y-63442319D02*
X140238095Y-63489938D01*
X140238095Y-63489938D02*
X140333333Y-63585176D01*
X140333333Y-63585176D02*
X140380952Y-63775652D01*
X140380952Y-63775652D02*
X140380952Y-64108985D01*
X140380952Y-64108985D02*
X140333333Y-64299461D01*
X140333333Y-64299461D02*
X140238095Y-64394700D01*
X140238095Y-64394700D02*
X140142857Y-64442319D01*
X140142857Y-64442319D02*
X139952381Y-64442319D01*
X141333333Y-64442319D02*
X140761905Y-64442319D01*
X141047619Y-64442319D02*
X141047619Y-63442319D01*
X141047619Y-63442319D02*
X140952381Y-63585176D01*
X140952381Y-63585176D02*
X140857143Y-63680414D01*
X140857143Y-63680414D02*
X140761905Y-63728033D01*
X142285714Y-64442319D02*
X141714286Y-64442319D01*
X142000000Y-64442319D02*
X142000000Y-63442319D01*
X142000000Y-63442319D02*
X141904762Y-63585176D01*
X141904762Y-63585176D02*
X141809524Y-63680414D01*
X141809524Y-63680414D02*
X141714286Y-63728033D01*
X158938095Y-130106819D02*
X159509523Y-130106819D01*
X159223809Y-131106819D02*
X159223809Y-130106819D01*
X159842857Y-131106819D02*
X159842857Y-130106819D01*
X159842857Y-130106819D02*
X160223809Y-130106819D01*
X160223809Y-130106819D02*
X160319047Y-130154438D01*
X160319047Y-130154438D02*
X160366666Y-130202057D01*
X160366666Y-130202057D02*
X160414285Y-130297295D01*
X160414285Y-130297295D02*
X160414285Y-130440152D01*
X160414285Y-130440152D02*
X160366666Y-130535390D01*
X160366666Y-130535390D02*
X160319047Y-130583009D01*
X160319047Y-130583009D02*
X160223809Y-130630628D01*
X160223809Y-130630628D02*
X159842857Y-130630628D01*
X160795238Y-130202057D02*
X160842857Y-130154438D01*
X160842857Y-130154438D02*
X160938095Y-130106819D01*
X160938095Y-130106819D02*
X161176190Y-130106819D01*
X161176190Y-130106819D02*
X161271428Y-130154438D01*
X161271428Y-130154438D02*
X161319047Y-130202057D01*
X161319047Y-130202057D02*
X161366666Y-130297295D01*
X161366666Y-130297295D02*
X161366666Y-130392533D01*
X161366666Y-130392533D02*
X161319047Y-130535390D01*
X161319047Y-130535390D02*
X160747619Y-131106819D01*
X160747619Y-131106819D02*
X161366666Y-131106819D01*
X163038095Y-106806819D02*
X163609523Y-106806819D01*
X163323809Y-107806819D02*
X163323809Y-106806819D01*
X163942857Y-107806819D02*
X163942857Y-106806819D01*
X163942857Y-106806819D02*
X164323809Y-106806819D01*
X164323809Y-106806819D02*
X164419047Y-106854438D01*
X164419047Y-106854438D02*
X164466666Y-106902057D01*
X164466666Y-106902057D02*
X164514285Y-106997295D01*
X164514285Y-106997295D02*
X164514285Y-107140152D01*
X164514285Y-107140152D02*
X164466666Y-107235390D01*
X164466666Y-107235390D02*
X164419047Y-107283009D01*
X164419047Y-107283009D02*
X164323809Y-107330628D01*
X164323809Y-107330628D02*
X163942857Y-107330628D01*
X164847619Y-106806819D02*
X165466666Y-106806819D01*
X165466666Y-106806819D02*
X165133333Y-107187771D01*
X165133333Y-107187771D02*
X165276190Y-107187771D01*
X165276190Y-107187771D02*
X165371428Y-107235390D01*
X165371428Y-107235390D02*
X165419047Y-107283009D01*
X165419047Y-107283009D02*
X165466666Y-107378247D01*
X165466666Y-107378247D02*
X165466666Y-107616342D01*
X165466666Y-107616342D02*
X165419047Y-107711580D01*
X165419047Y-107711580D02*
X165371428Y-107759200D01*
X165371428Y-107759200D02*
X165276190Y-107806819D01*
X165276190Y-107806819D02*
X164990476Y-107806819D01*
X164990476Y-107806819D02*
X164895238Y-107759200D01*
X164895238Y-107759200D02*
X164847619Y-107711580D01*
X117304819Y-58280357D02*
X116828628Y-58613690D01*
X117304819Y-58851785D02*
X116304819Y-58851785D01*
X116304819Y-58851785D02*
X116304819Y-58470833D01*
X116304819Y-58470833D02*
X116352438Y-58375595D01*
X116352438Y-58375595D02*
X116400057Y-58327976D01*
X116400057Y-58327976D02*
X116495295Y-58280357D01*
X116495295Y-58280357D02*
X116638152Y-58280357D01*
X116638152Y-58280357D02*
X116733390Y-58327976D01*
X116733390Y-58327976D02*
X116781009Y-58375595D01*
X116781009Y-58375595D02*
X116828628Y-58470833D01*
X116828628Y-58470833D02*
X116828628Y-58851785D01*
X116400057Y-57899404D02*
X116352438Y-57851785D01*
X116352438Y-57851785D02*
X116304819Y-57756547D01*
X116304819Y-57756547D02*
X116304819Y-57518452D01*
X116304819Y-57518452D02*
X116352438Y-57423214D01*
X116352438Y-57423214D02*
X116400057Y-57375595D01*
X116400057Y-57375595D02*
X116495295Y-57327976D01*
X116495295Y-57327976D02*
X116590533Y-57327976D01*
X116590533Y-57327976D02*
X116733390Y-57375595D01*
X116733390Y-57375595D02*
X117304819Y-57947023D01*
X117304819Y-57947023D02*
X117304819Y-57327976D01*
X116733390Y-56756547D02*
X116685771Y-56851785D01*
X116685771Y-56851785D02*
X116638152Y-56899404D01*
X116638152Y-56899404D02*
X116542914Y-56947023D01*
X116542914Y-56947023D02*
X116495295Y-56947023D01*
X116495295Y-56947023D02*
X116400057Y-56899404D01*
X116400057Y-56899404D02*
X116352438Y-56851785D01*
X116352438Y-56851785D02*
X116304819Y-56756547D01*
X116304819Y-56756547D02*
X116304819Y-56566071D01*
X116304819Y-56566071D02*
X116352438Y-56470833D01*
X116352438Y-56470833D02*
X116400057Y-56423214D01*
X116400057Y-56423214D02*
X116495295Y-56375595D01*
X116495295Y-56375595D02*
X116542914Y-56375595D01*
X116542914Y-56375595D02*
X116638152Y-56423214D01*
X116638152Y-56423214D02*
X116685771Y-56470833D01*
X116685771Y-56470833D02*
X116733390Y-56566071D01*
X116733390Y-56566071D02*
X116733390Y-56756547D01*
X116733390Y-56756547D02*
X116781009Y-56851785D01*
X116781009Y-56851785D02*
X116828628Y-56899404D01*
X116828628Y-56899404D02*
X116923866Y-56947023D01*
X116923866Y-56947023D02*
X117114342Y-56947023D01*
X117114342Y-56947023D02*
X117209580Y-56899404D01*
X117209580Y-56899404D02*
X117257200Y-56851785D01*
X117257200Y-56851785D02*
X117304819Y-56756547D01*
X117304819Y-56756547D02*
X117304819Y-56566071D01*
X117304819Y-56566071D02*
X117257200Y-56470833D01*
X117257200Y-56470833D02*
X117209580Y-56423214D01*
X117209580Y-56423214D02*
X117114342Y-56375595D01*
X117114342Y-56375595D02*
X116923866Y-56375595D01*
X116923866Y-56375595D02*
X116828628Y-56423214D01*
X116828628Y-56423214D02*
X116781009Y-56470833D01*
X116781009Y-56470833D02*
X116733390Y-56566071D01*
X118678571Y-70137557D02*
X118583333Y-70089938D01*
X118583333Y-70089938D02*
X118488095Y-69994700D01*
X118488095Y-69994700D02*
X118345238Y-69851842D01*
X118345238Y-69851842D02*
X118250000Y-69804223D01*
X118250000Y-69804223D02*
X118154762Y-69804223D01*
X118202381Y-70042319D02*
X118107143Y-69994700D01*
X118107143Y-69994700D02*
X118011905Y-69899461D01*
X118011905Y-69899461D02*
X117964286Y-69708985D01*
X117964286Y-69708985D02*
X117964286Y-69375652D01*
X117964286Y-69375652D02*
X118011905Y-69185176D01*
X118011905Y-69185176D02*
X118107143Y-69089938D01*
X118107143Y-69089938D02*
X118202381Y-69042319D01*
X118202381Y-69042319D02*
X118392857Y-69042319D01*
X118392857Y-69042319D02*
X118488095Y-69089938D01*
X118488095Y-69089938D02*
X118583333Y-69185176D01*
X118583333Y-69185176D02*
X118630952Y-69375652D01*
X118630952Y-69375652D02*
X118630952Y-69708985D01*
X118630952Y-69708985D02*
X118583333Y-69899461D01*
X118583333Y-69899461D02*
X118488095Y-69994700D01*
X118488095Y-69994700D02*
X118392857Y-70042319D01*
X118392857Y-70042319D02*
X118202381Y-70042319D01*
X119583333Y-70042319D02*
X119011905Y-70042319D01*
X119297619Y-70042319D02*
X119297619Y-69042319D01*
X119297619Y-69042319D02*
X119202381Y-69185176D01*
X119202381Y-69185176D02*
X119107143Y-69280414D01*
X119107143Y-69280414D02*
X119011905Y-69328033D01*
X120440476Y-69375652D02*
X120440476Y-70042319D01*
X120202381Y-68994700D02*
X119964286Y-69708985D01*
X119964286Y-69708985D02*
X120583333Y-69708985D01*
X111238095Y-43454819D02*
X111238095Y-42454819D01*
X111238095Y-42931009D02*
X111809523Y-42931009D01*
X111809523Y-43454819D02*
X111809523Y-42454819D01*
X112809523Y-43454819D02*
X112238095Y-43454819D01*
X112523809Y-43454819D02*
X112523809Y-42454819D01*
X112523809Y-42454819D02*
X112428571Y-42597676D01*
X112428571Y-42597676D02*
X112333333Y-42692914D01*
X112333333Y-42692914D02*
X112238095Y-42740533D01*
X153604819Y-67330357D02*
X153128628Y-67663690D01*
X153604819Y-67901785D02*
X152604819Y-67901785D01*
X152604819Y-67901785D02*
X152604819Y-67520833D01*
X152604819Y-67520833D02*
X152652438Y-67425595D01*
X152652438Y-67425595D02*
X152700057Y-67377976D01*
X152700057Y-67377976D02*
X152795295Y-67330357D01*
X152795295Y-67330357D02*
X152938152Y-67330357D01*
X152938152Y-67330357D02*
X153033390Y-67377976D01*
X153033390Y-67377976D02*
X153081009Y-67425595D01*
X153081009Y-67425595D02*
X153128628Y-67520833D01*
X153128628Y-67520833D02*
X153128628Y-67901785D01*
X152700057Y-66949404D02*
X152652438Y-66901785D01*
X152652438Y-66901785D02*
X152604819Y-66806547D01*
X152604819Y-66806547D02*
X152604819Y-66568452D01*
X152604819Y-66568452D02*
X152652438Y-66473214D01*
X152652438Y-66473214D02*
X152700057Y-66425595D01*
X152700057Y-66425595D02*
X152795295Y-66377976D01*
X152795295Y-66377976D02*
X152890533Y-66377976D01*
X152890533Y-66377976D02*
X153033390Y-66425595D01*
X153033390Y-66425595D02*
X153604819Y-66997023D01*
X153604819Y-66997023D02*
X153604819Y-66377976D01*
X153604819Y-65425595D02*
X153604819Y-65997023D01*
X153604819Y-65711309D02*
X152604819Y-65711309D01*
X152604819Y-65711309D02*
X152747676Y-65806547D01*
X152747676Y-65806547D02*
X152842914Y-65901785D01*
X152842914Y-65901785D02*
X152890533Y-65997023D01*
X124654819Y-72567857D02*
X124178628Y-72901190D01*
X124654819Y-73139285D02*
X123654819Y-73139285D01*
X123654819Y-73139285D02*
X123654819Y-72758333D01*
X123654819Y-72758333D02*
X123702438Y-72663095D01*
X123702438Y-72663095D02*
X123750057Y-72615476D01*
X123750057Y-72615476D02*
X123845295Y-72567857D01*
X123845295Y-72567857D02*
X123988152Y-72567857D01*
X123988152Y-72567857D02*
X124083390Y-72615476D01*
X124083390Y-72615476D02*
X124131009Y-72663095D01*
X124131009Y-72663095D02*
X124178628Y-72758333D01*
X124178628Y-72758333D02*
X124178628Y-73139285D01*
X123654819Y-72234523D02*
X123654819Y-71615476D01*
X123654819Y-71615476D02*
X124035771Y-71948809D01*
X124035771Y-71948809D02*
X124035771Y-71805952D01*
X124035771Y-71805952D02*
X124083390Y-71710714D01*
X124083390Y-71710714D02*
X124131009Y-71663095D01*
X124131009Y-71663095D02*
X124226247Y-71615476D01*
X124226247Y-71615476D02*
X124464342Y-71615476D01*
X124464342Y-71615476D02*
X124559580Y-71663095D01*
X124559580Y-71663095D02*
X124607200Y-71710714D01*
X124607200Y-71710714D02*
X124654819Y-71805952D01*
X124654819Y-71805952D02*
X124654819Y-72091666D01*
X124654819Y-72091666D02*
X124607200Y-72186904D01*
X124607200Y-72186904D02*
X124559580Y-72234523D01*
X123988152Y-70758333D02*
X124654819Y-70758333D01*
X123607200Y-70996428D02*
X124321485Y-71234523D01*
X124321485Y-71234523D02*
X124321485Y-70615476D01*
X125354819Y-58280357D02*
X124878628Y-58613690D01*
X125354819Y-58851785D02*
X124354819Y-58851785D01*
X124354819Y-58851785D02*
X124354819Y-58470833D01*
X124354819Y-58470833D02*
X124402438Y-58375595D01*
X124402438Y-58375595D02*
X124450057Y-58327976D01*
X124450057Y-58327976D02*
X124545295Y-58280357D01*
X124545295Y-58280357D02*
X124688152Y-58280357D01*
X124688152Y-58280357D02*
X124783390Y-58327976D01*
X124783390Y-58327976D02*
X124831009Y-58375595D01*
X124831009Y-58375595D02*
X124878628Y-58470833D01*
X124878628Y-58470833D02*
X124878628Y-58851785D01*
X124354819Y-57947023D02*
X124354819Y-57327976D01*
X124354819Y-57327976D02*
X124735771Y-57661309D01*
X124735771Y-57661309D02*
X124735771Y-57518452D01*
X124735771Y-57518452D02*
X124783390Y-57423214D01*
X124783390Y-57423214D02*
X124831009Y-57375595D01*
X124831009Y-57375595D02*
X124926247Y-57327976D01*
X124926247Y-57327976D02*
X125164342Y-57327976D01*
X125164342Y-57327976D02*
X125259580Y-57375595D01*
X125259580Y-57375595D02*
X125307200Y-57423214D01*
X125307200Y-57423214D02*
X125354819Y-57518452D01*
X125354819Y-57518452D02*
X125354819Y-57804166D01*
X125354819Y-57804166D02*
X125307200Y-57899404D01*
X125307200Y-57899404D02*
X125259580Y-57947023D01*
X124354819Y-56708928D02*
X124354819Y-56613690D01*
X124354819Y-56613690D02*
X124402438Y-56518452D01*
X124402438Y-56518452D02*
X124450057Y-56470833D01*
X124450057Y-56470833D02*
X124545295Y-56423214D01*
X124545295Y-56423214D02*
X124735771Y-56375595D01*
X124735771Y-56375595D02*
X124973866Y-56375595D01*
X124973866Y-56375595D02*
X125164342Y-56423214D01*
X125164342Y-56423214D02*
X125259580Y-56470833D01*
X125259580Y-56470833D02*
X125307200Y-56518452D01*
X125307200Y-56518452D02*
X125354819Y-56613690D01*
X125354819Y-56613690D02*
X125354819Y-56708928D01*
X125354819Y-56708928D02*
X125307200Y-56804166D01*
X125307200Y-56804166D02*
X125259580Y-56851785D01*
X125259580Y-56851785D02*
X125164342Y-56899404D01*
X125164342Y-56899404D02*
X124973866Y-56947023D01*
X124973866Y-56947023D02*
X124735771Y-56947023D01*
X124735771Y-56947023D02*
X124545295Y-56899404D01*
X124545295Y-56899404D02*
X124450057Y-56851785D01*
X124450057Y-56851785D02*
X124402438Y-56804166D01*
X124402438Y-56804166D02*
X124354819Y-56708928D01*
X172004819Y-67230357D02*
X171528628Y-67563690D01*
X172004819Y-67801785D02*
X171004819Y-67801785D01*
X171004819Y-67801785D02*
X171004819Y-67420833D01*
X171004819Y-67420833D02*
X171052438Y-67325595D01*
X171052438Y-67325595D02*
X171100057Y-67277976D01*
X171100057Y-67277976D02*
X171195295Y-67230357D01*
X171195295Y-67230357D02*
X171338152Y-67230357D01*
X171338152Y-67230357D02*
X171433390Y-67277976D01*
X171433390Y-67277976D02*
X171481009Y-67325595D01*
X171481009Y-67325595D02*
X171528628Y-67420833D01*
X171528628Y-67420833D02*
X171528628Y-67801785D01*
X172004819Y-66277976D02*
X172004819Y-66849404D01*
X172004819Y-66563690D02*
X171004819Y-66563690D01*
X171004819Y-66563690D02*
X171147676Y-66658928D01*
X171147676Y-66658928D02*
X171242914Y-66754166D01*
X171242914Y-66754166D02*
X171290533Y-66849404D01*
X171004819Y-65658928D02*
X171004819Y-65563690D01*
X171004819Y-65563690D02*
X171052438Y-65468452D01*
X171052438Y-65468452D02*
X171100057Y-65420833D01*
X171100057Y-65420833D02*
X171195295Y-65373214D01*
X171195295Y-65373214D02*
X171385771Y-65325595D01*
X171385771Y-65325595D02*
X171623866Y-65325595D01*
X171623866Y-65325595D02*
X171814342Y-65373214D01*
X171814342Y-65373214D02*
X171909580Y-65420833D01*
X171909580Y-65420833D02*
X171957200Y-65468452D01*
X171957200Y-65468452D02*
X172004819Y-65563690D01*
X172004819Y-65563690D02*
X172004819Y-65658928D01*
X172004819Y-65658928D02*
X171957200Y-65754166D01*
X171957200Y-65754166D02*
X171909580Y-65801785D01*
X171909580Y-65801785D02*
X171814342Y-65849404D01*
X171814342Y-65849404D02*
X171623866Y-65897023D01*
X171623866Y-65897023D02*
X171385771Y-65897023D01*
X171385771Y-65897023D02*
X171195295Y-65849404D01*
X171195295Y-65849404D02*
X171100057Y-65801785D01*
X171100057Y-65801785D02*
X171052438Y-65754166D01*
X171052438Y-65754166D02*
X171004819Y-65658928D01*
X122678571Y-70137557D02*
X122583333Y-70089938D01*
X122583333Y-70089938D02*
X122488095Y-69994700D01*
X122488095Y-69994700D02*
X122345238Y-69851842D01*
X122345238Y-69851842D02*
X122250000Y-69804223D01*
X122250000Y-69804223D02*
X122154762Y-69804223D01*
X122202381Y-70042319D02*
X122107143Y-69994700D01*
X122107143Y-69994700D02*
X122011905Y-69899461D01*
X122011905Y-69899461D02*
X121964286Y-69708985D01*
X121964286Y-69708985D02*
X121964286Y-69375652D01*
X121964286Y-69375652D02*
X122011905Y-69185176D01*
X122011905Y-69185176D02*
X122107143Y-69089938D01*
X122107143Y-69089938D02*
X122202381Y-69042319D01*
X122202381Y-69042319D02*
X122392857Y-69042319D01*
X122392857Y-69042319D02*
X122488095Y-69089938D01*
X122488095Y-69089938D02*
X122583333Y-69185176D01*
X122583333Y-69185176D02*
X122630952Y-69375652D01*
X122630952Y-69375652D02*
X122630952Y-69708985D01*
X122630952Y-69708985D02*
X122583333Y-69899461D01*
X122583333Y-69899461D02*
X122488095Y-69994700D01*
X122488095Y-69994700D02*
X122392857Y-70042319D01*
X122392857Y-70042319D02*
X122202381Y-70042319D01*
X123583333Y-70042319D02*
X123011905Y-70042319D01*
X123297619Y-70042319D02*
X123297619Y-69042319D01*
X123297619Y-69042319D02*
X123202381Y-69185176D01*
X123202381Y-69185176D02*
X123107143Y-69280414D01*
X123107143Y-69280414D02*
X123011905Y-69328033D01*
X124488095Y-69042319D02*
X124011905Y-69042319D01*
X124011905Y-69042319D02*
X123964286Y-69518509D01*
X123964286Y-69518509D02*
X124011905Y-69470890D01*
X124011905Y-69470890D02*
X124107143Y-69423271D01*
X124107143Y-69423271D02*
X124345238Y-69423271D01*
X124345238Y-69423271D02*
X124440476Y-69470890D01*
X124440476Y-69470890D02*
X124488095Y-69518509D01*
X124488095Y-69518509D02*
X124535714Y-69613747D01*
X124535714Y-69613747D02*
X124535714Y-69851842D01*
X124535714Y-69851842D02*
X124488095Y-69947080D01*
X124488095Y-69947080D02*
X124440476Y-69994700D01*
X124440476Y-69994700D02*
X124345238Y-70042319D01*
X124345238Y-70042319D02*
X124107143Y-70042319D01*
X124107143Y-70042319D02*
X124011905Y-69994700D01*
X124011905Y-69994700D02*
X123964286Y-69947080D01*
X126678571Y-70037557D02*
X126583333Y-69989938D01*
X126583333Y-69989938D02*
X126488095Y-69894700D01*
X126488095Y-69894700D02*
X126345238Y-69751842D01*
X126345238Y-69751842D02*
X126250000Y-69704223D01*
X126250000Y-69704223D02*
X126154762Y-69704223D01*
X126202381Y-69942319D02*
X126107143Y-69894700D01*
X126107143Y-69894700D02*
X126011905Y-69799461D01*
X126011905Y-69799461D02*
X125964286Y-69608985D01*
X125964286Y-69608985D02*
X125964286Y-69275652D01*
X125964286Y-69275652D02*
X126011905Y-69085176D01*
X126011905Y-69085176D02*
X126107143Y-68989938D01*
X126107143Y-68989938D02*
X126202381Y-68942319D01*
X126202381Y-68942319D02*
X126392857Y-68942319D01*
X126392857Y-68942319D02*
X126488095Y-68989938D01*
X126488095Y-68989938D02*
X126583333Y-69085176D01*
X126583333Y-69085176D02*
X126630952Y-69275652D01*
X126630952Y-69275652D02*
X126630952Y-69608985D01*
X126630952Y-69608985D02*
X126583333Y-69799461D01*
X126583333Y-69799461D02*
X126488095Y-69894700D01*
X126488095Y-69894700D02*
X126392857Y-69942319D01*
X126392857Y-69942319D02*
X126202381Y-69942319D01*
X127583333Y-69942319D02*
X127011905Y-69942319D01*
X127297619Y-69942319D02*
X127297619Y-68942319D01*
X127297619Y-68942319D02*
X127202381Y-69085176D01*
X127202381Y-69085176D02*
X127107143Y-69180414D01*
X127107143Y-69180414D02*
X127011905Y-69228033D01*
X128440476Y-68942319D02*
X128250000Y-68942319D01*
X128250000Y-68942319D02*
X128154762Y-68989938D01*
X128154762Y-68989938D02*
X128107143Y-69037557D01*
X128107143Y-69037557D02*
X128011905Y-69180414D01*
X128011905Y-69180414D02*
X127964286Y-69370890D01*
X127964286Y-69370890D02*
X127964286Y-69751842D01*
X127964286Y-69751842D02*
X128011905Y-69847080D01*
X128011905Y-69847080D02*
X128059524Y-69894700D01*
X128059524Y-69894700D02*
X128154762Y-69942319D01*
X128154762Y-69942319D02*
X128345238Y-69942319D01*
X128345238Y-69942319D02*
X128440476Y-69894700D01*
X128440476Y-69894700D02*
X128488095Y-69847080D01*
X128488095Y-69847080D02*
X128535714Y-69751842D01*
X128535714Y-69751842D02*
X128535714Y-69513747D01*
X128535714Y-69513747D02*
X128488095Y-69418509D01*
X128488095Y-69418509D02*
X128440476Y-69370890D01*
X128440476Y-69370890D02*
X128345238Y-69323271D01*
X128345238Y-69323271D02*
X128154762Y-69323271D01*
X128154762Y-69323271D02*
X128059524Y-69370890D01*
X128059524Y-69370890D02*
X128011905Y-69418509D01*
X128011905Y-69418509D02*
X127964286Y-69513747D01*
X129354819Y-58280357D02*
X128878628Y-58613690D01*
X129354819Y-58851785D02*
X128354819Y-58851785D01*
X128354819Y-58851785D02*
X128354819Y-58470833D01*
X128354819Y-58470833D02*
X128402438Y-58375595D01*
X128402438Y-58375595D02*
X128450057Y-58327976D01*
X128450057Y-58327976D02*
X128545295Y-58280357D01*
X128545295Y-58280357D02*
X128688152Y-58280357D01*
X128688152Y-58280357D02*
X128783390Y-58327976D01*
X128783390Y-58327976D02*
X128831009Y-58375595D01*
X128831009Y-58375595D02*
X128878628Y-58470833D01*
X128878628Y-58470833D02*
X128878628Y-58851785D01*
X128354819Y-57947023D02*
X128354819Y-57327976D01*
X128354819Y-57327976D02*
X128735771Y-57661309D01*
X128735771Y-57661309D02*
X128735771Y-57518452D01*
X128735771Y-57518452D02*
X128783390Y-57423214D01*
X128783390Y-57423214D02*
X128831009Y-57375595D01*
X128831009Y-57375595D02*
X128926247Y-57327976D01*
X128926247Y-57327976D02*
X129164342Y-57327976D01*
X129164342Y-57327976D02*
X129259580Y-57375595D01*
X129259580Y-57375595D02*
X129307200Y-57423214D01*
X129307200Y-57423214D02*
X129354819Y-57518452D01*
X129354819Y-57518452D02*
X129354819Y-57804166D01*
X129354819Y-57804166D02*
X129307200Y-57899404D01*
X129307200Y-57899404D02*
X129259580Y-57947023D01*
X129354819Y-56375595D02*
X129354819Y-56947023D01*
X129354819Y-56661309D02*
X128354819Y-56661309D01*
X128354819Y-56661309D02*
X128497676Y-56756547D01*
X128497676Y-56756547D02*
X128592914Y-56851785D01*
X128592914Y-56851785D02*
X128640533Y-56947023D01*
X121354819Y-58280357D02*
X120878628Y-58613690D01*
X121354819Y-58851785D02*
X120354819Y-58851785D01*
X120354819Y-58851785D02*
X120354819Y-58470833D01*
X120354819Y-58470833D02*
X120402438Y-58375595D01*
X120402438Y-58375595D02*
X120450057Y-58327976D01*
X120450057Y-58327976D02*
X120545295Y-58280357D01*
X120545295Y-58280357D02*
X120688152Y-58280357D01*
X120688152Y-58280357D02*
X120783390Y-58327976D01*
X120783390Y-58327976D02*
X120831009Y-58375595D01*
X120831009Y-58375595D02*
X120878628Y-58470833D01*
X120878628Y-58470833D02*
X120878628Y-58851785D01*
X120450057Y-57899404D02*
X120402438Y-57851785D01*
X120402438Y-57851785D02*
X120354819Y-57756547D01*
X120354819Y-57756547D02*
X120354819Y-57518452D01*
X120354819Y-57518452D02*
X120402438Y-57423214D01*
X120402438Y-57423214D02*
X120450057Y-57375595D01*
X120450057Y-57375595D02*
X120545295Y-57327976D01*
X120545295Y-57327976D02*
X120640533Y-57327976D01*
X120640533Y-57327976D02*
X120783390Y-57375595D01*
X120783390Y-57375595D02*
X121354819Y-57947023D01*
X121354819Y-57947023D02*
X121354819Y-57327976D01*
X121354819Y-56851785D02*
X121354819Y-56661309D01*
X121354819Y-56661309D02*
X121307200Y-56566071D01*
X121307200Y-56566071D02*
X121259580Y-56518452D01*
X121259580Y-56518452D02*
X121116723Y-56423214D01*
X121116723Y-56423214D02*
X120926247Y-56375595D01*
X120926247Y-56375595D02*
X120545295Y-56375595D01*
X120545295Y-56375595D02*
X120450057Y-56423214D01*
X120450057Y-56423214D02*
X120402438Y-56470833D01*
X120402438Y-56470833D02*
X120354819Y-56566071D01*
X120354819Y-56566071D02*
X120354819Y-56756547D01*
X120354819Y-56756547D02*
X120402438Y-56851785D01*
X120402438Y-56851785D02*
X120450057Y-56899404D01*
X120450057Y-56899404D02*
X120545295Y-56947023D01*
X120545295Y-56947023D02*
X120783390Y-56947023D01*
X120783390Y-56947023D02*
X120878628Y-56899404D01*
X120878628Y-56899404D02*
X120926247Y-56851785D01*
X120926247Y-56851785D02*
X120973866Y-56756547D01*
X120973866Y-56756547D02*
X120973866Y-56566071D01*
X120973866Y-56566071D02*
X120926247Y-56470833D01*
X120926247Y-56470833D02*
X120878628Y-56423214D01*
X120878628Y-56423214D02*
X120783390Y-56375595D01*
X120754819Y-72667857D02*
X120278628Y-73001190D01*
X120754819Y-73239285D02*
X119754819Y-73239285D01*
X119754819Y-73239285D02*
X119754819Y-72858333D01*
X119754819Y-72858333D02*
X119802438Y-72763095D01*
X119802438Y-72763095D02*
X119850057Y-72715476D01*
X119850057Y-72715476D02*
X119945295Y-72667857D01*
X119945295Y-72667857D02*
X120088152Y-72667857D01*
X120088152Y-72667857D02*
X120183390Y-72715476D01*
X120183390Y-72715476D02*
X120231009Y-72763095D01*
X120231009Y-72763095D02*
X120278628Y-72858333D01*
X120278628Y-72858333D02*
X120278628Y-73239285D01*
X119754819Y-72334523D02*
X119754819Y-71715476D01*
X119754819Y-71715476D02*
X120135771Y-72048809D01*
X120135771Y-72048809D02*
X120135771Y-71905952D01*
X120135771Y-71905952D02*
X120183390Y-71810714D01*
X120183390Y-71810714D02*
X120231009Y-71763095D01*
X120231009Y-71763095D02*
X120326247Y-71715476D01*
X120326247Y-71715476D02*
X120564342Y-71715476D01*
X120564342Y-71715476D02*
X120659580Y-71763095D01*
X120659580Y-71763095D02*
X120707200Y-71810714D01*
X120707200Y-71810714D02*
X120754819Y-71905952D01*
X120754819Y-71905952D02*
X120754819Y-72191666D01*
X120754819Y-72191666D02*
X120707200Y-72286904D01*
X120707200Y-72286904D02*
X120659580Y-72334523D01*
X119754819Y-71382142D02*
X119754819Y-70763095D01*
X119754819Y-70763095D02*
X120135771Y-71096428D01*
X120135771Y-71096428D02*
X120135771Y-70953571D01*
X120135771Y-70953571D02*
X120183390Y-70858333D01*
X120183390Y-70858333D02*
X120231009Y-70810714D01*
X120231009Y-70810714D02*
X120326247Y-70763095D01*
X120326247Y-70763095D02*
X120564342Y-70763095D01*
X120564342Y-70763095D02*
X120659580Y-70810714D01*
X120659580Y-70810714D02*
X120707200Y-70858333D01*
X120707200Y-70858333D02*
X120754819Y-70953571D01*
X120754819Y-70953571D02*
X120754819Y-71239285D01*
X120754819Y-71239285D02*
X120707200Y-71334523D01*
X120707200Y-71334523D02*
X120659580Y-71382142D01*
X117988095Y-139306819D02*
X118559523Y-139306819D01*
X118273809Y-140306819D02*
X118273809Y-139306819D01*
X118892857Y-140306819D02*
X118892857Y-139306819D01*
X118892857Y-139306819D02*
X119273809Y-139306819D01*
X119273809Y-139306819D02*
X119369047Y-139354438D01*
X119369047Y-139354438D02*
X119416666Y-139402057D01*
X119416666Y-139402057D02*
X119464285Y-139497295D01*
X119464285Y-139497295D02*
X119464285Y-139640152D01*
X119464285Y-139640152D02*
X119416666Y-139735390D01*
X119416666Y-139735390D02*
X119369047Y-139783009D01*
X119369047Y-139783009D02*
X119273809Y-139830628D01*
X119273809Y-139830628D02*
X118892857Y-139830628D01*
X120321428Y-139640152D02*
X120321428Y-140306819D01*
X120083333Y-139259200D02*
X119845238Y-139973485D01*
X119845238Y-139973485D02*
X120464285Y-139973485D01*
X158428571Y-64537557D02*
X158333333Y-64489938D01*
X158333333Y-64489938D02*
X158238095Y-64394700D01*
X158238095Y-64394700D02*
X158095238Y-64251842D01*
X158095238Y-64251842D02*
X158000000Y-64204223D01*
X158000000Y-64204223D02*
X157904762Y-64204223D01*
X157952381Y-64442319D02*
X157857143Y-64394700D01*
X157857143Y-64394700D02*
X157761905Y-64299461D01*
X157761905Y-64299461D02*
X157714286Y-64108985D01*
X157714286Y-64108985D02*
X157714286Y-63775652D01*
X157714286Y-63775652D02*
X157761905Y-63585176D01*
X157761905Y-63585176D02*
X157857143Y-63489938D01*
X157857143Y-63489938D02*
X157952381Y-63442319D01*
X157952381Y-63442319D02*
X158142857Y-63442319D01*
X158142857Y-63442319D02*
X158238095Y-63489938D01*
X158238095Y-63489938D02*
X158333333Y-63585176D01*
X158333333Y-63585176D02*
X158380952Y-63775652D01*
X158380952Y-63775652D02*
X158380952Y-64108985D01*
X158380952Y-64108985D02*
X158333333Y-64299461D01*
X158333333Y-64299461D02*
X158238095Y-64394700D01*
X158238095Y-64394700D02*
X158142857Y-64442319D01*
X158142857Y-64442319D02*
X157952381Y-64442319D01*
X159333333Y-64442319D02*
X158761905Y-64442319D01*
X159047619Y-64442319D02*
X159047619Y-63442319D01*
X159047619Y-63442319D02*
X158952381Y-63585176D01*
X158952381Y-63585176D02*
X158857143Y-63680414D01*
X158857143Y-63680414D02*
X158761905Y-63728033D01*
X159666667Y-63442319D02*
X160285714Y-63442319D01*
X160285714Y-63442319D02*
X159952381Y-63823271D01*
X159952381Y-63823271D02*
X160095238Y-63823271D01*
X160095238Y-63823271D02*
X160190476Y-63870890D01*
X160190476Y-63870890D02*
X160238095Y-63918509D01*
X160238095Y-63918509D02*
X160285714Y-64013747D01*
X160285714Y-64013747D02*
X160285714Y-64251842D01*
X160285714Y-64251842D02*
X160238095Y-64347080D01*
X160238095Y-64347080D02*
X160190476Y-64394700D01*
X160190476Y-64394700D02*
X160095238Y-64442319D01*
X160095238Y-64442319D02*
X159809524Y-64442319D01*
X159809524Y-64442319D02*
X159714286Y-64394700D01*
X159714286Y-64394700D02*
X159666667Y-64347080D01*
X157104819Y-66854166D02*
X156628628Y-67187499D01*
X157104819Y-67425594D02*
X156104819Y-67425594D01*
X156104819Y-67425594D02*
X156104819Y-67044642D01*
X156104819Y-67044642D02*
X156152438Y-66949404D01*
X156152438Y-66949404D02*
X156200057Y-66901785D01*
X156200057Y-66901785D02*
X156295295Y-66854166D01*
X156295295Y-66854166D02*
X156438152Y-66854166D01*
X156438152Y-66854166D02*
X156533390Y-66901785D01*
X156533390Y-66901785D02*
X156581009Y-66949404D01*
X156581009Y-66949404D02*
X156628628Y-67044642D01*
X156628628Y-67044642D02*
X156628628Y-67425594D01*
X156533390Y-66282737D02*
X156485771Y-66377975D01*
X156485771Y-66377975D02*
X156438152Y-66425594D01*
X156438152Y-66425594D02*
X156342914Y-66473213D01*
X156342914Y-66473213D02*
X156295295Y-66473213D01*
X156295295Y-66473213D02*
X156200057Y-66425594D01*
X156200057Y-66425594D02*
X156152438Y-66377975D01*
X156152438Y-66377975D02*
X156104819Y-66282737D01*
X156104819Y-66282737D02*
X156104819Y-66092261D01*
X156104819Y-66092261D02*
X156152438Y-65997023D01*
X156152438Y-65997023D02*
X156200057Y-65949404D01*
X156200057Y-65949404D02*
X156295295Y-65901785D01*
X156295295Y-65901785D02*
X156342914Y-65901785D01*
X156342914Y-65901785D02*
X156438152Y-65949404D01*
X156438152Y-65949404D02*
X156485771Y-65997023D01*
X156485771Y-65997023D02*
X156533390Y-66092261D01*
X156533390Y-66092261D02*
X156533390Y-66282737D01*
X156533390Y-66282737D02*
X156581009Y-66377975D01*
X156581009Y-66377975D02*
X156628628Y-66425594D01*
X156628628Y-66425594D02*
X156723866Y-66473213D01*
X156723866Y-66473213D02*
X156914342Y-66473213D01*
X156914342Y-66473213D02*
X157009580Y-66425594D01*
X157009580Y-66425594D02*
X157057200Y-66377975D01*
X157057200Y-66377975D02*
X157104819Y-66282737D01*
X157104819Y-66282737D02*
X157104819Y-66092261D01*
X157104819Y-66092261D02*
X157057200Y-65997023D01*
X157057200Y-65997023D02*
X157009580Y-65949404D01*
X157009580Y-65949404D02*
X156914342Y-65901785D01*
X156914342Y-65901785D02*
X156723866Y-65901785D01*
X156723866Y-65901785D02*
X156628628Y-65949404D01*
X156628628Y-65949404D02*
X156581009Y-65997023D01*
X156581009Y-65997023D02*
X156533390Y-66092261D01*
X137004819Y-58030357D02*
X136528628Y-58363690D01*
X137004819Y-58601785D02*
X136004819Y-58601785D01*
X136004819Y-58601785D02*
X136004819Y-58220833D01*
X136004819Y-58220833D02*
X136052438Y-58125595D01*
X136052438Y-58125595D02*
X136100057Y-58077976D01*
X136100057Y-58077976D02*
X136195295Y-58030357D01*
X136195295Y-58030357D02*
X136338152Y-58030357D01*
X136338152Y-58030357D02*
X136433390Y-58077976D01*
X136433390Y-58077976D02*
X136481009Y-58125595D01*
X136481009Y-58125595D02*
X136528628Y-58220833D01*
X136528628Y-58220833D02*
X136528628Y-58601785D01*
X137004819Y-57077976D02*
X137004819Y-57649404D01*
X137004819Y-57363690D02*
X136004819Y-57363690D01*
X136004819Y-57363690D02*
X136147676Y-57458928D01*
X136147676Y-57458928D02*
X136242914Y-57554166D01*
X136242914Y-57554166D02*
X136290533Y-57649404D01*
X136004819Y-56220833D02*
X136004819Y-56411309D01*
X136004819Y-56411309D02*
X136052438Y-56506547D01*
X136052438Y-56506547D02*
X136100057Y-56554166D01*
X136100057Y-56554166D02*
X136242914Y-56649404D01*
X136242914Y-56649404D02*
X136433390Y-56697023D01*
X136433390Y-56697023D02*
X136814342Y-56697023D01*
X136814342Y-56697023D02*
X136909580Y-56649404D01*
X136909580Y-56649404D02*
X136957200Y-56601785D01*
X136957200Y-56601785D02*
X137004819Y-56506547D01*
X137004819Y-56506547D02*
X137004819Y-56316071D01*
X137004819Y-56316071D02*
X136957200Y-56220833D01*
X136957200Y-56220833D02*
X136909580Y-56173214D01*
X136909580Y-56173214D02*
X136814342Y-56125595D01*
X136814342Y-56125595D02*
X136576247Y-56125595D01*
X136576247Y-56125595D02*
X136481009Y-56173214D01*
X136481009Y-56173214D02*
X136433390Y-56220833D01*
X136433390Y-56220833D02*
X136385771Y-56316071D01*
X136385771Y-56316071D02*
X136385771Y-56506547D01*
X136385771Y-56506547D02*
X136433390Y-56601785D01*
X136433390Y-56601785D02*
X136481009Y-56649404D01*
X136481009Y-56649404D02*
X136576247Y-56697023D01*
X149904819Y-67330357D02*
X149428628Y-67663690D01*
X149904819Y-67901785D02*
X148904819Y-67901785D01*
X148904819Y-67901785D02*
X148904819Y-67520833D01*
X148904819Y-67520833D02*
X148952438Y-67425595D01*
X148952438Y-67425595D02*
X149000057Y-67377976D01*
X149000057Y-67377976D02*
X149095295Y-67330357D01*
X149095295Y-67330357D02*
X149238152Y-67330357D01*
X149238152Y-67330357D02*
X149333390Y-67377976D01*
X149333390Y-67377976D02*
X149381009Y-67425595D01*
X149381009Y-67425595D02*
X149428628Y-67520833D01*
X149428628Y-67520833D02*
X149428628Y-67901785D01*
X149000057Y-66949404D02*
X148952438Y-66901785D01*
X148952438Y-66901785D02*
X148904819Y-66806547D01*
X148904819Y-66806547D02*
X148904819Y-66568452D01*
X148904819Y-66568452D02*
X148952438Y-66473214D01*
X148952438Y-66473214D02*
X149000057Y-66425595D01*
X149000057Y-66425595D02*
X149095295Y-66377976D01*
X149095295Y-66377976D02*
X149190533Y-66377976D01*
X149190533Y-66377976D02*
X149333390Y-66425595D01*
X149333390Y-66425595D02*
X149904819Y-66997023D01*
X149904819Y-66997023D02*
X149904819Y-66377976D01*
X148904819Y-65520833D02*
X148904819Y-65711309D01*
X148904819Y-65711309D02*
X148952438Y-65806547D01*
X148952438Y-65806547D02*
X149000057Y-65854166D01*
X149000057Y-65854166D02*
X149142914Y-65949404D01*
X149142914Y-65949404D02*
X149333390Y-65997023D01*
X149333390Y-65997023D02*
X149714342Y-65997023D01*
X149714342Y-65997023D02*
X149809580Y-65949404D01*
X149809580Y-65949404D02*
X149857200Y-65901785D01*
X149857200Y-65901785D02*
X149904819Y-65806547D01*
X149904819Y-65806547D02*
X149904819Y-65616071D01*
X149904819Y-65616071D02*
X149857200Y-65520833D01*
X149857200Y-65520833D02*
X149809580Y-65473214D01*
X149809580Y-65473214D02*
X149714342Y-65425595D01*
X149714342Y-65425595D02*
X149476247Y-65425595D01*
X149476247Y-65425595D02*
X149381009Y-65473214D01*
X149381009Y-65473214D02*
X149333390Y-65520833D01*
X149333390Y-65520833D02*
X149285771Y-65616071D01*
X149285771Y-65616071D02*
X149285771Y-65806547D01*
X149285771Y-65806547D02*
X149333390Y-65901785D01*
X149333390Y-65901785D02*
X149381009Y-65949404D01*
X149381009Y-65949404D02*
X149476247Y-65997023D01*
X149988905Y-144247319D02*
X149988905Y-143247319D01*
X149988905Y-143247319D02*
X150227000Y-143247319D01*
X150227000Y-143247319D02*
X150369857Y-143294938D01*
X150369857Y-143294938D02*
X150465095Y-143390176D01*
X150465095Y-143390176D02*
X150512714Y-143485414D01*
X150512714Y-143485414D02*
X150560333Y-143675890D01*
X150560333Y-143675890D02*
X150560333Y-143818747D01*
X150560333Y-143818747D02*
X150512714Y-144009223D01*
X150512714Y-144009223D02*
X150465095Y-144104461D01*
X150465095Y-144104461D02*
X150369857Y-144199700D01*
X150369857Y-144199700D02*
X150227000Y-144247319D01*
X150227000Y-144247319D02*
X149988905Y-144247319D01*
X151417476Y-143247319D02*
X151227000Y-143247319D01*
X151227000Y-143247319D02*
X151131762Y-143294938D01*
X151131762Y-143294938D02*
X151084143Y-143342557D01*
X151084143Y-143342557D02*
X150988905Y-143485414D01*
X150988905Y-143485414D02*
X150941286Y-143675890D01*
X150941286Y-143675890D02*
X150941286Y-144056842D01*
X150941286Y-144056842D02*
X150988905Y-144152080D01*
X150988905Y-144152080D02*
X151036524Y-144199700D01*
X151036524Y-144199700D02*
X151131762Y-144247319D01*
X151131762Y-144247319D02*
X151322238Y-144247319D01*
X151322238Y-144247319D02*
X151417476Y-144199700D01*
X151417476Y-144199700D02*
X151465095Y-144152080D01*
X151465095Y-144152080D02*
X151512714Y-144056842D01*
X151512714Y-144056842D02*
X151512714Y-143818747D01*
X151512714Y-143818747D02*
X151465095Y-143723509D01*
X151465095Y-143723509D02*
X151417476Y-143675890D01*
X151417476Y-143675890D02*
X151322238Y-143628271D01*
X151322238Y-143628271D02*
X151131762Y-143628271D01*
X151131762Y-143628271D02*
X151036524Y-143675890D01*
X151036524Y-143675890D02*
X150988905Y-143723509D01*
X150988905Y-143723509D02*
X150941286Y-143818747D01*
X154504819Y-57930357D02*
X154028628Y-58263690D01*
X154504819Y-58501785D02*
X153504819Y-58501785D01*
X153504819Y-58501785D02*
X153504819Y-58120833D01*
X153504819Y-58120833D02*
X153552438Y-58025595D01*
X153552438Y-58025595D02*
X153600057Y-57977976D01*
X153600057Y-57977976D02*
X153695295Y-57930357D01*
X153695295Y-57930357D02*
X153838152Y-57930357D01*
X153838152Y-57930357D02*
X153933390Y-57977976D01*
X153933390Y-57977976D02*
X153981009Y-58025595D01*
X153981009Y-58025595D02*
X154028628Y-58120833D01*
X154028628Y-58120833D02*
X154028628Y-58501785D01*
X154504819Y-56977976D02*
X154504819Y-57549404D01*
X154504819Y-57263690D02*
X153504819Y-57263690D01*
X153504819Y-57263690D02*
X153647676Y-57358928D01*
X153647676Y-57358928D02*
X153742914Y-57454166D01*
X153742914Y-57454166D02*
X153790533Y-57549404D01*
X153838152Y-56120833D02*
X154504819Y-56120833D01*
X153457200Y-56358928D02*
X154171485Y-56597023D01*
X154171485Y-56597023D02*
X154171485Y-55977976D01*
X158204819Y-57930357D02*
X157728628Y-58263690D01*
X158204819Y-58501785D02*
X157204819Y-58501785D01*
X157204819Y-58501785D02*
X157204819Y-58120833D01*
X157204819Y-58120833D02*
X157252438Y-58025595D01*
X157252438Y-58025595D02*
X157300057Y-57977976D01*
X157300057Y-57977976D02*
X157395295Y-57930357D01*
X157395295Y-57930357D02*
X157538152Y-57930357D01*
X157538152Y-57930357D02*
X157633390Y-57977976D01*
X157633390Y-57977976D02*
X157681009Y-58025595D01*
X157681009Y-58025595D02*
X157728628Y-58120833D01*
X157728628Y-58120833D02*
X157728628Y-58501785D01*
X158204819Y-56977976D02*
X158204819Y-57549404D01*
X158204819Y-57263690D02*
X157204819Y-57263690D01*
X157204819Y-57263690D02*
X157347676Y-57358928D01*
X157347676Y-57358928D02*
X157442914Y-57454166D01*
X157442914Y-57454166D02*
X157490533Y-57549404D01*
X157204819Y-56644642D02*
X157204819Y-56025595D01*
X157204819Y-56025595D02*
X157585771Y-56358928D01*
X157585771Y-56358928D02*
X157585771Y-56216071D01*
X157585771Y-56216071D02*
X157633390Y-56120833D01*
X157633390Y-56120833D02*
X157681009Y-56073214D01*
X157681009Y-56073214D02*
X157776247Y-56025595D01*
X157776247Y-56025595D02*
X158014342Y-56025595D01*
X158014342Y-56025595D02*
X158109580Y-56073214D01*
X158109580Y-56073214D02*
X158157200Y-56120833D01*
X158157200Y-56120833D02*
X158204819Y-56216071D01*
X158204819Y-56216071D02*
X158204819Y-56501785D01*
X158204819Y-56501785D02*
X158157200Y-56597023D01*
X158157200Y-56597023D02*
X158109580Y-56644642D01*
X164604819Y-67230357D02*
X164128628Y-67563690D01*
X164604819Y-67801785D02*
X163604819Y-67801785D01*
X163604819Y-67801785D02*
X163604819Y-67420833D01*
X163604819Y-67420833D02*
X163652438Y-67325595D01*
X163652438Y-67325595D02*
X163700057Y-67277976D01*
X163700057Y-67277976D02*
X163795295Y-67230357D01*
X163795295Y-67230357D02*
X163938152Y-67230357D01*
X163938152Y-67230357D02*
X164033390Y-67277976D01*
X164033390Y-67277976D02*
X164081009Y-67325595D01*
X164081009Y-67325595D02*
X164128628Y-67420833D01*
X164128628Y-67420833D02*
X164128628Y-67801785D01*
X164604819Y-66277976D02*
X164604819Y-66849404D01*
X164604819Y-66563690D02*
X163604819Y-66563690D01*
X163604819Y-66563690D02*
X163747676Y-66658928D01*
X163747676Y-66658928D02*
X163842914Y-66754166D01*
X163842914Y-66754166D02*
X163890533Y-66849404D01*
X164604819Y-65325595D02*
X164604819Y-65897023D01*
X164604819Y-65611309D02*
X163604819Y-65611309D01*
X163604819Y-65611309D02*
X163747676Y-65706547D01*
X163747676Y-65706547D02*
X163842914Y-65801785D01*
X163842914Y-65801785D02*
X163890533Y-65897023D01*
X114054819Y-63625594D02*
X113054819Y-63625594D01*
X113054819Y-63625594D02*
X113054819Y-63387499D01*
X113054819Y-63387499D02*
X113102438Y-63244642D01*
X113102438Y-63244642D02*
X113197676Y-63149404D01*
X113197676Y-63149404D02*
X113292914Y-63101785D01*
X113292914Y-63101785D02*
X113483390Y-63054166D01*
X113483390Y-63054166D02*
X113626247Y-63054166D01*
X113626247Y-63054166D02*
X113816723Y-63101785D01*
X113816723Y-63101785D02*
X113911961Y-63149404D01*
X113911961Y-63149404D02*
X114007200Y-63244642D01*
X114007200Y-63244642D02*
X114054819Y-63387499D01*
X114054819Y-63387499D02*
X114054819Y-63625594D01*
X114054819Y-62101785D02*
X114054819Y-62673213D01*
X114054819Y-62387499D02*
X113054819Y-62387499D01*
X113054819Y-62387499D02*
X113197676Y-62482737D01*
X113197676Y-62482737D02*
X113292914Y-62577975D01*
X113292914Y-62577975D02*
X113340533Y-62673213D01*
X116666667Y-124407200D02*
X116809524Y-124454819D01*
X116809524Y-124454819D02*
X117047619Y-124454819D01*
X117047619Y-124454819D02*
X117142857Y-124407200D01*
X117142857Y-124407200D02*
X117190476Y-124359580D01*
X117190476Y-124359580D02*
X117238095Y-124264342D01*
X117238095Y-124264342D02*
X117238095Y-124169104D01*
X117238095Y-124169104D02*
X117190476Y-124073866D01*
X117190476Y-124073866D02*
X117142857Y-124026247D01*
X117142857Y-124026247D02*
X117047619Y-123978628D01*
X117047619Y-123978628D02*
X116857143Y-123931009D01*
X116857143Y-123931009D02*
X116761905Y-123883390D01*
X116761905Y-123883390D02*
X116714286Y-123835771D01*
X116714286Y-123835771D02*
X116666667Y-123740533D01*
X116666667Y-123740533D02*
X116666667Y-123645295D01*
X116666667Y-123645295D02*
X116714286Y-123550057D01*
X116714286Y-123550057D02*
X116761905Y-123502438D01*
X116761905Y-123502438D02*
X116857143Y-123454819D01*
X116857143Y-123454819D02*
X117095238Y-123454819D01*
X117095238Y-123454819D02*
X117238095Y-123502438D01*
X117571429Y-123454819D02*
X117809524Y-124454819D01*
X117809524Y-124454819D02*
X118000000Y-123740533D01*
X118000000Y-123740533D02*
X118190476Y-124454819D01*
X118190476Y-124454819D02*
X118428572Y-123454819D01*
X119333333Y-124454819D02*
X118761905Y-124454819D01*
X119047619Y-124454819D02*
X119047619Y-123454819D01*
X119047619Y-123454819D02*
X118952381Y-123597676D01*
X118952381Y-123597676D02*
X118857143Y-123692914D01*
X118857143Y-123692914D02*
X118761905Y-123740533D01*
X171238095Y-43429819D02*
X171238095Y-42429819D01*
X171238095Y-42906009D02*
X171809523Y-42906009D01*
X171809523Y-43429819D02*
X171809523Y-42429819D01*
X172238095Y-42525057D02*
X172285714Y-42477438D01*
X172285714Y-42477438D02*
X172380952Y-42429819D01*
X172380952Y-42429819D02*
X172619047Y-42429819D01*
X172619047Y-42429819D02*
X172714285Y-42477438D01*
X172714285Y-42477438D02*
X172761904Y-42525057D01*
X172761904Y-42525057D02*
X172809523Y-42620295D01*
X172809523Y-42620295D02*
X172809523Y-42715533D01*
X172809523Y-42715533D02*
X172761904Y-42858390D01*
X172761904Y-42858390D02*
X172190476Y-43429819D01*
X172190476Y-43429819D02*
X172809523Y-43429819D01*
X150804819Y-58030357D02*
X150328628Y-58363690D01*
X150804819Y-58601785D02*
X149804819Y-58601785D01*
X149804819Y-58601785D02*
X149804819Y-58220833D01*
X149804819Y-58220833D02*
X149852438Y-58125595D01*
X149852438Y-58125595D02*
X149900057Y-58077976D01*
X149900057Y-58077976D02*
X149995295Y-58030357D01*
X149995295Y-58030357D02*
X150138152Y-58030357D01*
X150138152Y-58030357D02*
X150233390Y-58077976D01*
X150233390Y-58077976D02*
X150281009Y-58125595D01*
X150281009Y-58125595D02*
X150328628Y-58220833D01*
X150328628Y-58220833D02*
X150328628Y-58601785D01*
X150804819Y-57077976D02*
X150804819Y-57649404D01*
X150804819Y-57363690D02*
X149804819Y-57363690D01*
X149804819Y-57363690D02*
X149947676Y-57458928D01*
X149947676Y-57458928D02*
X150042914Y-57554166D01*
X150042914Y-57554166D02*
X150090533Y-57649404D01*
X150804819Y-56601785D02*
X150804819Y-56411309D01*
X150804819Y-56411309D02*
X150757200Y-56316071D01*
X150757200Y-56316071D02*
X150709580Y-56268452D01*
X150709580Y-56268452D02*
X150566723Y-56173214D01*
X150566723Y-56173214D02*
X150376247Y-56125595D01*
X150376247Y-56125595D02*
X149995295Y-56125595D01*
X149995295Y-56125595D02*
X149900057Y-56173214D01*
X149900057Y-56173214D02*
X149852438Y-56220833D01*
X149852438Y-56220833D02*
X149804819Y-56316071D01*
X149804819Y-56316071D02*
X149804819Y-56506547D01*
X149804819Y-56506547D02*
X149852438Y-56601785D01*
X149852438Y-56601785D02*
X149900057Y-56649404D01*
X149900057Y-56649404D02*
X149995295Y-56697023D01*
X149995295Y-56697023D02*
X150233390Y-56697023D01*
X150233390Y-56697023D02*
X150328628Y-56649404D01*
X150328628Y-56649404D02*
X150376247Y-56601785D01*
X150376247Y-56601785D02*
X150423866Y-56506547D01*
X150423866Y-56506547D02*
X150423866Y-56316071D01*
X150423866Y-56316071D02*
X150376247Y-56220833D01*
X150376247Y-56220833D02*
X150328628Y-56173214D01*
X150328628Y-56173214D02*
X150233390Y-56125595D01*
X160233333Y-116109580D02*
X160185714Y-116157200D01*
X160185714Y-116157200D02*
X160042857Y-116204819D01*
X160042857Y-116204819D02*
X159947619Y-116204819D01*
X159947619Y-116204819D02*
X159804762Y-116157200D01*
X159804762Y-116157200D02*
X159709524Y-116061961D01*
X159709524Y-116061961D02*
X159661905Y-115966723D01*
X159661905Y-115966723D02*
X159614286Y-115776247D01*
X159614286Y-115776247D02*
X159614286Y-115633390D01*
X159614286Y-115633390D02*
X159661905Y-115442914D01*
X159661905Y-115442914D02*
X159709524Y-115347676D01*
X159709524Y-115347676D02*
X159804762Y-115252438D01*
X159804762Y-115252438D02*
X159947619Y-115204819D01*
X159947619Y-115204819D02*
X160042857Y-115204819D01*
X160042857Y-115204819D02*
X160185714Y-115252438D01*
X160185714Y-115252438D02*
X160233333Y-115300057D01*
X161090476Y-115538152D02*
X161090476Y-116204819D01*
X160852381Y-115157200D02*
X160614286Y-115871485D01*
X160614286Y-115871485D02*
X161233333Y-115871485D01*
X166104761Y-64537557D02*
X166009523Y-64489938D01*
X166009523Y-64489938D02*
X165914285Y-64394700D01*
X165914285Y-64394700D02*
X165771428Y-64251842D01*
X165771428Y-64251842D02*
X165676190Y-64204223D01*
X165676190Y-64204223D02*
X165580952Y-64204223D01*
X165628571Y-64442319D02*
X165533333Y-64394700D01*
X165533333Y-64394700D02*
X165438095Y-64299461D01*
X165438095Y-64299461D02*
X165390476Y-64108985D01*
X165390476Y-64108985D02*
X165390476Y-63775652D01*
X165390476Y-63775652D02*
X165438095Y-63585176D01*
X165438095Y-63585176D02*
X165533333Y-63489938D01*
X165533333Y-63489938D02*
X165628571Y-63442319D01*
X165628571Y-63442319D02*
X165819047Y-63442319D01*
X165819047Y-63442319D02*
X165914285Y-63489938D01*
X165914285Y-63489938D02*
X166009523Y-63585176D01*
X166009523Y-63585176D02*
X166057142Y-63775652D01*
X166057142Y-63775652D02*
X166057142Y-64108985D01*
X166057142Y-64108985D02*
X166009523Y-64299461D01*
X166009523Y-64299461D02*
X165914285Y-64394700D01*
X165914285Y-64394700D02*
X165819047Y-64442319D01*
X165819047Y-64442319D02*
X165628571Y-64442319D01*
X166438095Y-63537557D02*
X166485714Y-63489938D01*
X166485714Y-63489938D02*
X166580952Y-63442319D01*
X166580952Y-63442319D02*
X166819047Y-63442319D01*
X166819047Y-63442319D02*
X166914285Y-63489938D01*
X166914285Y-63489938D02*
X166961904Y-63537557D01*
X166961904Y-63537557D02*
X167009523Y-63632795D01*
X167009523Y-63632795D02*
X167009523Y-63728033D01*
X167009523Y-63728033D02*
X166961904Y-63870890D01*
X166961904Y-63870890D02*
X166390476Y-64442319D01*
X166390476Y-64442319D02*
X167009523Y-64442319D01*
X127766123Y-102341443D02*
X127766123Y-103056893D01*
X127766123Y-103056893D02*
X127718426Y-103199983D01*
X127718426Y-103199983D02*
X127623033Y-103295377D01*
X127623033Y-103295377D02*
X127479943Y-103343073D01*
X127479943Y-103343073D02*
X127384550Y-103343073D01*
X128147697Y-102341443D02*
X128767753Y-102341443D01*
X128767753Y-102341443D02*
X128433877Y-102723017D01*
X128433877Y-102723017D02*
X128576967Y-102723017D01*
X128576967Y-102723017D02*
X128672360Y-102770713D01*
X128672360Y-102770713D02*
X128720057Y-102818410D01*
X128720057Y-102818410D02*
X128767753Y-102913803D01*
X128767753Y-102913803D02*
X128767753Y-103152287D01*
X128767753Y-103152287D02*
X128720057Y-103247680D01*
X128720057Y-103247680D02*
X128672360Y-103295377D01*
X128672360Y-103295377D02*
X128576967Y-103343073D01*
X128576967Y-103343073D02*
X128290787Y-103343073D01*
X128290787Y-103343073D02*
X128195393Y-103295377D01*
X128195393Y-103295377D02*
X128147697Y-103247680D01*
X162204761Y-64475057D02*
X162109523Y-64427438D01*
X162109523Y-64427438D02*
X162014285Y-64332200D01*
X162014285Y-64332200D02*
X161871428Y-64189342D01*
X161871428Y-64189342D02*
X161776190Y-64141723D01*
X161776190Y-64141723D02*
X161680952Y-64141723D01*
X161728571Y-64379819D02*
X161633333Y-64332200D01*
X161633333Y-64332200D02*
X161538095Y-64236961D01*
X161538095Y-64236961D02*
X161490476Y-64046485D01*
X161490476Y-64046485D02*
X161490476Y-63713152D01*
X161490476Y-63713152D02*
X161538095Y-63522676D01*
X161538095Y-63522676D02*
X161633333Y-63427438D01*
X161633333Y-63427438D02*
X161728571Y-63379819D01*
X161728571Y-63379819D02*
X161919047Y-63379819D01*
X161919047Y-63379819D02*
X162014285Y-63427438D01*
X162014285Y-63427438D02*
X162109523Y-63522676D01*
X162109523Y-63522676D02*
X162157142Y-63713152D01*
X162157142Y-63713152D02*
X162157142Y-64046485D01*
X162157142Y-64046485D02*
X162109523Y-64236961D01*
X162109523Y-64236961D02*
X162014285Y-64332200D01*
X162014285Y-64332200D02*
X161919047Y-64379819D01*
X161919047Y-64379819D02*
X161728571Y-64379819D01*
X163109523Y-64379819D02*
X162538095Y-64379819D01*
X162823809Y-64379819D02*
X162823809Y-63379819D01*
X162823809Y-63379819D02*
X162728571Y-63522676D01*
X162728571Y-63522676D02*
X162633333Y-63617914D01*
X162633333Y-63617914D02*
X162538095Y-63665533D01*
X146679580Y-111829166D02*
X146727200Y-111876785D01*
X146727200Y-111876785D02*
X146774819Y-112019642D01*
X146774819Y-112019642D02*
X146774819Y-112114880D01*
X146774819Y-112114880D02*
X146727200Y-112257737D01*
X146727200Y-112257737D02*
X146631961Y-112352975D01*
X146631961Y-112352975D02*
X146536723Y-112400594D01*
X146536723Y-112400594D02*
X146346247Y-112448213D01*
X146346247Y-112448213D02*
X146203390Y-112448213D01*
X146203390Y-112448213D02*
X146012914Y-112400594D01*
X146012914Y-112400594D02*
X145917676Y-112352975D01*
X145917676Y-112352975D02*
X145822438Y-112257737D01*
X145822438Y-112257737D02*
X145774819Y-112114880D01*
X145774819Y-112114880D02*
X145774819Y-112019642D01*
X145774819Y-112019642D02*
X145822438Y-111876785D01*
X145822438Y-111876785D02*
X145870057Y-111829166D01*
X145774819Y-110972023D02*
X145774819Y-111162499D01*
X145774819Y-111162499D02*
X145822438Y-111257737D01*
X145822438Y-111257737D02*
X145870057Y-111305356D01*
X145870057Y-111305356D02*
X146012914Y-111400594D01*
X146012914Y-111400594D02*
X146203390Y-111448213D01*
X146203390Y-111448213D02*
X146584342Y-111448213D01*
X146584342Y-111448213D02*
X146679580Y-111400594D01*
X146679580Y-111400594D02*
X146727200Y-111352975D01*
X146727200Y-111352975D02*
X146774819Y-111257737D01*
X146774819Y-111257737D02*
X146774819Y-111067261D01*
X146774819Y-111067261D02*
X146727200Y-110972023D01*
X146727200Y-110972023D02*
X146679580Y-110924404D01*
X146679580Y-110924404D02*
X146584342Y-110876785D01*
X146584342Y-110876785D02*
X146346247Y-110876785D01*
X146346247Y-110876785D02*
X146251009Y-110924404D01*
X146251009Y-110924404D02*
X146203390Y-110972023D01*
X146203390Y-110972023D02*
X146155771Y-111067261D01*
X146155771Y-111067261D02*
X146155771Y-111257737D01*
X146155771Y-111257737D02*
X146203390Y-111352975D01*
X146203390Y-111352975D02*
X146251009Y-111400594D01*
X146251009Y-111400594D02*
X146346247Y-111448213D01*
X147704761Y-64575057D02*
X147609523Y-64527438D01*
X147609523Y-64527438D02*
X147514285Y-64432200D01*
X147514285Y-64432200D02*
X147371428Y-64289342D01*
X147371428Y-64289342D02*
X147276190Y-64241723D01*
X147276190Y-64241723D02*
X147180952Y-64241723D01*
X147228571Y-64479819D02*
X147133333Y-64432200D01*
X147133333Y-64432200D02*
X147038095Y-64336961D01*
X147038095Y-64336961D02*
X146990476Y-64146485D01*
X146990476Y-64146485D02*
X146990476Y-63813152D01*
X146990476Y-63813152D02*
X147038095Y-63622676D01*
X147038095Y-63622676D02*
X147133333Y-63527438D01*
X147133333Y-63527438D02*
X147228571Y-63479819D01*
X147228571Y-63479819D02*
X147419047Y-63479819D01*
X147419047Y-63479819D02*
X147514285Y-63527438D01*
X147514285Y-63527438D02*
X147609523Y-63622676D01*
X147609523Y-63622676D02*
X147657142Y-63813152D01*
X147657142Y-63813152D02*
X147657142Y-64146485D01*
X147657142Y-64146485D02*
X147609523Y-64336961D01*
X147609523Y-64336961D02*
X147514285Y-64432200D01*
X147514285Y-64432200D02*
X147419047Y-64479819D01*
X147419047Y-64479819D02*
X147228571Y-64479819D01*
X148133333Y-64479819D02*
X148323809Y-64479819D01*
X148323809Y-64479819D02*
X148419047Y-64432200D01*
X148419047Y-64432200D02*
X148466666Y-64384580D01*
X148466666Y-64384580D02*
X148561904Y-64241723D01*
X148561904Y-64241723D02*
X148609523Y-64051247D01*
X148609523Y-64051247D02*
X148609523Y-63670295D01*
X148609523Y-63670295D02*
X148561904Y-63575057D01*
X148561904Y-63575057D02*
X148514285Y-63527438D01*
X148514285Y-63527438D02*
X148419047Y-63479819D01*
X148419047Y-63479819D02*
X148228571Y-63479819D01*
X148228571Y-63479819D02*
X148133333Y-63527438D01*
X148133333Y-63527438D02*
X148085714Y-63575057D01*
X148085714Y-63575057D02*
X148038095Y-63670295D01*
X148038095Y-63670295D02*
X148038095Y-63908390D01*
X148038095Y-63908390D02*
X148085714Y-64003628D01*
X148085714Y-64003628D02*
X148133333Y-64051247D01*
X148133333Y-64051247D02*
X148228571Y-64098866D01*
X148228571Y-64098866D02*
X148419047Y-64098866D01*
X148419047Y-64098866D02*
X148514285Y-64051247D01*
X148514285Y-64051247D02*
X148561904Y-64003628D01*
X148561904Y-64003628D02*
X148609523Y-63908390D01*
X126054819Y-63625594D02*
X125054819Y-63625594D01*
X125054819Y-63625594D02*
X125054819Y-63387499D01*
X125054819Y-63387499D02*
X125102438Y-63244642D01*
X125102438Y-63244642D02*
X125197676Y-63149404D01*
X125197676Y-63149404D02*
X125292914Y-63101785D01*
X125292914Y-63101785D02*
X125483390Y-63054166D01*
X125483390Y-63054166D02*
X125626247Y-63054166D01*
X125626247Y-63054166D02*
X125816723Y-63101785D01*
X125816723Y-63101785D02*
X125911961Y-63149404D01*
X125911961Y-63149404D02*
X126007200Y-63244642D01*
X126007200Y-63244642D02*
X126054819Y-63387499D01*
X126054819Y-63387499D02*
X126054819Y-63625594D01*
X125388152Y-62197023D02*
X126054819Y-62197023D01*
X125007200Y-62435118D02*
X125721485Y-62673213D01*
X125721485Y-62673213D02*
X125721485Y-62054166D01*
X135683333Y-70959580D02*
X135635714Y-71007200D01*
X135635714Y-71007200D02*
X135492857Y-71054819D01*
X135492857Y-71054819D02*
X135397619Y-71054819D01*
X135397619Y-71054819D02*
X135254762Y-71007200D01*
X135254762Y-71007200D02*
X135159524Y-70911961D01*
X135159524Y-70911961D02*
X135111905Y-70816723D01*
X135111905Y-70816723D02*
X135064286Y-70626247D01*
X135064286Y-70626247D02*
X135064286Y-70483390D01*
X135064286Y-70483390D02*
X135111905Y-70292914D01*
X135111905Y-70292914D02*
X135159524Y-70197676D01*
X135159524Y-70197676D02*
X135254762Y-70102438D01*
X135254762Y-70102438D02*
X135397619Y-70054819D01*
X135397619Y-70054819D02*
X135492857Y-70054819D01*
X135492857Y-70054819D02*
X135635714Y-70102438D01*
X135635714Y-70102438D02*
X135683333Y-70150057D01*
X136635714Y-71054819D02*
X136064286Y-71054819D01*
X136350000Y-71054819D02*
X136350000Y-70054819D01*
X136350000Y-70054819D02*
X136254762Y-70197676D01*
X136254762Y-70197676D02*
X136159524Y-70292914D01*
X136159524Y-70292914D02*
X136064286Y-70340533D01*
X128654819Y-72567857D02*
X128178628Y-72901190D01*
X128654819Y-73139285D02*
X127654819Y-73139285D01*
X127654819Y-73139285D02*
X127654819Y-72758333D01*
X127654819Y-72758333D02*
X127702438Y-72663095D01*
X127702438Y-72663095D02*
X127750057Y-72615476D01*
X127750057Y-72615476D02*
X127845295Y-72567857D01*
X127845295Y-72567857D02*
X127988152Y-72567857D01*
X127988152Y-72567857D02*
X128083390Y-72615476D01*
X128083390Y-72615476D02*
X128131009Y-72663095D01*
X128131009Y-72663095D02*
X128178628Y-72758333D01*
X128178628Y-72758333D02*
X128178628Y-73139285D01*
X127654819Y-72234523D02*
X127654819Y-71615476D01*
X127654819Y-71615476D02*
X128035771Y-71948809D01*
X128035771Y-71948809D02*
X128035771Y-71805952D01*
X128035771Y-71805952D02*
X128083390Y-71710714D01*
X128083390Y-71710714D02*
X128131009Y-71663095D01*
X128131009Y-71663095D02*
X128226247Y-71615476D01*
X128226247Y-71615476D02*
X128464342Y-71615476D01*
X128464342Y-71615476D02*
X128559580Y-71663095D01*
X128559580Y-71663095D02*
X128607200Y-71710714D01*
X128607200Y-71710714D02*
X128654819Y-71805952D01*
X128654819Y-71805952D02*
X128654819Y-72091666D01*
X128654819Y-72091666D02*
X128607200Y-72186904D01*
X128607200Y-72186904D02*
X128559580Y-72234523D01*
X127654819Y-70710714D02*
X127654819Y-71186904D01*
X127654819Y-71186904D02*
X128131009Y-71234523D01*
X128131009Y-71234523D02*
X128083390Y-71186904D01*
X128083390Y-71186904D02*
X128035771Y-71091666D01*
X128035771Y-71091666D02*
X128035771Y-70853571D01*
X128035771Y-70853571D02*
X128083390Y-70758333D01*
X128083390Y-70758333D02*
X128131009Y-70710714D01*
X128131009Y-70710714D02*
X128226247Y-70663095D01*
X128226247Y-70663095D02*
X128464342Y-70663095D01*
X128464342Y-70663095D02*
X128559580Y-70710714D01*
X128559580Y-70710714D02*
X128607200Y-70758333D01*
X128607200Y-70758333D02*
X128654819Y-70853571D01*
X128654819Y-70853571D02*
X128654819Y-71091666D01*
X128654819Y-71091666D02*
X128607200Y-71186904D01*
X128607200Y-71186904D02*
X128559580Y-71234523D01*
X138504819Y-114830357D02*
X138028628Y-115163690D01*
X138504819Y-115401785D02*
X137504819Y-115401785D01*
X137504819Y-115401785D02*
X137504819Y-115020833D01*
X137504819Y-115020833D02*
X137552438Y-114925595D01*
X137552438Y-114925595D02*
X137600057Y-114877976D01*
X137600057Y-114877976D02*
X137695295Y-114830357D01*
X137695295Y-114830357D02*
X137838152Y-114830357D01*
X137838152Y-114830357D02*
X137933390Y-114877976D01*
X137933390Y-114877976D02*
X137981009Y-114925595D01*
X137981009Y-114925595D02*
X138028628Y-115020833D01*
X138028628Y-115020833D02*
X138028628Y-115401785D01*
X137838152Y-113973214D02*
X138504819Y-113973214D01*
X137457200Y-114211309D02*
X138171485Y-114449404D01*
X138171485Y-114449404D02*
X138171485Y-113830357D01*
X137504819Y-113258928D02*
X137504819Y-113163690D01*
X137504819Y-113163690D02*
X137552438Y-113068452D01*
X137552438Y-113068452D02*
X137600057Y-113020833D01*
X137600057Y-113020833D02*
X137695295Y-112973214D01*
X137695295Y-112973214D02*
X137885771Y-112925595D01*
X137885771Y-112925595D02*
X138123866Y-112925595D01*
X138123866Y-112925595D02*
X138314342Y-112973214D01*
X138314342Y-112973214D02*
X138409580Y-113020833D01*
X138409580Y-113020833D02*
X138457200Y-113068452D01*
X138457200Y-113068452D02*
X138504819Y-113163690D01*
X138504819Y-113163690D02*
X138504819Y-113258928D01*
X138504819Y-113258928D02*
X138457200Y-113354166D01*
X138457200Y-113354166D02*
X138409580Y-113401785D01*
X138409580Y-113401785D02*
X138314342Y-113449404D01*
X138314342Y-113449404D02*
X138123866Y-113497023D01*
X138123866Y-113497023D02*
X137885771Y-113497023D01*
X137885771Y-113497023D02*
X137695295Y-113449404D01*
X137695295Y-113449404D02*
X137600057Y-113401785D01*
X137600057Y-113401785D02*
X137552438Y-113354166D01*
X137552438Y-113354166D02*
X137504819Y-113258928D01*
X146504819Y-67330357D02*
X146028628Y-67663690D01*
X146504819Y-67901785D02*
X145504819Y-67901785D01*
X145504819Y-67901785D02*
X145504819Y-67520833D01*
X145504819Y-67520833D02*
X145552438Y-67425595D01*
X145552438Y-67425595D02*
X145600057Y-67377976D01*
X145600057Y-67377976D02*
X145695295Y-67330357D01*
X145695295Y-67330357D02*
X145838152Y-67330357D01*
X145838152Y-67330357D02*
X145933390Y-67377976D01*
X145933390Y-67377976D02*
X145981009Y-67425595D01*
X145981009Y-67425595D02*
X146028628Y-67520833D01*
X146028628Y-67520833D02*
X146028628Y-67901785D01*
X145600057Y-66949404D02*
X145552438Y-66901785D01*
X145552438Y-66901785D02*
X145504819Y-66806547D01*
X145504819Y-66806547D02*
X145504819Y-66568452D01*
X145504819Y-66568452D02*
X145552438Y-66473214D01*
X145552438Y-66473214D02*
X145600057Y-66425595D01*
X145600057Y-66425595D02*
X145695295Y-66377976D01*
X145695295Y-66377976D02*
X145790533Y-66377976D01*
X145790533Y-66377976D02*
X145933390Y-66425595D01*
X145933390Y-66425595D02*
X146504819Y-66997023D01*
X146504819Y-66997023D02*
X146504819Y-66377976D01*
X145504819Y-65473214D02*
X145504819Y-65949404D01*
X145504819Y-65949404D02*
X145981009Y-65997023D01*
X145981009Y-65997023D02*
X145933390Y-65949404D01*
X145933390Y-65949404D02*
X145885771Y-65854166D01*
X145885771Y-65854166D02*
X145885771Y-65616071D01*
X145885771Y-65616071D02*
X145933390Y-65520833D01*
X145933390Y-65520833D02*
X145981009Y-65473214D01*
X145981009Y-65473214D02*
X146076247Y-65425595D01*
X146076247Y-65425595D02*
X146314342Y-65425595D01*
X146314342Y-65425595D02*
X146409580Y-65473214D01*
X146409580Y-65473214D02*
X146457200Y-65520833D01*
X146457200Y-65520833D02*
X146504819Y-65616071D01*
X146504819Y-65616071D02*
X146504819Y-65854166D01*
X146504819Y-65854166D02*
X146457200Y-65949404D01*
X146457200Y-65949404D02*
X146409580Y-65997023D01*
X155788095Y-124704819D02*
X155788095Y-125514342D01*
X155788095Y-125514342D02*
X155835714Y-125609580D01*
X155835714Y-125609580D02*
X155883333Y-125657200D01*
X155883333Y-125657200D02*
X155978571Y-125704819D01*
X155978571Y-125704819D02*
X156169047Y-125704819D01*
X156169047Y-125704819D02*
X156264285Y-125657200D01*
X156264285Y-125657200D02*
X156311904Y-125609580D01*
X156311904Y-125609580D02*
X156359523Y-125514342D01*
X156359523Y-125514342D02*
X156359523Y-124704819D01*
X156740476Y-124704819D02*
X157407142Y-124704819D01*
X157407142Y-124704819D02*
X156978571Y-125704819D01*
X125870833Y-138734819D02*
X125537500Y-138258628D01*
X125299405Y-138734819D02*
X125299405Y-137734819D01*
X125299405Y-137734819D02*
X125680357Y-137734819D01*
X125680357Y-137734819D02*
X125775595Y-137782438D01*
X125775595Y-137782438D02*
X125823214Y-137830057D01*
X125823214Y-137830057D02*
X125870833Y-137925295D01*
X125870833Y-137925295D02*
X125870833Y-138068152D01*
X125870833Y-138068152D02*
X125823214Y-138163390D01*
X125823214Y-138163390D02*
X125775595Y-138211009D01*
X125775595Y-138211009D02*
X125680357Y-138258628D01*
X125680357Y-138258628D02*
X125299405Y-138258628D01*
X126204167Y-137734819D02*
X126823214Y-137734819D01*
X126823214Y-137734819D02*
X126489881Y-138115771D01*
X126489881Y-138115771D02*
X126632738Y-138115771D01*
X126632738Y-138115771D02*
X126727976Y-138163390D01*
X126727976Y-138163390D02*
X126775595Y-138211009D01*
X126775595Y-138211009D02*
X126823214Y-138306247D01*
X126823214Y-138306247D02*
X126823214Y-138544342D01*
X126823214Y-138544342D02*
X126775595Y-138639580D01*
X126775595Y-138639580D02*
X126727976Y-138687200D01*
X126727976Y-138687200D02*
X126632738Y-138734819D01*
X126632738Y-138734819D02*
X126347024Y-138734819D01*
X126347024Y-138734819D02*
X126251786Y-138687200D01*
X126251786Y-138687200D02*
X126204167Y-138639580D01*
X168304819Y-66754166D02*
X167828628Y-67087499D01*
X168304819Y-67325594D02*
X167304819Y-67325594D01*
X167304819Y-67325594D02*
X167304819Y-66944642D01*
X167304819Y-66944642D02*
X167352438Y-66849404D01*
X167352438Y-66849404D02*
X167400057Y-66801785D01*
X167400057Y-66801785D02*
X167495295Y-66754166D01*
X167495295Y-66754166D02*
X167638152Y-66754166D01*
X167638152Y-66754166D02*
X167733390Y-66801785D01*
X167733390Y-66801785D02*
X167781009Y-66849404D01*
X167781009Y-66849404D02*
X167828628Y-66944642D01*
X167828628Y-66944642D02*
X167828628Y-67325594D01*
X168304819Y-66277975D02*
X168304819Y-66087499D01*
X168304819Y-66087499D02*
X168257200Y-65992261D01*
X168257200Y-65992261D02*
X168209580Y-65944642D01*
X168209580Y-65944642D02*
X168066723Y-65849404D01*
X168066723Y-65849404D02*
X167876247Y-65801785D01*
X167876247Y-65801785D02*
X167495295Y-65801785D01*
X167495295Y-65801785D02*
X167400057Y-65849404D01*
X167400057Y-65849404D02*
X167352438Y-65897023D01*
X167352438Y-65897023D02*
X167304819Y-65992261D01*
X167304819Y-65992261D02*
X167304819Y-66182737D01*
X167304819Y-66182737D02*
X167352438Y-66277975D01*
X167352438Y-66277975D02*
X167400057Y-66325594D01*
X167400057Y-66325594D02*
X167495295Y-66373213D01*
X167495295Y-66373213D02*
X167733390Y-66373213D01*
X167733390Y-66373213D02*
X167828628Y-66325594D01*
X167828628Y-66325594D02*
X167876247Y-66277975D01*
X167876247Y-66277975D02*
X167923866Y-66182737D01*
X167923866Y-66182737D02*
X167923866Y-65992261D01*
X167923866Y-65992261D02*
X167876247Y-65897023D01*
X167876247Y-65897023D02*
X167828628Y-65849404D01*
X167828628Y-65849404D02*
X167733390Y-65801785D01*
X116754819Y-72767857D02*
X116278628Y-73101190D01*
X116754819Y-73339285D02*
X115754819Y-73339285D01*
X115754819Y-73339285D02*
X115754819Y-72958333D01*
X115754819Y-72958333D02*
X115802438Y-72863095D01*
X115802438Y-72863095D02*
X115850057Y-72815476D01*
X115850057Y-72815476D02*
X115945295Y-72767857D01*
X115945295Y-72767857D02*
X116088152Y-72767857D01*
X116088152Y-72767857D02*
X116183390Y-72815476D01*
X116183390Y-72815476D02*
X116231009Y-72863095D01*
X116231009Y-72863095D02*
X116278628Y-72958333D01*
X116278628Y-72958333D02*
X116278628Y-73339285D01*
X115754819Y-72434523D02*
X115754819Y-71815476D01*
X115754819Y-71815476D02*
X116135771Y-72148809D01*
X116135771Y-72148809D02*
X116135771Y-72005952D01*
X116135771Y-72005952D02*
X116183390Y-71910714D01*
X116183390Y-71910714D02*
X116231009Y-71863095D01*
X116231009Y-71863095D02*
X116326247Y-71815476D01*
X116326247Y-71815476D02*
X116564342Y-71815476D01*
X116564342Y-71815476D02*
X116659580Y-71863095D01*
X116659580Y-71863095D02*
X116707200Y-71910714D01*
X116707200Y-71910714D02*
X116754819Y-72005952D01*
X116754819Y-72005952D02*
X116754819Y-72291666D01*
X116754819Y-72291666D02*
X116707200Y-72386904D01*
X116707200Y-72386904D02*
X116659580Y-72434523D01*
X115850057Y-71434523D02*
X115802438Y-71386904D01*
X115802438Y-71386904D02*
X115754819Y-71291666D01*
X115754819Y-71291666D02*
X115754819Y-71053571D01*
X115754819Y-71053571D02*
X115802438Y-70958333D01*
X115802438Y-70958333D02*
X115850057Y-70910714D01*
X115850057Y-70910714D02*
X115945295Y-70863095D01*
X115945295Y-70863095D02*
X116040533Y-70863095D01*
X116040533Y-70863095D02*
X116183390Y-70910714D01*
X116183390Y-70910714D02*
X116754819Y-71482142D01*
X116754819Y-71482142D02*
X116754819Y-70863095D01*
X135604819Y-67330357D02*
X135128628Y-67663690D01*
X135604819Y-67901785D02*
X134604819Y-67901785D01*
X134604819Y-67901785D02*
X134604819Y-67520833D01*
X134604819Y-67520833D02*
X134652438Y-67425595D01*
X134652438Y-67425595D02*
X134700057Y-67377976D01*
X134700057Y-67377976D02*
X134795295Y-67330357D01*
X134795295Y-67330357D02*
X134938152Y-67330357D01*
X134938152Y-67330357D02*
X135033390Y-67377976D01*
X135033390Y-67377976D02*
X135081009Y-67425595D01*
X135081009Y-67425595D02*
X135128628Y-67520833D01*
X135128628Y-67520833D02*
X135128628Y-67901785D01*
X134700057Y-66949404D02*
X134652438Y-66901785D01*
X134652438Y-66901785D02*
X134604819Y-66806547D01*
X134604819Y-66806547D02*
X134604819Y-66568452D01*
X134604819Y-66568452D02*
X134652438Y-66473214D01*
X134652438Y-66473214D02*
X134700057Y-66425595D01*
X134700057Y-66425595D02*
X134795295Y-66377976D01*
X134795295Y-66377976D02*
X134890533Y-66377976D01*
X134890533Y-66377976D02*
X135033390Y-66425595D01*
X135033390Y-66425595D02*
X135604819Y-66997023D01*
X135604819Y-66997023D02*
X135604819Y-66377976D01*
X134604819Y-66044642D02*
X134604819Y-65425595D01*
X134604819Y-65425595D02*
X134985771Y-65758928D01*
X134985771Y-65758928D02*
X134985771Y-65616071D01*
X134985771Y-65616071D02*
X135033390Y-65520833D01*
X135033390Y-65520833D02*
X135081009Y-65473214D01*
X135081009Y-65473214D02*
X135176247Y-65425595D01*
X135176247Y-65425595D02*
X135414342Y-65425595D01*
X135414342Y-65425595D02*
X135509580Y-65473214D01*
X135509580Y-65473214D02*
X135557200Y-65520833D01*
X135557200Y-65520833D02*
X135604819Y-65616071D01*
X135604819Y-65616071D02*
X135604819Y-65901785D01*
X135604819Y-65901785D02*
X135557200Y-65997023D01*
X135557200Y-65997023D02*
X135509580Y-66044642D01*
X128607142Y-121454819D02*
X128273809Y-120978628D01*
X128035714Y-121454819D02*
X128035714Y-120454819D01*
X128035714Y-120454819D02*
X128416666Y-120454819D01*
X128416666Y-120454819D02*
X128511904Y-120502438D01*
X128511904Y-120502438D02*
X128559523Y-120550057D01*
X128559523Y-120550057D02*
X128607142Y-120645295D01*
X128607142Y-120645295D02*
X128607142Y-120788152D01*
X128607142Y-120788152D02*
X128559523Y-120883390D01*
X128559523Y-120883390D02*
X128511904Y-120931009D01*
X128511904Y-120931009D02*
X128416666Y-120978628D01*
X128416666Y-120978628D02*
X128035714Y-120978628D01*
X128940476Y-120454819D02*
X129559523Y-120454819D01*
X129559523Y-120454819D02*
X129226190Y-120835771D01*
X129226190Y-120835771D02*
X129369047Y-120835771D01*
X129369047Y-120835771D02*
X129464285Y-120883390D01*
X129464285Y-120883390D02*
X129511904Y-120931009D01*
X129511904Y-120931009D02*
X129559523Y-121026247D01*
X129559523Y-121026247D02*
X129559523Y-121264342D01*
X129559523Y-121264342D02*
X129511904Y-121359580D01*
X129511904Y-121359580D02*
X129464285Y-121407200D01*
X129464285Y-121407200D02*
X129369047Y-121454819D01*
X129369047Y-121454819D02*
X129083333Y-121454819D01*
X129083333Y-121454819D02*
X128988095Y-121407200D01*
X128988095Y-121407200D02*
X128940476Y-121359580D01*
X129892857Y-120454819D02*
X130559523Y-120454819D01*
X130559523Y-120454819D02*
X130130952Y-121454819D01*
X115104819Y-53239404D02*
X115914342Y-53239404D01*
X115914342Y-53239404D02*
X116009580Y-53191785D01*
X116009580Y-53191785D02*
X116057200Y-53144166D01*
X116057200Y-53144166D02*
X116104819Y-53048928D01*
X116104819Y-53048928D02*
X116104819Y-52858452D01*
X116104819Y-52858452D02*
X116057200Y-52763214D01*
X116057200Y-52763214D02*
X116009580Y-52715595D01*
X116009580Y-52715595D02*
X115914342Y-52667976D01*
X115914342Y-52667976D02*
X115104819Y-52667976D01*
X115438152Y-51763214D02*
X116104819Y-51763214D01*
X115057200Y-52001309D02*
X115771485Y-52239404D01*
X115771485Y-52239404D02*
X115771485Y-51620357D01*
X134666667Y-124407200D02*
X134809524Y-124454819D01*
X134809524Y-124454819D02*
X135047619Y-124454819D01*
X135047619Y-124454819D02*
X135142857Y-124407200D01*
X135142857Y-124407200D02*
X135190476Y-124359580D01*
X135190476Y-124359580D02*
X135238095Y-124264342D01*
X135238095Y-124264342D02*
X135238095Y-124169104D01*
X135238095Y-124169104D02*
X135190476Y-124073866D01*
X135190476Y-124073866D02*
X135142857Y-124026247D01*
X135142857Y-124026247D02*
X135047619Y-123978628D01*
X135047619Y-123978628D02*
X134857143Y-123931009D01*
X134857143Y-123931009D02*
X134761905Y-123883390D01*
X134761905Y-123883390D02*
X134714286Y-123835771D01*
X134714286Y-123835771D02*
X134666667Y-123740533D01*
X134666667Y-123740533D02*
X134666667Y-123645295D01*
X134666667Y-123645295D02*
X134714286Y-123550057D01*
X134714286Y-123550057D02*
X134761905Y-123502438D01*
X134761905Y-123502438D02*
X134857143Y-123454819D01*
X134857143Y-123454819D02*
X135095238Y-123454819D01*
X135095238Y-123454819D02*
X135238095Y-123502438D01*
X135571429Y-123454819D02*
X135809524Y-124454819D01*
X135809524Y-124454819D02*
X136000000Y-123740533D01*
X136000000Y-123740533D02*
X136190476Y-124454819D01*
X136190476Y-124454819D02*
X136428572Y-123454819D01*
X136714286Y-123454819D02*
X137333333Y-123454819D01*
X137333333Y-123454819D02*
X137000000Y-123835771D01*
X137000000Y-123835771D02*
X137142857Y-123835771D01*
X137142857Y-123835771D02*
X137238095Y-123883390D01*
X137238095Y-123883390D02*
X137285714Y-123931009D01*
X137285714Y-123931009D02*
X137333333Y-124026247D01*
X137333333Y-124026247D02*
X137333333Y-124264342D01*
X137333333Y-124264342D02*
X137285714Y-124359580D01*
X137285714Y-124359580D02*
X137238095Y-124407200D01*
X137238095Y-124407200D02*
X137142857Y-124454819D01*
X137142857Y-124454819D02*
X136857143Y-124454819D01*
X136857143Y-124454819D02*
X136761905Y-124407200D01*
X136761905Y-124407200D02*
X136714286Y-124359580D01*
%TO.C,U10*%
X147275000Y-120500000D02*
X147275000Y-120475000D01*
X141550000Y-113675000D02*
X147275000Y-113675000D01*
X142625000Y-120500000D02*
X142625000Y-120475000D01*
X142625000Y-120500000D02*
X147275000Y-120500000D01*
X147275000Y-113675000D02*
X147275000Y-113775000D01*
D11*
%TO.C,Q4*%
X168940000Y-61287500D02*
X168940000Y-62962500D01*
X168940000Y-61287500D02*
X168940000Y-60637500D01*
X172060000Y-61287500D02*
X172060000Y-61937500D01*
X172060000Y-61287500D02*
X172060000Y-60637500D01*
%TO.C,R36*%
X159965000Y-122227064D02*
X159965000Y-121772936D01*
X161435000Y-122227064D02*
X161435000Y-121772936D01*
%TO.C,U3*%
X166025000Y-112982500D02*
X162575000Y-112982500D01*
X166025000Y-112982500D02*
X167975000Y-112982500D01*
X166025000Y-121852500D02*
X164075000Y-121852500D01*
X166025000Y-121852500D02*
X167975000Y-121852500D01*
%TO.C,TP5*%
X151050000Y-138450000D02*
X152950000Y-138450000D01*
X151050000Y-140350000D02*
X151050000Y-138450000D01*
X152950000Y-138450000D02*
X152950000Y-140350000D01*
X152950000Y-140350000D02*
X151050000Y-140350000D01*
%TO.C,F1*%
X156585000Y-142860000D02*
X156585000Y-140940000D01*
X156585000Y-140940000D02*
X153900000Y-140940000D01*
X153900000Y-142860000D02*
X156585000Y-142860000D01*
%TO.C,R15*%
X144465000Y-57614564D02*
X144465000Y-57160436D01*
X145935000Y-57614564D02*
X145935000Y-57160436D01*
%TO.C,D5*%
X171060000Y-101815000D02*
X169140000Y-101815000D01*
X169140000Y-101815000D02*
X169140000Y-104500000D01*
X171060000Y-104500000D02*
X171060000Y-101815000D01*
%TO.C,Q7*%
X136240000Y-61325000D02*
X136240000Y-63000000D01*
X136240000Y-61325000D02*
X136240000Y-60675000D01*
X139360000Y-61325000D02*
X139360000Y-61975000D01*
X139360000Y-61325000D02*
X139360000Y-60675000D01*
%TO.C,Q8*%
X132690000Y-61350000D02*
X132690000Y-63025000D01*
X132690000Y-61350000D02*
X132690000Y-60700000D01*
X135810000Y-61350000D02*
X135810000Y-62000000D01*
X135810000Y-61350000D02*
X135810000Y-60700000D01*
%TO.C,D3*%
X122290000Y-64510000D02*
X124210000Y-64510000D01*
X124210000Y-64510000D02*
X124210000Y-61825000D01*
X122290000Y-61825000D02*
X122290000Y-64510000D01*
%TO.C,R24*%
X132565000Y-66914564D02*
X132565000Y-66460436D01*
X134035000Y-66914564D02*
X134035000Y-66460436D01*
%TO.C,Q5*%
X154140000Y-61287500D02*
X154140000Y-62962500D01*
X154140000Y-61287500D02*
X154140000Y-60637500D01*
X157260000Y-61287500D02*
X157260000Y-61937500D01*
X157260000Y-61287500D02*
X157260000Y-60637500D01*
%TO.C,R39*%
X158972936Y-125865000D02*
X159427064Y-125865000D01*
X158972936Y-127335000D02*
X159427064Y-127335000D01*
%TO.C,R17*%
X134065000Y-57614564D02*
X134065000Y-57160436D01*
X135535000Y-57614564D02*
X135535000Y-57160436D01*
D12*
%TO.C,U1*%
X173950000Y-79387500D02*
X173950000Y-85887500D01*
X173700000Y-79387500D02*
X173950000Y-79387500D01*
X122950000Y-79387500D02*
X123200000Y-79387500D01*
X175250000Y-85887500D02*
X175250000Y-93887500D01*
X173950000Y-85887500D02*
X175250000Y-85887500D01*
X122950000Y-86227500D02*
X122950000Y-79387500D01*
X175250000Y-93887500D02*
X173950000Y-93887500D01*
X173950000Y-93887500D02*
X173950000Y-100387500D01*
X173950000Y-100387500D02*
X173700000Y-100387500D01*
X122950000Y-100387500D02*
X122950000Y-93547500D01*
X122950000Y-100387500D02*
X123200000Y-100387500D01*
D13*
X172680000Y-77697500D02*
G75*
G03*
X172680000Y-77697500I-100000J0D01*
G01*
D11*
%TO.C,R2*%
X167735000Y-123772936D02*
X167735000Y-124227064D01*
X166265000Y-123772936D02*
X166265000Y-124227064D01*
%TO.C,R38*%
X150027064Y-123835000D02*
X149572936Y-123835000D01*
X150027064Y-122365000D02*
X149572936Y-122365000D01*
%TO.C,C5*%
X140435000Y-117626248D02*
X140435000Y-118148752D01*
X138965000Y-117626248D02*
X138965000Y-118148752D01*
%TO.C,TP1*%
X167950000Y-109050000D02*
X169850000Y-109050000D01*
X167950000Y-110950000D02*
X167950000Y-109050000D01*
X169850000Y-109050000D02*
X169850000Y-110950000D01*
X169850000Y-110950000D02*
X167950000Y-110950000D01*
%TO.C,R27*%
X139765000Y-66914564D02*
X139765000Y-66460436D01*
X141235000Y-66914564D02*
X141235000Y-66460436D01*
%TO.C,R1*%
X169665000Y-124227064D02*
X169665000Y-123772936D01*
X171135000Y-124227064D02*
X171135000Y-123772936D01*
%TO.C,J1*%
X137930000Y-140130000D02*
X137930000Y-142200000D01*
X137930000Y-140130000D02*
X138800000Y-140130000D01*
X137930000Y-144600000D02*
X137930000Y-144850000D01*
X142800000Y-139600000D02*
X143400000Y-139600000D01*
X143100000Y-139900000D02*
X142800000Y-139600000D01*
X143100000Y-139900000D02*
X143400000Y-139600000D01*
X144800000Y-140130000D02*
X145670000Y-140130000D01*
X145670000Y-140130000D02*
X145670000Y-142200000D01*
X145670000Y-144600000D02*
X145670000Y-144850000D01*
%TO.C,Q10*%
X150590000Y-61325000D02*
X150590000Y-63000000D01*
X150590000Y-61325000D02*
X150590000Y-60675000D01*
X153710000Y-61325000D02*
X153710000Y-61975000D01*
X153710000Y-61325000D02*
X153710000Y-60675000D01*
%TO.C,R41*%
X156765000Y-117514564D02*
X156765000Y-117060436D01*
X158235000Y-117514564D02*
X158235000Y-117060436D01*
%TO.C,R12*%
X161365000Y-66814564D02*
X161365000Y-66360436D01*
X162835000Y-66814564D02*
X162835000Y-66360436D01*
%TO.C,R18*%
X147865000Y-57614564D02*
X147865000Y-57160436D01*
X149335000Y-57614564D02*
X149335000Y-57160436D01*
%TO.C,R22*%
X143265000Y-66914564D02*
X143265000Y-66460436D01*
X144735000Y-66914564D02*
X144735000Y-66460436D01*
%TO.C,R42*%
X151427064Y-120435000D02*
X150972936Y-120435000D01*
X151427064Y-118965000D02*
X150972936Y-118965000D01*
%TO.C,D2*%
X118290000Y-64572500D02*
X120210000Y-64572500D01*
X120210000Y-64572500D02*
X120210000Y-61887500D01*
X118290000Y-61887500D02*
X118290000Y-64572500D01*
%TO.C,JP1*%
X148150000Y-107200000D02*
X145350000Y-107200000D01*
X148150000Y-105200000D02*
X148150000Y-107200000D01*
X145350000Y-107200000D02*
X145350000Y-105200000D01*
X145350000Y-105200000D02*
X148150000Y-105200000D01*
%TO.C,R20*%
X140965000Y-57614564D02*
X140965000Y-57160436D01*
X142435000Y-57614564D02*
X142435000Y-57160436D01*
%TO.C,U2*%
X140465000Y-72962500D02*
X140465000Y-76412500D01*
X140465000Y-72962500D02*
X140465000Y-71012500D01*
X150585000Y-72962500D02*
X150585000Y-74912500D01*
X150585000Y-72962500D02*
X150585000Y-71012500D01*
%TO.C,Q12*%
X113690000Y-66825000D02*
X113690000Y-68500000D01*
X113690000Y-66825000D02*
X113690000Y-66175000D01*
X116810000Y-66825000D02*
X116810000Y-67475000D01*
X116810000Y-66825000D02*
X116810000Y-66175000D01*
%TO.C,Q3*%
X172540000Y-61287500D02*
X172540000Y-62962500D01*
X172540000Y-61287500D02*
X172540000Y-60637500D01*
X175660000Y-61287500D02*
X175660000Y-61937500D01*
X175660000Y-61287500D02*
X175660000Y-60637500D01*
%TO.C,Q6*%
X143440000Y-61325000D02*
X143440000Y-63000000D01*
X143440000Y-61325000D02*
X143440000Y-60675000D01*
X146560000Y-61325000D02*
X146560000Y-61975000D01*
X146560000Y-61325000D02*
X146560000Y-60675000D01*
%TO.C,Q11*%
X139840000Y-61325000D02*
X139840000Y-63000000D01*
X139840000Y-61325000D02*
X139840000Y-60675000D01*
X142960000Y-61325000D02*
X142960000Y-61975000D01*
X142960000Y-61325000D02*
X142960000Y-60675000D01*
%TO.C,TP2*%
X159250000Y-131350000D02*
X161150000Y-131350000D01*
X159250000Y-133250000D02*
X159250000Y-131350000D01*
X161150000Y-131350000D02*
X161150000Y-133250000D01*
X161150000Y-133250000D02*
X159250000Y-133250000D01*
%TO.C,TP3*%
X163350000Y-108050000D02*
X165250000Y-108050000D01*
X163350000Y-109950000D02*
X163350000Y-108050000D01*
X165250000Y-108050000D02*
X165250000Y-109950000D01*
X165250000Y-109950000D02*
X163350000Y-109950000D01*
%TO.C,R28*%
X115935000Y-57410436D02*
X115935000Y-57864564D01*
X114465000Y-57410436D02*
X114465000Y-57864564D01*
%TO.C,Q14*%
X117690000Y-66887500D02*
X117690000Y-68562500D01*
X117690000Y-66887500D02*
X117690000Y-66237500D01*
X120810000Y-66887500D02*
X120810000Y-67537500D01*
X120810000Y-66887500D02*
X120810000Y-66237500D01*
%TO.C,R21*%
X154065000Y-66914564D02*
X154065000Y-66460436D01*
X155535000Y-66914564D02*
X155535000Y-66460436D01*
%TO.C,R34*%
X121765000Y-72352064D02*
X121765000Y-71897936D01*
X123235000Y-72352064D02*
X123235000Y-71897936D01*
%TO.C,R30*%
X123985000Y-57410436D02*
X123985000Y-57864564D01*
X122515000Y-57410436D02*
X122515000Y-57864564D01*
%TO.C,R10*%
X172465000Y-66814564D02*
X172465000Y-66360436D01*
X173935000Y-66814564D02*
X173935000Y-66360436D01*
%TO.C,Q15*%
X121690000Y-66887500D02*
X121690000Y-68562500D01*
X121690000Y-66887500D02*
X121690000Y-66237500D01*
X124810000Y-66887500D02*
X124810000Y-67537500D01*
X124810000Y-66887500D02*
X124810000Y-66237500D01*
%TO.C,Q16*%
X125690000Y-66825000D02*
X125690000Y-68500000D01*
X125690000Y-66825000D02*
X125690000Y-66175000D01*
X128810000Y-66825000D02*
X128810000Y-67475000D01*
X128810000Y-66825000D02*
X128810000Y-66175000D01*
%TO.C,R31*%
X127985000Y-57410436D02*
X127985000Y-57864564D01*
X126515000Y-57410436D02*
X126515000Y-57864564D01*
%TO.C,R29*%
X119985000Y-57410436D02*
X119985000Y-57864564D01*
X118515000Y-57410436D02*
X118515000Y-57864564D01*
%TO.C,R33*%
X117865000Y-72352064D02*
X117865000Y-71897936D01*
X119335000Y-72352064D02*
X119335000Y-71897936D01*
%TO.C,TP4*%
X118300000Y-140550000D02*
X120200000Y-140550000D01*
X118300000Y-142450000D02*
X118300000Y-140550000D01*
X120200000Y-140550000D02*
X120200000Y-142450000D01*
X120200000Y-142450000D02*
X118300000Y-142450000D01*
%TO.C,Q13*%
X157840000Y-61325000D02*
X157840000Y-63000000D01*
X157840000Y-61325000D02*
X157840000Y-60675000D01*
X160960000Y-61325000D02*
X160960000Y-61975000D01*
X160960000Y-61325000D02*
X160960000Y-60675000D01*
%TO.C,R8*%
X157565000Y-66914564D02*
X157565000Y-66460436D01*
X159035000Y-66914564D02*
X159035000Y-66460436D01*
%TO.C,R16*%
X137465000Y-57614564D02*
X137465000Y-57160436D01*
X138935000Y-57614564D02*
X138935000Y-57160436D01*
%TO.C,R26*%
X150365000Y-66914564D02*
X150365000Y-66460436D01*
X151835000Y-66914564D02*
X151835000Y-66460436D01*
%TO.C,D6*%
X152810000Y-142887500D02*
X152810000Y-140887500D01*
X152810000Y-142887500D02*
X148950000Y-142887500D01*
X152810000Y-140887500D02*
X148950000Y-140887500D01*
%TO.C,R14*%
X154965000Y-57514564D02*
X154965000Y-57060436D01*
X156435000Y-57514564D02*
X156435000Y-57060436D01*
%TO.C,R13*%
X158665000Y-57514564D02*
X158665000Y-57060436D01*
X160135000Y-57514564D02*
X160135000Y-57060436D01*
%TO.C,R11*%
X165065000Y-66814564D02*
X165065000Y-66360436D01*
X166535000Y-66814564D02*
X166535000Y-66360436D01*
%TO.C,D1*%
X114290000Y-64572500D02*
X116210000Y-64572500D01*
X116210000Y-64572500D02*
X116210000Y-61887500D01*
X114290000Y-61887500D02*
X114290000Y-64572500D01*
D12*
%TO.C,SW1*%
X116770000Y-135080000D02*
X116770000Y-124920000D01*
X133230000Y-124920000D02*
X116770000Y-124920000D01*
X133230000Y-124920000D02*
X133230000Y-135080000D01*
X133230000Y-126700000D02*
X133230000Y-128250000D01*
X133230000Y-135080000D02*
X116770000Y-135080000D01*
D13*
X116060000Y-128430000D02*
G75*
G03*
X116060000Y-128430000I-100000J0D01*
G01*
D11*
%TO.C,R19*%
X151265000Y-57614564D02*
X151265000Y-57160436D01*
X152735000Y-57614564D02*
X152735000Y-57160436D01*
%TO.C,C4*%
X160711252Y-118112500D02*
X160188748Y-118112500D01*
X160711252Y-116642500D02*
X160188748Y-116642500D01*
%TO.C,Q2*%
X165240000Y-61325000D02*
X165240000Y-63000000D01*
X165240000Y-61325000D02*
X165240000Y-60675000D01*
X168360000Y-61325000D02*
X168360000Y-61975000D01*
X168360000Y-61325000D02*
X168360000Y-60675000D01*
%TO.C,Q1*%
X161540000Y-61325000D02*
X161540000Y-63000000D01*
X161540000Y-61325000D02*
X161540000Y-60675000D01*
X164660000Y-61325000D02*
X164660000Y-61975000D01*
X164660000Y-61325000D02*
X164660000Y-60675000D01*
%TO.C,C6*%
X147265000Y-111923752D02*
X147265000Y-111401248D01*
X148735000Y-111923752D02*
X148735000Y-111401248D01*
%TO.C,Q9*%
X147040000Y-61325000D02*
X147040000Y-63000000D01*
X147040000Y-61325000D02*
X147040000Y-60675000D01*
X150160000Y-61325000D02*
X150160000Y-61975000D01*
X150160000Y-61325000D02*
X150160000Y-60675000D01*
%TO.C,D4*%
X126290000Y-64572500D02*
X128210000Y-64572500D01*
X128210000Y-64572500D02*
X128210000Y-61887500D01*
X126290000Y-61887500D02*
X126290000Y-64572500D01*
%TO.C,C1*%
X138761252Y-71435000D02*
X138238748Y-71435000D01*
X138761252Y-69965000D02*
X138238748Y-69965000D01*
%TO.C,R35*%
X125765000Y-72352064D02*
X125765000Y-71897936D01*
X127235000Y-72352064D02*
X127235000Y-71897936D01*
%TO.C,R40*%
X138965000Y-114414564D02*
X138965000Y-113960436D01*
X140435000Y-114414564D02*
X140435000Y-113960436D01*
%TO.C,R25*%
X146965000Y-66914564D02*
X146965000Y-66460436D01*
X148435000Y-66914564D02*
X148435000Y-66460436D01*
%TO.C,U7*%
X156340000Y-122500000D02*
X156340000Y-124300000D01*
X156340000Y-122500000D02*
X156340000Y-121700000D01*
X159460000Y-122500000D02*
X159460000Y-123300000D01*
X159460000Y-122500000D02*
X159460000Y-121700000D01*
%TO.C,R3*%
X126298752Y-137335000D02*
X125776248Y-137335000D01*
X126298752Y-135865000D02*
X125776248Y-135865000D01*
%TO.C,R9*%
X168765000Y-66814564D02*
X168765000Y-66360436D01*
X170235000Y-66814564D02*
X170235000Y-66360436D01*
%TO.C,R32*%
X113765000Y-72352064D02*
X113765000Y-71897936D01*
X115235000Y-72352064D02*
X115235000Y-71897936D01*
%TO.C,R23*%
X136065000Y-66914564D02*
X136065000Y-66460436D01*
X137535000Y-66914564D02*
X137535000Y-66460436D01*
%TO.C,R37*%
X127635000Y-120772936D02*
X127635000Y-121227064D01*
X126165000Y-120772936D02*
X126165000Y-121227064D01*
%TO.C,U4*%
X134650000Y-54857500D02*
X136650000Y-54857500D01*
X116730000Y-54477500D02*
X167270000Y-54477500D01*
X116730000Y-54477500D02*
X116730000Y-35237500D01*
X167270000Y-54477500D02*
X167270000Y-35237500D01*
X167270000Y-35237500D02*
X116730000Y-35237500D01*
D12*
%TO.C,SW3*%
X134770000Y-124920000D02*
X136767500Y-124920000D01*
X134770000Y-135080000D02*
X134770000Y-124920000D01*
X136767500Y-135080000D02*
X134770000Y-135080000D01*
X149232500Y-124920000D02*
X151230000Y-124920000D01*
X151230000Y-124920000D02*
X151230000Y-135080000D01*
X151230000Y-135080000D02*
X149232500Y-135080000D01*
D13*
X134120000Y-126545000D02*
G75*
G03*
X134120000Y-126545000I-100000J0D01*
G01*
%TD*%
M02*
