M48
; DRILL file {KiCad 7.0.9-7.0.9~ubuntu22.04.1} date Sun 21 Jan 2024 01:01:49 AM MST
; FORMAT={-:-/ absolute / inch / decimal}
; #@! TF.CreationDate,2024-01-21T01:01:49-07:00
; #@! TF.GenerationSoftware,Kicad,Pcbnew,7.0.9-7.0.9~ubuntu22.04.1
; #@! TF.FileFunction,MixedPlating,1,2
FMAT,2
INCH
; #@! TA.AperFunction,Plated,PTH,ViaDrill
T1C0.0157
; #@! TA.AperFunction,Plated,PTH,ComponentDrill
T2C0.0197
; #@! TA.AperFunction,Plated,PTH,ComponentDrill
T3C0.0236
; #@! TA.AperFunction,Plated,PTH,ComponentDrill
T4C0.0256
; #@! TA.AperFunction,Plated,PTH,ComponentDrill
T5C0.0276
; #@! TA.AperFunction,Plated,PTH,ComponentDrill
T6C0.0394
; #@! TA.AperFunction,Plated,PTH,ComponentDrill
T7C0.0689
; #@! TA.AperFunction,Plated,PTH,ComponentDrill
T8C0.1063
; #@! TA.AperFunction,Plated,PTH,ComponentDrill
T9C0.2126
%
G90
G05
T1
X4.6181Y-2.531
X4.7677Y-3.5349
X4.7717Y-2.531
X4.9291Y-2.531
X5.0866Y-2.531
X5.0906Y-3.2633
X5.0945Y-3.8027
X5.315Y-2.72
X5.3386Y-4.7441
X5.3622Y-3.6609
X5.4134Y-2.8661
X5.4331Y-4.6845
X5.4409Y-3.6609
X5.4646Y-4.7362
X5.4843Y-2.9685
X5.5Y-1.6417
X5.5Y-1.689
X5.5Y-2.7165
X5.5Y-3.4685
X5.5354Y-5.4646
X5.5827Y-1.6457
X5.5827Y-1.689
X5.5906Y-5.1063
X5.5945Y-2.1142
X5.5945Y-3.2672
X5.5945Y-4.031
X5.6299Y-4.2953
X5.6535Y-4.5177
X5.685Y-3.4685
X5.6909Y-4.5669
X5.6929Y-2.8293
X5.6929Y-3.6806
X5.6929Y-3.7672
X5.7244Y-5.1063
X5.7323Y-4.2953
X5.7756Y-2.8499
X5.7795Y-1.5748
X5.7795Y-3.2712
X5.7835Y-2.189
X5.8228Y-3.4646
X5.8268Y-4.3027
X5.8307Y-2.842
X5.8307Y-3.2672
X5.8583Y-1.6535
X5.8583Y-3.3932
X5.874Y-5.5157
X5.878Y-4.1811
X5.8898Y-4.5231
X5.9173Y-2.1732
X5.9173Y-5.3937
X5.9213Y-3.6688
X5.9252Y-3.2633
X5.9449Y-4.0197
X5.9567Y-2.9719
X5.9567Y-4.1024
X5.9606Y-3.8145
X6.0315Y-4.874
X6.0354Y-3.6649
X6.0354Y-4.0389
X6.0394Y-4.4331
X6.0394Y-4.4961
X6.0433Y-3.8145
X6.0472Y-4.7992
X6.0512Y-2.1614
X6.0512Y-4.7087
X6.0669Y-2.9916
X6.0748Y-1.8071
X6.0787Y-1.7087
X6.0787Y-1.7559
X6.0866Y-4.6496
X6.0945Y-4.0271
X6.0984Y-3.2672
X6.1299Y-2.0276
X6.1299Y-2.1063
X6.1299Y-4.7776
X6.1339Y-1.5787
X6.1339Y-1.6496
X6.1378Y-3.7205
X6.1378Y-4.0197
X6.1496Y-3.3504
X6.1575Y-3.031
X6.1654Y-1.7087
X6.1654Y-1.7559
X6.185Y-3.3071
X6.1969Y-2.1693
X6.2008Y-3.6929
X6.2008Y-4.5197
X6.2126Y-2.9326
X6.2441Y-2.8696
X6.252Y-2.9956
X6.2598Y-4.5551
X6.2677Y-3.8105
X6.2677Y-4.0271
X6.2913Y-2.0157
X6.2913Y-2.0984
X6.3071Y-3.5276
X6.3189Y-2.9916
X6.3268Y-1.8071
X6.3268Y-4.7013
X6.3346Y-2.1693
X6.3661Y-4.5236
X6.3661Y-4.9134
X6.374Y-5.0433
X6.4134Y-2.9326
X6.4567Y-2.5231
X6.4606Y-5.0906
X6.4646Y-5.0197
X6.4803Y-2.8656
X6.5118Y-4.1575
X6.5276Y-2.0039
X6.563Y-4.622
X6.5669Y-4.4727
X6.5748Y-4.9769
X6.5827Y-5.0197
X6.5866Y-5.0906
X6.5906Y-2.9956
X6.5945Y-4.0231
X6.6063Y-2.5231
X6.626Y-2.0945
X6.6693Y-3.3819
X6.6693Y-3.6929
X6.7717Y-2.5153
X6.7874Y-3.3622
X6.7874Y-3.7087
X6.8543Y-2.7953
T2
X4.3297Y-1.5354
X4.3297Y-5.5512
X4.3531Y-1.4791
X4.3531Y-1.5918
X4.3531Y-5.4948
X4.3531Y-5.6076
X4.4094Y-1.4557
X4.4094Y-1.6152
X4.4094Y-5.4715
X4.4094Y-5.6309
X4.4658Y-1.4791
X4.4658Y-1.5918
X4.4658Y-5.4948
X4.4658Y-5.6076
X4.4892Y-1.5354
X4.4892Y-5.5512
X6.6919Y-1.5354
X6.6919Y-5.5512
X6.7153Y-1.4791
X6.7153Y-1.5918
X6.7153Y-5.4948
X6.7153Y-5.6076
X6.7717Y-1.4557
X6.7717Y-1.6152
X6.7717Y-5.4715
X6.7717Y-5.6309
X6.828Y-1.4791
X6.828Y-1.5918
X6.828Y-5.4948
X6.828Y-5.6076
X6.8514Y-1.5354
X6.8514Y-5.5512
T5
X4.6949Y-5.5709
X5.9843Y-5.4882
X6.3071Y-5.2087
X6.4685Y-4.2913
X6.6496Y-4.3307
T6
X5.3406Y-1.466
X5.3406Y-2.066
X5.4406Y-1.466
X5.4406Y-2.066
X5.5406Y-1.466
X5.5406Y-2.066
X5.6406Y-1.466
X5.6406Y-2.066
X5.7406Y-1.466
X5.7406Y-2.066
X5.8406Y-1.466
X5.8406Y-2.066
T7
X4.7402Y-5.0752
X4.9213Y-5.0752
X5.4488Y-4.9821
X5.4488Y-5.2541
X5.6299Y-4.9821
X5.6299Y-5.2541
X5.811Y-4.9821
X5.811Y-5.2541
T8
X4.4094Y-1.5354
X4.4094Y-5.5512
X6.7717Y-1.5354
X6.7717Y-5.5512
T9
X5.0472Y-4.2475
X6.189Y-4.2475
T3
G00X5.4183Y-5.6319
M15
G01X5.4183Y-5.6594
M16
G05
G00X5.747Y-5.6319
M15
G01X5.747Y-5.6594
M16
G05
T4
G00X5.4951Y-5.5236
M15
G01X5.4951Y-5.5315
M16
G05
G00X5.6703Y-5.5236
M15
G01X5.6703Y-5.5315
M16
G05
T0
M30
